<?xml version="1.0" encoding="UTF-8"?>
<svg xmlns="http://www.w3.org/2000/svg" xmlns:xlink="http://www.w3.org/1999/xlink" id="Layer_1" data-name="Layer 1" viewBox="0 0 1122.90002 841.90002">
  <defs>
    <style>.cls-1,.cls-10,.cls-11,.cls-12,.cls-13,.cls-14,.cls-15,.cls-19,.cls-20,.cls-27,.cls-4,.cls-5,.cls-6,.cls-7,.cls-8,.cls-9{fill:none;}.cls-2{fill:#4663ac;}.cls-3{fill:#f6f4ee;}.cls-10,.cls-11,.cls-12,.cls-13,.cls-14,.cls-15,.cls-4,.cls-5,.cls-6,.cls-7,.cls-8,.cls-9{stroke:#fcfbf9;}.cls-4{stroke-width:4.88203px;opacity:0.75;}.cls-5{stroke-width:8.32164px;opacity:0.70455;}.cls-6{stroke-width:11.76125px;opacity:0.65909;}.cls-7{stroke-width:15.20086px;opacity:0.61364;}.cls-8{stroke-width:18.64047px;opacity:0.56818;}.cls-9{stroke-width:22.08008px;opacity:0.52273;}.cls-10{stroke-width:25.5197px;opacity:0.47727;}.cls-11{stroke-width:28.95931px;opacity:0.43182;}.cls-12{stroke-width:32.39892px;opacity:0.38636;}.cls-13{stroke-width:35.83853px;opacity:0.34091;}.cls-14{stroke-width:39.27814px;opacity:0.29545;}.cls-15{stroke-width:42.71775px;opacity:0.25;}.cls-16{fill:#7e92c5;}.cls-17{fill:#a0afd4;}.cls-18{fill:#c1cbe4;}.cls-19,.cls-20,.cls-27{stroke:#2c2439;stroke-miterlimit:10;}.cls-19,.cls-20{stroke-width:1.25005px;}.cls-20{stroke-linecap:square;}.cls-21{clip-path:url(#clip-path);}.cls-22,.cls-24,.cls-26{opacity:0.5;}.cls-22{fill:url(#_6_3);}.cls-23{clip-path:url(#clip-path-2);}.cls-24{fill:url(#_6_6);}.cls-25{clip-path:url(#clip-path-3);}.cls-26{fill:url(#_3_2);}.cls-27{stroke-width:2.88535px;}.cls-28{fill:#2c2439;}</style>
    <clipPath id="clip-path">
      <rect class="cls-1" x="277.00963" y="590.59035" width="581.42665" height="98.8713"></rect>
    </clipPath>
    <pattern id="_6_3" data-name="6 3" width="15.4233" height="15.4233" patternTransform="translate(583.70164 22.6828) scale(3.64455)" patternUnits="userSpaceOnUse" viewBox="0 0 15.423 15.423">
      <rect class="cls-1" width="15.4233" height="15.4233"></rect>
      <path class="cls-2" d="M16.04176,2.0857a.37595.37595,0,1,0-.39453.3565A.37611.37611,0,0,0,16.04176,2.0857Z"></path>
      <path class="cls-2" d="M7.57841.918a.37642.37642,0,1,0-.39453.3554A.37409.37409,0,0,0,7.57841.918Z"></path>
      <path class="cls-2" d="M11.8069,10.03057a.37588.37588,0,1,0-.3945.3564A.375.375,0,0,0,11.8069,10.03057Z"></path>
      <path class="cls-2" d="M4.15361,6.46449a.37592.37592,0,1,0-.39453.3564A.37664.37664,0,0,0,4.15361,6.46449Z"></path>
      <path class="cls-2" d="M1.43681,10.03157a.3759.3759,0,1,0-.751-.0352.3759.3759,0,0,0,.751.0352Z"></path>
      <path class="cls-2" d="M4.49152,2.83678a.37591.37591,0,1,0-.39453.3554A.37529.37529,0,0,0,4.49152,2.83678Z"></path>
      <path class="cls-2" d="M10.6272,13.6164a.37591.37591,0,1,0-.3945.3555A.3775.3775,0,0,0,10.6272,13.6164Z"></path>
      <path class="cls-2" d="M6.44953,12.34987a.376.376,0,1,0-.39453.3555A.37752.37752,0,0,0,6.44953,12.34987Z"></path>
      <path class="cls-2" d="M7.20153,8.86933a.376.376,0,1,0-.39453.3555A.37752.37752,0,0,0,7.20153,8.86933Z"></path>
      <path class="cls-2" d="M9.346,5.40711a.3759.3759,0,1,0-.39449.3575A.37516.37516,0,0,0,9.346,5.40711Z"></path>
      <path class="cls-2" d="M12.394,5.78347a.3759.3759,0,1,0-.39449.3575A.37516.37516,0,0,0,12.394,5.78347Z"></path>
      <path class="cls-2" d="M.61846,2.0857a.37595.37595,0,1,0-.39453.3565A.37611.37611,0,0,0,.61846,2.0857Z"></path>
      <path class="cls-2" d="M15.556,6.84083a.376.376,0,1,0-.3946.3564A.37687.37687,0,0,0,15.556,6.84083Z"></path>
      <path class="cls-2" d="M14.0516,13.61448a.37591.37591,0,1,0-.3945.3575A.37576.37576,0,0,0,14.0516,13.61448Z"></path>
      <path class="cls-2" d="M3.04326,14.54427a.37593.37593,0,1,0-.39453.3564A.375.375,0,0,0,3.04326,14.54427Z"></path>
      <path class="cls-2" d="M11.8069,2.46127a.37587.37587,0,1,0-.7509-.0352.37587.37587,0,0,0,.7509.0352Z"></path>
      <path class="cls-2" d="M.13267,6.84083a.37687.37687,0,0,0-.3574-.3955.37537.37537,0,0,0-.3936.3584.37433.37433,0,0,0,.3564.3935A.37726.37726,0,0,0,.13267,6.84083Z"></path>
    </pattern>
    <clipPath id="clip-path-2">
      <rect class="cls-1" x="277.00963" y="467.60081" width="581.42665" height="97.98776"></rect>
    </clipPath>
    <pattern id="_6_6" data-name="6 6" width="15.4233" height="15.4233" patternTransform="translate(506.84904 56.05711) scale(3.27637)" patternUnits="userSpaceOnUse" viewBox="0 0 15.423 15.423">
      <rect class="cls-1" width="15.4233" height="15.4233"></rect>
      <path class="cls-2" d="M6.229.91807a.37642.37642,0,1,0-.39453.3554A.37409.37409,0,0,0,6.229.91807Z"></path>
      <path class="cls-2" d="M9.50144.91807a.37642.37642,0,1,0-.39453.3554A.37409.37409,0,0,0,9.50144.91807Z"></path>
      <path class="cls-2" d="M12.5485,8.48329a.37588.37588,0,1,0-.3945.3564A.375.375,0,0,0,12.5485,8.48329Z"></path>
      <path class="cls-2" d="M13.83063,10.407a.37588.37588,0,1,0-.3945.3564A.375.375,0,0,0,13.83063,10.407Z"></path>
      <path class="cls-2" d="M10.03027,9.244a.37588.37588,0,1,0-.3945.3564A.375.375,0,0,0,10.03027,9.244Z"></path>
      <path class="cls-2" d="M13.83063.91717a.37588.37588,0,1,0-.3945.3564A.375.375,0,0,0,13.83063.91717Z"></path>
      <path class="cls-2" d="M1.59187,5.03182a.37592.37592,0,1,0-.39453.3564A.37664.37664,0,0,0,1.59187,5.03182Z"></path>
      <path class="cls-2" d="M1.21588,10.78339a.3759.3759,0,1,0-.751-.0352.3759.3759,0,0,0,.751.0352Z"></path>
      <path class="cls-2" d="M3.89459,1.7094a.37591.37591,0,1,0-.39453.3554A.37529.37529,0,0,0,3.89459,1.7094Z"></path>
      <path class="cls-2" d="M10.03027,13.61643a.37591.37591,0,1,0-.3945.3555A.3775.3775,0,0,0,10.03027,13.61643Z"></path>
      <path class="cls-2" d="M11.42058,11.91256a.37591.37591,0,1,0-.3945.3555A.3775.3775,0,0,0,11.42058,11.91256Z"></path>
      <path class="cls-2" d="M14.20659,3.5896a.37591.37591,0,1,0-.3945.3555A.3775.3775,0,0,0,14.20659,3.5896Z"></path>
      <path class="cls-2" d="M4.64654,4.34235a.37591.37591,0,1,0-.3945.3555A.3775.3775,0,0,0,4.64654,4.34235Z"></path>
      <path class="cls-2" d="M6.6046,13.61638a.376.376,0,1,0-.39453.3555A.37752.37752,0,0,0,6.6046,13.61638Z"></path>
      <path class="cls-2" d="M8.08727,10.78424a.376.376,0,1,0-.39453.3555A.37752.37752,0,0,0,8.08727,10.78424Z"></path>
      <path class="cls-2" d="M5.4766,9.24573a.376.376,0,1,0-.39453.3555A.37752.37752,0,0,0,5.4766,9.24573Z"></path>
      <path class="cls-2" d="M8.46327,7.7323a.376.376,0,1,0-.39453.3555A.37752.37752,0,0,0,8.46327,7.7323Z"></path>
      <path class="cls-2" d="M5.1006,6.84173a.376.376,0,1,0-.39453.3555A.37752.37752,0,0,0,5.1006,6.84173Z"></path>
      <path class="cls-2" d="M2.34387,8.10954a.376.376,0,1,0-.39453.3555A.37752.37752,0,0,0,2.34387,8.10954Z"></path>
      <path class="cls-2" d="M1.59188,2.46215a.376.376,0,1,0-.39453.3555A.37752.37752,0,0,0,1.59188,2.46215Z"></path>
      <path class="cls-2" d="M4.27059,11.53613a.376.376,0,1,0-.39453.3555A.37752.37752,0,0,0,4.27059,11.53613Z"></path>
      <path class="cls-2" d="M1.96787,13.61638a.376.376,0,1,0-.39453.3555A.37752.37752,0,0,0,1.96787,13.61638Z"></path>
      <path class="cls-2" d="M8.08727,2.83853a.376.376,0,1,0-.39453.3555A.37752.37752,0,0,0,8.08727,2.83853Z"></path>
      <path class="cls-2" d="M7.71124,5.40714a.3759.3759,0,1,0-.39449.3575A.37516.37516,0,0,0,7.71124,5.40714Z"></path>
      <path class="cls-2" d="M11.04463,5.78349a.3759.3759,0,1,0-.39449.3575A.37516.37516,0,0,0,11.04463,5.78349Z"></path>
      <path class="cls-2" d="M.83988.54251A.37594.37594,0,1,0,.44535.899.3761.3761,0,0,0,.83988.54251Z"></path>
      <path class="cls-2" d="M14.959,6.84086a.376.376,0,1,0-.3946.3564A.37687.37687,0,0,0,14.959,6.84086Z"></path>
      <path class="cls-2" d="M12.54845,14.16868a.37591.37591,0,1,0-.3945.3575A.37576.37576,0,0,0,12.54845,14.16868Z"></path>
      <path class="cls-2" d="M15.33486,13.23813a.37591.37591,0,1,0-.3945.3575A.37576.37576,0,0,0,15.33486,13.23813Z"></path>
      <path class="cls-2" d="M4.27059,14.91981a.37593.37593,0,1,0-.39453.3564A.375.375,0,0,0,4.27059,14.91981Z"></path>
      <path class="cls-2" d="M11.42058,2.83681a.37587.37587,0,1,0-.7509-.0352.37587.37587,0,0,0,.7509.0352Z"></path>
    </pattern>
    <clipPath id="clip-path-3">
      <rect class="cls-1" x="276.91439" y="342.84452" width="581.52189" height="98.87131"></rect>
    </clipPath>
    <pattern id="_3_2" data-name="3 2" width="15.4233" height="15.4233" patternTransform="translate(591.66273 96.00883) scale(4.37562)" patternUnits="userSpaceOnUse" viewBox="0 0 15.423 15.423">
      <rect class="cls-1" width="15.4233" height="15.4233"></rect>
      <path class="cls-2" d="M8.79365,15.63024a.37543.37543,0,1,0-.39453.3575A.37378.37378,0,0,0,8.79365,15.63024Z"></path>
      <path class="cls-2" d="M15.95523,11.65522a.37641.37641,0,1,0-.39453.35742A.37665.37665,0,0,0,15.95523,11.65522Z"></path>
      <path class="cls-2" d="M2.18623,6.49116a.37643.37643,0,1,0-.39648.35742A.37578.37578,0,0,0,2.18623,6.49116Z"></path>
      <path class="cls-2" d="M10.56318,8.3017a.37637.37637,0,1,0-.3945.35547A.37664.37664,0,0,0,10.56318,8.3017Z"></path>
      <path class="cls-2" d="M8.0417,8.67768a.3764.3764,0,1,0-.39453.35547A.3732.3732,0,0,0,8.0417,8.67768Z"></path>
      <path class="cls-2" d="M9.17061,9.98725a.37438.37438,0,0,0-.35547-.39453.37927.37927,0,0,0-.39649.35938.37436.37436,0,0,0,.35742.39062A.37.37,0,0,0,9.17061,9.98725Z"></path>
      <path class="cls-2" d="M8.0417,2.41894a.37268.37268,0,0,0-.35547-.3946.37551.37551,0,1,0-.03906.75A.37194.37194,0,0,0,8.0417,2.41894Z"></path>
      <path class="cls-2" d="M7.13154,14.68354A.37639.37639,0,1,0,6.737,15.041.37637.37637,0,0,0,7.13154,14.68354Z"></path>
      <path class="cls-2" d="M11.09048,12.30561a.37546.37546,0,1,0-.3945.35645A.37428.37428,0,0,0,11.09048,12.30561Z"></path>
      <path class="cls-2" d="M12.27018,10.36323a.37544.37544,0,1,0-.3945.35644A.37341.37341,0,0,0,12.27018,10.36323Z"></path>
      <path class="cls-2" d="M5.58467,9.20112a.37544.37544,0,1,0-.39453.35644A.37524.37524,0,0,0,5.58467,9.20112Z"></path>
      <path class="cls-2" d="M6.84639,10.3642a.3764.3764,0,1,0-.39453.35547A.37667.37667,0,0,0,6.84639,10.3642Z"></path>
      <path class="cls-2" d="M1.90107,10.3642a.3764.3764,0,1,0-.39648.35547A.37666.37666,0,0,0,1.90107,10.3642Z"></path>
      <path class="cls-2" d="M4.57881,4.01464a.37542.37542,0,1,0-.39453.3554A.37387.37387,0,0,0,4.57881,4.01464Z"></path>
      <path class="cls-2" d="M2.75459,1.706a.37546.37546,0,1,0-.39453.3564A.376.376,0,0,0,2.75459,1.706Z"></path>
      <path class="cls-2" d="M7.6999,4.29874a.37543.37543,0,1,0-.39453.3565A.37527.37527,0,0,0,7.6999,4.29874Z"></path>
      <path class="cls-2" d="M7.6999,7.24506a.37546.37546,0,1,0-.39453.35645A.37465.37465,0,0,0,7.6999,7.24506Z"></path>
      <path class="cls-2" d="M6.75459,5.74014a.37546.37546,0,1,0-.39453.35746A.37736.37736,0,0,0,6.75459,5.74014Z"></path>
      <path class="cls-2" d="M11.89518,5.246a.37641.37641,0,1,0-.7519-.0371.37641.37641,0,0,0,.7519.0371Z"></path>
      <path class="cls-2" d="M11.89518,8.67768a.37641.37641,0,1,0-.7519-.03711.37641.37641,0,0,0,.7519.03711Z"></path>
      <path class="cls-2" d="M5.20967,14.291a.37644.37644,0,1,0-.752-.03711.37644.37644,0,0,0,.752.03711Z"></path>
      <path class="cls-2" d="M5.20967,6.27241a.37644.37644,0,1,0-.39453.35644A.37747.37747,0,0,0,5.20967,6.27241Z"></path>
      <path class="cls-2" d="M13.16478,7.02534a.37644.37644,0,1,0-.3946.35644A.37819.37819,0,0,0,13.16478,7.02534Z"></path>
      <path class="cls-2" d="M5.95967,1.21574a.37546.37546,0,1,0-.39453.3555A.37617.37617,0,0,0,5.95967,1.21574Z"></path>
      <path class="cls-2" d="M4.57881,12.40913a.37546.37546,0,1,0-.39453.35644A.37465.37465,0,0,0,4.57881,12.40913Z"></path>
      <path class="cls-2" d="M11.09048,15.25385a.37544.37544,0,1,0-.3945.35742A.37369.37369,0,0,0,11.09048,15.25385Z"></path>
      <path class="cls-2" d="M8.41865,12.68256a.37644.37644,0,1,0-.75195-.03711.37644.37644,0,0,0,.75195.03711Z"></path>
      <path class="cls-2" d="M10.56128,6.11616a.37544.37544,0,1,0-.3946.35742A.37384.37384,0,0,0,10.56128,6.11616Z"></path>
      <path class="cls-2" d="M10.278,4.29784a.37639.37639,0,1,0-.3945.3574A.37666.37666,0,0,0,10.278,4.29784Z"></path>
      <path class="cls-2" d="M3.50654,8.30073a.37641.37641,0,1,0-.39453.35742A.37665.37665,0,0,0,3.50654,8.30073Z"></path>
      <path class="cls-2" d="M.90889.83784a.37644.37644,0,1,0-.39454.3574A.376.376,0,0,0,.90889.83784Z"></path>
      <path class="cls-2" d="M6.46943,2.79294a.37544.37544,0,1,0-.39453.3574A.37386.37386,0,0,0,6.46943,2.79294Z"></path>
      <path class="cls-2" d="M.90889,14.30854a.37644.37644,0,1,0-.39454.35742A.37608.37608,0,0,0,.90889,14.30854Z"></path>
      <path class="cls-2" d="M6.33662,12.40815a.37641.37641,0,1,0-.39453.35742A.37665.37665,0,0,0,6.33662,12.40815Z"></path>
      <path class="cls-2" d="M13.33078,15.25287a.37544.37544,0,1,0-.3945.35742A.37382.37382,0,0,0,13.33078,15.25287Z"></path>
      <path class="cls-2" d="M15.26828,6.11616a.37643.37643,0,1,0-.3945.35742A.37671.37671,0,0,0,15.26828,6.11616Z"></path>
      <path class="cls-2" d="M12.78778,1.33a.37546.37546,0,1,0-.3945.3574A.37737.37737,0,0,0,12.78778,1.33Z"></path>
      <path class="cls-2" d="M2.75459,4.494a.37546.37546,0,1,0-.39453.3575A.3774.3774,0,0,0,2.75459,4.494Z"></path>
      <path class="cls-2" d="M4.20381.83784a.37643.37643,0,1,0-.39453.3574A.376.376,0,0,0,4.20381.83784Z"></path>
      <path class="cls-2" d="M8.79365.20694a.37544.37544,0,1,0-.75-.0361.37542.37542,0,0,0,.35547.3936A.37739.37739,0,0,0,8.79365.20694Z"></path>
      <path class="cls-2" d="M4.20381,10.36323a.37641.37641,0,1,0-.39453.35742A.37665.37665,0,0,0,4.20381,10.36323Z"></path>
      <path class="cls-2" d="M9.90108,13.913a.37641.37641,0,1,0-.39454.35742A.37665.37665,0,0,0,9.90108,13.913Z"></path>
      <path class="cls-2" d="M13.91668,9.20014a.37638.37638,0,1,0-.3945.35742A.37664.37664,0,0,0,13.91668,9.20014Z"></path>
      <path class="cls-2" d="M8.79561,5.74014a.37644.37644,0,1,0-.39454.35746A.37612.37612,0,0,0,8.79561,5.74014Z"></path>
      <path class="cls-2" d="M1.80928,8.30073a.37641.37641,0,1,0-.39453.35742A.37665.37665,0,0,0,1.80928,8.30073Z"></path>
      <path class="cls-2" d="M.53193,11.65522a.37641.37641,0,1,0-.39453.35742A.37665.37665,0,0,0,.53193,11.65522Z"></path>
      <path class="cls-2" d="M1.08271,3.54584a.37643.37643,0,1,0-.39453.3565A.37749.37749,0,0,0,1.08271,3.54584Z"></path>
      <path class="cls-2" d="M15.64328,8.3017a.37546.37546,0,1,0-.3945.35645A.3763.3763,0,0,0,15.64328,8.3017Z"></path>
      <path class="cls-2" d="M14.89128,10.7392a.37544.37544,0,1,0-.3945.35743A.37531.37531,0,0,0,14.89128,10.7392Z"></path>
      <path class="cls-2" d="M14.89128,13.96479a.37636.37636,0,1,0-.3945.3584A.377.377,0,0,0,14.89128,13.96479Z"></path>
      <path class="cls-2" d="M13.53978,12.78413a.37544.37544,0,1,0-.3946.35742A.375.375,0,0,0,13.53978,12.78413Z"></path>
      <path class="cls-2" d="M2.46943,13.16108a.37546.37546,0,1,0-.39453.35645A.37436.37436,0,0,0,2.46943,13.16108Z"></path>
      <path class="cls-2" d="M3.50654,14.8769a.37544.37544,0,1,0-.39453.35742A.37436.37436,0,0,0,3.50654,14.8769Z"></path>
      <path class="cls-2" d="M13.53978,4.87a.37542.37542,0,1,0-.75-.0351.37083.37083,0,0,0,.3554.3906A.37459.37459,0,0,0,13.53978,4.87Z"></path>
      <path class="cls-2" d="M14.51628,3.63864a.37636.37636,0,1,0-.7519-.0352.37637.37637,0,0,0,.7519.0352Z"></path>
      <path class="cls-2" d="M12.27018,2.79394a.37542.37542,0,1,0-.75-.0352.37542.37542,0,0,0,.75.0352Z"></path>
      <path class="cls-2" d="M10.278,1.59074a.37642.37642,0,1,0-.3945.3555A.37651.37651,0,0,0,10.278,1.59074Z"></path>
      <path class="cls-2" d="M14.89128,1.81734a.37636.37636,0,1,0-.3945.3594A.37671.37671,0,0,0,14.89128,1.81734Z"></path>
      <path class="cls-2" d="M.22,8.3017a.3763.3763,0,0,0-.3574-.3955A.37443.37443,0,0,0-.53,8.2646a.3729.3729,0,0,0,.3555.39355A.37663.37663,0,0,0,.22,8.3017Z"></path>
      <path class="cls-2" d="M11.09048-.16945a.37369.37369,0,0,0-.3554-.39453.37507.37507,0,0,0-.3946.3584A.37541.37541,0,0,0,10.696.188.3773.3773,0,0,0,11.09048-.16945Z"></path>
      <path class="cls-2" d="M13.33078-.17043a.37382.37382,0,0,0-.3555-.39452.375.375,0,0,0-.3945.35839.37541.37541,0,0,0,.3555.39355A.37741.37741,0,0,0,13.33078-.17043Z"></path>
    </pattern>
  </defs>
  <title>Framework_Preview_Card</title>
  <rect class="cls-3" y="-0.0006" width="1122.90002" height="841.90002"></rect>
  <line class="cls-4" x1="0.00011" y1="429.15241" x2="1122.8998" y2="429.15241"></line>
  <line class="cls-5" x1="0.00011" y1="466.67497" x2="1122.8998" y2="466.67497"></line>
  <line class="cls-6" x1="0.00011" y1="504.19754" x2="1122.8998" y2="504.19754"></line>
  <line class="cls-7" x1="0.00011" y1="541.7201" x2="1122.8998" y2="541.7201"></line>
  <line class="cls-8" x1="0.00011" y1="579.24267" x2="1122.8998" y2="579.24267"></line>
  <line class="cls-9" x1="0.00011" y1="616.76523" x2="1122.8998" y2="616.76523"></line>
  <line class="cls-10" x1="0.00011" y1="654.2878" x2="1122.8998" y2="654.2878"></line>
  <line class="cls-11" x1="0.00011" y1="691.81036" x2="1122.8998" y2="691.81036"></line>
  <line class="cls-12" x1="0.00011" y1="729.33292" x2="1122.8998" y2="729.33292"></line>
  <line class="cls-13" x1="0.00011" y1="766.85549" x2="1122.8998" y2="766.85549"></line>
  <line class="cls-14" x1="0.00011" y1="804.37805" x2="1122.8998" y2="804.37805"></line>
  <line class="cls-15" x1="0.00011" y1="841.90062" x2="1122.8998" y2="841.90062"></line>
  <line class="cls-4" x1="1122.8998" y1="429.15241" x2="0.00011" y2="429.15241"></line>
  <line class="cls-5" x1="1122.8998" y1="391.62984" x2="0.00011" y2="391.62984"></line>
  <line class="cls-6" x1="1122.8998" y1="354.10728" x2="0.00011" y2="354.10728"></line>
  <line class="cls-7" x1="1122.8998" y1="316.58471" x2="0.00011" y2="316.58471"></line>
  <line class="cls-8" x1="1122.8998" y1="279.06215" x2="0.00011" y2="279.06215"></line>
  <line class="cls-9" x1="1122.8998" y1="241.53958" x2="0.00011" y2="241.53958"></line>
  <line class="cls-10" x1="1122.8998" y1="204.01702" x2="0.00011" y2="204.01702"></line>
  <line class="cls-11" x1="1122.8998" y1="166.49445" x2="0.00011" y2="166.49445"></line>
  <line class="cls-12" x1="1122.8998" y1="128.97189" x2="0.00011" y2="128.97189"></line>
  <line class="cls-13" x1="1122.8998" y1="91.44932" x2="0.00011" y2="91.44932"></line>
  <line class="cls-14" x1="1122.8998" y1="53.92676" x2="0.00011" y2="53.92676"></line>
  <line class="cls-15" x1="1122.8998" y1="16.40419" x2="0.00011" y2="16.40419"></line>
  <rect class="cls-16" x="276.91439" y="342.84452" width="581.52231" height="98.87169"></rect>
  <rect class="cls-17" x="276.91439" y="466.71725" width="581.52231" height="98.87169"></rect>
  <rect class="cls-18" x="276.91439" y="590.58996" width="581.52231" height="98.87169"></rect>
  <line class="cls-19" x1="264.29676" y1="701.96212" x2="871.05432" y2="701.96212"></line>
  <line class="cls-19" x1="264.29676" y1="578.08939" x2="871.05432" y2="578.08939"></line>
  <line class="cls-19" x1="264.29676" y1="454.21667" x2="871.05432" y2="454.21667"></line>
  <line class="cls-19" x1="264.29676" y1="330.34394" x2="871.05432" y2="330.34394"></line>
  <line class="cls-19" x1="270.62512" y1="708.21243" x2="864.72597" y2="708.21243"></line>
  <line class="cls-19" x1="270.62512" y1="584.33971" x2="864.72597" y2="584.33971"></line>
  <line class="cls-19" x1="270.62512" y1="460.46698" x2="864.72597" y2="460.46698"></line>
  <line class="cls-19" x1="270.62512" y1="336.59426" x2="864.72597" y2="336.59426"></line>
  <line class="cls-19" x1="270.62512" y1="695.71193" x2="864.72597" y2="695.71193"></line>
  <line class="cls-19" x1="270.62512" y1="571.8392" x2="864.72597" y2="571.8392"></line>
  <line class="cls-19" x1="270.62512" y1="447.96648" x2="864.72597" y2="447.96648"></line>
  <line class="cls-19" x1="270.62512" y1="324.09375" x2="864.72597" y2="324.09375"></line>
  <line class="cls-20" x1="258.16366" y1="293.20957" x2="258.16366" y2="747.64167"></line>
  <line class="cls-20" x1="270.66417" y1="708.21243" x2="270.66417" y2="747.64167"></line>
  <line class="cls-20" x1="270.66417" y1="584.33971" x2="270.66417" y2="695.71193"></line>
  <line class="cls-20" x1="270.66417" y1="460.46698" x2="270.66417" y2="571.83921"></line>
  <line class="cls-20" x1="270.66417" y1="336.59426" x2="270.66417" y2="447.96647"></line>
  <line class="cls-20" x1="270.66417" y1="293.20957" x2="270.66417" y2="324.09375"></line>
  <line class="cls-20" x1="864.68692" y1="293.20957" x2="864.68692" y2="324.09375"></line>
  <line class="cls-20" x1="264.33581" y1="747.64167" x2="264.33581" y2="293.20957"></line>
  <line class="cls-20" x1="877.18742" y1="293.20957" x2="877.18742" y2="747.64167"></line>
  <line class="cls-20" x1="864.68692" y1="708.21243" x2="864.68692" y2="747.64167"></line>
  <line class="cls-20" x1="864.68692" y1="584.33971" x2="864.68692" y2="695.71193"></line>
  <line class="cls-20" x1="864.68692" y1="460.46698" x2="864.68692" y2="571.83921"></line>
  <line class="cls-20" x1="864.68692" y1="336.59426" x2="864.68692" y2="447.96647"></line>
  <line class="cls-20" x1="871.01527" y1="747.64167" x2="871.01527" y2="293.20957"></line>
  <g class="cls-21">
    <rect class="cls-22" x="-88.74037" y="495.89567" width="1278.79676" height="288.26065"></rect>
  </g>
  <g class="cls-23">
    <rect class="cls-24" x="-24.14666" y="386.58316" width="1149.60935" height="259.13987"></rect>
  </g>
  <g class="cls-25">
    <polygon class="cls-26" points="1318.315 565.322 -216.999 565.322 -308.012 219.239 1227.302 219.239 1318.315 565.322"></polygon>
  </g>
  <path class="cls-27" d="M903.65075,518.15289h7.23877a62.93631,62.93631,0,0,0,62.936-62.93622v-.00012a62.93631,62.93631,0,0,0-62.936-62.93619h-2.39014"></path>
  <polygon class="cls-28" points="905.756 525.347 893.299 518.154 905.756 510.96 905.756 525.347"></polygon>
  <path class="cls-27" d="M973.82555,455.21655V581.08914a62.93631,62.93631,0,0,1-62.936,62.9362h-7.23877"></path>
  <polygon class="cls-28" points="905.756 636.832 893.299 644.025 905.756 651.218 905.756 636.832"></polygon>
  <circle class="cls-3" cx="908.49946" cy="392.28036" r="15.98497"></circle>
  <path class="cls-2" d="M908.36149,410.40758a18.12741,18.12741,0,1,1,18.1274-18.12741A18.148,18.148,0,0,1,908.36149,410.40758Zm0-34.34666a16.21926,16.21926,0,1,0,16.21925,16.21925A16.238,16.238,0,0,0,908.36149,376.06092Z"></path>
  <circle class="cls-28" cx="908.36149" cy="392.28017" r="8.58666"></circle>
</svg>
