<?xml version="1.0" encoding="UTF-8"?>
<!-- Generator: Adobe Illustrator 24.0.0, SVG Export Plug-In . SVG Version: 6.00 Build 0)  -->
<svg xmlns="http://www.w3.org/2000/svg" xmlns:xlink="http://www.w3.org/1999/xlink" version="1.1" id="Layer_1" x="0px" y="0px" viewBox="0 0 1122.9 841.9" style="enable-background:new 0 0 1122.9 841.9;" xml:space="preserve">
<style type="text/css">
	.st0{fill:#F6F4EE;}
	.st1{clip-path:url(#SVGID_2_);}
	.st2{fill:none;stroke:#FCFBF9;stroke-width:17;}
	.st3{opacity:0.9464;fill:none;stroke:#FCFBF9;stroke-width:16.3571;}
	.st4{opacity:0.8929;fill:none;stroke:#FCFBF9;stroke-width:15.7143;}
	.st5{opacity:0.8393;fill:none;stroke:#FCFBF9;stroke-width:15.0714;}
	.st6{opacity:0.7857;fill:none;stroke:#FCFBF9;stroke-width:14.4286;}
	.st7{opacity:0.7321;fill:none;stroke:#FCFBF9;stroke-width:13.7857;}
	.st8{opacity:0.6786;fill:none;stroke:#FCFBF9;stroke-width:13.1429;}
	.st9{opacity:0.625;fill:none;stroke:#FCFBF9;stroke-width:12.5;}
	.st10{opacity:0.5714;fill:none;stroke:#FCFBF9;stroke-width:11.8571;}
	.st11{opacity:0.5179;fill:none;stroke:#FCFBF9;stroke-width:11.2143;}
	.st12{opacity:0.4643;fill:none;stroke:#FCFBF9;stroke-width:10.5714;}
	.st13{opacity:0.4107;fill:none;stroke:#FCFBF9;stroke-width:9.9286;}
	.st14{opacity:0.3571;fill:none;stroke:#FCFBF9;stroke-width:9.2857;}
	.st15{opacity:0.3036;fill:none;stroke:#FCFBF9;stroke-width:8.6429;}
	.st16{opacity:0.1;fill:none;stroke:#FCFBF9;stroke-width:8;}
	.st17{fill:none;}
	.st18{clip-path:url(#SVGID_4_);}
	.st19{fill:#4663AC;}
	.st20{fill:none;stroke:#A2B1D7;stroke-width:0.7112;stroke-miterlimit:10;}
	.st21{fill:#2C2439;}
	.st22{fill:#A2B1D7;}
	.st23{fill:none;stroke:#4663AC;stroke-width:2.8547;stroke-linecap:round;stroke-miterlimit:10;}
	.st24{opacity:0.5;fill:none;stroke:#FCFBF8;stroke-width:9.9872;stroke-miterlimit:10;}
	.st25{opacity:0.5;fill:none;stroke:#FCFBF8;stroke-width:21.2003;stroke-miterlimit:10;}
	.st26{opacity:0.5;fill:none;stroke:#FCFBF8;stroke-width:29.4871;stroke-miterlimit:10;}
	.st27{opacity:0.5;fill:none;stroke:#FCFBF8;stroke-width:31.1;stroke-miterlimit:10;}
	.st28{opacity:0.5;fill:none;stroke:#FCFBF8;stroke-width:2;stroke-miterlimit:10;}
	.st29{opacity:0.5;fill:none;stroke:#FCFBF8;stroke-width:5.0035;stroke-miterlimit:10;}
	.st30{fill:none;stroke:#FCFBF9;stroke-width:20.4601;}
	.st31{fill:none;stroke:#4663AC;stroke-width:1.9688;stroke-miterlimit:10;}
	.st32{fill:none;stroke:#4663AC;stroke-width:3.9376;stroke-linecap:round;stroke-miterlimit:10;}
	.st33{fill:none;stroke:#4663AC;stroke-width:3.9376;stroke-linecap:round;stroke-miterlimit:10;stroke-dasharray:0,13.2959;}
	.st34{fill:none;stroke:#4663AC;stroke-width:3.9376;stroke-linecap:round;stroke-miterlimit:10;stroke-dasharray:0,14.8804;}
	.st35{fill:none;stroke:#4663AC;stroke-width:3.9376;stroke-linecap:round;stroke-miterlimit:10;stroke-dasharray:0,12.4285;}
	.st36{fill:none;stroke:#4663AC;stroke-width:3.9376;stroke-linecap:round;stroke-miterlimit:10;stroke-dasharray:0,13.6822;}
	.st37{fill:none;stroke:#4663AC;stroke-width:3.9376;stroke-linecap:round;stroke-miterlimit:10;stroke-dasharray:0,12.919;}
	.st38{fill:none;stroke:#4663AC;stroke-width:3.9376;stroke-linecap:round;stroke-miterlimit:10;stroke-dasharray:0,13.2144;}
	.st39{fill:none;stroke:#4663AC;stroke-width:3.9376;stroke-linecap:round;stroke-miterlimit:10;stroke-dasharray:0,12.7173;}
	.st40{fill:none;stroke:#4663AC;stroke-width:3.9376;stroke-linecap:round;stroke-miterlimit:10;stroke-dasharray:0,13.1865;}
	.st41{fill:none;stroke:#4663AC;stroke-width:3.9376;stroke-linecap:round;stroke-miterlimit:10;stroke-dasharray:0,12.1247;}
	.st42{fill:none;stroke:#4663AC;stroke-width:3.9376;stroke-linecap:round;stroke-miterlimit:10;stroke-dasharray:0,12.0649;}
	.st43{fill:none;stroke:#4663AC;stroke-width:3.9376;stroke-linecap:round;stroke-miterlimit:10;stroke-dasharray:0,12.3443;}
	.st44{fill:none;stroke:#4663AC;stroke-width:3.9376;stroke-linecap:round;stroke-miterlimit:10;stroke-dasharray:0,8.0148;}
	.st45{fill:none;stroke:#4663AC;stroke-width:3.9376;stroke-linecap:round;stroke-miterlimit:10;stroke-dasharray:0,13.9409;}
	.st46{fill:none;stroke:#4663AC;stroke-width:3.9376;stroke-linecap:round;stroke-miterlimit:10;stroke-dasharray:0,15.7645;}
	.st47{fill:none;stroke:#4663AC;stroke-width:3.9376;stroke-linecap:round;stroke-miterlimit:10;stroke-dasharray:0,15.4102;}
	.st48{fill:none;stroke:#4663AC;stroke-width:3.9376;stroke-linecap:round;stroke-miterlimit:10;stroke-dasharray:0,11.6615;}
	.st49{fill:none;stroke:#4663AC;stroke-width:3.9376;stroke-linecap:round;stroke-miterlimit:10;stroke-dasharray:0,12.064;}
	.st50{fill:none;stroke:#4663AC;stroke-width:3.9376;stroke-linecap:round;stroke-miterlimit:10;stroke-dasharray:0,14.1158;}
	.st51{fill:none;stroke:#4663AC;stroke-width:3.9376;stroke-linecap:round;stroke-miterlimit:10;stroke-dasharray:0,13.5543;}
	.st52{fill:none;stroke:#4663AC;stroke-width:3.9376;stroke-linecap:round;stroke-miterlimit:10;stroke-dasharray:0,8.3643;}
	.st53{fill:none;stroke:#4663AC;stroke-width:3.9376;stroke-linecap:round;stroke-miterlimit:10;stroke-dasharray:0,7.0483;}
	.st54{fill:none;stroke:#4663AC;stroke-width:3.9376;stroke-linecap:round;stroke-miterlimit:10;stroke-dasharray:0,8.2948;}
	.st55{fill:none;stroke:#4663AC;stroke-width:3.9376;stroke-linecap:round;stroke-miterlimit:10;stroke-dasharray:0,12.7372;}
	.st56{fill:none;stroke:#4663AC;stroke-width:3.9376;stroke-linecap:round;stroke-miterlimit:10;stroke-dasharray:0,13.362;}
	.st57{fill:none;stroke:#4663AC;stroke-width:3.9376;stroke-linecap:round;stroke-miterlimit:10;stroke-dasharray:0,13.3807;}
	.st58{fill:none;stroke:#4663AC;stroke-width:3.9376;stroke-linecap:round;stroke-miterlimit:10;stroke-dasharray:0,14.7494;}
	.st59{fill:none;stroke:#4663AC;stroke-width:3.9376;stroke-linecap:round;stroke-miterlimit:10;stroke-dasharray:0,16.0797;}
	.st60{fill:none;stroke:#4663AC;stroke-width:3.9376;stroke-linecap:round;stroke-miterlimit:10;stroke-dasharray:0,11.4541;}
	.st61{fill:none;stroke:#4663AC;stroke-width:3.9376;stroke-linecap:round;stroke-miterlimit:10;stroke-dasharray:0,11.7422;}
	.st62{fill:none;stroke:#4663AC;stroke-width:3.9376;stroke-linecap:round;stroke-miterlimit:10;stroke-dasharray:0,7.2103;}
	.st63{fill:none;stroke:#4663AC;stroke-width:3.9376;stroke-linecap:round;stroke-miterlimit:10;stroke-dasharray:0,7.1503;}
	.st64{fill:none;stroke:#4663AC;stroke-width:3.9376;stroke-linecap:round;stroke-miterlimit:10;stroke-dasharray:0,14.7759;}
	.st65{fill:none;stroke:#4663AC;stroke-width:3.9376;stroke-linecap:round;stroke-miterlimit:10;stroke-dasharray:0,15.8931;}
	.st66{fill:none;stroke:#4663AC;stroke-width:3.9376;stroke-linecap:round;stroke-miterlimit:10;stroke-dasharray:0,15.534;}
	.st67{fill:none;stroke:#4663AC;stroke-width:3.9376;stroke-linecap:round;stroke-miterlimit:10;stroke-dasharray:0,11.4227;}
	.st68{fill:none;stroke:#4663AC;stroke-width:3.9376;stroke-linecap:round;stroke-miterlimit:10;stroke-dasharray:0,12.4197;}
	.st69{fill:none;stroke:#4663AC;stroke-width:3.9376;stroke-linecap:round;stroke-miterlimit:10;stroke-dasharray:0,13.2875;}
	.st70{fill:none;stroke:#4663AC;stroke-width:3.9376;stroke-linecap:round;stroke-miterlimit:10;stroke-dasharray:0,13.6216;}
	.st71{fill:none;stroke:#4663AC;stroke-width:3.9376;stroke-linecap:round;stroke-miterlimit:10;stroke-dasharray:0,8.3644;}
	.st72{fill:none;stroke:#4663AC;stroke-width:3.9376;stroke-linecap:round;stroke-miterlimit:10;stroke-dasharray:0,7.8489;}
	.st73{fill:none;stroke:#4663AC;stroke-width:3.9376;stroke-linecap:round;stroke-miterlimit:10;stroke-dasharray:0,8.4234;}
	.st74{fill:none;stroke:#4663AC;stroke-width:3.9376;stroke-linecap:round;stroke-miterlimit:10;stroke-dasharray:0,14.6081;}
	.st75{fill:none;stroke:#4663AC;stroke-width:3.9376;stroke-linecap:round;stroke-miterlimit:10;stroke-dasharray:0,13.8168;}
	.st76{fill:none;stroke:#4663AC;stroke-width:3.9376;stroke-linecap:round;stroke-miterlimit:10;stroke-dasharray:0,12.9706;}
	.st77{fill:none;stroke:#4663AC;stroke-width:3.9376;stroke-linecap:round;stroke-miterlimit:10;stroke-dasharray:0,13.1493;}
	.st78{fill:none;stroke:#4663AC;stroke-width:3.9376;stroke-linecap:round;stroke-miterlimit:10;stroke-dasharray:0,12.7776;}
	.st79{fill:none;stroke:#4663AC;stroke-width:3.9376;stroke-linecap:round;stroke-miterlimit:10;stroke-dasharray:0,13.2718;}
	.st80{fill:none;stroke:#4663AC;stroke-width:3.9376;stroke-linecap:round;stroke-miterlimit:10;stroke-dasharray:0,12.1458;}
	.st81{fill:none;stroke:#4663AC;stroke-width:3.9376;stroke-linecap:round;stroke-miterlimit:10;stroke-dasharray:0,11.8603;}
	.st82{fill:none;stroke:#4663AC;stroke-width:3.9376;stroke-linecap:round;stroke-miterlimit:10;stroke-dasharray:0,12.0447;}
	.st83{fill:none;stroke:#4663AC;stroke-width:3.9376;stroke-linecap:round;stroke-miterlimit:10;stroke-dasharray:0,14.0626;}
	.st84{fill:none;stroke:#4663AC;stroke-width:3.9376;stroke-linecap:round;stroke-miterlimit:10;stroke-dasharray:0,14.3462;}
	.st85{fill:none;stroke:#4663AC;stroke-width:3.9376;stroke-linecap:round;stroke-miterlimit:10;stroke-dasharray:0,14.7058;}
	.st86{fill:none;stroke:#4663AC;stroke-width:3.9376;stroke-linecap:round;stroke-miterlimit:10;stroke-dasharray:0,13.8078;}
	.st87{fill:none;stroke:#4663AC;stroke-width:3.9376;stroke-linecap:round;stroke-miterlimit:10;stroke-dasharray:0,13.2053;}
	.st88{fill:none;stroke:#4663AC;stroke-width:3.9376;stroke-linecap:round;stroke-miterlimit:10;stroke-dasharray:0,13.4324;}
	.st89{fill:none;stroke:#4663AC;stroke-width:3.9376;stroke-linecap:round;stroke-miterlimit:10;stroke-dasharray:0,14.5496;}
	.st90{fill:none;stroke:#4663AC;stroke-width:3.9376;stroke-linecap:round;stroke-miterlimit:10;stroke-dasharray:0,13.8858;}
	.st91{fill:none;stroke:#4663AC;stroke-width:3.9376;stroke-linecap:round;stroke-miterlimit:10;stroke-dasharray:0,13.7972;}
	.st92{fill:none;stroke:#4663AC;stroke-width:3.9376;stroke-linecap:round;stroke-miterlimit:10;stroke-dasharray:0,14.8041;}
	.st93{fill:none;stroke:#4663AC;stroke-width:3.9376;stroke-linecap:round;stroke-miterlimit:10;stroke-dasharray:0,14.0119;}
	.st94{fill:none;stroke:#4663AC;stroke-width:3.9376;stroke-linecap:round;stroke-miterlimit:10;stroke-dasharray:0,13.3384;}
	.st95{fill:none;stroke:#4663AC;stroke-width:3.9376;stroke-linecap:round;stroke-miterlimit:10;stroke-dasharray:0,12.634;}
	.st96{fill:none;stroke:#4663AC;stroke-width:3.9376;stroke-linecap:round;stroke-miterlimit:10;stroke-dasharray:0,13.3441;}
	.st97{fill:none;stroke:#4663AC;stroke-width:3.9376;stroke-linecap:round;stroke-miterlimit:10;stroke-dasharray:0,13.4496;}
	.st98{fill:none;stroke:#4663AC;stroke-width:3.9376;stroke-linecap:round;stroke-miterlimit:10;stroke-dasharray:0,13.9103;}
	.st99{fill:none;stroke:#4663AC;stroke-width:3.9376;stroke-linecap:round;stroke-miterlimit:10;stroke-dasharray:0,15.3192;}
	.st100{fill:none;stroke:#4663AC;stroke-width:3.9376;stroke-linecap:round;stroke-miterlimit:10;stroke-dasharray:0,15.2213;}
	.st101{fill:none;stroke:#4663AC;stroke-width:3.9376;stroke-linecap:round;stroke-miterlimit:10;stroke-dasharray:0,14.9297;}
	.st102{fill:none;stroke:#4663AC;stroke-width:3.9376;stroke-linecap:round;stroke-miterlimit:10;stroke-dasharray:0,15.7033;}
	.st103{fill:none;stroke:#4663AC;stroke-width:3.9376;stroke-linecap:round;stroke-miterlimit:10;stroke-dasharray:0,14.0059;}
	.st104{fill:none;stroke:#4663AC;stroke-width:3.9376;stroke-linecap:round;stroke-miterlimit:10;stroke-dasharray:0,13.7115;}
	.st105{fill:none;stroke:#4663AC;stroke-width:3.9376;stroke-linecap:round;stroke-miterlimit:10;stroke-dasharray:0,13.7599;}
	.st106{fill:none;stroke:#4663AC;stroke-width:3.9376;stroke-linecap:round;stroke-miterlimit:10;stroke-dasharray:0,15.3228;}
	.st107{fill:none;stroke:#4663AC;stroke-width:3.9376;stroke-linecap:round;stroke-miterlimit:10;stroke-dasharray:0,13.5934;}
	.st108{fill:none;stroke:#4663AC;stroke-width:3.9376;stroke-linecap:round;stroke-miterlimit:10;stroke-dasharray:0,14.6696;}
	.st109{fill:none;stroke:#4663AC;stroke-width:3.9376;stroke-linecap:round;stroke-miterlimit:10;stroke-dasharray:0,13.189;}
	.st110{fill:none;stroke:#4663AC;stroke-width:3.9376;stroke-linecap:round;stroke-miterlimit:10;stroke-dasharray:0,16.3956;}
	.st111{fill:none;stroke:#4663AC;stroke-width:3.9376;stroke-linecap:round;stroke-miterlimit:10;stroke-dasharray:0,13.5688;}
	.st112{fill:none;stroke:#4663AC;stroke-width:3.9376;stroke-linecap:round;stroke-miterlimit:10;stroke-dasharray:0,13.4845;}
	.st113{fill:none;stroke:#4663AC;stroke-width:3.9376;stroke-linecap:round;stroke-miterlimit:10;stroke-dasharray:0,13.6908;}
	.st114{fill:none;stroke:#4663AC;stroke-width:3.9376;stroke-linecap:round;stroke-miterlimit:10;stroke-dasharray:0,15.3041;}
	.st115{fill:none;stroke:#4663AC;stroke-width:3.9376;stroke-linecap:round;stroke-miterlimit:10;stroke-dasharray:0,11.3844;}
	.st116{fill:none;stroke:#4663AC;stroke-width:3.9376;stroke-linecap:round;stroke-miterlimit:10;stroke-dasharray:0,14.1829;}
	.st117{fill:none;stroke:#4663AC;stroke-width:3.9376;stroke-linecap:round;stroke-miterlimit:10;stroke-dasharray:0,13.6423;}
	.st118{fill:none;stroke:#4663AC;stroke-width:3.9376;stroke-linecap:round;stroke-miterlimit:10;stroke-dasharray:0,13.9126;}
	.st119{fill:none;stroke:#4663AC;stroke-width:3.9376;stroke-linecap:round;stroke-miterlimit:10;stroke-dasharray:0,12.7554;}
	.st120{fill:#4663AC;stroke:#4663AC;stroke-width:1.0724;stroke-miterlimit:10;}
	.st121{fill:none;stroke:#FCFBF9;stroke-width:30.1765;}
	.st122{fill:none;stroke:#FCFBF9;stroke-width:12.0701;}
	.st123{fill:none;stroke:#4663B3;stroke-width:0.3397;}
	.st124{fill:none;stroke:#A2B1D7;stroke-width:2.5637;stroke-linecap:round;stroke-miterlimit:10;stroke-dasharray:0,10.255;}
	.st125{opacity:0.25;fill:none;stroke:#FCFBF9;stroke-width:22.6279;enable-background:new    ;}
	.st126{opacity:0.5;fill:none;stroke:#FCFBF9;stroke-width:22.6279;enable-background:new    ;}
	.st127{opacity:0.75;fill:none;stroke:#FCFBF9;stroke-width:22.6279;enable-background:new    ;}
	
		.st128{opacity:0.5;fill:none;stroke:#A2B1D7;stroke-width:2.5637;stroke-linecap:round;stroke-miterlimit:10;stroke-dasharray:0,10.255;}
	.st129{fill:none;stroke:#FCFBF9;stroke-width:22.6279;}
	.st130{fill:none;stroke:#FCFBF9;stroke-width:26.5217;}
	.st131{fill:none;stroke:#FCFBF9;stroke-width:10.6082;}
	.st132{fill:none;stroke:#4663B3;stroke-width:0.2985;}
	.st133{fill:none;stroke:#A2B1D7;stroke-width:2.2532;stroke-linecap:round;stroke-miterlimit:10;stroke-dasharray:0,9.013;}
	.st134{opacity:0.25;fill:none;stroke:#FCFBF9;stroke-width:23.0508;enable-background:new    ;}
	.st135{opacity:0.375;fill:none;stroke:#FCFBF9;stroke-width:22.2599;enable-background:new    ;}
	.st136{opacity:0.5;fill:none;stroke:#FCFBF9;stroke-width:21.4691;enable-background:new    ;}
	.st137{opacity:0.625;fill:none;stroke:#FCFBF9;stroke-width:20.6782;enable-background:new    ;}
	.st138{opacity:0.75;fill:none;stroke:#FCFBF9;stroke-width:19.8874;enable-background:new    ;}
	.st139{fill:none;stroke:#FCFBF9;stroke-width:21.5396;}
	.st140{fill:none;stroke:#A2B1D7;stroke-width:2.4404;stroke-linecap:round;stroke-miterlimit:10;stroke-dasharray:0,9.7618;}
	.st141{fill:none;stroke:#FCFBF9;stroke-width:30.8216;}
	.st142{fill:none;stroke:#A2B1D7;stroke-width:2.0794;stroke-linecap:round;stroke-miterlimit:10;stroke-dasharray:0,8.3178;}
	.st143{fill:#FFFFFF;}
	.st144{fill:none;stroke:#4663B3;stroke-width:1.384;stroke-miterlimit:4;}
	.st145{fill:#4663B3;}
	.st146{opacity:0.25;fill:none;stroke:#FCFBF9;stroke-width:21.8863;enable-background:new    ;}
	.st147{opacity:0.5;fill:none;stroke:#FCFBF9;stroke-width:21.8863;enable-background:new    ;}
	.st148{opacity:0.75;fill:none;stroke:#FCFBF9;stroke-width:21.8863;enable-background:new    ;}
	.st149{fill:none;stroke:#4663B3;stroke-width:1.1248;stroke-miterlimit:4;}
</style>
<g>
	<defs>
		<rect id="SVGID_1_" x="-1504.4" width="1122.9" height="841.9"></rect>
	</defs>
	<clipPath id="SVGID_2_">
		<use xlink:href="#SVGID_1_" style="overflow:visible;"></use>
	</clipPath>
	<g class="st1">
		<g>
			<line class="st2" x1="82.7" y1="574.2" x2="-952" y2="338.9"></line>
			<line class="st3" x1="9.5" y1="474.8" x2="-951.8" y2="336.5"></line>
		</g>
	</g>
</g>
<rect x="0" class="st0" width="1122.9" height="841.9"></rect>
<polyline class="st141" points="458.5,611.1 307.4,611.1 307.4,461.4 "></polyline>
<polyline class="st141" points="443.1,611.8 443.1,460.7 592.8,460.7 "></polyline>
<polyline class="st141" points="729.4,611.1 578.4,611.1 578.4,461.4 "></polyline>
<polyline class="st141" points="714,611.8 714,460.7 863.7,460.7 "></polyline>
<polyline class="st142" points="458.5,611.1 307.4,611.1 307.4,461.4 "></polyline>
<polyline class="st142" points="443.1,611.8 443.1,460.7 592.8,460.7 "></polyline>
<polyline class="st142" points="729.4,611.1 578.4,611.1 578.4,461.4 "></polyline>
<polyline class="st142" points="714,611.8 714,460.7 863.7,460.7 "></polyline>
<g>
	
		<rect x="398.9" y="551.1" transform="matrix(1 -1.799059e-03 1.799059e-03 1 -1.0902 0.7932)" class="st143" width="82.8" height="110.7"></rect>
	
		<rect x="398.9" y="551.1" transform="matrix(1 -1.799059e-03 1.799059e-03 1 -1.0902 0.7932)" class="st144" width="82.8" height="110.7"></rect>
	
		<rect x="398.2" y="580.8" transform="matrix(1 -1.799059e-03 1.799059e-03 1 -1.1177 0.7932)" class="st145" width="84.2" height="81.6"></rect>
	<g>
		<path class="st143" d="M438.2,632.2h19.3V643H423v-3.2c0-17.3,21.3-20.2,21.3-29.5c0-2.5-1.4-4.2-4-4.2c-2.5,0-4.2,2.1-4.7,5.7    l-11.9-3.2c1.2-7.8,7.1-13.4,17-13.4c10.5,0,16.9,5.4,16.9,13.9C457.5,621.4,443.8,625.2,438.2,632.2z"></path>
	</g>
	<g>
		<path class="st145" d="M419,568.2l1.7-0.4c0.3,1,0.8,1.5,1.9,1.5c1,0,1.7-0.4,1.7-1.2c0-0.8-0.6-1-1.9-1.4c-1.7-0.4-3-1-3-2.6    c0-1.5,1.2-2.6,3.2-2.6c1.9,0,3,0.8,3.3,2.2l-1.7,0.4c-0.3-1-0.8-1.4-1.8-1.4c-0.8,0-1.5,0.4-1.5,1.1c0,0.8,0.7,1.1,1.9,1.4    c2.1,0.6,3.2,1,3.2,2.6c0,1.8-1.2,2.8-3.3,2.8C420.4,570.7,419.1,569.9,419,568.2z"></path>
		<path class="st145" d="M437.4,563.1h-2.6v7.3h-1.7v-7.3h-2.6v-1.4h6.9L437.4,563.1z"></path>
		<path class="st145" d="M448.8,569.1v1.4h-6v-8.7h6v1.4h-4.2v2.2h4v1.4h-4v2.4L448.8,569.1z"></path>
		<path class="st145" d="M461,564.6c0,2.1-1.4,2.9-3.9,2.9H456v2.9h-1.7v-8.7h2.8C459.6,561.7,461,562.6,461,564.6z M459.2,564.6    c0-1.2-0.8-1.5-2.2-1.5h-1v3.2h1C458.5,566.2,459.2,565.7,459.2,564.6z"></path>
	</g>
</g>
<g>
	
		<rect x="263.2" y="389.1" transform="matrix(1 -1.799059e-03 1.799059e-03 1 -0.7991 0.5488)" class="st143" width="82.8" height="110.7"></rect>
	
		<rect x="263.2" y="389.1" transform="matrix(1 -1.799059e-03 1.799059e-03 1 -0.7991 0.5488)" class="st144" width="82.8" height="110.7"></rect>
	
		<rect x="262.5" y="418.9" transform="matrix(1 -1.799059e-03 1.799059e-03 1 -0.8266 0.5488)" class="st145" width="84.2" height="81.6"></rect>
	<g>
		<path class="st143" d="M314.2,434.4l0.1,46.8h-12.9V449l-10,6.5v-13.2l12.2-7.8L314.2,434.4z"></path>
	</g>
	<g>
		<path class="st145" d="M283.3,406.5l1.7-0.4c0.3,1,0.8,1.5,1.9,1.5c1,0,1.7-0.4,1.7-1.2c0-0.8-0.6-1-1.9-1.4c-1.7-0.4-3-1-3-2.6    c0-1.5,1.2-2.6,3.2-2.6c1.9,0,3,0.8,3.3,2.2l-1.7,0.4c-0.3-1-0.8-1.4-1.8-1.4c-0.8,0-1.5,0.4-1.5,1.1c0,0.8,0.7,1.1,1.9,1.4    c2.1,0.6,3.2,1,3.2,2.6c0,1.8-1.2,2.8-3.3,2.8C284.7,408.8,283.5,408,283.3,406.5z"></path>
		<path class="st145" d="M301.7,401.3h-2.6v7.3h-1.7v-7.3h-2.6v-1.4h6.9L301.7,401.3z"></path>
		<path class="st145" d="M313.1,407.1v1.4h-6v-8.7h6v1.4H309v2.2h4v1.4h-4v2.4L313.1,407.1z"></path>
		<path class="st145" d="M325.3,402.7c0,2.1-1.4,2.9-3.9,2.9h-1.1v2.9h-1.7v-8.7h2.8C323.9,399.8,325.3,400.8,325.3,402.7z     M323.5,402.7c0-1.2-0.8-1.5-2.2-1.5h-1v3.2h1C322.8,404.4,323.5,404,323.5,402.7z"></path>
	</g>
</g>
<g>
	
		<rect x="534.6" y="389.1" transform="matrix(1 -1.799059e-03 1.799059e-03 1 -0.7987 1.037)" class="st143" width="82.8" height="110.7"></rect>
	
		<rect x="534.6" y="389.1" transform="matrix(1 -1.799059e-03 1.799059e-03 1 -0.7987 1.037)" class="st144" width="82.8" height="110.7"></rect>
	
		<rect x="533.9" y="418.8" transform="matrix(1 -1.799059e-03 1.799059e-03 1 -0.8259 1.037)" class="st145" width="84.2" height="81.6"></rect>
	<g>
		<path class="st143" d="M558,469.1l12.1-3.2c0.4,3.3,2.4,5.3,5.4,5.1c3,0,5-1.9,5-4.7c0-3.7-2.8-4.4-6-4.4h-2.6v-9.3h2.1    c3.5,0,6.4-1,6.4-4.4c0-2.8-1.8-4.2-4.4-4.2s-4.2,1.7-4.8,4.7l-11.9-3.3c1.1-6.5,6.2-12.3,16.8-12.3c9.8,0,17.3,4.8,17.5,13.4    c0,7.1-4.8,9.4-8.4,10v0.3c3.7,0.4,9.4,3,9.4,10.8c0,9.1-7.6,14.1-18.3,14.1C564.5,482.1,559,476.7,558,469.1z"></path>
	</g>
	<g>
		<path class="st145" d="M554.7,406.3l1.7-0.4c0.3,1,0.8,1.5,1.9,1.5c1,0,1.7-0.4,1.7-1.2c0-0.8-0.6-1-1.9-1.4c-1.7-0.4-3-1-3-2.6    c0-1.5,1.2-2.6,3.2-2.6c1.9,0,3,0.8,3.3,2.2l-1.7,0.4c-0.3-1-0.8-1.4-1.8-1.4c-0.8,0-1.5,0.4-1.5,1.1c0,0.8,0.7,1.1,1.9,1.4    c2.1,0.6,3.2,1,3.2,2.6c0,1.8-1.2,2.8-3.3,2.8C556,408.8,554.8,407.8,554.7,406.3z"></path>
		<path class="st145" d="M573.1,401.2h-2.6v7.3h-1.7v-7.3h-2.6v-1.4h6.9L573.1,401.2z"></path>
		<path class="st145" d="M584.4,407.1v1.4h-6v-8.7h6v1.4h-4.2v2.2h4v1.4h-4v2.4H584.4z"></path>
		<path class="st145" d="M596.6,402.7c0,2.1-1.4,2.9-3.9,2.9h-1.1v2.9H590v-8.7h2.8C595.2,399.8,596.6,400.6,596.6,402.7z     M594.8,402.7c0-1.2-0.8-1.5-2.2-1.5h-1v3.2h1C594.1,404.2,594.8,403.8,594.8,402.7z"></path>
	</g>
</g>
<g>
	
		<rect x="670.2" y="551.1" transform="matrix(1 -1.799059e-03 1.799059e-03 1 -1.0898 1.2813)" class="st143" width="82.8" height="110.7"></rect>
	
		<rect x="670.2" y="551.1" transform="matrix(1 -1.799059e-03 1.799059e-03 1 -1.0898 1.2813)" class="st144" width="82.8" height="110.7"></rect>
	
		<rect x="669.5" y="580.8" transform="matrix(1 -1.799059e-03 1.799059e-03 1 -1.1172 1.2813)" class="st145" width="84.2" height="81.6"></rect>
	<g>
		<path class="st143" d="M731.5,634.2h-5.7v9h-12.2v-9h-21.5v-8.9l19.9-29.1h13.6v28.5h5.7L731.5,634.2z M713.6,624.9v-14.3    l-9.8,14.3H713.6z"></path>
	</g>
	<g>
		<path class="st145" d="M690.3,568.4l1.7-0.4c0.3,1,0.8,1.5,1.9,1.5c1,0,1.7-0.4,1.7-1.2c0-0.8-0.6-1-1.9-1.4c-1.7-0.4-3-1-3-2.6    c0-1.5,1.2-2.6,3.2-2.6s3,0.8,3.3,2.2l-1.7,0.4c-0.3-1-0.8-1.4-1.8-1.4c-0.8,0-1.5,0.4-1.5,1.1c0,0.8,0.7,1.1,1.9,1.4    c2.1,0.6,3.2,1,3.2,2.6c0,1.8-1.2,2.8-3.3,2.8C691.7,570.7,690.5,569.9,690.3,568.4z"></path>
		<path class="st145" d="M708.7,563.3h-2.6v7.3h-1.7v-7.3h-2.6v-1.4h6.9V563.3z"></path>
		<path class="st145" d="M720.1,569.1v1.4h-6v-8.7h6v1.4h-4.2v2.2h4v1.4h-4v2.4H720.1z"></path>
		<path class="st145" d="M732.3,564.6c0,2.1-1.4,2.9-3.9,2.9h-1.1v2.9h-1.7v-8.7h2.8C730.9,561.7,732.3,562.7,732.3,564.6z     M730.5,564.6c0-1.2-0.8-1.5-2.2-1.5h-1v3.2h1C729.8,566.3,730.5,565.9,730.5,564.6z"></path>
	</g>
</g>
<g>
	
		<rect x="805.9" y="389.1" transform="matrix(1 -1.799059e-03 1.799059e-03 1 -0.7983 1.5251)" class="st143" width="82.8" height="110.7"></rect>
	
		<rect x="805.9" y="389.1" transform="matrix(1 -1.799059e-03 1.799059e-03 1 -0.7983 1.5251)" class="st144" width="82.8" height="110.7"></rect>
	
		<rect x="805.2" y="418.8" transform="matrix(1 -1.799059e-03 1.799059e-03 1 -0.8254 1.5251)" class="st145" width="84.2" height="81.6"></rect>
	<g>
		<path class="st143" d="M865.1,465.5c0,11.5-7.6,16.6-18.3,16.6s-16.3-5.3-17.2-12.2l12.1-3.2c0.6,2.9,2.5,4.4,5.1,4.4    c2.6,0,4.8-1.7,4.7-5.5c0-3.7-1.9-5.5-4.6-5.5c-2.2,0-3.7,1.2-4.4,3l-10.9-3.5l1.8-25.3h28.3v10.8h-18.4l-0.7,9.6h0.1    c1.5-2.6,4.6-4.4,8.9-4.4C859.5,450.1,865.1,455.8,865.1,465.5z"></path>
	</g>
	<g>
		<path class="st145" d="M826,406.3l1.7-0.4c0.3,1,0.8,1.5,1.9,1.5c1,0,1.7-0.4,1.7-1.2c0-0.8-0.6-1-1.9-1.4c-1.7-0.4-3-1-3-2.6    c0-1.5,1.2-2.6,3.2-2.6s3,0.8,3.3,2.2l-1.7,0.4c-0.3-1-0.8-1.4-1.8-1.4c-0.8,0-1.5,0.4-1.5,1.1c0,0.8,0.7,1.1,1.9,1.4    c2.1,0.6,3.2,1,3.2,2.6c0,1.8-1.2,2.8-3.3,2.8C827.4,408.8,826.1,407.8,826,406.3z"></path>
		<path class="st145" d="M844.4,401.2h-2.6v7.3h-1.7v-7.3h-2.6v-1.4h6.9V401.2z"></path>
		<path class="st145" d="M855.8,407.1v1.4h-6v-8.7h6v1.4h-4.2v2.2h4v1.4h-4v2.4L855.8,407.1z"></path>
		<path class="st145" d="M868,402.7c0,2.1-1.4,2.9-3.9,2.9H863v2.9h-1.7v-8.7h2.8C866.6,399.8,868,400.6,868,402.7z M866.2,402.7    c0-1.2-0.8-1.5-2.2-1.5h-1v3.2h1C865.5,404.2,866.2,403.8,866.2,402.7z"></path>
	</g>
</g>
<rect x="261.3" y="23.6" transform="matrix(-1.836970e-16 1 -1 -1.836970e-16 1101.5142 -50.4664)" class="st146" width="629.3" height="1003.8"></rect>
<rect x="330.3" y="92.6" transform="matrix(-1.836970e-16 1 -1 -1.836970e-16 1101.5143 -50.4662)" class="st147" width="491.3" height="865.8"></rect>
<rect x="212" y="348.8" class="st148" width="727.9" height="353.4"></rect>
</svg>
