<?xml version="1.0" encoding="UTF-8"?>
<!-- Generator: Adobe Illustrator 24.0.0, SVG Export Plug-In . SVG Version: 6.00 Build 0)  -->
<svg xmlns="http://www.w3.org/2000/svg" xmlns:xlink="http://www.w3.org/1999/xlink" version="1.1" id="Layer_1" x="0px" y="0px" viewBox="0 0 1122.9 841.9" style="enable-background:new 0 0 1122.9 841.9;" xml:space="preserve">
<style type="text/css">
	.st0{fill:#4663AC;}
	.st1{fill:#A2B1D7;}
	.st2{fill:#F6F4EE;}
	.st3{fill:none;stroke:#FCFBF9;stroke-width:26.9733;}
	.st4{fill:none;stroke:#FCFBF9;stroke-width:10.7889;}
	.st5{fill:none;stroke:#4663B3;stroke-width:0.3036;}
	.st6{fill:none;stroke:#A2B1D7;stroke-width:2.2916;stroke-linecap:round;stroke-miterlimit:10;stroke-dasharray:0,9.1664;}
	.st7{fill:none;}
	.st8{clip-path:url(#SVGID_2_);}
	.st9{fill:none;stroke:#A2B1D7;stroke-width:0.7112;stroke-miterlimit:10;}
	.st10{fill:#2C2439;}
	.st11{fill:none;stroke:#4663AC;stroke-width:2.8547;stroke-linecap:round;stroke-miterlimit:10;}
	.st12{opacity:0.5;fill:none;stroke:#FCFBF8;stroke-width:9.9872;stroke-miterlimit:10;}
	.st13{opacity:0.5;fill:none;stroke:#FCFBF8;stroke-width:21.2003;stroke-miterlimit:10;}
	.st14{opacity:0.5;fill:none;stroke:#FCFBF8;stroke-width:29.4871;stroke-miterlimit:10;}
	.st15{opacity:0.5;fill:none;stroke:#FCFBF8;stroke-width:31.1;stroke-miterlimit:10;}
	.st16{opacity:0.5;fill:none;stroke:#FCFBF8;stroke-width:2;stroke-miterlimit:10;}
	.st17{opacity:0.5;fill:none;stroke:#FCFBF8;stroke-width:5.0035;stroke-miterlimit:10;}
	.st18{fill:none;stroke:#4663AC;stroke-width:2.0624;stroke-miterlimit:10;}
	.st19{fill:#4663AC;stroke:#4663AC;stroke-width:1.2856;stroke-miterlimit:10;}
	.st20{fill:none;stroke:#4663AC;stroke-width:4.1248;stroke-linecap:round;stroke-miterlimit:10;}
	.st21{fill:none;stroke:#4663AC;stroke-width:4.1248;stroke-linecap:round;stroke-miterlimit:10;stroke-dasharray:0,13.9012;}
	.st22{fill:none;stroke:#4663AC;stroke-width:4.1248;stroke-linecap:round;stroke-miterlimit:10;stroke-dasharray:0,13.3352;}
	.st23{fill:none;stroke:#4663AC;stroke-width:4.1248;stroke-linecap:round;stroke-miterlimit:10;stroke-dasharray:0,14.8506;}
	.st24{fill:none;stroke:#4663AC;stroke-width:4.1248;stroke-linecap:round;stroke-miterlimit:10;stroke-dasharray:0,14.1173;}
	.st25{fill:none;stroke:#4663AC;stroke-width:4.1248;stroke-linecap:round;stroke-miterlimit:10;stroke-dasharray:0,13.3298;}
	.st26{fill:none;stroke:#4663AC;stroke-width:4.1248;stroke-linecap:round;stroke-miterlimit:10;stroke-dasharray:0,13.6347;}
	.st27{fill:none;stroke:#4663AC;stroke-width:4.1248;stroke-linecap:round;stroke-miterlimit:10;stroke-dasharray:0,13.1218;}
	.st28{fill:none;stroke:#4663AC;stroke-width:4.1248;stroke-linecap:round;stroke-miterlimit:10;stroke-dasharray:0,13.6058;}
	.st29{fill:none;stroke:#4663AC;stroke-width:4.1248;stroke-linecap:round;stroke-miterlimit:10;stroke-dasharray:0,12.5103;}
	.st30{fill:none;stroke:#4663AC;stroke-width:4.1248;stroke-linecap:round;stroke-miterlimit:10;stroke-dasharray:0,12.4486;}
	.st31{fill:none;stroke:#4663AC;stroke-width:4.1248;stroke-linecap:round;stroke-miterlimit:10;stroke-dasharray:0,12.7369;}
	.st32{fill:none;stroke:#4663AC;stroke-width:4.1248;stroke-linecap:round;stroke-miterlimit:10;stroke-dasharray:0,8.2697;}
	.st33{fill:none;stroke:#4663AC;stroke-width:4.1248;stroke-linecap:round;stroke-miterlimit:10;stroke-dasharray:0,14.5949;}
	.st34{fill:none;stroke:#4663AC;stroke-width:4.1248;stroke-linecap:round;stroke-miterlimit:10;stroke-dasharray:0,14.4411;}
	.st35{fill:none;stroke:#4663AC;stroke-width:4.1248;stroke-linecap:round;stroke-miterlimit:10;stroke-dasharray:0,14.1165;}
	.st36{fill:none;stroke:#4663AC;stroke-width:4.1248;stroke-linecap:round;stroke-miterlimit:10;stroke-dasharray:0,14.2433;}
	.st37{fill:none;stroke:#4663AC;stroke-width:4.1248;stroke-linecap:round;stroke-miterlimit:10;stroke-dasharray:0,14.7349;}
	.st38{fill:none;stroke:#4663AC;stroke-width:4.1248;stroke-linecap:round;stroke-miterlimit:10;stroke-dasharray:0,17.241;}
	.st39{fill:none;stroke:#4663AC;stroke-width:4.1248;stroke-linecap:round;stroke-miterlimit:10;stroke-dasharray:0,16.5551;}
	.st40{fill:none;stroke:#4663AC;stroke-width:4.1248;stroke-linecap:round;stroke-miterlimit:10;stroke-dasharray:0,10.2162;}
	.st41{fill:none;stroke:#4663AC;stroke-width:4.1248;stroke-linecap:round;stroke-miterlimit:10;stroke-dasharray:0,8.6088;}
	.st42{fill:none;stroke:#4663AC;stroke-width:4.1248;stroke-linecap:round;stroke-miterlimit:10;stroke-dasharray:0,10.1312;}
	.st43{fill:none;stroke:#4663AC;stroke-width:4.1248;stroke-linecap:round;stroke-miterlimit:10;stroke-dasharray:0,14.5361;}
	.st44{fill:none;stroke:#4663AC;stroke-width:4.1248;stroke-linecap:round;stroke-miterlimit:10;stroke-dasharray:0,13.343;}
	.st45{fill:none;stroke:#4663AC;stroke-width:4.1248;stroke-linecap:round;stroke-miterlimit:10;stroke-dasharray:0,13.3617;}
	.st46{fill:none;stroke:#4663AC;stroke-width:4.1248;stroke-linecap:round;stroke-miterlimit:10;stroke-dasharray:0,13.092;}
	.st47{fill:none;stroke:#4663AC;stroke-width:4.1248;stroke-linecap:round;stroke-miterlimit:10;stroke-dasharray:0,14.2728;}
	.st48{fill:none;stroke:#4663AC;stroke-width:4.1248;stroke-linecap:round;stroke-miterlimit:10;stroke-dasharray:0,15.2505;}
	.st49{fill:none;stroke:#4663AC;stroke-width:4.1248;stroke-linecap:round;stroke-miterlimit:10;stroke-dasharray:0,15.634;}
	.st50{fill:none;stroke:#4663AC;stroke-width:4.1248;stroke-linecap:round;stroke-miterlimit:10;stroke-dasharray:0,9.6001;}
	.st51{fill:none;stroke:#4663AC;stroke-width:4.1248;stroke-linecap:round;stroke-miterlimit:10;stroke-dasharray:0,8.0896;}
	.st52{fill:none;stroke:#4663AC;stroke-width:4.1248;stroke-linecap:round;stroke-miterlimit:10;stroke-dasharray:0,9.5202;}
	.st53{fill:none;stroke:#4663AC;stroke-width:4.1248;stroke-linecap:round;stroke-miterlimit:10;stroke-dasharray:0,13.5354;}
	.st54{fill:none;stroke:#4663AC;stroke-width:4.1248;stroke-linecap:round;stroke-miterlimit:10;stroke-dasharray:0,14.5588;}
	.st55{fill:none;stroke:#4663AC;stroke-width:4.1248;stroke-linecap:round;stroke-miterlimit:10;stroke-dasharray:0,14.2299;}
	.st56{fill:none;stroke:#4663AC;stroke-width:4.1248;stroke-linecap:round;stroke-miterlimit:10;stroke-dasharray:0,13.9516;}
	.st57{fill:none;stroke:#4663AC;stroke-width:4.1248;stroke-linecap:round;stroke-miterlimit:10;stroke-dasharray:0,15.1694;}
	.st58{fill:none;stroke:#4663AC;stroke-width:4.1248;stroke-linecap:round;stroke-miterlimit:10;stroke-dasharray:0,16.2293;}
	.st59{fill:none;stroke:#4663AC;stroke-width:4.1248;stroke-linecap:round;stroke-miterlimit:10;stroke-dasharray:0,16.6374;}
	.st60{fill:none;stroke:#4663AC;stroke-width:4.1248;stroke-linecap:round;stroke-miterlimit:10;stroke-dasharray:0,10.2163;}
	.st61{fill:none;stroke:#4663AC;stroke-width:4.1248;stroke-linecap:round;stroke-miterlimit:10;stroke-dasharray:0,9.5866;}
	.st62{fill:none;stroke:#4663AC;stroke-width:4.1248;stroke-linecap:round;stroke-miterlimit:10;stroke-dasharray:0,10.2883;}
	.st63{fill:none;stroke:#4663AC;stroke-width:4.1248;stroke-linecap:round;stroke-miterlimit:10;stroke-dasharray:0,15.0727;}
	.st64{fill:none;stroke:#4663AC;stroke-width:4.1248;stroke-linecap:round;stroke-miterlimit:10;stroke-dasharray:0,14.2562;}
	.st65{fill:none;stroke:#4663AC;stroke-width:4.1248;stroke-linecap:round;stroke-miterlimit:10;stroke-dasharray:0,13.3831;}
	.st66{fill:none;stroke:#4663AC;stroke-width:4.1248;stroke-linecap:round;stroke-miterlimit:10;stroke-dasharray:0,13.5675;}
	.st67{fill:none;stroke:#4663AC;stroke-width:4.1248;stroke-linecap:round;stroke-miterlimit:10;stroke-dasharray:0,13.184;}
	.st68{fill:none;stroke:#4663AC;stroke-width:4.1248;stroke-linecap:round;stroke-miterlimit:10;stroke-dasharray:0,13.6939;}
	.st69{fill:none;stroke:#4663AC;stroke-width:4.1248;stroke-linecap:round;stroke-miterlimit:10;stroke-dasharray:0,12.532;}
	.st70{fill:none;stroke:#4663AC;stroke-width:4.1248;stroke-linecap:round;stroke-miterlimit:10;stroke-dasharray:0,12.2375;}
	.st71{fill:none;stroke:#4663AC;stroke-width:4.1248;stroke-linecap:round;stroke-miterlimit:10;stroke-dasharray:0,12.4278;}
	.st72{fill:none;stroke:#4663AC;stroke-width:4.1248;stroke-linecap:round;stroke-miterlimit:10;stroke-dasharray:0,14.7027;}
	.st73{fill:none;stroke:#4663AC;stroke-width:4.1248;stroke-linecap:round;stroke-miterlimit:10;stroke-dasharray:0,14.2849;}
	.st74{fill:none;stroke:#4663AC;stroke-width:4.1248;stroke-linecap:round;stroke-miterlimit:10;stroke-dasharray:0,13.1788;}
	.st75{fill:none;stroke:#4663AC;stroke-width:4.1248;stroke-linecap:round;stroke-miterlimit:10;stroke-dasharray:0,12.374;}
	.st76{fill:none;stroke:#4663AC;stroke-width:4.1248;stroke-linecap:round;stroke-miterlimit:10;stroke-dasharray:0,14.5112;}
	.st77{fill:none;stroke:#4663AC;stroke-width:4.1248;stroke-linecap:round;stroke-miterlimit:10;stroke-dasharray:0,13.2846;}
	.st78{fill:none;stroke:#4663AC;stroke-width:4.1248;stroke-linecap:round;stroke-miterlimit:10;stroke-dasharray:0,14.9892;}
	.st79{fill:none;stroke:#4663AC;stroke-width:4.1248;stroke-linecap:round;stroke-miterlimit:10;stroke-dasharray:0,14.3053;}
	.st80{fill:none;stroke:#4663AC;stroke-width:4.1248;stroke-linecap:round;stroke-miterlimit:10;stroke-dasharray:0,14.2141;}
	.st81{fill:none;stroke:#4663AC;stroke-width:4.1248;stroke-linecap:round;stroke-miterlimit:10;stroke-dasharray:0,15.2513;}
	.st82{fill:none;stroke:#4663AC;stroke-width:4.1248;stroke-linecap:round;stroke-miterlimit:10;stroke-dasharray:0,13.8578;}
	.st83{fill:none;stroke:#4663AC;stroke-width:4.1248;stroke-linecap:round;stroke-miterlimit:10;stroke-dasharray:0,14.6575;}
	.st84{fill:none;stroke:#4663AC;stroke-width:4.1248;stroke-linecap:round;stroke-miterlimit:10;stroke-dasharray:0,13.8834;}
	.st85{fill:none;stroke:#4663AC;stroke-width:4.1248;stroke-linecap:round;stroke-miterlimit:10;stroke-dasharray:0,15.3969;}
	.st86{fill:none;stroke:#4663AC;stroke-width:4.1248;stroke-linecap:round;stroke-miterlimit:10;stroke-dasharray:0,13.8559;}
	.st87{fill:none;stroke:#4663AC;stroke-width:4.1248;stroke-linecap:round;stroke-miterlimit:10;stroke-dasharray:0,15.286;}
	.st88{fill:none;stroke:#4663AC;stroke-width:4.1248;stroke-linecap:round;stroke-miterlimit:10;stroke-dasharray:0,12.6256;}
	.st89{fill:none;stroke:#4663AC;stroke-width:4.1248;stroke-linecap:round;stroke-miterlimit:10;stroke-dasharray:0,12.5449;}
	.st90{fill:none;stroke:#4663AC;stroke-width:4.1248;stroke-linecap:round;stroke-miterlimit:10;stroke-dasharray:0,12.3046;}
	.st91{fill:none;stroke:#4663AC;stroke-width:4.1248;stroke-linecap:round;stroke-miterlimit:10;stroke-dasharray:0,12.9422;}
	.st92{fill:none;stroke:#4663AC;stroke-width:4.1248;stroke-linecap:round;stroke-miterlimit:10;stroke-dasharray:0,15.391;}
	.st93{fill:none;stroke:#4663AC;stroke-width:4.1248;stroke-linecap:round;stroke-miterlimit:10;stroke-dasharray:0,14.1258;}
	.st94{fill:none;stroke:#4663AC;stroke-width:4.1248;stroke-linecap:round;stroke-miterlimit:10;stroke-dasharray:0,13.2305;}
	.st95{fill:none;stroke:#4663AC;stroke-width:4.1248;stroke-linecap:round;stroke-miterlimit:10;stroke-dasharray:0,12.6286;}
	.st96{fill:none;stroke:#4663AC;stroke-width:4.1248;stroke-linecap:round;stroke-miterlimit:10;stroke-dasharray:0,15.6846;}
	.st97{fill:none;stroke:#4663AC;stroke-width:4.1248;stroke-linecap:round;stroke-miterlimit:10;stroke-dasharray:0,16.1203;}
	.st98{fill:none;stroke:#4663AC;stroke-width:4.1248;stroke-linecap:round;stroke-miterlimit:10;stroke-dasharray:0,16.3049;}
	.st99{fill:none;stroke:#4663AC;stroke-width:4.1248;stroke-linecap:round;stroke-miterlimit:10;stroke-dasharray:0,13.5127;}
	.st100{fill:none;stroke:#4663AC;stroke-width:4.1248;stroke-linecap:round;stroke-miterlimit:10;stroke-dasharray:0,11.183;}
	.st101{fill:none;stroke:#4663AC;stroke-width:4.1248;stroke-linecap:round;stroke-miterlimit:10;stroke-dasharray:0,11.1135;}
	.st102{fill:none;stroke:#4663AC;stroke-width:4.1248;stroke-linecap:round;stroke-miterlimit:10;stroke-dasharray:0,11.2835;}
	.st103{fill:none;stroke:#4663AC;stroke-width:4.1248;stroke-linecap:round;stroke-miterlimit:10;stroke-dasharray:0,12.6132;}
	.st104{fill:none;stroke:#4663AC;stroke-width:4.1248;stroke-linecap:round;stroke-miterlimit:10;stroke-dasharray:0,14.074;}
	.st105{fill:none;stroke:#4663AC;stroke-width:4.1248;stroke-linecap:round;stroke-miterlimit:10;stroke-dasharray:0,17.5337;}
	.st106{fill:none;stroke:#4663AC;stroke-width:4.1248;stroke-linecap:round;stroke-miterlimit:10;stroke-dasharray:0,14.9915;}
	.st107{fill:none;stroke:#4663AC;stroke-width:4.1248;stroke-linecap:round;stroke-miterlimit:10;stroke-dasharray:0,13.3774;}
	.st108{fill:none;stroke:#4663AC;stroke-width:4.1248;stroke-linecap:round;stroke-miterlimit:10;stroke-dasharray:0,15.7689;}
	.st109{fill:#FFFFFF;}
	.st110{fill:none;stroke:#4663B3;stroke-width:0.9533;}
	.st111{fill:#4663B3;}
	.st112{opacity:0.5;fill:none;stroke:#FCFBF9;stroke-width:20.226;}
	.st113{opacity:0.75;fill:none;stroke:#FCFBF9;stroke-width:20.226;}
	.st114{fill:none;stroke:#FCFBF9;stroke-width:20.226;}
</style>
<symbol id="Nuovo_simbolo_2" viewBox="-50 -50 100 100">
	<circle class="st0" cx="0" cy="0" r="50"></circle>
	<path class="st1" d="M0-19c-10.5,0-19,8.5-19,19s8.5,19,19,19c10.5,0,19-8.5,19-19S10.5-19,0-19z M0,18c-9.9,0-18-8.1-18-18   s8.1-18,18-18c9.9,0,18,8.1,18,18S9.9,18,0,18z"></path>
	<circle class="st1" cx="0" cy="0" r="9.3"></circle>
</symbol>
<rect x="0" y="0" class="st2" width="1122.9" height="841.9"></rect>
<rect x="0" y="26.8" class="st7" width="1122.9" height="841.9"></rect>
<g>
	<defs>
		<rect id="SVGID_1_" x="0" y="58" width="1122.9" height="780.4"></rect>
	</defs>
	<clipPath id="SVGID_2_">
		<use xlink:href="#SVGID_1_" style="overflow:visible;"></use>
	</clipPath>
	<g class="st8">
		<g>
			<g>
				<path class="st0" d="M779.5,697.7c-50.7,0-98.5-19.8-134.3-55.6l-83.9-83.9L477.3,642c-35.9,35.9-83.6,55.6-134.3,55.6      s-98.5-19.8-134.3-55.6c-35.9-35.9-55.6-83.6-55.6-134.3c0-50.7,19.8-98.5,55.6-134.3c35.9-35.9,83.6-55.6,134.3-55.6      s98.5,19.8,134.3,55.6l83.9,83.9l83.9-83.9c35.9-35.9,83.6-55.6,134.3-55.6c50.7,0,98.5,19.8,134.3,55.6      c35.9,35.9,55.6,83.6,55.6,134.3c0,50.7-19.8,98.5-55.6,134.3C877.9,677.9,830.2,697.7,779.5,697.7z M611.7,507.7l83.9,83.9      c46.3,46.3,121.5,46.3,167.8,0c22.4-22.4,34.7-52.2,34.7-83.9c0-31.7-12.3-61.5-34.7-83.9c-22.4-22.4-52.2-34.7-83.9-34.7      s-61.5,12.3-83.9,34.7L611.7,507.7z M343,389c-31.7,0-61.5,12.3-83.9,34.7c-22.4,22.4-34.7,52.2-34.7,83.9      c0,31.7,12.3,61.5,34.7,83.9c46.3,46.3,121.5,46.3,167.8,0l83.9-83.9l-83.9-83.9C404.5,401.4,374.7,389,343,389z"></path>
			</g>
			<path class="st9" d="M561.7,550.7l-87.9,87.9c-72.3,72.3-189.6,72.3-261.9,0s-72.3-189.6,0-261.9s189.6-72.3,261.9,0L617.1,520     l75.1,75.1c48.3,48.3,126.5,48.3,174.8,0s48.3-126.5,0-174.8s-126.5-48.3-174.8,0l-87.4,87.4"></path>
			<path class="st9" d="M558.4,547.4l-87.9,87.9c-70.5,70.5-184.8,70.5-255.3,0s-70.5-184.8,0-255.3s184.8-70.5,255.3,0l143.3,143.3     l75.1,75.1c50.1,50.1,131.3,50.1,181.4,0s50.1-131.3,0-181.4s-131.3-50.1-181.4,0l-87.4,87.4"></path>
			<path class="st9" d="M555.1,544.1L467.2,632c-68.7,68.7-180,68.7-248.6,0s-68.7-180,0-248.6s180-68.7,248.6,0l143.3,143.3     l75.1,75.1c51.9,51.9,136.1,51.9,188.1,0s51.9-136.1,0-188.1s-136.1-51.9-188.1,0l-87.4,87.4"></path>
			<path class="st9" d="M551.8,540.8l-87.9,87.8c-66.8,66.8-175.2,66.8-242,0s-66.8-175.2,0-242s175.2-66.8,242,0L607.2,530     l75.1,75.1c53.8,53.8,141,53.8,194.7,0s53.8-141,0-194.7s-141-53.8-194.7,0l-87.4,87.4"></path>
			<path class="st9" d="M548.4,537.5l-87.8,87.8c-65,65-170.3,65-235.3,0s-65-170.3,0-235.3s170.3-65,235.3,0l143.3,143.3l75.2,75.1     c55.6,55.6,145.8,55.6,201.4,0c55.6-55.6,55.6-145.8,0-201.4c-55.6-55.6-145.8-55.6-201.4,0l-87.4,87.4"></path>
			<path class="st9" d="M545.1,534.2L457.3,622c-63.1,63.1-165.5,63.1-228.7,0s-63.1-165.5,0-228.7s165.5-63.1,228.7,0l143.2,143.2     l75.2,75.1c57.4,57.4,150.6,57.4,208,0c57.4-57.4,57.4-150.6,0-208c-57.4-57.4-150.6-57.4-208,0l-87.5,87.5"></path>
			<path class="st9" d="M541.8,530.9L454,618.7c-61.3,61.3-160.7,61.3-222,0s-61.3-160.7,0-222s160.7-61.3,222,0l143.2,143.2     l75.2,75.2c59.3,59.3,155.4,59.3,214.7,0c59.3-59.3,59.3-155.4,0-214.7c-59.3-59.3-155.4-59.3-214.7,0l-87.5,87.5"></path>
			<path class="st9" d="M538.5,527.6l-87.8,87.8c-59.5,59.5-155.9,59.5-215.3,0c-59.5-59.5-59.5-155.9,0-215.3s155.9-59.5,215.3,0     l109.1,109.1l34.1,34.1l75.2,75.2c61.1,61.1,160.2,61.1,221.3,0s61.1-160.2,0-221.3s-160.2-61.1-221.3,0l-87.5,87.5"></path>
			<path class="st9" d="M535.2,524.2L447.4,612c-57.6,57.6-151.1,57.6-208.7,0c-57.6-57.6-57.6-151.1,0-208.7s151.1-57.6,208.7,0     l143.2,143.2l75.2,75.2c63,63,165,63,228,0s63-165,0-228s-165-63-228,0l-87.5,87.5"></path>
			<path class="st9" d="M531.9,520.9l-87.8,87.8c-55.8,55.8-146.2,55.8-202,0c-55.8-55.8-55.8-146.2,0-202s146.2-55.8,202,0     l143.2,143.2l75.2,75.2c64.8,64.8,169.8,64.8,234.6,0s64.8-169.8,0-234.6s-169.8-64.8-234.6,0L575,477.9"></path>
			<path class="st9" d="M528.6,517.6l-87.7,87.7c-53.9,53.9-141.4,53.9-195.4,0c-53.9-53.9-53.9-141.4,0-195.4s141.4-53.9,195.4,0     L584,553.1l75.2,75.2c66.6,66.6,174.6,66.6,241.3,0s66.6-174.6,0-241.3s-174.6-66.6-241.3,0l-87.5,87.5"></path>
			<path class="st9" d="M525.3,514.3L437.5,602c-52.1,52.1-136.6,52.1-188.7,0s-52.1-136.6,0-188.7s136.6-52.1,188.7,0l143.1,143.1     l75.2,75.2c68.5,68.5,179.4,68.5,247.9,0s68.5-179.4,0-247.9s-179.4-68.5-247.9,0l-87.5,87.5"></path>
			<path class="st9" d="M521.9,511l-87.7,87.7c-50.3,50.3-131.8,50.3-182,0c-50.3-50.3-50.3-131.8,0-182s131.8-50.3,182,0     l143.1,143.1l75.2,75.2c70.3,70.3,184.3,70.3,254.6,0s70.3-184.3,0-254.6s-184.3-70.3-254.6,0l-87.5,87.5"></path>
			<path class="st9" d="M518.6,507.7l-87.7,87.7c-48.4,48.4-127,48.4-175.4,0s-48.4-127,0-175.4s127-48.4,175.4,0L574,563.1     l75.2,75.2c72.1,72.1,189.1,72.1,261.2,0s72.1-189.1,0-261.2s-189.1-72.1-261.2,0l-87.5,87.5"></path>
			<g>
				<path class="st10" d="M742.7,500.3c-0.3,0-0.6,0-0.8,0.1l-0.2-0.2c-0.3-1.3-0.6-3-0.8-4.6l0.1-0.1c0.2-0.1,0.5-0.3,0.9-0.3      c0.5,1.2,0.9,2.2,1.5,3c0.7,0.9,1.6,1.3,3.2,1.3c1.7,0,3.2-1.1,3.2-3c0-2-1-2.5-3.8-3.8c-3.1-1.4-4.7-2.5-4.7-5.1      c0-2.6,2.4-4.4,5.5-4.4c1.2,0,2.6,0.3,3.5,0.3c0.2,0,0.5,0,0.6-0.1l0.2,0.2c0.1,1.3,0.2,2.7,0.2,3.9l-0.1,0.1      c-0.2,0.1-0.5,0.2-0.9,0.2c-0.2-0.9-0.5-1.7-0.9-2.3c-0.6-0.7-1.6-1.2-2.9-1.2c-1.8,0-3.1,1-3.1,2.6c0,1.9,1.7,2.7,3.9,3.7      c2.7,1.2,4.6,2.3,4.6,4.9c0,2.9-2.1,5.1-5.6,5.1C745.3,500.7,743.8,500.3,742.7,500.3z"></path>
				<path class="st10" d="M754.3,494.9c0-3.6,2.5-6,5.9-6c3.2,0,5.3,2.1,5.3,5.6c0,3.8-2.4,6.2-5.5,6.2      C756.3,500.7,754.3,498.3,754.3,494.9z M763.1,494.9c0-3.3-1.3-4.8-3.1-4.8c-2.6,0-3.5,2.5-3.4,4.6c0,2.9,1.2,4.9,3.5,4.9      C762.4,499.5,763.1,496.8,763.1,494.9z"></path>
				<path class="st10" d="M767.5,494.9c0-3.5,2.5-6,6.1-6c2.2,0,3.6,0.9,3.6,1.9c0,0.7-0.5,1.3-1.3,1.8l-0.3,0      c-0.7-1.8-1.5-2.5-2.6-2.5c-2.1,0-3.5,1.8-3.5,4.3c0,2.8,1.8,4.7,4.1,4.7c1.4,0,2.5-0.6,3.3-1.5c0.1,0.4,0.1,0.7,0.1,1.1      l-0.1,0.2c-0.8,1-2.3,1.8-4,1.8C769.6,500.7,767.5,498.5,767.5,494.9z"></path>
				<path class="st10" d="M779.3,499.5L779.3,499.5l1.2-0.4c0.2-0.1,0.3-0.1,0.3-0.4c0-1.3,0-2.9,0-4.2c0-1.3,0-2.3,0-3.4      c0-0.3-0.1-0.3-0.3-0.4c-0.4-0.1-1-0.2-1.5-0.2c0-0.3,0-0.6,0.1-0.8l0.1-0.1c1-0.3,2.4-0.6,3.6-0.8l0.3,0.1c0,1.9,0,4,0,5.6      c0,1.5,0,3,0,4.2c0,0.3,0.1,0.3,0.3,0.4c0.4,0.1,1,0.2,1.3,0.3c0,0.3-0.1,0.7-0.2,0.9l-0.1,0.1c-0.7-0.1-1.7-0.1-2.4-0.1      c-0.9,0-2,0.1-2.8,0.1C779.2,500.1,779.3,499.7,779.3,499.5z M780.5,484.6c0-0.9,0.6-1.5,1.4-1.5c0.8,0,1.3,0.6,1.3,1.5      c0,0.9-0.6,1.5-1.4,1.5C781.1,486.1,780.5,485.5,780.5,484.6z"></path>
				<path class="st10" d="M786.3,494.9c0-3.4,2.3-6,5.6-6c2.6,0,4.1,1.7,4.1,3.8c0,0.5-0.1,1-0.2,1.3l-0.3,0.2l-7-0.2v0.4      c0,2.5,1.6,4.6,4.3,4.6c1.1,0,2.1-0.5,3-1.3c0.1,0.4,0.2,0.7,0.2,1l-0.1,0.2c-0.8,0.8-2.1,1.7-4.1,1.7      C788.3,500.7,786.3,498.4,786.3,494.9z M793.6,493.1c0.1-0.2,0.1-0.5,0.1-0.7c0-1.3-0.7-2.4-2.1-2.4c-1.8,0-2.7,1.4-3,3.1H793.6      z"></path>
				<path class="st10" d="M799.4,497.5c0-1.9,0-4.3,0.1-6.6c0-0.2-0.1-0.3-0.3-0.3c-0.5,0-1.3,0-1.8,0c0-0.3,0-0.7,0.1-1l0.1-0.1      c0.3-0.1,1.2-0.2,1.6-0.3c0.2-0.1,0.3-0.2,0.4-0.4c0.2-0.7,0.4-1.7,0.6-2.6l0.1-0.1h1.3c0,1.1,0,2.3,0,3.1      c0.3-0.1,0.7-0.1,0.9-0.1h2.9c-0.1,0.4-0.1,1-0.3,1.3l-0.2,0.1l-3.4,0c-0.1,2.2-0.1,4.7-0.1,6.8c0,1.4,0.4,1.9,1.7,1.9      c0.6,0,1.4-0.2,2.2-0.4c0,0.3,0,0.7-0.1,1l-0.1,0.1c-1,0.4-1.9,0.7-2.9,0.7C800.1,500.7,799.4,499.8,799.4,497.5z"></path>
				<path class="st10" d="M806.7,497.9c0-1.5,1.1-2.7,4-3.4c0.8-0.2,1.6-0.3,2.2-0.4l0-1.2c0-1.8-0.7-2.5-2.2-2.5      c-1.1,0-2.6,0.5-3.6,1.1c0-0.2-0.1-0.4-0.1-0.6c0-0.2,0-0.4,0.1-0.6l0.1-0.1c1.3-0.7,2.9-1.2,4.4-1.2c2.5,0,3.6,0.9,3.5,3.5      c0,1-0.1,3.6-0.1,5.5c0,0.8,0.3,1.2,0.8,1.2c0.5,0,1,0,1.4,0c0,0.3,0,0.7-0.1,0.9l-0.1,0.1c-0.5,0.3-1.2,0.5-1.9,0.5      c-1.3,0-1.9-0.7-2-1.7h-0.1c-0.8,0.9-2,1.7-3.3,1.7C808.1,500.7,806.7,499.8,806.7,497.9z M812.9,498.2c0.1-0.5,0.1-1.2,0.1-1.6      v-1.4c-0.5,0.1-1.3,0.3-1.8,0.4c-1.6,0.5-2.2,1.1-2.2,1.9c0,1,0.8,1.5,1.8,1.5C811.5,499,812.2,498.7,812.9,498.2z"></path>
				<path class="st10" d="M818.6,499.5L818.6,499.5c0.4-0.2,0.9-0.3,1.2-0.4c0.2-0.1,0.2-0.1,0.2-0.4c0-1.9,0-4.6,0-7.5      c0-2.7,0-4.7,0-6.7c0-0.3-0.2-0.4-0.3-0.4c-0.3-0.1-0.9-0.1-1.4-0.2c0-0.3,0-0.6,0.1-0.8l0.1-0.1c1.1-0.3,2.4-0.7,3.5-0.9      l0.4,0.1c-0.1,3.3-0.1,6-0.1,8.9c0,2.9,0,5.7,0,7.6c0,0.3,0.1,0.3,0.3,0.4c0.5,0.1,1,0.2,1.3,0.3c0,0.4-0.1,0.7-0.2,0.9      l-0.1,0.1c-0.7-0.1-1.8-0.1-2.5-0.1c-0.7,0-1.9,0.1-2.7,0.1C818.5,500.1,818.5,499.8,818.6,499.5z"></path>
				<path class="st10" d="M727.6,526.6l0.1-0.1c0.3-0.1,0.8-0.2,1.2-0.3c0.2-0.1,0.3-0.2,0.3-0.4c0-2,0-4.4,0-7.4c0-2.2,0-4.2,0-6.2      c0-0.3-0.1-0.4-0.3-0.4c-0.4-0.1-0.9-0.2-1.5-0.2c0-0.3,0.1-0.7,0.1-1l0.1-0.1c0.8,0,1.8,0.1,2.8,0.1c1,0,2.4-0.1,3.3-0.1      c2.2,0,3.7,0.3,4.8,1.1c1.2,0.9,1.7,2.1,1.7,3.5c0,2-1,3.5-2.3,4.4c-1.1,0.7-2.5,1-4,1c-1,0-1.7-0.1-2.1-0.1c0,1.7,0,4.1,0,5.4      c0,0.2,0.1,0.3,0.3,0.3c0.6,0.1,1.4,0.2,2,0.3c0,0.3-0.1,0.7-0.1,0.9l-0.1,0.1c-0.7-0.1-2.2-0.1-3.3-0.1c-0.9,0-2,0-3,0.1      C727.5,527.3,727.5,526.9,727.6,526.6z M736.6,518.5c0.6-0.7,1-1.7,1-3.1c0-1.2-0.3-2.2-1-2.9c-0.7-0.7-1.8-0.9-3.2-0.9      c-0.6,0-1.1,0.1-1.4,0.1c-0.2,0.1-0.3,0.2-0.3,0.5c0,1,0,2.2,0,3.6v3.4c0.6,0.1,1.2,0.2,2,0.2      C734.9,519.5,736,519.1,736.6,518.5z"></path>
				<path class="st10" d="M742.1,526.6L742.1,526.6c0.5-0.2,0.9-0.3,1.3-0.4c0.2-0.1,0.2-0.2,0.2-0.6v-3.3c0-1.1,0-3-0.1-4.2      c0-0.2-0.1-0.3-0.3-0.3c-0.3-0.1-1-0.2-1.5-0.2c0-0.2,0-0.6,0.1-0.8l0.1-0.1c1-0.3,2.2-0.6,3.3-0.8l0.4,0.1l0.1,2.2h0.1      c1.8-1.7,2.8-2.3,3.7-2.3c0.7,0,1.1,0.3,1.1,1c0,0.5-0.2,1.2-0.6,1.8l-0.2,0c-0.5-0.4-1-0.7-1.6-0.7c-1.1,0-1.7,0.5-2.4,1.2      c0,1.3,0,2.1,0,3.1c0,1.3,0,2.4,0.1,3.3c0,0.3,0.1,0.4,0.3,0.5c0.8,0.2,1.5,0.2,1.9,0.3c0,0.4-0.1,0.7-0.2,1l-0.1,0.1      c-0.6-0.1-1.9-0.1-3-0.1c-1.2,0-2.1,0.1-2.8,0.1C742,527.2,742.1,526.9,742.1,526.6z"></path>
				<path class="st10" d="M751.7,522.1c0-3.6,2.5-6,5.9-6c3.2,0,5.3,2.1,5.3,5.6c0,3.8-2.4,6.2-5.5,6.2      C753.7,527.8,751.7,525.4,751.7,522.1z M760.5,522c0-3.3-1.3-4.8-3.1-4.8c-2.6,0-3.5,2.5-3.4,4.6c0,2.9,1.2,4.9,3.5,4.9      C759.8,526.6,760.5,524,760.5,522z"></path>
				<path class="st10" d="M765.4,527.4c-0.2-1.1-0.3-2.3-0.4-3.3l0.1-0.1c0.2-0.1,0.4-0.2,0.7-0.3c0.2,0.5,0.4,1,0.7,1.6      c0.5,0.9,1.5,1.5,2.6,1.5c1.2,0,2.1-0.6,2.1-1.6c0-1.3-1.2-1.7-2.8-2.4c-1.8-0.8-3.2-1.4-3.2-3.5c0-1.7,1.6-3.1,4.1-3.1      c0.9,0,1.9,0.2,2.5,0.2c0.2,0,0.5,0,0.6-0.1l0.2,0.1c0.1,0.9,0.1,2,0.1,2.9l0,0.1c-0.3,0.1-0.6,0.2-0.9,0.2      c-0.1-0.4-0.2-0.7-0.3-1c-0.4-1.1-1.1-1.4-2.2-1.4c-1.3,0-2,0.6-2,1.6c0,1.1,0.6,1.4,2.4,2.2c1.7,0.7,3.5,1.3,3.5,3.4      c0,1.9-1.7,3.4-4,3.4c-1,0-2.2-0.3-3.1-0.3h-0.4L765.4,527.4z"></path>
				<path class="st10" d="M774.7,533.4l0.1-0.1c0.3-0.1,0.8-0.2,1.3-0.3c0.2-0.1,0.2-0.2,0.2-0.6c0-1.9,0-3.6,0-7.1      c0-2.4,0-4.9,0-7.2c0-0.2-0.1-0.3-0.3-0.3c-0.4-0.1-1-0.2-1.5-0.2c0-0.2,0-0.6,0.1-0.8l0.1-0.1c1-0.3,2.2-0.6,3.3-0.8l0.4,0.1      l0.1,1.5h0.1c0.9-0.7,2.3-1.5,3.9-1.5c2.5,0,4.7,2.1,4.7,5.5c0,3.7-2.5,6.2-6,6.2c-1.2,0-2-0.2-2.5-0.3v2.8c0,0.9,0,1.5,0,2.2      c0,0.3,0.1,0.4,0.3,0.5c0.7,0.1,1.7,0.2,2.2,0.3c0,0.4-0.1,0.8-0.2,1l-0.1,0.1c-0.6-0.1-2.3-0.1-3.3-0.1c-1.2,0-2.2,0.1-2.9,0.1      C774.5,534,774.6,533.7,774.7,533.4z M784.7,522c0-3.1-1.7-4.4-3.6-4.4c-0.9,0-1.8,0.4-2.6,0.9c0,1.2,0,2.4,0,3.5      c0,1.2,0,2.4,0,3.8c0.7,0.6,1.6,0.9,2.7,0.9C783.4,526.7,784.7,524.6,784.7,522z"></path>
				<path class="st10" d="M789.2,522.1c0-3.4,2.3-6,5.6-6c2.6,0,4.1,1.7,4.1,3.8c0,0.5-0.1,1-0.2,1.3l-0.3,0.2l-7-0.2v0.4      c0,2.5,1.6,4.6,4.3,4.6c1.1,0,2.1-0.5,3-1.3c0.1,0.4,0.2,0.7,0.2,1l-0.1,0.2c-0.8,0.9-2.1,1.7-4.1,1.7      C791.1,527.8,789.2,525.5,789.2,522.1z M796.4,520.2c0.1-0.2,0.1-0.5,0.1-0.7c0-1.3-0.7-2.4-2.1-2.4c-1.8,0-2.7,1.4-3,3.1H796.4      z"></path>
				<path class="st10" d="M801,526.6l0.1-0.1c0.4-0.1,0.8-0.2,1.2-0.3c0.2-0.1,0.2-0.2,0.2-0.6v-3.3c0-1.1,0-3-0.1-4.2      c0-0.2-0.1-0.3-0.3-0.3c-0.3-0.1-1-0.2-1.5-0.2c0-0.2,0-0.6,0.1-0.8l0.1-0.1c1-0.3,2.2-0.6,3.3-0.8l0.4,0.1l0.1,2.2h0.1      c1.8-1.7,2.8-2.3,3.7-2.3c0.7,0,1.1,0.3,1.1,1c0,0.5-0.2,1.2-0.6,1.8l-0.2,0c-0.5-0.4-1-0.7-1.6-0.7c-1.1,0-1.7,0.5-2.4,1.2      c0,1.3,0,2.1,0,3.1c0,1.3,0,2.4,0.1,3.3c0,0.3,0.1,0.4,0.3,0.5c0.8,0.2,1.5,0.2,1.9,0.3c0,0.4-0.1,0.7-0.2,1l-0.1,0.1      c-0.6-0.1-1.9-0.1-3-0.1c-1.2,0-2.1,0.1-2.8,0.1C800.8,527.2,800.9,526.9,801,526.6z"></path>
				<path class="st10" d="M811.1,526.6L811.1,526.6l1.2-0.4c0.2-0.1,0.3-0.1,0.3-0.4c0-1.3,0-2.9,0-4.2c0-1.3,0-2.3,0-3.4      c0-0.3-0.1-0.3-0.3-0.4c-0.4-0.1-1-0.2-1.5-0.2c0-0.3,0-0.6,0.1-0.8l0.1-0.1c1-0.3,2.4-0.6,3.6-0.8l0.3,0.1c0,1.9,0,4,0,5.6      c0,1.5,0,3,0,4.2c0,0.2,0.1,0.3,0.3,0.4c0.4,0.1,1,0.2,1.3,0.3c0,0.3-0.1,0.7-0.2,0.9l-0.1,0.1c-0.7-0.1-1.7-0.1-2.4-0.1      c-0.9,0-2,0.1-2.8,0.1C811,527.2,811,526.9,811.1,526.6z M812.3,511.7c0-0.9,0.6-1.5,1.4-1.5c0.8,0,1.3,0.6,1.3,1.5      c0,0.9-0.6,1.5-1.4,1.5C812.9,513.2,812.3,512.7,812.3,511.7z"></path>
				<path class="st10" d="M819.3,524.7c0-1.9,0-4.3,0.1-6.6c0-0.2-0.1-0.3-0.3-0.3c-0.5,0-1.3,0-1.8,0c0-0.3,0-0.7,0.1-1l0.1-0.1      c0.3-0.1,1.2-0.2,1.6-0.3c0.2-0.1,0.3-0.2,0.4-0.4c0.2-0.7,0.4-1.7,0.6-2.6l0.1-0.1h1.3c0,1.1,0,2.3,0,3.1      c0.3-0.1,0.7-0.1,0.9-0.1h2.9c-0.1,0.5-0.1,1-0.3,1.3l-0.2,0.1l-3.4-0.1c-0.1,2.2-0.1,4.7-0.1,6.8c0,1.4,0.4,1.9,1.7,1.9      c0.6,0,1.4-0.2,2.2-0.4c0,0.3,0,0.7-0.1,1l-0.1,0.1c-1,0.4-1.9,0.7-2.9,0.7C820.1,527.8,819.3,527,819.3,524.7z"></path>
				<path class="st10" d="M827.3,534v-0.4c1.9-1,3.4-2.7,4.7-5.4l0.3-0.6c-0.2,0-0.5,0-0.8-0.1l-0.2-0.1l-3.5-8.8      c-0.3-0.7-0.5-0.9-0.8-1c-0.2,0-0.6-0.1-0.9-0.2c0-0.3,0-0.6,0.1-0.9l0.1-0.1c0.7,0.1,1.8,0.1,2.5,0.1c0.9,0,2.2,0,2.9-0.1      c0,0.3,0,0.6-0.1,0.9l-0.1,0.1c-0.4,0.1-0.9,0.1-1.2,0.2c-0.3,0.1-0.4,0.2-0.4,0.5c0,0.4,0.4,1.2,0.8,2.2l1.2,3.3      c0.3,0.8,0.7,1.8,0.9,2.4h0l1.8-4.7c0.6-1.6,0.9-2.6,0.9-3c0-0.3-0.1-0.5-0.5-0.6c-0.4-0.1-0.8-0.2-1.2-0.2c0-0.3,0-0.6,0.1-0.9      l0.1-0.1c0.7,0,1.6,0.1,2.4,0.1c0.8,0,1.9,0,2.3-0.1c0,0.4,0,0.7-0.1,1l-0.1,0.1c-0.2,0-0.6,0.1-0.7,0.1c-0.3,0.1-0.6,0.4-1,1.3      l-3.3,8c-1,2.3-2,4.6-2.8,6.3c-0.6,1.2-1,1.4-1.7,1.4C828.6,534.6,827.8,534.3,827.3,534z"></path>
			</g>
			<g>
				<g>
					<path class="st10" d="M291.1,501.5l0.1-0.1c0.3-0.1,0.8-0.2,1.3-0.3c0.2,0,0.3-0.1,0.3-0.4c0-1.9,0-4.2,0-7.1       c0-2.1,0-4.7,0-6.6c0-0.3-0.1-0.3-0.3-0.3c-0.6-0.1-1.2-0.2-1.6-0.2c0-0.3,0.1-0.8,0.1-1l0.1-0.1c0.7,0.1,1.7,0.1,2.8,0.1       c1,0,2,0,3.1-0.1c0,0.3,0,0.7-0.1,1l-0.1,0.1c-0.4,0-0.9,0.1-1.3,0.2c-0.2,0.1-0.3,0.2-0.3,0.4c0,1.6,0,6.5,0,6.5       c0,2.9,0,5.3,0,7.2c0,0.2,0.1,0.3,0.2,0.3c0.6,0.1,1.3,0.2,1.7,0.3c0,0.3-0.1,0.7-0.2,1l-0.1,0.1c-0.7-0.1-1.7-0.1-2.8-0.1       c-1,0-2.1,0-3.1,0.1C291,502.2,291.1,501.8,291.1,501.5z"></path>
				</g>
				<g>
					<path class="st10" d="M299.2,501.5L299.2,501.5c0.4-0.1,0.9-0.2,1.1-0.3c0.2,0,0.3-0.1,0.3-0.5c0-1,0-2.1,0-3.5       c0-1.1,0-3.1-0.1-4.2c0-0.2-0.1-0.3-0.3-0.3c-0.4-0.1-1-0.2-1.5-0.2c0-0.2,0-0.6,0.1-0.8l0.1-0.1c1-0.3,2.2-0.6,3.3-0.8       l0.4,0.1l0.1,1.4h0.1c1.5-0.8,2.8-1.4,4.1-1.4c1.9,0,3.3,1.1,3.3,3.7c0,1.8-0.1,4.2-0.1,6.1c0,0.3,0.1,0.4,0.4,0.5       c0.3,0.1,0.9,0.2,1.2,0.2c0,0.3-0.1,0.7-0.2,0.9l-0.1,0.1c-0.6-0.1-1.5-0.1-2.4-0.1c-0.7,0-1.8,0-2.5,0.1c0-0.3,0-0.7,0.1-0.9       l0.1-0.1c0.3,0,0.6-0.1,0.9-0.2c0.2-0.1,0.3-0.1,0.3-0.5c0-1.5,0.1-3.5,0.1-5.4c0-2.1-0.8-2.8-2.2-2.8c-1,0-2,0.3-2.9,0.8       c0,1.2,0,2.9,0,3.9c0,1.3,0,2.5,0,3.5c0,0.3,0.1,0.4,0.4,0.5c0.3,0.1,0.8,0.2,1.3,0.3c0,0.3,0,0.6-0.2,0.9l-0.1,0.1       c-0.6-0.1-1.5-0.1-2.4-0.1c-0.7,0-2,0-2.7,0.1C299.1,502.2,299.1,501.8,299.2,501.5z"></path>
				</g>
				<g>
					<path class="st10" d="M322.6,502.7c-0.2-0.6-0.3-1.2-0.4-1.6h-0.1c-0.9,0.9-2,1.5-3.5,1.5c-3,0-5-2-5-5.6       c0-3.6,2.5-6.2,6.2-6.2c0.9,0,1.8,0.2,2.2,0.4c0-1.8,0-3.1-0.1-4.8c0-0.3-0.1-0.4-0.3-0.4c-0.3-0.1-0.9-0.2-1.4-0.2       c0-0.3,0-0.5,0.1-0.8l0.1-0.1c1.1-0.4,2.4-0.7,3.5-0.9l0.4,0.1c-0.1,2.8-0.1,5.7-0.1,8.6c0,2.9,0,6.2,0.1,7.8       c0,0.5,0.1,0.6,0.5,0.6c0.5,0.1,1.1,0.1,1.4,0.1c0,0.3,0,0.7-0.1,0.9l-0.1,0.1c-1.3,0.1-2.4,0.3-3.1,0.5L322.6,502.7z        M322,500.1c-0.1-0.9-0.1-2-0.1-3.5V493c-0.5-0.6-1.5-1-2.5-1c-2.1,0-3.7,1.7-3.7,4.6c0,2.6,1.4,4.6,3.7,4.6       C320.5,501.2,321.4,500.8,322,500.1z"></path>
				</g>
				<g>
					<path class="st10" d="M327.9,501.5L327.9,501.5l1.2-0.4c0.2,0,0.3-0.1,0.3-0.4c0-1.3,0-2.9,0-4.2c0-1.3,0-2.3,0-3.4       c0-0.3-0.1-0.3-0.3-0.4c-0.4-0.1-1-0.2-1.5-0.2c0-0.3,0-0.6,0.1-0.8l0.1-0.1c1-0.3,2.4-0.6,3.6-0.8l0.3,0.1c0,1.9,0,4,0,5.6       c0,1.5,0,3,0,4.2c0,0.2,0.1,0.3,0.3,0.4c0.4,0.1,1,0.2,1.3,0.3c0,0.3-0.1,0.7-0.2,0.9l-0.1,0.1c-0.7-0.1-1.7-0.1-2.4-0.1       c-0.9,0-2,0-2.8,0.1C327.8,502.1,327.8,501.8,327.9,501.5z M329.1,486.6c0-0.9,0.6-1.5,1.4-1.5c0.8,0,1.3,0.6,1.3,1.5       c0,0.9-0.6,1.5-1.4,1.5C329.7,488.1,329.1,487.6,329.1,486.6z"></path>
				</g>
				<g>
					<path class="st10" d="M338.1,499.6l-2.6-5.9c-0.4-1-0.5-1.1-0.9-1.2c-0.3-0.1-0.7-0.1-1-0.2c0-0.3,0.1-0.6,0.1-0.9l0.1-0.1       c0.7,0,1.7,0.1,2.6,0.1c0.7,0,2.3,0,3-0.1c0,0.4-0.1,0.7-0.1,0.9l-0.1,0.1c-0.4,0-0.7,0.1-1.1,0.2c-0.3,0.1-0.4,0.2-0.4,0.5       c0,0.4,0.4,1.1,0.7,1.9l1.2,2.8c0.3,0.8,0.6,1.5,0.9,2.3h0.1l2.1-4.9c0.4-1,0.6-1.6,0.6-1.9c0-0.3-0.2-0.5-0.4-0.6       c-0.3-0.1-0.8-0.2-1.2-0.3c0-0.3,0-0.6,0.1-0.9l0.1-0.1c0.8,0,1.8,0.1,2.5,0.1c0.6,0,1.6,0,2.2-0.1c0,0.3-0.1,0.7-0.1,1       l-0.1,0.1c-0.1,0-0.5,0.1-0.7,0.2c-0.4,0.1-0.7,0.3-1,1l-3.1,6.8c-0.3,0.7-0.6,1.4-0.8,2.1l-0.2,0.1c-0.3,0.1-0.9,0.1-1.2,0.1       C339.1,501.8,338.7,500.9,338.1,499.6z"></path>
				</g>
				<g>
					<path class="st10" d="M348.3,501.5L348.3,501.5l1.2-0.4c0.2,0,0.3-0.1,0.3-0.4c0-1.3,0-2.9,0-4.2c0-1.3,0-2.3,0-3.4       c0-0.3-0.1-0.3-0.3-0.4c-0.4-0.1-1-0.2-1.5-0.2c0-0.3,0-0.6,0.1-0.8l0.1-0.1c1-0.3,2.4-0.6,3.6-0.8l0.3,0.1c0,1.9,0,4,0,5.6       c0,1.5,0,3,0,4.2c0,0.2,0.1,0.3,0.3,0.4c0.4,0.1,1,0.2,1.3,0.3c0,0.3-0.1,0.7-0.2,0.9l-0.1,0.1c-0.7-0.1-1.7-0.1-2.4-0.1       c-0.9,0-2,0-2.8,0.1C348.2,502.1,348.3,501.8,348.3,501.5z M349.5,486.6c0-0.9,0.6-1.5,1.4-1.5c0.8,0,1.3,0.6,1.3,1.5       c0,0.9-0.6,1.5-1.4,1.5C350.1,488.1,349.5,487.6,349.5,486.6z"></path>
				</g>
				<g>
					<path class="st10" d="M364.4,502.7c-0.2-0.6-0.3-1.2-0.4-1.6h-0.1c-0.9,0.9-2,1.5-3.5,1.5c-3,0-5-2-5-5.6       c0-3.6,2.5-6.2,6.2-6.2c0.9,0,1.8,0.2,2.2,0.4c0-1.8,0-3.1-0.1-4.8c0-0.3-0.1-0.4-0.3-0.4c-0.3-0.1-0.9-0.2-1.4-0.2       c0-0.3,0-0.5,0.1-0.8l0.1-0.1c1.1-0.4,2.4-0.7,3.5-0.9l0.4,0.1c-0.1,2.8-0.1,5.7-0.1,8.6c0,2.9,0,6.2,0.1,7.8       c0,0.5,0.1,0.6,0.5,0.6c0.5,0.1,1.1,0.1,1.4,0.1c0,0.3,0,0.7-0.1,0.9l-0.1,0.1c-1.3,0.1-2.4,0.3-3.1,0.5L364.4,502.7z        M363.8,500.1c-0.1-0.9-0.1-2-0.1-3.5V493c-0.5-0.6-1.5-1-2.5-1c-2.1,0-3.7,1.7-3.7,4.6c0,2.6,1.4,4.6,3.7,4.6       C362.2,501.2,363.1,500.8,363.8,500.1z"></path>
				</g>
				<g>
					<path class="st10" d="M378.2,502.7c-0.2-0.5-0.3-1.1-0.4-1.7h-0.1c-1.1,1-2.2,1.7-3.6,1.7c-2.3,0-3.7-1.1-3.7-3.7       c0-2,0-4.1,0-6.1c0-0.2-0.1-0.3-0.2-0.3c-0.4-0.1-1.1-0.1-1.5-0.1c0-0.3,0.1-0.6,0.1-0.8l0.1-0.1c1.1-0.2,2.5-0.5,3.5-0.5       l0.3,0.2c-0.1,1-0.1,1.8-0.1,2.6c0,1.5,0,3.2,0,5c0,1.7,0.8,2.3,2.3,2.3c1,0,2-0.5,2.8-1.3c0-1,0-2.3,0-3.5c0-0.9,0-2.2,0-3.5       c0-0.2-0.1-0.3-0.3-0.3c-0.4-0.1-1.1-0.1-1.5-0.1c0-0.3,0.1-0.6,0.1-0.8l0.1-0.1c1.1-0.2,2.5-0.5,3.5-0.5l0.3,0.2       c-0.1,1.5-0.1,3.4-0.1,5.2c0,1.8,0,3.1,0.1,4.3c0,0.3,0.2,0.6,0.4,0.6c0.5,0.1,1.1,0.1,1.6,0.1c0,0.3,0,0.7-0.1,0.9l-0.1,0.1       c-1,0.1-2,0.3-3.1,0.5L378.2,502.7z"></path>
				</g>
				<g>
					<path class="st10" d="M383.2,500c0-1.5,1.1-2.7,4-3.4c0.8-0.2,1.6-0.3,2.2-0.5l0-1.2c0-1.8-0.7-2.5-2.2-2.5       c-1.1,0-2.6,0.5-3.6,1.1c0-0.2-0.1-0.4-0.1-0.6c0-0.2,0-0.4,0.1-0.6l0.1-0.1c1.3-0.7,2.9-1.2,4.4-1.2c2.5,0,3.6,0.9,3.5,3.5       c0,1-0.1,3.6-0.1,5.5c0,0.8,0.3,1.2,0.8,1.2c0.5,0,1,0,1.4,0c0,0.3,0,0.7-0.1,0.9l-0.1,0.1c-0.5,0.3-1.2,0.5-1.9,0.5       c-1.3,0-1.9-0.7-2-1.7h-0.1c-0.8,0.9-2,1.7-3.3,1.7C384.7,502.7,383.2,501.8,383.2,500z M389.5,500.2c0.1-0.4,0.1-1.2,0.1-1.6       v-1.4c-0.5,0.1-1.3,0.2-1.8,0.4c-1.6,0.5-2.2,1.1-2.2,1.9c0,1,0.8,1.5,1.8,1.5C388.1,501,388.8,500.7,389.5,500.2z"></path>
				</g>
				<g>
					<path class="st10" d="M395.2,501.5L395.2,501.5c0.4-0.1,0.9-0.3,1.2-0.4c0.2,0,0.2-0.1,0.2-0.4c0-1.9,0-4.6,0-7.5       c0-2.7,0-4.7,0-6.7c0-0.3-0.2-0.4-0.3-0.4c-0.3-0.1-0.9-0.2-1.4-0.2c0-0.3,0-0.6,0.1-0.8l0.1-0.1c1.1-0.3,2.4-0.7,3.5-0.9       l0.4,0.1c-0.1,3.3-0.1,6-0.1,8.9c0,2.9,0,5.7,0,7.6c0,0.2,0.1,0.3,0.3,0.4c0.5,0.1,1,0.3,1.3,0.3c0,0.4-0.1,0.7-0.2,0.9       l-0.1,0.1c-0.7-0.1-1.8-0.1-2.5-0.1c-0.7,0-1.9,0-2.7,0.1C395.1,502.1,395.1,501.8,395.2,501.5z"></path>
				</g>
				<g>
					<path class="st10" d="M290.8,528.6l0.1-0.1c0.3-0.1,0.8-0.2,1.2-0.3c0.2-0.1,0.3-0.2,0.3-0.4c0-2,0-4.4,0-7.4       c0-2.2,0-4.2,0-6.2c0-0.3-0.1-0.4-0.3-0.4c-0.4-0.1-0.9-0.2-1.5-0.2c0-0.3,0.1-0.7,0.1-1l0.1-0.1c0.8,0,1.8,0.1,2.8,0.1       c1,0,2.4-0.1,3.3-0.1c2.2,0,3.7,0.3,4.8,1.1c1.2,0.9,1.7,2.1,1.7,3.5c0,2-1,3.5-2.3,4.4c-1.1,0.7-2.5,1-4,1       c-1,0-1.7-0.1-2.1-0.1c0,1.7,0,4.1,0,5.4c0,0.2,0.1,0.3,0.3,0.3c0.6,0.1,1.4,0.2,2,0.3c0,0.3-0.1,0.7-0.1,0.9l-0.1,0.1       c-0.7,0-2.2-0.1-3.3-0.1c-0.9,0-2,0-3,0.1C290.7,529.3,290.7,529,290.8,528.6z M299.9,520.5c0.6-0.7,1-1.7,1-3.1       c0-1.2-0.3-2.2-1-2.9c-0.7-0.7-1.8-0.9-3.2-0.9c-0.6,0-1.1,0.1-1.4,0.2c-0.2,0.1-0.3,0.2-0.3,0.5c0,1,0,2.2,0,3.6v3.4       c0.6,0.1,1.2,0.2,2,0.2C298.1,521.5,299.2,521.2,299.9,520.5z"></path>
				</g>
				<g>
					<path class="st10" d="M305.4,528.7L305.4,528.7c0.5-0.2,0.9-0.3,1.3-0.4c0.2-0.1,0.2-0.2,0.2-0.6v-3.3c0-1.1,0-3-0.1-4.2       c0-0.2-0.1-0.3-0.3-0.3c-0.3-0.1-1-0.2-1.5-0.2c0-0.2,0-0.6,0.1-0.8l0.1-0.1c1-0.3,2.2-0.6,3.3-0.8l0.4,0.1l0.1,2.2h0.1       c1.8-1.7,2.8-2.3,3.7-2.3c0.7,0,1.1,0.3,1.1,1c0,0.5-0.2,1.2-0.6,1.8l-0.2,0c-0.5-0.4-1-0.7-1.6-0.7c-1.1,0-1.7,0.5-2.4,1.2       c0,1.3,0,2.1,0,3.1c0,1.3,0,2.4,0.1,3.3c0,0.3,0.1,0.4,0.3,0.5c0.8,0.1,1.5,0.2,1.9,0.3c0,0.4-0.1,0.7-0.2,1l-0.1,0.1       c-0.6,0-1.9-0.1-3-0.1c-1.2,0-2.1,0.1-2.8,0.1C305.2,529.2,305.3,528.9,305.4,528.7z"></path>
				</g>
				<g>
					<path class="st10" d="M314.9,524.1c0-3.6,2.5-6,5.9-6c3.2,0,5.3,2.1,5.3,5.6c0,3.8-2.4,6.2-5.5,6.2       C316.9,529.8,314.9,527.5,314.9,524.1z M323.8,524.1c0-3.3-1.3-4.8-3.1-4.8c-2.6,0-3.5,2.5-3.4,4.6c0,2.9,1.2,4.9,3.5,4.9       C323,528.7,323.8,526,323.8,524.1z"></path>
				</g>
				<g>
					<path class="st10" d="M328.6,529.4c-0.2-1.1-0.3-2.3-0.4-3.3l0.1-0.1c0.2-0.1,0.4-0.2,0.7-0.3c0.2,0.5,0.4,1,0.7,1.6       c0.5,0.9,1.5,1.5,2.6,1.5c1.2,0,2.1-0.6,2.1-1.6c0-1.3-1.2-1.7-2.8-2.4c-1.8-0.8-3.2-1.4-3.2-3.5c0-1.7,1.6-3.1,4.1-3.1       c0.9,0,1.9,0.2,2.5,0.2c0.2,0,0.5,0,0.6-0.1l0.2,0.1c0.1,0.9,0.1,2,0.1,2.9l0,0.1c-0.3,0.2-0.6,0.2-0.9,0.2       c-0.1-0.4-0.2-0.7-0.3-1c-0.4-1.1-1.1-1.4-2.2-1.4c-1.3,0-2,0.6-2,1.6c0,1.1,0.6,1.4,2.4,2.2c1.7,0.7,3.5,1.3,3.5,3.4       c0,1.9-1.7,3.4-4,3.4c-1,0-2.2-0.3-3.1-0.3h-0.4L328.6,529.4z"></path>
				</g>
				<g>
					<path class="st10" d="M337.9,535.5l0.1-0.1c0.3-0.1,0.8-0.2,1.3-0.3c0.2-0.1,0.2-0.2,0.2-0.6c0-1.9,0-3.6,0-7.1       c0-2.4,0-4.9,0-7.2c0-0.2-0.1-0.3-0.3-0.3c-0.4-0.1-1-0.2-1.5-0.2c0-0.2,0-0.6,0.1-0.8l0.1-0.1c1-0.3,2.2-0.6,3.3-0.8l0.4,0.1       l0.1,1.5h0.1c0.9-0.7,2.3-1.5,3.9-1.5c2.5,0,4.7,2.1,4.7,5.5c0,3.7-2.5,6.2-6,6.2c-1.2,0-2-0.2-2.5-0.3v2.8c0,0.9,0,1.5,0,2.2       c0,0.3,0.1,0.5,0.3,0.5c0.7,0.1,1.7,0.3,2.2,0.3c0,0.4-0.1,0.8-0.2,1l-0.1,0.1c-0.6-0.1-2.3-0.1-3.3-0.1c-1.2,0-2.2,0-2.9,0.1       C337.8,536,337.8,535.7,337.9,535.5z M348,524c0-3.1-1.7-4.4-3.6-4.4c-0.9,0-1.8,0.4-2.6,0.9c0,1.2,0,2.4,0,3.5       c0,1.2,0,2.4,0,3.8c0.7,0.5,1.6,0.9,2.7,0.9C346.6,528.7,348,526.7,348,524z"></path>
				</g>
				<g>
					<path class="st10" d="M352.4,524.1c0-3.4,2.3-6,5.6-6c2.6,0,4.1,1.7,4.1,3.8c0,0.5-0.1,1-0.2,1.3l-0.3,0.2l-7-0.2v0.4       c0,2.5,1.6,4.6,4.3,4.6c1.1,0,2.1-0.5,3-1.3c0.1,0.4,0.2,0.7,0.2,1l-0.1,0.2c-0.8,0.8-2.1,1.7-4.1,1.7       C354.4,529.8,352.4,527.5,352.4,524.1z M359.6,522.2c0.1-0.2,0.1-0.5,0.1-0.7c0-1.3-0.7-2.4-2.1-2.4c-1.8,0-2.7,1.4-3,3.1       H359.6z"></path>
				</g>
				<g>
					<path class="st10" d="M364.2,528.7l0.1-0.1c0.4-0.1,0.8-0.2,1.2-0.3c0.2-0.1,0.2-0.2,0.2-0.6v-3.3c0-1.1,0-3-0.1-4.2       c0-0.2-0.1-0.3-0.3-0.3c-0.3-0.1-1-0.2-1.5-0.2c0-0.2,0-0.6,0.1-0.8l0.1-0.1c1-0.3,2.2-0.6,3.3-0.8l0.4,0.1l0.1,2.2h0.1       c1.8-1.7,2.8-2.3,3.7-2.3c0.7,0,1.1,0.3,1.1,1c0,0.5-0.2,1.2-0.6,1.8l-0.2,0c-0.5-0.4-1-0.7-1.6-0.7c-1.1,0-1.7,0.5-2.4,1.2       c0,1.3,0,2.1,0,3.1c0,1.3,0,2.4,0.1,3.3c0,0.3,0.1,0.4,0.3,0.5c0.8,0.1,1.5,0.2,1.9,0.3c0,0.4-0.1,0.7-0.2,1l-0.1,0.1       c-0.6,0-1.9-0.1-3-0.1c-1.2,0-2.1,0.1-2.8,0.1C364.1,529.2,364.1,528.9,364.2,528.7z"></path>
				</g>
				<g>
					<path class="st10" d="M374.3,528.7L374.3,528.7l1.2-0.4c0.2-0.1,0.3-0.1,0.3-0.4c0-1.3,0-2.9,0-4.2c0-1.3,0-2.3,0-3.4       c0-0.3-0.1-0.3-0.3-0.4c-0.4-0.1-1-0.2-1.5-0.2c0-0.3,0-0.6,0.1-0.8l0.1-0.1c1-0.3,2.4-0.6,3.6-0.8l0.3,0.1c0,1.9,0,4,0,5.6       c0,1.5,0,3,0,4.2c0,0.2,0.1,0.3,0.3,0.4c0.4,0.1,1,0.2,1.3,0.3c0,0.3-0.1,0.7-0.2,0.9l-0.1,0.1c-0.7,0-1.7-0.1-2.4-0.1       c-0.9,0-2,0.1-2.8,0.1C374.2,529.2,374.3,528.9,374.3,528.7z M375.5,513.7c0-0.9,0.6-1.5,1.4-1.5c0.8,0,1.3,0.6,1.3,1.5       c0,0.9-0.6,1.5-1.4,1.5C376.1,515.2,375.5,514.7,375.5,513.7z"></path>
				</g>
				<g>
					<path class="st10" d="M382.5,526.7c0-1.9,0-4.3,0.1-6.6c0-0.2-0.1-0.3-0.3-0.3c-0.5,0-1.3,0-1.8,0c0-0.3,0-0.7,0.1-1l0.1-0.1       c0.3-0.1,1.2-0.2,1.6-0.3c0.2-0.1,0.3-0.1,0.4-0.4c0.2-0.7,0.4-1.7,0.6-2.6l0.1-0.1h1.3c0,1.1,0,2.3,0,3.1       c0.3-0.1,0.7-0.1,0.9-0.1h2.9c-0.1,0.5-0.1,1-0.3,1.3l-0.2,0.1l-3.4-0.1c-0.1,2.2-0.1,4.7-0.1,6.8c0,1.4,0.4,1.9,1.7,1.9       c0.6,0,1.4-0.2,2.2-0.5c0,0.3,0,0.7-0.1,1l-0.1,0.1c-1,0.4-1.9,0.7-2.9,0.7C383.3,529.8,382.5,529,382.5,526.7z"></path>
				</g>
				<g>
					<path class="st10" d="M390.5,536v-0.4c1.9-1,3.4-2.7,4.7-5.4l0.3-0.6c-0.2,0-0.5,0-0.8-0.1l-0.2-0.1l-3.5-8.8       c-0.3-0.7-0.5-0.9-0.8-1c-0.2-0.1-0.6-0.1-0.9-0.2c0-0.3,0-0.6,0.1-0.9l0.1-0.1c0.7,0.1,1.8,0.1,2.5,0.1c0.9,0,2.2,0,2.9-0.1       c0,0.3,0,0.6-0.1,0.9l-0.1,0.1c-0.4,0.1-0.9,0.1-1.2,0.2c-0.3,0.1-0.4,0.2-0.4,0.4c0,0.4,0.4,1.3,0.8,2.2l1.2,3.3       c0.3,0.8,0.7,1.8,0.9,2.4h0l1.8-4.7c0.6-1.6,0.9-2.6,0.9-3c0-0.3-0.1-0.5-0.5-0.6c-0.4-0.1-0.8-0.2-1.2-0.2       c0-0.3,0-0.6,0.1-0.9l0.1-0.1c0.7,0,1.6,0,2.4,0c0.8,0,1.9,0,2.3,0c0,0.4,0,0.7-0.1,1l-0.1,0.1c-0.2,0-0.6,0.1-0.7,0.2       c-0.3,0.1-0.6,0.4-1,1.3l-3.3,8c-1,2.3-2,4.6-2.8,6.3c-0.6,1.2-1,1.4-1.7,1.4C391.8,536.6,391,536.3,390.5,536z"></path>
				</g>
			</g>
			
				<use xlink:href="#Nuovo_simbolo_2" width="100" height="100" id="XMLID_5_" x="-50" y="-50" transform="matrix(0.7137 0 0 -0.7137 776.361 353.3127)" style="overflow:visible;"></use>
			
				<use xlink:href="#Nuovo_simbolo_2" width="100" height="100" id="XMLID_4_" x="-50" y="-50" transform="matrix(0.7137 0 0 -0.7137 909.6425 590.6826)" style="overflow:visible;"></use>
			<g>
				<circle class="st0" cx="636.4" cy="582.8" r="35.7"></circle>
				<g>
					<path class="st1" d="M636.4,596.4c-7.5,0-13.5-6.1-13.5-13.5c0-7.5,6.1-13.5,13.5-13.5c7.5,0,13.5,6.1,13.5,13.5       C649.9,590.3,643.8,596.4,636.4,596.4z M636.4,570c-7.1,0-12.8,5.8-12.8,12.8c0,7.1,5.8,12.8,12.8,12.8       c7.1,0,12.8-5.8,12.8-12.8C649.2,575.7,643.4,570,636.4,570z"></path>
				</g>
				<g>
					<circle class="st1" cx="636.4" cy="582.8" r="6.7"></circle>
				</g>
			</g>
			
				<use xlink:href="#Nuovo_simbolo_2" width="100" height="100" id="XMLID_3_" x="-50" y="-50" transform="matrix(0.7137 0 0 -0.7137 485.9671 432.3399)" style="overflow:visible;"></use>
			
				<use xlink:href="#Nuovo_simbolo_2" width="100" height="100" id="XMLID_2_" x="-50" y="-50" transform="matrix(0.7137 0 0 -0.7137 212.7516 424.5188)" style="overflow:visible;"></use>
			
				<use xlink:href="#Nuovo_simbolo_2" width="100" height="100" id="XMLID_1_" x="-50" y="-50" transform="matrix(0.7137 0 0 -0.7137 345.4426 662.3066)" style="overflow:visible;"></use>
			<g>
				<g>
					<path class="st11" d="M379.7,429.5c10.2,4.2,19.7,10.4,27.9,18.7c33.6,33.6,33.6,88.2,0,121.8c-5.5,5.5-11.5,10.1-17.9,13.8"></path>
					<g>
						<polygon class="st0" points="388.3,576.4 380.6,588.3 394.8,589       "></polygon>
					</g>
				</g>
			</g>
			<g>
				<g>
					<path class="st11" d="M310.9,587.4c-9.1-4.2-17.6-10-25-17.4c-33.6-33.6-33.6-88.2,0-121.8c5.2-5.2,10.8-9.5,16.8-13.1"></path>
					<g>
						<polygon class="st0" points="304.2,442.4 311.7,430.3 297.5,429.8       "></polygon>
					</g>
				</g>
			</g>
			<g>
				<g>
					<path class="st11" d="M814.9,429.5c10.2,4.2,19.7,10.4,27.9,18.7c33.6,33.6,33.6,88.2,0,121.8c-5.5,5.5-11.5,10.1-17.9,13.8"></path>
					<g>
						<polygon class="st0" points="823.5,576.4 815.7,588.3 829.9,589       "></polygon>
					</g>
				</g>
			</g>
			<g>
				<g>
					<path class="st11" d="M746,587.4c-9.1-4.2-17.6-10-25-17.4c-33.6-33.6-33.6-88.2,0-121.8c5.2-5.2,10.8-9.5,16.8-13.1"></path>
					<g>
						<polygon class="st0" points="739.4,442.4 746.9,430.3 732.7,429.8       "></polygon>
					</g>
				</g>
			</g>
		</g>
		<path class="st12" d="M772.3,894.7c-48.3,0-95.5-9.5-140.3-28.3c-25.7-10.8-49.9-24.3-72.4-40.5c-22.5,16.2-46.7,29.7-72.4,40.5    c-44.7,18.8-91.9,28.3-140.3,28.3c-48.3,0-95.5-9.5-140.3-28.3c-46.4-19.5-88-48-123.5-84.8S20.1,701.9,1.3,653.9    c-18.1-46.3-27.3-95.1-27.3-145.1s9.2-98.8,27.3-145.1c18.8-48,46.4-91,81.9-127.8c35.5-36.8,77.1-65.3,123.5-84.8    c44.7-18.8,91.9-28.3,140.3-28.3c48.3,0,95.5,9.5,140.3,28.3c25.7,10.8,49.9,24.3,72.4,40.5c22.5-16.2,46.7-29.7,72.4-40.5    c44.7-18.8,91.9-28.3,140.3-28.3c48.3,0,95.5,9.5,140.3,28.3c46.4,19.5,88,48,123.5,84.8c35.5,36.8,63.1,79.8,81.9,127.8    c18.1,46.3,27.3,95.1,27.3,145.1s-9.2,98.8-27.3,145.1c-18.8,48-46.4,91-81.9,127.8c-35.5,36.8-77.1,65.3-123.5,84.8    C867.8,885.2,820.6,894.7,772.3,894.7z"></path>
		<path class="st13" d="M785.3,832.8c-40.6,0-80.2-8-117.8-23.7c-39-16.3-73.8-40.3-103.7-71.2l-4.2-4.4l-4.2,4.4    c-29.9,30.9-64.7,54.8-103.7,71.2c-37.5,15.7-77.2,23.7-117.8,23.7c-40.6,0-80.2-8-117.8-23.7c-39-16.3-73.8-40.3-103.7-71.2    c-29.9-30.9-53-67-68.8-107.3c-15.2-38.8-22.9-79.8-22.9-121.8s7.7-83,22.9-121.8c15.8-40.3,38.9-76.4,68.8-107.3    c29.9-30.9,64.7-54.8,103.7-71.2c37.5-15.8,77.2-23.7,117.8-23.7c40.6,0,80.2,8,117.8,23.7c39,16.3,73.8,40.3,103.7,71.2l4.2,4.4    l4.2-4.4c29.9-30.9,64.7-54.8,103.7-71.2c37.5-15.8,77.2-23.7,117.8-23.7c40.6,0,80.2,8,117.8,23.7c39,16.3,73.8,40.3,103.7,71.2    c29.9,30.9,53,67,68.8,107.3c15.2,38.8,22.9,79.8,22.9,121.8s-7.7,83-22.9,121.8c-15.8,40.3-38.9,76.4-68.8,107.3    c-29.9,30.9-64.7,54.8-103.7,71.2C865.6,824.8,825.9,832.8,785.3,832.8z"></path>
		<path class="st14" d="M787.3,785.4c-68.5,0-132.8-28.8-181.3-81l-46.4-50.1l-46.4,50.1c-48.4,52.3-112.8,81-181.3,81    c-68.5,0-132.8-28.8-181.3-81c-48.4-52.3-75.1-121.7-75.1-195.6s26.7-143.4,75.1-195.6c48.4-52.3,112.8-81,181.3-81    c68.5,0,132.8,28.8,181.3,81l46.4,50.1l46.4-50.1c48.4-52.3,112.8-81,181.3-81c68.5,0,132.8,28.8,181.3,81    c48.4,52.3,75.1,121.7,75.1,195.6s-26.7,143.4-75.1,195.6C920.1,756.6,855.8,785.4,787.3,785.4z"></path>
		<path class="st15" d="M338.9,729.9c-54.8,0-109.5-21.6-151.2-64.7c-40.4-41.8-62.6-97.3-62.6-156.4s22.2-114.6,62.6-156.4    c40.4-41.8,94.1-64.8,151.2-64.8c57.1,0,110.8,23,151.2,64.8l69.5,71.9l69.5-71.9c83.4-86.3,219.1-86.3,302.4,0    c40.4,41.8,62.6,97.3,62.6,156.4S972,623.4,931.6,665.2c-83.4,86.3-219.1,86.3-302.4,0l-69.5-71.9l-69.5,71.9    C448.4,708.4,393.7,729.9,338.9,729.9z"></path>
		<path class="st16" d="M772.7,1038.2c-67,0-132.4-13.2-194.4-39.2c-6.3-2.6-12.5-5.4-18.7-8.3c-6.2,2.9-12.4,5.6-18.7,8.3    c-62,26-127.4,39.2-194.4,39.2c-67,0-132.4-13.2-194.4-39.2C88,972.1,30.6,932.8-18.3,882.1c-48.8-50.4-86.6-109.4-112.4-175.2    C-155.5,643.7-168,577-168,508.8c0-68.2,12.6-134.9,37.3-198.1c25.8-65.8,63.6-124.8,112.4-175.2c49-50.7,106.3-90,170.5-116.9    c62-26,127.4-39.2,194.4-39.2S479-7.4,541,18.6c6.3,2.6,12.5,5.4,18.7,8.3c6.2-2.9,12.4-5.6,18.7-8.3c62-26,127.4-39.2,194.4-39.2    S905.1-7.4,967.1,18.6c64.2,26.9,121.5,66.2,170.5,116.9c48.8,50.4,86.6,109.4,112.4,175.2c24.8,63.2,37.3,129.9,37.3,198.1    c0,68.2-12.6,134.9-37.3,198.1c-25.8,65.8-63.6,124.8-112.4,175.2c-49,50.7-106.3,90-170.5,116.9    C905.1,1025,839.7,1038.2,772.7,1038.2z"></path>
		<path class="st17" d="M772.7,953.2c-55.7,0-110-11-161.5-32.6c-17.8-7.5-35-16.1-51.6-25.9c-16.5,9.8-33.7,18.4-51.6,25.9    c-51.5,21.6-105.8,32.6-161.5,32.6c-55.7,0-110-11-161.5-32.6C131.6,898.2,83.7,865.3,42.8,823c-40.9-42.3-72.7-91.8-94.3-147.1    C-72.4,622.6-83,566.4-83,508.8c0-57.6,10.6-113.8,31.5-167.1c21.7-55.3,53.4-104.8,94.3-147.1c40.9-42.3,88.8-75.2,142.2-97.6    c51.5-21.6,105.8-32.6,161.5-32.6c55.7,0,110,11,161.5,32.6c17.8,7.5,35,16.1,51.6,25.9c16.5-9.8,33.7-18.4,51.6-25.9    C662.7,75.4,717,64.4,772.7,64.4c55.7,0,110,11,161.5,32.6c53.5,22.4,101.3,55.3,142.2,97.6c40.9,42.3,72.7,91.8,94.3,147.1    c20.9,53.3,31.5,109.5,31.5,167.1c0,57.6-10.6,113.8-31.5,167.1c-21.7,55.3-53.4,104.8-94.3,147.1    c-40.9,42.3-88.8,75.2-142.2,97.6C882.7,942.2,828.4,953.2,772.7,953.2z"></path>
	</g>
</g>
</svg>
