<?xml version="1.0" encoding="UTF-8"?>
<!-- Generator: Adobe Illustrator 24.0.0, SVG Export Plug-In . SVG Version: 6.00 Build 0)  -->
<svg xmlns="http://www.w3.org/2000/svg" xmlns:xlink="http://www.w3.org/1999/xlink" version="1.1" id="Layer_1" x="0px" y="0px" viewBox="0 0 1122.9 841.9" style="enable-background:new 0 0 1122.9 841.9;" xml:space="preserve">
<style type="text/css">
	.st0{fill:#4663AC;}
	.st1{fill:#A2B1D7;}
	.st2{fill:#F6F4EE;}
	.st3{fill:none;stroke:#FCFBF8;stroke-width:2.1566;stroke-linejoin:round;stroke-miterlimit:10;}
	.st4{fill:none;}
	.st5{clip-path:url(#SVGID_2_);}
	.st6{fill:none;stroke:#A2B1D7;stroke-width:0.7112;stroke-miterlimit:10;}
	.st7{fill:#2C2439;}
	.st8{fill:none;stroke:#4663AC;stroke-width:2.8547;stroke-linecap:round;stroke-miterlimit:10;}
	.st9{fill:none;stroke:#FCFBF8;stroke-width:9.9872;stroke-miterlimit:10;}
	.st10{fill:none;stroke:#FCFBF8;stroke-width:21.2003;stroke-miterlimit:10;}
	.st11{fill:none;stroke:#FCFBF8;stroke-width:29.4871;stroke-miterlimit:10;}
	.st12{fill:none;stroke:#FCFBF8;stroke-width:31.1;stroke-miterlimit:10;}
	.st13{fill:none;stroke:#FCFBF8;stroke-width:2;stroke-miterlimit:10;}
	.st14{fill:none;stroke:#FCFBF8;stroke-width:5.0035;stroke-miterlimit:10;}
	.st15{fill:none;stroke:#4663AC;stroke-width:2.1976;stroke-miterlimit:10;}
	.st16{fill:#4663AC;stroke:#4663AC;stroke-width:1.3699;stroke-miterlimit:10;}
	.st17{fill:none;stroke:#4663AC;stroke-width:4.3952;stroke-linecap:round;stroke-miterlimit:10;}
	.st18{fill:none;stroke:#4663AC;stroke-width:4.3952;stroke-linecap:round;stroke-miterlimit:10;stroke-dasharray:0,14.8125;}
	.st19{fill:none;stroke:#4663AC;stroke-width:4.3952;stroke-linecap:round;stroke-miterlimit:10;stroke-dasharray:0,14.2094;}
	.st20{fill:none;stroke:#4663AC;stroke-width:4.3952;stroke-linecap:round;stroke-miterlimit:10;stroke-dasharray:0,15.8242;}
	.st21{fill:none;stroke:#4663AC;stroke-width:4.3952;stroke-linecap:round;stroke-miterlimit:10;stroke-dasharray:0,15.0428;}
	.st22{fill:none;stroke:#4663AC;stroke-width:4.3952;stroke-linecap:round;stroke-miterlimit:10;stroke-dasharray:0,14.2038;}
	.st23{fill:none;stroke:#4663AC;stroke-width:4.3952;stroke-linecap:round;stroke-miterlimit:10;stroke-dasharray:0,14.5285;}
	.st24{fill:none;stroke:#4663AC;stroke-width:4.3952;stroke-linecap:round;stroke-miterlimit:10;stroke-dasharray:0,13.982;}
	.st25{fill:none;stroke:#4663AC;stroke-width:4.3952;stroke-linecap:round;stroke-miterlimit:10;stroke-dasharray:0,14.4978;}
	.st26{fill:none;stroke:#4663AC;stroke-width:4.3952;stroke-linecap:round;stroke-miterlimit:10;stroke-dasharray:0,13.3305;}
	.st27{fill:none;stroke:#4663AC;stroke-width:4.3952;stroke-linecap:round;stroke-miterlimit:10;stroke-dasharray:0,13.2647;}
	.st28{fill:none;stroke:#4663AC;stroke-width:4.3952;stroke-linecap:round;stroke-miterlimit:10;stroke-dasharray:0,13.572;}
	.st29{fill:none;stroke:#4663AC;stroke-width:4.3952;stroke-linecap:round;stroke-miterlimit:10;stroke-dasharray:0,8.8118;}
	.st30{fill:none;stroke:#4663AC;stroke-width:4.3952;stroke-linecap:round;stroke-miterlimit:10;stroke-dasharray:0,15.5518;}
	.st31{fill:none;stroke:#4663AC;stroke-width:4.3952;stroke-linecap:round;stroke-miterlimit:10;stroke-dasharray:0,15.3878;}
	.st32{fill:none;stroke:#4663AC;stroke-width:4.3952;stroke-linecap:round;stroke-miterlimit:10;stroke-dasharray:0,15.0419;}
	.st33{fill:none;stroke:#4663AC;stroke-width:4.3952;stroke-linecap:round;stroke-miterlimit:10;stroke-dasharray:0,15.1771;}
	.st34{fill:none;stroke:#4663AC;stroke-width:4.3952;stroke-linecap:round;stroke-miterlimit:10;stroke-dasharray:0,15.701;}
	.st35{fill:none;stroke:#4663AC;stroke-width:4.3952;stroke-linecap:round;stroke-miterlimit:10;stroke-dasharray:0,18.3713;}
	.st36{fill:none;stroke:#4663AC;stroke-width:4.3952;stroke-linecap:round;stroke-miterlimit:10;stroke-dasharray:0,17.6405;}
	.st37{fill:none;stroke:#4663AC;stroke-width:4.3952;stroke-linecap:round;stroke-miterlimit:10;stroke-dasharray:0,10.886;}
	.st38{fill:none;stroke:#4663AC;stroke-width:4.3952;stroke-linecap:round;stroke-miterlimit:10;stroke-dasharray:0,9.1732;}
	.st39{fill:none;stroke:#4663AC;stroke-width:4.3952;stroke-linecap:round;stroke-miterlimit:10;stroke-dasharray:0,10.7954;}
	.st40{fill:none;stroke:#4663AC;stroke-width:4.3952;stroke-linecap:round;stroke-miterlimit:10;stroke-dasharray:0,15.4891;}
	.st41{fill:none;stroke:#4663AC;stroke-width:4.3952;stroke-linecap:round;stroke-miterlimit:10;stroke-dasharray:0,14.2178;}
	.st42{fill:none;stroke:#4663AC;stroke-width:4.3952;stroke-linecap:round;stroke-miterlimit:10;stroke-dasharray:0,14.2377;}
	.st43{fill:none;stroke:#4663AC;stroke-width:4.3952;stroke-linecap:round;stroke-miterlimit:10;stroke-dasharray:0,13.9503;}
	.st44{fill:none;stroke:#4663AC;stroke-width:4.3952;stroke-linecap:round;stroke-miterlimit:10;stroke-dasharray:0,15.2085;}
	.st45{fill:none;stroke:#4663AC;stroke-width:4.3952;stroke-linecap:round;stroke-miterlimit:10;stroke-dasharray:0,16.2504;}
	.st46{fill:none;stroke:#4663AC;stroke-width:4.3952;stroke-linecap:round;stroke-miterlimit:10;stroke-dasharray:0,16.659;}
	.st47{fill:none;stroke:#4663AC;stroke-width:4.3952;stroke-linecap:round;stroke-miterlimit:10;stroke-dasharray:0,10.2295;}
	.st48{fill:none;stroke:#4663AC;stroke-width:4.3952;stroke-linecap:round;stroke-miterlimit:10;stroke-dasharray:0,8.62;}
	.st49{fill:none;stroke:#4663AC;stroke-width:4.3952;stroke-linecap:round;stroke-miterlimit:10;stroke-dasharray:0,10.1444;}
	.st50{fill:none;stroke:#4663AC;stroke-width:4.3952;stroke-linecap:round;stroke-miterlimit:10;stroke-dasharray:0,14.4228;}
	.st51{fill:none;stroke:#4663AC;stroke-width:4.3952;stroke-linecap:round;stroke-miterlimit:10;stroke-dasharray:0,15.5133;}
	.st52{fill:none;stroke:#4663AC;stroke-width:4.3952;stroke-linecap:round;stroke-miterlimit:10;stroke-dasharray:0,15.1628;}
	.st53{fill:none;stroke:#4663AC;stroke-width:4.3952;stroke-linecap:round;stroke-miterlimit:10;stroke-dasharray:0,14.8663;}
	.st54{fill:none;stroke:#4663AC;stroke-width:4.3952;stroke-linecap:round;stroke-miterlimit:10;stroke-dasharray:0,16.1639;}
	.st55{fill:none;stroke:#4663AC;stroke-width:4.3952;stroke-linecap:round;stroke-miterlimit:10;stroke-dasharray:0,17.2933;}
	.st56{fill:none;stroke:#4663AC;stroke-width:4.3952;stroke-linecap:round;stroke-miterlimit:10;stroke-dasharray:0,17.7281;}
	.st57{fill:none;stroke:#4663AC;stroke-width:4.3952;stroke-linecap:round;stroke-miterlimit:10;stroke-dasharray:0,10.2151;}
	.st58{fill:none;stroke:#4663AC;stroke-width:4.3952;stroke-linecap:round;stroke-miterlimit:10;stroke-dasharray:0,10.9628;}
	.st59{fill:none;stroke:#4663AC;stroke-width:4.3952;stroke-linecap:round;stroke-miterlimit:10;stroke-dasharray:0,16.0609;}
	.st60{fill:none;stroke:#4663AC;stroke-width:4.3952;stroke-linecap:round;stroke-miterlimit:10;stroke-dasharray:0,15.1908;}
	.st61{fill:none;stroke:#4663AC;stroke-width:4.3952;stroke-linecap:round;stroke-miterlimit:10;stroke-dasharray:0,14.2605;}
	.st62{fill:none;stroke:#4663AC;stroke-width:4.3952;stroke-linecap:round;stroke-miterlimit:10;stroke-dasharray:0,14.457;}
	.st63{fill:none;stroke:#4663AC;stroke-width:4.3952;stroke-linecap:round;stroke-miterlimit:10;stroke-dasharray:0,14.0484;}
	.st64{fill:none;stroke:#4663AC;stroke-width:4.3952;stroke-linecap:round;stroke-miterlimit:10;stroke-dasharray:0,14.5917;}
	.st65{fill:none;stroke:#4663AC;stroke-width:4.3952;stroke-linecap:round;stroke-miterlimit:10;stroke-dasharray:0,13.3536;}
	.st66{fill:none;stroke:#4663AC;stroke-width:4.3952;stroke-linecap:round;stroke-miterlimit:10;stroke-dasharray:0,13.0398;}
	.st67{fill:none;stroke:#4663AC;stroke-width:4.3952;stroke-linecap:round;stroke-miterlimit:10;stroke-dasharray:0,13.2426;}
	.st68{fill:none;stroke:#4663AC;stroke-width:4.3952;stroke-linecap:round;stroke-miterlimit:10;stroke-dasharray:0,15.6667;}
	.st69{fill:none;stroke:#4663AC;stroke-width:4.3952;stroke-linecap:round;stroke-miterlimit:10;stroke-dasharray:0,15.2215;}
	.st70{fill:none;stroke:#4663AC;stroke-width:4.3952;stroke-linecap:round;stroke-miterlimit:10;stroke-dasharray:0,14.0428;}
	.st71{fill:none;stroke:#4663AC;stroke-width:4.3952;stroke-linecap:round;stroke-miterlimit:10;stroke-dasharray:0,13.1852;}
	.st72{fill:none;stroke:#4663AC;stroke-width:4.3952;stroke-linecap:round;stroke-miterlimit:10;stroke-dasharray:0,15.4626;}
	.st73{fill:none;stroke:#4663AC;stroke-width:4.3952;stroke-linecap:round;stroke-miterlimit:10;stroke-dasharray:0,14.1556;}
	.st74{fill:none;stroke:#4663AC;stroke-width:4.3952;stroke-linecap:round;stroke-miterlimit:10;stroke-dasharray:0,15.9719;}
	.st75{fill:none;stroke:#4663AC;stroke-width:4.3952;stroke-linecap:round;stroke-miterlimit:10;stroke-dasharray:0,15.2432;}
	.st76{fill:none;stroke:#4663AC;stroke-width:4.3952;stroke-linecap:round;stroke-miterlimit:10;stroke-dasharray:0,15.1459;}
	.st77{fill:none;stroke:#4663AC;stroke-width:4.3952;stroke-linecap:round;stroke-miterlimit:10;stroke-dasharray:0,16.2512;}
	.st78{fill:none;stroke:#4663AC;stroke-width:4.3952;stroke-linecap:round;stroke-miterlimit:10;stroke-dasharray:0,14.7663;}
	.st79{fill:none;stroke:#4663AC;stroke-width:4.3952;stroke-linecap:round;stroke-miterlimit:10;stroke-dasharray:0,15.6185;}
	.st80{fill:none;stroke:#4663AC;stroke-width:4.3952;stroke-linecap:round;stroke-miterlimit:10;stroke-dasharray:0,14.7936;}
	.st81{fill:none;stroke:#4663AC;stroke-width:4.3952;stroke-linecap:round;stroke-miterlimit:10;stroke-dasharray:0,16.4063;}
	.st82{fill:none;stroke:#4663AC;stroke-width:4.3952;stroke-linecap:round;stroke-miterlimit:10;stroke-dasharray:0,14.7643;}
	.st83{fill:none;stroke:#4663AC;stroke-width:4.3952;stroke-linecap:round;stroke-miterlimit:10;stroke-dasharray:0,16.2881;}
	.st84{fill:none;stroke:#4663AC;stroke-width:4.3952;stroke-linecap:round;stroke-miterlimit:10;stroke-dasharray:0,13.4533;}
	.st85{fill:none;stroke:#4663AC;stroke-width:4.3952;stroke-linecap:round;stroke-miterlimit:10;stroke-dasharray:0,13.3674;}
	.st86{fill:none;stroke:#4663AC;stroke-width:4.3952;stroke-linecap:round;stroke-miterlimit:10;stroke-dasharray:0,13.1113;}
	.st87{fill:none;stroke:#4663AC;stroke-width:4.3952;stroke-linecap:round;stroke-miterlimit:10;stroke-dasharray:0,13.7907;}
	.st88{fill:none;stroke:#4663AC;stroke-width:4.3952;stroke-linecap:round;stroke-miterlimit:10;stroke-dasharray:0,16.4;}
	.st89{fill:none;stroke:#4663AC;stroke-width:4.3952;stroke-linecap:round;stroke-miterlimit:10;stroke-dasharray:0,15.0519;}
	.st90{fill:none;stroke:#4663AC;stroke-width:4.3952;stroke-linecap:round;stroke-miterlimit:10;stroke-dasharray:0,14.0979;}
	.st91{fill:none;stroke:#4663AC;stroke-width:4.3952;stroke-linecap:round;stroke-miterlimit:10;stroke-dasharray:0,13.4565;}
	.st92{fill:none;stroke:#4663AC;stroke-width:4.3952;stroke-linecap:round;stroke-miterlimit:10;stroke-dasharray:0,16.7129;}
	.st93{fill:none;stroke:#4663AC;stroke-width:4.3952;stroke-linecap:round;stroke-miterlimit:10;stroke-dasharray:0,17.1772;}
	.st94{fill:none;stroke:#4663AC;stroke-width:4.3952;stroke-linecap:round;stroke-miterlimit:10;stroke-dasharray:0,17.3739;}
	.st95{fill:none;stroke:#4663AC;stroke-width:4.3952;stroke-linecap:round;stroke-miterlimit:10;stroke-dasharray:0,14.3986;}
	.st96{fill:none;stroke:#4663AC;stroke-width:4.3952;stroke-linecap:round;stroke-miterlimit:10;stroke-dasharray:0,11.9162;}
	.st97{fill:none;stroke:#4663AC;stroke-width:4.3952;stroke-linecap:round;stroke-miterlimit:10;stroke-dasharray:0,11.8421;}
	.st98{fill:none;stroke:#4663AC;stroke-width:4.3952;stroke-linecap:round;stroke-miterlimit:10;stroke-dasharray:0,12.0233;}
	.st99{fill:none;stroke:#4663AC;stroke-width:4.3952;stroke-linecap:round;stroke-miterlimit:10;stroke-dasharray:0,13.4401;}
	.st100{fill:none;stroke:#4663AC;stroke-width:4.3952;stroke-linecap:round;stroke-miterlimit:10;stroke-dasharray:0,14.9967;}
	.st101{fill:none;stroke:#4663AC;stroke-width:4.3952;stroke-linecap:round;stroke-miterlimit:10;stroke-dasharray:0,18.6832;}
	.st102{fill:none;stroke:#4663AC;stroke-width:4.3952;stroke-linecap:round;stroke-miterlimit:10;stroke-dasharray:0,15.9743;}
	.st103{fill:none;stroke:#4663AC;stroke-width:4.3952;stroke-linecap:round;stroke-miterlimit:10;stroke-dasharray:0,14.2544;}
	.st104{fill:none;stroke:#4663AC;stroke-width:4.3952;stroke-linecap:round;stroke-miterlimit:10;stroke-dasharray:0,16.8027;}
	.st105{fill:none;stroke:#FCFBF8;stroke-width:1.5015;stroke-miterlimit:10;}
	.st106{fill:none;stroke:#4663AC;stroke-width:3.003;stroke-linecap:round;stroke-miterlimit:10;}
	.st107{fill:none;stroke:#4663AC;stroke-width:3.003;stroke-linecap:round;stroke-miterlimit:10;stroke-dasharray:0,19.587;}
	.st108{fill:none;stroke:#4663AC;stroke-width:1.5015;stroke-miterlimit:10;}
	.st109{fill:none;stroke:#4663AC;stroke-width:3.003;stroke-linecap:round;stroke-miterlimit:10;stroke-dasharray:0,10.7566;}
	.st110{fill:none;stroke:#4663AC;stroke-width:3.003;stroke-linecap:round;stroke-miterlimit:10;stroke-dasharray:0,21.3591;}
	.st111{fill:none;stroke:#4663AC;stroke-width:3.003;stroke-linecap:round;stroke-miterlimit:10;stroke-dasharray:0,19.6884;}
	.st112{fill:none;stroke:#4663AC;stroke-width:3.003;stroke-linecap:round;stroke-miterlimit:10;stroke-dasharray:0,21.5341;}
	.st113{fill:none;stroke:#4663AC;stroke-width:3.003;stroke-linecap:round;stroke-miterlimit:10;stroke-dasharray:0,22.0004;}
	.st114{fill:none;stroke:#4663AC;stroke-width:3.003;stroke-linecap:round;stroke-miterlimit:10;stroke-dasharray:0,10.6467;}
	.st115{fill:none;stroke:#4663AC;stroke-width:3.003;stroke-linecap:round;stroke-miterlimit:10;stroke-dasharray:0,20.2889;}
	.st116{fill:none;stroke:#4663AC;stroke-width:3.003;stroke-linecap:round;stroke-miterlimit:10;stroke-dasharray:0,10.556;}
	.st117{fill:none;stroke:#4663AC;stroke-width:3.003;stroke-linecap:round;stroke-miterlimit:10;stroke-dasharray:0,10.2033;}
	.st118{fill:none;stroke:#4663AC;stroke-width:3.003;stroke-linecap:round;stroke-miterlimit:10;stroke-dasharray:0,19.9935;}
	.st119{fill:none;stroke:#4663AC;stroke-width:3.003;stroke-linecap:round;stroke-miterlimit:10;stroke-dasharray:0,10.7311;}
	.st120{fill:#4663AC;stroke:#4663AC;stroke-width:1.5015;stroke-miterlimit:10;}
</style>
<symbol id="Nuovo_simbolo_2" viewBox="-50 -50 100 100">
	<circle class="st0" cx="0" cy="0" r="50"></circle>
	<path class="st1" d="M0-19c-10.5,0-19,8.5-19,19s8.5,19,19,19c10.5,0,19-8.5,19-19S10.5-19,0-19z M0,18c-9.9,0-18-8.1-18-18   s8.1-18,18-18c9.9,0,18,8.1,18,18S9.9,18,0,18z"></path>
	<circle class="st1" cx="0" cy="0" r="9.3"></circle>
</symbol>
<rect x="0" y="0.2" class="st2" width="1122.9" height="841.9"></rect>
<rect x="0" class="st4" width="1122.9" height="841.9"></rect>
<g>
	<defs>
		<rect id="SVGID_1_" x="0" y="0.2" width="1122.9" height="841.9"></rect>
	</defs>
	<clipPath id="SVGID_2_">
		<use xlink:href="#SVGID_1_" style="overflow:visible;"></use>
	</clipPath>
	<g class="st5">
		<g>
			<g>
				<path class="st0" d="M779.5,639.9c-50.7,0-98.5-19.8-134.3-55.6l-83.9-83.9l-83.9,83.9c-35.9,35.9-83.6,55.6-134.3,55.6      s-98.5-19.8-134.3-55.6c-35.9-35.9-55.6-83.6-55.6-134.3c0-50.7,19.8-98.5,55.6-134.3c35.9-35.9,83.6-55.6,134.3-55.6      s98.5,19.8,134.3,55.6l83.9,83.9l83.9-83.9c35.9-35.9,83.6-55.6,134.3-55.6c50.7,0,98.5,19.8,134.3,55.6      c35.9,35.9,55.6,83.6,55.6,134.3c0,50.7-19.8,98.5-55.6,134.3C877.9,620.1,830.2,639.9,779.5,639.9z M611.7,449.9l83.9,83.9      c46.3,46.3,121.5,46.3,167.8,0c22.4-22.4,34.7-52.2,34.7-83.9c0-31.7-12.3-61.5-34.7-83.9c-22.4-22.4-52.2-34.7-83.9-34.7      S718,343.6,695.6,366L611.7,449.9z M343,331.2c-31.7,0-61.5,12.3-83.9,34.7c-22.4,22.4-34.7,52.2-34.7,83.9      c0,31.7,12.3,61.5,34.7,83.9c46.3,46.3,121.5,46.3,167.8,0l83.9-83.9L426.9,366C404.5,343.6,374.7,331.2,343,331.2z"></path>
			</g>
			<path class="st6" d="M561.7,492.9l-87.9,87.9c-72.3,72.3-189.6,72.3-261.9,0s-72.3-189.6,0-261.9s189.6-72.3,261.9,0l143.3,143.3     l75.1,75.1c48.3,48.3,126.5,48.3,174.8,0s48.3-126.5,0-174.8s-126.5-48.3-174.8,0l-87.4,87.4"></path>
			<path class="st6" d="M558.4,489.6l-87.9,87.9c-70.5,70.5-184.8,70.5-255.3,0s-70.5-184.8,0-255.3s184.8-70.5,255.3,0l143.3,143.3     l75.1,75.1c50.1,50.1,131.3,50.1,181.4,0s50.1-131.3,0-181.4s-131.3-50.1-181.4,0l-87.4,87.4"></path>
			<path class="st6" d="M555.1,486.3l-87.9,87.9c-68.7,68.7-180,68.7-248.6,0s-68.7-180,0-248.6s180-68.7,248.6,0l143.3,143.3     l75.1,75.1c51.9,51.9,136.1,51.9,188.1,0s51.9-136.1,0-188.1s-136.1-51.9-188.1,0l-87.4,87.4"></path>
			<path class="st6" d="M551.8,483l-87.9,87.8c-66.8,66.8-175.2,66.8-242,0s-66.8-175.2,0-242s175.2-66.8,242,0l143.3,143.3     l75.1,75.1c53.8,53.8,141,53.8,194.7,0s53.8-141,0-194.7s-141-53.8-194.7,0L594.9,440"></path>
			<path class="st6" d="M548.4,479.7l-87.8,87.8c-65,65-170.3,65-235.3,0s-65-170.3,0-235.3s170.3-65,235.3,0l143.3,143.3l75.2,75.1     c55.6,55.6,145.8,55.6,201.4,0c55.6-55.6,55.6-145.8,0-201.4c-55.6-55.6-145.8-55.6-201.4,0l-87.4,87.4"></path>
			<path class="st6" d="M545.1,476.4l-87.8,87.8c-63.1,63.1-165.5,63.1-228.7,0s-63.1-165.5,0-228.7s165.5-63.1,228.7,0l143.2,143.2     l75.2,75.1c57.4,57.4,150.6,57.4,208,0c57.4-57.4,57.4-150.6,0-208c-57.4-57.4-150.6-57.4-208,0l-87.5,87.5"></path>
			<path class="st6" d="M541.8,473.1L454,560.9c-61.3,61.3-160.7,61.3-222,0s-61.3-160.7,0-222s160.7-61.3,222,0l143.2,143.2     l75.2,75.2c59.3,59.3,155.4,59.3,214.7,0c59.3-59.3,59.3-155.4,0-214.7c-59.3-59.3-155.4-59.3-214.7,0L584.9,430"></path>
			<path class="st6" d="M538.5,469.7l-87.8,87.8c-59.5,59.5-155.9,59.5-215.3,0s-59.5-155.9,0-215.3s155.9-59.5,215.3,0l109.1,109.1     l34.1,34.1l75.2,75.2c61.1,61.1,160.2,61.1,221.3,0s61.1-160.2,0-221.3s-160.2-61.1-221.3,0l-87.5,87.5"></path>
			<path class="st6" d="M535.2,466.4l-87.8,87.8c-57.6,57.6-151.1,57.6-208.7,0c-57.6-57.6-57.6-151.1,0-208.7s151.1-57.6,208.7,0     l143.2,143.2l75.2,75.2c63,63,165,63,228,0s63-165,0-228s-165-63-228,0l-87.5,87.5"></path>
			<path class="st6" d="M531.9,463.1l-87.8,87.8c-55.8,55.8-146.2,55.8-202,0s-55.8-146.2,0-202s146.2-55.8,202,0L587.3,492     l75.2,75.2c64.8,64.8,169.8,64.8,234.6,0s64.8-169.8,0-234.6s-169.8-64.8-234.6,0L575,420.1"></path>
			<path class="st6" d="M528.6,459.8l-87.7,87.7c-53.9,53.9-141.4,53.9-195.4,0c-53.9-53.9-53.9-141.4,0-195.4s141.4-53.9,195.4,0     L584,495.3l75.2,75.2c66.6,66.6,174.6,66.6,241.3,0s66.6-174.6,0-241.3s-174.6-66.6-241.3,0l-87.5,87.5"></path>
			<path class="st6" d="M525.3,456.5l-87.7,87.7c-52.1,52.1-136.6,52.1-188.7,0s-52.1-136.6,0-188.7s136.6-52.1,188.7,0l143.1,143.1     l75.2,75.2c68.5,68.5,179.4,68.5,247.9,0s68.5-179.4,0-247.9s-179.4-68.5-247.9,0l-87.5,87.5"></path>
			<path class="st6" d="M521.9,453.2l-87.7,87.7c-50.3,50.3-131.8,50.3-182,0c-50.3-50.3-50.3-131.8,0-182s131.8-50.3,182,0     l143.1,143.1l75.2,75.2c70.3,70.3,184.3,70.3,254.6,0s70.3-184.3,0-254.6s-184.3-70.3-254.6,0l-87.5,87.5"></path>
			<path class="st6" d="M518.6,449.9l-87.7,87.7c-48.4,48.4-127,48.4-175.4,0s-48.4-127,0-175.4s127-48.4,175.4,0L574,505.3     l75.2,75.2c72.1,72.1,189.1,72.1,261.2,0s72.1-189.1,0-261.2s-189.1-72.1-261.2,0l-87.5,87.5"></path>
			<g>
				<path class="st7" d="M742.7,442.5c-0.3,0-0.6,0-0.8,0.1l-0.2-0.2c-0.3-1.3-0.6-3-0.8-4.6l0.1-0.1c0.2-0.1,0.5-0.3,0.9-0.3      c0.5,1.2,0.9,2.2,1.5,3c0.7,0.9,1.6,1.3,3.2,1.3c1.7,0,3.2-1.1,3.2-3c0-2-1-2.5-3.8-3.8c-3.1-1.4-4.7-2.5-4.7-5.1      c0-2.6,2.4-4.4,5.5-4.4c1.2,0,2.6,0.3,3.5,0.3c0.2,0,0.5,0,0.6-0.1l0.2,0.2c0.1,1.3,0.2,2.7,0.2,3.9l-0.1,0.1      c-0.2,0.1-0.5,0.2-0.9,0.2c-0.2-0.9-0.5-1.7-0.9-2.3c-0.6-0.7-1.6-1.2-2.9-1.2c-1.8,0-3.1,1-3.1,2.6c0,1.9,1.7,2.7,3.9,3.7      c2.7,1.2,4.6,2.3,4.6,4.9c0,2.9-2.1,5.1-5.6,5.1C745.3,442.9,743.8,442.5,742.7,442.5z"></path>
				<path class="st7" d="M754.3,437.1c0-3.6,2.5-6,5.9-6c3.2,0,5.3,2.1,5.3,5.6c0,3.8-2.4,6.2-5.5,6.2      C756.3,442.9,754.3,440.5,754.3,437.1z M763.1,437.1c0-3.3-1.3-4.8-3.1-4.8c-2.6,0-3.5,2.5-3.4,4.6c0,2.9,1.2,4.9,3.5,4.9      C762.4,441.7,763.1,439,763.1,437.1z"></path>
				<path class="st7" d="M767.5,437.1c0-3.5,2.5-6,6.1-6c2.2,0,3.6,0.9,3.6,1.9c0,0.7-0.5,1.3-1.3,1.8l-0.3,0      c-0.7-1.8-1.5-2.5-2.6-2.5c-2.1,0-3.5,1.8-3.5,4.3c0,2.8,1.8,4.7,4.1,4.7c1.4,0,2.5-0.6,3.3-1.5c0.1,0.4,0.1,0.7,0.1,1.1      l-0.1,0.2c-0.8,1-2.3,1.8-4,1.8C769.6,442.9,767.5,440.7,767.5,437.1z"></path>
				<path class="st7" d="M779.3,441.7L779.3,441.7l1.2-0.4c0.2-0.1,0.3-0.1,0.3-0.4c0-1.3,0-2.9,0-4.2c0-1.3,0-2.3,0-3.4      c0-0.3-0.1-0.3-0.3-0.4c-0.4-0.1-1-0.2-1.5-0.2c0-0.3,0-0.6,0.1-0.8l0.1-0.1c1-0.3,2.4-0.6,3.6-0.8l0.3,0.1c0,1.9,0,4,0,5.6      c0,1.5,0,3,0,4.2c0,0.3,0.1,0.3,0.3,0.4c0.4,0.1,1,0.2,1.3,0.3c0,0.3-0.1,0.7-0.2,0.9l-0.1,0.1c-0.7-0.1-1.7-0.1-2.4-0.1      c-0.9,0-2,0.1-2.8,0.1C779.2,442.3,779.3,441.9,779.3,441.7z M780.5,426.8c0-0.9,0.6-1.5,1.4-1.5c0.8,0,1.3,0.6,1.3,1.5      c0,0.9-0.6,1.5-1.4,1.5C781.1,428.3,780.5,427.7,780.5,426.8z"></path>
				<path class="st7" d="M786.3,437.1c0-3.4,2.3-6,5.6-6c2.6,0,4.1,1.7,4.1,3.8c0,0.5-0.1,1-0.2,1.3l-0.3,0.2l-7-0.2v0.4      c0,2.5,1.6,4.6,4.3,4.6c1.1,0,2.1-0.5,3-1.3c0.1,0.4,0.2,0.7,0.2,1l-0.1,0.2c-0.8,0.8-2.1,1.7-4.1,1.7      C788.3,442.9,786.3,440.6,786.3,437.1z M793.6,435.3c0.1-0.2,0.1-0.5,0.1-0.7c0-1.3-0.7-2.4-2.1-2.4c-1.8,0-2.7,1.4-3,3.1H793.6      z"></path>
				<path class="st7" d="M799.4,439.7c0-1.9,0-4.3,0.1-6.6c0-0.2-0.1-0.3-0.3-0.3c-0.5,0-1.3,0-1.8,0c0-0.3,0-0.7,0.1-1l0.1-0.1      c0.3-0.1,1.2-0.2,1.6-0.3c0.2-0.1,0.3-0.2,0.4-0.4c0.2-0.7,0.4-1.7,0.6-2.6l0.1-0.1h1.3c0,1.1,0,2.3,0,3.1      c0.3-0.1,0.7-0.1,0.9-0.1h2.9c-0.1,0.4-0.1,1-0.3,1.3l-0.2,0.1l-3.4,0c-0.1,2.2-0.1,4.7-0.1,6.8c0,1.4,0.4,1.9,1.7,1.9      c0.6,0,1.4-0.2,2.2-0.4c0,0.3,0,0.7-0.1,1l-0.1,0.1c-1,0.4-1.9,0.7-2.9,0.7C800.1,442.9,799.4,442,799.4,439.7z"></path>
				<path class="st7" d="M806.7,440.1c0-1.5,1.1-2.7,4-3.4c0.8-0.2,1.6-0.3,2.2-0.4l0-1.2c0-1.8-0.7-2.5-2.2-2.5      c-1.1,0-2.6,0.5-3.6,1.1c0-0.2-0.1-0.4-0.1-0.6c0-0.2,0-0.4,0.1-0.6l0.1-0.1c1.3-0.7,2.9-1.2,4.4-1.2c2.5,0,3.6,0.9,3.5,3.5      c0,1-0.1,3.6-0.1,5.5c0,0.8,0.3,1.2,0.8,1.2c0.5,0,1,0,1.4,0c0,0.3,0,0.7-0.1,0.9l-0.1,0.1c-0.5,0.3-1.2,0.5-1.9,0.5      c-1.3,0-1.9-0.7-2-1.7h-0.1c-0.8,0.9-2,1.7-3.3,1.7C808.1,442.9,806.7,442,806.7,440.1z M812.9,440.4c0.1-0.5,0.1-1.2,0.1-1.6      v-1.4c-0.5,0.1-1.3,0.3-1.8,0.4c-1.6,0.5-2.2,1.1-2.2,1.9c0,1,0.8,1.5,1.8,1.5C811.5,441.2,812.2,440.9,812.9,440.4z"></path>
				<path class="st7" d="M818.6,441.7L818.6,441.7c0.4-0.2,0.9-0.3,1.2-0.4c0.2-0.1,0.2-0.1,0.2-0.4c0-1.9,0-4.6,0-7.5      c0-2.7,0-4.7,0-6.7c0-0.3-0.2-0.4-0.3-0.4c-0.3-0.1-0.9-0.1-1.4-0.2c0-0.3,0-0.6,0.1-0.8l0.1-0.1c1.1-0.3,2.4-0.7,3.5-0.9      l0.4,0.1c-0.1,3.3-0.1,6-0.1,8.9c0,2.9,0,5.7,0,7.6c0,0.3,0.1,0.3,0.3,0.4c0.5,0.1,1,0.2,1.3,0.3c0,0.4-0.1,0.7-0.2,0.9      l-0.1,0.1c-0.7-0.1-1.8-0.1-2.5-0.1c-0.7,0-1.9,0.1-2.7,0.1C818.5,442.3,818.5,442,818.6,441.7z"></path>
				<path class="st7" d="M727.6,468.8l0.1-0.1c0.3-0.1,0.8-0.2,1.2-0.3c0.2-0.1,0.3-0.2,0.3-0.4c0-2,0-4.4,0-7.4c0-2.2,0-4.2,0-6.2      c0-0.3-0.1-0.4-0.3-0.4c-0.4-0.1-0.9-0.2-1.5-0.2c0-0.3,0.1-0.7,0.1-1l0.1-0.1c0.8,0,1.8,0.1,2.8,0.1c1,0,2.4-0.1,3.3-0.1      c2.2,0,3.7,0.3,4.8,1.1c1.2,0.9,1.7,2.1,1.7,3.5c0,2-1,3.5-2.3,4.4c-1.1,0.7-2.5,1-4,1c-1,0-1.7-0.1-2.1-0.1c0,1.7,0,4.1,0,5.4      c0,0.2,0.1,0.3,0.3,0.3c0.6,0.1,1.4,0.2,2,0.3c0,0.3-0.1,0.7-0.1,0.9l-0.1,0.1c-0.7-0.1-2.2-0.1-3.3-0.1c-0.9,0-2,0-3,0.1      C727.5,469.5,727.5,469.1,727.6,468.8z M736.6,460.7c0.6-0.7,1-1.7,1-3.1c0-1.2-0.3-2.2-1-2.9c-0.7-0.7-1.8-0.9-3.2-0.9      c-0.6,0-1.1,0.1-1.4,0.1c-0.2,0.1-0.3,0.2-0.3,0.5c0,1,0,2.2,0,3.6v3.4c0.6,0.1,1.2,0.2,2,0.2      C734.9,461.7,736,461.3,736.6,460.7z"></path>
				<path class="st7" d="M742.1,468.8L742.1,468.8c0.5-0.2,0.9-0.3,1.3-0.4c0.2-0.1,0.2-0.2,0.2-0.6v-3.3c0-1.1,0-3-0.1-4.2      c0-0.2-0.1-0.3-0.3-0.3c-0.3-0.1-1-0.2-1.5-0.2c0-0.2,0-0.6,0.1-0.8l0.1-0.1c1-0.3,2.2-0.6,3.3-0.8l0.4,0.1l0.1,2.2h0.1      c1.8-1.7,2.8-2.3,3.7-2.3c0.7,0,1.1,0.3,1.1,1c0,0.5-0.2,1.2-0.6,1.8l-0.2,0c-0.5-0.4-1-0.7-1.6-0.7c-1.1,0-1.7,0.5-2.4,1.2      c0,1.3,0,2.1,0,3.1c0,1.3,0,2.4,0.1,3.3c0,0.3,0.1,0.4,0.3,0.5c0.8,0.2,1.5,0.2,1.9,0.3c0,0.4-0.1,0.7-0.2,1l-0.1,0.1      c-0.6-0.1-1.9-0.1-3-0.1c-1.2,0-2.1,0.1-2.8,0.1C742,469.4,742.1,469.1,742.1,468.8z"></path>
				<path class="st7" d="M751.7,464.3c0-3.6,2.5-6,5.9-6c3.2,0,5.3,2.1,5.3,5.6c0,3.8-2.4,6.2-5.5,6.2      C753.7,470,751.7,467.6,751.7,464.3z M760.5,464.2c0-3.3-1.3-4.8-3.1-4.8c-2.6,0-3.5,2.5-3.4,4.6c0,2.9,1.2,4.9,3.5,4.9      C759.8,468.8,760.5,466.2,760.5,464.2z"></path>
				<path class="st7" d="M765.4,469.6c-0.2-1.1-0.3-2.3-0.4-3.3l0.1-0.1c0.2-0.1,0.4-0.2,0.7-0.3c0.2,0.5,0.4,1,0.7,1.6      c0.5,0.9,1.5,1.5,2.6,1.5c1.2,0,2.1-0.6,2.1-1.6c0-1.3-1.2-1.7-2.8-2.4c-1.8-0.8-3.2-1.4-3.2-3.5c0-1.7,1.6-3.1,4.1-3.1      c0.9,0,1.9,0.2,2.5,0.2c0.2,0,0.5,0,0.6-0.1l0.2,0.1c0.1,0.9,0.1,2,0.1,2.9l0,0.1c-0.3,0.1-0.6,0.2-0.9,0.2      c-0.1-0.4-0.2-0.7-0.3-1c-0.4-1.1-1.1-1.4-2.2-1.4c-1.3,0-2,0.6-2,1.6c0,1.1,0.6,1.4,2.4,2.2c1.7,0.7,3.5,1.3,3.5,3.4      c0,1.9-1.7,3.4-4,3.4c-1,0-2.2-0.3-3.1-0.3h-0.4L765.4,469.6z"></path>
				<path class="st7" d="M774.7,475.6l0.1-0.1c0.3-0.1,0.8-0.2,1.3-0.3c0.2-0.1,0.2-0.2,0.2-0.6c0-1.9,0-3.6,0-7.1      c0-2.4,0-4.9,0-7.2c0-0.2-0.1-0.3-0.3-0.3c-0.4-0.1-1-0.2-1.5-0.2c0-0.2,0-0.6,0.1-0.8l0.1-0.1c1-0.3,2.2-0.6,3.3-0.8l0.4,0.1      l0.1,1.5h0.1c0.9-0.7,2.3-1.5,3.9-1.5c2.5,0,4.7,2.1,4.7,5.5c0,3.7-2.5,6.2-6,6.2c-1.2,0-2-0.2-2.5-0.3v2.8c0,0.9,0,1.5,0,2.2      c0,0.3,0.1,0.4,0.3,0.5c0.7,0.1,1.7,0.2,2.2,0.3c0,0.4-0.1,0.8-0.2,1l-0.1,0.1c-0.6-0.1-2.3-0.1-3.3-0.1c-1.2,0-2.2,0.1-2.9,0.1      C774.5,476.2,774.6,475.9,774.7,475.6z M784.7,464.2c0-3.1-1.7-4.4-3.6-4.4c-0.9,0-1.8,0.4-2.6,0.9c0,1.2,0,2.4,0,3.5      c0,1.2,0,2.4,0,3.8c0.7,0.6,1.6,0.9,2.7,0.9C783.4,468.9,784.7,466.8,784.7,464.2z"></path>
				<path class="st7" d="M789.2,464.3c0-3.4,2.3-6,5.6-6c2.6,0,4.1,1.7,4.1,3.8c0,0.5-0.1,1-0.2,1.3l-0.3,0.2l-7-0.2v0.4      c0,2.5,1.6,4.6,4.3,4.6c1.1,0,2.1-0.5,3-1.3c0.1,0.4,0.2,0.7,0.2,1l-0.1,0.2c-0.8,0.9-2.1,1.7-4.1,1.7      C791.1,470,789.2,467.7,789.2,464.3z M796.4,462.4c0.1-0.2,0.1-0.5,0.1-0.7c0-1.3-0.7-2.4-2.1-2.4c-1.8,0-2.7,1.4-3,3.1H796.4z"></path>
				<path class="st7" d="M801,468.8l0.1-0.1c0.4-0.1,0.8-0.2,1.2-0.3c0.2-0.1,0.2-0.2,0.2-0.6v-3.3c0-1.1,0-3-0.1-4.2      c0-0.2-0.1-0.3-0.3-0.3c-0.3-0.1-1-0.2-1.5-0.2c0-0.2,0-0.6,0.1-0.8l0.1-0.1c1-0.3,2.2-0.6,3.3-0.8l0.4,0.1l0.1,2.2h0.1      c1.8-1.7,2.8-2.3,3.7-2.3c0.7,0,1.1,0.3,1.1,1c0,0.5-0.2,1.2-0.6,1.8l-0.2,0c-0.5-0.4-1-0.7-1.6-0.7c-1.1,0-1.7,0.5-2.4,1.2      c0,1.3,0,2.1,0,3.1c0,1.3,0,2.4,0.1,3.3c0,0.3,0.1,0.4,0.3,0.5c0.8,0.2,1.5,0.2,1.9,0.3c0,0.4-0.1,0.7-0.2,1l-0.1,0.1      c-0.6-0.1-1.9-0.1-3-0.1c-1.2,0-2.1,0.1-2.8,0.1C800.8,469.4,800.9,469.1,801,468.8z"></path>
				<path class="st7" d="M811.1,468.8L811.1,468.8l1.2-0.4c0.2-0.1,0.3-0.1,0.3-0.4c0-1.3,0-2.9,0-4.2c0-1.3,0-2.3,0-3.4      c0-0.3-0.1-0.3-0.3-0.4c-0.4-0.1-1-0.2-1.5-0.2c0-0.3,0-0.6,0.1-0.8l0.1-0.1c1-0.3,2.4-0.6,3.6-0.8l0.3,0.1c0,1.9,0,4,0,5.6      c0,1.5,0,3,0,4.2c0,0.2,0.1,0.3,0.3,0.4c0.4,0.1,1,0.2,1.3,0.3c0,0.3-0.1,0.7-0.2,0.9l-0.1,0.1c-0.7-0.1-1.7-0.1-2.4-0.1      c-0.9,0-2,0.1-2.8,0.1C811,469.4,811,469.1,811.1,468.8z M812.3,453.9c0-0.9,0.6-1.5,1.4-1.5c0.8,0,1.3,0.6,1.3,1.5      c0,0.9-0.6,1.5-1.4,1.5C812.9,455.4,812.3,454.8,812.3,453.9z"></path>
				<path class="st7" d="M819.3,466.9c0-1.9,0-4.3,0.1-6.6c0-0.2-0.1-0.3-0.3-0.3c-0.5,0-1.3,0-1.8,0c0-0.3,0-0.7,0.1-1l0.1-0.1      c0.3-0.1,1.2-0.2,1.6-0.3c0.2-0.1,0.3-0.2,0.4-0.4c0.2-0.7,0.4-1.7,0.6-2.6l0.1-0.1h1.3c0,1.1,0,2.3,0,3.1      c0.3-0.1,0.7-0.1,0.9-0.1h2.9c-0.1,0.5-0.1,1-0.3,1.3L825,460l-3.4-0.1c-0.1,2.2-0.1,4.7-0.1,6.8c0,1.4,0.4,1.9,1.7,1.9      c0.6,0,1.4-0.2,2.2-0.4c0,0.3,0,0.7-0.1,1l-0.1,0.1c-1,0.4-1.9,0.7-2.9,0.7C820.1,470,819.3,469.2,819.3,466.9z"></path>
				<path class="st7" d="M827.3,476.2v-0.4c1.9-1,3.4-2.7,4.7-5.4l0.3-0.6c-0.2,0-0.5,0-0.8-0.1l-0.2-0.1l-3.5-8.8      c-0.3-0.7-0.5-0.9-0.8-1c-0.2,0-0.6-0.1-0.9-0.2c0-0.3,0-0.6,0.1-0.9l0.1-0.1c0.7,0.1,1.8,0.1,2.5,0.1c0.9,0,2.2,0,2.9-0.1      c0,0.3,0,0.6-0.1,0.9l-0.1,0.1c-0.4,0.1-0.9,0.1-1.2,0.2c-0.3,0.1-0.4,0.2-0.4,0.5c0,0.4,0.4,1.2,0.8,2.2l1.2,3.3      c0.3,0.8,0.7,1.8,0.9,2.4h0l1.8-4.7c0.6-1.6,0.9-2.6,0.9-3c0-0.3-0.1-0.5-0.5-0.6c-0.4-0.1-0.8-0.2-1.2-0.2c0-0.3,0-0.6,0.1-0.9      l0.1-0.1c0.7,0,1.6,0.1,2.4,0.1c0.8,0,1.9,0,2.3-0.1c0,0.4,0,0.7-0.1,1l-0.1,0.1c-0.2,0-0.6,0.1-0.7,0.1c-0.3,0.1-0.6,0.4-1,1.3      l-3.3,8c-1,2.3-2,4.6-2.8,6.3c-0.6,1.2-1,1.4-1.7,1.4C828.6,476.7,827.8,476.4,827.3,476.2z"></path>
			</g>
			<g>
				<g>
					<path class="st7" d="M291.1,443.7l0.1-0.1c0.3-0.1,0.8-0.2,1.3-0.3c0.2,0,0.3-0.1,0.3-0.4c0-1.9,0-4.2,0-7.1c0-2.1,0-4.7,0-6.6       c0-0.3-0.1-0.3-0.3-0.3c-0.6-0.1-1.2-0.2-1.6-0.2c0-0.3,0.1-0.8,0.1-1l0.1-0.1c0.7,0.1,1.7,0.1,2.8,0.1c1,0,2,0,3.1-0.1       c0,0.3,0,0.7-0.1,1l-0.1,0.1c-0.4,0-0.9,0.1-1.3,0.2c-0.2,0.1-0.3,0.2-0.3,0.4c0,1.6,0,6.5,0,6.5c0,2.9,0,5.3,0,7.2       c0,0.2,0.1,0.3,0.2,0.3c0.6,0.1,1.3,0.2,1.7,0.3c0,0.3-0.1,0.7-0.2,1l-0.1,0.1c-0.7-0.1-1.7-0.1-2.8-0.1c-1,0-2.1,0-3.1,0.1       C291,444.4,291.1,444,291.1,443.7z"></path>
				</g>
				<g>
					<path class="st7" d="M299.2,443.7L299.2,443.7c0.4-0.1,0.9-0.2,1.1-0.3c0.2,0,0.3-0.1,0.3-0.5c0-1,0-2.1,0-3.5       c0-1.1,0-3.1-0.1-4.2c0-0.2-0.1-0.3-0.3-0.3c-0.4-0.1-1-0.2-1.5-0.2c0-0.2,0-0.6,0.1-0.8l0.1-0.1c1-0.3,2.2-0.6,3.3-0.8       l0.4,0.1l0.1,1.4h0.1c1.5-0.8,2.8-1.4,4.1-1.4c1.9,0,3.3,1.1,3.3,3.7c0,1.8-0.1,4.2-0.1,6.1c0,0.3,0.1,0.4,0.4,0.5       c0.3,0.1,0.9,0.2,1.2,0.2c0,0.3-0.1,0.7-0.2,0.9l-0.1,0.1c-0.6-0.1-1.5-0.1-2.4-0.1c-0.7,0-1.8,0-2.5,0.1c0-0.3,0-0.7,0.1-0.9       l0.1-0.1c0.3,0,0.6-0.1,0.9-0.2c0.2-0.1,0.3-0.1,0.3-0.5c0-1.5,0.1-3.5,0.1-5.4c0-2.1-0.8-2.8-2.2-2.8c-1,0-2,0.3-2.9,0.8       c0,1.2,0,2.9,0,3.9c0,1.3,0,2.5,0,3.5c0,0.3,0.1,0.4,0.4,0.5c0.3,0.1,0.8,0.2,1.3,0.3c0,0.3,0,0.6-0.2,0.9l-0.1,0.1       c-0.6-0.1-1.5-0.1-2.4-0.1c-0.7,0-2,0-2.7,0.1C299.1,444.4,299.1,444,299.2,443.7z"></path>
				</g>
				<g>
					<path class="st7" d="M322.6,444.9c-0.2-0.6-0.3-1.2-0.4-1.6h-0.1c-0.9,0.9-2,1.5-3.5,1.5c-3,0-5-2-5-5.6c0-3.6,2.5-6.2,6.2-6.2       c0.9,0,1.8,0.2,2.2,0.4c0-1.8,0-3.1-0.1-4.8c0-0.3-0.1-0.4-0.3-0.4c-0.3-0.1-0.9-0.2-1.4-0.2c0-0.3,0-0.5,0.1-0.8l0.1-0.1       c1.1-0.4,2.4-0.7,3.5-0.9l0.4,0.1c-0.1,2.8-0.1,5.7-0.1,8.6c0,2.9,0,6.2,0.1,7.8c0,0.5,0.1,0.6,0.5,0.6       c0.5,0.1,1.1,0.1,1.4,0.1c0,0.3,0,0.7-0.1,0.9l-0.1,0.1c-1.3,0.1-2.4,0.3-3.1,0.5L322.6,444.9z M322,442.3       c-0.1-0.9-0.1-2-0.1-3.5v-3.5c-0.5-0.6-1.5-1-2.5-1c-2.1,0-3.7,1.7-3.7,4.6c0,2.6,1.4,4.6,3.7,4.6       C320.5,443.4,321.4,443,322,442.3z"></path>
				</g>
				<g>
					<path class="st7" d="M327.9,443.7L327.9,443.7l1.2-0.4c0.2,0,0.3-0.1,0.3-0.4c0-1.3,0-2.9,0-4.2c0-1.3,0-2.3,0-3.4       c0-0.3-0.1-0.3-0.3-0.4c-0.4-0.1-1-0.2-1.5-0.2c0-0.3,0-0.6,0.1-0.8l0.1-0.1c1-0.3,2.4-0.6,3.6-0.8l0.3,0.1c0,1.9,0,4,0,5.6       c0,1.5,0,3,0,4.2c0,0.2,0.1,0.3,0.3,0.4c0.4,0.1,1,0.2,1.3,0.3c0,0.3-0.1,0.7-0.2,0.9l-0.1,0.1c-0.7-0.1-1.7-0.1-2.4-0.1       c-0.9,0-2,0-2.8,0.1C327.8,444.3,327.8,444,327.9,443.7z M329.1,428.8c0-0.9,0.6-1.5,1.4-1.5c0.8,0,1.3,0.6,1.3,1.5       c0,0.9-0.6,1.5-1.4,1.5C329.7,430.3,329.1,429.7,329.1,428.8z"></path>
				</g>
				<g>
					<path class="st7" d="M338.1,441.8l-2.6-5.9c-0.4-1-0.5-1.1-0.9-1.2c-0.3-0.1-0.7-0.1-1-0.2c0-0.3,0.1-0.6,0.1-0.9l0.1-0.1       c0.7,0,1.7,0.1,2.6,0.1c0.7,0,2.3,0,3-0.1c0,0.4-0.1,0.7-0.1,0.9l-0.1,0.1c-0.4,0-0.7,0.1-1.1,0.2c-0.3,0.1-0.4,0.2-0.4,0.5       c0,0.4,0.4,1.1,0.7,1.9l1.2,2.8c0.3,0.8,0.6,1.5,0.9,2.3h0.1l2.1-4.9c0.4-1,0.6-1.6,0.6-1.9c0-0.3-0.2-0.5-0.4-0.6       c-0.3-0.1-0.8-0.2-1.2-0.3c0-0.3,0-0.6,0.1-0.9l0.1-0.1c0.8,0,1.8,0.1,2.5,0.1c0.6,0,1.6,0,2.2-0.1c0,0.3-0.1,0.7-0.1,1       l-0.1,0.1c-0.1,0-0.5,0.1-0.7,0.2c-0.4,0.1-0.7,0.3-1,1l-3.1,6.8c-0.3,0.7-0.6,1.4-0.8,2.1l-0.2,0.1c-0.3,0.1-0.9,0.1-1.2,0.1       C339.1,444,338.7,443.1,338.1,441.8z"></path>
				</g>
				<g>
					<path class="st7" d="M348.3,443.7L348.3,443.7l1.2-0.4c0.2,0,0.3-0.1,0.3-0.4c0-1.3,0-2.9,0-4.2c0-1.3,0-2.3,0-3.4       c0-0.3-0.1-0.3-0.3-0.4c-0.4-0.1-1-0.2-1.5-0.2c0-0.3,0-0.6,0.1-0.8l0.1-0.1c1-0.3,2.4-0.6,3.6-0.8l0.3,0.1c0,1.9,0,4,0,5.6       c0,1.5,0,3,0,4.2c0,0.2,0.1,0.3,0.3,0.4c0.4,0.1,1,0.2,1.3,0.3c0,0.3-0.1,0.7-0.2,0.9l-0.1,0.1c-0.7-0.1-1.7-0.1-2.4-0.1       c-0.9,0-2,0-2.8,0.1C348.2,444.3,348.3,444,348.3,443.7z M349.5,428.8c0-0.9,0.6-1.5,1.4-1.5c0.8,0,1.3,0.6,1.3,1.5       c0,0.9-0.6,1.5-1.4,1.5C350.1,430.3,349.5,429.7,349.5,428.8z"></path>
				</g>
				<g>
					<path class="st7" d="M364.4,444.9c-0.2-0.6-0.3-1.2-0.4-1.6h-0.1c-0.9,0.9-2,1.5-3.5,1.5c-3,0-5-2-5-5.6c0-3.6,2.5-6.2,6.2-6.2       c0.9,0,1.8,0.2,2.2,0.4c0-1.8,0-3.1-0.1-4.8c0-0.3-0.1-0.4-0.3-0.4c-0.3-0.1-0.9-0.2-1.4-0.2c0-0.3,0-0.5,0.1-0.8l0.1-0.1       c1.1-0.4,2.4-0.7,3.5-0.9l0.4,0.1c-0.1,2.8-0.1,5.7-0.1,8.6c0,2.9,0,6.2,0.1,7.8c0,0.5,0.1,0.6,0.5,0.6       c0.5,0.1,1.1,0.1,1.4,0.1c0,0.3,0,0.7-0.1,0.9l-0.1,0.1c-1.3,0.1-2.4,0.3-3.1,0.5L364.4,444.9z M363.8,442.3       c-0.1-0.9-0.1-2-0.1-3.5v-3.5c-0.5-0.6-1.5-1-2.5-1c-2.1,0-3.7,1.7-3.7,4.6c0,2.6,1.4,4.6,3.7,4.6       C362.2,443.4,363.1,443,363.8,442.3z"></path>
				</g>
				<g>
					<path class="st7" d="M378.2,444.9c-0.2-0.5-0.3-1.1-0.4-1.7h-0.1c-1.1,1-2.2,1.7-3.6,1.7c-2.3,0-3.7-1.1-3.7-3.7       c0-2,0-4.1,0-6.1c0-0.2-0.1-0.3-0.2-0.3c-0.4-0.1-1.1-0.1-1.5-0.1c0-0.3,0.1-0.6,0.1-0.8l0.1-0.1c1.1-0.2,2.5-0.5,3.5-0.5       l0.3,0.2c-0.1,1-0.1,1.8-0.1,2.6c0,1.5,0,3.2,0,5c0,1.7,0.8,2.3,2.3,2.3c1,0,2-0.5,2.8-1.3c0-1,0-2.3,0-3.5c0-0.9,0-2.2,0-3.5       c0-0.2-0.1-0.3-0.3-0.3c-0.4-0.1-1.1-0.1-1.5-0.1c0-0.3,0.1-0.6,0.1-0.8l0.1-0.1c1.1-0.2,2.5-0.5,3.5-0.5l0.3,0.2       c-0.1,1.5-0.1,3.4-0.1,5.2c0,1.8,0,3.1,0.1,4.3c0,0.3,0.2,0.6,0.4,0.6c0.5,0.1,1.1,0.1,1.6,0.1c0,0.3,0,0.7-0.1,0.9l-0.1,0.1       c-1,0.1-2,0.3-3.1,0.5L378.2,444.9z"></path>
				</g>
				<g>
					<path class="st7" d="M383.2,442.2c0-1.5,1.1-2.7,4-3.4c0.8-0.2,1.6-0.3,2.2-0.5l0-1.2c0-1.8-0.7-2.5-2.2-2.5       c-1.1,0-2.6,0.5-3.6,1.1c0-0.2-0.1-0.4-0.1-0.6c0-0.2,0-0.4,0.1-0.6l0.1-0.1c1.3-0.7,2.9-1.2,4.4-1.2c2.5,0,3.6,0.9,3.5,3.5       c0,1-0.1,3.6-0.1,5.5c0,0.8,0.3,1.2,0.8,1.2c0.5,0,1,0,1.4,0c0,0.3,0,0.7-0.1,0.9l-0.1,0.1c-0.5,0.3-1.2,0.5-1.9,0.5       c-1.3,0-1.9-0.7-2-1.7h-0.1c-0.8,0.9-2,1.7-3.3,1.7C384.7,444.9,383.2,444,383.2,442.2z M389.5,442.4c0.1-0.4,0.1-1.2,0.1-1.6       v-1.4c-0.5,0.1-1.3,0.2-1.8,0.4c-1.6,0.5-2.2,1.1-2.2,1.9c0,1,0.8,1.5,1.8,1.5C388.1,443.2,388.8,442.9,389.5,442.4z"></path>
				</g>
				<g>
					<path class="st7" d="M395.2,443.7L395.2,443.7c0.4-0.1,0.9-0.3,1.2-0.4c0.2,0,0.2-0.1,0.2-0.4c0-1.9,0-4.6,0-7.5       c0-2.7,0-4.7,0-6.7c0-0.3-0.2-0.4-0.3-0.4c-0.3-0.1-0.9-0.2-1.4-0.2c0-0.3,0-0.6,0.1-0.8l0.1-0.1c1.1-0.3,2.4-0.7,3.5-0.9       l0.4,0.1c-0.1,3.3-0.1,6-0.1,8.9c0,2.9,0,5.7,0,7.6c0,0.2,0.1,0.3,0.3,0.4c0.5,0.1,1,0.3,1.3,0.3c0,0.4-0.1,0.7-0.2,0.9       l-0.1,0.1c-0.7-0.1-1.8-0.1-2.5-0.1c-0.7,0-1.9,0-2.7,0.1C395.1,444.3,395.1,444,395.2,443.7z"></path>
				</g>
				<g>
					<path class="st7" d="M290.8,470.8l0.1-0.1c0.3-0.1,0.8-0.2,1.2-0.3c0.2-0.1,0.3-0.2,0.3-0.4c0-2,0-4.4,0-7.4c0-2.2,0-4.2,0-6.2       c0-0.3-0.1-0.4-0.3-0.4c-0.4-0.1-0.9-0.2-1.5-0.2c0-0.3,0.1-0.7,0.1-1l0.1-0.1c0.8,0,1.8,0.1,2.8,0.1c1,0,2.4-0.1,3.3-0.1       c2.2,0,3.7,0.3,4.8,1.1c1.2,0.9,1.7,2.1,1.7,3.5c0,2-1,3.5-2.3,4.4c-1.1,0.7-2.5,1-4,1c-1,0-1.7-0.1-2.1-0.1c0,1.7,0,4.1,0,5.4       c0,0.2,0.1,0.3,0.3,0.3c0.6,0.1,1.4,0.2,2,0.3c0,0.3-0.1,0.7-0.1,0.9l-0.1,0.1c-0.7,0-2.2-0.1-3.3-0.1c-0.9,0-2,0-3,0.1       C290.7,471.5,290.7,471.2,290.8,470.8z M299.9,462.7c0.6-0.7,1-1.7,1-3.1c0-1.2-0.3-2.2-1-2.9c-0.7-0.7-1.8-0.9-3.2-0.9       c-0.6,0-1.1,0.1-1.4,0.2c-0.2,0.1-0.3,0.2-0.3,0.5c0,1,0,2.2,0,3.6v3.4c0.6,0.1,1.2,0.2,2,0.2       C298.1,463.7,299.2,463.4,299.9,462.7z"></path>
				</g>
				<g>
					<path class="st7" d="M305.4,470.9L305.4,470.9c0.5-0.2,0.9-0.3,1.3-0.4c0.2-0.1,0.2-0.2,0.2-0.6v-3.3c0-1.1,0-3-0.1-4.2       c0-0.2-0.1-0.3-0.3-0.3c-0.3-0.1-1-0.2-1.5-0.2c0-0.2,0-0.6,0.1-0.8l0.1-0.1c1-0.3,2.2-0.6,3.3-0.8l0.4,0.1l0.1,2.2h0.1       c1.8-1.7,2.8-2.3,3.7-2.3c0.7,0,1.1,0.3,1.1,1c0,0.5-0.2,1.2-0.6,1.8l-0.2,0c-0.5-0.4-1-0.7-1.6-0.7c-1.1,0-1.7,0.5-2.4,1.2       c0,1.3,0,2.1,0,3.1c0,1.3,0,2.4,0.1,3.3c0,0.3,0.1,0.4,0.3,0.5c0.8,0.1,1.5,0.2,1.9,0.3c0,0.4-0.1,0.7-0.2,1l-0.1,0.1       c-0.6,0-1.9-0.1-3-0.1c-1.2,0-2.1,0.1-2.8,0.1C305.2,471.4,305.3,471.1,305.4,470.9z"></path>
				</g>
				<g>
					<path class="st7" d="M314.9,466.3c0-3.6,2.5-6,5.9-6c3.2,0,5.3,2.1,5.3,5.6c0,3.8-2.4,6.2-5.5,6.2       C316.9,472,314.9,469.7,314.9,466.3z M323.8,466.3c0-3.3-1.3-4.8-3.1-4.8c-2.6,0-3.5,2.5-3.4,4.6c0,2.9,1.2,4.9,3.5,4.9       C323,470.9,323.8,468.2,323.8,466.3z"></path>
				</g>
				<g>
					<path class="st7" d="M328.6,471.6c-0.2-1.1-0.3-2.3-0.4-3.3l0.1-0.1c0.2-0.1,0.4-0.2,0.7-0.3c0.2,0.5,0.4,1,0.7,1.6       c0.5,0.9,1.5,1.5,2.6,1.5c1.2,0,2.1-0.6,2.1-1.6c0-1.3-1.2-1.7-2.8-2.4c-1.8-0.8-3.2-1.4-3.2-3.5c0-1.7,1.6-3.1,4.1-3.1       c0.9,0,1.9,0.2,2.5,0.2c0.2,0,0.5,0,0.6-0.1l0.2,0.1c0.1,0.9,0.1,2,0.1,2.9l0,0.1c-0.3,0.2-0.6,0.2-0.9,0.2       c-0.1-0.4-0.2-0.7-0.3-1c-0.4-1.1-1.1-1.4-2.2-1.4c-1.3,0-2,0.6-2,1.6c0,1.1,0.6,1.4,2.4,2.2c1.7,0.7,3.5,1.3,3.5,3.4       c0,1.9-1.7,3.4-4,3.4c-1,0-2.2-0.3-3.1-0.3h-0.4L328.6,471.6z"></path>
				</g>
				<g>
					<path class="st7" d="M337.9,477.6l0.1-0.1c0.3-0.1,0.8-0.2,1.3-0.3c0.2-0.1,0.2-0.2,0.2-0.6c0-1.9,0-3.6,0-7.1       c0-2.4,0-4.9,0-7.2c0-0.2-0.1-0.3-0.3-0.3c-0.4-0.1-1-0.2-1.5-0.2c0-0.2,0-0.6,0.1-0.8l0.1-0.1c1-0.3,2.2-0.6,3.3-0.8l0.4,0.1       l0.1,1.5h0.1c0.9-0.7,2.3-1.5,3.9-1.5c2.5,0,4.7,2.1,4.7,5.5c0,3.7-2.5,6.2-6,6.2c-1.2,0-2-0.2-2.5-0.3v2.8c0,0.9,0,1.5,0,2.2       c0,0.3,0.1,0.5,0.3,0.5c0.7,0.1,1.7,0.3,2.2,0.3c0,0.4-0.1,0.8-0.2,1l-0.1,0.1c-0.6-0.1-2.3-0.1-3.3-0.1c-1.2,0-2.2,0-2.9,0.1       C337.8,478.2,337.8,477.9,337.9,477.6z M348,466.2c0-3.1-1.7-4.4-3.6-4.4c-0.9,0-1.8,0.4-2.6,0.9c0,1.2,0,2.4,0,3.5       c0,1.2,0,2.4,0,3.8c0.7,0.5,1.6,0.9,2.7,0.9C346.6,470.9,348,468.9,348,466.2z"></path>
				</g>
				<g>
					<path class="st7" d="M352.4,466.3c0-3.4,2.3-6,5.6-6c2.6,0,4.1,1.7,4.1,3.8c0,0.5-0.1,1-0.2,1.3l-0.3,0.2l-7-0.2v0.4       c0,2.5,1.6,4.6,4.3,4.6c1.1,0,2.1-0.5,3-1.3c0.1,0.4,0.2,0.7,0.2,1l-0.1,0.2c-0.8,0.8-2.1,1.7-4.1,1.7       C354.4,472,352.4,469.7,352.4,466.3z M359.6,464.4c0.1-0.2,0.1-0.5,0.1-0.7c0-1.3-0.7-2.4-2.1-2.4c-1.8,0-2.7,1.4-3,3.1H359.6z       "></path>
				</g>
				<g>
					<path class="st7" d="M364.2,470.9l0.1-0.1c0.4-0.1,0.8-0.2,1.2-0.3c0.2-0.1,0.2-0.2,0.2-0.6v-3.3c0-1.1,0-3-0.1-4.2       c0-0.2-0.1-0.3-0.3-0.3c-0.3-0.1-1-0.2-1.5-0.2c0-0.2,0-0.6,0.1-0.8l0.1-0.1c1-0.3,2.2-0.6,3.3-0.8l0.4,0.1l0.1,2.2h0.1       c1.8-1.7,2.8-2.3,3.7-2.3c0.7,0,1.1,0.3,1.1,1c0,0.5-0.2,1.2-0.6,1.8l-0.2,0c-0.5-0.4-1-0.7-1.6-0.7c-1.1,0-1.7,0.5-2.4,1.2       c0,1.3,0,2.1,0,3.1c0,1.3,0,2.4,0.1,3.3c0,0.3,0.1,0.4,0.3,0.5c0.8,0.1,1.5,0.2,1.9,0.3c0,0.4-0.1,0.7-0.2,1l-0.1,0.1       c-0.6,0-1.9-0.1-3-0.1c-1.2,0-2.1,0.1-2.8,0.1C364.1,471.4,364.1,471.1,364.2,470.9z"></path>
				</g>
				<g>
					<path class="st7" d="M374.3,470.9L374.3,470.9l1.2-0.4c0.2-0.1,0.3-0.1,0.3-0.4c0-1.3,0-2.9,0-4.2c0-1.3,0-2.3,0-3.4       c0-0.3-0.1-0.3-0.3-0.4c-0.4-0.1-1-0.2-1.5-0.2c0-0.3,0-0.6,0.1-0.8l0.1-0.1c1-0.3,2.4-0.6,3.6-0.8l0.3,0.1c0,1.9,0,4,0,5.6       c0,1.5,0,3,0,4.2c0,0.2,0.1,0.3,0.3,0.4c0.4,0.1,1,0.2,1.3,0.3c0,0.3-0.1,0.7-0.2,0.9l-0.1,0.1c-0.7,0-1.7-0.1-2.4-0.1       c-0.9,0-2,0.1-2.8,0.1C374.2,471.4,374.3,471.1,374.3,470.9z M375.5,455.9c0-0.9,0.6-1.5,1.4-1.5c0.8,0,1.3,0.6,1.3,1.5       c0,0.9-0.6,1.5-1.4,1.5C376.1,457.4,375.5,456.9,375.5,455.9z"></path>
				</g>
				<g>
					<path class="st7" d="M382.5,468.9c0-1.9,0-4.3,0.1-6.6c0-0.2-0.1-0.3-0.3-0.3c-0.5,0-1.3,0-1.8,0c0-0.3,0-0.7,0.1-1l0.1-0.1       c0.3-0.1,1.2-0.2,1.6-0.3c0.2-0.1,0.3-0.1,0.4-0.4c0.2-0.7,0.4-1.7,0.6-2.6l0.1-0.1h1.3c0,1.1,0,2.3,0,3.1       c0.3-0.1,0.7-0.1,0.9-0.1h2.9c-0.1,0.5-0.1,1-0.3,1.3l-0.2,0.1l-3.4-0.1c-0.1,2.2-0.1,4.7-0.1,6.8c0,1.4,0.4,1.9,1.7,1.9       c0.6,0,1.4-0.2,2.2-0.5c0,0.3,0,0.7-0.1,1l-0.1,0.1c-1,0.4-1.9,0.7-2.9,0.7C383.3,472,382.5,471.2,382.5,468.9z"></path>
				</g>
				<g>
					<path class="st7" d="M390.5,478.2v-0.4c1.9-1,3.4-2.7,4.7-5.4l0.3-0.6c-0.2,0-0.5,0-0.8-0.1l-0.2-0.1l-3.5-8.8       c-0.3-0.7-0.5-0.9-0.8-1c-0.2-0.1-0.6-0.1-0.9-0.2c0-0.3,0-0.6,0.1-0.9l0.1-0.1c0.7,0.1,1.8,0.1,2.5,0.1c0.9,0,2.2,0,2.9-0.1       c0,0.3,0,0.6-0.1,0.9l-0.1,0.1c-0.4,0.1-0.9,0.1-1.2,0.2c-0.3,0.1-0.4,0.2-0.4,0.4c0,0.4,0.4,1.3,0.8,2.2l1.2,3.3       c0.3,0.8,0.7,1.8,0.9,2.4h0l1.8-4.7c0.6-1.6,0.9-2.6,0.9-3c0-0.3-0.1-0.5-0.5-0.6c-0.4-0.1-0.8-0.2-1.2-0.2       c0-0.3,0-0.6,0.1-0.9l0.1-0.1c0.7,0,1.6,0,2.4,0c0.8,0,1.9,0,2.3,0c0,0.4,0,0.7-0.1,1l-0.1,0.1c-0.2,0-0.6,0.1-0.7,0.2       c-0.3,0.1-0.6,0.4-1,1.3l-3.3,8c-1,2.3-2,4.6-2.8,6.3c-0.6,1.2-1,1.4-1.7,1.4C391.8,478.8,391,478.5,390.5,478.2z"></path>
				</g>
			</g>
			
				<use xlink:href="#Nuovo_simbolo_2" width="100" height="100" id="XMLID_5_" x="-50" y="-50" transform="matrix(0.7137 0 0 -0.7137 776.361 295.5039)" style="overflow:visible;"></use>
			
				<use xlink:href="#Nuovo_simbolo_2" width="100" height="100" id="XMLID_4_" x="-50" y="-50" transform="matrix(0.7137 0 0 -0.7137 909.6425 532.8737)" style="overflow:visible;"></use>
			<g>
				<circle class="st0" cx="636.4" cy="525" r="35.7"></circle>
				<g>
					<path class="st1" d="M636.4,538.5c-7.5,0-13.5-6.1-13.5-13.5c0-7.5,6.1-13.5,13.5-13.5c7.5,0,13.5,6.1,13.5,13.5       C649.9,532.5,643.8,538.5,636.4,538.5z M636.4,512.2c-7.1,0-12.8,5.8-12.8,12.8c0,7.1,5.8,12.8,12.8,12.8       c7.1,0,12.8-5.8,12.8-12.8C649.2,517.9,643.4,512.2,636.4,512.2z"></path>
				</g>
				<g>
					<circle class="st1" cx="636.4" cy="525" r="6.7"></circle>
				</g>
			</g>
			
				<use xlink:href="#Nuovo_simbolo_2" width="100" height="100" id="XMLID_3_" x="-50" y="-50" transform="matrix(0.7137 0 0 -0.7137 485.9671 374.5312)" style="overflow:visible;"></use>
			
				<use xlink:href="#Nuovo_simbolo_2" width="100" height="100" id="XMLID_2_" x="-50" y="-50" transform="matrix(0.7137 0 0 -0.7137 212.7516 366.71)" style="overflow:visible;"></use>
			
				<use xlink:href="#Nuovo_simbolo_2" width="100" height="100" id="XMLID_1_" x="-50" y="-50" transform="matrix(0.7137 0 0 -0.7137 345.4426 604.4978)" style="overflow:visible;"></use>
			<g>
				<g>
					<path class="st8" d="M379.7,371.7c10.2,4.2,19.7,10.4,27.9,18.7c33.6,33.6,33.6,88.2,0,121.8c-5.5,5.5-11.5,10.1-17.9,13.8"></path>
					<g>
						<polygon class="st0" points="388.3,518.5 380.6,530.5 394.8,531.2       "></polygon>
					</g>
				</g>
			</g>
			<g>
				<g>
					<path class="st8" d="M310.9,529.6c-9.1-4.2-17.6-10-25-17.4c-33.6-33.6-33.6-88.2,0-121.8c5.2-5.2,10.8-9.5,16.8-13.1"></path>
					<g>
						<polygon class="st0" points="304.2,384.6 311.7,372.5 297.5,372       "></polygon>
					</g>
				</g>
			</g>
			<g>
				<g>
					<path class="st8" d="M814.9,371.7c10.2,4.2,19.7,10.4,27.9,18.7c33.6,33.6,33.6,88.2,0,121.8c-5.5,5.5-11.5,10.1-17.9,13.8"></path>
					<g>
						<polygon class="st0" points="823.5,518.5 815.7,530.5 829.9,531.2       "></polygon>
					</g>
				</g>
			</g>
			<g>
				<g>
					<path class="st8" d="M746,529.6c-9.1-4.2-17.6-10-25-17.4c-33.6-33.6-33.6-88.2,0-121.8c5.2-5.2,10.8-9.5,16.8-13.1"></path>
					<g>
						<polygon class="st0" points="739.4,384.6 746.9,372.5 732.7,372       "></polygon>
					</g>
				</g>
			</g>
		</g>
		<path class="st9" d="M772.3,836.9c-48.3,0-95.5-9.5-140.3-28.3c-25.7-10.8-49.9-24.3-72.4-40.5c-22.5,16.2-46.7,29.7-72.4,40.5    c-44.7,18.8-91.9,28.3-140.3,28.3c-48.3,0-95.5-9.5-140.3-28.3c-46.4-19.5-88-48-123.5-84.8c-35.5-36.8-63.1-79.8-81.9-127.8    C-16.9,549.8-26.1,501-26.1,451s9.2-98.8,27.3-145.1c18.8-48,46.4-91,81.9-127.8c35.5-36.8,77.1-65.3,123.5-84.8    c44.7-18.8,91.9-28.3,140.3-28.3c48.3,0,95.5,9.5,140.3,28.3c25.7,10.8,49.9,24.3,72.4,40.5c22.5-16.2,46.7-29.7,72.4-40.5    c44.7-18.8,91.9-28.3,140.3-28.3c48.3,0,95.5,9.5,140.3,28.3c46.4,19.5,88,48,123.5,84.8c35.5,36.8,63.1,79.8,81.9,127.8    c18.1,46.3,27.3,95.1,27.3,145.1s-9.2,98.8-27.3,145.1c-18.8,48-46.4,91-81.9,127.8c-35.5,36.8-77.1,65.3-123.5,84.8    C867.8,827.4,820.6,836.9,772.3,836.9z"></path>
		<path class="st10" d="M785.3,775c-40.6,0-80.2-8-117.8-23.7c-39-16.3-73.8-40.3-103.7-71.2l-4.2-4.4l-4.2,4.4    c-29.9,30.9-64.7,54.8-103.7,71.2C414.2,767,374.5,775,333.9,775c-40.6,0-80.2-8-117.8-23.7c-39-16.3-73.8-40.3-103.7-71.2    c-29.9-30.9-53-67-68.8-107.3C28.4,534,20.7,493,20.7,451s7.7-83,22.9-121.8c15.8-40.3,38.9-76.4,68.8-107.3    c29.9-30.9,64.7-54.8,103.7-71.2C253.7,135,293.3,127,333.9,127c40.6,0,80.2,8,117.8,23.7c39,16.3,73.8,40.3,103.7,71.2l4.2,4.4    l4.2-4.4c29.9-30.9,64.7-54.8,103.7-71.2C705.1,135,744.7,127,785.3,127c40.6,0,80.2,8,117.8,23.7c39,16.3,73.8,40.3,103.7,71.2    c29.9,30.9,53,67,68.8,107.3c15.2,38.8,22.9,79.8,22.9,121.8s-7.7,83-22.9,121.8c-15.8,40.3-38.9,76.4-68.8,107.3    c-29.9,30.9-64.7,54.8-103.7,71.2C865.6,767,825.9,775,785.3,775z"></path>
		<path class="st11" d="M787.3,727.6c-68.5,0-132.8-28.8-181.3-81l-46.4-50.1l-46.4,50.1c-48.4,52.3-112.8,81-181.3,81    c-68.5,0-132.8-28.8-181.3-81S75.6,524.8,75.6,450.9s26.7-143.4,75.1-195.6c48.4-52.3,112.8-81,181.3-81    c68.5,0,132.8,28.8,181.3,81l46.4,50.1l46.4-50.1c48.4-52.3,112.8-81,181.3-81c68.5,0,132.8,28.8,181.3,81    c48.4,52.3,75.1,121.7,75.1,195.6s-26.7,143.4-75.1,195.6C920.1,698.8,855.8,727.6,787.3,727.6z"></path>
		<path class="st12" d="M338.9,672.1c-54.8,0-109.5-21.6-151.2-64.7C147.3,565.6,125,510.1,125,451s22.2-114.6,62.6-156.4    c40.4-41.8,94.1-64.8,151.2-64.8c57.1,0,110.8,23,151.2,64.8l69.5,71.9l69.5-71.9c83.4-86.3,219.1-86.3,302.4,0    c40.4,41.8,62.6,97.3,62.6,156.4S972,565.6,931.6,607.4c-83.4,86.3-219.1,86.3-302.4,0l-69.5-71.9l-69.5,71.9    C448.4,650.5,393.7,672.1,338.9,672.1z"></path>
		<path class="st13" d="M772.7,980.4c-67,0-132.4-13.2-194.4-39.2c-6.3-2.6-12.5-5.4-18.7-8.3c-6.2,2.9-12.4,5.6-18.7,8.3    c-62,26-127.4,39.2-194.4,39.2c-67,0-132.4-13.2-194.4-39.2C88,914.3,30.6,875-18.3,824.3c-48.8-50.4-86.6-109.4-112.4-175.2    C-155.5,585.9-168,519.2-168,451c0-68.2,12.6-134.9,37.3-198.1c25.8-65.8,63.6-124.8,112.4-175.2C30.6,27,88-12.3,152.2-39.2    c62-26,127.4-39.2,194.4-39.2S479-65.2,541-39.2c6.3,2.6,12.5,5.4,18.7,8.3c6.2-2.9,12.4-5.6,18.7-8.3    c62-26,127.4-39.2,194.4-39.2s132.4,13.2,194.4,39.2c64.2,26.9,121.5,66.2,170.5,116.9c48.8,50.4,86.6,109.4,112.4,175.2    c24.8,63.2,37.3,129.9,37.3,198.1c0,68.2-12.6,134.9-37.3,198.1c-25.8,65.8-63.6,124.8-112.4,175.2c-49,50.7-106.3,90-170.5,116.9    C905.1,967.2,839.7,980.4,772.7,980.4z"></path>
		<path class="st14" d="M772.7,895.3c-55.7,0-110-11-161.5-32.6c-17.8-7.5-35-16.1-51.6-25.9c-16.5,9.8-33.7,18.4-51.6,25.9    c-51.5,21.6-105.8,32.6-161.5,32.6c-55.7,0-110-11-161.5-32.6c-53.5-22.4-101.3-55.3-142.2-97.6C1.9,722.9-29.8,673.4-51.5,618    C-72.4,564.8-83,508.6-83,451c0-57.6,10.6-113.8,31.5-167.1c21.7-55.3,53.4-104.8,94.3-147.1c40.9-42.3,88.8-75.2,142.2-97.6    C236.6,17.6,290.9,6.6,346.6,6.6c55.7,0,110,11,161.5,32.6c17.8,7.5,35,16.1,51.6,25.9c16.5-9.8,33.7-18.4,51.6-25.9    C662.7,17.6,717,6.6,772.7,6.6c55.7,0,110,11,161.5,32.6c53.5,22.4,101.3,55.3,142.2,97.6c40.9,42.3,72.7,91.8,94.3,147.1    c20.9,53.3,31.5,109.5,31.5,167.1c0,57.6-10.6,113.8-31.5,167.1c-21.7,55.3-53.4,104.8-94.3,147.1    c-40.9,42.3-88.8,75.2-142.2,97.6C882.7,884.4,828.4,895.3,772.7,895.3z"></path>
	</g>
</g>
</svg>
