<?xml version="1.0" encoding="UTF-8"?>
<svg xmlns="http://www.w3.org/2000/svg" xmlns:xlink="http://www.w3.org/1999/xlink" version="1.1" id="Layer_1" x="0" y="0" viewBox="0 0 1122.9 841.9" xml:space="preserve">
  <style>.st0{fill:#4663ac}.st1{fill:#a2b1d7}.st3{fill:none;stroke:#a2b1d7;stroke-width:.8159;stroke-miterlimit:10}.st4{fill:#2c2439}.st5,.st6{fill:none}.st6{stroke:#4663ac;stroke-width:3.2748;stroke-linecap:round;stroke-miterlimit:10}</style>
  <symbol id="Nuovo_simbolo_2" viewBox="-50 -50 100 100">
    <circle class="st0" r="50"></circle>
    <path class="st1" d="M0-19c-10.5 0-19 8.5-19 19s8.5 19 19 19 19-8.5 19-19-8.5-19-19-19zm0 37c-9.9 0-18-8.1-18-18s8.1-18 18-18S18-9.9 18 0 9.9 18 0 18z"></path>
    <circle class="st1" r="9.3"></circle>
  </symbol>
  <path fill="#f6f4ee" d="M0 0h1122.9v841.9H0z"></path>
  <path class="st0" d="M811.8 638.7c-58.2 0-112.9-22.7-154.1-63.8l-96.2-96.2-96.2 96.2c-41.2 41.2-95.9 63.8-154.1 63.8s-113-22.6-154.2-63.8c-41.2-41.2-63.8-95.9-63.8-154.1 0-58.2 22.7-112.9 63.8-154.1 41.2-41.2 95.9-63.8 154.1-63.8s112.9 22.7 154.1 63.8l96.2 96.2 96.2-96.2c41.2-41.2 95.9-63.8 154.1-63.8 58.2 0 113 22.7 154.1 63.8 41.2 41.2 63.8 95.9 63.8 154.1 0 58.2-22.7 113-63.8 154.1-41 41.2-95.8 63.8-154 63.8zM619.4 420.8l96.2 96.2c53.1 53.1 139.4 53.1 192.5 0 25.7-25.7 39.9-59.9 39.9-96.2 0-36.3-14.2-70.5-39.9-96.2-25.7-25.7-59.9-39.9-96.2-39.9s-70.5 14.2-96.2 39.9l-96.3 96.2zM311.1 284.7c-36.3 0-70.5 14.2-96.2 39.9-25.7 25.7-39.9 59.9-39.9 96.2 0 36.3 14.2 70.5 39.9 96.2 53.1 53.1 139.4 53.1 192.5 0l96.2-96.2-96.2-96.2c-25.8-25.7-59.9-39.9-96.3-39.9z"></path>
  <path class="st3" d="M562 470.2L461.2 571c-83 83-217.5 83-300.5 0s-83-217.5 0-300.5 217.5-83 300.5 0L625.6 435l86.2 86.1c55.4 55.4 145.1 55.4 200.5 0s55.4-145.1 0-200.5-145.1-55.4-200.5 0L611.5 420.8"></path>
  <path class="st3" d="M558.2 466.4L457.4 567.2c-80.9 80.9-212 80.9-292.9 0s-80.9-212 0-292.9 212-80.9 292.9 0l164.4 164.4 86.2 86.1c57.5 57.5 150.7 57.5 208.1 0 57.5-57.5 57.5-150.7 0-208.1-57.5-57.5-150.7-57.5-208.1 0L607.7 417"></path>
  <path class="st3" d="M554.4 462.6L453.6 563.4c-78.8 78.8-206.5 78.8-285.2 0s-78.8-206.5 0-285.2 206.5-78.8 285.2 0L618 442.6l86.2 86.2c59.6 59.6 156.2 59.6 215.8 0s59.6-156.2 0-215.8-156.2-59.6-215.8 0L603.9 413.2"></path>
  <path class="st3" d="M550.6 458.8L449.8 559.6c-76.7 76.7-200.9 76.7-277.6 0s-76.7-200.9 0-277.6 200.9-76.7 277.6 0l164.4 164.4 86.2 86.2c61.7 61.7 161.7 61.7 223.4 0s61.7-161.7 0-223.4-161.7-61.7-223.4 0L600.1 409.4"></path>
  <path class="st3" d="M546.8 455L446 555.8c-74.5 74.5-195.4 74.5-269.9 0s-74.5-195.4 0-269.9 195.4-74.5 269.9 0l164.3 164.3 86.2 86.2c63.8 63.8 167.2 63.8 231 0s63.8-167.2 0-231-167.2-63.8-231 0L596.3 405.6"></path>
  <path class="st3" d="M543 451.2L442.3 551.9c-72.4 72.4-189.9 72.4-262.3 0s-72.4-189.9 0-262.3 189.9-72.4 262.3 0l164.3 164.3 86.2 86.2c65.9 65.9 172.7 65.9 238.6 0s65.9-172.7 0-238.6-172.7-65.9-238.6 0L592.5 401.8"></path>
  <path class="st3" d="M539.2 447.4L438.5 548.1c-70.3 70.3-184.3 70.3-254.7 0s-70.3-184.3 0-254.7 184.3-70.3 254.7 0l164.3 164.3L689 544c68 68 178.3 68 246.3 0s68-178.3 0-246.3-178.3-68-246.3 0L588.7 398"></path>
  <path class="st3" d="M535.4 443.6L434.7 544.3c-68.2 68.2-178.8 68.2-247 0s-68.2-178.8 0-247 178.8-68.2 247 0l125.1 125.1 39.1 39.1 86.2 86.2c70.1 70.1 183.8 70.1 253.9 0s70.1-183.8 0-253.9-183.8-70.1-253.9 0L584.9 394.2"></path>
  <path class="st3" d="M531.6 439.8L430.9 540.5c-66.1 66.1-173.3 66.1-239.4 0s-66.1-173.3 0-239.4 173.3-66.1 239.4 0l164.3 164.3 86.3 86.2c72.2 72.2 189.3 72.2 261.5 0s72.2-189.3 0-261.5-189.3-72.2-261.5 0L581.1 390.4"></path>
  <path class="st3" d="M527.8 436L427.1 536.7c-64 64-167.8 64-231.7 0s-64-167.8 0-231.7 167.8-64 231.7 0l164.2 164.2 86.3 86.3c74.3 74.3 194.8 74.3 269.1 0s74.3-194.8 0-269.1-194.8-74.3-269.1 0L577.3 386.6"></path>
  <path class="st3" d="M524 432.2L423.3 532.8c-61.9 61.9-162.2 61.9-224.1 0s-61.9-162.2 0-224.1 162.2-61.9 224.1 0l164.2 164.2 86.3 86.3c76.4 76.4 200.3 76.4 276.8 0s76.4-200.3 0-276.8-200.3-76.4-276.8 0L573.5 382.8"></path>
  <path class="st3" d="M520.2 428.4L419.6 529c-59.8 59.8-156.7 59.8-216.5 0s-59.8-156.7 0-216.5 156.7-59.8 216.5 0l164.2 164.2L670 563c78.5 78.5 205.9 78.5 284.4 0 78.5-78.5 78.5-205.9 0-284.4-78.5-78.5-205.9-78.5-284.4 0L569.7 379"></path>
  <path class="st3" d="M516.4 424.6L415.8 525.2c-57.7 57.7-151.2 57.7-208.8 0s-57.7-151.2 0-208.8 151.2-57.7 208.8 0L580 480.6l86.3 86.3c80.6 80.6 211.4 80.6 292 0s80.6-211.4 0-292-211.4-80.6-292 0L565.9 375.2"></path>
  <path class="st3" d="M512.6 420.8L412 521.4c-55.6 55.6-145.6 55.6-201.2 0s-55.6-145.6 0-201.2 145.6-55.6 201.2 0l164.1 164.1 86.3 86.3c82.7 82.7 216.9 82.7 299.6 0s82.7-216.9 0-299.6-216.9-82.7-299.6 0L562 371.4"></path>
  <path class="st4" d="M769.6 412.4c-.3 0-.7 0-.9.1l-.2-.2c-.3-1.5-.7-3.5-.9-5.3l.1-.1c.3-.1.6-.3 1.1-.3.6 1.4 1.1 2.6 1.7 3.4.8 1 1.9 1.5 3.7 1.5 1.9 0 3.7-1.2 3.7-3.4 0-2.3-1.2-2.9-4.4-4.4-3.5-1.6-5.4-2.8-5.4-5.9 0-3 2.8-5.1 6.4-5.1 1.4 0 3 .4 4 .4.2 0 .5 0 .7-.1l.2.2c.1 1.5.3 3.1.3 4.5l-.1.1c-.3.1-.6.2-1 .2-.2-1-.5-1.9-1.1-2.6-.7-.9-1.8-1.3-3.3-1.3-2.1 0-3.6 1.2-3.6 3 0 2.2 1.9 3.1 4.4 4.3 3.2 1.4 5.3 2.6 5.3 5.7 0 3.3-2.5 5.8-6.4 5.8-1.3-.1-2.9-.5-4.3-.5zM782.9 406.2c0-4.2 2.8-6.9 6.8-6.9 3.6 0 6 2.5 6 6.4 0 4.4-2.8 7.1-6.3 7.1-4.2 0-6.5-2.7-6.5-6.6zm10.2 0c0-3.8-1.5-5.6-3.6-5.6-3 0-4 2.8-4 5.2 0 3.3 1.4 5.6 4 5.6 2.8 0 3.6-3 3.6-5.2zM798.1 406.2c0-4 2.9-6.9 7-6.9 2.6 0 4.2 1 4.2 2.2 0 .8-.5 1.5-1.5 2.1l-.4-.1c-.9-2.1-1.7-2.9-3-2.9-2.4 0-4 2.1-4 5 0 3.2 2.1 5.4 4.7 5.4 1.6 0 2.8-.7 3.8-1.7.1.4.2.8.2 1.2l-.1.2c-1 1.2-2.6 2.1-4.6 2.1-3.9 0-6.3-2.5-6.3-6.6zM811.7 411.4l1.4-.4c.2-.1.3-.1.3-.5v-4.8-3.9c0-.3-.1-.4-.4-.5-.5-.1-1.1-.2-1.8-.2 0-.3 0-.7.1-.9l.2-.1c1.1-.3 2.7-.7 4.1-.9l.4.1v11.3c0 .3.1.4.4.5.5.1 1.1.3 1.5.3 0 .4-.1.8-.2 1l-.1.1c-.8-.1-2-.1-2.8-.1-1 0-2.3.1-3.2.1-.1-.4 0-.8.1-1.1zm1.3-17.1c0-1 .7-1.7 1.6-1.7.9 0 1.5.7 1.5 1.7 0 1.1-.7 1.7-1.6 1.7-.8 0-1.5-.6-1.5-1.7zM819.7 406.2c0-3.9 2.7-6.9 6.4-6.9 3 0 4.7 1.9 4.7 4.4 0 .6-.1 1.2-.3 1.5l-.3.3-8.1-.3v.5c0 2.9 1.9 5.2 4.9 5.2 1.2 0 2.4-.6 3.5-1.5.2.4.2.8.2 1.2l-.1.2c-1 1-2.4 1.9-4.7 1.9-4 .1-6.2-2.6-6.2-6.5zm8.3-2.1c.1-.2.1-.5.1-.8 0-1.5-.8-2.7-2.4-2.7-2 0-3.1 1.6-3.5 3.5h5.8zM834.6 409.2c0-2.2.1-4.9.1-7.5 0-.2-.1-.3-.3-.3h-2c0-.4 0-.8.1-1.1l.1-.1c.4-.1 1.3-.3 1.8-.4.3-.1.4-.2.5-.5.2-.8.5-2 .7-3l.1-.1h1.5c0 1.3-.1 2.6-.1 3.6.3-.1.8-.1 1.1-.1h3.3c-.1.5-.2 1.1-.3 1.5l-.2.1-3.9-.1c-.1 2.6-.1 5.4-.1 7.8 0 1.6.4 2.1 1.9 2.1.7 0 1.6-.2 2.6-.5 0 .3 0 .8-.1 1.1l-.1.1c-1.1.5-2.2.8-3.4.8-2.4.2-3.3-.8-3.3-3.4zM843 409.6c0-1.8 1.3-3.1 4.6-3.9.9-.2 1.9-.4 2.6-.5v-1.4c0-2.1-.9-2.8-2.6-2.8-1.3 0-3 .5-4.2 1.3-.1-.2-.1-.5-.1-.7 0-.3 0-.5.1-.7l.1-.2c1.5-.8 3.3-1.4 5-1.4 2.9 0 4.1 1.1 4 4 0 1.2-.1 4.1-.1 6.3 0 .9.3 1.3 1 1.4h1.6c0 .3 0 .8-.1 1l-.1.1c-.6.4-1.4.6-2.2.6-1.5 0-2.2-.8-2.3-2h-.1c-1 1-2.3 2-3.8 2-1.7.1-3.4-1-3.4-3.1zm7.2.3c.1-.5.1-1.3.1-1.9v-1.6c-.6.1-1.5.3-2.1.5-1.9.5-2.5 1.3-2.5 2.2 0 1.1.9 1.7 2 1.7.9 0 1.7-.3 2.5-.9zM856.7 411.4l.1-.1c.4-.1.9-.2 1.3-.3.2-.1.3-.1.3-.5v-8.7-7.7c0-.3-.2-.4-.4-.5-.4-.1-1-.2-1.7-.2 0-.3 0-.7.1-.9l.1-.1c1.2-.4 2.8-.8 4.1-1l.4.1c-.1 3.8-.1 6.9-.1 10.3v8.7c0 .3.1.4.4.5.5.1 1.2.3 1.5.3 0 .4-.1.8-.2 1.1l-.1.1c-.8-.1-2.1-.1-2.9-.1-.9 0-2.2.1-3.1.1.1-.4.1-.7.2-1.1zM752.3 442.5l.1-.1c.3-.1.9-.2 1.4-.3.3-.1.3-.2.3-.5v-8.5-7.1c0-.3-.1-.4-.3-.5-.4-.1-1.1-.2-1.7-.3 0-.4.1-.9.1-1.1l.1-.1c.9 0 2.1.1 3.2.1s2.7-.1 3.8-.1c2.6 0 4.3.4 5.5 1.3 1.4 1 1.9 2.5 1.9 4.1 0 2.3-1.1 4-2.7 5-1.3.8-2.9 1.2-4.6 1.2-1.1 0-2-.1-2.5-.1v6.2c0 .3.1.4.3.4.7.1 1.7.3 2.3.4 0 .4-.1.8-.2 1.1l-.1.1c-.8-.1-2.5-.1-3.8-.1-1.1 0-2.3 0-3.4.1.2-.4.2-.8.3-1.2zm10.4-9.3c.7-.8 1.2-1.9 1.2-3.5 0-1.4-.4-2.6-1.1-3.3-.8-.8-2-1-3.7-1-.7 0-1.2.1-1.6.2-.2.1-.4.2-.4.6v8c.7.1 1.3.3 2.3.3 1.3-.2 2.5-.6 3.3-1.3zM769 442.5l.1-.1c.5-.1.9-.3 1.3-.4.2-.1.3-.2.3-.7v-3.8c0-1.3 0-3.4-.1-4.8 0-.2-.1-.3-.4-.4-.4-.1-1.1-.2-1.8-.2 0-.3 0-.7.1-.9l.2-.1c1.1-.4 2.6-.7 3.8-.9l.4.1.1 2.6h.1c2.1-2 3.3-2.6 4.3-2.6.8 0 1.3.4 1.3 1.1 0 .6-.3 1.4-.7 2.1h-.2c-.6-.5-1.2-.8-1.9-.8-1.3 0-2 .5-2.8 1.4v3.5c0 1.5 0 2.7.1 3.8 0 .3.1.5.4.5 1 .2 1.7.3 2.1.3 0 .5-.1.9-.2 1.1l-.1.1c-.7-.1-2.2-.1-3.5-.1-1.4 0-2.4.1-3.2.1.1-.2.2-.6.3-.9zM779.9 437.3c0-4.2 2.8-6.9 6.8-6.9 3.6 0 6 2.5 6 6.4 0 4.4-2.8 7.1-6.3 7.1-4.2 0-6.5-2.7-6.5-6.6zm10.2 0c0-3.8-1.5-5.6-3.6-5.6-3 0-4 2.8-4 5.2 0 3.3 1.4 5.6 4 5.6 2.8 0 3.6-3 3.6-5.2zM795.6 443.4c-.2-1.3-.4-2.6-.5-3.8l.1-.1c.2-.1.5-.3.9-.3.2.6.5 1.2.8 1.8.6 1.1 1.7 1.7 3 1.7s2.4-.7 2.4-1.8c0-1.5-1.4-2-3.2-2.8-2.1-.9-3.7-1.7-3.7-4.1 0-1.9 1.9-3.6 4.7-3.6 1 0 2.1.2 2.8.2.3 0 .5 0 .7-.1l.2.1c.1 1 .1 2.3.1 3.4l-.1.1c-.3.2-.7.3-1 .3-.1-.5-.2-.8-.3-1.2-.5-1.3-1.2-1.7-2.6-1.7-1.5 0-2.3.7-2.3 1.8 0 1.3.7 1.7 2.8 2.5 2 .9 4 1.5 4 4 0 2.2-2 4-4.6 4-1.1 0-2.5-.4-3.6-.4h-.6zM806.3 450.3l.1-.1c.4-.1 1-.2 1.5-.4.2-.1.3-.2.3-.7v-8.2-8.2c0-.2-.1-.3-.4-.4-.5-.1-1.1-.2-1.8-.2 0-.3 0-.7.1-.9l.1-.1c1.2-.4 2.6-.7 3.8-.9l.4.1.1 1.7h.1c1-.8 2.6-1.7 4.4-1.7 2.9 0 5.4 2.4 5.4 6.3 0 4.2-2.9 7.2-6.9 7.2-1.3 0-2.3-.2-2.8-.4v5.8c0 .3.1.5.4.6.8.1 1.9.3 2.6.3 0 .5-.1.9-.2 1.1l-.1.1c-.7-.1-2.6-.1-3.8-.1-1.4 0-2.5.1-3.4.1 0-.3 0-.7.1-1zm11.6-13.1c0-3.6-1.9-5.1-4.1-5.1-1 0-2.1.4-3 1.1V441.6c.8.6 1.9 1 3.1 1 2.4 0 4-2.3 4-5.4zM822.9 437.3c0-3.9 2.7-6.9 6.4-6.9 3 0 4.7 1.9 4.7 4.4 0 .6-.1 1.2-.3 1.5l-.3.3-8.1-.3v.5c0 2.9 1.9 5.2 4.9 5.2 1.2 0 2.4-.6 3.5-1.5.2.4.2.8.2 1.2l-.1.2c-1 1-2.4 1.9-4.7 1.9-3.9.1-6.2-2.5-6.2-6.5zm8.3-2.1c.1-.2.1-.5.1-.8 0-1.5-.8-2.7-2.4-2.7-2 0-3.1 1.6-3.5 3.5h5.8zM836.5 442.5l.1-.1c.5-.1.9-.3 1.3-.4.2-.1.3-.2.3-.7v-3.8c0-1.3 0-3.4-.1-4.8 0-.2-.1-.3-.4-.4-.4-.1-1.1-.2-1.8-.2 0-.3 0-.7.1-.9l.2-.1c1.1-.4 2.6-.7 3.8-.9l.4.1.1 2.6h.1c2.1-2 3.3-2.6 4.3-2.6.8 0 1.3.4 1.3 1.1 0 .6-.3 1.4-.7 2.1h-.2c-.6-.5-1.2-.8-1.9-.8-1.3 0-2 .5-2.8 1.4v3.5c0 1.5 0 2.7.1 3.8 0 .3.1.5.4.5 1 .2 1.7.3 2.1.3 0 .5-.1.9-.2 1.1l-.1.1c-.7-.1-2.2-.1-3.5-.1-1.4 0-2.4.1-3.2.1.1-.2.2-.6.3-.9zM848.1 442.5l1.4-.4c.2-.1.3-.1.3-.5v-4.8-3.9c0-.3-.1-.4-.4-.5-.5-.1-1.1-.2-1.8-.2 0-.3 0-.7.1-.9l.2-.1c1.1-.3 2.7-.7 4.1-.9l.4.1v11.3c0 .3.1.4.4.5.5.1 1.1.3 1.5.3 0 .4-.1.8-.2 1l-.1.1c-.8-.1-2-.1-2.8-.1-1 0-2.3.1-3.2.1 0-.4 0-.8.1-1.1zm1.4-17.1c0-1 .7-1.7 1.6-1.7.9 0 1.5.7 1.5 1.7 0 1.1-.7 1.7-1.6 1.7-.8 0-1.5-.6-1.5-1.7zM857.5 440.3c0-2.2.1-4.9.1-7.5 0-.2-.1-.3-.3-.3h-2c0-.4 0-.8.1-1.1l.1-.1c.4-.1 1.3-.3 1.8-.4.3-.1.4-.2.5-.5.2-.8.5-2 .7-3l.1-.1h1.5c0 1.3-.1 2.6-.1 3.6.3-.1.8-.1 1.1-.1h3.3c-.1.5-.2 1.1-.3 1.5l-.2.1-3.9-.1c-.1 2.6-.1 5.4-.1 7.8 0 1.6.4 2.1 1.9 2.1.7 0 1.6-.2 2.6-.5 0 .3 0 .8-.1 1.1l-.1.1c-1.1.5-2.2.8-3.4.8-2.4.2-3.3-.8-3.3-3.4zM866.7 451v-.5c2.2-1.1 3.9-3.1 5.4-6.2l.3-.7c-.3 0-.6 0-.9-.1l-.2-.1-4.1-10.1c-.3-.9-.5-1.1-.9-1.2-.2-.1-.7-.1-1-.2 0-.3 0-.7.1-1.1l.1-.1c.8.1 2.1.1 2.9.1 1 0 2.6 0 3.4-.1 0 .3 0 .7-.1 1.1l-.1.1c-.5.1-1 .1-1.4.2-.3.1-.5.2-.5.5 0 .5.5 1.4.9 2.6l1.4 3.8c.3.9.8 2.1 1 2.7h.1l2.1-5.4c.7-1.8 1.1-3 1.1-3.5 0-.3-.2-.5-.5-.7-.4-.1-.9-.2-1.4-.3 0-.3.1-.7.2-1.1l.1-.1c.8 0 1.9.1 2.8.1 1 0 2.2 0 2.7-.1 0 .5-.1.8-.1 1.1l-.1.1c-.3 0-.7.1-.8.2-.4.1-.7.5-1.1 1.5l-3.8 9.2c-1.1 2.7-2.3 5.3-3.2 7.3-.7 1.3-1.2 1.6-1.9 1.6-1 0-1.9-.3-2.5-.6z"></path>
  <g>
    <path class="st4" d="M251.6 413.8l.1-.1c.4-.1 1-.2 1.5-.3.3-.1.3-.2.3-.4.1-2.1 0-4.8 0-8.2v-7.5c0-.3-.1-.4-.3-.4-.7-.1-1.3-.2-1.8-.3 0-.4.1-.9.2-1.2l.1-.1c.8.1 2 .1 3.2.1 1.1 0 2.3 0 3.5-.1 0 .3 0 .8-.1 1.2l-.1.1c-.5.1-1.1.1-1.5.2-.3.1-.3.2-.3.5V413c0 .3.1.4.3.4.7.1 1.5.3 1.9.3 0 .4-.1.9-.2 1.1l-.1.1c-.8-.1-2-.1-3.2-.1-1.1 0-2.4 0-3.5.1-.1-.4 0-.9 0-1.1zM260.9 413.8l.1-.1c.4-.1.9-.2 1.2-.3.2-.1.3-.1.3-.5v-4c0-1.3 0-3.6-.1-4.8 0-.2-.1-.3-.4-.4-.5-.1-1.2-.2-1.8-.2 0-.3 0-.7.1-.9l.2-.1c1.1-.4 2.6-.7 3.8-.9l.4.1.1 1.7h.1c1.7-.9 3.3-1.6 4.7-1.6 2.2 0 3.8 1.2 3.8 4.2 0 2.1-.1 4.9-.1 7 0 .3.1.5.5.6.4.1 1 .2 1.4.3 0 .4-.1.8-.2 1.1l-.1.1c-.7-.1-1.8-.1-2.8-.1-.8 0-2.1.1-2.9.1 0-.4.1-.8.1-1.1l.1-.1c.3-.1.7-.1 1.1-.3.3-.1.4-.2.4-.6 0-1.8.1-4 .1-6.2 0-2.4-1-3.2-2.6-3.2-1.1 0-2.3.4-3.3 1v8.5c0 .4.1.5.4.6.3.1.9.2 1.5.3 0 .3-.1.7-.2 1.1l-.1.1c-.7-.1-1.8-.1-2.8-.1-.9 0-2.3.1-3.1.1 0-.7 0-1.2.1-1.4zM287.7 415.1c-.2-.7-.4-1.4-.5-1.8h-.1c-1.1 1-2.3 1.8-4.1 1.8-3.4 0-5.8-2.4-5.8-6.4 0-4.2 2.9-7.1 7.2-7.1 1 0 2.1.2 2.5.4 0-2 0-3.6-.1-5.5 0-.3-.2-.4-.4-.5-.4-.1-1-.2-1.7-.2 0-.3 0-.6.1-.9l.2-.1c1.3-.5 2.8-.8 4.1-1l.4.1c-.1 3.2-.1 6.5-.1 9.9 0 3.3 0 7.1.1 9 0 .5.2.7.6.7.6.1 1.2.1 1.7.1 0 .4-.1.8-.1 1l-.1.1c-1.5.2-2.8.4-3.6.6l-.3-.2zm-.6-3c-.1-1.1-.1-2.3-.1-4.1v-4c-.6-.7-1.7-1.1-2.9-1.1-2.5 0-4.2 1.9-4.2 5.2 0 3 1.6 5.2 4.2 5.2 1.2 0 2.2-.3 3-1.2zM293.8 413.8l1.4-.4c.2-.1.3-.1.3-.5v-4.8-3.9c0-.3-.1-.4-.4-.5-.5-.1-1.1-.2-1.8-.2 0-.3 0-.7.1-.9l.2-.1c1.1-.3 2.7-.7 4.1-.9l.4.1V413c0 .3.1.4.4.5.5.1 1.1.3 1.5.3 0 .4-.1.8-.2 1l-.1.1c-.8-.1-2-.1-2.8-.1-1 0-2.3.1-3.2.1 0-.5 0-.9.1-1.1zm1.3-17.2c0-1 .7-1.7 1.6-1.7.9 0 1.5.7 1.5 1.7 0 1.1-.7 1.7-1.6 1.7-.8 0-1.5-.6-1.5-1.7zM305.5 411.5l-3-6.8c-.5-1.1-.6-1.3-1.1-1.4-.4-.1-.9-.2-1.1-.2 0-.4.1-.7.1-1.1l.1-.1c.8.1 2 .1 3 .1.9 0 2.6 0 3.4-.1 0 .5-.1.8-.1 1.1l-.1.1c-.4.1-.9.1-1.3.2-.3.1-.5.3-.5.5 0 .5.5 1.3.8 2.2l1.4 3.3c.4.9.7 1.7 1.1 2.6h.1l2.5-5.6c.5-1.2.7-1.8.7-2.2 0-.3-.2-.6-.5-.7-.4-.1-.9-.2-1.4-.3 0-.3 0-.7.1-1l.1-.1c.9 0 2 .1 2.9.1.7 0 1.8 0 2.6-.1 0 .3-.1.8-.1 1.1l-.1.1c-.2 0-.5.1-.8.2-.5.1-.8.4-1.2 1.2l-3.6 7.8c-.3.8-.7 1.6-1 2.4l-.2.2c-.4.1-1.1.1-1.4.1-.2-1.1-.7-2.1-1.4-3.6zM317.2 413.8l1.4-.4c.2-.1.3-.1.3-.5v-4.8-3.9c0-.3-.1-.4-.4-.5-.5-.1-1.1-.2-1.8-.2 0-.3 0-.7.1-.9l.2-.1c1.1-.3 2.7-.7 4.1-.9l.4.1V413c0 .3.1.4.4.5.5.1 1.1.3 1.5.3 0 .4-.1.8-.2 1l-.1.1c-.8-.1-2-.1-2.8-.1-1 0-2.3.1-3.2.1 0-.5 0-.9.1-1.1zm1.4-17.2c0-1 .7-1.7 1.6-1.7.9 0 1.5.7 1.5 1.7 0 1.1-.7 1.7-1.6 1.7-.8 0-1.5-.6-1.5-1.7zM335.7 415.1c-.2-.7-.4-1.4-.5-1.8h-.1c-1.1 1-2.3 1.8-4.1 1.8-3.4 0-5.8-2.4-5.8-6.4 0-4.2 2.9-7.1 7.2-7.1 1 0 2.1.2 2.5.4 0-2 0-3.6-.1-5.5 0-.3-.2-.4-.4-.5-.4-.1-1-.2-1.7-.2 0-.3 0-.6.1-.9l.2-.1c1.3-.5 2.8-.8 4.1-1l.4.1c-.1 3.2-.1 6.5-.1 9.9 0 3.3 0 7.1.1 9 0 .5.2.7.6.7.6.1 1.2.1 1.7.1 0 .4-.1.8-.1 1l-.1.1c-1.5.2-2.8.4-3.6.6l-.3-.2zm-.7-3c-.1-1.1-.1-2.3-.1-4.1v-4c-.6-.7-1.7-1.1-2.9-1.1-2.5 0-4.2 1.9-4.2 5.2 0 3 1.6 5.2 4.2 5.2 1.2 0 2.2-.3 3-1.2zM351.5 415.1c-.2-.5-.4-1.3-.5-2h-.1c-1.3 1.2-2.6 1.9-4.2 1.9-2.7 0-4.2-1.3-4.2-4.2v-7c0-.3-.1-.3-.3-.4-.5-.1-1.3-.1-1.8-.2 0-.3.1-.7.1-1l.1-.1c1.2-.3 2.8-.5 4-.6l.3.2c-.1 1.1-.1 2.1-.1 3v5.7c0 1.9 1 2.7 2.6 2.7 1.1 0 2.3-.5 3.2-1.5v-4-4c0-.3-.1-.3-.3-.4-.5-.1-1.3-.1-1.8-.2 0-.3.1-.7.1-1l.1-.1c1.2-.3 2.8-.5 4-.6l.3.2c-.1 1.8-.1 3.9-.1 5.9 0 2.1 0 3.6.1 5 0 .4.2.7.4.7.6.1 1.3.1 1.8.1 0 .4-.1.8-.1 1l-.1.1c-1.2.1-2.3.3-3.6.6l.1.2zM357.3 412c0-1.8 1.3-3.1 4.6-3.9.9-.2 1.9-.4 2.6-.5v-1.4c0-2.1-.9-2.8-2.6-2.8-1.3 0-3 .5-4.2 1.3-.1-.2-.1-.5-.1-.7 0-.3 0-.5.1-.7l.1-.2c1.5-.8 3.3-1.4 5-1.4 2.9 0 4.1 1.1 4 4 0 1.2-.1 4.1-.1 6.3 0 .9.3 1.3 1 1.4h1.6c0 .3 0 .8-.1 1l-.1.1c-.6.4-1.4.6-2.2.6-1.5 0-2.2-.8-2.3-2h-.1c-1 1-2.3 2-3.8 2-1.7 0-3.4-1.1-3.4-3.1zm7.1.3c.1-.5.1-1.3.1-1.9v-1.6c-.6.1-1.5.3-2.1.5-1.9.5-2.5 1.3-2.5 2.2 0 1.1.9 1.7 2 1.7 1 0 1.8-.4 2.5-.9zM371 413.8l.1-.1c.4-.1.9-.2 1.3-.3.2-.1.3-.1.3-.5v-8.7-7.7c0-.3-.2-.4-.4-.5-.4-.1-1-.2-1.7-.2 0-.3 0-.7.1-.9l.1-.1c1.2-.4 2.8-.8 4.1-1l.4.1c-.1 3.8-.1 6.9-.1 10.3v8.7c0 .3.1.4.4.5.5.1 1.2.3 1.5.3 0 .4-.1.8-.2 1.1l-.1.1c-.8-.1-2.1-.1-2.9-.1-.9 0-2.2.1-3.1.1 0-.5.1-.8.2-1.1zM251.2 444.8l.1-.1c.3-.1.9-.2 1.4-.3.3-.1.3-.2.3-.5v-8.5-7.1c0-.3-.1-.4-.3-.5-.4-.1-1.1-.2-1.7-.3 0-.4.1-.9.1-1.1l.1-.1c.9 0 2.1.1 3.2.1s2.7-.1 3.8-.1c2.6 0 4.3.4 5.5 1.3 1.4 1 1.9 2.5 1.9 4.1 0 2.3-1.1 4-2.7 5-1.3.8-2.9 1.2-4.6 1.2-1.1 0-2-.1-2.5-.1v6.2c0 .3.1.4.3.4.7.1 1.7.3 2.3.4 0 .4-.1.8-.2 1.1l-.1.1c-.8-.1-2.5-.1-3.8-.1-1.1 0-2.3 0-3.4.1.2-.4.2-.8.3-1.2zm10.4-9.3c.7-.8 1.2-1.9 1.2-3.5 0-1.4-.4-2.6-1.1-3.3-.8-.8-2-1-3.7-1-.7 0-1.2.1-1.6.2-.2.1-.4.2-.4.6v8c.7.1 1.3.3 2.3.3 1.4-.2 2.6-.5 3.3-1.3zM267.9 444.9l.1-.1c.5-.1.9-.3 1.3-.4.2-.1.3-.2.3-.7V440c0-1.3 0-3.4-.1-4.8 0-.2-.1-.3-.4-.4-.4-.1-1.1-.2-1.8-.2 0-.3 0-.7.1-.9l.2-.1c1.1-.4 2.6-.7 3.8-.9l.4.1.1 2.6h.1c2.1-2 3.3-2.6 4.3-2.6.8 0 1.3.4 1.3 1.1 0 .6-.3 1.4-.7 2.1h-.2c-.6-.5-1.2-.8-1.9-.8-1.3 0-2 .5-2.8 1.4v3.5c0 1.5 0 2.7.1 3.8 0 .3.1.5.4.5 1 .2 1.7.3 2.1.3 0 .5-.1.9-.2 1.1l-.1.1c-.7-.1-2.2-.1-3.5-.1-1.4 0-2.4.1-3.2.1.2-.4.2-.8.3-1zM278.9 439.6c0-4.2 2.8-6.9 6.8-6.9 3.6 0 6 2.5 6 6.4 0 4.4-2.8 7.1-6.3 7.1-4.2 0-6.5-2.7-6.5-6.6zm10.2 0c0-3.8-1.5-5.6-3.6-5.6-3 0-4 2.8-4 5.2 0 3.3 1.4 5.6 4 5.6 2.7.1 3.6-3 3.6-5.2zM294.6 445.7c-.2-1.3-.4-2.6-.5-3.8l.1-.1c.2-.1.5-.3.9-.3.2.6.5 1.2.8 1.8.6 1.1 1.7 1.7 3 1.7s2.4-.7 2.4-1.8c0-1.5-1.4-2-3.2-2.8-2.1-.9-3.7-1.7-3.7-4.1 0-1.9 1.9-3.6 4.7-3.6 1 0 2.1.2 2.8.2.3 0 .5 0 .7-.1l.2.1c.1 1 .1 2.3.1 3.4l-.1.1c-.3.2-.7.3-1 .3-.1-.5-.2-.8-.3-1.2-.5-1.3-1.2-1.7-2.6-1.7-1.5 0-2.3.7-2.3 1.8 0 1.3.7 1.7 2.8 2.5 2 .9 4 1.5 4 4 0 2.2-2 4-4.6 4-1.1 0-2.5-.4-3.6-.4h-.6zM305.3 452.7l.1-.1c.4-.1 1-.2 1.5-.4.2-.1.3-.2.3-.7v-8.2-8.2c0-.2-.1-.3-.4-.4-.5-.1-1.1-.2-1.8-.2 0-.3 0-.7.1-.9l.1-.1c1.2-.4 2.6-.7 3.8-.9l.4.1.1 1.7h.1c1-.8 2.6-1.7 4.4-1.7 2.9 0 5.4 2.4 5.4 6.3 0 4.2-2.9 7.2-6.9 7.2-1.3 0-2.3-.2-2.8-.4v5.8c0 .3.1.5.4.6.8.1 1.9.3 2.6.3 0 .5-.1.9-.2 1.1l-.1.1c-.7-.1-2.6-.1-3.8-.1-1.4 0-2.5.1-3.4.1-.1-.4 0-.8.1-1zm11.5-13.1c0-3.6-1.9-5.1-4.1-5.1-1 0-2.1.4-3 1.1V444c.8.6 1.9 1 3.1 1 2.5-.1 4-2.4 4-5.4zM321.9 439.6c0-3.9 2.7-6.9 6.4-6.9 3 0 4.7 1.9 4.7 4.4 0 .6-.1 1.2-.3 1.5l-.3.3-8.1-.3v.5c0 2.9 1.9 5.2 4.9 5.2 1.2 0 2.4-.6 3.5-1.5.2.4.2.8.2 1.2l-.1.2c-1 1-2.4 1.9-4.7 1.9-3.9.1-6.2-2.5-6.2-6.5zm8.3-2.1c.1-.2.1-.5.1-.8 0-1.5-.8-2.7-2.4-2.7-2 0-3.1 1.6-3.5 3.5h5.8zM335.4 444.9l.1-.1c.5-.1.9-.3 1.3-.4.2-.1.3-.2.3-.7V440c0-1.3 0-3.4-.1-4.8 0-.2-.1-.3-.4-.4-.4-.1-1.1-.2-1.8-.2 0-.3 0-.7.1-.9l.2-.1c1.1-.4 2.6-.7 3.8-.9l.4.1.1 2.6h.1c2.1-2 3.3-2.6 4.3-2.6.8 0 1.3.4 1.3 1.1 0 .6-.3 1.4-.7 2.1h-.2c-.6-.5-1.2-.8-1.9-.8-1.3 0-2 .5-2.8 1.4v3.5c0 1.5 0 2.7.1 3.8 0 .3.1.5.4.5 1 .2 1.7.3 2.1.3 0 .5-.1.9-.2 1.1l-.1.1c-.7-.1-2.2-.1-3.5-.1-1.4 0-2.4.1-3.2.1.2-.4.3-.8.3-1zM347.1 444.9l1.4-.4c.2-.1.3-.1.3-.5v-4.8-3.9c0-.3-.1-.4-.4-.5-.5-.1-1.1-.2-1.8-.2 0-.3 0-.7.1-.9l.2-.1c1.1-.3 2.7-.7 4.1-.9l.4.1v11.3c0 .3.1.4.4.5.5.1 1.1.3 1.5.3 0 .4-.1.8-.2 1l-.1.1c-.8-.1-2-.1-2.8-.1-1 0-2.3.1-3.2.1-.1-.5 0-.9.1-1.1zm1.3-17.1c0-1 .7-1.7 1.6-1.7.9 0 1.5.7 1.5 1.7 0 1.1-.7 1.7-1.6 1.7-.8-.1-1.5-.7-1.5-1.7zM356.5 442.6c0-2.2.1-4.9.1-7.5 0-.2-.1-.3-.3-.3h-2c0-.4 0-.8.1-1.1l.1-.1c.4-.1 1.3-.3 1.8-.4.3-.1.4-.2.5-.5.2-.8.5-2 .7-3l.1-.1h1.5c0 1.3-.1 2.6-.1 3.6.3-.1.8-.1 1.1-.1h3.3c-.1.5-.2 1.1-.3 1.5l-.2.1-3.9-.1c-.1 2.6-.1 5.4-.1 7.8 0 1.6.4 2.1 1.9 2.1.7 0 1.6-.2 2.6-.5 0 .3 0 .8-.1 1.1l-.1.1c-1.1.5-2.2.8-3.4.8-2.4.2-3.3-.8-3.3-3.4zM365.6 453.3v-.5c2.2-1.1 3.9-3.1 5.4-6.2l.3-.7c-.3 0-.6 0-.9-.1l-.2-.1-4.1-10.1c-.3-.9-.5-1.1-.9-1.2-.2-.1-.7-.1-1-.2 0-.3 0-.7.1-1.1l.1-.1c.8.1 2.1.1 2.9.1 1 0 2.6 0 3.4-.1 0 .3 0 .7-.1 1.1l-.1.1c-.5.1-1 .1-1.4.2-.3.1-.5.2-.5.5 0 .5.5 1.4.9 2.6l1.4 3.8c.3.9.8 2.1 1 2.7h.1l2.1-5.4c.7-1.8 1.1-3 1.1-3.5 0-.3-.2-.5-.5-.7-.4-.1-.9-.2-1.4-.3 0-.3.1-.7.2-1.1l.1-.1c.8 0 1.9.1 2.8.1 1 0 2.2 0 2.7-.1 0 .5-.1.8-.1 1.1l-.1.1c-.3 0-.7.1-.8.2-.4.1-.7.5-1.1 1.5l-3.8 9.2c-1.1 2.7-2.3 5.3-3.2 7.2-.7 1.3-1.2 1.6-1.9 1.6-1 .2-1.9-.2-2.5-.5z"></path>
  </g>
  <use xlink:href="#Nuovo_simbolo_2" width="100" height="100" id="XMLID_42_" x="-50" y="-50" transform="matrix(.8187 0 0 -.8187 808.255 243.713)" overflow="visible"></use>
  <use xlink:href="#Nuovo_simbolo_2" width="100" height="100" id="XMLID_44_" x="-50" y="-50" transform="matrix(.8187 0 0 -.8187 961.15 516.014)" overflow="visible"></use>
  <g>
    <circle class="st0" cx="647.6" cy="507" r="40.9"></circle>
    <path class="st1" d="M647.6 522.5c-8.6 0-15.5-7-15.5-15.5 0-8.6 7-15.5 15.5-15.5s15.5 7 15.5 15.5c.1 8.5-6.9 15.5-15.5 15.5zm0-30.2c-8.1 0-14.7 6.6-14.7 14.7s6.6 14.7 14.7 14.7 14.7-6.6 14.7-14.7-6.5-14.7-14.7-14.7z"></path>
    <circle class="st1" cx="647.6" cy="507" r="7.6"></circle>
  </g>
  <use xlink:href="#Nuovo_simbolo_2" width="100" height="100" id="XMLID_36_" x="-50" y="-50" transform="matrix(.8187 0 0 -.8187 475.127 334.37)" overflow="visible"></use>
  <use xlink:href="#Nuovo_simbolo_2" width="100" height="100" id="XMLID_35_" x="-50" y="-50" transform="matrix(.8187 0 0 -.8187 161.705 325.397)" overflow="visible"></use>
  <use xlink:href="#Nuovo_simbolo_2" width="100" height="100" id="XMLID_34_" x="-50" y="-50" transform="matrix(.8187 0 0 -.8187 313.923 598.178)" overflow="visible"></use>
  <g>
    <path class="st6" d="M353.2 331.1c11.6 4.8 22.6 12 32 21.4 38.6 38.6 38.6 101.1 0 139.7-6.3 6.3-13.2 11.5-20.5 15.8"></path>
    <path class="st0" d="M363.1 499.6l-8.9 13.7 16.3.8z"></path>
  </g>
  <g>
    <path class="st6" d="M274.2 512.2c-10.4-4.8-20.1-11.4-28.7-20-38.6-38.6-38.6-101.1 0-139.7 5.9-5.9 12.4-10.9 19.3-15"></path>
    <path class="st0" d="M266.6 345.9l8.7-13.8-16.4-.6z"></path>
  </g>
  <g>
    <path class="st6" d="M852.4 331.1c11.6 4.8 22.6 12 32 21.4 38.6 38.6 38.6 101.1 0 139.7-6.3 6.3-13.2 11.5-20.5 15.8"></path>
    <path class="st0" d="M862.3 499.6l-8.9 13.7 16.3.8z"></path>
  </g>
  <g>
    <path class="st6" d="M773.5 512.2c-10.4-4.8-20.1-11.4-28.7-20-38.6-38.6-38.6-101.1 0-139.7 5.9-5.9 12.4-10.9 19.3-15"></path>
    <path class="st0" d="M765.8 345.9l8.7-13.8-16.3-.6z"></path>
  </g>
  <path d="M3869 805.5l-96.2-96.2c-85.1-85.1-223.1-85.1-308.2 0s-85.1 223.1 0 308.2 223.1 85.1 308.2 0l96.2-96.2h0l96.2 96.2c85.1 85.1 223.1 85.1 308.2 0s85.1-223.1 0-308.2-223.1-85.1-308.2 0l-96.2 96.2h0z" fill="none" stroke="#fcfbf8" stroke-width="30" stroke-linejoin="round" stroke-miterlimit="10"></path>
  <g>
    <path d="M3852 455.7c-200.7-153.1-488.8-138-672.2 45.5-200 200-200 524.2 0 724.2 183.5 183.5 471.5 198.6 672.2 45.5 200.7 153.1 488.8 138 672.2-45.5 200-200 200-524.2 0-724.2-183.4-183.4-471.4-198.6-672.2-45.5z" fill="none" stroke="#fcfbf8" stroke-width="2.157" stroke-linejoin="round" stroke-miterlimit="10"></path>
  </g>
  <g>
    <defs>
      <path id="SVGID_1_" d="M0 0h1122.9v841.9H0z"></path>
    </defs>
    <clipPath id="SVGID_2_">
      <use xlink:href="#SVGID_1_" overflow="visible"></use>
    </clipPath>
    <g clip-path="url(#SVGID_2_)" fill="none" stroke="#fcfbf8" stroke-miterlimit="10">
      <path d="M803.6 864.8c-55.5 0-109.6-10.9-160.9-32.4-29.5-12.4-57.2-27.9-83-46.4-25.8 18.6-53.6 34.1-83 46.4-51.3 21.5-105.4 32.4-160.9 32.4s-109.6-10.9-160.9-32.4c-53.2-22.3-100.9-55-141.7-97.2-40.8-42.2-72.4-91.5-94-146.6-20.8-53.1-31.4-109.1-31.4-166.4s10.5-113.4 31.4-166.4c21.6-55.1 53.2-104.4 94-146.6C54 67 101.6 34.3 154.9 12c51.3-21.5 105.4-32.4 160.9-32.4S425.4-9.5 476.7 12c29.5 12.4 57.2 27.9 83 46.4 25.8-18.6 53.6-34.1 83-46.4C694-9.7 748.1-20.6 803.6-20.6S913.2-9.7 964.5 11.8c53.2 22.3 100.9 55 141.7 97.2 40.8 42.2 72.4 91.5 94 146.6 20.8 53.1 31.4 109.1 31.4 166.4s-10.5 113.4-31.4 166.4c-21.6 55.1-53.2 104.4-94 146.6-40.8 42.2-88.4 74.9-141.7 97.2-51.3 21.6-105.5 32.6-160.9 32.6z" stroke-width="11.457"></path>
      <path d="M818.5 793.8c-46.6 0-92-9.2-135.1-27.2-44.7-18.7-84.7-46.2-119-81.6l-4.8-5-4.8 5c-34.2 35.4-74.3 62.9-119 81.6-43.1 18.1-88.5 27.2-135.1 27.2-46.6 0-92-9.2-135.1-27.2-44.7-18.7-84.7-46.2-119-81.6-34.2-35.4-60.8-76.8-78.9-123.1-17.5-44.6-26.3-91.6-26.3-139.8s8.9-95.2 26.3-139.8c18.1-46.2 44.7-87.6 78.9-123.1 34.2-35.4 74.3-62.9 118.9-81.6 43.1-18.1 88.5-27.2 135.1-27.2 46.6 0 92 9.2 135.1 27.2 44.7 18.7 84.7 46.2 119 81.6l4.8 5 4.8-5c34.2-35.4 74.3-62.9 119-81.6 43.1-18.1 88.5-27.2 135.1-27.2 46.6 0 92 9.2 135.1 27.2 44.7 18.7 84.7 46.2 119 81.6 34.2 35.4 60.8 76.8 78.9 123.1 17.5 44.6 26.3 91.6 26.3 139.8s-8.9 95.2-26.3 139.8c-18.1 46.2-44.7 87.6-78.9 123.1-34.2 35.4-74.3 62.9-119 81.6-42.9 18-88.4 27.2-135 27.2z" stroke-width="24.32"></path>
      <path d="M820.8 739.4c-78.5 0-152.4-33-207.9-92.9L559.6 589l-53.2 57.4c-55.5 59.9-129.4 93-207.9 93s-152.4-33-207.9-93C35 586.5 4.4 506.8 4.4 422S35 257.6 90.5 197.6c55.5-59.9 129.4-93 207.9-93s152.4 33 207.9 93l53.2 57.4 53.2-57.4c55.5-59.9 129.4-93 207.9-93s152.4 33 207.9 93c55.5 59.9 86.1 139.6 86.1 224.4s-30.6 164.5-86.1 224.4c-55.3 60-129.2 93-207.7 93z" stroke-width="33.826"></path>
      <path d="M306.4 675.7c-62.8 0-125.6-24.7-173.5-74.2C86.6 553.6 61 489.8 61 422s25.5-131.5 71.9-179.5c46.3-47.9 107.9-74.3 173.5-74.3 65.5 0 127.1 26.4 173.5 74.3l79.7 82.5 79.7-82.5c95.7-99 251.3-99 347 0 46.3 47.9 71.9 111.7 71.9 179.5s-25.5 131.5-71.9 179.5c-95.7 99-251.3 99-347 0L559.6 519l-79.7 82.5c-47.8 49.5-110.7 74.2-173.5 74.2z" stroke-width="35.677"></path>
      <path d="M804.1 931.8c-63.9 0-126.2-12.6-185.3-37.3-20.5-8.6-40.2-18.5-59.2-29.7-19 11.2-38.7 21.1-59.2 29.7-59.1 24.8-121.4 37.4-185.3 37.4-63.9 0-126.2-12.6-185.3-37.4-61.3-25.7-116.2-63.4-163.2-112-46.9-48.6-83.4-105.4-108.2-168.8-24-61.1-36.1-125.6-36.1-191.7s12.1-130.5 36.1-191.7c25-63.3 61.4-120.1 108.4-168.7C13.7 13 68.6-24.6 130-50.4c59-24.7 121.4-37.3 185.2-37.3 63.9 0 126.2 12.6 185.3 37.4 20.5 8.6 40.2 18.5 59.2 29.7 19-11.2 38.7-21.1 59.2-29.7C678-75.1 740.3-87.7 804.2-87.7c63.9 0 126.2 12.6 185.3 37.4 61.3 25.7 116.2 63.4 163.2 112 46.9 48.6 83.4 105.4 108.2 168.8 24 61.1 36.1 125.6 36.1 191.7s-12.1 130.5-36.1 191.7c-24.9 63.4-61.3 120.2-108.2 168.8-46.9 48.6-101.8 86.2-163.2 112-59.3 24.6-121.6 37.1-185.4 37.1z" stroke-width="5.74"></path>
    </g>
  </g>
</svg>
