<?xml version="1.0" encoding="UTF-8"?>
<!-- Generator: Adobe Illustrator 24.0.0, SVG Export Plug-In . SVG Version: 6.00 Build 0)  -->
<svg xmlns="http://www.w3.org/2000/svg" xmlns:xlink="http://www.w3.org/1999/xlink" version="1.1" id="Layer_1" x="0px" y="0px" viewBox="0 0 1122.9 841.9" style="enable-background:new 0 0 1122.9 841.9;" xml:space="preserve">
<style type="text/css">
	.st0{fill:#F6F4EE;}
	.st1{clip-path:url(#SVGID_2_);}
	.st2{fill:none;stroke:#FCFBF9;stroke-width:17;}
	.st3{opacity:0.9464;fill:none;stroke:#FCFBF9;stroke-width:16.3571;}
	.st4{opacity:0.8929;fill:none;stroke:#FCFBF9;stroke-width:15.7143;}
	.st5{opacity:0.8393;fill:none;stroke:#FCFBF9;stroke-width:15.0714;}
	.st6{opacity:0.7857;fill:none;stroke:#FCFBF9;stroke-width:14.4286;}
	.st7{opacity:0.7321;fill:none;stroke:#FCFBF9;stroke-width:13.7857;}
	.st8{opacity:0.6786;fill:none;stroke:#FCFBF9;stroke-width:13.1429;}
	.st9{opacity:0.625;fill:none;stroke:#FCFBF9;stroke-width:12.5;}
	.st10{opacity:0.5714;fill:none;stroke:#FCFBF9;stroke-width:11.8571;}
	.st11{opacity:0.5179;fill:none;stroke:#FCFBF9;stroke-width:11.2143;}
	.st12{opacity:0.4643;fill:none;stroke:#FCFBF9;stroke-width:10.5714;}
	.st13{opacity:0.4107;fill:none;stroke:#FCFBF9;stroke-width:9.9286;}
	.st14{opacity:0.3571;fill:none;stroke:#FCFBF9;stroke-width:9.2857;}
	.st15{opacity:0.3036;fill:none;stroke:#FCFBF9;stroke-width:8.6429;}
	.st16{opacity:0.1;fill:none;stroke:#FCFBF9;stroke-width:8;}
	.st17{fill:none;}
	.st18{clip-path:url(#SVGID_4_);}
	.st19{fill:#4663AC;}
	.st20{fill:none;stroke:#A2B1D7;stroke-width:0.7112;stroke-miterlimit:10;}
	.st21{fill:#2C2439;}
	.st22{fill:#A2B1D7;}
	.st23{fill:none;stroke:#4663AC;stroke-width:2.8547;stroke-linecap:round;stroke-miterlimit:10;}
	.st24{opacity:0.5;fill:none;stroke:#FCFBF8;stroke-width:9.9872;stroke-miterlimit:10;}
	.st25{opacity:0.5;fill:none;stroke:#FCFBF8;stroke-width:21.2003;stroke-miterlimit:10;}
	.st26{opacity:0.5;fill:none;stroke:#FCFBF8;stroke-width:29.4871;stroke-miterlimit:10;}
	.st27{opacity:0.5;fill:none;stroke:#FCFBF8;stroke-width:31.1;stroke-miterlimit:10;}
	.st28{opacity:0.5;fill:none;stroke:#FCFBF8;stroke-width:2;stroke-miterlimit:10;}
	.st29{opacity:0.5;fill:none;stroke:#FCFBF8;stroke-width:5.0035;stroke-miterlimit:10;}
	.st30{fill:none;stroke:#FCFBF9;stroke-width:20.4601;}
	.st31{fill:none;stroke:#4663AC;stroke-width:1.9688;stroke-miterlimit:10;}
	.st32{fill:none;stroke:#4663AC;stroke-width:3.9376;stroke-linecap:round;stroke-miterlimit:10;}
	.st33{fill:none;stroke:#4663AC;stroke-width:3.9376;stroke-linecap:round;stroke-miterlimit:10;stroke-dasharray:0,13.2959;}
	.st34{fill:none;stroke:#4663AC;stroke-width:3.9376;stroke-linecap:round;stroke-miterlimit:10;stroke-dasharray:0,14.8804;}
	.st35{fill:none;stroke:#4663AC;stroke-width:3.9376;stroke-linecap:round;stroke-miterlimit:10;stroke-dasharray:0,12.4285;}
	.st36{fill:none;stroke:#4663AC;stroke-width:3.9376;stroke-linecap:round;stroke-miterlimit:10;stroke-dasharray:0,13.6822;}
	.st37{fill:none;stroke:#4663AC;stroke-width:3.9376;stroke-linecap:round;stroke-miterlimit:10;stroke-dasharray:0,12.919;}
	.st38{fill:none;stroke:#4663AC;stroke-width:3.9376;stroke-linecap:round;stroke-miterlimit:10;stroke-dasharray:0,13.2144;}
	.st39{fill:none;stroke:#4663AC;stroke-width:3.9376;stroke-linecap:round;stroke-miterlimit:10;stroke-dasharray:0,12.7173;}
	.st40{fill:none;stroke:#4663AC;stroke-width:3.9376;stroke-linecap:round;stroke-miterlimit:10;stroke-dasharray:0,13.1865;}
	.st41{fill:none;stroke:#4663AC;stroke-width:3.9376;stroke-linecap:round;stroke-miterlimit:10;stroke-dasharray:0,12.1247;}
	.st42{fill:none;stroke:#4663AC;stroke-width:3.9376;stroke-linecap:round;stroke-miterlimit:10;stroke-dasharray:0,12.0649;}
	.st43{fill:none;stroke:#4663AC;stroke-width:3.9376;stroke-linecap:round;stroke-miterlimit:10;stroke-dasharray:0,12.3443;}
	.st44{fill:none;stroke:#4663AC;stroke-width:3.9376;stroke-linecap:round;stroke-miterlimit:10;stroke-dasharray:0,8.0148;}
	.st45{fill:none;stroke:#4663AC;stroke-width:3.9376;stroke-linecap:round;stroke-miterlimit:10;stroke-dasharray:0,13.9409;}
	.st46{fill:none;stroke:#4663AC;stroke-width:3.9376;stroke-linecap:round;stroke-miterlimit:10;stroke-dasharray:0,15.7645;}
	.st47{fill:none;stroke:#4663AC;stroke-width:3.9376;stroke-linecap:round;stroke-miterlimit:10;stroke-dasharray:0,15.4102;}
	.st48{fill:none;stroke:#4663AC;stroke-width:3.9376;stroke-linecap:round;stroke-miterlimit:10;stroke-dasharray:0,11.6615;}
	.st49{fill:none;stroke:#4663AC;stroke-width:3.9376;stroke-linecap:round;stroke-miterlimit:10;stroke-dasharray:0,12.064;}
	.st50{fill:none;stroke:#4663AC;stroke-width:3.9376;stroke-linecap:round;stroke-miterlimit:10;stroke-dasharray:0,14.1158;}
	.st51{fill:none;stroke:#4663AC;stroke-width:3.9376;stroke-linecap:round;stroke-miterlimit:10;stroke-dasharray:0,13.5543;}
	.st52{fill:none;stroke:#4663AC;stroke-width:3.9376;stroke-linecap:round;stroke-miterlimit:10;stroke-dasharray:0,8.3643;}
	.st53{fill:none;stroke:#4663AC;stroke-width:3.9376;stroke-linecap:round;stroke-miterlimit:10;stroke-dasharray:0,7.0483;}
	.st54{fill:none;stroke:#4663AC;stroke-width:3.9376;stroke-linecap:round;stroke-miterlimit:10;stroke-dasharray:0,8.2948;}
	.st55{fill:none;stroke:#4663AC;stroke-width:3.9376;stroke-linecap:round;stroke-miterlimit:10;stroke-dasharray:0,12.7372;}
	.st56{fill:none;stroke:#4663AC;stroke-width:3.9376;stroke-linecap:round;stroke-miterlimit:10;stroke-dasharray:0,13.362;}
	.st57{fill:none;stroke:#4663AC;stroke-width:3.9376;stroke-linecap:round;stroke-miterlimit:10;stroke-dasharray:0,13.3807;}
	.st58{fill:none;stroke:#4663AC;stroke-width:3.9376;stroke-linecap:round;stroke-miterlimit:10;stroke-dasharray:0,14.7494;}
	.st59{fill:none;stroke:#4663AC;stroke-width:3.9376;stroke-linecap:round;stroke-miterlimit:10;stroke-dasharray:0,16.0797;}
	.st60{fill:none;stroke:#4663AC;stroke-width:3.9376;stroke-linecap:round;stroke-miterlimit:10;stroke-dasharray:0,11.4541;}
	.st61{fill:none;stroke:#4663AC;stroke-width:3.9376;stroke-linecap:round;stroke-miterlimit:10;stroke-dasharray:0,11.7422;}
	.st62{fill:none;stroke:#4663AC;stroke-width:3.9376;stroke-linecap:round;stroke-miterlimit:10;stroke-dasharray:0,7.2103;}
	.st63{fill:none;stroke:#4663AC;stroke-width:3.9376;stroke-linecap:round;stroke-miterlimit:10;stroke-dasharray:0,7.1503;}
	.st64{fill:none;stroke:#4663AC;stroke-width:3.9376;stroke-linecap:round;stroke-miterlimit:10;stroke-dasharray:0,14.7759;}
	.st65{fill:none;stroke:#4663AC;stroke-width:3.9376;stroke-linecap:round;stroke-miterlimit:10;stroke-dasharray:0,15.8931;}
	.st66{fill:none;stroke:#4663AC;stroke-width:3.9376;stroke-linecap:round;stroke-miterlimit:10;stroke-dasharray:0,15.534;}
	.st67{fill:none;stroke:#4663AC;stroke-width:3.9376;stroke-linecap:round;stroke-miterlimit:10;stroke-dasharray:0,11.4227;}
	.st68{fill:none;stroke:#4663AC;stroke-width:3.9376;stroke-linecap:round;stroke-miterlimit:10;stroke-dasharray:0,12.4197;}
	.st69{fill:none;stroke:#4663AC;stroke-width:3.9376;stroke-linecap:round;stroke-miterlimit:10;stroke-dasharray:0,13.2875;}
	.st70{fill:none;stroke:#4663AC;stroke-width:3.9376;stroke-linecap:round;stroke-miterlimit:10;stroke-dasharray:0,13.6216;}
	.st71{fill:none;stroke:#4663AC;stroke-width:3.9376;stroke-linecap:round;stroke-miterlimit:10;stroke-dasharray:0,8.3644;}
	.st72{fill:none;stroke:#4663AC;stroke-width:3.9376;stroke-linecap:round;stroke-miterlimit:10;stroke-dasharray:0,7.8489;}
	.st73{fill:none;stroke:#4663AC;stroke-width:3.9376;stroke-linecap:round;stroke-miterlimit:10;stroke-dasharray:0,8.4234;}
	.st74{fill:none;stroke:#4663AC;stroke-width:3.9376;stroke-linecap:round;stroke-miterlimit:10;stroke-dasharray:0,14.6081;}
	.st75{fill:none;stroke:#4663AC;stroke-width:3.9376;stroke-linecap:round;stroke-miterlimit:10;stroke-dasharray:0,13.8168;}
	.st76{fill:none;stroke:#4663AC;stroke-width:3.9376;stroke-linecap:round;stroke-miterlimit:10;stroke-dasharray:0,12.9706;}
	.st77{fill:none;stroke:#4663AC;stroke-width:3.9376;stroke-linecap:round;stroke-miterlimit:10;stroke-dasharray:0,13.1493;}
	.st78{fill:none;stroke:#4663AC;stroke-width:3.9376;stroke-linecap:round;stroke-miterlimit:10;stroke-dasharray:0,12.7776;}
	.st79{fill:none;stroke:#4663AC;stroke-width:3.9376;stroke-linecap:round;stroke-miterlimit:10;stroke-dasharray:0,13.2718;}
	.st80{fill:none;stroke:#4663AC;stroke-width:3.9376;stroke-linecap:round;stroke-miterlimit:10;stroke-dasharray:0,12.1458;}
	.st81{fill:none;stroke:#4663AC;stroke-width:3.9376;stroke-linecap:round;stroke-miterlimit:10;stroke-dasharray:0,11.8603;}
	.st82{fill:none;stroke:#4663AC;stroke-width:3.9376;stroke-linecap:round;stroke-miterlimit:10;stroke-dasharray:0,12.0447;}
	.st83{fill:none;stroke:#4663AC;stroke-width:3.9376;stroke-linecap:round;stroke-miterlimit:10;stroke-dasharray:0,14.0626;}
	.st84{fill:none;stroke:#4663AC;stroke-width:3.9376;stroke-linecap:round;stroke-miterlimit:10;stroke-dasharray:0,14.3462;}
	.st85{fill:none;stroke:#4663AC;stroke-width:3.9376;stroke-linecap:round;stroke-miterlimit:10;stroke-dasharray:0,14.7058;}
	.st86{fill:none;stroke:#4663AC;stroke-width:3.9376;stroke-linecap:round;stroke-miterlimit:10;stroke-dasharray:0,13.8078;}
	.st87{fill:none;stroke:#4663AC;stroke-width:3.9376;stroke-linecap:round;stroke-miterlimit:10;stroke-dasharray:0,13.2053;}
	.st88{fill:none;stroke:#4663AC;stroke-width:3.9376;stroke-linecap:round;stroke-miterlimit:10;stroke-dasharray:0,13.4324;}
	.st89{fill:none;stroke:#4663AC;stroke-width:3.9376;stroke-linecap:round;stroke-miterlimit:10;stroke-dasharray:0,14.5496;}
	.st90{fill:none;stroke:#4663AC;stroke-width:3.9376;stroke-linecap:round;stroke-miterlimit:10;stroke-dasharray:0,13.8858;}
	.st91{fill:none;stroke:#4663AC;stroke-width:3.9376;stroke-linecap:round;stroke-miterlimit:10;stroke-dasharray:0,13.7972;}
	.st92{fill:none;stroke:#4663AC;stroke-width:3.9376;stroke-linecap:round;stroke-miterlimit:10;stroke-dasharray:0,14.8041;}
	.st93{fill:none;stroke:#4663AC;stroke-width:3.9376;stroke-linecap:round;stroke-miterlimit:10;stroke-dasharray:0,14.0119;}
	.st94{fill:none;stroke:#4663AC;stroke-width:3.9376;stroke-linecap:round;stroke-miterlimit:10;stroke-dasharray:0,13.3384;}
	.st95{fill:none;stroke:#4663AC;stroke-width:3.9376;stroke-linecap:round;stroke-miterlimit:10;stroke-dasharray:0,12.634;}
	.st96{fill:none;stroke:#4663AC;stroke-width:3.9376;stroke-linecap:round;stroke-miterlimit:10;stroke-dasharray:0,13.3441;}
	.st97{fill:none;stroke:#4663AC;stroke-width:3.9376;stroke-linecap:round;stroke-miterlimit:10;stroke-dasharray:0,13.4496;}
	.st98{fill:none;stroke:#4663AC;stroke-width:3.9376;stroke-linecap:round;stroke-miterlimit:10;stroke-dasharray:0,13.9103;}
	.st99{fill:none;stroke:#4663AC;stroke-width:3.9376;stroke-linecap:round;stroke-miterlimit:10;stroke-dasharray:0,15.3192;}
	.st100{fill:none;stroke:#4663AC;stroke-width:3.9376;stroke-linecap:round;stroke-miterlimit:10;stroke-dasharray:0,15.2213;}
	.st101{fill:none;stroke:#4663AC;stroke-width:3.9376;stroke-linecap:round;stroke-miterlimit:10;stroke-dasharray:0,14.9297;}
	.st102{fill:none;stroke:#4663AC;stroke-width:3.9376;stroke-linecap:round;stroke-miterlimit:10;stroke-dasharray:0,15.7033;}
	.st103{fill:none;stroke:#4663AC;stroke-width:3.9376;stroke-linecap:round;stroke-miterlimit:10;stroke-dasharray:0,14.0059;}
	.st104{fill:none;stroke:#4663AC;stroke-width:3.9376;stroke-linecap:round;stroke-miterlimit:10;stroke-dasharray:0,13.7115;}
	.st105{fill:none;stroke:#4663AC;stroke-width:3.9376;stroke-linecap:round;stroke-miterlimit:10;stroke-dasharray:0,13.7599;}
	.st106{fill:none;stroke:#4663AC;stroke-width:3.9376;stroke-linecap:round;stroke-miterlimit:10;stroke-dasharray:0,15.3228;}
	.st107{fill:none;stroke:#4663AC;stroke-width:3.9376;stroke-linecap:round;stroke-miterlimit:10;stroke-dasharray:0,13.5934;}
	.st108{fill:none;stroke:#4663AC;stroke-width:3.9376;stroke-linecap:round;stroke-miterlimit:10;stroke-dasharray:0,14.6696;}
	.st109{fill:none;stroke:#4663AC;stroke-width:3.9376;stroke-linecap:round;stroke-miterlimit:10;stroke-dasharray:0,13.189;}
	.st110{fill:none;stroke:#4663AC;stroke-width:3.9376;stroke-linecap:round;stroke-miterlimit:10;stroke-dasharray:0,16.3956;}
	.st111{fill:none;stroke:#4663AC;stroke-width:3.9376;stroke-linecap:round;stroke-miterlimit:10;stroke-dasharray:0,13.5688;}
	.st112{fill:none;stroke:#4663AC;stroke-width:3.9376;stroke-linecap:round;stroke-miterlimit:10;stroke-dasharray:0,13.4845;}
	.st113{fill:none;stroke:#4663AC;stroke-width:3.9376;stroke-linecap:round;stroke-miterlimit:10;stroke-dasharray:0,13.6908;}
	.st114{fill:none;stroke:#4663AC;stroke-width:3.9376;stroke-linecap:round;stroke-miterlimit:10;stroke-dasharray:0,15.3041;}
	.st115{fill:none;stroke:#4663AC;stroke-width:3.9376;stroke-linecap:round;stroke-miterlimit:10;stroke-dasharray:0,11.3844;}
	.st116{fill:none;stroke:#4663AC;stroke-width:3.9376;stroke-linecap:round;stroke-miterlimit:10;stroke-dasharray:0,14.1829;}
	.st117{fill:none;stroke:#4663AC;stroke-width:3.9376;stroke-linecap:round;stroke-miterlimit:10;stroke-dasharray:0,13.6423;}
	.st118{fill:none;stroke:#4663AC;stroke-width:3.9376;stroke-linecap:round;stroke-miterlimit:10;stroke-dasharray:0,13.9126;}
	.st119{fill:none;stroke:#4663AC;stroke-width:3.9376;stroke-linecap:round;stroke-miterlimit:10;stroke-dasharray:0,12.7554;}
	.st120{fill:#4663AC;stroke:#4663AC;stroke-width:1.0724;stroke-miterlimit:10;}
	.st121{fill:none;stroke:#FCFBF9;stroke-width:30.1765;}
	.st122{fill:none;stroke:#FCFBF9;stroke-width:12.0701;}
	.st123{fill:none;stroke:#4663B3;stroke-width:0.3397;}
	.st124{fill:none;stroke:#A2B1D7;stroke-width:2.5637;stroke-linecap:round;stroke-miterlimit:10;stroke-dasharray:0,10.255;}
	.st125{opacity:0.25;fill:none;stroke:#FCFBF9;stroke-width:22.6279;enable-background:new    ;}
	.st126{opacity:0.5;fill:none;stroke:#FCFBF9;stroke-width:22.6279;enable-background:new    ;}
	.st127{opacity:0.75;fill:none;stroke:#FCFBF9;stroke-width:22.6279;enable-background:new    ;}
	
		.st128{opacity:0.5;fill:none;stroke:#A2B1D7;stroke-width:2.5637;stroke-linecap:round;stroke-miterlimit:10;stroke-dasharray:0,10.255;}
	.st129{fill:none;stroke:#FCFBF9;stroke-width:22.6279;}
	.st130{fill:none;stroke:#FCFBF9;stroke-width:26.5217;}
	.st131{fill:none;stroke:#FCFBF9;stroke-width:10.6082;}
	.st132{fill:none;stroke:#4663B3;stroke-width:0.2985;}
	.st133{fill:none;stroke:#A2B1D7;stroke-width:2.2532;stroke-linecap:round;stroke-miterlimit:10;stroke-dasharray:0,9.013;}
	.st134{opacity:0.25;fill:none;stroke:#FCFBF9;stroke-width:23.0508;enable-background:new    ;}
	.st135{opacity:0.375;fill:none;stroke:#FCFBF9;stroke-width:22.2599;enable-background:new    ;}
	.st136{opacity:0.5;fill:none;stroke:#FCFBF9;stroke-width:21.4691;enable-background:new    ;}
	.st137{opacity:0.625;fill:none;stroke:#FCFBF9;stroke-width:20.6782;enable-background:new    ;}
	.st138{opacity:0.75;fill:none;stroke:#FCFBF9;stroke-width:19.8874;enable-background:new    ;}
	.st139{fill:none;stroke:#FCFBF9;stroke-width:21.5396;}
	.st140{fill:none;stroke:#A2B1D7;stroke-width:2.4404;stroke-linecap:round;stroke-miterlimit:10;stroke-dasharray:0,9.7618;}
	.st141{fill:none;stroke:#FCFBF9;stroke-width:30.8216;}
	.st142{fill:none;stroke:#A2B1D7;stroke-width:2.0794;stroke-linecap:round;stroke-miterlimit:10;stroke-dasharray:0,8.3178;}
	.st143{fill:#FFFFFF;}
	.st144{fill:none;stroke:#4663B3;stroke-width:1.384;stroke-miterlimit:4;}
	.st145{fill:#4663B3;}
	.st146{opacity:0.25;fill:none;stroke:#FCFBF9;stroke-width:21.8863;enable-background:new    ;}
	.st147{opacity:0.5;fill:none;stroke:#FCFBF9;stroke-width:21.8863;enable-background:new    ;}
	.st148{opacity:0.75;fill:none;stroke:#FCFBF9;stroke-width:21.8863;enable-background:new    ;}
	.st149{fill:none;stroke:#4663B3;stroke-width:1.1248;stroke-miterlimit:4;}
</style>
<rect x="0" class="st0" width="1122.9" height="841.9"></rect>
<g>
	<defs>
		<rect id="SVGID_1_" x="0" width="1122.9" height="841.9"></rect>
	</defs>
	<clipPath id="SVGID_2_">
		<use xlink:href="#SVGID_1_" style="overflow:visible;"></use>
	</clipPath>
	<g class="st1">
		<g>
			<line class="st2" x1="1587.1" y1="574.2" x2="552.4" y2="338.9"></line>
			<line class="st3" x1="1513.9" y1="474.8" x2="552.7" y2="336.5"></line>
			<line class="st4" x1="1440.6" y1="375.4" x2="552.9" y2="334.2"></line>
			<line class="st5" x1="1367.4" y1="276" x2="553.1" y2="331.8"></line>
			<line class="st6" x1="1294.1" y1="176.6" x2="553.4" y2="329.5"></line>
			<line class="st7" x1="1220.8" y1="77.2" x2="553.6" y2="327.2"></line>
			<line class="st8" x1="1147.6" y1="-22.2" x2="553.9" y2="324.8"></line>
			<line class="st9" x1="1074.3" y1="-121.6" x2="554.1" y2="322.5"></line>
			<line class="st10" x1="1001" y1="-221" x2="554.3" y2="320.2"></line>
			<line class="st11" x1="927.8" y1="-320.4" x2="554.6" y2="317.8"></line>
			<line class="st12" x1="854.5" y1="-419.8" x2="554.8" y2="315.5"></line>
			<line class="st13" x1="781.3" y1="-519.2" x2="555.1" y2="313.1"></line>
			<line class="st14" x1="708" y1="-618.5" x2="555.3" y2="310.8"></line>
			<line class="st15" x1="634.7" y1="-717.9" x2="555.5" y2="308.5"></line>
			<line class="st16" x1="561.5" y1="-817.3" x2="555.8" y2="306.1"></line>
		</g>
		<g>
			<line class="st2" x1="-471.7" y1="574.2" x2="563" y2="338.9"></line>
			<line class="st3" x1="-398.5" y1="474.8" x2="562.7" y2="336.5"></line>
			<line class="st4" x1="-325.2" y1="375.4" x2="562.5" y2="334.2"></line>
			<line class="st5" x1="-252" y1="276" x2="562.3" y2="331.8"></line>
			<line class="st6" x1="-178.7" y1="176.6" x2="562" y2="329.5"></line>
			<line class="st7" x1="-105.4" y1="77.2" x2="561.8" y2="327.2"></line>
			<line class="st8" x1="-32.2" y1="-22.2" x2="561.5" y2="324.8"></line>
			<line class="st9" x1="41.1" y1="-121.6" x2="561.3" y2="322.5"></line>
			<line class="st10" x1="114.4" y1="-221" x2="561.1" y2="320.2"></line>
			<line class="st11" x1="187.6" y1="-320.4" x2="560.8" y2="317.8"></line>
			<line class="st12" x1="260.9" y1="-419.8" x2="560.6" y2="315.5"></line>
			<line class="st13" x1="334.2" y1="-519.2" x2="560.3" y2="313.1"></line>
			<line class="st14" x1="407.4" y1="-618.5" x2="560.1" y2="310.8"></line>
			<line class="st15" x1="480.7" y1="-717.9" x2="559.9" y2="308.5"></line>
			<line class="st16" x1="553.9" y1="-817.3" x2="559.6" y2="306.1"></line>
		</g>
	</g>
</g>
<polygon class="st0" points="123.8,447.9 555.8,350.5 987.8,447.9 987.8,596.7 123.8,596.7 "></polygon>
<polyline class="st31" points="987.8,447.9 555.8,350.5 123.8,447.9 "></polyline>
<g>
	<g>
		<line class="st32" x1="383.9" y1="411.9" x2="383.9" y2="411.9"></line>
		<line class="st33" x1="371.4" y1="416.4" x2="214.9" y2="472.4"></line>
		<line class="st32" x1="208.6" y1="474.6" x2="208.6" y2="474.6"></line>
	</g>
</g>
<g>
	<g>
		<line class="st32" x1="452.5" y1="387.5" x2="452.5" y2="387.5"></line>
		<line class="st34" x1="438.5" y1="392.5" x2="417.4" y2="400"></line>
		<line class="st32" x1="410.4" y1="402.5" x2="410.4" y2="402.5"></line>
	</g>
</g>
<g>
	<g>
		<line class="st32" x1="521.4" y1="362.8" x2="521.4" y2="362.8"></line>
		<line class="st35" x1="509.7" y1="367" x2="480.4" y2="377.5"></line>
		<line class="st32" x1="474.5" y1="379.6" x2="474.5" y2="379.6"></line>
	</g>
</g>
<g>
	<g>
		<line class="st32" x1="590.2" y1="362.8" x2="590.2" y2="362.8"></line>
		<line class="st35" x1="601.9" y1="367" x2="631.2" y2="377.5"></line>
		<line class="st32" x1="637" y1="379.6" x2="637" y2="379.6"></line>
	</g>
</g>
<line class="st31" x1="555.8" y1="350.5" x2="87.2" y2="593.9"></line>
<g>
	<g>
		<line class="st32" x1="237.7" y1="585.2" x2="237.7" y2="585.2"></line>
		<line class="st36" x1="226.7" y1="593.3" x2="188.1" y2="621.7"></line>
		<line class="st32" x1="182.6" y1="625.8" x2="182.6" y2="625.8"></line>
	</g>
</g>
<g>
	<g>
		<line class="st32" x1="297.7" y1="540.9" x2="297.7" y2="540.9"></line>
		<line class="st37" x1="287.3" y1="548.6" x2="261.3" y2="567.8"></line>
		<line class="st32" x1="256.1" y1="571.6" x2="256.1" y2="571.6"></line>
	</g>
</g>
<g>
	<g>
		<line class="st32" x1="340.2" y1="509.6" x2="340.2" y2="509.6"></line>
		<line class="st38" x1="329.6" y1="517.4" x2="303" y2="537"></line>
		<line class="st32" x1="297.7" y1="540.9" x2="297.7" y2="540.9"></line>
	</g>
</g>
<g>
	<g>
		<line class="st32" x1="387.6" y1="474.6" x2="387.6" y2="474.6"></line>
		<line class="st39" x1="377.4" y1="482.1" x2="362" y2="493.5"></line>
		<line class="st32" x1="356.9" y1="497.2" x2="356.9" y2="497.2"></line>
	</g>
</g>
<g>
	<g>
		<line class="st32" x1="419.4" y1="451.1" x2="419.4" y2="451.1"></line>
		<line class="st40" x1="408.8" y1="458.9" x2="392.9" y2="470.7"></line>
		<line class="st32" x1="387.6" y1="474.6" x2="387.6" y2="474.6"></line>
	</g>
</g>
<g>
	<g>
		<line class="st32" x1="453" y1="426.3" x2="453" y2="426.3"></line>
		<line class="st41" x1="443.3" y1="433.5" x2="438.4" y2="437.1"></line>
		<line class="st32" x1="433.5" y1="440.7" x2="433.5" y2="440.7"></line>
	</g>
</g>
<g>
	<g>
		<line class="st32" x1="472.4" y1="412" x2="472.4" y2="412"></line>
		<line class="st42" x1="462.7" y1="419.2" x2="457.9" y2="422.8"></line>
		<line class="st32" x1="453" y1="426.3" x2="453" y2="426.3"></line>
	</g>
</g>
<g>
	<g>
		<line class="st32" x1="505" y1="388" x2="505" y2="388"></line>
		<line class="st43" x1="495.1" y1="395.3" x2="490.1" y2="399"></line>
		<line class="st32" x1="485.1" y1="402.7" x2="485.1" y2="402.7"></line>
	</g>
</g>
<g>
	<g>
		<line class="st32" x1="529.5" y1="369.9" x2="529.5" y2="369.9"></line>
		<line class="st44" x1="523.1" y1="374.6" x2="519.9" y2="377"></line>
		<line class="st32" x1="516.6" y1="379.4" x2="516.6" y2="379.4"></line>
	</g>
</g>
<line class="st31" x1="555.8" y1="350.5" x2="212.1" y2="719"></line>
<g>
	<g>
		<line class="st32" x1="361.9" y1="680.3" x2="361.9" y2="680.3"></line>
		<line class="st45" x1="354.8" y1="692.3" x2="323" y2="746.4"></line>
		<line class="st32" x1="319.5" y1="752.4" x2="319.5" y2="752.4"></line>
	</g>
</g>
<g>
	<g>
		<line class="st32" x1="393.9" y1="625.8" x2="393.9" y2="625.8"></line>
		<line class="st46" x1="385.9" y1="639.4" x2="374" y2="659.8"></line>
		<line class="st32" x1="370" y1="666.6" x2="370" y2="666.6"></line>
	</g>
</g>
<g>
	<g>
		<line class="st32" x1="417.4" y1="585.9" x2="417.4" y2="585.9"></line>
		<line class="st47" x1="409.6" y1="599.2" x2="397.8" y2="619.2"></line>
		<line class="st32" x1="393.9" y1="625.8" x2="393.9" y2="625.8"></line>
	</g>
</g>
<g>
	<g>
		<line class="st32" x1="443.8" y1="540.9" x2="443.8" y2="540.9"></line>
		<line class="st48" x1="437.9" y1="551" x2="429" y2="566.1"></line>
		<line class="st32" x1="426.1" y1="571.1" x2="426.1" y2="571.1"></line>
	</g>
</g>
<g>
	<g>
		<line class="st32" x1="462.2" y1="509.8" x2="462.2" y2="509.8"></line>
		<line class="st49" x1="456" y1="520.2" x2="446.9" y2="535.7"></line>
		<line class="st32" x1="443.8" y1="540.9" x2="443.8" y2="540.9"></line>
	</g>
</g>
<g>
	<g>
		<line class="st32" x1="482.9" y1="474.5" x2="482.9" y2="474.5"></line>
		<line class="st50" x1="475.7" y1="486.6" x2="472.2" y2="492.7"></line>
		<line class="st32" x1="468.6" y1="498.8" x2="468.6" y2="498.8"></line>
	</g>
</g>
<g>
	<g>
		<line class="st32" x1="496.6" y1="451.1" x2="496.6" y2="451.1"></line>
		<line class="st51" x1="489.8" y1="462.8" x2="486.3" y2="468.6"></line>
		<line class="st32" x1="482.9" y1="474.5" x2="482.9" y2="474.5"></line>
	</g>
</g>
<g>
	<g>
		<line class="st32" x1="511.2" y1="426.3" x2="511.2" y2="426.3"></line>
		<line class="st52" x1="507" y1="433.5" x2="504.9" y2="437.1"></line>
		<line class="st32" x1="502.7" y1="440.7" x2="502.7" y2="440.7"></line>
	</g>
</g>
<g>
	<g>
		<line class="st32" x1="518.4" y1="414.2" x2="518.4" y2="414.2"></line>
		<line class="st53" x1="514.8" y1="420.2" x2="513" y2="423.3"></line>
		<line class="st32" x1="511.2" y1="426.3" x2="511.2" y2="426.3"></line>
	</g>
</g>
<g>
	<g>
		<line class="st32" x1="533.7" y1="388" x2="533.7" y2="388"></line>
		<line class="st54" x1="529.5" y1="395.1" x2="527.4" y2="398.7"></line>
		<line class="st32" x1="525.3" y1="402.3" x2="525.3" y2="402.3"></line>
	</g>
</g>
<g>
	<g>
		<line class="st32" x1="541.8" y1="374.2" x2="541.8" y2="374.2"></line>
		<line class="st32" x1="538.8" y1="379.4" x2="538.8" y2="379.4"></line>
	</g>
</g>
<g>
	<g>
		<line class="st32" x1="582" y1="369.9" x2="582" y2="369.9"></line>
		<line class="st44" x1="588.5" y1="374.6" x2="591.7" y2="377"></line>
		<line class="st32" x1="594.9" y1="379.4" x2="594.9" y2="379.4"></line>
	</g>
</g>
<g>
	<g>
		<line class="st32" x1="569.7" y1="374.2" x2="569.7" y2="374.2"></line>
		<line class="st32" x1="572.8" y1="379.4" x2="572.8" y2="379.4"></line>
	</g>
</g>
<line class="st31" x1="555.8" y1="350.5" x2="447.8" y2="729.6"></line>
<g>
	<g>
		<line class="st32" x1="555.8" y1="679.4" x2="555.8" y2="679.4"></line>
		<line class="st55" x1="555.8" y1="692.1" x2="555.8" y2="749.5"></line>
		<line class="st32" x1="555.8" y1="755.8" x2="555.8" y2="755.8"></line>
	</g>
</g>
<g>
	<g>
		<line class="st32" x1="555.8" y1="625.8" x2="555.8" y2="625.8"></line>
		<line class="st56" x1="555.8" y1="639.2" x2="555.8" y2="659.2"></line>
		<line class="st32" x1="555.8" y1="665.9" x2="555.8" y2="665.9"></line>
	</g>
</g>
<g>
	<g>
		<line class="st32" x1="555.8" y1="585.6" x2="555.8" y2="585.6"></line>
		<line class="st57" x1="555.8" y1="599" x2="555.8" y2="619.1"></line>
		<line class="st32" x1="555.8" y1="625.8" x2="555.8" y2="625.8"></line>
	</g>
</g>
<g>
	<g>
		<line class="st32" x1="555.8" y1="540.9" x2="555.8" y2="540.9"></line>
		<line class="st58" x1="555.8" y1="555.7" x2="555.8" y2="563.1"></line>
		<line class="st32" x1="555.8" y1="570.4" x2="555.8" y2="570.4"></line>
	</g>
</g>
<g>
	<g>
		<line class="st32" x1="555.8" y1="508.8" x2="555.8" y2="508.8"></line>
		<line class="st59" x1="555.8" y1="524.9" x2="555.8" y2="532.9"></line>
		<line class="st32" x1="555.8" y1="540.9" x2="555.8" y2="540.9"></line>
	</g>
</g>
<g>
	<g>
		<line class="st32" x1="555.8" y1="474.6" x2="555.8" y2="474.6"></line>
		<line class="st60" x1="555.8" y1="486" x2="555.8" y2="491.8"></line>
		<line class="st32" x1="555.8" y1="497.5" x2="555.8" y2="497.5"></line>
	</g>
</g>
<g>
	<g>
		<line class="st32" x1="555.8" y1="451.1" x2="555.8" y2="451.1"></line>
		<line class="st61" x1="555.8" y1="462.8" x2="555.8" y2="468.7"></line>
		<line class="st32" x1="555.8" y1="474.6" x2="555.8" y2="474.6"></line>
	</g>
</g>
<g>
	<g>
		<line class="st32" x1="555.8" y1="426.3" x2="555.8" y2="426.3"></line>
		<line class="st62" x1="555.8" y1="433.5" x2="555.8" y2="437.1"></line>
		<line class="st32" x1="555.8" y1="440.7" x2="555.8" y2="440.7"></line>
	</g>
</g>
<g>
	<g>
		<line class="st32" x1="555.8" y1="414.2" x2="555.8" y2="414.2"></line>
		<line class="st32" x1="555.8" y1="426.3" x2="555.8" y2="426.3"></line>
	</g>
</g>
<g>
	<g>
		<line class="st32" x1="555.8" y1="388" x2="555.8" y2="388"></line>
		<line class="st63" x1="555.8" y1="395.1" x2="555.8" y2="398.7"></line>
		<line class="st32" x1="555.8" y1="402.3" x2="555.8" y2="402.3"></line>
	</g>
</g>
<line class="st31" x1="555.8" y1="350.5" x2="654.7" y2="697.8"></line>
<g>
	<g>
		<line class="st32" x1="749.2" y1="679.4" x2="749.2" y2="679.4"></line>
		<line class="st64" x1="756.6" y1="692.1" x2="790.3" y2="749.5"></line>
		<line class="st32" x1="794.1" y1="755.8" x2="794.1" y2="755.8"></line>
	</g>
</g>
<g>
	<g>
		<line class="st32" x1="717.7" y1="625.8" x2="717.7" y2="625.8"></line>
		<line class="st65" x1="725.7" y1="639.5" x2="737.8" y2="660.1"></line>
		<line class="st32" x1="741.8" y1="666.9" x2="741.8" y2="666.9"></line>
	</g>
</g>
<g>
	<g>
		<line class="st32" x1="694" y1="585.6" x2="694" y2="585.6"></line>
		<line class="st66" x1="701.9" y1="599" x2="713.7" y2="619.1"></line>
		<line class="st32" x1="717.7" y1="625.8" x2="717.7" y2="625.8"></line>
	</g>
</g>
<g>
	<g>
		<line class="st32" x1="667.7" y1="540.9" x2="667.7" y2="540.9"></line>
		<line class="st67" x1="673.5" y1="550.8" x2="682.2" y2="565.5"></line>
		<line class="st32" x1="685.1" y1="570.4" x2="685.1" y2="570.4"></line>
	</g>
</g>
<g>
	<g>
		<line class="st32" x1="648.8" y1="508.8" x2="648.8" y2="508.8"></line>
		<line class="st68" x1="655.1" y1="519.5" x2="664.6" y2="535.6"></line>
		<line class="st32" x1="667.7" y1="540.9" x2="667.7" y2="540.9"></line>
	</g>
</g>
<g>
	<g>
		<line class="st32" x1="628.7" y1="474.6" x2="628.7" y2="474.6"></line>
		<line class="st69" x1="635.5" y1="486" x2="638.8" y2="491.8"></line>
		<line class="st32" x1="642.2" y1="497.5" x2="642.2" y2="497.5"></line>
	</g>
</g>
<g>
	<g>
		<line class="st32" x1="614.9" y1="451.1" x2="614.9" y2="451.1"></line>
		<line class="st70" x1="621.8" y1="462.8" x2="625.3" y2="468.7"></line>
		<line class="st32" x1="628.7" y1="474.6" x2="628.7" y2="474.6"></line>
	</g>
</g>
<g>
	<g>
		<line class="st32" x1="600.3" y1="426.3" x2="600.3" y2="426.3"></line>
		<line class="st71" x1="604.6" y1="433.5" x2="606.7" y2="437.1"></line>
		<line class="st32" x1="608.8" y1="440.7" x2="608.8" y2="440.7"></line>
	</g>
</g>
<g>
	<g>
		<line class="st32" x1="592.4" y1="412.8" x2="592.4" y2="412.8"></line>
		<line class="st72" x1="596.4" y1="419.5" x2="598.4" y2="422.9"></line>
		<line class="st32" x1="600.3" y1="426.3" x2="600.3" y2="426.3"></line>
	</g>
</g>
<g>
	<g>
		<line class="st32" x1="577.8" y1="388" x2="577.8" y2="388"></line>
		<line class="st73" x1="582.1" y1="395.3" x2="584.2" y2="398.9"></line>
		<line class="st32" x1="586.4" y1="402.5" x2="586.4" y2="402.5"></line>
	</g>
</g>
<line class="st31" x1="555.8" y1="350.5" x2="899.5" y2="719"></line>
<g>
	<g>
		<line class="st32" x1="928.9" y1="625.8" x2="928.9" y2="625.8"></line>
		<line class="st74" x1="940.7" y1="634.5" x2="1005.3" y2="682.2"></line>
		<line class="st32" x1="1011.2" y1="686.5" x2="1011.2" y2="686.5"></line>
	</g>
</g>
<g>
	<g>
		<line class="st32" x1="873.3" y1="584.8" x2="873.3" y2="584.8"></line>
		<line class="st75" x1="884.4" y1="593" x2="923.4" y2="621.7"></line>
		<line class="st32" x1="928.9" y1="625.8" x2="928.9" y2="625.8"></line>
	</g>
</g>
<g>
	<g>
		<line class="st32" x1="813.7" y1="540.8" x2="813.7" y2="540.8"></line>
		<line class="st76" x1="824.1" y1="548.5" x2="850.2" y2="567.7"></line>
		<line class="st32" x1="855.5" y1="571.6" x2="855.5" y2="571.6"></line>
	</g>
</g>
<g>
	<g>
		<line class="st32" x1="771.4" y1="509.6" x2="771.4" y2="509.6"></line>
		<line class="st77" x1="782" y1="517.4" x2="808.4" y2="536.9"></line>
		<line class="st32" x1="813.7" y1="540.8" x2="813.7" y2="540.8"></line>
	</g>
</g>
<g>
	<g>
		<line class="st32" x1="724.2" y1="474.7" x2="724.2" y2="474.7"></line>
		<line class="st78" x1="734.4" y1="482.3" x2="749.9" y2="493.7"></line>
		<line class="st32" x1="755" y1="497.5" x2="755" y2="497.5"></line>
	</g>
</g>
<g>
	<g>
		<line class="st32" x1="692.1" y1="451.1" x2="692.1" y2="451.1"></line>
		<line class="st79" x1="702.8" y1="459" x2="718.8" y2="470.8"></line>
		<line class="st32" x1="724.2" y1="474.7" x2="724.2" y2="474.7"></line>
	</g>
</g>
<g>
	<g>
		<line class="st32" x1="658.5" y1="426.3" x2="658.5" y2="426.3"></line>
		<line class="st80" x1="668.3" y1="433.5" x2="673.2" y2="437.1"></line>
		<line class="st32" x1="678.1" y1="440.7" x2="678.1" y2="440.7"></line>
	</g>
</g>
<g>
	<g>
		<line class="st32" x1="639.4" y1="412.2" x2="639.4" y2="412.2"></line>
		<line class="st81" x1="649" y1="419.3" x2="653.7" y2="422.8"></line>
		<line class="st32" x1="658.5" y1="426.3" x2="658.5" y2="426.3"></line>
	</g>
</g>
<g>
	<g>
		<line class="st32" x1="606.6" y1="388" x2="606.6" y2="388"></line>
		<line class="st82" x1="616.3" y1="395.1" x2="621.1" y2="398.7"></line>
		<line class="st32" x1="626" y1="402.3" x2="626" y2="402.3"></line>
	</g>
</g>
<line class="st31" x1="555.8" y1="350.5" x2="1040" y2="602"></line>
<g>
	<g>
		<line class="st32" x1="902.9" y1="474.6" x2="902.9" y2="474.6"></line>
		<line class="st83" x1="916.2" y1="479.3" x2="989" y2="505.4"></line>
		<line class="st32" x1="995.6" y1="507.7" x2="995.6" y2="507.7"></line>
	</g>
</g>
<g>
	<g>
		<line class="st32" x1="767.8" y1="426.3" x2="767.8" y2="426.3"></line>
		<line class="st84" x1="781.3" y1="431.1" x2="896.2" y2="472.2"></line>
		<line class="st32" x1="902.9" y1="474.6" x2="902.9" y2="474.6"></line>
	</g>
</g>
<g>
	<g>
		<line class="st32" x1="726.3" y1="411.5" x2="726.3" y2="411.5"></line>
		<line class="st85" x1="740.1" y1="416.4" x2="760.9" y2="423.8"></line>
		<line class="st32" x1="767.8" y1="426.3" x2="767.8" y2="426.3"></line>
	</g>
</g>
<g>
	<g>
		<line class="st32" x1="660.6" y1="388" x2="660.6" y2="388"></line>
		<line class="st86" x1="673.6" y1="392.6" x2="693.1" y2="399.6"></line>
		<line class="st32" x1="699.6" y1="401.9" x2="699.6" y2="401.9"></line>
	</g>
</g>
<line class="st31" x1="410.4" y1="383.2" x2="699.9" y2="383.2"></line>
<line class="st31" x1="805.5" y1="407.1" x2="304.8" y2="407.1"></line>
<line class="st31" x1="306.9" y1="445.5" x2="803.4" y2="445.5"></line>
<line class="st31" x1="849.3" y1="503.6" x2="261" y2="503.6"></line>
<line class="st31" x1="979.5" y1="673.3" x2="132.1" y2="673.3"></line>
<g>
	<g>
		<line class="st32" x1="288.3" y1="625.8" x2="288.3" y2="625.8"></line>
		<line class="st87" x1="275.1" y1="625.8" x2="189.2" y2="625.8"></line>
		<line class="st32" x1="182.6" y1="625.8" x2="182.6" y2="625.8"></line>
	</g>
</g>
<g>
	<g>
		<line class="st32" x1="393.9" y1="625.8" x2="393.9" y2="625.8"></line>
		<line class="st88" x1="380.5" y1="625.8" x2="320.1" y2="625.8"></line>
		<line class="st32" x1="313.3" y1="625.8" x2="313.3" y2="625.8"></line>
	</g>
</g>
<g>
	<g>
		<line class="st32" x1="466.7" y1="625.8" x2="466.7" y2="625.8"></line>
		<line class="st89" x1="452.1" y1="625.8" x2="401.2" y2="625.8"></line>
		<line class="st32" x1="393.9" y1="625.8" x2="393.9" y2="625.8"></line>
	</g>
</g>
<g>
	<g>
		<line class="st32" x1="555.8" y1="625.8" x2="555.8" y2="625.8"></line>
		<line class="st90" x1="541.9" y1="625.8" x2="493.3" y2="625.8"></line>
		<line class="st32" x1="486.4" y1="625.8" x2="486.4" y2="625.8"></line>
	</g>
</g>
<g>
	<g>
		<line class="st32" x1="624.8" y1="625.8" x2="624.8" y2="625.8"></line>
		<line class="st91" x1="611" y1="625.8" x2="562.7" y2="625.8"></line>
		<line class="st32" x1="555.8" y1="625.8" x2="555.8" y2="625.8"></line>
	</g>
</g>
<g>
	<g>
		<line class="st32" x1="717.8" y1="625.8" x2="717.8" y2="625.8"></line>
		<line class="st92" x1="703" y1="625.8" x2="651.2" y2="625.8"></line>
		<line class="st32" x1="643.8" y1="625.8" x2="643.8" y2="625.8"></line>
	</g>
</g>
<g>
	<g>
		<line class="st32" x1="801.9" y1="625.8" x2="801.9" y2="625.8"></line>
		<line class="st93" x1="787.8" y1="625.8" x2="724.8" y2="625.8"></line>
		<line class="st32" x1="717.8" y1="625.8" x2="717.8" y2="625.8"></line>
	</g>
</g>
<g>
	<g>
		<line class="st32" x1="928.9" y1="625.8" x2="928.9" y2="625.8"></line>
		<line class="st94" x1="915.6" y1="625.8" x2="828.9" y2="625.8"></line>
		<line class="st32" x1="822.2" y1="625.8" x2="822.2" y2="625.8"></line>
	</g>
</g>
<g>
	<g>
		<line class="st32" x1="979.5" y1="625.8" x2="979.5" y2="625.8"></line>
		<line class="st95" x1="966.8" y1="625.8" x2="935.2" y2="625.8"></line>
		<line class="st32" x1="928.9" y1="625.8" x2="928.9" y2="625.8"></line>
	</g>
</g>
<g>
	<g>
		<line class="st32" x1="297.7" y1="540.9" x2="297.7" y2="540.9"></line>
		<line class="st96" x1="284.3" y1="540.9" x2="210.9" y2="540.9"></line>
		<line class="st32" x1="204.2" y1="540.9" x2="204.2" y2="540.9"></line>
	</g>
</g>
<g>
	<g>
		<line class="st32" x1="364.9" y1="540.9" x2="364.9" y2="540.9"></line>
		<line class="st97" x1="351.5" y1="540.9" x2="304.4" y2="540.9"></line>
		<line class="st32" x1="297.7" y1="540.9" x2="297.7" y2="540.9"></line>
	</g>
</g>
<g>
	<g>
		<line class="st32" x1="443.8" y1="540.9" x2="443.8" y2="540.9"></line>
		<line class="st98" x1="429.9" y1="540.9" x2="395.1" y2="540.9"></line>
		<line class="st32" x1="388.2" y1="540.9" x2="388.2" y2="540.9"></line>
	</g>
</g>
<g>
	<g>
		<line class="st32" x1="489.8" y1="540.9" x2="489.8" y2="540.9"></line>
		<line class="st99" x1="474.5" y1="540.9" x2="451.5" y2="540.9"></line>
		<line class="st32" x1="443.8" y1="540.9" x2="443.8" y2="540.9"></line>
	</g>
</g>
<g>
	<g>
		<line class="st32" x1="556.2" y1="540.9" x2="556.2" y2="540.9"></line>
		<line class="st100" x1="541" y1="540.9" x2="518.2" y2="540.9"></line>
		<line class="st32" x1="510.6" y1="540.9" x2="510.6" y2="540.9"></line>
	</g>
</g>
<g>
	<g>
		<line class="st32" x1="601" y1="540.9" x2="601" y2="540.9"></line>
		<line class="st101" x1="586.1" y1="540.9" x2="563.7" y2="540.9"></line>
		<line class="st32" x1="556.2" y1="540.9" x2="556.2" y2="540.9"></line>
	</g>
</g>
<g>
	<g>
		<line class="st32" x1="667.5" y1="540.9" x2="667.5" y2="540.9"></line>
		<line class="st102" x1="651.8" y1="540.9" x2="628.3" y2="540.9"></line>
		<line class="st32" x1="620.4" y1="540.9" x2="620.4" y2="540.9"></line>
	</g>
</g>
<g>
	<g>
		<line class="st32" x1="723.6" y1="540.9" x2="723.6" y2="540.9"></line>
		<line class="st103" x1="709.6" y1="540.9" x2="674.5" y2="540.9"></line>
		<line class="st32" x1="667.5" y1="540.9" x2="667.5" y2="540.9"></line>
	</g>
</g>
<g>
	<g>
		<line class="st32" x1="813.4" y1="540.9" x2="813.4" y2="540.9"></line>
		<line class="st104" x1="799.7" y1="540.9" x2="751.7" y2="540.9"></line>
		<line class="st32" x1="744.9" y1="540.9" x2="744.9" y2="540.9"></line>
	</g>
</g>
<g>
	<g>
		<line class="st32" x1="909.7" y1="540.9" x2="909.7" y2="540.9"></line>
		<line class="st105" x1="896" y1="540.9" x2="820.3" y2="540.9"></line>
		<line class="st32" x1="813.4" y1="540.9" x2="813.4" y2="540.9"></line>
	</g>
</g>
<g>
	<g>
		<line class="st32" x1="979.5" y1="540.9" x2="979.5" y2="540.9"></line>
		<line class="st106" x1="964.1" y1="540.9" x2="941.1" y2="540.9"></line>
		<line class="st32" x1="933.5" y1="540.9" x2="933.5" y2="540.9"></line>
	</g>
</g>
<g>
	<g>
		<line class="st32" x1="303.8" y1="474.6" x2="303.8" y2="474.6"></line>
		<line class="st107" x1="290.2" y1="474.6" x2="215.4" y2="474.6"></line>
		<line class="st32" x1="208.6" y1="474.6" x2="208.6" y2="474.6"></line>
	</g>
</g>
<g>
	<g>
		<line class="st32" x1="387.6" y1="474.6" x2="387.6" y2="474.6"></line>
		<line class="st108" x1="372.9" y1="474.6" x2="336.3" y2="474.6"></line>
		<line class="st32" x1="328.9" y1="474.6" x2="328.9" y2="474.6"></line>
	</g>
</g>
<g>
	<g>
		<line class="st32" x1="427.2" y1="474.6" x2="427.2" y2="474.6"></line>
		<line class="st109" x1="414" y1="474.6" x2="394.2" y2="474.6"></line>
		<line class="st32" x1="387.6" y1="474.6" x2="387.6" y2="474.6"></line>
	</g>
</g>
<g>
	<g>
		<line class="st32" x1="483.4" y1="474.6" x2="483.4" y2="474.6"></line>
		<line class="st110" x1="467" y1="474.6" x2="458.8" y2="474.6"></line>
		<line class="st32" x1="450.6" y1="474.6" x2="450.6" y2="474.6"></line>
	</g>
</g>
<g>
	<g>
		<line class="st32" x1="510.6" y1="474.6" x2="510.6" y2="474.6"></line>
		<line class="st111" x1="497" y1="474.6" x2="490.2" y2="474.6"></line>
		<line class="st32" x1="483.4" y1="474.6" x2="483.4" y2="474.6"></line>
	</g>
</g>
<g>
	<g>
		<line class="st32" x1="555.8" y1="474.6" x2="555.8" y2="474.6"></line>
		<line class="st112" x1="542.3" y1="474.6" x2="535.6" y2="474.6"></line>
		<line class="st32" x1="528.8" y1="474.6" x2="528.8" y2="474.6"></line>
	</g>
</g>
<g>
	<g>
		<line class="st32" x1="583.2" y1="474.6" x2="583.2" y2="474.6"></line>
		<line class="st113" x1="569.5" y1="474.6" x2="562.6" y2="474.6"></line>
		<line class="st32" x1="555.8" y1="474.6" x2="555.8" y2="474.6"></line>
	</g>
</g>
<g>
	<g>
		<line class="st32" x1="628.7" y1="474.6" x2="628.7" y2="474.6"></line>
		<line class="st114" x1="613.4" y1="474.6" x2="605.8" y2="474.6"></line>
		<line class="st32" x1="598.1" y1="474.6" x2="598.1" y2="474.6"></line>
	</g>
</g>
<g>
	<g>
		<line class="st32" x1="662.9" y1="474.6" x2="662.9" y2="474.6"></line>
		<line class="st115" x1="651.5" y1="474.6" x2="634.4" y2="474.6"></line>
		<line class="st32" x1="628.7" y1="474.6" x2="628.7" y2="474.6"></line>
	</g>
</g>
<g>
	<g>
		<line class="st32" x1="724.5" y1="474.6" x2="724.5" y2="474.6"></line>
		<line class="st116" x1="710.3" y1="474.6" x2="689" y2="474.6"></line>
		<line class="st32" x1="681.9" y1="474.6" x2="681.9" y2="474.6"></line>
	</g>
</g>
<g>
	<g>
		<line class="st32" x1="779" y1="474.6" x2="779" y2="474.6"></line>
		<line class="st117" x1="765.4" y1="474.6" x2="731.3" y2="474.6"></line>
		<line class="st32" x1="724.5" y1="474.6" x2="724.5" y2="474.6"></line>
	</g>
</g>
<g>
	<g>
		<line class="st32" x1="902.9" y1="474.6" x2="902.9" y2="474.6"></line>
		<line class="st118" x1="889" y1="474.6" x2="812.5" y2="474.6"></line>
		<line class="st32" x1="805.5" y1="474.6" x2="805.5" y2="474.6"></line>
	</g>
</g>
<g>
	<g>
		<line class="st32" x1="979.5" y1="474.6" x2="979.5" y2="474.6"></line>
		<line class="st119" x1="966.7" y1="474.6" x2="909.3" y2="474.6"></line>
		<line class="st32" x1="902.9" y1="474.6" x2="902.9" y2="474.6"></line>
	</g>
</g>
<line class="st31" x1="994.2" y1="578.3" x2="118.2" y2="578.3"></line>
<g>
	<g>
		<line class="st32" x1="555.8" y1="379.4" x2="555.8" y2="379.4"></line>
		<line class="st32" x1="555.8" y1="374.2" x2="555.8" y2="374.2"></line>
	</g>
</g>
<circle class="st120" cx="556.1" cy="349.3" r="21.5"></circle>
</svg>
