<?xml version="1.0" encoding="UTF-8"?>
<!-- Generator: Adobe Illustrator 24.0.0, SVG Export Plug-In . SVG Version: 6.00 Build 0)  -->
<svg xmlns="http://www.w3.org/2000/svg" xmlns:xlink="http://www.w3.org/1999/xlink" version="1.1" id="Layer_1" x="0px" y="0px" viewBox="0 0 1122.9 841.9" style="enable-background:new 0 0 1122.9 841.9;" xml:space="preserve">
<style type="text/css">
	.st0{fill:#F6F4EE;}
	.st1{fill:none;stroke:#FCFBF9;stroke-width:28.2685;}
	.st2{fill:none;stroke:#FCFBF9;stroke-width:11.3069;}
	.st3{fill:none;stroke:#4663B3;stroke-width:0.3182;}
	.st4{fill:none;stroke:#A2B1D7;stroke-width:2.4016;stroke-linecap:round;stroke-miterlimit:10;stroke-dasharray:0,9.6066;}
	.st5{fill:none;stroke:#FCFBF8;stroke-width:2.1566;stroke-linejoin:round;stroke-miterlimit:10;}
	.st6{fill:none;}
	.st7{clip-path:url(#SVGID_2_);}
	.st8{fill:#4663AC;}
	.st9{fill:none;stroke:#A2B1D7;stroke-width:0.7112;stroke-miterlimit:10;}
	.st10{fill:#2C2439;}
	.st11{fill:#A2B1D7;}
	.st12{fill:none;stroke:#4663AC;stroke-width:2.8547;stroke-linecap:round;stroke-miterlimit:10;}
	.st13{opacity:0.5;fill:none;stroke:#FCFBF8;stroke-width:9.9872;stroke-miterlimit:10;}
	.st14{opacity:0.5;fill:none;stroke:#FCFBF8;stroke-width:21.2003;stroke-miterlimit:10;}
	.st15{opacity:0.5;fill:none;stroke:#FCFBF8;stroke-width:29.4871;stroke-miterlimit:10;}
	.st16{opacity:0.5;fill:none;stroke:#FCFBF8;stroke-width:31.1;stroke-miterlimit:10;}
	.st17{opacity:0.5;fill:none;stroke:#FCFBF8;stroke-width:2;stroke-miterlimit:10;}
	.st18{opacity:0.5;fill:none;stroke:#FCFBF8;stroke-width:5.0035;stroke-miterlimit:10;}
	.st19{fill:none;stroke:#4663AC;stroke-width:1.9105;stroke-miterlimit:10;}
	.st20{fill:#4663AC;stroke:#4663AC;stroke-width:1.1909;stroke-miterlimit:10;}
	.st21{fill:none;stroke:#4663AC;stroke-width:3.821;stroke-linecap:round;stroke-miterlimit:10;}
	.st22{fill:none;stroke:#4663AC;stroke-width:3.821;stroke-linecap:round;stroke-miterlimit:10;stroke-dasharray:0,12.8774;}
	.st23{fill:none;stroke:#4663AC;stroke-width:3.821;stroke-linecap:round;stroke-miterlimit:10;stroke-dasharray:0,12.3531;}
	.st24{fill:none;stroke:#4663AC;stroke-width:3.821;stroke-linecap:round;stroke-miterlimit:10;stroke-dasharray:0,13.7569;}
	.st25{fill:none;stroke:#4663AC;stroke-width:3.821;stroke-linecap:round;stroke-miterlimit:10;stroke-dasharray:0,13.0776;}
	.st26{fill:none;stroke:#4663AC;stroke-width:3.821;stroke-linecap:round;stroke-miterlimit:10;stroke-dasharray:0,12.3481;}
	.st27{fill:none;stroke:#4663AC;stroke-width:3.821;stroke-linecap:round;stroke-miterlimit:10;stroke-dasharray:0,12.6305;}
	.st28{fill:none;stroke:#4663AC;stroke-width:3.821;stroke-linecap:round;stroke-miterlimit:10;stroke-dasharray:0,12.1554;}
	.st29{fill:none;stroke:#4663AC;stroke-width:3.821;stroke-linecap:round;stroke-miterlimit:10;stroke-dasharray:0,12.6038;}
	.st30{fill:none;stroke:#4663AC;stroke-width:3.821;stroke-linecap:round;stroke-miterlimit:10;stroke-dasharray:0,11.5889;}
	.st31{fill:none;stroke:#4663AC;stroke-width:3.821;stroke-linecap:round;stroke-miterlimit:10;stroke-dasharray:0,11.5318;}
	.st32{fill:none;stroke:#4663AC;stroke-width:3.821;stroke-linecap:round;stroke-miterlimit:10;stroke-dasharray:0,11.7989;}
	.st33{fill:none;stroke:#4663AC;stroke-width:3.821;stroke-linecap:round;stroke-miterlimit:10;stroke-dasharray:0,7.6606;}
	.st34{fill:none;stroke:#4663AC;stroke-width:3.821;stroke-linecap:round;stroke-miterlimit:10;stroke-dasharray:0,13.52;}
	.st35{fill:none;stroke:#4663AC;stroke-width:3.821;stroke-linecap:round;stroke-miterlimit:10;stroke-dasharray:0,13.3775;}
	.st36{fill:none;stroke:#4663AC;stroke-width:3.821;stroke-linecap:round;stroke-miterlimit:10;stroke-dasharray:0,13.0768;}
	.st37{fill:none;stroke:#4663AC;stroke-width:3.821;stroke-linecap:round;stroke-miterlimit:10;stroke-dasharray:0,13.1943;}
	.st38{fill:none;stroke:#4663AC;stroke-width:3.821;stroke-linecap:round;stroke-miterlimit:10;stroke-dasharray:0,13.6497;}
	.st39{fill:none;stroke:#4663AC;stroke-width:3.821;stroke-linecap:round;stroke-miterlimit:10;stroke-dasharray:0,15.9712;}
	.st40{fill:none;stroke:#4663AC;stroke-width:3.821;stroke-linecap:round;stroke-miterlimit:10;stroke-dasharray:0,15.3359;}
	.st41{fill:none;stroke:#4663AC;stroke-width:3.821;stroke-linecap:round;stroke-miterlimit:10;stroke-dasharray:0,9.4638;}
	.st42{fill:none;stroke:#4663AC;stroke-width:3.821;stroke-linecap:round;stroke-miterlimit:10;stroke-dasharray:0,7.9748;}
	.st43{fill:none;stroke:#4663AC;stroke-width:3.821;stroke-linecap:round;stroke-miterlimit:10;stroke-dasharray:0,9.3851;}
	.st44{fill:none;stroke:#4663AC;stroke-width:3.821;stroke-linecap:round;stroke-miterlimit:10;stroke-dasharray:0,13.4656;}
	.st45{fill:none;stroke:#4663AC;stroke-width:3.821;stroke-linecap:round;stroke-miterlimit:10;stroke-dasharray:0,12.3603;}
	.st46{fill:none;stroke:#4663AC;stroke-width:3.821;stroke-linecap:round;stroke-miterlimit:10;stroke-dasharray:0,12.3777;}
	.st47{fill:none;stroke:#4663AC;stroke-width:3.821;stroke-linecap:round;stroke-miterlimit:10;stroke-dasharray:0,12.1278;}
	.st48{fill:none;stroke:#4663AC;stroke-width:3.821;stroke-linecap:round;stroke-miterlimit:10;stroke-dasharray:0,13.2216;}
	.st49{fill:none;stroke:#4663AC;stroke-width:3.821;stroke-linecap:round;stroke-miterlimit:10;stroke-dasharray:0,14.1274;}
	.st50{fill:none;stroke:#4663AC;stroke-width:3.821;stroke-linecap:round;stroke-miterlimit:10;stroke-dasharray:0,14.4826;}
	.st51{fill:none;stroke:#4663AC;stroke-width:3.821;stroke-linecap:round;stroke-miterlimit:10;stroke-dasharray:0,8.893;}
	.st52{fill:none;stroke:#4663AC;stroke-width:3.821;stroke-linecap:round;stroke-miterlimit:10;stroke-dasharray:0,7.4938;}
	.st53{fill:none;stroke:#4663AC;stroke-width:3.821;stroke-linecap:round;stroke-miterlimit:10;stroke-dasharray:0,8.8191;}
	.st54{fill:none;stroke:#4663AC;stroke-width:3.821;stroke-linecap:round;stroke-miterlimit:10;stroke-dasharray:0,12.5385;}
	.st55{fill:none;stroke:#4663AC;stroke-width:3.821;stroke-linecap:round;stroke-miterlimit:10;stroke-dasharray:0,13.4866;}
	.st56{fill:none;stroke:#4663AC;stroke-width:3.821;stroke-linecap:round;stroke-miterlimit:10;stroke-dasharray:0,13.1819;}
	.st57{fill:none;stroke:#4663AC;stroke-width:3.821;stroke-linecap:round;stroke-miterlimit:10;stroke-dasharray:0,12.9241;}
	.st58{fill:none;stroke:#4663AC;stroke-width:3.821;stroke-linecap:round;stroke-miterlimit:10;stroke-dasharray:0,14.0522;}
	.st59{fill:none;stroke:#4663AC;stroke-width:3.821;stroke-linecap:round;stroke-miterlimit:10;stroke-dasharray:0,15.034;}
	.st60{fill:none;stroke:#4663AC;stroke-width:3.821;stroke-linecap:round;stroke-miterlimit:10;stroke-dasharray:0,15.4121;}
	.st61{fill:none;stroke:#4663AC;stroke-width:3.821;stroke-linecap:round;stroke-miterlimit:10;stroke-dasharray:0,9.4639;}
	.st62{fill:none;stroke:#4663AC;stroke-width:3.821;stroke-linecap:round;stroke-miterlimit:10;stroke-dasharray:0,8.8806;}
	.st63{fill:none;stroke:#4663AC;stroke-width:3.821;stroke-linecap:round;stroke-miterlimit:10;stroke-dasharray:0,9.5306;}
	.st64{fill:none;stroke:#4663AC;stroke-width:3.821;stroke-linecap:round;stroke-miterlimit:10;stroke-dasharray:0,13.9626;}
	.st65{fill:none;stroke:#4663AC;stroke-width:3.821;stroke-linecap:round;stroke-miterlimit:10;stroke-dasharray:0,13.2063;}
	.st66{fill:none;stroke:#4663AC;stroke-width:3.821;stroke-linecap:round;stroke-miterlimit:10;stroke-dasharray:0,12.3975;}
	.st67{fill:none;stroke:#4663AC;stroke-width:3.821;stroke-linecap:round;stroke-miterlimit:10;stroke-dasharray:0,12.5683;}
	.st68{fill:none;stroke:#4663AC;stroke-width:3.821;stroke-linecap:round;stroke-miterlimit:10;stroke-dasharray:0,12.213;}
	.st69{fill:none;stroke:#4663AC;stroke-width:3.821;stroke-linecap:round;stroke-miterlimit:10;stroke-dasharray:0,12.6854;}
	.st70{fill:none;stroke:#4663AC;stroke-width:3.821;stroke-linecap:round;stroke-miterlimit:10;stroke-dasharray:0,11.6091;}
	.st71{fill:none;stroke:#4663AC;stroke-width:3.821;stroke-linecap:round;stroke-miterlimit:10;stroke-dasharray:0,11.3362;}
	.st72{fill:none;stroke:#4663AC;stroke-width:3.821;stroke-linecap:round;stroke-miterlimit:10;stroke-dasharray:0,11.5125;}
	.st73{fill:none;stroke:#4663AC;stroke-width:3.821;stroke-linecap:round;stroke-miterlimit:10;stroke-dasharray:0,13.6199;}
	.st74{fill:none;stroke:#4663AC;stroke-width:3.821;stroke-linecap:round;stroke-miterlimit:10;stroke-dasharray:0,13.2329;}
	.st75{fill:none;stroke:#4663AC;stroke-width:3.821;stroke-linecap:round;stroke-miterlimit:10;stroke-dasharray:0,12.2082;}
	.st76{fill:none;stroke:#4663AC;stroke-width:3.821;stroke-linecap:round;stroke-miterlimit:10;stroke-dasharray:0,11.4626;}
	.st77{fill:none;stroke:#4663AC;stroke-width:3.821;stroke-linecap:round;stroke-miterlimit:10;stroke-dasharray:0,13.4425;}
	.st78{fill:none;stroke:#4663AC;stroke-width:3.821;stroke-linecap:round;stroke-miterlimit:10;stroke-dasharray:0,12.3063;}
	.st79{fill:none;stroke:#4663AC;stroke-width:3.821;stroke-linecap:round;stroke-miterlimit:10;stroke-dasharray:0,13.8853;}
	.st80{fill:none;stroke:#4663AC;stroke-width:3.821;stroke-linecap:round;stroke-miterlimit:10;stroke-dasharray:0,13.2518;}
	.st81{fill:none;stroke:#4663AC;stroke-width:3.821;stroke-linecap:round;stroke-miterlimit:10;stroke-dasharray:0,13.1672;}
	.st82{fill:none;stroke:#4663AC;stroke-width:3.821;stroke-linecap:round;stroke-miterlimit:10;stroke-dasharray:0,14.1281;}
	.st83{fill:none;stroke:#4663AC;stroke-width:3.821;stroke-linecap:round;stroke-miterlimit:10;stroke-dasharray:0,12.8372;}
	.st84{fill:none;stroke:#4663AC;stroke-width:3.821;stroke-linecap:round;stroke-miterlimit:10;stroke-dasharray:0,13.578;}
	.st85{fill:none;stroke:#4663AC;stroke-width:3.821;stroke-linecap:round;stroke-miterlimit:10;stroke-dasharray:0,12.8609;}
	.st86{fill:none;stroke:#4663AC;stroke-width:3.821;stroke-linecap:round;stroke-miterlimit:10;stroke-dasharray:0,14.2629;}
	.st87{fill:none;stroke:#4663AC;stroke-width:3.821;stroke-linecap:round;stroke-miterlimit:10;stroke-dasharray:0,12.8355;}
	.st88{fill:none;stroke:#4663AC;stroke-width:3.821;stroke-linecap:round;stroke-miterlimit:10;stroke-dasharray:0,14.1602;}
	.st89{fill:none;stroke:#4663AC;stroke-width:3.821;stroke-linecap:round;stroke-miterlimit:10;stroke-dasharray:0,11.6957;}
	.st90{fill:none;stroke:#4663AC;stroke-width:3.821;stroke-linecap:round;stroke-miterlimit:10;stroke-dasharray:0,11.621;}
	.st91{fill:none;stroke:#4663AC;stroke-width:3.821;stroke-linecap:round;stroke-miterlimit:10;stroke-dasharray:0,11.3984;}
	.st92{fill:none;stroke:#4663AC;stroke-width:3.821;stroke-linecap:round;stroke-miterlimit:10;stroke-dasharray:0,11.989;}
	.st93{fill:none;stroke:#4663AC;stroke-width:3.821;stroke-linecap:round;stroke-miterlimit:10;stroke-dasharray:0,14.2575;}
	.st94{fill:none;stroke:#4663AC;stroke-width:3.821;stroke-linecap:round;stroke-miterlimit:10;stroke-dasharray:0,13.0855;}
	.st95{fill:none;stroke:#4663AC;stroke-width:3.821;stroke-linecap:round;stroke-miterlimit:10;stroke-dasharray:0,12.2561;}
	.st96{fill:none;stroke:#4663AC;stroke-width:3.821;stroke-linecap:round;stroke-miterlimit:10;stroke-dasharray:0,11.6985;}
	.st97{fill:none;stroke:#4663AC;stroke-width:3.821;stroke-linecap:round;stroke-miterlimit:10;stroke-dasharray:0,14.5295;}
	.st98{fill:none;stroke:#4663AC;stroke-width:3.821;stroke-linecap:round;stroke-miterlimit:10;stroke-dasharray:0,14.9331;}
	.st99{fill:none;stroke:#4663AC;stroke-width:3.821;stroke-linecap:round;stroke-miterlimit:10;stroke-dasharray:0,15.1041;}
	.st100{fill:none;stroke:#4663AC;stroke-width:3.821;stroke-linecap:round;stroke-miterlimit:10;stroke-dasharray:0,12.5175;}
	.st101{fill:none;stroke:#4663AC;stroke-width:3.821;stroke-linecap:round;stroke-miterlimit:10;stroke-dasharray:0,10.3594;}
	.st102{fill:none;stroke:#4663AC;stroke-width:3.821;stroke-linecap:round;stroke-miterlimit:10;stroke-dasharray:0,10.295;}
	.st103{fill:none;stroke:#4663AC;stroke-width:3.821;stroke-linecap:round;stroke-miterlimit:10;stroke-dasharray:0,10.4525;}
	.st104{fill:none;stroke:#4663AC;stroke-width:3.821;stroke-linecap:round;stroke-miterlimit:10;stroke-dasharray:0,11.6843;}
	.st105{fill:none;stroke:#4663AC;stroke-width:3.821;stroke-linecap:round;stroke-miterlimit:10;stroke-dasharray:0,13.0375;}
	.st106{fill:none;stroke:#4663AC;stroke-width:3.821;stroke-linecap:round;stroke-miterlimit:10;stroke-dasharray:0,16.2424;}
	.st107{fill:none;stroke:#4663AC;stroke-width:3.821;stroke-linecap:round;stroke-miterlimit:10;stroke-dasharray:0,13.8874;}
	.st108{fill:none;stroke:#4663AC;stroke-width:3.821;stroke-linecap:round;stroke-miterlimit:10;stroke-dasharray:0,12.3922;}
	.st109{fill:none;stroke:#4663AC;stroke-width:3.821;stroke-linecap:round;stroke-miterlimit:10;stroke-dasharray:0,14.6076;}
	.st110{fill:#FFFFFF;}
	.st111{fill:none;stroke:#4663B3;stroke-width:0.9991;}
	.st112{fill:#4663B3;}
	.st113{opacity:0.25;fill:none;stroke:#FCFBF9;stroke-width:21.1972;}
	.st114{opacity:0.5;fill:none;stroke:#FCFBF9;stroke-width:21.1972;}
	.st115{fill:none;stroke:#FCFBF9;stroke-width:21.1972;}
</style>
<rect x="0" class="st0" width="1122.9" height="841.9"></rect>
<g>
	<polygon class="st0" points="225.7,419.1 555.5,299.1 885.3,419.1 885.3,602.7 225.7,602.7  "></polygon>
	<polyline class="st19" points="885.3,419.1 555.5,299.1 225.7,419.1  "></polyline>
	<circle class="st20" cx="555.5" cy="299.1" r="23.9"></circle>
	<g>
		<g>
			<line class="st21" x1="424.3" y1="374.8" x2="424.3" y2="374.8"></line>
			<line class="st22" x1="413.1" y1="381.3" x2="296" y2="448.9"></line>
			<line class="st21" x1="290.5" y1="452.1" x2="290.5" y2="452.1"></line>
		</g>
	</g>
	<g>
		<g>
			<line class="st21" x1="476.6" y1="344.6" x2="476.6" y2="344.6"></line>
			<line class="st23" x1="465.9" y1="350.8" x2="449.9" y2="360.1"></line>
			<line class="st21" x1="444.5" y1="363.1" x2="444.5" y2="363.1"></line>
		</g>
	</g>
	<g>
		<g>
			<line class="st21" x1="529.2" y1="314.2" x2="529.2" y2="314.2"></line>
			<line class="st24" x1="517.3" y1="321.1" x2="499.4" y2="331.4"></line>
			<line class="st21" x1="493.5" y1="334.9" x2="493.5" y2="334.9"></line>
		</g>
	</g>
	<g>
		<g>
			<line class="st21" x1="581.8" y1="314.2" x2="581.8" y2="314.2"></line>
			<line class="st24" x1="593.7" y1="321.1" x2="611.6" y2="331.4"></line>
			<line class="st21" x1="617.5" y1="334.9" x2="617.5" y2="334.9"></line>
		</g>
	</g>
	<line class="st19" x1="555.5" y1="299.1" x2="197.7" y2="599.3"></line>
	<g>
		<g>
			<line class="st21" x1="312.7" y1="588.5" x2="312.7" y2="588.5"></line>
			<line class="st25" x1="304.2" y1="598.5" x2="274.8" y2="633.6"></line>
			<line class="st21" x1="270.6" y1="638.6" x2="270.6" y2="638.6"></line>
		</g>
	</g>
	<g>
		<g>
			<line class="st21" x1="358.4" y1="533.9" x2="358.4" y2="533.9"></line>
			<line class="st26" x1="350.5" y1="543.4" x2="330.6" y2="567"></line>
			<line class="st21" x1="326.7" y1="571.8" x2="326.7" y2="571.8"></line>
		</g>
	</g>
	<g>
		<g>
			<line class="st21" x1="390.9" y1="495.2" x2="390.9" y2="495.2"></line>
			<line class="st27" x1="382.8" y1="504.9" x2="362.5" y2="529.1"></line>
			<line class="st21" x1="358.4" y1="533.9" x2="358.4" y2="533.9"></line>
		</g>
	</g>
	<g>
		<g>
			<line class="st21" x1="427.1" y1="452.1" x2="427.1" y2="452.1"></line>
			<line class="st28" x1="419.3" y1="461.4" x2="407.6" y2="475.4"></line>
			<line class="st21" x1="403.7" y1="480" x2="403.7" y2="480"></line>
		</g>
	</g>
	<g>
		<g>
			<line class="st21" x1="451.4" y1="423.1" x2="451.4" y2="423.1"></line>
			<line class="st29" x1="443.3" y1="432.8" x2="431.2" y2="447.3"></line>
			<line class="st21" x1="427.1" y1="452.1" x2="427.1" y2="452.1"></line>
		</g>
	</g>
	<g>
		<g>
			<line class="st21" x1="477" y1="392.6" x2="477" y2="392.6"></line>
			<line class="st30" x1="469.6" y1="401.5" x2="465.9" y2="405.9"></line>
			<line class="st21" x1="462.1" y1="410.3" x2="462.1" y2="410.3"></line>
		</g>
	</g>
	<g>
		<g>
			<line class="st21" x1="491.9" y1="374.9" x2="491.9" y2="374.9"></line>
			<line class="st31" x1="484.5" y1="383.7" x2="480.8" y2="388.2"></line>
			<line class="st21" x1="477" y1="392.6" x2="477" y2="392.6"></line>
		</g>
	</g>
	<g>
		<g>
			<line class="st21" x1="516.7" y1="345.3" x2="516.7" y2="345.3"></line>
			<line class="st32" x1="509.1" y1="354.3" x2="505.3" y2="358.8"></line>
			<line class="st21" x1="501.6" y1="363.4" x2="501.6" y2="363.4"></line>
		</g>
	</g>
	<g>
		<g>
			<line class="st21" x1="535.5" y1="323" x2="535.5" y2="323"></line>
			<line class="st33" x1="530.5" y1="328.8" x2="528.1" y2="331.8"></line>
			<line class="st21" x1="525.6" y1="334.7" x2="525.6" y2="334.7"></line>
		</g>
	</g>
	<line class="st19" x1="555.5" y1="299.1" x2="293.1" y2="753.6"></line>
	<g>
		<g>
			<line class="st21" x1="407.5" y1="705.8" x2="407.5" y2="705.8"></line>
			<line class="st34" x1="402.9" y1="718.5" x2="377.4" y2="788.4"></line>
			<line class="st21" x1="375.1" y1="794.7" x2="375.1" y2="794.7"></line>
		</g>
	</g>
	<g>
		<g>
			<line class="st21" x1="431.9" y1="638.6" x2="431.9" y2="638.6"></line>
			<line class="st35" x1="427.4" y1="651.2" x2="415.9" y2="682.6"></line>
			<line class="st21" x1="413.6" y1="688.9" x2="413.6" y2="688.9"></line>
		</g>
	</g>
	<g>
		<g>
			<line class="st21" x1="449.8" y1="589.4" x2="449.8" y2="589.4"></line>
			<line class="st36" x1="445.3" y1="601.7" x2="434.2" y2="632.4"></line>
			<line class="st21" x1="431.9" y1="638.6" x2="431.9" y2="638.6"></line>
		</g>
	</g>
	<g>
		<g>
			<line class="st21" x1="470" y1="533.9" x2="470" y2="533.9"></line>
			<line class="st37" x1="465.5" y1="546.3" x2="458.7" y2="564.9"></line>
			<line class="st21" x1="456.5" y1="571.1" x2="456.5" y2="571.1"></line>
		</g>
	</g>
	<g>
		<g>
			<line class="st21" x1="484" y1="495.5" x2="484" y2="495.5"></line>
			<line class="st38" x1="479.4" y1="508.3" x2="472.4" y2="527.5"></line>
			<line class="st21" x1="470" y1="533.9" x2="470" y2="533.9"></line>
		</g>
	</g>
	<g>
		<g>
			<line class="st21" x1="499.9" y1="451.9" x2="499.9" y2="451.9"></line>
			<line class="st39" x1="494.4" y1="467" x2="491.7" y2="474.5"></line>
			<line class="st21" x1="488.9" y1="482" x2="488.9" y2="482"></line>
		</g>
	</g>
	<g>
		<g>
			<line class="st21" x1="510.4" y1="423.1" x2="510.4" y2="423.1"></line>
			<line class="st40" x1="505.1" y1="437.5" x2="502.5" y2="444.7"></line>
			<line class="st21" x1="499.9" y1="451.9" x2="499.9" y2="451.9"></line>
		</g>
	</g>
	<g>
		<g>
			<line class="st21" x1="521.5" y1="392.5" x2="521.5" y2="392.5"></line>
			<line class="st41" x1="518.2" y1="401.4" x2="516.6" y2="405.9"></line>
			<line class="st21" x1="515" y1="410.3" x2="515" y2="410.3"></line>
		</g>
	</g>
	<g>
		<g>
			<line class="st21" x1="526.9" y1="377.6" x2="526.9" y2="377.6"></line>
			<line class="st42" x1="524.2" y1="385.1" x2="522.8" y2="388.8"></line>
			<line class="st21" x1="521.5" y1="392.5" x2="521.5" y2="392.5"></line>
		</g>
	</g>
	<g>
		<g>
			<line class="st21" x1="538.7" y1="345.3" x2="538.7" y2="345.3"></line>
			<line class="st43" x1="535.5" y1="354.1" x2="533.9" y2="358.5"></line>
			<line class="st21" x1="532.3" y1="362.9" x2="532.3" y2="362.9"></line>
		</g>
	</g>
	<g>
		<g>
			<line class="st21" x1="544.9" y1="328.3" x2="544.9" y2="328.3"></line>
			<line class="st21" x1="542.5" y1="334.7" x2="542.5" y2="334.7"></line>
		</g>
	</g>
	<g>
		<g>
			<line class="st21" x1="575.5" y1="323" x2="575.5" y2="323"></line>
			<line class="st33" x1="580.5" y1="328.8" x2="582.9" y2="331.8"></line>
			<line class="st21" x1="585.4" y1="334.7" x2="585.4" y2="334.7"></line>
		</g>
	</g>
	<g>
		<g>
			<line class="st21" x1="566.2" y1="328.3" x2="566.2" y2="328.3"></line>
			<line class="st21" x1="568.5" y1="334.7" x2="568.5" y2="334.7"></line>
		</g>
	</g>
	<line class="st19" x1="555.5" y1="299.1" x2="473.1" y2="766.7"></line>
	<g>
		<g>
			<line class="st21" x1="555.5" y1="704.7" x2="555.5" y2="704.7"></line>
			<line class="st44" x1="555.5" y1="718.2" x2="555.5" y2="792.2"></line>
			<line class="st21" x1="555.5" y1="799" x2="555.5" y2="799"></line>
		</g>
	</g>
	<g>
		<g>
			<line class="st21" x1="555.5" y1="638.6" x2="555.5" y2="638.6"></line>
			<line class="st45" x1="555.5" y1="650.9" x2="555.5" y2="681.8"></line>
			<line class="st21" x1="555.5" y1="688" x2="555.5" y2="688"></line>
		</g>
	</g>
	<g>
		<g>
			<line class="st21" x1="555.5" y1="589.1" x2="555.5" y2="589.1"></line>
			<line class="st46" x1="555.5" y1="601.5" x2="555.5" y2="632.4"></line>
			<line class="st21" x1="555.5" y1="638.6" x2="555.5" y2="638.6"></line>
		</g>
	</g>
	<g>
		<g>
			<line class="st21" x1="555.5" y1="533.9" x2="555.5" y2="533.9"></line>
			<line class="st47" x1="555.5" y1="546.1" x2="555.5" y2="564.3"></line>
			<line class="st21" x1="555.5" y1="570.3" x2="555.5" y2="570.3"></line>
		</g>
	</g>
	<g>
		<g>
			<line class="st21" x1="555.5" y1="494.3" x2="555.5" y2="494.3"></line>
			<line class="st48" x1="555.5" y1="507.5" x2="555.5" y2="527.3"></line>
			<line class="st21" x1="555.5" y1="533.9" x2="555.5" y2="533.9"></line>
		</g>
	</g>
	<g>
		<g>
			<line class="st21" x1="555.5" y1="452.1" x2="555.5" y2="452.1"></line>
			<line class="st49" x1="555.5" y1="466.2" x2="555.5" y2="473.3"></line>
			<line class="st21" x1="555.5" y1="480.3" x2="555.5" y2="480.3"></line>
		</g>
	</g>
	<g>
		<g>
			<line class="st21" x1="555.5" y1="423.1" x2="555.5" y2="423.1"></line>
			<line class="st50" x1="555.5" y1="437.6" x2="555.5" y2="444.9"></line>
			<line class="st21" x1="555.5" y1="452.1" x2="555.5" y2="452.1"></line>
		</g>
	</g>
	<g>
		<g>
			<line class="st21" x1="555.5" y1="392.5" x2="555.5" y2="392.5"></line>
			<line class="st51" x1="555.5" y1="401.4" x2="555.5" y2="405.9"></line>
			<line class="st21" x1="555.5" y1="410.3" x2="555.5" y2="410.3"></line>
		</g>
	</g>
	<g>
		<g>
			<line class="st21" x1="555.5" y1="377.6" x2="555.5" y2="377.6"></line>
			<line class="st52" x1="555.5" y1="385.1" x2="555.5" y2="388.8"></line>
			<line class="st21" x1="555.5" y1="392.5" x2="555.5" y2="392.5"></line>
		</g>
	</g>
	<g>
		<g>
			<line class="st21" x1="555.5" y1="345.3" x2="555.5" y2="345.3"></line>
			<line class="st53" x1="555.5" y1="354.1" x2="555.5" y2="358.5"></line>
			<line class="st21" x1="555.5" y1="362.9" x2="555.5" y2="362.9"></line>
		</g>
	</g>
	<line class="st19" x1="555.5" y1="299.1" x2="631" y2="727.5"></line>
	<g>
		<g>
			<line class="st21" x1="703.1" y1="704.7" x2="703.1" y2="704.7"></line>
			<line class="st54" x1="707.4" y1="716.5" x2="735.3" y2="793.1"></line>
			<line class="st21" x1="737.4" y1="799" x2="737.4" y2="799"></line>
		</g>
	</g>
	<g>
		<g>
			<line class="st21" x1="679.1" y1="638.6" x2="679.1" y2="638.6"></line>
			<line class="st55" x1="683.7" y1="651.3" x2="695.2" y2="683"></line>
			<line class="st21" x1="697.5" y1="689.3" x2="697.5" y2="689.3"></line>
		</g>
	</g>
	<g>
		<g>
			<line class="st21" x1="661.1" y1="589.1" x2="661.1" y2="589.1"></line>
			<line class="st56" x1="665.6" y1="601.5" x2="676.8" y2="632.4"></line>
			<line class="st21" x1="679.1" y1="638.6" x2="679.1" y2="638.6"></line>
		</g>
	</g>
	<g>
		<g>
			<line class="st21" x1="641" y1="533.9" x2="641" y2="533.9"></line>
			<line class="st57" x1="645.4" y1="546" x2="652" y2="564.3"></line>
			<line class="st21" x1="654.2" y1="570.3" x2="654.2" y2="570.3"></line>
		</g>
	</g>
	<g>
		<g>
			<line class="st21" x1="626.5" y1="494.3" x2="626.5" y2="494.3"></line>
			<line class="st58" x1="631.4" y1="507.5" x2="638.6" y2="527.3"></line>
			<line class="st21" x1="641" y1="533.9" x2="641" y2="533.9"></line>
		</g>
	</g>
	<g>
		<g>
			<line class="st21" x1="611.2" y1="452.1" x2="611.2" y2="452.1"></line>
			<line class="st59" x1="616.3" y1="466.2" x2="618.9" y2="473.3"></line>
			<line class="st21" x1="621.5" y1="480.3" x2="621.5" y2="480.3"></line>
		</g>
	</g>
	<g>
		<g>
			<line class="st21" x1="600.7" y1="423.1" x2="600.7" y2="423.1"></line>
			<line class="st60" x1="605.9" y1="437.6" x2="608.6" y2="444.9"></line>
			<line class="st21" x1="611.2" y1="452.1" x2="611.2" y2="452.1"></line>
		</g>
	</g>
	<g>
		<g>
			<line class="st21" x1="589.5" y1="392.5" x2="589.5" y2="392.5"></line>
			<line class="st61" x1="592.8" y1="401.4" x2="594.4" y2="405.9"></line>
			<line class="st21" x1="596" y1="410.3" x2="596" y2="410.3"></line>
		</g>
	</g>
	<g>
		<g>
			<line class="st21" x1="583.4" y1="375.9" x2="583.4" y2="375.9"></line>
			<line class="st62" x1="586.5" y1="384.2" x2="588" y2="388.4"></line>
			<line class="st21" x1="589.5" y1="392.5" x2="589.5" y2="392.5"></line>
		</g>
	</g>
	<g>
		<g>
			<line class="st21" x1="572.3" y1="345.3" x2="572.3" y2="345.3"></line>
			<line class="st63" x1="575.6" y1="354.2" x2="577.2" y2="358.7"></line>
			<line class="st21" x1="578.8" y1="363.2" x2="578.8" y2="363.2"></line>
		</g>
	</g>
	<line class="st19" x1="555.5" y1="299.1" x2="817.9" y2="753.6"></line>
	<g>
		<g>
			<line class="st21" x1="840.4" y1="638.6" x2="840.4" y2="638.6"></line>
			<line class="st64" x1="849.4" y1="649.3" x2="898.7" y2="708.1"></line>
			<line class="st21" x1="903.2" y1="713.5" x2="903.2" y2="713.5"></line>
		</g>
	</g>
	<g>
		<g>
			<line class="st21" x1="797.9" y1="588" x2="797.9" y2="588"></line>
			<line class="st65" x1="806.4" y1="598.1" x2="836.1" y2="633.5"></line>
			<line class="st21" x1="840.4" y1="638.6" x2="840.4" y2="638.6"></line>
		</g>
	</g>
	<g>
		<g>
			<line class="st21" x1="752.4" y1="533.8" x2="752.4" y2="533.8"></line>
			<line class="st66" x1="760.4" y1="543.3" x2="780.3" y2="567"></line>
			<line class="st21" x1="784.3" y1="571.7" x2="784.3" y2="571.7"></line>
		</g>
	</g>
	<g>
		<g>
			<line class="st21" x1="720.1" y1="495.2" x2="720.1" y2="495.2"></line>
			<line class="st67" x1="728.2" y1="504.9" x2="748.4" y2="528.9"></line>
			<line class="st21" x1="752.4" y1="533.8" x2="752.4" y2="533.8"></line>
		</g>
	</g>
	<g>
		<g>
			<line class="st21" x1="684.1" y1="452.3" x2="684.1" y2="452.3"></line>
			<line class="st68" x1="691.9" y1="461.6" x2="703.7" y2="475.7"></line>
			<line class="st21" x1="707.6" y1="480.3" x2="707.6" y2="480.3"></line>
		</g>
	</g>
	<g>
		<g>
			<line class="st21" x1="659.6" y1="423.1" x2="659.6" y2="423.1"></line>
			<line class="st69" x1="667.7" y1="432.8" x2="680" y2="447.4"></line>
			<line class="st21" x1="684.1" y1="452.3" x2="684.1" y2="452.3"></line>
		</g>
	</g>
	<g>
		<g>
			<line class="st21" x1="633.9" y1="392.5" x2="633.9" y2="392.5"></line>
			<line class="st70" x1="641.4" y1="401.4" x2="645.1" y2="405.9"></line>
			<line class="st21" x1="648.9" y1="410.3" x2="648.9" y2="410.3"></line>
		</g>
	</g>
	<g>
		<g>
			<line class="st21" x1="619.4" y1="375.2" x2="619.4" y2="375.2"></line>
			<line class="st71" x1="626.6" y1="383.9" x2="630.3" y2="388.2"></line>
			<line class="st21" x1="633.9" y1="392.5" x2="633.9" y2="392.5"></line>
		</g>
	</g>
	<g>
		<g>
			<line class="st21" x1="594.3" y1="345.3" x2="594.3" y2="345.3"></line>
			<line class="st72" x1="601.7" y1="354.1" x2="605.4" y2="358.5"></line>
			<line class="st21" x1="609.1" y1="362.9" x2="609.1" y2="362.9"></line>
		</g>
	</g>
	<line class="st19" x1="555.5" y1="299.1" x2="925.2" y2="609.3"></line>
	<g>
		<g>
			<line class="st21" x1="820.5" y1="452.1" x2="820.5" y2="452.1"></line>
			<line class="st73" x1="832.3" y1="458.9" x2="885.4" y2="489.5"></line>
			<line class="st21" x1="891.3" y1="493" x2="891.3" y2="493"></line>
		</g>
	</g>
	<g>
		<g>
			<line class="st21" x1="717.4" y1="392.5" x2="717.4" y2="392.5"></line>
			<line class="st74" x1="728.9" y1="399.2" x2="814.8" y2="448.8"></line>
			<line class="st21" x1="820.5" y1="452.1" x2="820.5" y2="452.1"></line>
		</g>
	</g>
	<g>
		<g>
			<line class="st21" x1="685.7" y1="374.2" x2="685.7" y2="374.2"></line>
			<line class="st75" x1="696.3" y1="380.3" x2="712.1" y2="389.5"></line>
			<line class="st21" x1="717.4" y1="392.5" x2="717.4" y2="392.5"></line>
		</g>
	</g>
	<g>
		<g>
			<line class="st21" x1="635.6" y1="345.3" x2="635.6" y2="345.3"></line>
			<line class="st76" x1="645.5" y1="351" x2="660.4" y2="359.6"></line>
			<line class="st21" x1="665.3" y1="362.5" x2="665.3" y2="362.5"></line>
		</g>
	</g>
	<line class="st19" x1="444.5" y1="339.4" x2="665.5" y2="339.4"></line>
	<line class="st19" x1="746.2" y1="368.8" x2="363.9" y2="368.8"></line>
	<line class="st19" x1="365.5" y1="416.3" x2="744.5" y2="416.3"></line>
	<line class="st19" x1="779.6" y1="487.9" x2="330.4" y2="487.9"></line>
	<line class="st19" x1="879" y1="697.2" x2="232" y2="697.2"></line>
	<g>
		<g>
			<line class="st21" x1="351.3" y1="638.6" x2="351.3" y2="638.6"></line>
			<line class="st77" x1="337.8" y1="638.6" x2="277.3" y2="638.6"></line>
			<line class="st21" x1="270.6" y1="638.6" x2="270.6" y2="638.6"></line>
		</g>
	</g>
	<g>
		<g>
			<line class="st21" x1="431.9" y1="638.6" x2="431.9" y2="638.6"></line>
			<line class="st78" x1="419.6" y1="638.6" x2="376.6" y2="638.6"></line>
			<line class="st21" x1="370.4" y1="638.6" x2="370.4" y2="638.6"></line>
		</g>
	</g>
	<g>
		<g>
			<line class="st21" x1="487.5" y1="638.6" x2="487.5" y2="638.6"></line>
			<line class="st79" x1="473.6" y1="638.6" x2="438.9" y2="638.6"></line>
			<line class="st21" x1="431.9" y1="638.6" x2="431.9" y2="638.6"></line>
		</g>
	</g>
	<g>
		<g>
			<line class="st21" x1="555.5" y1="638.6" x2="555.5" y2="638.6"></line>
			<line class="st80" x1="542.3" y1="638.6" x2="509.1" y2="638.6"></line>
			<line class="st21" x1="502.5" y1="638.6" x2="502.5" y2="638.6"></line>
		</g>
	</g>
	<g>
		<g>
			<line class="st21" x1="608.2" y1="638.6" x2="608.2" y2="638.6"></line>
			<line class="st81" x1="595" y1="638.6" x2="562.1" y2="638.6"></line>
			<line class="st21" x1="555.5" y1="638.6" x2="555.5" y2="638.6"></line>
		</g>
	</g>
	<g>
		<g>
			<line class="st21" x1="679.2" y1="638.6" x2="679.2" y2="638.6"></line>
			<line class="st82" x1="665.1" y1="638.6" x2="629.7" y2="638.6"></line>
			<line class="st21" x1="622.7" y1="638.6" x2="622.7" y2="638.6"></line>
		</g>
	</g>
	<g>
		<g>
			<line class="st21" x1="743.4" y1="638.6" x2="743.4" y2="638.6"></line>
			<line class="st83" x1="730.5" y1="638.6" x2="685.6" y2="638.6"></line>
			<line class="st21" x1="679.2" y1="638.6" x2="679.2" y2="638.6"></line>
		</g>
	</g>
	<g>
		<g>
			<line class="st21" x1="840.4" y1="638.6" x2="840.4" y2="638.6"></line>
			<line class="st84" x1="826.8" y1="638.6" x2="765.7" y2="638.6"></line>
			<line class="st21" x1="758.9" y1="638.6" x2="758.9" y2="638.6"></line>
		</g>
	</g>
	<g>
		<g>
			<line class="st21" x1="879" y1="638.6" x2="879" y2="638.6"></line>
			<line class="st85" x1="866.1" y1="638.6" x2="846.8" y2="638.6"></line>
			<line class="st21" x1="840.4" y1="638.6" x2="840.4" y2="638.6"></line>
		</g>
	</g>
	<g>
		<g>
			<line class="st21" x1="358.4" y1="533.9" x2="358.4" y2="533.9"></line>
			<line class="st86" x1="344.2" y1="533.9" x2="294.2" y2="533.9"></line>
			<line class="st21" x1="287.1" y1="533.9" x2="287.1" y2="533.9"></line>
		</g>
	</g>
	<g>
		<g>
			<line class="st21" x1="409.8" y1="533.9" x2="409.8" y2="533.9"></line>
			<line class="st87" x1="396.9" y1="533.9" x2="364.8" y2="533.9"></line>
			<line class="st21" x1="358.4" y1="533.9" x2="358.4" y2="533.9"></line>
		</g>
	</g>
	<g>
		<g>
			<line class="st21" x1="470" y1="533.9" x2="470" y2="533.9"></line>
			<line class="st88" x1="455.9" y1="533.9" x2="434.6" y2="533.9"></line>
			<line class="st21" x1="427.5" y1="533.9" x2="427.5" y2="533.9"></line>
		</g>
	</g>
	<g>
		<g>
			<line class="st21" x1="505.1" y1="533.9" x2="505.1" y2="533.9"></line>
			<line class="st89" x1="493.4" y1="533.9" x2="475.9" y2="533.9"></line>
			<line class="st21" x1="470" y1="533.9" x2="470" y2="533.9"></line>
		</g>
	</g>
	<g>
		<g>
			<line class="st21" x1="555.8" y1="533.9" x2="555.8" y2="533.9"></line>
			<line class="st90" x1="544.2" y1="533.9" x2="526.8" y2="533.9"></line>
			<line class="st21" x1="521" y1="533.9" x2="521" y2="533.9"></line>
		</g>
	</g>
	<g>
		<g>
			<line class="st21" x1="590" y1="533.9" x2="590" y2="533.9"></line>
			<line class="st91" x1="578.6" y1="533.9" x2="561.5" y2="533.9"></line>
			<line class="st21" x1="555.8" y1="533.9" x2="555.8" y2="533.9"></line>
		</g>
	</g>
	<g>
		<g>
			<line class="st21" x1="640.8" y1="533.9" x2="640.8" y2="533.9"></line>
			<line class="st92" x1="628.8" y1="533.9" x2="610.9" y2="533.9"></line>
			<line class="st21" x1="604.9" y1="533.9" x2="604.9" y2="533.9"></line>
		</g>
	</g>
	<g>
		<g>
			<line class="st21" x1="683.6" y1="533.9" x2="683.6" y2="533.9"></line>
			<line class="st93" x1="669.3" y1="533.9" x2="648" y2="533.9"></line>
			<line class="st21" x1="640.8" y1="533.9" x2="640.8" y2="533.9"></line>
		</g>
	</g>
	<g>
		<g>
			<line class="st21" x1="752.2" y1="533.9" x2="752.2" y2="533.9"></line>
			<line class="st94" x1="739.1" y1="533.9" x2="706.4" y2="533.9"></line>
			<line class="st21" x1="699.9" y1="533.9" x2="699.9" y2="533.9"></line>
		</g>
	</g>
	<g>
		<g>
			<line class="st21" x1="825.7" y1="533.9" x2="825.7" y2="533.9"></line>
			<line class="st95" x1="813.5" y1="533.9" x2="758.3" y2="533.9"></line>
			<line class="st21" x1="752.2" y1="533.9" x2="752.2" y2="533.9"></line>
		</g>
	</g>
	<g>
		<g>
			<line class="st21" x1="879" y1="533.9" x2="879" y2="533.9"></line>
			<line class="st96" x1="867.3" y1="533.9" x2="849.7" y2="533.9"></line>
			<line class="st21" x1="843.9" y1="533.9" x2="843.9" y2="533.9"></line>
		</g>
	</g>
	<g>
		<g>
			<line class="st21" x1="363.1" y1="452.1" x2="363.1" y2="452.1"></line>
			<line class="st97" x1="348.6" y1="452.1" x2="297.7" y2="452.1"></line>
			<line class="st21" x1="290.5" y1="452.1" x2="290.5" y2="452.1"></line>
		</g>
	</g>
	<g>
		<g>
			<line class="st21" x1="427.1" y1="452.1" x2="427.1" y2="452.1"></line>
			<line class="st98" x1="412.2" y1="452.1" x2="389.8" y2="452.1"></line>
			<line class="st21" x1="382.3" y1="452.1" x2="382.3" y2="452.1"></line>
		</g>
	</g>
	<g>
		<g>
			<line class="st21" x1="457.3" y1="452.1" x2="457.3" y2="452.1"></line>
			<line class="st99" x1="442.2" y1="452.1" x2="434.7" y2="452.1"></line>
			<line class="st21" x1="427.1" y1="452.1" x2="427.1" y2="452.1"></line>
		</g>
	</g>
	<g>
		<g>
			<line class="st21" x1="500.3" y1="452.1" x2="500.3" y2="452.1"></line>
			<line class="st100" x1="487.7" y1="452.1" x2="481.5" y2="452.1"></line>
			<line class="st21" x1="475.2" y1="452.1" x2="475.2" y2="452.1"></line>
		</g>
	</g>
	<g>
		<g>
			<line class="st21" x1="521" y1="452.1" x2="521" y2="452.1"></line>
			<line class="st101" x1="510.6" y1="452.1" x2="505.4" y2="452.1"></line>
			<line class="st21" x1="500.3" y1="452.1" x2="500.3" y2="452.1"></line>
		</g>
	</g>
	<g>
		<g>
			<line class="st21" x1="555.5" y1="452.1" x2="555.5" y2="452.1"></line>
			<line class="st102" x1="545.2" y1="452.1" x2="540.1" y2="452.1"></line>
			<line class="st21" x1="534.9" y1="452.1" x2="534.9" y2="452.1"></line>
		</g>
	</g>
	<g>
		<g>
			<line class="st21" x1="576.4" y1="452.1" x2="576.4" y2="452.1"></line>
			<line class="st103" x1="566" y1="452.1" x2="560.7" y2="452.1"></line>
			<line class="st21" x1="555.5" y1="452.1" x2="555.5" y2="452.1"></line>
		</g>
	</g>
	<g>
		<g>
			<line class="st21" x1="611.2" y1="452.1" x2="611.2" y2="452.1"></line>
			<line class="st104" x1="599.5" y1="452.1" x2="593.7" y2="452.1"></line>
			<line class="st21" x1="587.8" y1="452.1" x2="587.8" y2="452.1"></line>
		</g>
	</g>
	<g>
		<g>
			<line class="st21" x1="637.3" y1="452.1" x2="637.3" y2="452.1"></line>
			<line class="st105" x1="624.2" y1="452.1" x2="617.7" y2="452.1"></line>
			<line class="st21" x1="611.2" y1="452.1" x2="611.2" y2="452.1"></line>
		</g>
	</g>
	<g>
		<g>
			<line class="st21" x1="684.3" y1="452.1" x2="684.3" y2="452.1"></line>
			<line class="st106" x1="668" y1="452.1" x2="659.9" y2="452.1"></line>
			<line class="st21" x1="651.8" y1="452.1" x2="651.8" y2="452.1"></line>
		</g>
	</g>
	<g>
		<g>
			<line class="st21" x1="725.9" y1="452.1" x2="725.9" y2="452.1"></line>
			<line class="st107" x1="712.1" y1="452.1" x2="691.2" y2="452.1"></line>
			<line class="st21" x1="684.3" y1="452.1" x2="684.3" y2="452.1"></line>
		</g>
	</g>
	<g>
		<g>
			<line class="st21" x1="820.5" y1="452.1" x2="820.5" y2="452.1"></line>
			<line class="st108" x1="808.1" y1="452.1" x2="752.4" y2="452.1"></line>
			<line class="st21" x1="746.2" y1="452.1" x2="746.2" y2="452.1"></line>
		</g>
	</g>
	<g>
		<g>
			<line class="st21" x1="879" y1="452.1" x2="879" y2="452.1"></line>
			<line class="st109" x1="864.4" y1="452.1" x2="827.8" y2="452.1"></line>
			<line class="st21" x1="820.5" y1="452.1" x2="820.5" y2="452.1"></line>
		</g>
	</g>
	<line class="st19" x1="890.2" y1="580" x2="221.4" y2="580"></line>
	<g>
		<g>
			<line class="st21" x1="555.5" y1="334.7" x2="555.5" y2="334.7"></line>
			<line class="st21" x1="555.5" y1="328.3" x2="555.5" y2="328.3"></line>
		</g>
	</g>
</g>
</svg>
