<?xml version="1.0" encoding="UTF-8"?>
<svg xmlns="http://www.w3.org/2000/svg" id="Layer_1" data-name="Layer 1" viewBox="0 0 1122.92 841.89">
  <defs>
    <style>.cls-1{fill:#f6f4ee;}.cls-10,.cls-11,.cls-12,.cls-13,.cls-14,.cls-15,.cls-16,.cls-17,.cls-18,.cls-19,.cls-2,.cls-20,.cls-21,.cls-22,.cls-23,.cls-24,.cls-25,.cls-26,.cls-27,.cls-28,.cls-29,.cls-30,.cls-31,.cls-32,.cls-33,.cls-34,.cls-35,.cls-36,.cls-37,.cls-38,.cls-39,.cls-4,.cls-40,.cls-41,.cls-42,.cls-43,.cls-44,.cls-45,.cls-46,.cls-47,.cls-48,.cls-49,.cls-5,.cls-50,.cls-51,.cls-52,.cls-53,.cls-54,.cls-55,.cls-56,.cls-57,.cls-58,.cls-59,.cls-6,.cls-60,.cls-61,.cls-62,.cls-63,.cls-64,.cls-65,.cls-66,.cls-67,.cls-68,.cls-69,.cls-7,.cls-70,.cls-71,.cls-72,.cls-73,.cls-74,.cls-75,.cls-76,.cls-77,.cls-78,.cls-79,.cls-8,.cls-80,.cls-81,.cls-82,.cls-83,.cls-84,.cls-85,.cls-86,.cls-87,.cls-88,.cls-89,.cls-9,.cls-90,.cls-91,.cls-92{fill:none;}.cls-10,.cls-11,.cls-12,.cls-13,.cls-14,.cls-15,.cls-16,.cls-17,.cls-18,.cls-19,.cls-2,.cls-20,.cls-21,.cls-22,.cls-23,.cls-24,.cls-25,.cls-26,.cls-27,.cls-28,.cls-29,.cls-3,.cls-30,.cls-31,.cls-32,.cls-33,.cls-34,.cls-35,.cls-36,.cls-37,.cls-38,.cls-39,.cls-4,.cls-40,.cls-41,.cls-42,.cls-43,.cls-44,.cls-45,.cls-46,.cls-47,.cls-48,.cls-49,.cls-5,.cls-50,.cls-51,.cls-52,.cls-53,.cls-54,.cls-55,.cls-56,.cls-57,.cls-58,.cls-59,.cls-6,.cls-60,.cls-61,.cls-62,.cls-63,.cls-64,.cls-65,.cls-66,.cls-67,.cls-68,.cls-69,.cls-7,.cls-70,.cls-71,.cls-72,.cls-73,.cls-74,.cls-75,.cls-76,.cls-77,.cls-78,.cls-79,.cls-8,.cls-80,.cls-81,.cls-82,.cls-83,.cls-84,.cls-85,.cls-86,.cls-87,.cls-88,.cls-89,.cls-9,.cls-90,.cls-91,.cls-92{stroke:#4663ac;stroke-miterlimit:10;}.cls-2{stroke-width:2.2px;}.cls-3{fill:#4663ac;stroke-width:1.37px;}.cls-10,.cls-11,.cls-12,.cls-13,.cls-14,.cls-15,.cls-16,.cls-17,.cls-18,.cls-19,.cls-20,.cls-21,.cls-22,.cls-23,.cls-24,.cls-25,.cls-26,.cls-27,.cls-28,.cls-29,.cls-30,.cls-31,.cls-32,.cls-33,.cls-34,.cls-35,.cls-36,.cls-37,.cls-38,.cls-39,.cls-4,.cls-40,.cls-41,.cls-42,.cls-43,.cls-44,.cls-45,.cls-46,.cls-47,.cls-48,.cls-49,.cls-5,.cls-50,.cls-51,.cls-52,.cls-53,.cls-54,.cls-55,.cls-56,.cls-57,.cls-58,.cls-59,.cls-6,.cls-60,.cls-61,.cls-62,.cls-63,.cls-64,.cls-65,.cls-66,.cls-67,.cls-68,.cls-69,.cls-7,.cls-70,.cls-71,.cls-72,.cls-73,.cls-74,.cls-75,.cls-76,.cls-77,.cls-78,.cls-79,.cls-8,.cls-80,.cls-81,.cls-82,.cls-83,.cls-84,.cls-85,.cls-86,.cls-87,.cls-88,.cls-89,.cls-9,.cls-90,.cls-91,.cls-92{stroke-linecap:round;stroke-width:4.4px;}.cls-5{stroke-dasharray:0 14.81;}.cls-6{stroke-dasharray:0 14.21;}.cls-7{stroke-dasharray:0 15.82;}.cls-8{stroke-dasharray:0 15.04;}.cls-9{stroke-dasharray:0 14.2;}.cls-10{stroke-dasharray:0 14.53;}.cls-11{stroke-dasharray:0 13.98;}.cls-12{stroke-dasharray:0 14.5;}.cls-13{stroke-dasharray:0 13.33;}.cls-14{stroke-dasharray:0 13.26;}.cls-15{stroke-dasharray:0 13.57;}.cls-16{stroke-dasharray:0 8.81;}.cls-17{stroke-dasharray:0 15.55;}.cls-18{stroke-dasharray:0 15.39;}.cls-19{stroke-dasharray:0 15.04;}.cls-20{stroke-dasharray:0 15.18;}.cls-21{stroke-dasharray:0 15.7;}.cls-22{stroke-dasharray:0 18.37;}.cls-23{stroke-dasharray:0 17.64;}.cls-24{stroke-dasharray:0 10.89;}.cls-25{stroke-dasharray:0 9.17;}.cls-26{stroke-dasharray:0 10.8;}.cls-27{stroke-dasharray:0 15.49;}.cls-28{stroke-dasharray:0 14.22;}.cls-29{stroke-dasharray:0 14.24;}.cls-30{stroke-dasharray:0 13.95;}.cls-31{stroke-dasharray:0 15.21;}.cls-32{stroke-dasharray:0 16.25;}.cls-33{stroke-dasharray:0 16.66;}.cls-34{stroke-dasharray:0 10.23;}.cls-35{stroke-dasharray:0 8.62;}.cls-36{stroke-dasharray:0 10.14;}.cls-37{stroke-dasharray:0 14.42;}.cls-38{stroke-dasharray:0 15.51;}.cls-39{stroke-dasharray:0 15.16;}.cls-40{stroke-dasharray:0 14.87;}.cls-41{stroke-dasharray:0 16.16;}.cls-42{stroke-dasharray:0 17.29;}.cls-43{stroke-dasharray:0 17.73;}.cls-44{stroke-dasharray:0 10.89;}.cls-45{stroke-dasharray:0 10.22;}.cls-46{stroke-dasharray:0 10.96;}.cls-47{stroke-dasharray:0 16.06;}.cls-48{stroke-dasharray:0 15.19;}.cls-49{stroke-dasharray:0 14.26;}.cls-50{stroke-dasharray:0 14.46;}.cls-51{stroke-dasharray:0 14.05;}.cls-52{stroke-dasharray:0 14.59;}.cls-53{stroke-dasharray:0 13.35;}.cls-54{stroke-dasharray:0 13.04;}.cls-55{stroke-dasharray:0 13.24;}.cls-56{stroke-dasharray:0 15.67;}.cls-57{stroke-dasharray:0 15.22;}.cls-58{stroke-dasharray:0 14.04;}.cls-59{stroke-dasharray:0 13.19;}.cls-60{stroke-dasharray:0 15.46;}.cls-61{stroke-dasharray:0 14.16;}.cls-62{stroke-dasharray:0 15.97;}.cls-63{stroke-dasharray:0 15.24;}.cls-64{stroke-dasharray:0 15.15;}.cls-65{stroke-dasharray:0 16.25;}.cls-66{stroke-dasharray:0 14.77;}.cls-67{stroke-dasharray:0 15.62;}.cls-68{stroke-dasharray:0 14.79;}.cls-69{stroke-dasharray:0 16.41;}.cls-70{stroke-dasharray:0 14.76;}.cls-71{stroke-dasharray:0 16.29;}.cls-72{stroke-dasharray:0 13.45;}.cls-73{stroke-dasharray:0 13.37;}.cls-74{stroke-dasharray:0 13.11;}.cls-75{stroke-dasharray:0 13.79;}.cls-76{stroke-dasharray:0 16.4;}.cls-77{stroke-dasharray:0 15.05;}.cls-78{stroke-dasharray:0 14.1;}.cls-79{stroke-dasharray:0 13.46;}.cls-80{stroke-dasharray:0 16.71;}.cls-81{stroke-dasharray:0 17.18;}.cls-82{stroke-dasharray:0 17.37;}.cls-83{stroke-dasharray:0 14.4;}.cls-84{stroke-dasharray:0 11.92;}.cls-85{stroke-dasharray:0 11.84;}.cls-86{stroke-dasharray:0 12.02;}.cls-87{stroke-dasharray:0 13.44;}.cls-88{stroke-dasharray:0 15;}.cls-89{stroke-dasharray:0 18.68;}.cls-90{stroke-dasharray:0 15.97;}.cls-91{stroke-dasharray:0 14.25;}.cls-92{stroke-dasharray:0 16.8;}</style>
  </defs>
  <title>Principle_Preview_Card</title>
  <rect class="cls-1" width="1122.92" height="841.89"></rect>
  <polygon class="cls-1" points="175.21 338.61 554.61 200.53 934 338.61 934 549.73 175.21 549.73 175.21 338.61"></polygon>
  <polyline class="cls-2" points="934 338.61 554.61 200.53 175.21 338.61"></polyline>
  <circle class="cls-3" cx="554.61" cy="200.53" r="27.47"></circle>
  <line class="cls-4" x1="403.68" y1="287.66" x2="403.68" y2="287.66"></line>
  <line class="cls-5" x1="390.85" y1="295.07" x2="256.16" y2="372.83"></line>
  <line class="cls-4" x1="249.75" y1="376.54" x2="249.75" y2="376.54"></line>
  <line class="cls-4" x1="463.87" y1="252.91" x2="463.87" y2="252.91"></line>
  <line class="cls-6" x1="451.57" y1="260.02" x2="433.11" y2="270.67"></line>
  <line class="cls-4" x1="426.95" y1="274.23" x2="426.95" y2="274.23"></line>
  <line class="cls-4" x1="524.38" y1="217.98" x2="524.38" y2="217.98"></line>
  <line class="cls-7" x1="510.68" y1="225.89" x2="490.12" y2="237.76"></line>
  <line class="cls-4" x1="483.27" y1="241.71" x2="483.27" y2="241.71"></line>
  <line class="cls-4" x1="584.83" y1="217.98" x2="584.83" y2="217.98"></line>
  <line class="cls-7" x1="598.54" y1="225.89" x2="619.09" y2="237.76"></line>
  <line class="cls-4" x1="625.95" y1="241.71" x2="625.95" y2="241.71"></line>
  <line class="cls-2" x1="554.61" y1="200.53" x2="143.06" y2="545.85"></line>
  <line class="cls-4" x1="275.26" y1="533.44" x2="275.26" y2="533.44"></line>
  <line class="cls-8" x1="265.59" y1="544.96" x2="231.75" y2="585.29"></line>
  <line class="cls-4" x1="226.92" y1="591.05" x2="226.92" y2="591.05"></line>
  <line class="cls-4" x1="327.92" y1="470.68" x2="327.92" y2="470.68"></line>
  <line class="cls-9" x1="318.79" y1="481.56" x2="295.96" y2="508.77"></line>
  <line class="cls-4" x1="291.4" y1="514.21" x2="291.4" y2="514.21"></line>
  <line class="cls-4" x1="365.27" y1="426.17" x2="365.27" y2="426.17"></line>
  <line class="cls-10" x1="355.93" y1="437.3" x2="332.59" y2="465.12"></line>
  <line class="cls-4" x1="327.92" y1="470.68" x2="327.92" y2="470.68"></line>
  <line class="cls-4" x1="406.92" y1="376.54" x2="406.92" y2="376.54"></line>
  <line class="cls-11" x1="397.93" y1="387.25" x2="384.45" y2="403.31"></line>
  <line class="cls-4" x1="379.95" y1="408.67" x2="379.95" y2="408.67"></line>
  <line class="cls-4" x1="434.87" y1="343.22" x2="434.87" y2="343.22"></line>
  <line class="cls-12" x1="425.55" y1="354.33" x2="411.58" y2="370.98"></line>
  <line class="cls-4" x1="406.92" y1="376.54" x2="406.92" y2="376.54"></line>
  <line class="cls-4" x1="464.36" y1="308.08" x2="464.36" y2="308.08"></line>
  <line class="cls-13" x1="455.79" y1="318.29" x2="451.51" y2="323.39"></line>
  <line class="cls-4" x1="447.22" y1="328.5" x2="447.22" y2="328.5"></line>
  <line class="cls-4" x1="481.41" y1="287.75" x2="481.41" y2="287.75"></line>
  <line class="cls-14" x1="472.89" y1="297.91" x2="468.62" y2="303"></line>
  <line class="cls-4" x1="464.36" y1="308.08" x2="464.36" y2="308.08"></line>
  <line class="cls-4" x1="510" y1="253.69" x2="510" y2="253.69"></line>
  <line class="cls-15" x1="501.28" y1="264.08" x2="496.91" y2="269.28"></line>
  <line class="cls-4" x1="492.55" y1="274.48" x2="492.55" y2="274.48"></line>
  <line class="cls-4" x1="531.56" y1="228" x2="531.56" y2="228"></line>
  <line class="cls-16" x1="525.89" y1="234.75" x2="523.06" y2="238.12"></line>
  <line class="cls-4" x1="520.23" y1="241.5" x2="520.23" y2="241.5"></line>
  <line class="cls-2" x1="554.61" y1="200.53" x2="252.76" y2="723.34"></line>
  <line class="cls-4" x1="384.33" y1="668.35" x2="384.33" y2="668.35"></line>
  <line class="cls-17" x1="379.02" y1="682.96" x2="349.76" y2="763.34"></line>
  <line class="cls-4" x1="347.1" y1="770.64" x2="347.1" y2="770.64"></line>
  <line class="cls-4" x1="412.47" y1="591.05" x2="412.47" y2="591.05"></line>
  <line class="cls-18" x1="407.2" y1="605.51" x2="394.05" y2="641.66"></line>
  <line class="cls-4" x1="391.41" y1="648.89" x2="391.41" y2="648.89"></line>
  <line class="cls-4" x1="433.05" y1="534.51" x2="433.05" y2="534.51"></line>
  <line class="cls-19" x1="427.9" y1="548.65" x2="415.04" y2="583.99"></line>
  <line class="cls-4" x1="412.47" y1="591.05" x2="412.47" y2="591.05"></line>
  <line class="cls-4" x1="456.28" y1="470.68" x2="456.28" y2="470.68"></line>
  <line class="cls-20" x1="451.09" y1="484.95" x2="443.3" y2="506.34"></line>
  <line class="cls-4" x1="440.7" y1="513.47" x2="440.7" y2="513.47"></line>
  <line class="cls-4" x1="472.39" y1="426.42" x2="472.39" y2="426.42"></line>
  <line class="cls-21" x1="467.02" y1="441.18" x2="458.96" y2="463.31"></line>
  <line class="cls-4" x1="456.28" y1="470.68" x2="456.28" y2="470.68"></line>
  <line class="cls-4" x1="490.6" y1="376.37" x2="490.6" y2="376.37"></line>
  <line class="cls-22" x1="484.32" y1="393.64" x2="481.18" y2="402.27"></line>
  <line class="cls-4" x1="478.04" y1="410.9" x2="478.04" y2="410.9"></line>
  <line class="cls-4" x1="502.67" y1="343.22" x2="502.67" y2="343.22"></line>
  <line class="cls-23" x1="496.64" y1="359.8" x2="493.62" y2="368.08"></line>
  <line class="cls-4" x1="490.6" y1="376.37" x2="490.6" y2="376.37"></line>
  <line class="cls-4" x1="515.47" y1="308.04" x2="515.47" y2="308.04"></line>
  <line class="cls-24" x1="511.75" y1="318.27" x2="509.89" y2="323.38"></line>
  <line class="cls-4" x1="508.03" y1="328.5" x2="508.03" y2="328.5"></line>
  <line class="cls-4" x1="521.75" y1="290.8" x2="521.75" y2="290.8"></line>
  <line class="cls-25" x1="518.61" y1="299.42" x2="517.04" y2="303.73"></line>
  <line class="cls-4" x1="515.47" y1="308.04" x2="515.47" y2="308.04"></line>
  <line class="cls-4" x1="535.26" y1="253.69" x2="535.26" y2="253.69"></line>
  <line class="cls-26" x1="531.57" y1="263.83" x2="529.72" y2="268.9"></line>
  <line class="cls-4" x1="527.87" y1="273.98" x2="527.87" y2="273.98"></line>
  <line class="cls-4" x1="542.36" y1="234.18" x2="542.36" y2="234.18"></line>
  <line class="cls-4" x1="539.7" y1="241.5" x2="539.7" y2="241.5"></line>
  <line class="cls-4" x1="577.66" y1="228" x2="577.66" y2="228"></line>
  <line class="cls-16" x1="583.32" y1="234.75" x2="586.15" y2="238.12"></line>
  <line class="cls-4" x1="588.99" y1="241.5" x2="588.99" y2="241.5"></line>
  <line class="cls-4" x1="566.86" y1="234.18" x2="566.86" y2="234.18"></line>
  <line class="cls-4" x1="569.52" y1="241.5" x2="569.52" y2="241.5"></line>
  <line class="cls-2" x1="554.61" y1="200.53" x2="459.77" y2="738.38"></line>
  <line class="cls-4" x1="554.61" y1="667.11" x2="554.61" y2="667.11"></line>
  <line class="cls-27" x1="554.61" y1="682.59" x2="554.61" y2="767.78"></line>
  <line class="cls-4" x1="554.61" y1="775.53" x2="554.61" y2="775.53"></line>
  <line class="cls-4" x1="554.61" y1="591.05" x2="554.61" y2="591.05"></line>
  <line class="cls-28" x1="554.61" y1="605.27" x2="554.61" y2="640.82"></line>
  <line class="cls-4" x1="554.61" y1="647.92" x2="554.61" y2="647.92"></line>
  <line class="cls-4" x1="554.61" y1="534.1" x2="554.61" y2="534.1"></line>
  <line class="cls-29" x1="554.61" y1="548.34" x2="554.61" y2="583.93"></line>
  <line class="cls-4" x1="554.61" y1="591.05" x2="554.61" y2="591.05"></line>
  <line class="cls-4" x1="554.61" y1="470.68" x2="554.61" y2="470.68"></line>
  <line class="cls-30" x1="554.61" y1="484.63" x2="554.61" y2="505.56"></line>
  <line class="cls-4" x1="554.61" y1="512.53" x2="554.61" y2="512.53"></line>
  <line class="cls-4" x1="554.61" y1="425.06" x2="554.61" y2="425.06"></line>
  <line class="cls-31" x1="554.61" y1="440.27" x2="554.61" y2="463.08"></line>
  <line class="cls-4" x1="554.61" y1="470.68" x2="554.61" y2="470.68"></line>
  <line class="cls-4" x1="554.61" y1="376.54" x2="554.61" y2="376.54"></line>
  <line class="cls-32" x1="554.61" y1="392.79" x2="554.61" y2="400.91"></line>
  <line class="cls-4" x1="554.61" y1="409.04" x2="554.61" y2="409.04"></line>
  <line class="cls-4" x1="554.61" y1="343.22" x2="554.61" y2="343.22"></line>
  <line class="cls-33" x1="554.61" y1="359.88" x2="554.61" y2="368.21"></line>
  <line class="cls-4" x1="554.61" y1="376.54" x2="554.61" y2="376.54"></line>
  <line class="cls-4" x1="554.61" y1="308.04" x2="554.61" y2="308.04"></line>
  <line class="cls-34" x1="554.61" y1="318.27" x2="554.61" y2="323.38"></line>
  <line class="cls-4" x1="554.61" y1="328.5" x2="554.61" y2="328.5"></line>
  <line class="cls-4" x1="554.61" y1="290.8" x2="554.61" y2="290.8"></line>
  <line class="cls-35" x1="554.61" y1="299.42" x2="554.61" y2="303.73"></line>
  <line class="cls-4" x1="554.61" y1="308.04" x2="554.61" y2="308.04"></line>
  <line class="cls-4" x1="554.61" y1="253.69" x2="554.61" y2="253.69"></line>
  <line class="cls-36" x1="554.61" y1="263.83" x2="554.61" y2="268.9"></line>
  <line class="cls-4" x1="554.61" y1="273.98" x2="554.61" y2="273.98"></line>
  <line class="cls-2" x1="554.61" y1="200.53" x2="641.49" y2="693.28"></line>
  <line class="cls-4" x1="724.43" y1="667.11" x2="724.43" y2="667.11"></line>
  <line class="cls-37" x1="729.36" y1="680.66" x2="761.43" y2="768.75"></line>
  <line class="cls-4" x1="763.89" y1="775.53" x2="763.89" y2="775.53"></line>
  <line class="cls-4" x1="696.76" y1="591.1" x2="696.76" y2="591.1"></line>
  <line class="cls-38" x1="702.07" y1="605.67" x2="715.33" y2="642.12"></line>
  <line class="cls-4" x1="717.99" y1="649.41" x2="717.99" y2="649.41"></line>
  <line class="cls-4" x1="676.02" y1="534.1" x2="676.02" y2="534.1"></line>
  <line class="cls-39" x1="681.21" y1="548.35" x2="694.17" y2="583.97"></line>
  <line class="cls-4" x1="696.76" y1="591.1" x2="696.76" y2="591.1"></line>
  <line class="cls-4" x1="652.92" y1="470.63" x2="652.92" y2="470.63"></line>
  <line class="cls-40" x1="658" y1="484.6" x2="665.63" y2="505.55"></line>
  <line class="cls-4" x1="668.17" y1="512.54" x2="668.17" y2="512.54"></line>
  <line class="cls-4" x1="636.33" y1="425.06" x2="636.33" y2="425.06"></line>
  <line class="cls-41" x1="641.86" y1="440.25" x2="650.15" y2="463.03"></line>
  <line class="cls-4" x1="652.92" y1="470.63" x2="652.92" y2="470.63"></line>
  <line class="cls-4" x1="618.67" y1="376.54" x2="618.67" y2="376.54"></line>
  <line class="cls-42" x1="624.58" y1="392.79" x2="627.54" y2="400.91"></line>
  <line class="cls-4" x1="630.5" y1="409.04" x2="630.5" y2="409.04"></line>
  <line class="cls-4" x1="606.54" y1="343.22" x2="606.54" y2="343.22"></line>
  <line class="cls-43" x1="612.61" y1="359.88" x2="615.64" y2="368.21"></line>
  <line class="cls-4" x1="618.67" y1="376.54" x2="618.67" y2="376.54"></line>
  <line class="cls-4" x1="593.74" y1="308.04" x2="593.74" y2="308.04"></line>
  <line class="cls-44" x1="597.46" y1="318.27" x2="599.32" y2="323.38"></line>
  <line class="cls-4" x1="601.19" y1="328.5" x2="601.19" y2="328.5"></line>
  <line class="cls-4" x1="586.75" y1="288.84" x2="586.75" y2="288.84"></line>
  <line class="cls-45" x1="590.25" y1="298.44" x2="591.99" y2="303.24"></line>
  <line class="cls-4" x1="593.74" y1="308.04" x2="593.74" y2="308.04"></line>
  <line class="cls-4" x1="573.96" y1="253.69" x2="573.96" y2="253.69"></line>
  <line class="cls-46" x1="577.71" y1="263.99" x2="579.58" y2="269.14"></line>
  <line class="cls-4" x1="581.46" y1="274.29" x2="581.46" y2="274.29"></line>
  <line class="cls-2" x1="554.61" y1="200.53" x2="856.46" y2="723.34"></line>
  <line class="cls-4" x1="882.3" y1="591.05" x2="882.3" y2="591.05"></line>
  <line class="cls-47" x1="892.62" y1="603.36" x2="949.4" y2="671.02"></line>
  <line class="cls-4" x1="954.56" y1="677.18" x2="954.56" y2="677.18"></line>
  <line class="cls-4" x1="833.48" y1="532.87" x2="833.48" y2="532.87"></line>
  <line class="cls-48" x1="843.24" y1="544.51" x2="877.42" y2="585.23"></line>
  <line class="cls-4" x1="882.3" y1="591.05" x2="882.3" y2="591.05"></line>
  <line class="cls-4" x1="781.12" y1="470.47" x2="781.12" y2="470.47"></line>
  <line class="cls-49" x1="790.29" y1="481.4" x2="813.2" y2="508.71"></line>
  <line class="cls-4" x1="817.79" y1="514.17" x2="817.79" y2="514.17"></line>
  <line class="cls-4" x1="743.95" y1="426.17" x2="743.95" y2="426.17"></line>
  <line class="cls-50" x1="753.24" y1="437.25" x2="776.47" y2="464.93"></line>
  <line class="cls-4" x1="781.12" y1="470.47" x2="781.12" y2="470.47"></line>
  <line class="cls-4" x1="702.48" y1="376.75" x2="702.48" y2="376.75"></line>
  <line class="cls-51" x1="711.51" y1="387.51" x2="725.05" y2="403.66"></line>
  <line class="cls-4" x1="729.57" y1="409.04" x2="729.57" y2="409.04"></line>
  <line class="cls-4" x1="674.34" y1="343.22" x2="674.34" y2="343.22"></line>
  <line class="cls-52" x1="683.72" y1="354.4" x2="697.79" y2="371.16"></line>
  <line class="cls-4" x1="702.48" y1="376.75" x2="702.48" y2="376.75"></line>
  <line class="cls-4" x1="644.82" y1="308.04" x2="644.82" y2="308.04"></line>
  <line class="cls-53" x1="653.41" y1="318.27" x2="657.7" y2="323.38"></line>
  <line class="cls-4" x1="661.99" y1="328.5" x2="661.99" y2="328.5"></line>
  <line class="cls-4" x1="628.06" y1="288.06" x2="628.06" y2="288.06"></line>
  <line class="cls-54" x1="636.44" y1="298.05" x2="640.63" y2="303.05"></line>
  <line class="cls-4" x1="644.82" y1="308.04" x2="644.82" y2="308.04"></line>
  <line class="cls-4" x1="599.22" y1="253.69" x2="599.22" y2="253.69"></line>
  <line class="cls-55" x1="607.73" y1="263.83" x2="611.98" y2="268.9"></line>
  <line class="cls-4" x1="616.24" y1="273.98" x2="616.24" y2="273.98"></line>
  <line class="cls-2" x1="554.61" y1="200.53" x2="979.86" y2="557.36"></line>
  <line class="cls-4" x1="859.47" y1="376.54" x2="859.47" y2="376.54"></line>
  <line class="cls-56" x1="873.04" y1="384.37" x2="934.09" y2="419.62"></line>
  <line class="cls-4" x1="940.87" y1="423.54" x2="940.87" y2="423.54"></line>
  <line class="cls-4" x1="740.83" y1="308.04" x2="740.83" y2="308.04"></line>
  <line class="cls-57" x1="754.01" y1="315.65" x2="852.88" y2="372.73"></line>
  <line class="cls-4" x1="859.47" y1="376.54" x2="859.47" y2="376.54"></line>
  <line class="cls-4" x1="704.34" y1="286.98" x2="704.34" y2="286.98"></line>
  <line class="cls-58" x1="716.51" y1="294" x2="734.75" y2="304.53"></line>
  <line class="cls-4" x1="740.83" y1="308.04" x2="740.83" y2="308.04"></line>
  <line class="cls-4" x1="646.69" y1="253.69" x2="646.69" y2="253.69"></line>
  <line class="cls-59" x1="658.1" y1="260.28" x2="675.23" y2="270.17"></line>
  <line class="cls-4" x1="680.94" y1="273.46" x2="680.94" y2="273.46"></line>
  <line class="cls-2" x1="426.95" y1="246.91" x2="681.15" y2="246.91"></line>
  <line class="cls-2" x1="773.94" y1="280.76" x2="334.16" y2="280.76"></line>
  <line class="cls-2" x1="336.06" y1="335.32" x2="772.05" y2="335.32"></line>
  <line class="cls-2" x1="812.38" y1="417.75" x2="295.73" y2="417.75"></line>
  <line class="cls-2" x1="926.68" y1="658.49" x2="182.53" y2="658.49"></line>
  <line class="cls-4" x1="319.69" y1="591.05" x2="319.69" y2="591.05"></line>
  <line class="cls-60" x1="304.23" y1="591.05" x2="234.65" y2="591.05"></line>
  <line class="cls-4" x1="226.92" y1="591.05" x2="226.92" y2="591.05"></line>
  <line class="cls-4" x1="412.47" y1="591.05" x2="412.47" y2="591.05"></line>
  <line class="cls-61" x1="398.31" y1="591.05" x2="348.77" y2="591.05"></line>
  <line class="cls-4" x1="341.69" y1="591.05" x2="341.69" y2="591.05"></line>
  <line class="cls-4" x1="476.35" y1="591.05" x2="476.35" y2="591.05"></line>
  <line class="cls-62" x1="460.38" y1="591.05" x2="420.45" y2="591.05"></line>
  <line class="cls-4" x1="412.47" y1="591.05" x2="412.47" y2="591.05"></line>
  <line class="cls-4" x1="554.61" y1="591.05" x2="554.61" y2="591.05"></line>
  <line class="cls-63" x1="539.36" y1="591.05" x2="501.26" y2="591.05"></line>
  <line class="cls-4" x1="493.63" y1="591.05" x2="493.63" y2="591.05"></line>
  <line class="cls-4" x1="615.19" y1="591.05" x2="615.19" y2="591.05"></line>
  <line class="cls-64" x1="600.04" y1="591.05" x2="562.18" y2="591.05"></line>
  <line class="cls-4" x1="554.61" y1="591.05" x2="554.61" y2="591.05"></line>
  <line class="cls-4" x1="696.88" y1="591.05" x2="696.88" y2="591.05"></line>
  <line class="cls-65" x1="680.63" y1="591.05" x2="640" y2="591.05"></line>
  <line class="cls-4" x1="631.88" y1="591.05" x2="631.88" y2="591.05"></line>
  <line class="cls-4" x1="770.71" y1="591.05" x2="770.71" y2="591.05"></line>
  <line class="cls-66" x1="755.95" y1="591.05" x2="704.26" y2="591.05"></line>
  <line class="cls-4" x1="696.88" y1="591.05" x2="696.88" y2="591.05"></line>
  <line class="cls-4" x1="882.3" y1="591.05" x2="882.3" y2="591.05"></line>
  <line class="cls-67" x1="866.68" y1="591.05" x2="796.4" y2="591.05"></line>
  <line class="cls-4" x1="788.59" y1="591.05" x2="788.59" y2="591.05"></line>
  <line class="cls-4" x1="926.68" y1="591.05" x2="926.68" y2="591.05"></line>
  <line class="cls-68" x1="911.89" y1="591.05" x2="889.7" y2="591.05"></line>
  <line class="cls-4" x1="882.3" y1="591.05" x2="882.3" y2="591.05"></line>
  <line class="cls-4" x1="327.92" y1="470.68" x2="327.92" y2="470.68"></line>
  <line class="cls-69" x1="311.51" y1="470.68" x2="254.09" y2="470.68"></line>
  <line class="cls-4" x1="245.89" y1="470.68" x2="245.89" y2="470.68"></line>
  <line class="cls-4" x1="386.97" y1="470.68" x2="386.97" y2="470.68"></line>
  <line class="cls-70" x1="372.21" y1="470.68" x2="335.3" y2="470.68"></line>
  <line class="cls-4" x1="327.92" y1="470.68" x2="327.92" y2="470.68"></line>
  <line class="cls-4" x1="456.28" y1="470.68" x2="456.28" y2="470.68"></line>
  <line class="cls-71" x1="439.99" y1="470.68" x2="415.56" y2="470.68"></line>
  <line class="cls-4" x1="407.41" y1="470.68" x2="407.41" y2="470.68"></line>
  <line class="cls-4" x1="496.64" y1="470.68" x2="496.64" y2="470.68"></line>
  <line class="cls-72" x1="483.18" y1="470.68" x2="463" y2="470.68"></line>
  <line class="cls-4" x1="456.28" y1="470.68" x2="456.28" y2="470.68"></line>
  <line class="cls-4" x1="554.99" y1="470.68" x2="554.99" y2="470.68"></line>
  <line class="cls-73" x1="541.62" y1="470.68" x2="521.57" y2="470.68"></line>
  <line class="cls-4" x1="514.89" y1="470.68" x2="514.89" y2="470.68"></line>
  <line class="cls-4" x1="594.33" y1="470.68" x2="594.33" y2="470.68"></line>
  <line class="cls-74" x1="581.21" y1="470.68" x2="561.55" y2="470.68"></line>
  <line class="cls-4" x1="554.99" y1="470.68" x2="554.99" y2="470.68"></line>
  <line class="cls-4" x1="652.76" y1="470.68" x2="652.76" y2="470.68"></line>
  <line class="cls-75" x1="638.96" y1="470.68" x2="618.28" y2="470.68"></line>
  <line class="cls-4" x1="611.38" y1="470.68" x2="611.38" y2="470.68"></line>
  <line class="cls-4" x1="701.96" y1="470.68" x2="701.96" y2="470.68"></line>
  <line class="cls-76" x1="685.56" y1="470.68" x2="660.96" y2="470.68"></line>
  <line class="cls-4" x1="652.76" y1="470.68" x2="652.76" y2="470.68"></line>
  <line class="cls-4" x1="780.87" y1="470.68" x2="780.87" y2="470.68"></line>
  <line class="cls-77" x1="765.81" y1="470.68" x2="728.18" y2="470.68"></line>
  <line class="cls-4" x1="720.66" y1="470.68" x2="720.66" y2="470.68"></line>
  <line class="cls-4" x1="865.45" y1="470.68" x2="865.45" y2="470.68"></line>
  <line class="cls-78" x1="851.36" y1="470.68" x2="787.92" y2="470.68"></line>
  <line class="cls-4" x1="780.87" y1="470.68" x2="780.87" y2="470.68"></line>
  <line class="cls-4" x1="926.68" y1="470.68" x2="926.68" y2="470.68"></line>
  <line class="cls-79" x1="913.22" y1="470.68" x2="893.04" y2="470.68"></line>
  <line class="cls-4" x1="886.31" y1="470.68" x2="886.31" y2="470.68"></line>
  <line class="cls-4" x1="333.31" y1="376.54" x2="333.31" y2="376.54"></line>
  <line class="cls-80" x1="316.6" y1="376.54" x2="258.1" y2="376.54"></line>
  <line class="cls-4" x1="249.75" y1="376.54" x2="249.75" y2="376.54"></line>
  <line class="cls-4" x1="406.92" y1="376.54" x2="406.92" y2="376.54"></line>
  <line class="cls-81" x1="389.74" y1="376.54" x2="363.97" y2="376.54"></line>
  <line class="cls-4" x1="355.38" y1="376.54" x2="355.38" y2="376.54"></line>
  <line class="cls-4" x1="441.66" y1="376.54" x2="441.66" y2="376.54"></line>
  <line class="cls-82" x1="424.29" y1="376.54" x2="415.6" y2="376.54"></line>
  <line class="cls-4" x1="406.92" y1="376.54" x2="406.92" y2="376.54"></line>
  <line class="cls-4" x1="491.06" y1="376.54" x2="491.06" y2="376.54"></line>
  <line class="cls-83" x1="476.66" y1="376.54" x2="469.46" y2="376.54"></line>
  <line class="cls-4" x1="462.26" y1="376.54" x2="462.26" y2="376.54"></line>
  <line class="cls-4" x1="514.89" y1="376.54" x2="514.89" y2="376.54"></line>
  <line class="cls-84" x1="502.97" y1="376.54" x2="497.01" y2="376.54"></line>
  <line class="cls-4" x1="491.06" y1="376.54" x2="491.06" y2="376.54"></line>
  <line class="cls-4" x1="554.61" y1="376.54" x2="554.61" y2="376.54"></line>
  <line class="cls-85" x1="542.77" y1="376.54" x2="536.84" y2="376.54"></line>
  <line class="cls-4" x1="530.92" y1="376.54" x2="530.92" y2="376.54"></line>
  <line class="cls-4" x1="578.65" y1="376.54" x2="578.65" y2="376.54"></line>
  <line class="cls-86" x1="566.63" y1="376.54" x2="560.62" y2="376.54"></line>
  <line class="cls-4" x1="554.61" y1="376.54" x2="554.61" y2="376.54"></line>
  <line class="cls-4" x1="618.67" y1="376.54" x2="618.67" y2="376.54"></line>
  <line class="cls-87" x1="605.23" y1="376.54" x2="598.51" y2="376.54"></line>
  <line class="cls-4" x1="591.79" y1="376.54" x2="591.79" y2="376.54"></line>
  <line class="cls-4" x1="648.66" y1="376.54" x2="648.66" y2="376.54"></line>
  <line class="cls-88" x1="633.67" y1="376.54" x2="626.17" y2="376.54"></line>
  <line class="cls-4" x1="618.67" y1="376.54" x2="618.67" y2="376.54"></line>
  <line class="cls-4" x1="702.74" y1="376.54" x2="702.74" y2="376.54"></line>
  <line class="cls-89" x1="684.05" y1="376.54" x2="674.71" y2="376.54"></line>
  <line class="cls-4" x1="665.37" y1="376.54" x2="665.37" y2="376.54"></line>
  <line class="cls-4" x1="750.66" y1="376.54" x2="750.66" y2="376.54"></line>
  <line class="cls-90" x1="734.68" y1="376.54" x2="710.72" y2="376.54"></line>
  <line class="cls-4" x1="702.74" y1="376.54" x2="702.74" y2="376.54"></line>
  <line class="cls-4" x1="859.47" y1="376.54" x2="859.47" y2="376.54"></line>
  <line class="cls-91" x1="845.21" y1="376.54" x2="781.07" y2="376.54"></line>
  <line class="cls-4" x1="773.94" y1="376.54" x2="773.94" y2="376.54"></line>
  <line class="cls-4" x1="926.68" y1="376.54" x2="926.68" y2="376.54"></line>
  <line class="cls-92" x1="909.88" y1="376.54" x2="867.87" y2="376.54"></line>
  <line class="cls-4" x1="859.47" y1="376.54" x2="859.47" y2="376.54"></line>
  <line class="cls-2" x1="939.65" y1="523.62" x2="170.33" y2="523.62"></line>
  <line class="cls-4" x1="554.61" y1="241.5" x2="554.61" y2="241.5"></line>
  <line class="cls-4" x1="554.61" y1="234.18" x2="554.61" y2="234.18"></line>
</svg>
