<?xml version="1.0" encoding="UTF-8"?>
<!-- Generator: Adobe Illustrator 24.0.0, SVG Export Plug-In . SVG Version: 6.00 Build 0)  -->
<svg xmlns="http://www.w3.org/2000/svg" xmlns:xlink="http://www.w3.org/1999/xlink" version="1.1" id="Layer_1" x="0px" y="0px" viewBox="0 0 1122.9 841.9" style="enable-background:new 0 0 1122.9 841.9;" xml:space="preserve">
<style type="text/css">
	.st0{fill:#F6F4EE;}
	.st1{fill:none;}
	.st2{clip-path:url(#SVGID_2_);}
	.st3{fill:#4663AC;}
	.st4{fill:none;stroke:#A2B1D7;stroke-width:0.7112;stroke-miterlimit:10;}
	.st5{fill:#2C2439;}
	.st6{fill:#A2B1D7;}
	.st7{fill:none;stroke:#4663AC;stroke-width:2.8547;stroke-linecap:round;stroke-miterlimit:10;}
	.st8{opacity:0.5;fill:none;stroke:#FCFBF8;stroke-width:9.9872;stroke-miterlimit:10;}
	.st9{opacity:0.5;fill:none;stroke:#FCFBF8;stroke-width:21.2003;stroke-miterlimit:10;}
	.st10{opacity:0.5;fill:none;stroke:#FCFBF8;stroke-width:29.4871;stroke-miterlimit:10;}
	.st11{opacity:0.5;fill:none;stroke:#FCFBF8;stroke-width:31.1;stroke-miterlimit:10;}
	.st12{opacity:0.5;fill:none;stroke:#FCFBF8;stroke-width:2;stroke-miterlimit:10;}
	.st13{opacity:0.5;fill:none;stroke:#FCFBF8;stroke-width:5.0035;stroke-miterlimit:10;}
	.st14{fill:none;stroke:#4663AC;stroke-width:1.9688;stroke-miterlimit:10;}
	.st15{fill:none;stroke:#4663AC;stroke-width:3.9376;stroke-linecap:round;stroke-miterlimit:10;}
	.st16{fill:none;stroke:#4663AC;stroke-width:3.9376;stroke-linecap:round;stroke-miterlimit:10;stroke-dasharray:0,13.2959;}
	.st17{fill:none;stroke:#4663AC;stroke-width:3.9376;stroke-linecap:round;stroke-miterlimit:10;stroke-dasharray:0,14.8804;}
	.st18{fill:none;stroke:#4663AC;stroke-width:3.9376;stroke-linecap:round;stroke-miterlimit:10;stroke-dasharray:0,12.4285;}
	.st19{fill:none;stroke:#4663AC;stroke-width:3.9376;stroke-linecap:round;stroke-miterlimit:10;stroke-dasharray:0,13.6822;}
	.st20{fill:none;stroke:#4663AC;stroke-width:3.9376;stroke-linecap:round;stroke-miterlimit:10;stroke-dasharray:0,12.919;}
	.st21{fill:none;stroke:#4663AC;stroke-width:3.9376;stroke-linecap:round;stroke-miterlimit:10;stroke-dasharray:0,13.2144;}
	.st22{fill:none;stroke:#4663AC;stroke-width:3.9376;stroke-linecap:round;stroke-miterlimit:10;stroke-dasharray:0,12.7173;}
	.st23{fill:none;stroke:#4663AC;stroke-width:3.9376;stroke-linecap:round;stroke-miterlimit:10;stroke-dasharray:0,13.1865;}
	.st24{fill:none;stroke:#4663AC;stroke-width:3.9376;stroke-linecap:round;stroke-miterlimit:10;stroke-dasharray:0,12.1247;}
	.st25{fill:none;stroke:#4663AC;stroke-width:3.9376;stroke-linecap:round;stroke-miterlimit:10;stroke-dasharray:0,12.0649;}
	.st26{fill:none;stroke:#4663AC;stroke-width:3.9376;stroke-linecap:round;stroke-miterlimit:10;stroke-dasharray:0,12.3443;}
	.st27{fill:none;stroke:#4663AC;stroke-width:3.9376;stroke-linecap:round;stroke-miterlimit:10;stroke-dasharray:0,8.0148;}
	.st28{fill:none;stroke:#4663AC;stroke-width:3.9376;stroke-linecap:round;stroke-miterlimit:10;stroke-dasharray:0,13.9409;}
	.st29{fill:none;stroke:#4663AC;stroke-width:3.9376;stroke-linecap:round;stroke-miterlimit:10;stroke-dasharray:0,15.7645;}
	.st30{fill:none;stroke:#4663AC;stroke-width:3.9376;stroke-linecap:round;stroke-miterlimit:10;stroke-dasharray:0,15.4102;}
	.st31{fill:none;stroke:#4663AC;stroke-width:3.9376;stroke-linecap:round;stroke-miterlimit:10;stroke-dasharray:0,11.6615;}
	.st32{fill:none;stroke:#4663AC;stroke-width:3.9376;stroke-linecap:round;stroke-miterlimit:10;stroke-dasharray:0,12.064;}
	.st33{fill:none;stroke:#4663AC;stroke-width:3.9376;stroke-linecap:round;stroke-miterlimit:10;stroke-dasharray:0,14.1158;}
	.st34{fill:none;stroke:#4663AC;stroke-width:3.9376;stroke-linecap:round;stroke-miterlimit:10;stroke-dasharray:0,13.5543;}
	.st35{fill:none;stroke:#4663AC;stroke-width:3.9376;stroke-linecap:round;stroke-miterlimit:10;stroke-dasharray:0,8.3643;}
	.st36{fill:none;stroke:#4663AC;stroke-width:3.9376;stroke-linecap:round;stroke-miterlimit:10;stroke-dasharray:0,7.0483;}
	.st37{fill:none;stroke:#4663AC;stroke-width:3.9376;stroke-linecap:round;stroke-miterlimit:10;stroke-dasharray:0,8.2948;}
	.st38{fill:none;stroke:#4663AC;stroke-width:3.9376;stroke-linecap:round;stroke-miterlimit:10;stroke-dasharray:0,12.7372;}
	.st39{fill:none;stroke:#4663AC;stroke-width:3.9376;stroke-linecap:round;stroke-miterlimit:10;stroke-dasharray:0,13.362;}
	.st40{fill:none;stroke:#4663AC;stroke-width:3.9376;stroke-linecap:round;stroke-miterlimit:10;stroke-dasharray:0,13.3807;}
	.st41{fill:none;stroke:#4663AC;stroke-width:3.9376;stroke-linecap:round;stroke-miterlimit:10;stroke-dasharray:0,14.7494;}
	.st42{fill:none;stroke:#4663AC;stroke-width:3.9376;stroke-linecap:round;stroke-miterlimit:10;stroke-dasharray:0,16.0797;}
	.st43{fill:none;stroke:#4663AC;stroke-width:3.9376;stroke-linecap:round;stroke-miterlimit:10;stroke-dasharray:0,11.4541;}
	.st44{fill:none;stroke:#4663AC;stroke-width:3.9376;stroke-linecap:round;stroke-miterlimit:10;stroke-dasharray:0,11.7422;}
	.st45{fill:none;stroke:#4663AC;stroke-width:3.9376;stroke-linecap:round;stroke-miterlimit:10;stroke-dasharray:0,7.2103;}
	.st46{fill:none;stroke:#4663AC;stroke-width:3.9376;stroke-linecap:round;stroke-miterlimit:10;stroke-dasharray:0,7.1503;}
	.st47{fill:none;stroke:#4663AC;stroke-width:3.9376;stroke-linecap:round;stroke-miterlimit:10;stroke-dasharray:0,14.7759;}
	.st48{fill:none;stroke:#4663AC;stroke-width:3.9376;stroke-linecap:round;stroke-miterlimit:10;stroke-dasharray:0,15.8931;}
	.st49{fill:none;stroke:#4663AC;stroke-width:3.9376;stroke-linecap:round;stroke-miterlimit:10;stroke-dasharray:0,15.534;}
	.st50{fill:none;stroke:#4663AC;stroke-width:3.9376;stroke-linecap:round;stroke-miterlimit:10;stroke-dasharray:0,11.4227;}
	.st51{fill:none;stroke:#4663AC;stroke-width:3.9376;stroke-linecap:round;stroke-miterlimit:10;stroke-dasharray:0,12.4197;}
	.st52{fill:none;stroke:#4663AC;stroke-width:3.9376;stroke-linecap:round;stroke-miterlimit:10;stroke-dasharray:0,13.2875;}
	.st53{fill:none;stroke:#4663AC;stroke-width:3.9376;stroke-linecap:round;stroke-miterlimit:10;stroke-dasharray:0,13.6216;}
	.st54{fill:none;stroke:#4663AC;stroke-width:3.9376;stroke-linecap:round;stroke-miterlimit:10;stroke-dasharray:0,8.3644;}
	.st55{fill:none;stroke:#4663AC;stroke-width:3.9376;stroke-linecap:round;stroke-miterlimit:10;stroke-dasharray:0,7.8489;}
	.st56{fill:none;stroke:#4663AC;stroke-width:3.9376;stroke-linecap:round;stroke-miterlimit:10;stroke-dasharray:0,8.4234;}
	.st57{fill:none;stroke:#4663AC;stroke-width:3.9376;stroke-linecap:round;stroke-miterlimit:10;stroke-dasharray:0,14.6081;}
	.st58{fill:none;stroke:#4663AC;stroke-width:3.9376;stroke-linecap:round;stroke-miterlimit:10;stroke-dasharray:0,13.8168;}
	.st59{fill:none;stroke:#4663AC;stroke-width:3.9376;stroke-linecap:round;stroke-miterlimit:10;stroke-dasharray:0,12.9706;}
	.st60{fill:none;stroke:#4663AC;stroke-width:3.9376;stroke-linecap:round;stroke-miterlimit:10;stroke-dasharray:0,13.1493;}
	.st61{fill:none;stroke:#4663AC;stroke-width:3.9376;stroke-linecap:round;stroke-miterlimit:10;stroke-dasharray:0,12.7776;}
	.st62{fill:none;stroke:#4663AC;stroke-width:3.9376;stroke-linecap:round;stroke-miterlimit:10;stroke-dasharray:0,13.2718;}
	.st63{fill:none;stroke:#4663AC;stroke-width:3.9376;stroke-linecap:round;stroke-miterlimit:10;stroke-dasharray:0,12.1458;}
	.st64{fill:none;stroke:#4663AC;stroke-width:3.9376;stroke-linecap:round;stroke-miterlimit:10;stroke-dasharray:0,11.8603;}
	.st65{fill:none;stroke:#4663AC;stroke-width:3.9376;stroke-linecap:round;stroke-miterlimit:10;stroke-dasharray:0,12.0447;}
	.st66{fill:none;stroke:#4663AC;stroke-width:3.9376;stroke-linecap:round;stroke-miterlimit:10;stroke-dasharray:0,14.0626;}
	.st67{fill:none;stroke:#4663AC;stroke-width:3.9376;stroke-linecap:round;stroke-miterlimit:10;stroke-dasharray:0,14.3462;}
	.st68{fill:none;stroke:#4663AC;stroke-width:3.9376;stroke-linecap:round;stroke-miterlimit:10;stroke-dasharray:0,14.7058;}
	.st69{fill:none;stroke:#4663AC;stroke-width:3.9376;stroke-linecap:round;stroke-miterlimit:10;stroke-dasharray:0,13.8078;}
	.st70{fill:none;stroke:#4663AC;stroke-width:3.9376;stroke-linecap:round;stroke-miterlimit:10;stroke-dasharray:0,13.2053;}
	.st71{fill:none;stroke:#4663AC;stroke-width:3.9376;stroke-linecap:round;stroke-miterlimit:10;stroke-dasharray:0,13.4324;}
	.st72{fill:none;stroke:#4663AC;stroke-width:3.9376;stroke-linecap:round;stroke-miterlimit:10;stroke-dasharray:0,14.5496;}
	.st73{fill:none;stroke:#4663AC;stroke-width:3.9376;stroke-linecap:round;stroke-miterlimit:10;stroke-dasharray:0,13.8858;}
	.st74{fill:none;stroke:#4663AC;stroke-width:3.9376;stroke-linecap:round;stroke-miterlimit:10;stroke-dasharray:0,13.7972;}
	.st75{fill:none;stroke:#4663AC;stroke-width:3.9376;stroke-linecap:round;stroke-miterlimit:10;stroke-dasharray:0,14.8041;}
	.st76{fill:none;stroke:#4663AC;stroke-width:3.9376;stroke-linecap:round;stroke-miterlimit:10;stroke-dasharray:0,14.0119;}
	.st77{fill:none;stroke:#4663AC;stroke-width:3.9376;stroke-linecap:round;stroke-miterlimit:10;stroke-dasharray:0,13.3384;}
	.st78{fill:none;stroke:#4663AC;stroke-width:3.9376;stroke-linecap:round;stroke-miterlimit:10;stroke-dasharray:0,12.634;}
	.st79{fill:none;stroke:#4663AC;stroke-width:3.9376;stroke-linecap:round;stroke-miterlimit:10;stroke-dasharray:0,13.3441;}
	.st80{fill:none;stroke:#4663AC;stroke-width:3.9376;stroke-linecap:round;stroke-miterlimit:10;stroke-dasharray:0,13.4496;}
	.st81{fill:none;stroke:#4663AC;stroke-width:3.9376;stroke-linecap:round;stroke-miterlimit:10;stroke-dasharray:0,13.9103;}
	.st82{fill:none;stroke:#4663AC;stroke-width:3.9376;stroke-linecap:round;stroke-miterlimit:10;stroke-dasharray:0,15.3192;}
	.st83{fill:none;stroke:#4663AC;stroke-width:3.9376;stroke-linecap:round;stroke-miterlimit:10;stroke-dasharray:0,15.2213;}
	.st84{fill:none;stroke:#4663AC;stroke-width:3.9376;stroke-linecap:round;stroke-miterlimit:10;stroke-dasharray:0,14.9297;}
	.st85{fill:none;stroke:#4663AC;stroke-width:3.9376;stroke-linecap:round;stroke-miterlimit:10;stroke-dasharray:0,15.7033;}
	.st86{fill:none;stroke:#4663AC;stroke-width:3.9376;stroke-linecap:round;stroke-miterlimit:10;stroke-dasharray:0,14.0059;}
	.st87{fill:none;stroke:#4663AC;stroke-width:3.9376;stroke-linecap:round;stroke-miterlimit:10;stroke-dasharray:0,13.7115;}
	.st88{fill:none;stroke:#4663AC;stroke-width:3.9376;stroke-linecap:round;stroke-miterlimit:10;stroke-dasharray:0,13.7599;}
	.st89{fill:none;stroke:#4663AC;stroke-width:3.9376;stroke-linecap:round;stroke-miterlimit:10;stroke-dasharray:0,15.3228;}
	.st90{fill:none;stroke:#4663AC;stroke-width:3.9376;stroke-linecap:round;stroke-miterlimit:10;stroke-dasharray:0,13.5934;}
	.st91{fill:none;stroke:#4663AC;stroke-width:3.9376;stroke-linecap:round;stroke-miterlimit:10;stroke-dasharray:0,14.6696;}
	.st92{fill:none;stroke:#4663AC;stroke-width:3.9376;stroke-linecap:round;stroke-miterlimit:10;stroke-dasharray:0,13.189;}
	.st93{fill:none;stroke:#4663AC;stroke-width:3.9376;stroke-linecap:round;stroke-miterlimit:10;stroke-dasharray:0,16.3956;}
	.st94{fill:none;stroke:#4663AC;stroke-width:3.9376;stroke-linecap:round;stroke-miterlimit:10;stroke-dasharray:0,13.5688;}
	.st95{fill:none;stroke:#4663AC;stroke-width:3.9376;stroke-linecap:round;stroke-miterlimit:10;stroke-dasharray:0,13.4845;}
	.st96{fill:none;stroke:#4663AC;stroke-width:3.9376;stroke-linecap:round;stroke-miterlimit:10;stroke-dasharray:0,13.6908;}
	.st97{fill:none;stroke:#4663AC;stroke-width:3.9376;stroke-linecap:round;stroke-miterlimit:10;stroke-dasharray:0,15.3041;}
	.st98{fill:none;stroke:#4663AC;stroke-width:3.9376;stroke-linecap:round;stroke-miterlimit:10;stroke-dasharray:0,11.3844;}
	.st99{fill:none;stroke:#4663AC;stroke-width:3.9376;stroke-linecap:round;stroke-miterlimit:10;stroke-dasharray:0,14.1829;}
	.st100{fill:none;stroke:#4663AC;stroke-width:3.9376;stroke-linecap:round;stroke-miterlimit:10;stroke-dasharray:0,13.6423;}
	.st101{fill:none;stroke:#4663AC;stroke-width:3.9376;stroke-linecap:round;stroke-miterlimit:10;stroke-dasharray:0,13.9126;}
	.st102{fill:none;stroke:#4663AC;stroke-width:3.9376;stroke-linecap:round;stroke-miterlimit:10;stroke-dasharray:0,12.7554;}
	.st103{fill:#4663AC;stroke:#4663AC;stroke-width:1.0724;stroke-miterlimit:10;}
	.st104{fill:none;stroke:#FCFBF9;stroke-width:32.3539;}
	.st105{fill:none;stroke:#FCFBF9;stroke-width:12.941;}
	.st106{fill:none;stroke:#4663B3;stroke-width:0.3642;}
	.st107{fill:none;stroke:#A2B1D7;stroke-width:2.7487;stroke-linecap:round;stroke-miterlimit:10;stroke-dasharray:0,10.995;}
	.st108{fill:#FFFFFF;}
	.st109{fill:none;stroke:#4663B3;stroke-width:1.1435;stroke-miterlimit:4;}
	.st110{fill:#4663B3;}
	.st111{opacity:0.25;fill:none;stroke:#FCFBF9;stroke-width:24.2607;enable-background:new    ;}
	.st112{opacity:0.5;fill:none;stroke:#FCFBF9;stroke-width:24.2607;enable-background:new    ;}
	.st113{opacity:0.75;fill:none;stroke:#FCFBF9;stroke-width:24.2607;enable-background:new    ;}
	
		.st114{opacity:0.5;fill:none;stroke:#A2B1D7;stroke-width:2.7487;stroke-linecap:round;stroke-miterlimit:10;stroke-dasharray:0,10.995;}
	.st115{fill:none;stroke:#FCFBF9;stroke-width:24.2607;}
</style>
<rect x="0" class="st0" width="1122.9" height="841.9"></rect>
<g>
	<defs>
		<rect id="SVGID_1_" x="-1277" y="58" width="1122.9" height="780.4"></rect>
	</defs>
	<clipPath id="SVGID_2_">
		<use xlink:href="#SVGID_1_" style="overflow:visible;"></use>
	</clipPath>
	<g class="st2">
		<path class="st12" d="M-504.3,1038.2c-67,0-132.4-13.2-194.4-39.2c-6.3-2.6-12.5-5.4-18.7-8.3c-6.2,2.9-12.4,5.6-18.7,8.3    c-62,26-127.4,39.2-194.4,39.2c-67,0-132.4-13.2-194.4-39.2c-64.2-26.9-121.5-66.2-170.5-116.9c-48.8-50.4-86.6-109.4-112.4-175.2    c-24.8-63.2-37.3-129.9-37.3-198.1c0-68.2,12.6-134.9,37.3-198.1c25.8-65.8,63.6-124.8,112.4-175.2c49-50.7,106.3-90,170.5-116.9    c62-26,127.4-39.2,194.4-39.2S-798-7.4-736,18.6c6.3,2.6,12.5,5.4,18.7,8.3c6.2-2.9,12.4-5.6,18.7-8.3    c62-26,127.4-39.2,194.4-39.2s132.4,13.2,194.4,39.2c64.2,26.9,121.5,66.2,170.5,116.9C-90.6,185.9-52.8,244.9-27,310.7    c24.8,63.2,37.3,129.9,37.3,198.1C10.3,577-2.2,643.7-27,706.9c-25.8,65.8-63.6,124.8-112.4,175.2c-49,50.7-106.3,90-170.5,116.9    C-371.8,1025-437.2,1038.2-504.3,1038.2z"></path>
	</g>
</g>
<rect x="-81.1" y="-17.2" class="st0" width="1285.2" height="963.6"></rect>
<g>
	<path class="st104" d="M549.4,455.1c38.1-1,75.7,18.3,96.1,53.8c29.8,51.6,12.2,117.7-39.1,147.5c-51.4,29.9-117.3,12.4-147.1-39.3   c-29.8-51.6-17.9-114.3,33.5-144.2"></path>
	<line class="st105" x1="478.3" y1="447.8" x2="507.6" y2="498.2"></line>
	<path class="st104" d="M547,372.9c68-1.8,134.9,32.3,171.4,94.8c53.1,90.9,21.9,207.4-69.7,260c-91.7,52.8-209,21.7-262.1-69.1   s-27.5-204.1,64.1-256.8"></path>
	<line class="st105" x1="436.2" y1="376.5" x2="465.3" y2="427"></line>
	<path class="st106" d="M650.2,727.2c-0.9,0.6-1.9,1.1-3,1.7c-1,0.6-1.9,1.1-3,1.7 M714.9,464.1c0.6,0.9,1.1,1.9,1.7,2.9   c0.6,1,1.1,1.9,1.7,3 M546.3,371.5c1.1,0,2.2,0,3.3-0.1"></path>
</g>
<path class="st107" d="M547.1,371.5c1.7,0,3.4-0.1,5-0.1c105.9-0.2,191.9,85.5,192.1,191.4c0.1,105.9-85.5,191.9-191.4,192.1  s-191.9-85.5-192.1-191.4c-0.1-70.2,37.5-131.6,93.7-165.2"></path>
<g>
	
		<rect x="703.8" y="456.6" transform="matrix(1 -1.799059e-03 1.799059e-03 1 -0.9026 1.3285)" class="st108" width="68.4" height="91.4"></rect>
	
		<rect x="703.8" y="456.6" transform="matrix(1 -1.799059e-03 1.799059e-03 1 -0.9026 1.3285)" class="st109" width="68.4" height="91.4"></rect>
	
		<rect x="703.2" y="481.2" transform="matrix(1 -1.799059e-03 1.799059e-03 1 -0.9252 1.3285)" class="st110" width="69.6" height="67.4"></rect>
	<g>
		<path class="st108" d="M736.3,523.7h15.9v8.9h-28.5V530c0-14.3,17.6-16.7,17.6-24.4c0-2.1-1.1-3.4-3.3-3.4c-2.1,0-3.4,1.7-3.9,4.7    l-9.8-2.6c1-6.4,5.8-11.1,14.1-11.1c8.7,0,14,4.5,14,11.4C752.2,514.8,740.9,517.9,736.3,523.7z"></path>
	</g>
	<g>
		<path class="st110" d="M720.4,470.8l1.4-0.3c0.2,0.8,0.7,1.3,1.6,1.3c0.8,0,1.4-0.3,1.4-1c0-0.7-0.5-0.8-1.6-1.1    c-1.4-0.3-2.5-0.8-2.5-2.2c0-1.3,1-2.2,2.6-2.2c1.6,0,2.5,0.7,2.7,1.8l-1.4,0.3c-0.2-0.8-0.7-1.1-1.5-1.1c-0.7,0-1.3,0.3-1.3,0.9    c0,0.7,0.6,0.9,1.6,1.1c1.7,0.5,2.6,0.8,2.6,2.2c0,1.5-1,2.3-2.7,2.3C721.5,472.9,720.5,472.2,720.4,470.8z"></path>
		<path class="st110" d="M735.6,466.6h-2.2v6.1H732v-6.1h-2.2v-1.1h5.7L735.6,466.6z"></path>
		<path class="st110" d="M745,471.5v1.1h-4.9v-7.2h4.9v1.1h-3.4v1.8h3.3v1.1h-3.3v1.9L745,471.5z"></path>
		<path class="st110" d="M755,467.8c0,1.7-1.1,2.4-3.2,2.4h-0.9v2.4h-1.4v-7.2h2.3C753.9,465.4,755,466.1,755,467.8z M753.6,467.8    c0-1-0.7-1.3-1.8-1.3h-0.8v2.6h0.8C753,469.1,753.6,468.8,753.6,467.8z"></path>
	</g>
</g>
<g>
	
		<rect x="633.3" y="675" transform="matrix(1 -1.799059e-03 1.799059e-03 1 -1.2956 1.202)" class="st108" width="68.4" height="91.4"></rect>
	
		<rect x="633.3" y="675" transform="matrix(1 -1.799059e-03 1.799059e-03 1 -1.2956 1.202)" class="st109" width="68.4" height="91.4"></rect>
	
		<rect x="632.7" y="699.5" transform="matrix(1 -1.799059e-03 1.799059e-03 1 -1.318 1.202)" class="st110" width="69.6" height="67.4"></rect>
	<g>
		<path class="st108" d="M652.6,741l10-2.6c0.3,2.7,1.9,4.3,4.5,4.2c2.5,0,4.1-1.6,4.1-3.9c0-3.1-2.3-3.7-4.9-3.7h-2.2v-7.7h1.7    c2.9,0,5.3-0.8,5.3-3.7c0-2.3-1.5-3.4-3.7-3.4s-3.4,1.4-4,3.9l-9.8-2.7c0.9-5.4,5.2-10.2,13.8-10.2c8.1,0,14.3,4,14.4,11.1    c0,5.8-4,7.8-7,8.2v0.2c3.1,0.3,7.8,2.5,7.8,8.9c0,7.6-6.3,11.7-15.1,11.7C658,751.8,653.4,747.3,652.6,741z"></path>
	</g>
	<g>
		<path class="st110" d="M649.9,689.2l1.4-0.3c0.2,0.8,0.7,1.3,1.6,1.3c0.8,0,1.4-0.3,1.4-1c0-0.7-0.5-0.8-1.6-1.1    c-1.4-0.3-2.5-0.8-2.5-2.2c0-1.3,1-2.2,2.6-2.2c1.6,0,2.5,0.7,2.7,1.8l-1.4,0.3c-0.2-0.8-0.7-1.1-1.5-1.1c-0.7,0-1.3,0.3-1.3,0.9    c0,0.7,0.6,0.9,1.6,1.1c1.7,0.5,2.6,0.8,2.6,2.2c0,1.5-1,2.3-2.7,2.3C651,691.3,650,690.5,649.9,689.2z"></path>
		<path class="st110" d="M665.1,685h-2.2v6.1h-1.4V685h-2.2v-1.1h5.7L665.1,685z"></path>
		<path class="st110" d="M674.5,689.9v1.1h-4.9v-7.2h4.9v1.1H671v1.8h3.3v1.1H671v1.9H674.5z"></path>
		<path class="st110" d="M684.5,686.2c0,1.7-1.1,2.4-3.2,2.4h-0.9v2.4H679v-7.2h2.3C683.4,683.8,684.5,684.5,684.5,686.2z     M683.1,686.2c0-1-0.7-1.3-1.8-1.3h-0.8v2.6h0.8C682.5,687.5,683.1,687.1,683.1,686.2z"></path>
	</g>
</g>
<g>
	
		<rect x="403.8" y="675.4" transform="matrix(1 -1.799059e-03 1.799059e-03 1 -1.2965 0.7892)" class="st108" width="68.4" height="91.4"></rect>
	
		<rect x="403.8" y="675.4" transform="matrix(1 -1.799059e-03 1.799059e-03 1 -1.2965 0.7892)" class="st109" width="68.4" height="91.4"></rect>
	
		<rect x="403.2" y="700" transform="matrix(1 -1.799059e-03 1.799059e-03 1 -1.3192 0.7892)" class="st110" width="69.6" height="67.4"></rect>
	<g>
		<path class="st108" d="M454.4,744h-4.7v7.4h-10.1V744h-17.7v-7.3l16.5-24h11.2v23.6h4.7L454.4,744z M439.6,736.4v-11.8l-8.1,11.8    H439.6z"></path>
	</g>
	<g>
		<path class="st110" d="M420.4,689.7l1.4-0.3c0.2,0.8,0.7,1.3,1.6,1.3c0.8,0,1.4-0.3,1.4-1c0-0.7-0.5-0.8-1.6-1.1    c-1.4-0.3-2.5-0.8-2.5-2.2c0-1.3,1-2.2,2.6-2.2s2.5,0.7,2.7,1.8l-1.4,0.3c-0.2-0.8-0.7-1.1-1.5-1.1c-0.7,0-1.3,0.3-1.3,0.9    c0,0.7,0.6,0.9,1.6,1.1c1.7,0.5,2.6,0.8,2.6,2.2c0,1.5-1,2.3-2.7,2.3C421.5,691.6,420.5,690.9,420.4,689.7z"></path>
		<path class="st110" d="M435.6,685.4h-2.2v6.1h-1.4v-6.1h-2.2v-1.1h5.7V685.4z"></path>
		<path class="st110" d="M445,690.2v1.1h-4.9v-7.2h4.9v1.1h-3.4v1.8h3.3v1.1h-3.3v1.9H445z"></path>
		<path class="st110" d="M455.1,686.6c0,1.7-1.1,2.4-3.2,2.4h-0.9v2.4h-1.4v-7.2h2.3C453.9,684.2,455.1,685,455.1,686.6z     M453.6,686.6c0-1-0.7-1.3-1.8-1.3h-0.8v2.6h0.8C453,687.9,453.6,687.6,453.6,686.6z"></path>
	</g>
</g>
<g>
	
		<rect x="332.5" y="457.3" transform="matrix(1 -1.799059e-03 1.799059e-03 1 -0.9044 0.6605)" class="st108" width="68.4" height="91.4"></rect>
	
		<rect x="332.5" y="457.3" transform="matrix(1 -1.799059e-03 1.799059e-03 1 -0.9044 0.6605)" class="st109" width="68.4" height="91.4"></rect>
	
		<rect x="331.9" y="481.8" transform="matrix(1 -1.799059e-03 1.799059e-03 1 -0.9269 0.6606)" class="st110" width="69.6" height="67.4"></rect>
	<g>
		<path class="st108" d="M381.4,520.4c0,9.5-6.3,13.7-15.1,13.7s-13.5-4.3-14.2-10.1l10-2.6c0.5,2.4,2.1,3.7,4.2,3.7    c2.2,0,4-1.4,3.9-4.6c0-3.1-1.6-4.6-3.8-4.6c-1.8,0-3.1,1-3.7,2.5l-9-2.9l1.5-20.9h23.3v8.9h-15.2l-0.6,7.9h0.1    c1.3-2.2,3.8-3.7,7.3-3.7C376.8,507.7,381.4,512.4,381.4,520.4z"></path>
	</g>
	<g>
		<path class="st110" d="M349.1,471.5l1.4-0.3c0.2,0.8,0.7,1.3,1.6,1.3c0.8,0,1.4-0.3,1.4-1c0-0.7-0.5-0.8-1.6-1.1    c-1.4-0.3-2.5-0.8-2.5-2.2c0-1.3,1-2.2,2.6-2.2s2.5,0.7,2.7,1.8l-1.4,0.3c-0.2-0.8-0.7-1.1-1.5-1.1c-0.7,0-1.3,0.3-1.3,0.9    c0,0.7,0.6,0.9,1.6,1.1c1.7,0.5,2.6,0.8,2.6,2.2c0,1.5-1,2.3-2.7,2.3C350.2,473.6,349.2,472.8,349.1,471.5z"></path>
		<path class="st110" d="M364.3,467.3h-2.2v6.1h-1.4v-6.1h-2.2v-1.1h5.7V467.3z"></path>
		<path class="st110" d="M373.7,472.2v1.1h-4.9v-7.2h4.9v1.1h-3.4v1.8h3.3v1.1h-3.3v1.9L373.7,472.2z"></path>
		<path class="st110" d="M383.8,468.5c0,1.7-1.1,2.4-3.2,2.4h-0.9v2.4h-1.4v-7.2h2.3C382.6,466.1,383.8,466.8,383.8,468.5z     M382.3,468.5c0-1-0.7-1.3-1.8-1.3h-0.8v2.6h0.8C381.7,469.8,382.3,469.4,382.3,468.5z"></path>
	</g>
</g>
<g>
	
		<rect x="517.9" y="324.2" transform="matrix(1 -1.799059e-03 1.799059e-03 1 -0.6646 0.9939)" class="st108" width="68.4" height="91.4"></rect>
	
		<rect x="517.9" y="324.2" transform="matrix(1 -1.799059e-03 1.799059e-03 1 -0.6646 0.9939)" class="st109" width="68.4" height="91.4"></rect>
	
		<rect x="517.3" y="348.8" transform="matrix(1 -1.799059e-03 1.799059e-03 1 -0.6872 0.9939)" class="st110" width="69.6" height="67.4"></rect>
	<g>
		<path class="st108" d="M560,361.6l0.1,38.7h-10.6v-26.7l-8.2,5.4v-10.9l10.1-6.4L560,361.6z"></path>
	</g>
	<g>
		<path class="st110" d="M534.5,338.5l1.4-0.3c0.2,0.8,0.7,1.3,1.6,1.3c0.8,0,1.4-0.3,1.4-1c0-0.7-0.5-0.8-1.6-1.1    c-1.4-0.3-2.5-0.8-2.5-2.2c0-1.3,1-2.2,2.6-2.2c1.6,0,2.5,0.7,2.7,1.8l-1.4,0.3c-0.2-0.8-0.7-1.1-1.5-1.1c-0.7,0-1.3,0.3-1.3,0.9    c0,0.7,0.6,0.9,1.6,1.1c1.7,0.5,2.6,0.8,2.6,2.2c0,1.5-1,2.3-2.7,2.3C535.6,340.4,534.6,339.7,534.5,338.5z"></path>
		<path class="st110" d="M549.7,334.2h-2.2v6.1h-1.4v-6.1H544v-1.1h5.7L549.7,334.2z"></path>
		<path class="st110" d="M559.1,339v1.1h-4.9V333h4.9v1.1h-3.4v1.8h3.3v1.1h-3.3v1.9L559.1,339z"></path>
		<path class="st110" d="M569.2,335.4c0,1.7-1.1,2.4-3.2,2.4h-0.9v2.4h-1.4V333h2.3C568,333,569.2,333.8,569.2,335.4z M567.7,335.4    c0-1-0.7-1.3-1.8-1.3h-0.8v2.6h0.8C567.1,336.8,567.7,336.4,567.7,335.4z"></path>
	</g>
</g>
<path class="st107" d="M549.4,455.3c0.9,0,1.9,0,2.9,0c59.6-0.1,108,48.1,108.2,107.7c0.1,59.6-48.1,108-107.7,108.2  s-108-48.1-108.2-107.7c-0.1-39.5,21.1-74.2,52.8-92.9"></path>
<path class="st111" d="M465.6,1096.8v-6.9c-41.9-6.7-82.8-18.5-122.4-35.2c-63.5-26.9-120.5-65.2-169.4-113.9l-0.1-0.1  c-48.9-48.9-87.4-105.8-114.3-169.1c-28-65.9-42.2-135.7-42.4-207.5c-0.1-71.9,13.9-141.8,41.7-207.9c26.9-63.9,65.3-121,114-169.8  c48.9-49.1,105.9-87.6,169.4-114.5c65.7-28,135.6-42.2,207.6-42.4l0.8,0c71.7,0,141.6,14.1,207.6,41.9  c63.5,26.9,120.5,65.2,169.4,113.9l0.1,0.1c48.9,48.9,87.4,105.8,114.3,169.1c28,65.9,42.2,135.7,42.4,207.5  c0.1,71.9-13.9,141.8-41.7,207.9c-26.9,63.9-65.3,121-114,169.8c-48.8,49-105.8,87.5-169.3,114.6c-65.8,28-135.7,42.3-207.7,42.4  h-0.1H465.6z"></path>
<path class="st112" d="M550.6,1011.6c-60.4,0-119-11.9-174.4-35.3c-53.3-22.5-101.3-54.8-142.4-95.8  c-41.1-41.1-73.5-88.9-96.1-142.3c-23.5-55.3-35.5-114-35.6-174.4c-0.1-60.4,11.7-119.3,35-174.8c22.5-53.4,54.7-101.5,95.8-142.7  s88.9-73.6,142.4-96.3c55.4-23.6,114.1-35.5,174.5-35.6h0.7c60.4,0,119.1,11.9,174.5,35.3c53.3,22.5,101.3,54.8,142.4,95.8  c41.1,41.1,73.5,88.9,96.1,142.3c23.5,55.3,35.5,114,35.6,174.4c0.1,60.4-11.7,119.3-35,174.8c-22.5,53.4-54.7,101.5-95.8,142.7  c-41.1,41.2-88.9,73.6-142.4,96.4c-55.4,23.6-114.1,35.5-174.5,35.6h-0.7h-0.1V1011.6z"></path>
<path class="st113" d="M550.6,920.2c-48.1,0-94.8-9.4-138.8-28c-42.5-18-80.7-43.6-113.4-76.3s-58.5-70.8-76.6-113.3  c-18.7-43.9-28.2-90.8-28.3-138.8c-0.1-48.2,9.3-95,27.8-139.1c17.9-42.6,43.6-80.8,76.2-113.7c32.7-32.8,70.8-58.6,113.3-76.7  c44.1-18.8,90.8-28.3,138.9-28.4h0.7c48.1,0,94.8,9.4,138.8,28c42.5,18,80.7,43.6,113.4,76.3c32.7,32.7,58.5,70.8,76.6,113.3  c18.7,43.9,28.2,90.8,28.3,138.8c0.1,48.2-9.3,95-27.8,139.1c-17.9,42.6-43.6,80.8-76.2,113.7c-32.7,32.8-70.8,58.6-113.3,76.7  c-44.1,18.8-90.8,28.3-138.9,28.4H550.6z"></path>
<path class="st114" d="M550.6,920.2c-48.1,0-94.8-9.4-138.8-28c-42.5-18-80.7-43.6-113.4-76.3s-58.5-70.8-76.6-113.3  c-18.7-43.9-28.2-90.8-28.3-138.8c-0.1-48.2,9.3-95,27.8-139.1c17.9-42.6,43.6-80.8,76.2-113.7c32.7-32.8,70.8-58.6,113.3-76.7  c44.1-18.8,90.8-28.3,138.9-28.4h0.7c48.1,0,94.8,9.4,138.8,28c42.5,18,80.7,43.6,113.4,76.3c32.7,32.7,58.5,70.8,76.6,113.3  c18.7,43.9,28.2,90.8,28.3,138.8c0.1,48.2-9.3,95-27.8,139.1c-17.9,42.6-43.6,80.8-76.2,113.7c-32.7,32.8-70.8,58.6-113.3,76.7  c-44.1,18.8-90.8,28.3-138.9,28.4H550.6z"></path>
<circle class="st115" cx="550.6" cy="563.1" r="265.5"></circle>
<circle class="st107" cx="550.6" cy="563.1" r="265.5"></circle>
</svg>
