<?xml version="1.0" encoding="UTF-8"?>
<!-- Generator: Adobe Illustrator 24.0.0, SVG Export Plug-In . SVG Version: 6.00 Build 0)  -->
<svg xmlns="http://www.w3.org/2000/svg" xmlns:xlink="http://www.w3.org/1999/xlink" version="1.1" id="Layer_1" x="0px" y="0px" viewBox="0 0 1122.9 841.9" style="enable-background:new 0 0 1122.9 841.9;" xml:space="preserve">
<style type="text/css">
	.st0{fill:#F6F4EE;}
	.st1{fill:none;}
	.st2{clip-path:url(#SVGID_2_);}
	.st3{fill:#4663AC;}
	.st4{fill:none;stroke:#A2B1D7;stroke-width:0.7112;stroke-miterlimit:10;}
	.st5{fill:#2C2439;}
	.st6{fill:#A2B1D7;}
	.st7{fill:none;stroke:#4663AC;stroke-width:2.8547;stroke-linecap:round;stroke-miterlimit:10;}
	.st8{opacity:0.5;fill:none;stroke:#FCFBF8;stroke-width:9.9872;stroke-miterlimit:10;}
	.st9{opacity:0.5;fill:none;stroke:#FCFBF8;stroke-width:21.2003;stroke-miterlimit:10;}
	.st10{opacity:0.5;fill:none;stroke:#FCFBF8;stroke-width:29.4871;stroke-miterlimit:10;}
	.st11{opacity:0.5;fill:none;stroke:#FCFBF8;stroke-width:31.1;stroke-miterlimit:10;}
	.st12{opacity:0.5;fill:none;stroke:#FCFBF8;stroke-width:2;stroke-miterlimit:10;}
	.st13{opacity:0.5;fill:none;stroke:#FCFBF8;stroke-width:5.0035;stroke-miterlimit:10;}
	.st14{fill:none;stroke:#4663AC;stroke-width:1.9688;stroke-miterlimit:10;}
	.st15{fill:none;stroke:#4663AC;stroke-width:3.9376;stroke-linecap:round;stroke-miterlimit:10;}
	.st16{fill:none;stroke:#4663AC;stroke-width:3.9376;stroke-linecap:round;stroke-miterlimit:10;stroke-dasharray:0,13.2959;}
	.st17{fill:none;stroke:#4663AC;stroke-width:3.9376;stroke-linecap:round;stroke-miterlimit:10;stroke-dasharray:0,14.8804;}
	.st18{fill:none;stroke:#4663AC;stroke-width:3.9376;stroke-linecap:round;stroke-miterlimit:10;stroke-dasharray:0,12.4285;}
	.st19{fill:none;stroke:#4663AC;stroke-width:3.9376;stroke-linecap:round;stroke-miterlimit:10;stroke-dasharray:0,13.6822;}
	.st20{fill:none;stroke:#4663AC;stroke-width:3.9376;stroke-linecap:round;stroke-miterlimit:10;stroke-dasharray:0,12.919;}
	.st21{fill:none;stroke:#4663AC;stroke-width:3.9376;stroke-linecap:round;stroke-miterlimit:10;stroke-dasharray:0,13.2144;}
	.st22{fill:none;stroke:#4663AC;stroke-width:3.9376;stroke-linecap:round;stroke-miterlimit:10;stroke-dasharray:0,12.7173;}
	.st23{fill:none;stroke:#4663AC;stroke-width:3.9376;stroke-linecap:round;stroke-miterlimit:10;stroke-dasharray:0,13.1865;}
	.st24{fill:none;stroke:#4663AC;stroke-width:3.9376;stroke-linecap:round;stroke-miterlimit:10;stroke-dasharray:0,12.1247;}
	.st25{fill:none;stroke:#4663AC;stroke-width:3.9376;stroke-linecap:round;stroke-miterlimit:10;stroke-dasharray:0,12.0649;}
	.st26{fill:none;stroke:#4663AC;stroke-width:3.9376;stroke-linecap:round;stroke-miterlimit:10;stroke-dasharray:0,12.3443;}
	.st27{fill:none;stroke:#4663AC;stroke-width:3.9376;stroke-linecap:round;stroke-miterlimit:10;stroke-dasharray:0,8.0148;}
	.st28{fill:none;stroke:#4663AC;stroke-width:3.9376;stroke-linecap:round;stroke-miterlimit:10;stroke-dasharray:0,13.9409;}
	.st29{fill:none;stroke:#4663AC;stroke-width:3.9376;stroke-linecap:round;stroke-miterlimit:10;stroke-dasharray:0,15.7645;}
	.st30{fill:none;stroke:#4663AC;stroke-width:3.9376;stroke-linecap:round;stroke-miterlimit:10;stroke-dasharray:0,15.4102;}
	.st31{fill:none;stroke:#4663AC;stroke-width:3.9376;stroke-linecap:round;stroke-miterlimit:10;stroke-dasharray:0,11.6615;}
	.st32{fill:none;stroke:#4663AC;stroke-width:3.9376;stroke-linecap:round;stroke-miterlimit:10;stroke-dasharray:0,12.064;}
	.st33{fill:none;stroke:#4663AC;stroke-width:3.9376;stroke-linecap:round;stroke-miterlimit:10;stroke-dasharray:0,14.1158;}
	.st34{fill:none;stroke:#4663AC;stroke-width:3.9376;stroke-linecap:round;stroke-miterlimit:10;stroke-dasharray:0,13.5543;}
	.st35{fill:none;stroke:#4663AC;stroke-width:3.9376;stroke-linecap:round;stroke-miterlimit:10;stroke-dasharray:0,8.3643;}
	.st36{fill:none;stroke:#4663AC;stroke-width:3.9376;stroke-linecap:round;stroke-miterlimit:10;stroke-dasharray:0,7.0483;}
	.st37{fill:none;stroke:#4663AC;stroke-width:3.9376;stroke-linecap:round;stroke-miterlimit:10;stroke-dasharray:0,8.2948;}
	.st38{fill:none;stroke:#4663AC;stroke-width:3.9376;stroke-linecap:round;stroke-miterlimit:10;stroke-dasharray:0,12.7372;}
	.st39{fill:none;stroke:#4663AC;stroke-width:3.9376;stroke-linecap:round;stroke-miterlimit:10;stroke-dasharray:0,13.362;}
	.st40{fill:none;stroke:#4663AC;stroke-width:3.9376;stroke-linecap:round;stroke-miterlimit:10;stroke-dasharray:0,13.3807;}
	.st41{fill:none;stroke:#4663AC;stroke-width:3.9376;stroke-linecap:round;stroke-miterlimit:10;stroke-dasharray:0,14.7494;}
	.st42{fill:none;stroke:#4663AC;stroke-width:3.9376;stroke-linecap:round;stroke-miterlimit:10;stroke-dasharray:0,16.0797;}
	.st43{fill:none;stroke:#4663AC;stroke-width:3.9376;stroke-linecap:round;stroke-miterlimit:10;stroke-dasharray:0,11.4541;}
	.st44{fill:none;stroke:#4663AC;stroke-width:3.9376;stroke-linecap:round;stroke-miterlimit:10;stroke-dasharray:0,11.7422;}
	.st45{fill:none;stroke:#4663AC;stroke-width:3.9376;stroke-linecap:round;stroke-miterlimit:10;stroke-dasharray:0,7.2103;}
	.st46{fill:none;stroke:#4663AC;stroke-width:3.9376;stroke-linecap:round;stroke-miterlimit:10;stroke-dasharray:0,7.1503;}
	.st47{fill:none;stroke:#4663AC;stroke-width:3.9376;stroke-linecap:round;stroke-miterlimit:10;stroke-dasharray:0,14.7759;}
	.st48{fill:none;stroke:#4663AC;stroke-width:3.9376;stroke-linecap:round;stroke-miterlimit:10;stroke-dasharray:0,15.8931;}
	.st49{fill:none;stroke:#4663AC;stroke-width:3.9376;stroke-linecap:round;stroke-miterlimit:10;stroke-dasharray:0,15.534;}
	.st50{fill:none;stroke:#4663AC;stroke-width:3.9376;stroke-linecap:round;stroke-miterlimit:10;stroke-dasharray:0,11.4227;}
	.st51{fill:none;stroke:#4663AC;stroke-width:3.9376;stroke-linecap:round;stroke-miterlimit:10;stroke-dasharray:0,12.4197;}
	.st52{fill:none;stroke:#4663AC;stroke-width:3.9376;stroke-linecap:round;stroke-miterlimit:10;stroke-dasharray:0,13.2875;}
	.st53{fill:none;stroke:#4663AC;stroke-width:3.9376;stroke-linecap:round;stroke-miterlimit:10;stroke-dasharray:0,13.6216;}
	.st54{fill:none;stroke:#4663AC;stroke-width:3.9376;stroke-linecap:round;stroke-miterlimit:10;stroke-dasharray:0,8.3644;}
	.st55{fill:none;stroke:#4663AC;stroke-width:3.9376;stroke-linecap:round;stroke-miterlimit:10;stroke-dasharray:0,7.8489;}
	.st56{fill:none;stroke:#4663AC;stroke-width:3.9376;stroke-linecap:round;stroke-miterlimit:10;stroke-dasharray:0,8.4234;}
	.st57{fill:none;stroke:#4663AC;stroke-width:3.9376;stroke-linecap:round;stroke-miterlimit:10;stroke-dasharray:0,14.6081;}
	.st58{fill:none;stroke:#4663AC;stroke-width:3.9376;stroke-linecap:round;stroke-miterlimit:10;stroke-dasharray:0,13.8168;}
	.st59{fill:none;stroke:#4663AC;stroke-width:3.9376;stroke-linecap:round;stroke-miterlimit:10;stroke-dasharray:0,12.9706;}
	.st60{fill:none;stroke:#4663AC;stroke-width:3.9376;stroke-linecap:round;stroke-miterlimit:10;stroke-dasharray:0,13.1493;}
	.st61{fill:none;stroke:#4663AC;stroke-width:3.9376;stroke-linecap:round;stroke-miterlimit:10;stroke-dasharray:0,12.7776;}
	.st62{fill:none;stroke:#4663AC;stroke-width:3.9376;stroke-linecap:round;stroke-miterlimit:10;stroke-dasharray:0,13.2718;}
	.st63{fill:none;stroke:#4663AC;stroke-width:3.9376;stroke-linecap:round;stroke-miterlimit:10;stroke-dasharray:0,12.1458;}
	.st64{fill:none;stroke:#4663AC;stroke-width:3.9376;stroke-linecap:round;stroke-miterlimit:10;stroke-dasharray:0,11.8603;}
	.st65{fill:none;stroke:#4663AC;stroke-width:3.9376;stroke-linecap:round;stroke-miterlimit:10;stroke-dasharray:0,12.0447;}
	.st66{fill:none;stroke:#4663AC;stroke-width:3.9376;stroke-linecap:round;stroke-miterlimit:10;stroke-dasharray:0,14.0626;}
	.st67{fill:none;stroke:#4663AC;stroke-width:3.9376;stroke-linecap:round;stroke-miterlimit:10;stroke-dasharray:0,14.3462;}
	.st68{fill:none;stroke:#4663AC;stroke-width:3.9376;stroke-linecap:round;stroke-miterlimit:10;stroke-dasharray:0,14.7058;}
	.st69{fill:none;stroke:#4663AC;stroke-width:3.9376;stroke-linecap:round;stroke-miterlimit:10;stroke-dasharray:0,13.8078;}
	.st70{fill:none;stroke:#4663AC;stroke-width:3.9376;stroke-linecap:round;stroke-miterlimit:10;stroke-dasharray:0,13.2053;}
	.st71{fill:none;stroke:#4663AC;stroke-width:3.9376;stroke-linecap:round;stroke-miterlimit:10;stroke-dasharray:0,13.4324;}
	.st72{fill:none;stroke:#4663AC;stroke-width:3.9376;stroke-linecap:round;stroke-miterlimit:10;stroke-dasharray:0,14.5496;}
	.st73{fill:none;stroke:#4663AC;stroke-width:3.9376;stroke-linecap:round;stroke-miterlimit:10;stroke-dasharray:0,13.8858;}
	.st74{fill:none;stroke:#4663AC;stroke-width:3.9376;stroke-linecap:round;stroke-miterlimit:10;stroke-dasharray:0,13.7972;}
	.st75{fill:none;stroke:#4663AC;stroke-width:3.9376;stroke-linecap:round;stroke-miterlimit:10;stroke-dasharray:0,14.8041;}
	.st76{fill:none;stroke:#4663AC;stroke-width:3.9376;stroke-linecap:round;stroke-miterlimit:10;stroke-dasharray:0,14.0119;}
	.st77{fill:none;stroke:#4663AC;stroke-width:3.9376;stroke-linecap:round;stroke-miterlimit:10;stroke-dasharray:0,13.3384;}
	.st78{fill:none;stroke:#4663AC;stroke-width:3.9376;stroke-linecap:round;stroke-miterlimit:10;stroke-dasharray:0,12.634;}
	.st79{fill:none;stroke:#4663AC;stroke-width:3.9376;stroke-linecap:round;stroke-miterlimit:10;stroke-dasharray:0,13.3441;}
	.st80{fill:none;stroke:#4663AC;stroke-width:3.9376;stroke-linecap:round;stroke-miterlimit:10;stroke-dasharray:0,13.4496;}
	.st81{fill:none;stroke:#4663AC;stroke-width:3.9376;stroke-linecap:round;stroke-miterlimit:10;stroke-dasharray:0,13.9103;}
	.st82{fill:none;stroke:#4663AC;stroke-width:3.9376;stroke-linecap:round;stroke-miterlimit:10;stroke-dasharray:0,15.3192;}
	.st83{fill:none;stroke:#4663AC;stroke-width:3.9376;stroke-linecap:round;stroke-miterlimit:10;stroke-dasharray:0,15.2213;}
	.st84{fill:none;stroke:#4663AC;stroke-width:3.9376;stroke-linecap:round;stroke-miterlimit:10;stroke-dasharray:0,14.9297;}
	.st85{fill:none;stroke:#4663AC;stroke-width:3.9376;stroke-linecap:round;stroke-miterlimit:10;stroke-dasharray:0,15.7033;}
	.st86{fill:none;stroke:#4663AC;stroke-width:3.9376;stroke-linecap:round;stroke-miterlimit:10;stroke-dasharray:0,14.0059;}
	.st87{fill:none;stroke:#4663AC;stroke-width:3.9376;stroke-linecap:round;stroke-miterlimit:10;stroke-dasharray:0,13.7115;}
	.st88{fill:none;stroke:#4663AC;stroke-width:3.9376;stroke-linecap:round;stroke-miterlimit:10;stroke-dasharray:0,13.7599;}
	.st89{fill:none;stroke:#4663AC;stroke-width:3.9376;stroke-linecap:round;stroke-miterlimit:10;stroke-dasharray:0,15.3228;}
	.st90{fill:none;stroke:#4663AC;stroke-width:3.9376;stroke-linecap:round;stroke-miterlimit:10;stroke-dasharray:0,13.5934;}
	.st91{fill:none;stroke:#4663AC;stroke-width:3.9376;stroke-linecap:round;stroke-miterlimit:10;stroke-dasharray:0,14.6696;}
	.st92{fill:none;stroke:#4663AC;stroke-width:3.9376;stroke-linecap:round;stroke-miterlimit:10;stroke-dasharray:0,13.189;}
	.st93{fill:none;stroke:#4663AC;stroke-width:3.9376;stroke-linecap:round;stroke-miterlimit:10;stroke-dasharray:0,16.3956;}
	.st94{fill:none;stroke:#4663AC;stroke-width:3.9376;stroke-linecap:round;stroke-miterlimit:10;stroke-dasharray:0,13.5688;}
	.st95{fill:none;stroke:#4663AC;stroke-width:3.9376;stroke-linecap:round;stroke-miterlimit:10;stroke-dasharray:0,13.4845;}
	.st96{fill:none;stroke:#4663AC;stroke-width:3.9376;stroke-linecap:round;stroke-miterlimit:10;stroke-dasharray:0,13.6908;}
	.st97{fill:none;stroke:#4663AC;stroke-width:3.9376;stroke-linecap:round;stroke-miterlimit:10;stroke-dasharray:0,15.3041;}
	.st98{fill:none;stroke:#4663AC;stroke-width:3.9376;stroke-linecap:round;stroke-miterlimit:10;stroke-dasharray:0,11.3844;}
	.st99{fill:none;stroke:#4663AC;stroke-width:3.9376;stroke-linecap:round;stroke-miterlimit:10;stroke-dasharray:0,14.1829;}
	.st100{fill:none;stroke:#4663AC;stroke-width:3.9376;stroke-linecap:round;stroke-miterlimit:10;stroke-dasharray:0,13.6423;}
	.st101{fill:none;stroke:#4663AC;stroke-width:3.9376;stroke-linecap:round;stroke-miterlimit:10;stroke-dasharray:0,13.9126;}
	.st102{fill:none;stroke:#4663AC;stroke-width:3.9376;stroke-linecap:round;stroke-miterlimit:10;stroke-dasharray:0,12.7554;}
	.st103{fill:#4663AC;stroke:#4663AC;stroke-width:1.0724;stroke-miterlimit:10;}
	.st104{fill:none;stroke:#FCFBF9;stroke-width:30.1765;}
	.st105{fill:none;stroke:#FCFBF9;stroke-width:12.0701;}
	.st106{fill:none;stroke:#4663B3;stroke-width:0.3397;}
	.st107{fill:none;stroke:#A2B1D7;stroke-width:2.5637;stroke-linecap:round;stroke-miterlimit:10;stroke-dasharray:0,10.255;}
	.st108{opacity:0.25;fill:none;stroke:#FCFBF9;stroke-width:22.6279;enable-background:new    ;}
	.st109{opacity:0.5;fill:none;stroke:#FCFBF9;stroke-width:22.6279;enable-background:new    ;}
	.st110{opacity:0.75;fill:none;stroke:#FCFBF9;stroke-width:22.6279;enable-background:new    ;}
	
		.st111{opacity:0.5;fill:none;stroke:#A2B1D7;stroke-width:2.5637;stroke-linecap:round;stroke-miterlimit:10;stroke-dasharray:0,10.255;}
	.st112{fill:none;stroke:#FCFBF9;stroke-width:22.6279;}
	.st113{fill:#FFFFFF;}
	.st114{fill:none;stroke:#4663B3;stroke-width:1.0665;stroke-miterlimit:4;}
	.st115{fill:#4663B3;}
	.st116{fill:none;stroke:#FCFBF9;stroke-width:34.174;}
	.st117{fill:none;stroke:#A2B1D7;stroke-width:2.3056;stroke-linecap:round;stroke-miterlimit:10;stroke-dasharray:0,9.2225;}
	.st118{fill:none;stroke:#4663B3;stroke-width:1.705;stroke-miterlimit:4;}
	.st119{opacity:0.25;fill:none;stroke:#FCFBF9;stroke-width:24.2668;enable-background:new    ;}
	.st120{opacity:0.5;fill:none;stroke:#FCFBF9;stroke-width:24.2668;enable-background:new    ;}
	.st121{opacity:0.75;fill:none;stroke:#FCFBF9;stroke-width:24.2668;enable-background:new    ;}
</style>
<rect x="0" class="st0" width="1122.9" height="841.9"></rect>
<polyline class="st116" points="445.7,620.4 278.2,620.4 278.2,454.4 "></polyline>
<polyline class="st116" points="428.6,621.2 428.6,453.7 594.6,453.7 "></polyline>
<polyline class="st116" points="746.1,620.4 578.6,620.4 578.6,454.4 "></polyline>
<polyline class="st116" points="729,621.2 729,453.7 895,453.7 "></polyline>
<polyline class="st117" points="445.7,620.4 278.2,620.4 278.2,454.4 "></polyline>
<polyline class="st117" points="428.6,621.2 428.6,453.7 594.6,453.7 "></polyline>
<polyline class="st117" points="746.1,620.4 578.6,620.4 578.6,454.4 "></polyline>
<polyline class="st117" points="729,621.2 729,453.7 895,453.7 "></polyline>
<g>
	
		<rect x="374.5" y="547" transform="matrix(1 -1.799059e-03 1.799059e-03 1 -1.1061 0.7666)" class="st113" width="102.1" height="136.4"></rect>
	
		<rect x="374.5" y="547" transform="matrix(1 -1.799059e-03 1.799059e-03 1 -1.1061 0.7666)" class="st118" width="102.1" height="136.4"></rect>
	
		<rect x="373.7" y="583.7" transform="matrix(1 -1.799059e-03 1.799059e-03 1 -1.1399 0.7666)" class="st115" width="103.8" height="100.5"></rect>
	<g>
		<path class="st113" d="M423,647h23.7v13.3h-42.5v-3.9c0-21.3,26.3-24.9,26.3-36.3c0-3.1-1.7-5.1-4.9-5.1c-3.1,0-5.1,2.6-5.8,7    l-14.7-3.9c1.5-9.6,8.7-16.6,21-16.6c13,0,20.8,6.7,20.8,17.1C446.7,633.7,429.8,638.3,423,647z"></path>
	</g>
	<g>
		<path class="st115" d="M399.3,568.2l2-0.5c0.3,1.2,1,1.9,2.4,1.9c1.2,0,2-0.5,2-1.5s-0.7-1.2-2.4-1.7c-2-0.5-3.8-1.2-3.8-3.2    c0-1.9,1.5-3.2,3.9-3.2c2.4,0,3.8,1,4.1,2.7l-2,0.5c-0.3-1.2-1-1.7-2.2-1.7c-1,0-1.9,0.5-1.9,1.4c0,1,0.9,1.4,2.4,1.7    c2.6,0.7,3.9,1.2,3.9,3.2c0,2.2-1.5,3.4-4.1,3.4C401,571.3,399.5,570.2,399.3,568.2z"></path>
		<path class="st115" d="M422,561.9h-3.2v9h-2v-9h-3.2v-1.7h8.5L422,561.9z"></path>
		<path class="st115" d="M436,569.2v1.7h-7.3v-10.8h7.3v1.7h-5.1v2.7h4.9v1.7h-4.9v2.9L436,569.2z"></path>
		<path class="st115" d="M451,563.7c0,2.6-1.7,3.6-4.8,3.6h-1.4v3.6h-2v-10.8h3.4C449.3,560.2,451,561.2,451,563.7z M448.8,563.7    c0-1.5-1-1.9-2.7-1.9h-1.2v3.9h1.2C447.9,565.6,448.8,565.1,448.8,563.7z"></path>
	</g>
</g>
<g>
	
		<rect x="224.1" y="367.5" transform="matrix(1 -1.799059e-03 1.799059e-03 1 -0.7833 0.4957)" class="st113" width="102.1" height="136.4"></rect>
	
		<rect x="224.1" y="367.5" transform="matrix(1 -1.799059e-03 1.799059e-03 1 -0.7833 0.4957)" class="st118" width="102.1" height="136.4"></rect>
	
		<rect x="223.3" y="404.2" transform="matrix(1 -1.799059e-03 1.799059e-03 1 -0.8171 0.4957)" class="st115" width="103.8" height="100.5"></rect>
	<g>
		<path class="st113" d="M286.9,423.3l0.2,57.7h-15.9v-39.8l-12.3,8V433l15-9.6L286.9,423.3z"></path>
	</g>
	<g>
		<path class="st115" d="M248.9,388.8l2-0.5c0.3,1.2,1,1.9,2.4,1.9c1.2,0,2-0.5,2-1.5s-0.7-1.2-2.4-1.7c-2-0.5-3.8-1.2-3.8-3.2    c0-1.9,1.5-3.2,3.9-3.2c2.4,0,3.8,1,4.1,2.7l-2,0.5c-0.3-1.2-1-1.7-2.2-1.7c-1,0-1.9,0.5-1.9,1.4c0,1,0.9,1.4,2.4,1.7    c2.6,0.7,3.9,1.2,3.9,3.2c0,2.2-1.5,3.4-4.1,3.4C250.6,391.7,249,390.7,248.9,388.8z"></path>
		<path class="st115" d="M271.6,382.5h-3.2v9h-2v-9H263v-1.7h8.5L271.6,382.5z"></path>
		<path class="st115" d="M285.6,389.7v1.7h-7.3v-10.8h7.3v1.7h-5.1v2.7h4.9v1.7h-4.9v2.9L285.6,389.7z"></path>
		<path class="st115" d="M300.6,384.2c0,2.6-1.7,3.6-4.8,3.6h-1.4v3.6h-2v-10.8h3.4C298.9,380.6,300.6,381.8,300.6,384.2z     M298.4,384.2c0-1.5-1-1.9-2.7-1.9h-1.2v3.9h1.2C297.5,386.3,298.4,385.7,298.4,384.2z"></path>
	</g>
</g>
<g>
	
		<rect x="525" y="367.5" transform="matrix(1 -1.799059e-03 1.799059e-03 1 -0.7829 1.0369)" class="st113" width="102.1" height="136.4"></rect>
	
		<rect x="525" y="367.5" transform="matrix(1 -1.799059e-03 1.799059e-03 1 -0.7829 1.0369)" class="st118" width="102.1" height="136.4"></rect>
	
		<rect x="524.1" y="404" transform="matrix(1 -1.799059e-03 1.799059e-03 1 -0.8163 1.037)" class="st115" width="103.8" height="100.5"></rect>
	<g>
		<path class="st113" d="M553.8,466l14.8-3.9c0.5,4.1,2.9,6.5,6.7,6.3c3.8,0,6.1-2.4,6.1-5.8c0-4.6-3.4-5.5-7.3-5.5h-3.2v-11.4h2.6    c4.3,0,7.8-1.2,7.8-5.5c0-3.4-2.2-5.1-5.5-5.1s-5.1,2-6,5.8l-14.7-4.1c1.4-8,7.7-15.2,20.6-15.2c12.1,0,21.3,6,21.5,16.6    c0,8.7-6,11.6-10.4,12.3v0.3c4.6,0.5,11.6,3.8,11.6,13.3c0,11.3-9.4,17.4-22.5,17.4C561.8,482,555,475.3,553.8,466z"></path>
	</g>
	<g>
		<path class="st115" d="M549.7,388.6l2-0.5c0.3,1.2,1,1.9,2.4,1.9c1.2,0,2-0.5,2-1.5c0-1-0.7-1.2-2.4-1.7c-2-0.5-3.8-1.2-3.8-3.2    c0-1.9,1.5-3.2,3.9-3.2c2.4,0,3.8,1,4.1,2.7l-2,0.5c-0.3-1.2-1-1.7-2.2-1.7c-1,0-1.9,0.5-1.9,1.4c0,1,0.9,1.4,2.4,1.7    c2.6,0.7,3.9,1.2,3.9,3.2c0,2.2-1.5,3.4-4.1,3.4C551.4,391.7,549.9,390.5,549.7,388.6z"></path>
		<path class="st115" d="M572.4,382.3h-3.2v9h-2v-9h-3.2v-1.7h8.5L572.4,382.3z"></path>
		<path class="st115" d="M586.4,389.7v1.7h-7.3v-10.8h7.3v1.7h-5.1v2.7h4.9v1.7h-4.9v2.9H586.4z"></path>
		<path class="st115" d="M601.4,384.2c0,2.6-1.7,3.6-4.8,3.6h-1.4v3.6h-2v-10.8h3.4C599.7,380.6,601.4,381.6,601.4,384.2z     M599.2,384.2c0-1.5-1-1.9-2.7-1.9h-1.2v3.9h1.2C598.3,386.1,599.2,385.6,599.2,384.2z"></path>
	</g>
</g>
<g>
	
		<rect x="675.4" y="547" transform="matrix(1 -1.799059e-03 1.799059e-03 1 -1.1056 1.3079)" class="st113" width="102.1" height="136.4"></rect>
	
		<rect x="675.4" y="547" transform="matrix(1 -1.799059e-03 1.799059e-03 1 -1.1056 1.3079)" class="st118" width="102.1" height="136.4"></rect>
	
		<rect x="674.5" y="583.7" transform="matrix(1 -1.799059e-03 1.799059e-03 1 -1.1394 1.3079)" class="st115" width="103.8" height="100.5"></rect>
	<g>
		<path class="st113" d="M750.8,649.4h-7v11.1h-15v-11.1h-26.5v-10.9l24.6-35.8h16.7v35.2h7L750.8,649.4z M728.8,638v-17.6    L716.7,638H728.8z"></path>
	</g>
	<g>
		<path class="st115" d="M700.1,568.4l2-0.5c0.3,1.2,1,1.9,2.4,1.9c1.2,0,2-0.5,2-1.5c0-1-0.7-1.2-2.4-1.7c-2-0.5-3.8-1.2-3.8-3.2    c0-1.9,1.5-3.2,3.9-3.2c2.4,0,3.8,1,4.1,2.7l-2,0.5c-0.3-1.2-1-1.7-2.2-1.7c-1,0-1.9,0.5-1.9,1.4c0,1,0.9,1.4,2.4,1.7    c2.6,0.7,3.9,1.2,3.9,3.2c0,2.2-1.5,3.4-4.1,3.4C701.8,571.3,700.3,570.2,700.1,568.4z"></path>
		<path class="st115" d="M722.8,562h-3.2v9h-2v-9h-3.2v-1.7h8.5V562z"></path>
		<path class="st115" d="M736.8,569.2v1.7h-7.3v-10.8h7.3v1.7h-5.1v2.7h4.9v1.7h-4.9v2.9H736.8z"></path>
		<path class="st115" d="M751.8,563.7c0,2.6-1.7,3.6-4.8,3.6h-1.4v3.6h-2v-10.8h3.4C750.1,560.2,751.8,561.4,751.8,563.7z     M749.6,563.7c0-1.5-1-1.9-2.7-1.9h-1.2v3.9h1.2C748.8,565.8,749.6,565.3,749.6,563.7z"></path>
	</g>
</g>
<g>
	
		<rect x="825.8" y="367.5" transform="matrix(1 -1.799059e-03 1.799059e-03 1 -0.7824 1.5782)" class="st113" width="102.1" height="136.4"></rect>
	
		<rect x="825.8" y="367.5" transform="matrix(1 -1.799059e-03 1.799059e-03 1 -0.7824 1.5782)" class="st118" width="102.1" height="136.4"></rect>
	
		<rect x="825" y="404" transform="matrix(1 -1.799059e-03 1.799059e-03 1 -0.8158 1.5782)" class="st115" width="103.8" height="100.5"></rect>
	<g>
		<path class="st113" d="M898.7,461.5c0,14.2-9.4,20.5-22.5,20.5c-13.1,0-20.1-6.5-21.2-15l14.8-3.9c0.7,3.6,3.1,5.5,6.3,5.5    s6-2,5.8-6.8c0-4.6-2.4-6.8-5.6-6.8c-2.7,0-4.6,1.5-5.5,3.8l-13.5-4.3l2.2-31.2h34.8v13.3h-22.7l-0.9,11.8h0.2    c1.9-3.2,5.6-5.5,10.9-5.5C891.9,442.6,898.7,449.6,898.7,461.5z"></path>
	</g>
	<g>
		<path class="st115" d="M850.6,388.6l2-0.5c0.3,1.2,1,1.9,2.4,1.9c1.2,0,2-0.5,2-1.5s-0.7-1.2-2.4-1.7c-2-0.5-3.8-1.2-3.8-3.2    c0-1.9,1.5-3.2,3.9-3.2c2.4,0,3.8,1,4.1,2.7l-2,0.5c-0.3-1.2-1-1.7-2.2-1.7c-1,0-1.9,0.5-1.9,1.4c0,1,0.9,1.4,2.4,1.7    c2.6,0.7,3.9,1.2,3.9,3.2c0,2.2-1.5,3.4-4.1,3.4C852.3,391.7,850.7,390.5,850.6,388.6z"></path>
		<path class="st115" d="M873.2,382.3H870v9h-2v-9h-3.2v-1.7h8.5V382.3z"></path>
		<path class="st115" d="M887.2,389.7v1.7h-7.3v-10.8h7.3v1.7h-5.1v2.7h4.9v1.7h-4.9v2.9L887.2,389.7z"></path>
		<path class="st115" d="M902.3,384.2c0,2.6-1.7,3.6-4.8,3.6h-1.4v3.6h-2v-10.8h3.4C900.6,380.6,902.3,381.7,902.3,384.2z     M900,384.2c0-1.5-1-1.9-2.7-1.9h-1.2v3.9h1.2C899.2,386.1,900,385.6,900,384.2z"></path>
	</g>
</g>
<rect x="227.1" y="-31" transform="matrix(-1.836970e-16 1 -1 -1.836970e-16 1101.5142 -50.4664)" class="st119" width="697.7" height="1113"></rect>
<rect x="303.6" y="45.5" transform="matrix(-1.836970e-16 1 -1 -1.836970e-16 1101.5143 -50.4662)" class="st120" width="544.8" height="960"></rect>
<rect x="172.5" y="329.6" class="st121" width="807.1" height="391.8"></rect>
</svg>
