<?xml version="1.0" encoding="UTF-8"?>
<!-- Generator: Adobe Illustrator 24.0.0, SVG Export Plug-In . SVG Version: 6.00 Build 0)  -->
<svg xmlns="http://www.w3.org/2000/svg" xmlns:xlink="http://www.w3.org/1999/xlink" version="1.1" id="Layer_1" x="0px" y="0px" viewBox="0 0 1122.9 841.9" style="enable-background:new 0 0 1122.9 841.9;" xml:space="preserve">
<style type="text/css">
	.st0{fill:#F6F4EE;}
	.st1{fill:none;stroke:#FCFBF9;stroke-width:34.6735;}
	.st2{fill:none;stroke:#FCFBF9;stroke-width:13.8688;}
	.st3{fill:none;stroke:#4663B3;stroke-width:0.3903;}
	.st4{fill:none;stroke:#A2B1D7;stroke-width:2.9458;stroke-linecap:round;stroke-miterlimit:10;stroke-dasharray:0,11.7832;}
	.st5{fill:none;stroke:#FCFBF8;stroke-width:2.1566;stroke-linejoin:round;stroke-miterlimit:10;}
	.st6{fill:none;}
	.st7{clip-path:url(#SVGID_2_);}
	.st8{fill:#4663AC;}
	.st9{fill:none;stroke:#A2B1D7;stroke-width:0.7112;stroke-miterlimit:10;}
	.st10{fill:#2C2439;}
	.st11{fill:#A2B1D7;}
	.st12{fill:none;stroke:#4663AC;stroke-width:2.8547;stroke-linecap:round;stroke-miterlimit:10;}
	.st13{opacity:0.5;fill:none;stroke:#FCFBF8;stroke-width:9.9872;stroke-miterlimit:10;}
	.st14{opacity:0.5;fill:none;stroke:#FCFBF8;stroke-width:21.2003;stroke-miterlimit:10;}
	.st15{opacity:0.5;fill:none;stroke:#FCFBF8;stroke-width:29.4871;stroke-miterlimit:10;}
	.st16{opacity:0.5;fill:none;stroke:#FCFBF8;stroke-width:31.1;stroke-miterlimit:10;}
	.st17{opacity:0.5;fill:none;stroke:#FCFBF8;stroke-width:2;stroke-miterlimit:10;}
	.st18{opacity:0.5;fill:none;stroke:#FCFBF8;stroke-width:5.0035;stroke-miterlimit:10;}
	.st19{fill:none;stroke:#4663AC;stroke-width:2.0974;stroke-miterlimit:10;}
	.st20{fill:#4663AC;stroke:#4663AC;stroke-width:1.3074;stroke-miterlimit:10;}
	.st21{fill:none;stroke:#4663AC;stroke-width:4.1948;stroke-linecap:round;stroke-miterlimit:10;}
	.st22{fill:none;stroke:#4663AC;stroke-width:4.1948;stroke-linecap:round;stroke-miterlimit:10;stroke-dasharray:0,14.1371;}
	.st23{fill:none;stroke:#4663AC;stroke-width:4.1948;stroke-linecap:round;stroke-miterlimit:10;stroke-dasharray:0,13.5616;}
	.st24{fill:none;stroke:#4663AC;stroke-width:4.1948;stroke-linecap:round;stroke-miterlimit:10;stroke-dasharray:0,15.1027;}
	.st25{fill:none;stroke:#4663AC;stroke-width:4.1948;stroke-linecap:round;stroke-miterlimit:10;stroke-dasharray:0,14.357;}
	.st26{fill:none;stroke:#4663AC;stroke-width:4.1948;stroke-linecap:round;stroke-miterlimit:10;stroke-dasharray:0,13.5561;}
	.st27{fill:none;stroke:#4663AC;stroke-width:4.1948;stroke-linecap:round;stroke-miterlimit:10;stroke-dasharray:0,13.8661;}
	.st28{fill:none;stroke:#4663AC;stroke-width:4.1948;stroke-linecap:round;stroke-miterlimit:10;stroke-dasharray:0,13.3445;}
	.st29{fill:none;stroke:#4663AC;stroke-width:4.1948;stroke-linecap:round;stroke-miterlimit:10;stroke-dasharray:0,13.8368;}
	.st30{fill:none;stroke:#4663AC;stroke-width:4.1948;stroke-linecap:round;stroke-miterlimit:10;stroke-dasharray:0,12.7227;}
	.st31{fill:none;stroke:#4663AC;stroke-width:4.1948;stroke-linecap:round;stroke-miterlimit:10;stroke-dasharray:0,12.6599;}
	.st32{fill:none;stroke:#4663AC;stroke-width:4.1948;stroke-linecap:round;stroke-miterlimit:10;stroke-dasharray:0,12.9532;}
	.st33{fill:none;stroke:#4663AC;stroke-width:4.1948;stroke-linecap:round;stroke-miterlimit:10;stroke-dasharray:0,8.4101;}
	.st34{fill:none;stroke:#4663AC;stroke-width:4.1948;stroke-linecap:round;stroke-miterlimit:10;stroke-dasharray:0,14.8427;}
	.st35{fill:none;stroke:#4663AC;stroke-width:4.1948;stroke-linecap:round;stroke-miterlimit:10;stroke-dasharray:0,14.6862;}
	.st36{fill:none;stroke:#4663AC;stroke-width:4.1948;stroke-linecap:round;stroke-miterlimit:10;stroke-dasharray:0,14.3561;}
	.st37{fill:none;stroke:#4663AC;stroke-width:4.1948;stroke-linecap:round;stroke-miterlimit:10;stroke-dasharray:0,14.4851;}
	.st38{fill:none;stroke:#4663AC;stroke-width:4.1948;stroke-linecap:round;stroke-miterlimit:10;stroke-dasharray:0,14.9851;}
	.st39{fill:none;stroke:#4663AC;stroke-width:4.1948;stroke-linecap:round;stroke-miterlimit:10;stroke-dasharray:0,17.5337;}
	.st40{fill:none;stroke:#4663AC;stroke-width:4.1948;stroke-linecap:round;stroke-miterlimit:10;stroke-dasharray:0,16.8362;}
	.st41{fill:none;stroke:#4663AC;stroke-width:4.1948;stroke-linecap:round;stroke-miterlimit:10;stroke-dasharray:0,10.3896;}
	.st42{fill:none;stroke:#4663AC;stroke-width:4.1948;stroke-linecap:round;stroke-miterlimit:10;stroke-dasharray:0,8.7549;}
	.st43{fill:none;stroke:#4663AC;stroke-width:4.1948;stroke-linecap:round;stroke-miterlimit:10;stroke-dasharray:0,10.3032;}
	.st44{fill:none;stroke:#4663AC;stroke-width:4.1948;stroke-linecap:round;stroke-miterlimit:10;stroke-dasharray:0,14.7829;}
	.st45{fill:none;stroke:#4663AC;stroke-width:4.1948;stroke-linecap:round;stroke-miterlimit:10;stroke-dasharray:0,13.5695;}
	.st46{fill:none;stroke:#4663AC;stroke-width:4.1948;stroke-linecap:round;stroke-miterlimit:10;stroke-dasharray:0,13.5885;}
	.st47{fill:none;stroke:#4663AC;stroke-width:4.1948;stroke-linecap:round;stroke-miterlimit:10;stroke-dasharray:0,13.3142;}
	.st48{fill:none;stroke:#4663AC;stroke-width:4.1948;stroke-linecap:round;stroke-miterlimit:10;stroke-dasharray:0,14.5151;}
	.st49{fill:none;stroke:#4663AC;stroke-width:4.1948;stroke-linecap:round;stroke-miterlimit:10;stroke-dasharray:0,15.5094;}
	.st50{fill:none;stroke:#4663AC;stroke-width:4.1948;stroke-linecap:round;stroke-miterlimit:10;stroke-dasharray:0,15.8994;}
	.st51{fill:none;stroke:#4663AC;stroke-width:4.1948;stroke-linecap:round;stroke-miterlimit:10;stroke-dasharray:0,9.763;}
	.st52{fill:none;stroke:#4663AC;stroke-width:4.1948;stroke-linecap:round;stroke-miterlimit:10;stroke-dasharray:0,8.2269;}
	.st53{fill:none;stroke:#4663AC;stroke-width:4.1948;stroke-linecap:round;stroke-miterlimit:10;stroke-dasharray:0,9.6819;}
	.st54{fill:none;stroke:#4663AC;stroke-width:4.1948;stroke-linecap:round;stroke-miterlimit:10;stroke-dasharray:0,13.7652;}
	.st55{fill:none;stroke:#4663AC;stroke-width:4.1948;stroke-linecap:round;stroke-miterlimit:10;stroke-dasharray:0,14.806;}
	.st56{fill:none;stroke:#4663AC;stroke-width:4.1948;stroke-linecap:round;stroke-miterlimit:10;stroke-dasharray:0,14.4714;}
	.st57{fill:none;stroke:#4663AC;stroke-width:4.1948;stroke-linecap:round;stroke-miterlimit:10;stroke-dasharray:0,14.1885;}
	.st58{fill:none;stroke:#4663AC;stroke-width:4.1948;stroke-linecap:round;stroke-miterlimit:10;stroke-dasharray:0,15.4269;}
	.st59{fill:none;stroke:#4663AC;stroke-width:4.1948;stroke-linecap:round;stroke-miterlimit:10;stroke-dasharray:0,16.5048;}
	.st60{fill:none;stroke:#4663AC;stroke-width:4.1948;stroke-linecap:round;stroke-miterlimit:10;stroke-dasharray:0,16.9198;}
	.st61{fill:none;stroke:#4663AC;stroke-width:4.1948;stroke-linecap:round;stroke-miterlimit:10;stroke-dasharray:0,10.3897;}
	.st62{fill:none;stroke:#4663AC;stroke-width:4.1948;stroke-linecap:round;stroke-miterlimit:10;stroke-dasharray:0,9.7494;}
	.st63{fill:none;stroke:#4663AC;stroke-width:4.1948;stroke-linecap:round;stroke-miterlimit:10;stroke-dasharray:0,10.463;}
	.st64{fill:none;stroke:#4663AC;stroke-width:4.1948;stroke-linecap:round;stroke-miterlimit:10;stroke-dasharray:0,15.3286;}
	.st65{fill:none;stroke:#4663AC;stroke-width:4.1948;stroke-linecap:round;stroke-miterlimit:10;stroke-dasharray:0,14.4982;}
	.st66{fill:none;stroke:#4663AC;stroke-width:4.1948;stroke-linecap:round;stroke-miterlimit:10;stroke-dasharray:0,13.6103;}
	.st67{fill:none;stroke:#4663AC;stroke-width:4.1948;stroke-linecap:round;stroke-miterlimit:10;stroke-dasharray:0,13.7978;}
	.st68{fill:none;stroke:#4663AC;stroke-width:4.1948;stroke-linecap:round;stroke-miterlimit:10;stroke-dasharray:0,13.4078;}
	.st69{fill:none;stroke:#4663AC;stroke-width:4.1948;stroke-linecap:round;stroke-miterlimit:10;stroke-dasharray:0,13.9264;}
	.st70{fill:none;stroke:#4663AC;stroke-width:4.1948;stroke-linecap:round;stroke-miterlimit:10;stroke-dasharray:0,12.7448;}
	.st71{fill:none;stroke:#4663AC;stroke-width:4.1948;stroke-linecap:round;stroke-miterlimit:10;stroke-dasharray:0,12.4452;}
	.st72{fill:none;stroke:#4663AC;stroke-width:4.1948;stroke-linecap:round;stroke-miterlimit:10;stroke-dasharray:0,12.6388;}
	.st73{fill:none;stroke:#4663AC;stroke-width:4.1948;stroke-linecap:round;stroke-miterlimit:10;stroke-dasharray:0,14.9523;}
	.st74{fill:none;stroke:#4663AC;stroke-width:4.1948;stroke-linecap:round;stroke-miterlimit:10;stroke-dasharray:0,14.5274;}
	.st75{fill:none;stroke:#4663AC;stroke-width:4.1948;stroke-linecap:round;stroke-miterlimit:10;stroke-dasharray:0,13.4025;}
	.st76{fill:none;stroke:#4663AC;stroke-width:4.1948;stroke-linecap:round;stroke-miterlimit:10;stroke-dasharray:0,12.584;}
	.st77{fill:none;stroke:#4663AC;stroke-width:4.1948;stroke-linecap:round;stroke-miterlimit:10;stroke-dasharray:0,14.7576;}
	.st78{fill:none;stroke:#4663AC;stroke-width:4.1948;stroke-linecap:round;stroke-miterlimit:10;stroke-dasharray:0,13.5102;}
	.st79{fill:none;stroke:#4663AC;stroke-width:4.1948;stroke-linecap:round;stroke-miterlimit:10;stroke-dasharray:0,15.2437;}
	.st80{fill:none;stroke:#4663AC;stroke-width:4.1948;stroke-linecap:round;stroke-miterlimit:10;stroke-dasharray:0,14.5482;}
	.st81{fill:none;stroke:#4663AC;stroke-width:4.1948;stroke-linecap:round;stroke-miterlimit:10;stroke-dasharray:0,14.4554;}
	.st82{fill:none;stroke:#4663AC;stroke-width:4.1948;stroke-linecap:round;stroke-miterlimit:10;stroke-dasharray:0,15.5102;}
	.st83{fill:none;stroke:#4663AC;stroke-width:4.1948;stroke-linecap:round;stroke-miterlimit:10;stroke-dasharray:0,14.0931;}
	.st84{fill:none;stroke:#4663AC;stroke-width:4.1948;stroke-linecap:round;stroke-miterlimit:10;stroke-dasharray:0,14.9064;}
	.st85{fill:none;stroke:#4663AC;stroke-width:4.1948;stroke-linecap:round;stroke-miterlimit:10;stroke-dasharray:0,14.1191;}
	.st86{fill:none;stroke:#4663AC;stroke-width:4.1948;stroke-linecap:round;stroke-miterlimit:10;stroke-dasharray:0,15.6583;}
	.st87{fill:none;stroke:#4663AC;stroke-width:4.1948;stroke-linecap:round;stroke-miterlimit:10;stroke-dasharray:0,14.0912;}
	.st88{fill:none;stroke:#4663AC;stroke-width:4.1948;stroke-linecap:round;stroke-miterlimit:10;stroke-dasharray:0,15.5455;}
	.st89{fill:none;stroke:#4663AC;stroke-width:4.1948;stroke-linecap:round;stroke-miterlimit:10;stroke-dasharray:0,12.8399;}
	.st90{fill:none;stroke:#4663AC;stroke-width:4.1948;stroke-linecap:round;stroke-miterlimit:10;stroke-dasharray:0,12.7579;}
	.st91{fill:none;stroke:#4663AC;stroke-width:4.1948;stroke-linecap:round;stroke-miterlimit:10;stroke-dasharray:0,12.5135;}
	.st92{fill:none;stroke:#4663AC;stroke-width:4.1948;stroke-linecap:round;stroke-miterlimit:10;stroke-dasharray:0,13.1619;}
	.st93{fill:none;stroke:#4663AC;stroke-width:4.1948;stroke-linecap:round;stroke-miterlimit:10;stroke-dasharray:0,15.6523;}
	.st94{fill:none;stroke:#4663AC;stroke-width:4.1948;stroke-linecap:round;stroke-miterlimit:10;stroke-dasharray:0,14.3656;}
	.st95{fill:none;stroke:#4663AC;stroke-width:4.1948;stroke-linecap:round;stroke-miterlimit:10;stroke-dasharray:0,13.4551;}
	.st96{fill:none;stroke:#4663AC;stroke-width:4.1948;stroke-linecap:round;stroke-miterlimit:10;stroke-dasharray:0,12.843;}
	.st97{fill:none;stroke:#4663AC;stroke-width:4.1948;stroke-linecap:round;stroke-miterlimit:10;stroke-dasharray:0,15.9509;}
	.st98{fill:none;stroke:#4663AC;stroke-width:4.1948;stroke-linecap:round;stroke-miterlimit:10;stroke-dasharray:0,16.394;}
	.st99{fill:none;stroke:#4663AC;stroke-width:4.1948;stroke-linecap:round;stroke-miterlimit:10;stroke-dasharray:0,16.5817;}
	.st100{fill:none;stroke:#4663AC;stroke-width:4.1948;stroke-linecap:round;stroke-miterlimit:10;stroke-dasharray:0,13.7421;}
	.st101{fill:none;stroke:#4663AC;stroke-width:4.1948;stroke-linecap:round;stroke-miterlimit:10;stroke-dasharray:0,11.3729;}
	.st102{fill:none;stroke:#4663AC;stroke-width:4.1948;stroke-linecap:round;stroke-miterlimit:10;stroke-dasharray:0,11.3022;}
	.st103{fill:none;stroke:#4663AC;stroke-width:4.1948;stroke-linecap:round;stroke-miterlimit:10;stroke-dasharray:0,11.4751;}
	.st104{fill:none;stroke:#4663AC;stroke-width:4.1948;stroke-linecap:round;stroke-miterlimit:10;stroke-dasharray:0,12.8273;}
	.st105{fill:none;stroke:#4663AC;stroke-width:4.1948;stroke-linecap:round;stroke-miterlimit:10;stroke-dasharray:0,14.3129;}
	.st106{fill:none;stroke:#4663AC;stroke-width:4.1948;stroke-linecap:round;stroke-miterlimit:10;stroke-dasharray:0,17.8314;}
	.st107{fill:none;stroke:#4663AC;stroke-width:4.1948;stroke-linecap:round;stroke-miterlimit:10;stroke-dasharray:0,15.246;}
	.st108{fill:none;stroke:#4663AC;stroke-width:4.1948;stroke-linecap:round;stroke-miterlimit:10;stroke-dasharray:0,13.6045;}
	.st109{fill:none;stroke:#4663AC;stroke-width:4.1948;stroke-linecap:round;stroke-miterlimit:10;stroke-dasharray:0,16.0366;}
	.st110{fill:#FFFFFF;}
	.st111{fill:none;stroke:#4663B3;stroke-width:1.2255;}
	.st112{fill:#4663B3;}
	.st113{fill:#2C4F31;}
</style>
<rect x="0" class="st0" width="1122.9" height="841.9"></rect>
<g>
	<path class="st1" d="M550.9,367.5c40.9-1.1,81.1,19.8,103,57.8c31.8,55.3,12.9,126.1-42.2,158c-55.2,31.9-125.7,13-157.5-42.3   c-31.8-55.3-18.9-122.6,36.2-154.5"></path>
	<line class="st2" x1="474.7" y1="359.4" x2="505.9" y2="413.4"></line>
	<path class="st1" d="M548.4,279.2c72.9-1.9,144.5,34.9,183.5,101.9c56.8,97.5,23.1,222.3-75.2,278.6   c-98.3,56.3-224,22.9-280.8-74.6s-29.1-218.8,69.2-275.1"></path>
	<line class="st2" x1="429.6" y1="282.9" x2="460.7" y2="337"></line>
	<path class="st3" d="M658.4,659.2c-1,0.6-2.1,1.3-3.1,1.9c-1.1,0.6-2.1,1.2-3.2,1.8 M728.2,377.3c0.6,1,1.2,2,1.8,3.1   c0.6,1.1,1.2,2.1,1.8,3.2 M547.7,277.7c1.2,0,2.4-0.1,3.6-0.1"></path>
</g>
<path class="st4" d="M548.5,277.7c1.8,0,3.6-0.1,5.5-0.1c113.5,0,205.5,92,205.5,205.5s-92,205.5-205.5,205.5s-205.5-92-205.5-205.5  c0-75.2,40.4-141,100.8-176.8"></path>
<g>
	<defs>
		<rect id="SVGID_1_" x="-1277" y="0.2" width="1122.9" height="841.9"></rect>
	</defs>
	<clipPath id="SVGID_2_">
		<use xlink:href="#SVGID_1_" style="overflow:visible;"></use>
	</clipPath>
	<g class="st7">
		<path class="st17" d="M-504.3,980.4c-67,0-132.4-13.2-194.4-39.2c-6.3-2.6-12.5-5.4-18.7-8.3c-6.2,2.9-12.4,5.6-18.7,8.3    c-62,26-127.4,39.2-194.4,39.2c-67,0-132.4-13.2-194.4-39.2c-64.2-26.9-121.5-66.2-170.5-116.9c-48.8-50.4-86.6-109.4-112.4-175.2    c-24.8-63.2-37.3-129.9-37.3-198.1c0-68.2,12.6-134.9,37.3-198.1c25.8-65.8,63.6-124.8,112.4-175.2c49-50.7,106.3-90,170.5-116.9    c62-26,127.4-39.2,194.4-39.2S-798-65.2-736-39.2c6.3,2.6,12.5,5.4,18.7,8.3c6.2-2.9,12.4-5.6,18.7-8.3    c62-26,127.4-39.2,194.4-39.2s132.4,13.2,194.4,39.2C-245.7-12.3-188.3,27-139.4,77.7C-90.6,128.1-52.8,187.1-27,252.9    C-2.2,316.1,10.3,382.7,10.3,451c0,68.2-12.6,134.9-37.3,198.1c-25.8,65.8-63.6,124.8-112.4,175.2c-49,50.7-106.3,90-170.5,116.9    C-371.8,967.2-437.2,980.4-504.3,980.4z"></path>
	</g>
</g>
<rect x="716.2" y="369.3" class="st110" width="73.4" height="98"></rect>
<rect x="716.2" y="369.3" class="st111" width="73.4" height="98"></rect>
<rect x="715.6" y="395.7" class="st112" width="74.6" height="72.3"></rect>
<g>
	<path class="st110" d="M750.9,441.3H768v9.6h-30.6v-2.8c0-15.3,18.9-17.9,18.9-26.1c0-2.2-1.2-3.7-3.6-3.7c-2.3,0-3.6,1.8-4.2,5   l-10.5-2.9c1.1-6.9,6.3-11.9,15.1-11.9c9.4,0,15,4.8,15,12.3C768.1,431.7,755.9,435,750.9,441.3z"></path>
</g>
<g>
	<path class="st112" d="M734,384.6l1.5-0.4c0.2,0.9,0.7,1.4,1.7,1.4c0.9,0,1.4-0.4,1.4-1.1c0-0.7-0.5-0.9-1.7-1.2   c-1.5-0.4-2.7-0.8-2.7-2.3c0-1.4,1.1-2.3,2.9-2.3c1.7,0,2.7,0.7,3,2l-1.4,0.4c-0.2-0.9-0.8-1.2-1.6-1.2c-0.8,0-1.3,0.3-1.3,1   c0,0.7,0.6,0.9,1.7,1.2c1.9,0.5,2.8,0.9,2.8,2.3c0,1.5-1.1,2.4-3,2.4C735.3,386.7,734.2,386,734,384.6z"></path>
	<path class="st112" d="M750.4,380.1H748v6.5h-1.5v-6.5h-2.3v-1.2h6.1V380.1z"></path>
	<path class="st112" d="M760.4,385.3v1.2h-5.3v-7.7h5.2v1.2h-3.7v1.9h3.5v1.2h-3.5v2.1H760.4z"></path>
	<path class="st112" d="M771.2,381.4c0,1.8-1.2,2.6-3.5,2.6h-0.9v2.6h-1.5v-7.7h2.4C770,378.8,771.2,379.6,771.2,381.4z    M769.7,381.4c0-1.1-0.7-1.4-2-1.4h-0.9v2.8h0.9C769,382.8,769.7,382.5,769.7,381.4z"></path>
</g>
<rect x="640.2" y="603.2" class="st110" width="73.4" height="98"></rect>
<rect x="640.2" y="603.2" class="st111" width="73.4" height="98"></rect>
<rect x="639.6" y="629.6" class="st112" width="74.6" height="72.3"></rect>
<g>
	<path class="st110" d="M660.8,674.1l10.7-2.8c0.4,2.9,2,4.6,4.8,4.6c2.7,0,4.4-1.7,4.4-4.1c0-3.3-2.4-3.9-5.3-3.9h-2.4v-8.2h1.8   c3.1,0,5.6-0.8,5.6-3.9c0-2.4-1.6-3.6-3.9-3.6c-2.4,0-3.7,1.4-4.3,4.1l-10.6-2.9c1-5.8,5.5-10.9,14.8-10.9c8.8,0,15.4,4.4,15.4,12   c0,6.2-4.3,8.4-7.5,8.8v0.2c3.3,0.4,8.3,2.7,8.3,9.6c0,8.1-6.8,12.5-16.2,12.5C666.7,685.6,661.7,680.8,660.8,674.1z"></path>
</g>
<g>
	<path class="st112" d="M658,618.5l1.5-0.4c0.2,0.9,0.7,1.4,1.7,1.4c0.9,0,1.4-0.4,1.4-1.1c0-0.7-0.5-0.9-1.7-1.2   c-1.5-0.4-2.7-0.8-2.7-2.3c0-1.4,1.1-2.3,2.9-2.3c1.7,0,2.7,0.7,3,2l-1.4,0.4c-0.2-0.9-0.8-1.2-1.6-1.2c-0.8,0-1.3,0.3-1.3,1   c0,0.7,0.6,0.9,1.7,1.2c1.9,0.5,2.8,0.9,2.8,2.3c0,1.5-1.1,2.4-3,2.4C659.3,620.6,658.2,619.8,658,618.5z"></path>
	<path class="st112" d="M674.4,613.9h-2.3v6.5h-1.5v-6.5h-2.3v-1.2h6.1V613.9z"></path>
	<path class="st112" d="M684.4,619.2v1.2h-5.3v-7.7h5.2v1.2h-3.7v1.9h3.5v1.2h-3.5v2.1H684.4z"></path>
	<path class="st112" d="M695.2,615.3c0,1.8-1.2,2.6-3.5,2.6h-0.9v2.6h-1.5v-7.7h2.4C694,612.7,695.2,613.5,695.2,615.3z    M693.7,615.3c0-1.1-0.7-1.4-2-1.4h-0.9v2.8h0.9C693,616.7,693.7,616.3,693.7,615.3z"></path>
</g>
<rect x="394.3" y="603.2" class="st110" width="73.4" height="98"></rect>
<rect x="394.3" y="603.2" class="st111" width="73.4" height="98"></rect>
<rect x="393.7" y="629.6" class="st112" width="74.6" height="72.3"></rect>
<g>
	<path class="st110" d="M448.4,676.8h-5v7.9h-10.8v-7.9h-19V669l17.8-25.7h12v25.3h5V676.8z M432.6,668.6v-12.7l-8.8,12.7H432.6z"></path>
</g>
<g>
	<path class="st112" d="M412.1,618.5l1.5-0.4c0.2,0.9,0.7,1.4,1.7,1.4c0.9,0,1.4-0.4,1.4-1.1c0-0.7-0.5-0.9-1.7-1.2   c-1.5-0.4-2.7-0.8-2.7-2.3c0-1.4,1.1-2.3,2.9-2.3c1.7,0,2.7,0.7,3,2l-1.4,0.4c-0.2-0.9-0.8-1.2-1.6-1.2c-0.8,0-1.3,0.3-1.3,1   c0,0.7,0.6,0.9,1.7,1.2c1.9,0.5,2.8,0.9,2.8,2.3c0,1.5-1.1,2.4-3,2.4C413.4,620.6,412.3,619.8,412.1,618.5z"></path>
	<path class="st112" d="M428.5,613.9h-2.3v6.5h-1.5v-6.5h-2.3v-1.2h6.1V613.9z"></path>
	<path class="st112" d="M438.5,619.2v1.2h-5.3v-7.7h5.2v1.2h-3.7v1.9h3.5v1.2h-3.5v2.1H438.5z"></path>
	<path class="st112" d="M449.3,615.3c0,1.8-1.2,2.6-3.5,2.6h-0.9v2.6h-1.5v-7.7h2.4C448.1,612.7,449.3,613.5,449.3,615.3z    M447.8,615.3c0-1.1-0.7-1.4-2-1.4h-0.9v2.8h0.9C447.1,616.7,447.8,616.3,447.8,615.3z"></path>
</g>
<rect x="318.3" y="369.3" class="st110" width="73.4" height="98"></rect>
<rect x="318.3" y="369.3" class="st111" width="73.4" height="98"></rect>
<rect x="317.7" y="395.7" class="st112" width="74.6" height="72.3"></rect>
<g>
	<path class="st110" d="M370.6,437c0,10.1-6.8,14.7-16.2,14.7c-9.5,0-14.4-4.7-15.2-10.9l10.7-2.8c0.5,2.6,2.2,3.9,4.5,3.9   c2.4,0,4.2-1.5,4.2-4.9c0-3.3-1.7-4.9-4.1-4.9c-2,0-3.3,1-3.9,2.6l-9.7-3.1l1.7-22.4h25v9.5h-16.3l-0.6,8.4h0.2   c1.4-2.3,4-3.9,7.9-3.9C365.7,423.4,370.6,428.4,370.6,437z"></path>
</g>
<g>
	<path class="st112" d="M336.1,384.6l1.5-0.4c0.2,0.9,0.7,1.4,1.7,1.4c0.9,0,1.4-0.4,1.4-1.1c0-0.7-0.5-0.9-1.7-1.2   c-1.5-0.4-2.7-0.8-2.7-2.3c0-1.4,1.1-2.3,2.9-2.3c1.7,0,2.7,0.7,3,2l-1.4,0.4c-0.2-0.9-0.8-1.2-1.6-1.2c-0.8,0-1.3,0.3-1.3,1   c0,0.7,0.6,0.9,1.7,1.2c1.9,0.5,2.8,0.9,2.8,2.3c0,1.5-1.1,2.4-3,2.4C337.4,386.7,336.3,386,336.1,384.6z"></path>
	<path class="st112" d="M352.5,380.1h-2.3v6.5h-1.5v-6.5h-2.3v-1.2h6.1V380.1z"></path>
	<path class="st112" d="M362.5,385.3v1.2h-5.3v-7.7h5.2v1.2h-3.7v1.9h3.5v1.2h-3.5v2.1H362.5z"></path>
	<path class="st112" d="M373.3,381.4c0,1.8-1.2,2.6-3.5,2.6h-0.9v2.6h-1.5v-7.7h2.4C372.1,378.8,373.3,379.6,373.3,381.4z    M371.8,381.4c0-1.1-0.7-1.4-2-1.4h-0.9v2.8h0.9C371.1,382.8,371.8,382.5,371.8,381.4z"></path>
</g>
<rect x="517.2" y="224.8" class="st110" width="73.4" height="98"></rect>
<rect x="517.2" y="224.8" class="st111" width="73.4" height="98"></rect>
<rect x="516.6" y="251.1" class="st112" width="74.6" height="72.3"></rect>
<g>
	<path class="st110" d="M562.5,264.9v41.5H551v-28.6l-8.9,5.7v-11.7l10.8-6.9H562.5z"></path>
</g>
<g>
	<path class="st112" d="M535.1,240.1l1.5-0.4c0.2,0.9,0.7,1.4,1.7,1.4c0.9,0,1.4-0.4,1.4-1.1c0-0.7-0.5-0.9-1.7-1.2   c-1.5-0.4-2.7-0.8-2.7-2.3c0-1.4,1.1-2.3,2.9-2.3c1.7,0,2.7,0.7,3,2l-1.4,0.4c-0.2-0.9-0.8-1.2-1.6-1.2c-0.8,0-1.3,0.3-1.3,1   c0,0.7,0.6,0.9,1.7,1.2c1.9,0.5,2.8,0.9,2.8,2.3c0,1.5-1.1,2.4-3,2.4C536.3,242.2,535.2,241.4,535.1,240.1z"></path>
	<path class="st112" d="M551.4,235.5h-2.3v6.5h-1.5v-6.5h-2.3v-1.2h6.1V235.5z"></path>
	<path class="st112" d="M561.4,240.8v1.2h-5.3v-7.7h5.2v1.2h-3.7v1.9h3.5v1.2h-3.5v2.1H561.4z"></path>
	<path class="st112" d="M572.2,236.9c0,1.8-1.2,2.6-3.5,2.6h-0.9v2.6h-1.5v-7.7h2.4C571.1,234.3,572.2,235.1,572.2,236.9z    M570.7,236.9c0-1.1-0.7-1.4-2-1.4h-0.9v2.8h0.9C570,238.2,570.7,237.9,570.7,236.9z"></path>
</g>
<path class="st4" d="M550.9,367.5c1,0,2,0,3.1,0c63.9,0,115.7,51.8,115.7,115.7s-51.8,115.7-115.7,115.7S438.3,547,438.3,483.1  c0-42.4,22.8-79.4,56.7-99.5"></path>
<g>
	<path class="st113" d="M552,771.1c0-0.5,0.4-1,1-1l0,0c0.5,0,1,0.4,1,1l0,0c0,0.5-0.4,1-1,1l0,0c0,0,0,0,0,0l0,0   C552.4,772.1,552,771.7,552,771.1z"></path>
	<path class="st113" d="M536.8,771.8c-0.5,0-0.9-0.5-0.9-1l0,0c0-0.5,0.5-0.9,1-0.9l0,0c0.5,0,0.9,0.5,0.9,1l0,0   C537.8,771.4,537.3,771.8,536.8,771.8L536.8,771.8C536.8,771.8,536.8,771.8,536.8,771.8z"></path>
	<path class="st113" d="M568.1,770.5c0-0.5,0.4-1,0.9-1l0,0c0.5,0,1,0.4,1,0.9l0,0c0,0.5-0.4,1-0.9,1l0,0c0,0,0,0-0.1,0l0,0   C568.5,771.4,568.1,771.1,568.1,770.5z"></path>
	<path class="st113" d="M520.6,770.7c-0.5,0-0.9-0.5-0.9-1.1l0,0c0-0.5,0.5-0.9,1.1-0.9l0,0c0.5,0.1,0.9,0.5,0.9,1.1l0,0   C521.6,770.3,521.2,770.7,520.6,770.7L520.6,770.7C520.7,770.7,520.7,770.7,520.6,770.7z"></path>
	<path class="st113" d="M584.1,769.1c-0.1-0.5,0.3-1,0.8-1.1l0,0l0,0l0,0c0.5-0.1,1,0.3,1.1,0.8l0,0c0.1,0.5-0.3,1-0.8,1.1l0,0   c0,0-0.1,0-0.1,0l0,0C584.6,769.9,584.2,769.6,584.1,769.1z"></path>
	<path class="st113" d="M504.6,768.7L504.6,768.7c-0.5-0.1-0.9-0.6-0.8-1.1l0,0c0.1-0.5,0.6-0.9,1.1-0.8l0,0l0,0l0,0   c0.5,0.1,0.9,0.6,0.8,1.1l0,0c-0.1,0.5-0.5,0.8-0.9,0.8l0,0C504.7,768.7,504.7,768.7,504.6,768.7z"></path>
	<path class="st113" d="M600,766.7c-0.1-0.5,0.3-1,0.8-1.1l0,0c0.5-0.1,1,0.3,1.1,0.8l0,0c0.1,0.5-0.3,1-0.8,1.1l0,0   c0,0-0.1,0-0.2,0l0,0C600.5,767.5,600.1,767.2,600,766.7z"></path>
	<path class="st113" d="M488.7,765.8L488.7,765.8c-0.5-0.1-0.9-0.6-0.7-1.2l0,0c0.1-0.5,0.6-0.9,1.1-0.7l0,0   c0.5,0.1,0.9,0.6,0.7,1.1l0,0c-0.1,0.5-0.5,0.8-0.9,0.8l0,0C488.8,765.8,488.8,765.8,488.7,765.8z"></path>
	<path class="st113" d="M615.8,763.5c-0.1-0.5,0.2-1,0.7-1.2l0,0c0.5-0.1,1,0.2,1.2,0.7l0,0c0.1,0.5-0.2,1-0.7,1.2l0,0   c-0.1,0-0.2,0-0.2,0l0,0C616.3,764.2,615.9,763.9,615.8,763.5z"></path>
	<path class="st113" d="M473,762L473,762c-0.5-0.1-0.8-0.7-0.7-1.2l0,0c0.1-0.5,0.7-0.8,1.2-0.7l0,0c0.5,0.1,0.8,0.7,0.7,1.2l0,0   c-0.1,0.4-0.5,0.7-0.9,0.7l0,0C473.2,762,473.1,762,473,762z"></path>
	<path class="st113" d="M631.4,759.4c-0.1-0.5,0.1-1.1,0.7-1.2l0,0c0.5-0.1,1,0.1,1.2,0.7l0,0c0.2,0.5-0.1,1-0.6,1.2l0,0   c-0.1,0-0.2,0-0.3,0l0,0C631.9,760.1,631.5,759.8,631.4,759.4z"></path>
	<path class="st113" d="M457.5,757.3c-0.5-0.2-0.8-0.7-0.6-1.2l0,0c0.2-0.5,0.7-0.8,1.2-0.6l0,0l0,0l0,0c0.5,0.2,0.8,0.7,0.6,1.2   l0,0c-0.1,0.4-0.5,0.7-0.9,0.7l0,0C457.7,757.3,457.6,757.3,457.5,757.3z"></path>
	<path class="st113" d="M646.7,754.4c-0.2-0.5,0.1-1.1,0.6-1.2l0,0c0.5-0.2,1.1,0.1,1.2,0.6l0,0c0.2,0.5-0.1,1.1-0.6,1.2l0,0   c-0.1,0-0.2,0.1-0.3,0.1l0,0C647.2,755,646.9,754.8,646.7,754.4z"></path>
	<path class="st113" d="M442.3,751.8c-0.5-0.2-0.7-0.8-0.5-1.3l0,0c0.2-0.5,0.8-0.7,1.3-0.5l0,0c0.5,0.2,0.7,0.8,0.5,1.3l0,0   c-0.2,0.4-0.5,0.6-0.9,0.6l0,0C442.6,751.8,442.4,751.8,442.3,751.8z"></path>
	<path class="st113" d="M661.8,748.5c-0.2-0.5,0-1.1,0.5-1.3l0,0l0,0l0,0c0.5-0.2,1.1,0,1.3,0.5l0,0c0.2,0.5,0,1.1-0.5,1.3h0   c-0.1,0.1-0.3,0.1-0.4,0.1l0,0C662.3,749.1,661.9,748.9,661.8,748.5z"></path>
	<path class="st113" d="M427.5,745.4c-0.5-0.2-0.7-0.8-0.5-1.3l0,0c0.2-0.5,0.8-0.7,1.3-0.5l0,0c0.5,0.2,0.7,0.8,0.5,1.3l0,0   c-0.2,0.4-0.5,0.6-0.9,0.6l0,0C427.8,745.5,427.6,745.5,427.5,745.4z"></path>
	<path class="st113" d="M676.5,741.9c-0.2-0.5,0-1.1,0.4-1.3l0,0l0,0l0,0c0.5-0.2,1.1,0,1.3,0.4l0,0c0.2,0.5,0,1.1-0.4,1.3l0,0   c-0.1,0.1-0.3,0.1-0.4,0.1l0,0C677,742.4,676.6,742.2,676.5,741.9z"></path>
	<path class="st113" d="M413,738.2c-0.5-0.3-0.6-0.8-0.4-1.3l0,0c0.3-0.5,0.8-0.6,1.3-0.4l0,0c0,0,0,0,0,0l0,0   c0.5,0.2,0.7,0.8,0.4,1.3l0,0c-0.2,0.3-0.5,0.5-0.9,0.5l0,0C413.3,738.3,413.2,738.3,413,738.2z"></path>
	<path class="st113" d="M690.8,734.4c-0.3-0.5-0.1-1.1,0.4-1.3l0,0c0.5-0.3,1.1-0.1,1.3,0.4l0,0c0.3,0.5,0.1,1.1-0.4,1.3l0,0   c-0.2,0.1-0.3,0.1-0.5,0.1l0,0C691.3,734.9,690.9,734.7,690.8,734.4z"></path>
	<path class="st113" d="M399,730.2c-0.5-0.3-0.6-0.9-0.3-1.3l0,0c0.3-0.5,0.9-0.6,1.3-0.3l0,0c0.5,0.3,0.6,0.9,0.3,1.3l0,0   c-0.2,0.3-0.5,0.5-0.8,0.5l0,0C399.3,730.4,399.1,730.3,399,730.2z"></path>
	<path class="st113" d="M704.6,726.1c-0.3-0.5-0.2-1.1,0.3-1.3l0,0c0.4-0.3,1-0.2,1.3,0.3l0,0c0.3,0.4,0.2,1-0.3,1.3l0,0   c-0.2,0.1-0.3,0.2-0.5,0.2l0,0C705.1,726.6,704.8,726.4,704.6,726.1z"></path>
	<path class="st113" d="M385.4,721.5c-0.4-0.3-0.6-0.9-0.3-1.3l0,0c0.3-0.4,0.9-0.6,1.3-0.3l0,0c0.4,0.3,0.6,0.9,0.3,1.3l0,0   c-0.2,0.3-0.5,0.4-0.8,0.4l0,0C385.8,721.7,385.6,721.6,385.4,721.5z"></path>
	<path class="st113" d="M718,717.1c-0.3-0.4-0.2-1,0.2-1.3l0,0c0.4-0.3,1-0.2,1.4,0.2l0,0c0.3,0.4,0.2,1-0.2,1.3l0,0   c-0.2,0.1-0.4,0.2-0.6,0.2l0,0C718.5,717.5,718.2,717.4,718,717.1z"></path>
	<path class="st113" d="M372.3,712c-0.4-0.3-0.5-0.9-0.2-1.4l0,0c0.3-0.4,0.9-0.5,1.4-0.2l0,0c0.4,0.3,0.5,0.9,0.2,1.4l0,0   c-0.2,0.3-0.5,0.4-0.8,0.4l0,0C372.7,712.2,372.5,712.2,372.3,712z"></path>
	<path class="st113" d="M730.8,707.3c-0.3-0.4-0.3-1,0.1-1.4l0,0c0.4-0.3,1-0.3,1.4,0.1l0,0c0.3,0.4,0.3,1-0.1,1.4l0,0   c-0.2,0.1-0.4,0.2-0.6,0.2l0,0C731.3,707.7,731,707.6,730.8,707.3z"></path>
	<path class="st113" d="M359.8,701.8L359.8,701.8c-0.4-0.3-0.5-1-0.1-1.4l0,0c0.3-0.4,1-0.4,1.4-0.1l0,0c0,0,0,0,0,0l0,0   c0.4,0.3,0.5,1,0.1,1.4l0,0c-0.2,0.2-0.5,0.3-0.7,0.3l0,0C360.2,702.1,360,702,359.8,701.8z"></path>
	<path class="st113" d="M743.1,696.9c-0.4-0.4-0.3-1,0.1-1.4l0,0c0.4-0.4,1-0.3,1.4,0.1l0,0c0.4,0.4,0.3,1-0.1,1.4l0,0   c-0.2,0.2-0.4,0.3-0.6,0.3l0,0C743.5,697.2,743.3,697.1,743.1,696.9z"></path>
	<path class="st113" d="M347.8,690.9c-0.4-0.4-0.4-1,0-1.4l0,0c0.4-0.4,1-0.4,1.4,0l0,0l0,0l0,0c0.4,0.4,0.4,1,0,1.4l0,0   c-0.2,0.2-0.4,0.3-0.7,0.3l0,0C348.3,691.2,348,691.1,347.8,690.9z"></path>
	<path class="st113" d="M754.8,685.8c-0.4-0.4-0.4-1,0-1.4l0,0c0.4-0.4,1-0.4,1.4,0l0,0c0.4,0.4,0.4,1,0,1.4l0,0   c-0.2,0.2-0.4,0.3-0.7,0.3l0,0C755.2,686.1,755,686,754.8,685.8z"></path>
	<path class="st113" d="M336.5,679.4c-0.4-0.4-0.3-1,0-1.4l0,0c0.4-0.4,1-0.3,1.4,0l0,0c0.4,0.4,0.3,1,0,1.4l0,0   c-0.2,0.2-0.4,0.3-0.7,0.3l0,0C336.9,679.7,336.7,679.6,336.5,679.4z"></path>
	<path class="st113" d="M765.8,674.1c-0.4-0.4-0.4-1-0.1-1.4l0,0c0.4-0.4,1-0.4,1.4-0.1l0,0c0.4,0.4,0.4,1,0.1,1.4l0,0   c-0.2,0.2-0.5,0.3-0.7,0.3l0,0C766.2,674.3,766,674.3,765.8,674.1z"></path>
	<path class="st113" d="M325.8,667.3c-0.3-0.4-0.3-1,0.1-1.4l0,0c0.4-0.3,1-0.3,1.4,0.1l0,0c0.3,0.4,0.3,1-0.1,1.4l0,0   c-0.2,0.2-0.4,0.2-0.6,0.2l0,0C326.3,667.6,326,667.5,325.8,667.3z"></path>
	<path class="st113" d="M776.2,661.8c-0.4-0.3-0.5-0.9-0.2-1.4l0,0c0.3-0.4,0.9-0.5,1.4-0.2l0,0c0.4,0.3,0.5,0.9,0.2,1.4l0,0   c-0.2,0.2-0.5,0.4-0.8,0.4l0,0C776.6,662,776.4,661.9,776.2,661.8z"></path>
	<path class="st113" d="M315.8,654.6c-0.3-0.4-0.2-1,0.2-1.4l0,0c0.4-0.3,1-0.2,1.4,0.2l0,0l0,0l0,0c0.3,0.4,0.2,1-0.2,1.4l0,0   c-0.2,0.1-0.4,0.2-0.6,0.2l0,0C316.3,655,316,654.8,315.8,654.6z"></path>
	<path class="st113" d="M785.9,648.9c-0.4-0.3-0.5-0.9-0.2-1.3l0,0c0.3-0.4,0.9-0.5,1.3-0.2l0,0c0.4,0.3,0.5,0.9,0.2,1.3l0,0   c-0.2,0.3-0.5,0.4-0.8,0.4l0,0C786.3,649.1,786.1,649,785.9,648.9z"></path>
	<path class="st113" d="M306.5,641.3c-0.3-0.4-0.2-1,0.3-1.3l0,0c0.4-0.3,1-0.2,1.3,0.3l0,0c0.3,0.5,0.2,1.1-0.3,1.3l0,0   c-0.2,0.1-0.3,0.2-0.5,0.2l0,0C307,641.8,306.7,641.6,306.5,641.3z"></path>
	<path class="st113" d="M794.8,635.5c-0.5-0.3-0.6-0.9-0.3-1.3l0,0c0.3-0.5,0.9-0.6,1.3-0.3l0,0c0.5,0.3,0.6,0.9,0.3,1.3l0,0   c-0.2,0.3-0.5,0.5-0.8,0.5l0,0C795.2,635.7,795,635.6,794.8,635.5z"></path>
	<path class="st113" d="M298,627.6L298,627.6c-0.3-0.5-0.1-1.1,0.3-1.3l0,0c0.5-0.3,1.1-0.1,1.3,0.3l0,0c0.3,0.5,0.1,1.1-0.3,1.3   l0,0c-0.2,0.1-0.3,0.1-0.5,0.1l0,0C298.5,628.1,298.2,627.9,298,627.6z"></path>
	<path class="st113" d="M803,621.7c-0.5-0.3-0.6-0.8-0.4-1.3l0,0c0.3-0.5,0.8-0.6,1.3-0.4l0,0c0.5,0.3,0.6,0.8,0.4,1.3l0,0   c-0.2,0.3-0.5,0.5-0.9,0.5l0,0C803.3,621.8,803.2,621.8,803,621.7z"></path>
	<path class="st113" d="M290.2,613.4L290.2,613.4c-0.2-0.5-0.1-1.1,0.4-1.3l0,0c0.5-0.2,1.1,0,1.3,0.4l0,0l0,0l0,0   c0.2,0.5,0.1,1.1-0.4,1.3l0,0c-0.1,0.1-0.3,0.1-0.4,0.1l0,0C290.7,613.9,290.4,613.7,290.2,613.4z"></path>
	<path class="st113" d="M810.4,607.4c-0.5-0.2-0.7-0.8-0.4-1.3l0,0c0.2-0.5,0.8-0.7,1.3-0.5l0,0c0.5,0.2,0.7,0.8,0.5,1.3l0,0   c-0.2,0.3-0.5,0.6-0.9,0.6l0,0C810.7,607.5,810.6,607.5,810.4,607.4z"></path>
	<path class="st113" d="M283.3,598.8L283.3,598.8c-0.2-0.5,0-1.1,0.5-1.3l0,0c0.5-0.2,1.1,0,1.3,0.5l0,0c0,0,0,0,0,0l0,0   c0.2,0.5,0,1.1-0.5,1.3l0,0c-0.1,0.1-0.3,0.1-0.4,0.1l0,0C283.8,599.3,283.4,599.1,283.3,598.8z"></path>
	<path class="st113" d="M817,592.7c-0.5-0.2-0.7-0.8-0.5-1.3l0,0l0,0l0,0c0.2-0.5,0.8-0.7,1.3-0.5l0,0c0.5,0.2,0.7,0.8,0.5,1.3l0,0   c-0.2,0.4-0.5,0.6-0.9,0.6l0,0C817.3,592.8,817.2,592.8,817,592.7z"></path>
	<path class="st113" d="M277.1,583.8c-0.2-0.5,0.1-1.1,0.6-1.2l0,0c0.5-0.2,1.1,0.1,1.2,0.6l0,0c0,0,0,0,0,0l0,0   c0.2,0.5-0.1,1.1-0.6,1.2l0,0c-0.1,0-0.2,0.1-0.3,0.1l0,0C277.6,584.4,277.3,584.2,277.1,583.8z"></path>
	<path class="st113" d="M822.8,577.7c-0.5-0.2-0.8-0.7-0.6-1.2l0,0c0.2-0.5,0.7-0.8,1.2-0.6l0,0c0.5,0.2,0.8,0.7,0.6,1.2l0,0   c-0.1,0.4-0.5,0.6-0.9,0.6l0,0C823,577.7,822.9,577.7,822.8,577.7z"></path>
	<path class="st113" d="M271.8,568.5c-0.2-0.5,0.1-1,0.6-1.2l0,0c0.5-0.2,1.1,0.1,1.2,0.6l0,0c0.2,0.5-0.1,1.1-0.6,1.2l0,0   c-0.1,0-0.2,0-0.3,0l0,0C272.3,569.1,272,568.9,271.8,568.5z"></path>
	<path class="st113" d="M827.8,562.3c-0.5-0.1-0.8-0.7-0.7-1.2l0,0c0.1-0.5,0.7-0.8,1.2-0.7l0,0c0.5,0.1,0.8,0.7,0.7,1.2l0,0   c-0.1,0.4-0.5,0.7-0.9,0.7l0,0C827.9,562.4,827.9,562.4,827.8,562.3z"></path>
	<path class="st113" d="M267.4,552.9c-0.1-0.5,0.2-1,0.7-1.2l0,0c0.5-0.1,1,0.2,1.2,0.7l0,0c0.1,0.5-0.2,1-0.7,1.2l0,0   c-0.1,0-0.2,0-0.2,0l0,0C267.9,553.6,267.5,553.4,267.4,552.9z"></path>
	<path class="st113" d="M831.8,546.8c-0.5-0.1-0.8-0.6-0.7-1.2l0,0l0,0l0,0c0.1-0.5,0.6-0.9,1.2-0.7l0,0c0.5,0.1,0.8,0.6,0.7,1.2   l0,0c-0.1,0.4-0.5,0.8-0.9,0.8l0,0C832,546.8,831.9,546.8,831.8,546.8z"></path>
	<path class="st113" d="M263.9,537.1L263.9,537.1c-0.1-0.5,0.2-1,0.8-1.1l0,0c0.5-0.1,1,0.2,1.1,0.8l0,0c0.1,0.5-0.2,1-0.8,1.1l0,0   c-0.1,0-0.1,0-0.2,0l0,0C264.4,537.9,264,537.6,263.9,537.1z"></path>
	<path class="st113" d="M835,531c-0.5-0.1-0.9-0.6-0.8-1.1l0,0l0,0l0,0c0.1-0.5,0.6-0.9,1.1-0.8l0,0c0.5,0.1,0.9,0.6,0.8,1.1l0,0   c-0.1,0.5-0.5,0.8-0.9,0.8l0,0C835.1,531,835.1,531,835,531z"></path>
	<path class="st113" d="M261.3,521.2c-0.1-0.5,0.3-1,0.8-1.1l0,0c0.5-0.1,1,0.3,1.1,0.8l0,0l0,0l0,0c0.1,0.5-0.3,1-0.8,1.1l0,0   c0,0-0.1,0-0.1,0l0,0C261.7,522,261.3,521.7,261.3,521.2z"></path>
	<path class="st113" d="M837.3,515c-0.5-0.1-0.9-0.5-0.9-1.1l0,0c0.1-0.5,0.5-0.9,1.1-0.9l0,0c0.5,0.1,0.9,0.5,0.9,1.1v0   c-0.1,0.5-0.5,0.9-1,0.9l0,0C837.4,515,837.4,515,837.3,515z"></path>
	<path class="st113" d="M259.5,505.1c0-0.5,0.3-1,0.9-1l0,0c0.5,0,1,0.4,1,0.9l0,0c0,0.5-0.3,1-0.9,1l0,0c0,0-0.1,0-0.1,0l0,0   C260,506,259.5,505.6,259.5,505.1z"></path>
	<path class="st113" d="M838.7,499c-0.5,0-0.9-0.5-0.9-1l0,0l0,0l0,0c0-0.5,0.5-0.9,1-0.9l0,0c0.5,0,0.9,0.5,0.9,1l0,0   C839.7,498.6,839.3,499,838.7,499L838.7,499C838.8,499,838.7,499,838.7,499z"></path>
	<path class="st113" d="M258.6,489L258.6,489c0-0.5,0.4-1,0.9-1l0,0c0.5,0,1,0.4,1,0.9l0,0c0,0.5-0.4,1-0.9,1l0,0c0,0,0,0,0,0l0,0   C259.1,489.9,258.7,489.5,258.6,489z"></path>
	<path class="st113" d="M707.2,505.9c-0.4,0-0.7-0.3-0.7-0.7l0,0c0-0.1,0-0.2,0.1-0.3l0,0c0-0.1-0.1-0.2-0.1-0.3l0,0l0,0l0,0   c0-0.4,0.3-0.7,0.7-0.7l0,0c0.4,0,0.7,0.3,0.7,0.7l0,0c0,0.1,0,0.2-0.1,0.3l0,0c0,0.1,0.1,0.2,0.1,0.3l0,0   C707.9,505.6,707.6,505.9,707.2,505.9L707.2,505.9L707.2,505.9z"></path>
	<path class="st113" d="M259.6,473.8c-0.5,0-1-0.5-0.9-1l0,0c0-0.5,0.5-1,1-0.9l0,0c0.5,0,1,0.5,0.9,1l0,0l0,0l0,0   C260.6,473.4,260.1,473.8,259.6,473.8L259.6,473.8C259.6,473.8,259.6,473.8,259.6,473.8z"></path>
	<path class="st113" d="M837.9,465.2C837.9,465.2,837.9,465.2,837.9,465.2L837.9,465.2c0-0.5,0.4-1,0.9-1l0,0c0.5,0,1,0.4,1,0.9l0,0   c0,0.5-0.4,1-0.9,1l0,0c0,0,0,0-0.1,0l0,0C838.3,466.1,837.9,465.7,837.9,465.2z"></path>
	<path class="st113" d="M260.4,457.7c-0.5,0-0.9-0.5-0.9-1l0,0c0-0.5,0.5-0.9,1-0.9l0,0c0.5,0,0.9,0.5,0.9,1l0,0   C261.4,457.3,261,457.7,260.4,457.7L260.4,457.7C260.5,457.7,260.5,457.7,260.4,457.7z"></path>
	<path class="st113" d="M836.5,449.2C836.5,449.2,836.5,449.2,836.5,449.2L836.5,449.2c-0.1-0.5,0.3-1,0.9-1.1l0,0   c0.5-0.1,1,0.3,1.1,0.9l0,0c0.1,0.5-0.3,1-0.9,1.1l0,0c0,0-0.1,0-0.1,0l0,0C837,450.1,836.6,449.7,836.5,449.2z"></path>
	<path class="st113" d="M262.2,441.7c-0.5-0.1-0.9-0.6-0.8-1.1l0,0c0.1-0.5,0.6-0.9,1.1-0.8l0,0c0.5,0.1,0.9,0.6,0.8,1.1l0,0   c-0.1,0.5-0.5,0.8-1,0.8l0,0C262.3,441.7,262.2,441.7,262.2,441.7z"></path>
	<path class="st113" d="M834.3,433.3c-0.1-0.5,0.3-1,0.8-1.1l0,0c0.5-0.1,1,0.3,1.1,0.8l0,0c0.1,0.5-0.3,1-0.8,1.1l0,0   c-0.1,0-0.1,0-0.2,0l0,0C834.8,434.1,834.4,433.8,834.3,433.3z"></path>
	<path class="st113" d="M264.8,425.8c-0.5-0.1-0.9-0.6-0.8-1.1h0c0.1-0.5,0.6-0.9,1.1-0.8l0,0c0.5,0.1,0.9,0.6,0.8,1.1l0,0l0,0l0,0   c-0.1,0.5-0.5,0.8-0.9,0.8l0,0C264.9,425.8,264.9,425.8,264.8,425.8z"></path>
	<path class="st113" d="M831.2,417.5L831.2,417.5L831.2,417.5c-0.1-0.5,0.2-1,0.7-1.1l0,0c0.5-0.1,1,0.2,1.2,0.7l0,0   c0.1,0.5-0.2,1-0.7,1.2l0,0c-0.1,0-0.1,0-0.2,0l0,0C831.7,418.3,831.3,418,831.2,417.5z"></path>
	<path class="st113" d="M268.3,410.1c-0.5-0.1-0.8-0.7-0.7-1.2l0,0c0.1-0.5,0.7-0.8,1.2-0.7l0,0c0.5,0.1,0.8,0.7,0.7,1.2l0,0   c-0.1,0.4-0.5,0.7-0.9,0.7l0,0C268.5,410.1,268.4,410.1,268.3,410.1z"></path>
	<path class="st113" d="M827.3,402C827.3,402,827.3,402,827.3,402L827.3,402c-0.1-0.5,0.2-1,0.7-1.2l0,0c0.5-0.1,1.1,0.2,1.2,0.7   l0,0c0.1,0.5-0.2,1-0.7,1.2l0,0c-0.1,0-0.2,0-0.3,0l0,0C827.8,402.7,827.4,402.4,827.3,402z"></path>
	<path class="st113" d="M272.7,394.6c-0.5-0.2-0.8-0.7-0.6-1.2v0c0.2-0.5,0.7-0.8,1.2-0.6l0,0c0.5,0.2,0.8,0.7,0.6,1.2l0,0   c-0.1,0.4-0.5,0.7-0.9,0.7l0,0C272.9,394.6,272.8,394.6,272.7,394.6z"></path>
	<path class="st113" d="M822.5,386.7C822.5,386.7,822.5,386.7,822.5,386.7L822.5,386.7c-0.2-0.5,0.1-1.1,0.6-1.2l0,0   c0.5-0.2,1.1,0.1,1.2,0.6l0,0c0.2,0.5-0.1,1.1-0.6,1.2l0,0c-0.1,0-0.2,0.1-0.3,0.1l0,0C823,387.3,822.6,387.1,822.5,386.7z"></path>
	<path class="st113" d="M277.9,379.3c-0.5-0.2-0.7-0.7-0.6-1.2l0,0c0.2-0.5,0.7-0.7,1.2-0.6l0,0c0.5,0.2,0.8,0.8,0.6,1.2l0,0l0,0   l0,0c-0.1,0.4-0.5,0.6-0.9,0.6l0,0C278.1,379.4,278,379.4,277.9,379.3z"></path>
	<path class="st113" d="M816.8,371.6c-0.2-0.5,0-1.1,0.5-1.3l0,0c0.5-0.2,1.1,0,1.3,0.5l0,0c0.2,0.5,0,1.1-0.5,1.3l0,0   c-0.1,0-0.2,0.1-0.4,0.1l0,0C817.3,372.2,816.9,372,816.8,371.6z"></path>
	<path class="st113" d="M284,364.4c-0.5-0.2-0.7-0.8-0.5-1.3l0,0c0.2-0.5,0.8-0.7,1.3-0.5l0,0c0.5,0.2,0.7,0.8,0.5,1.3l0,0   c-0.2,0.4-0.5,0.6-0.9,0.6l0,0C284.2,364.5,284.1,364.5,284,364.4z"></path>
	<path class="st113" d="M810.2,356.9C810.2,356.9,810.2,356.9,810.2,356.9L810.2,356.9c-0.2-0.5,0-1.1,0.5-1.3l0,0   c0.5-0.2,1.1,0,1.3,0.5v0c0.2,0.5,0,1.1-0.5,1.3l0,0c-0.1,0.1-0.3,0.1-0.4,0.1l0,0C810.8,357.4,810.4,357.2,810.2,356.9z"></path>
	<path class="st113" d="M290.9,349.9c-0.5-0.2-0.7-0.8-0.4-1.3l0,0c0.3-0.5,0.8-0.7,1.3-0.4l0,0c0.5,0.2,0.7,0.8,0.4,1.3l0,0   c-0.2,0.3-0.5,0.5-0.9,0.5l0,0C291.2,350,291,350,290.9,349.9z"></path>
	<path class="st113" d="M802.9,342.6c-0.3-0.5-0.1-1.1,0.4-1.3l0,0c0.5-0.3,1.1-0.1,1.3,0.4l0,0c0.3,0.5,0.1,1.1-0.4,1.3l0,0   c-0.1,0.1-0.3,0.1-0.5,0.1l0,0C803.4,343.1,803.1,342.9,802.9,342.6z"></path>
	<path class="st113" d="M298.6,335.8c-0.5-0.3-0.6-0.9-0.3-1.3l0,0c0.3-0.5,0.9-0.6,1.3-0.3l0,0c0.5,0.3,0.6,0.9,0.3,1.3l0,0   c-0.2,0.3-0.5,0.5-0.8,0.5l0,0C298.9,335.9,298.7,335.9,298.6,335.8z"></path>
	<path class="st113" d="M794.8,328.7c-0.3-0.5-0.1-1.1,0.3-1.3l0,0c0.4-0.3,1-0.1,1.3,0.3l0,0c0.3,0.5,0.1,1.1-0.3,1.3l0,0   c-0.2,0.1-0.3,0.1-0.5,0.1l0,0C795.3,329.2,795,329,794.8,328.7z"></path>
	<path class="st113" d="M307.1,322.1c-0.4-0.3-0.6-0.9-0.3-1.3l0,0c0.3-0.5,0.9-0.6,1.3-0.3l0,0c0.4,0.3,0.6,0.9,0.3,1.3l0,0l0,0   l0,0c-0.2,0.3-0.5,0.4-0.8,0.4l0,0C307.4,322.3,307.2,322.2,307.1,322.1z"></path>
	<path class="st113" d="M785.9,315.3c-0.3-0.4-0.2-1,0.2-1.3l0,0c0.4-0.3,1-0.2,1.3,0.2l0,0c0.3,0.4,0.2,1-0.2,1.3l0,0   c-0.2,0.1-0.4,0.2-0.6,0.2l0,0C786.4,315.7,786.1,315.6,785.9,315.3z"></path>
	<path class="st113" d="M316.3,308.9c-0.4-0.3-0.5-0.9-0.2-1.4h0c0.3-0.4,0.9-0.5,1.4-0.2l0,0c0.4,0.3,0.5,0.9,0.2,1.4l0,0   c-0.2,0.3-0.5,0.4-0.8,0.4l0,0C316.7,309.1,316.5,309,316.3,308.9z"></path>
	<path class="st113" d="M776.3,302.4c-0.3-0.4-0.3-1,0.2-1.4l0,0c0.4-0.3,1-0.3,1.4,0.2l0,0c0.3,0.4,0.3,1-0.2,1.4l0,0   c-0.2,0.1-0.4,0.2-0.6,0.2l0,0C776.8,302.8,776.5,302.7,776.3,302.4z"></path>
	<path class="st113" d="M326.2,296.2c-0.4-0.3-0.5-0.9-0.1-1.4v0c0.3-0.4,1-0.5,1.4-0.1l0,0c0.4,0.3,0.5,0.9,0.1,1.4l0,0l0,0l0,0   c-0.2,0.2-0.5,0.3-0.7,0.3l0,0C326.6,296.5,326.4,296.4,326.2,296.2z"></path>
	<path class="st113" d="M766,290.1C766,290.1,766,290.1,766,290.1L766,290.1c-0.4-0.4-0.3-1,0.1-1.4l0,0c0.4-0.3,1-0.3,1.4,0.1l0,0   c0.3,0.4,0.3,1-0.1,1.4l0,0c-0.2,0.2-0.4,0.2-0.6,0.2l0,0C766.5,290.4,766.2,290.3,766,290.1z"></path>
	<path class="st113" d="M336.8,284.1c-0.4-0.4-0.4-1,0-1.4l0,0c0.4-0.4,1-0.4,1.4,0l0,0c0.4,0.4,0.4,1,0,1.4l0,0l0,0l0,0   c-0.2,0.2-0.4,0.3-0.7,0.3l0,0C337.3,284.4,337,284.3,336.8,284.1z"></path>
	<path class="st113" d="M755.1,278.4c-0.4-0.4-0.4-1,0-1.4l0,0c0.4-0.4,1-0.4,1.4,0l0,0c0.4,0.4,0.4,1,0,1.4l0,0   c-0.2,0.2-0.4,0.3-0.7,0.3l0,0C755.5,278.6,755.3,278.5,755.1,278.4z"></path>
	<path class="st113" d="M348.1,272.6c-0.4-0.4-0.4-1,0-1.4l0,0c0.4-0.4,1-0.4,1.4,0l0,0c0.4,0.4,0.4,1,0,1.4l0,0   c-0.2,0.2-0.4,0.3-0.7,0.3l0,0C348.6,272.9,348.3,272.8,348.1,272.6z"></path>
	<path class="st113" d="M743.5,267.2c-0.4-0.4-0.4-1-0.1-1.4l0,0c0.4-0.4,1-0.4,1.4-0.1l0,0c0.4,0.4,0.4,1,0.1,1.4l0,0   c-0.2,0.2-0.5,0.3-0.7,0.3l0,0C743.9,267.5,743.7,267.4,743.5,267.2z"></path>
	<path class="st113" d="M360,261.7c-0.3-0.4-0.3-1,0.1-1.4l0,0c0.4-0.3,1-0.3,1.4,0.1l0,0c0.3,0.4,0.3,1-0.1,1.4l0,0   c-0.2,0.2-0.4,0.2-0.6,0.2l0,0C360.5,262.1,360.2,262,360,261.7z"></path>
	<path class="st113" d="M731.3,256.8L731.3,256.8L731.3,256.8c-0.4-0.3-0.5-0.9-0.1-1.4l0,0c0.3-0.4,0.9-0.5,1.4-0.1l0,0   c0.4,0.3,0.5,0.9,0.1,1.4l0,0c-0.2,0.2-0.5,0.4-0.8,0.4l0,0C731.7,257,731.5,256.9,731.3,256.8z"></path>
	<path class="st113" d="M372.5,251.6c-0.3-0.4-0.2-1,0.2-1.4l0,0c0.4-0.3,1-0.3,1.4,0.2l0,0c0.3,0.4,0.2,1-0.2,1.4l0,0   c-0.2,0.1-0.4,0.2-0.6,0.2l0,0C373,251.9,372.7,251.8,372.5,251.6z"></path>
	<path class="st113" d="M718.6,247c-0.4-0.3-0.5-0.9-0.2-1.3l0,0c0.3-0.4,0.9-0.5,1.3-0.2l0,0c0.4,0.3,0.5,0.9,0.2,1.4l0,0   c-0.2,0.3-0.5,0.4-0.8,0.4l0,0C718.9,247.2,718.7,247.1,718.6,247z"></path>
	<path class="st113" d="M385.6,242.1c-0.3-0.4-0.2-1,0.3-1.4v0c0.4-0.3,1-0.2,1.3,0.3l0,0c0.3,0.4,0.2,1-0.3,1.3l0,0   c-0.2,0.1-0.3,0.2-0.5,0.2l0,0C386,242.5,385.7,242.3,385.6,242.1z"></path>
	<path class="st113" d="M705.3,238c-0.5-0.3-0.6-0.9-0.3-1.3l0,0c0.3-0.5,0.9-0.6,1.3-0.3l0,0c0.5,0.3,0.6,0.9,0.3,1.3l0,0   c-0.2,0.3-0.5,0.4-0.8,0.4l0,0C705.6,238.1,705.5,238.1,705.3,238z"></path>
	<path class="st113" d="M399.1,233.3c-0.3-0.5-0.1-1.1,0.3-1.3l0,0c0.5-0.3,1.1-0.1,1.3,0.3l0,0c0.3,0.5,0.1,1.1-0.3,1.3l0,0   c-0.2,0.1-0.3,0.1-0.5,0.1l0,0C399.6,233.8,399.3,233.6,399.1,233.3z"></path>
	<path class="st113" d="M691.6,229.7C691.6,229.7,691.6,229.7,691.6,229.7L691.6,229.7c-0.5-0.3-0.6-0.9-0.4-1.3l0,0   c0.3-0.5,0.9-0.6,1.3-0.4l0,0c0.5,0.3,0.6,0.9,0.4,1.3l0,0c-0.2,0.3-0.5,0.5-0.8,0.5l0,0C691.9,229.8,691.7,229.8,691.6,229.7z"></path>
	<path class="st113" d="M413.1,225.3c-0.3-0.5-0.1-1.1,0.4-1.3l0,0c0.5-0.2,1.1-0.1,1.3,0.4l0,0c0.3,0.5,0.1,1.1-0.4,1.3l0,0l0,0   l0,0c-0.1,0.1-0.3,0.1-0.4,0.1l0,0C413.6,225.8,413.3,225.7,413.1,225.3z"></path>
	<path class="st113" d="M677.4,222.2c-0.5-0.2-0.7-0.8-0.4-1.3l0,0c0.2-0.5,0.8-0.7,1.3-0.4l0,0c0.5,0.2,0.7,0.8,0.4,1.3l0,0   c-0.2,0.3-0.5,0.5-0.9,0.5l0,0C677.7,222.3,677.5,222.2,677.4,222.2z"></path>
	<path class="st113" d="M427.5,218.1c-0.2-0.5,0-1.1,0.5-1.3l0,0c0.5-0.2,1.1,0,1.3,0.5l0,0c0.2,0.5,0,1.1-0.5,1.3l0,0   c-0.1,0.1-0.3,0.1-0.4,0.1l0,0C428.1,218.7,427.7,218.5,427.5,218.1z"></path>
	<path class="st113" d="M662.8,215.5L662.8,215.5L662.8,215.5c-0.5-0.2-0.7-0.8-0.5-1.3l0,0c0.2-0.5,0.8-0.7,1.3-0.5l0,0   c0.5,0.2,0.7,0.8,0.5,1.3l0,0c-0.2,0.4-0.5,0.6-0.9,0.6l0,0C663.1,215.5,663,215.5,662.8,215.5z"></path>
	<path class="st113" d="M442.4,211.8c-0.2-0.5,0-1.1,0.5-1.3l0,0c0.5-0.2,1.1,0,1.3,0.6l0,0c0.2,0.5,0,1.1-0.6,1.3l0,0   c-0.1,0-0.2,0.1-0.3,0.1l0,0C442.9,212.4,442.5,212.1,442.4,211.8z"></path>
	<path class="st113" d="M647.9,209.6c-0.5-0.2-0.8-0.7-0.6-1.2l0,0c0.2-0.5,0.7-0.8,1.2-0.6l0,0c0.5,0.2,0.8,0.7,0.6,1.2l0,0   c-0.1,0.4-0.5,0.6-0.9,0.6l0,0C648.1,209.6,648,209.6,647.9,209.6z"></path>
	<path class="st113" d="M457.5,206.2c-0.2-0.5,0.1-1.1,0.6-1.2l0,0c0.5-0.2,1.1,0.1,1.2,0.6l0,0c0.2,0.5-0.1,1.1-0.6,1.2l0,0   c-0.1,0-0.2,0-0.3,0l0,0C458,206.9,457.7,206.6,457.5,206.2z"></path>
	<path class="st113" d="M632.7,204.5c-0.5-0.1-0.8-0.7-0.6-1.2l0,0c0.2-0.5,0.7-0.8,1.2-0.6l0,0c0.5,0.2,0.8,0.7,0.6,1.2l0,0   c-0.1,0.4-0.5,0.7-0.9,0.7l0,0C632.9,204.6,632.8,204.6,632.7,204.5z"></path>
	<path class="st113" d="M473,201.5c-0.1-0.5,0.2-1,0.7-1.2l0,0c0.5-0.1,1,0.2,1.2,0.7l0,0c0.1,0.5-0.2,1-0.7,1.2l0,0   c-0.1,0-0.2,0-0.3,0l0,0C473.5,202.3,473.1,202,473,201.5z"></path>
	<path class="st113" d="M617.2,200.3c-0.5-0.1-0.8-0.6-0.7-1.2l0,0c0.1-0.5,0.6-0.8,1.2-0.7l0,0c0.5,0.1,0.8,0.6,0.7,1.2l0,0   c-0.1,0.4-0.5,0.7-0.9,0.7l0,0C617.3,200.4,617.3,200.3,617.2,200.3z"></path>
	<path class="st113" d="M488.6,197.7c-0.1-0.5,0.2-1,0.7-1.1l0,0c0.5-0.1,1,0.2,1.1,0.7l0,0c0.1,0.5-0.2,1-0.7,1.1l0,0   c-0.1,0-0.1,0-0.2,0l0,0C489.1,198.5,488.7,198.2,488.6,197.7z"></path>
	<path class="st113" d="M601.5,197c-0.5-0.1-0.9-0.6-0.8-1.1l0,0c0.1-0.5,0.6-0.9,1.1-0.8l0,0c0.5,0.1,0.9,0.6,0.8,1.1l0,0   c-0.1,0.5-0.5,0.8-1,0.8l0,0C601.6,197,601.5,197,601.5,197z"></path>
	<path class="st113" d="M504.5,194.8c-0.1-0.5,0.3-1,0.8-1.1l0,0c0.5-0.1,1,0.3,1.1,0.8l0,0c0.1,0.5-0.3,1-0.8,1.1l0,0   c0,0-0.1,0-0.1,0l0,0C505,195.6,504.5,195.3,504.5,194.8z"></path>
	<path class="st113" d="M585.6,194.6c-0.5-0.1-0.9-0.6-0.8-1.1l0,0c0.1-0.5,0.6-0.9,1.1-0.8l0,0c0.5,0.1,0.9,0.6,0.8,1.1l0,0   c-0.1,0.5-0.5,0.9-1,0.9l0,0C585.7,194.6,585.6,194.6,585.6,194.6z"></path>
	<path class="st113" d="M520.4,192.8c0-0.5,0.3-1,0.9-1.1l0,0c0.5,0,1,0.3,1.1,0.9l0,0c0,0.5-0.3,1-0.9,1l0,0c0,0-0.1,0-0.1,0l0,0   C520.9,193.7,520.5,193.3,520.4,192.8z"></path>
	<path class="st113" d="M569.6,193c-0.5,0-0.9-0.5-0.9-1l0,0c0-0.5,0.5-0.9,1-0.9l0,0c0.5,0,0.9,0.5,0.9,1l0,0   C570.6,192.6,570.2,193,569.6,193L569.6,193C569.7,193,569.7,193,569.6,193z"></path>
	<path class="st113" d="M536.5,191.6c0-0.5,0.4-1,0.9-1l0,0c0.5,0,1,0.4,1,0.9l0,0c0,0.5-0.4,1-0.9,1l0,0c0,0,0,0,0,0l0,0   C537,192.6,536.5,192.2,536.5,191.6z"></path>
	<path class="st113" d="M553.6,192.4C553.6,192.4,553.6,192.4,553.6,192.4L553.6,192.4c-0.5,0-1-0.4-0.9-1l0,0c0-0.5,0.4-1,1-1l0,0   c0.5,0,1,0.4,1,1l0,0C554.6,191.9,554.1,192.4,553.6,192.4L553.6,192.4C553.6,192.4,553.6,192.4,553.6,192.4z"></path>
</g>
</svg>
