<?xml version="1.0" encoding="UTF-8"?>
<!-- Generator: Adobe Illustrator 24.0.0, SVG Export Plug-In . SVG Version: 6.00 Build 0)  -->
<svg xmlns="http://www.w3.org/2000/svg" xmlns:xlink="http://www.w3.org/1999/xlink" version="1.1" id="Layer_1" x="0px" y="0px" viewBox="0 0 1122.9 841.9" style="enable-background:new 0 0 1122.9 841.9;" xml:space="preserve">
<style type="text/css">
	.st0{fill:#F6F4EE;}
	.st1{fill:none;stroke:#FCFBF9;stroke-width:26.9733;}
	.st2{fill:none;stroke:#FCFBF9;stroke-width:10.7889;}
	.st3{fill:none;stroke:#4663B3;stroke-width:0.3036;}
	.st4{fill:none;stroke:#A2B1D7;stroke-width:2.2916;stroke-linecap:round;stroke-miterlimit:10;stroke-dasharray:0,9.1664;}
	.st5{fill:none;}
	.st6{clip-path:url(#SVGID_2_);}
	.st7{fill:#4663AC;}
	.st8{fill:none;stroke:#A2B1D7;stroke-width:0.7112;stroke-miterlimit:10;}
	.st9{fill:#2C2439;}
	.st10{fill:#A2B1D7;}
	.st11{fill:none;stroke:#4663AC;stroke-width:2.8547;stroke-linecap:round;stroke-miterlimit:10;}
	.st12{opacity:0.5;fill:none;stroke:#FCFBF8;stroke-width:9.9872;stroke-miterlimit:10;}
	.st13{opacity:0.5;fill:none;stroke:#FCFBF8;stroke-width:21.2003;stroke-miterlimit:10;}
	.st14{opacity:0.5;fill:none;stroke:#FCFBF8;stroke-width:29.4871;stroke-miterlimit:10;}
	.st15{opacity:0.5;fill:none;stroke:#FCFBF8;stroke-width:31.1;stroke-miterlimit:10;}
	.st16{opacity:0.5;fill:none;stroke:#FCFBF8;stroke-width:2;stroke-miterlimit:10;}
	.st17{opacity:0.5;fill:none;stroke:#FCFBF8;stroke-width:5.0035;stroke-miterlimit:10;}
	.st18{fill:none;stroke:#4663AC;stroke-width:2.0624;stroke-miterlimit:10;}
	.st19{fill:#4663AC;stroke:#4663AC;stroke-width:1.2856;stroke-miterlimit:10;}
	.st20{fill:none;stroke:#4663AC;stroke-width:4.1248;stroke-linecap:round;stroke-miterlimit:10;}
	.st21{fill:none;stroke:#4663AC;stroke-width:4.1248;stroke-linecap:round;stroke-miterlimit:10;stroke-dasharray:0,13.9012;}
	.st22{fill:none;stroke:#4663AC;stroke-width:4.1248;stroke-linecap:round;stroke-miterlimit:10;stroke-dasharray:0,13.3352;}
	.st23{fill:none;stroke:#4663AC;stroke-width:4.1248;stroke-linecap:round;stroke-miterlimit:10;stroke-dasharray:0,14.8506;}
	.st24{fill:none;stroke:#4663AC;stroke-width:4.1248;stroke-linecap:round;stroke-miterlimit:10;stroke-dasharray:0,14.1173;}
	.st25{fill:none;stroke:#4663AC;stroke-width:4.1248;stroke-linecap:round;stroke-miterlimit:10;stroke-dasharray:0,13.3298;}
	.st26{fill:none;stroke:#4663AC;stroke-width:4.1248;stroke-linecap:round;stroke-miterlimit:10;stroke-dasharray:0,13.6347;}
	.st27{fill:none;stroke:#4663AC;stroke-width:4.1248;stroke-linecap:round;stroke-miterlimit:10;stroke-dasharray:0,13.1218;}
	.st28{fill:none;stroke:#4663AC;stroke-width:4.1248;stroke-linecap:round;stroke-miterlimit:10;stroke-dasharray:0,13.6058;}
	.st29{fill:none;stroke:#4663AC;stroke-width:4.1248;stroke-linecap:round;stroke-miterlimit:10;stroke-dasharray:0,12.5103;}
	.st30{fill:none;stroke:#4663AC;stroke-width:4.1248;stroke-linecap:round;stroke-miterlimit:10;stroke-dasharray:0,12.4486;}
	.st31{fill:none;stroke:#4663AC;stroke-width:4.1248;stroke-linecap:round;stroke-miterlimit:10;stroke-dasharray:0,12.7369;}
	.st32{fill:none;stroke:#4663AC;stroke-width:4.1248;stroke-linecap:round;stroke-miterlimit:10;stroke-dasharray:0,8.2697;}
	.st33{fill:none;stroke:#4663AC;stroke-width:4.1248;stroke-linecap:round;stroke-miterlimit:10;stroke-dasharray:0,14.5949;}
	.st34{fill:none;stroke:#4663AC;stroke-width:4.1248;stroke-linecap:round;stroke-miterlimit:10;stroke-dasharray:0,14.4411;}
	.st35{fill:none;stroke:#4663AC;stroke-width:4.1248;stroke-linecap:round;stroke-miterlimit:10;stroke-dasharray:0,14.1165;}
	.st36{fill:none;stroke:#4663AC;stroke-width:4.1248;stroke-linecap:round;stroke-miterlimit:10;stroke-dasharray:0,14.2433;}
	.st37{fill:none;stroke:#4663AC;stroke-width:4.1248;stroke-linecap:round;stroke-miterlimit:10;stroke-dasharray:0,14.7349;}
	.st38{fill:none;stroke:#4663AC;stroke-width:4.1248;stroke-linecap:round;stroke-miterlimit:10;stroke-dasharray:0,17.241;}
	.st39{fill:none;stroke:#4663AC;stroke-width:4.1248;stroke-linecap:round;stroke-miterlimit:10;stroke-dasharray:0,16.5551;}
	.st40{fill:none;stroke:#4663AC;stroke-width:4.1248;stroke-linecap:round;stroke-miterlimit:10;stroke-dasharray:0,10.2162;}
	.st41{fill:none;stroke:#4663AC;stroke-width:4.1248;stroke-linecap:round;stroke-miterlimit:10;stroke-dasharray:0,8.6088;}
	.st42{fill:none;stroke:#4663AC;stroke-width:4.1248;stroke-linecap:round;stroke-miterlimit:10;stroke-dasharray:0,10.1312;}
	.st43{fill:none;stroke:#4663AC;stroke-width:4.1248;stroke-linecap:round;stroke-miterlimit:10;stroke-dasharray:0,14.5361;}
	.st44{fill:none;stroke:#4663AC;stroke-width:4.1248;stroke-linecap:round;stroke-miterlimit:10;stroke-dasharray:0,13.343;}
	.st45{fill:none;stroke:#4663AC;stroke-width:4.1248;stroke-linecap:round;stroke-miterlimit:10;stroke-dasharray:0,13.3617;}
	.st46{fill:none;stroke:#4663AC;stroke-width:4.1248;stroke-linecap:round;stroke-miterlimit:10;stroke-dasharray:0,13.092;}
	.st47{fill:none;stroke:#4663AC;stroke-width:4.1248;stroke-linecap:round;stroke-miterlimit:10;stroke-dasharray:0,14.2728;}
	.st48{fill:none;stroke:#4663AC;stroke-width:4.1248;stroke-linecap:round;stroke-miterlimit:10;stroke-dasharray:0,15.2505;}
	.st49{fill:none;stroke:#4663AC;stroke-width:4.1248;stroke-linecap:round;stroke-miterlimit:10;stroke-dasharray:0,15.634;}
	.st50{fill:none;stroke:#4663AC;stroke-width:4.1248;stroke-linecap:round;stroke-miterlimit:10;stroke-dasharray:0,9.6001;}
	.st51{fill:none;stroke:#4663AC;stroke-width:4.1248;stroke-linecap:round;stroke-miterlimit:10;stroke-dasharray:0,8.0896;}
	.st52{fill:none;stroke:#4663AC;stroke-width:4.1248;stroke-linecap:round;stroke-miterlimit:10;stroke-dasharray:0,9.5202;}
	.st53{fill:none;stroke:#4663AC;stroke-width:4.1248;stroke-linecap:round;stroke-miterlimit:10;stroke-dasharray:0,13.5354;}
	.st54{fill:none;stroke:#4663AC;stroke-width:4.1248;stroke-linecap:round;stroke-miterlimit:10;stroke-dasharray:0,14.5588;}
	.st55{fill:none;stroke:#4663AC;stroke-width:4.1248;stroke-linecap:round;stroke-miterlimit:10;stroke-dasharray:0,14.2299;}
	.st56{fill:none;stroke:#4663AC;stroke-width:4.1248;stroke-linecap:round;stroke-miterlimit:10;stroke-dasharray:0,13.9516;}
	.st57{fill:none;stroke:#4663AC;stroke-width:4.1248;stroke-linecap:round;stroke-miterlimit:10;stroke-dasharray:0,15.1694;}
	.st58{fill:none;stroke:#4663AC;stroke-width:4.1248;stroke-linecap:round;stroke-miterlimit:10;stroke-dasharray:0,16.2293;}
	.st59{fill:none;stroke:#4663AC;stroke-width:4.1248;stroke-linecap:round;stroke-miterlimit:10;stroke-dasharray:0,16.6374;}
	.st60{fill:none;stroke:#4663AC;stroke-width:4.1248;stroke-linecap:round;stroke-miterlimit:10;stroke-dasharray:0,10.2163;}
	.st61{fill:none;stroke:#4663AC;stroke-width:4.1248;stroke-linecap:round;stroke-miterlimit:10;stroke-dasharray:0,9.5866;}
	.st62{fill:none;stroke:#4663AC;stroke-width:4.1248;stroke-linecap:round;stroke-miterlimit:10;stroke-dasharray:0,10.2883;}
	.st63{fill:none;stroke:#4663AC;stroke-width:4.1248;stroke-linecap:round;stroke-miterlimit:10;stroke-dasharray:0,15.0727;}
	.st64{fill:none;stroke:#4663AC;stroke-width:4.1248;stroke-linecap:round;stroke-miterlimit:10;stroke-dasharray:0,14.2562;}
	.st65{fill:none;stroke:#4663AC;stroke-width:4.1248;stroke-linecap:round;stroke-miterlimit:10;stroke-dasharray:0,13.3831;}
	.st66{fill:none;stroke:#4663AC;stroke-width:4.1248;stroke-linecap:round;stroke-miterlimit:10;stroke-dasharray:0,13.5675;}
	.st67{fill:none;stroke:#4663AC;stroke-width:4.1248;stroke-linecap:round;stroke-miterlimit:10;stroke-dasharray:0,13.184;}
	.st68{fill:none;stroke:#4663AC;stroke-width:4.1248;stroke-linecap:round;stroke-miterlimit:10;stroke-dasharray:0,13.6939;}
	.st69{fill:none;stroke:#4663AC;stroke-width:4.1248;stroke-linecap:round;stroke-miterlimit:10;stroke-dasharray:0,12.532;}
	.st70{fill:none;stroke:#4663AC;stroke-width:4.1248;stroke-linecap:round;stroke-miterlimit:10;stroke-dasharray:0,12.2375;}
	.st71{fill:none;stroke:#4663AC;stroke-width:4.1248;stroke-linecap:round;stroke-miterlimit:10;stroke-dasharray:0,12.4278;}
	.st72{fill:none;stroke:#4663AC;stroke-width:4.1248;stroke-linecap:round;stroke-miterlimit:10;stroke-dasharray:0,14.7027;}
	.st73{fill:none;stroke:#4663AC;stroke-width:4.1248;stroke-linecap:round;stroke-miterlimit:10;stroke-dasharray:0,14.2849;}
	.st74{fill:none;stroke:#4663AC;stroke-width:4.1248;stroke-linecap:round;stroke-miterlimit:10;stroke-dasharray:0,13.1788;}
	.st75{fill:none;stroke:#4663AC;stroke-width:4.1248;stroke-linecap:round;stroke-miterlimit:10;stroke-dasharray:0,12.374;}
	.st76{fill:none;stroke:#4663AC;stroke-width:4.1248;stroke-linecap:round;stroke-miterlimit:10;stroke-dasharray:0,14.5112;}
	.st77{fill:none;stroke:#4663AC;stroke-width:4.1248;stroke-linecap:round;stroke-miterlimit:10;stroke-dasharray:0,13.2846;}
	.st78{fill:none;stroke:#4663AC;stroke-width:4.1248;stroke-linecap:round;stroke-miterlimit:10;stroke-dasharray:0,14.9892;}
	.st79{fill:none;stroke:#4663AC;stroke-width:4.1248;stroke-linecap:round;stroke-miterlimit:10;stroke-dasharray:0,14.3053;}
	.st80{fill:none;stroke:#4663AC;stroke-width:4.1248;stroke-linecap:round;stroke-miterlimit:10;stroke-dasharray:0,14.2141;}
	.st81{fill:none;stroke:#4663AC;stroke-width:4.1248;stroke-linecap:round;stroke-miterlimit:10;stroke-dasharray:0,15.2513;}
	.st82{fill:none;stroke:#4663AC;stroke-width:4.1248;stroke-linecap:round;stroke-miterlimit:10;stroke-dasharray:0,13.8578;}
	.st83{fill:none;stroke:#4663AC;stroke-width:4.1248;stroke-linecap:round;stroke-miterlimit:10;stroke-dasharray:0,14.6575;}
	.st84{fill:none;stroke:#4663AC;stroke-width:4.1248;stroke-linecap:round;stroke-miterlimit:10;stroke-dasharray:0,13.8834;}
	.st85{fill:none;stroke:#4663AC;stroke-width:4.1248;stroke-linecap:round;stroke-miterlimit:10;stroke-dasharray:0,15.3969;}
	.st86{fill:none;stroke:#4663AC;stroke-width:4.1248;stroke-linecap:round;stroke-miterlimit:10;stroke-dasharray:0,13.8559;}
	.st87{fill:none;stroke:#4663AC;stroke-width:4.1248;stroke-linecap:round;stroke-miterlimit:10;stroke-dasharray:0,15.286;}
	.st88{fill:none;stroke:#4663AC;stroke-width:4.1248;stroke-linecap:round;stroke-miterlimit:10;stroke-dasharray:0,12.6256;}
	.st89{fill:none;stroke:#4663AC;stroke-width:4.1248;stroke-linecap:round;stroke-miterlimit:10;stroke-dasharray:0,12.5449;}
	.st90{fill:none;stroke:#4663AC;stroke-width:4.1248;stroke-linecap:round;stroke-miterlimit:10;stroke-dasharray:0,12.3046;}
	.st91{fill:none;stroke:#4663AC;stroke-width:4.1248;stroke-linecap:round;stroke-miterlimit:10;stroke-dasharray:0,12.9422;}
	.st92{fill:none;stroke:#4663AC;stroke-width:4.1248;stroke-linecap:round;stroke-miterlimit:10;stroke-dasharray:0,15.391;}
	.st93{fill:none;stroke:#4663AC;stroke-width:4.1248;stroke-linecap:round;stroke-miterlimit:10;stroke-dasharray:0,14.1258;}
	.st94{fill:none;stroke:#4663AC;stroke-width:4.1248;stroke-linecap:round;stroke-miterlimit:10;stroke-dasharray:0,13.2305;}
	.st95{fill:none;stroke:#4663AC;stroke-width:4.1248;stroke-linecap:round;stroke-miterlimit:10;stroke-dasharray:0,12.6286;}
	.st96{fill:none;stroke:#4663AC;stroke-width:4.1248;stroke-linecap:round;stroke-miterlimit:10;stroke-dasharray:0,15.6846;}
	.st97{fill:none;stroke:#4663AC;stroke-width:4.1248;stroke-linecap:round;stroke-miterlimit:10;stroke-dasharray:0,16.1203;}
	.st98{fill:none;stroke:#4663AC;stroke-width:4.1248;stroke-linecap:round;stroke-miterlimit:10;stroke-dasharray:0,16.3049;}
	.st99{fill:none;stroke:#4663AC;stroke-width:4.1248;stroke-linecap:round;stroke-miterlimit:10;stroke-dasharray:0,13.5127;}
	.st100{fill:none;stroke:#4663AC;stroke-width:4.1248;stroke-linecap:round;stroke-miterlimit:10;stroke-dasharray:0,11.183;}
	.st101{fill:none;stroke:#4663AC;stroke-width:4.1248;stroke-linecap:round;stroke-miterlimit:10;stroke-dasharray:0,11.1135;}
	.st102{fill:none;stroke:#4663AC;stroke-width:4.1248;stroke-linecap:round;stroke-miterlimit:10;stroke-dasharray:0,11.2835;}
	.st103{fill:none;stroke:#4663AC;stroke-width:4.1248;stroke-linecap:round;stroke-miterlimit:10;stroke-dasharray:0,12.6132;}
	.st104{fill:none;stroke:#4663AC;stroke-width:4.1248;stroke-linecap:round;stroke-miterlimit:10;stroke-dasharray:0,14.074;}
	.st105{fill:none;stroke:#4663AC;stroke-width:4.1248;stroke-linecap:round;stroke-miterlimit:10;stroke-dasharray:0,17.5337;}
	.st106{fill:none;stroke:#4663AC;stroke-width:4.1248;stroke-linecap:round;stroke-miterlimit:10;stroke-dasharray:0,14.9915;}
	.st107{fill:none;stroke:#4663AC;stroke-width:4.1248;stroke-linecap:round;stroke-miterlimit:10;stroke-dasharray:0,13.3774;}
	.st108{fill:none;stroke:#4663AC;stroke-width:4.1248;stroke-linecap:round;stroke-miterlimit:10;stroke-dasharray:0,15.7689;}
	.st109{fill:#FFFFFF;}
	.st110{fill:none;stroke:#4663B3;stroke-width:0.9533;}
	.st111{fill:#4663B3;}
	.st112{opacity:0.5;fill:none;stroke:#FCFBF9;stroke-width:20.226;}
	.st113{opacity:0.75;fill:none;stroke:#FCFBF9;stroke-width:20.226;}
	.st114{fill:none;stroke:#FCFBF9;stroke-width:20.226;}
</style>
<rect x="0" class="st0" width="1122.9" height="841.9"></rect>
<g>
	<path class="st1" d="M493.4,450c23.8-21.1,58.2-28.9,90.2-17.2c46.7,17,70.9,68.5,54.1,115.2c-16.8,46.6-68.3,70.7-115,53.8   c-46.7-17-72.7-63.4-55.9-110.1"></path>
	<line class="st2" x1="444" y1="483.4" x2="489.7" y2="499.8"></line>
	<path class="st1" d="M447.7,398.7c42.4-37.6,103.4-51.7,160.3-31.3c82.6,29.6,125.1,120.7,94.8,203.4   c-30.3,82.8-121.8,125.9-204.5,96.3s-127-115.6-96.7-198.4"></path>
	<line class="st2" x1="378.9" y1="460.4" x2="424.5" y2="477.1"></line>
	<path class="st3" d="M703.6,569.7c-0.3,0.9-0.6,1.8-0.9,2.7c-0.3,0.9-0.6,1.8-1,2.7 M603.8,367c0.9,0.3,1.7,0.6,2.6,0.9   c0.9,0.3,1.8,0.7,2.7,1 M446.5,398.2c0.7-0.6,1.4-1.2,2.1-1.8"></path>
</g>
<path class="st4" d="M447,397.8c1.1-0.9,2.1-1.9,3.2-2.8c67.5-56.9,168.4-48.2,225.2,19.3s48.2,168.4-19.3,225.2  s-168.4,48.2-225.2-19.3c-37.7-44.8-46.6-104.2-28.7-155.7"></path>
<g>
	<defs>
		<rect id="SVGID_1_" x="-1277" y="58" width="1122.9" height="780.4"></rect>
	</defs>
	<clipPath id="SVGID_2_">
		<use xlink:href="#SVGID_1_" style="overflow:visible;"></use>
	</clipPath>
	<g class="st6">
		<path class="st16" d="M-504.3,1038.2c-67,0-132.4-13.2-194.4-39.2c-6.3-2.6-12.5-5.4-18.7-8.3c-6.2,2.9-12.4,5.6-18.7,8.3    c-62,26-127.4,39.2-194.4,39.2c-67,0-132.4-13.2-194.4-39.2c-64.2-26.9-121.5-66.2-170.5-116.9c-48.8-50.4-86.6-109.4-112.4-175.2    c-24.8-63.2-37.3-129.9-37.3-198.1c0-68.2,12.6-134.9,37.3-198.1c25.8-65.8,63.6-124.8,112.4-175.2c49-50.7,106.3-90,170.5-116.9    c62-26,127.4-39.2,194.4-39.2S-798-7.4-736,18.6c6.3,2.6,12.5,5.4,18.7,8.3c6.2-2.9,12.4-5.6,18.7-8.3    c62-26,127.4-39.2,194.4-39.2s132.4,13.2,194.4,39.2c64.2,26.9,121.5,66.2,170.5,116.9C-90.6,185.9-52.8,244.9-27,310.7    c24.8,63.2,37.3,129.9,37.3,198.1C10.3,577-2.2,643.7-27,706.9c-25.8,65.8-63.6,124.8-112.4,175.2c-49,50.7-106.3,90-170.5,116.9    C-371.8,1025-437.2,1038.2-504.3,1038.2z"></path>
	</g>
</g>
<g>
	
		<rect x="628.2" y="354.5" transform="matrix(1 -1.848634e-03 1.848634e-03 1 -0.7246 1.2147)" class="st109" width="57.1" height="76.3"></rect>
	
		<rect x="628.2" y="354.5" transform="matrix(1 -1.848634e-03 1.848634e-03 1 -0.7246 1.2147)" class="st110" width="57.1" height="76.3"></rect>
	
		<rect x="627.7" y="374.9" transform="matrix(1 -1.848634e-03 1.848634e-03 1 -0.744 1.2148)" class="st111" width="58" height="56.2"></rect>
	<g>
		<path class="st109" d="M655.3,410.4l13.3,0l0,7.5l-23.8,0l0-2.2c0-11.9,14.7-13.9,14.7-20.3c0-1.7-0.9-2.9-2.8-2.9    c-1.8,0-2.8,1.4-3.3,3.9l-8.2-2.2c0.8-5.4,4.9-9.2,11.7-9.2c7.3,0,11.6,3.7,11.7,9.5C668.6,402.9,659.2,405.5,655.3,410.4z"></path>
	</g>
	<g>
		<path class="st111" d="M642,366.4l1.1-0.3c0.2,0.7,0.5,1.1,1.3,1.1c0.7,0,1.1-0.3,1.1-0.9c0-0.6-0.4-0.7-1.3-0.9    c-1.2-0.3-2.1-0.7-2.1-1.8c0-1.1,0.8-1.8,2.2-1.8c1.3,0,2.1,0.6,2.3,1.5l-1.1,0.3c-0.2-0.7-0.6-1-1.2-1c-0.6,0-1,0.3-1,0.8    c0,0.6,0.5,0.7,1.3,0.9c1.5,0.4,2.2,0.7,2.2,1.8c0,1.2-0.8,1.9-2.3,1.9C643,368,642.2,367.4,642,366.4z"></path>
		<path class="st111" d="M654.7,362.8l-1.8,0l0,5.1l-1.2,0l0-5.1l-1.8,0l0-1l4.8,0L654.7,362.8z"></path>
		<path class="st111" d="M662.6,366.9l0,1l-4.1,0l0-6l4.1,0l0,1l-2.9,0l0,1.5l2.7,0l0,0.9l-2.7,0l0,1.7L662.6,366.9z"></path>
		<path class="st111" d="M670.9,363.8c0,1.4-0.9,2-2.7,2l-0.7,0l0,2l-1.2,0l0-6l1.9,0C670,361.8,670.9,362.4,670.9,363.8z     M669.7,363.8c0-0.8-0.5-1.1-1.5-1.1l-0.7,0l0,2.2l0.7,0C669.2,364.9,669.7,364.6,669.7,363.8z"></path>
	</g>
</g>
<g>
	
		<rect x="665.8" y="532.5" transform="matrix(1 -1.848634e-03 1.848634e-03 1 -1.0537 1.2845)" class="st109" width="57.1" height="76.3"></rect>
	
		<rect x="665.8" y="532.5" transform="matrix(1 -1.848634e-03 1.848634e-03 1 -1.0537 1.2845)" class="st110" width="57.1" height="76.3"></rect>
	
		<rect x="665.3" y="553" transform="matrix(1 -1.848634e-03 1.848634e-03 1 -1.0731 1.2846)" class="st111" width="58" height="56.2"></rect>
	<g>
		<path class="st109" d="M681.9,587.7l8.3-2.2c0.3,2.3,1.6,3.6,3.7,3.6c2.1,0,3.4-1.3,3.4-3.2c0-2.5-1.9-3.1-4.1-3.1l-1.9,0l0-6.4    l1.4,0c2.4,0,4.4-0.6,4.4-3c0-1.9-1.3-2.8-3.1-2.8c-1.9,0-2.9,1.1-3.3,3.2l-8.2-2.3c0.7-4.5,4.3-8.5,11.5-8.5c6.8,0,12,3.4,12,9.3    c0,4.8-3.3,6.5-5.8,6.9l0,0.2c2.6,0.3,6.5,2.1,6.5,7.4c0,6.3-5.3,9.8-12.6,9.8C686.4,596.6,682.6,592.9,681.9,587.7z"></path>
	</g>
	<g>
		<path class="st111" d="M679.6,544.4l1.1-0.3c0.2,0.7,0.5,1.1,1.3,1.1c0.7,0,1.1-0.3,1.1-0.9c0-0.6-0.4-0.7-1.3-0.9    c-1.2-0.3-2.1-0.7-2.1-1.8c0-1.1,0.8-1.8,2.2-1.8c1.3,0,2.1,0.6,2.3,1.5l-1.1,0.3c-0.2-0.7-0.6-1-1.2-1c-0.6,0-1,0.3-1,0.8    c0,0.6,0.5,0.7,1.3,0.9c1.5,0.4,2.2,0.7,2.2,1.8c0,1.2-0.8,1.9-2.3,1.9C680.6,546.1,679.7,545.5,679.6,544.4z"></path>
		<path class="st111" d="M692.3,540.9l-1.8,0l0,5.1l-1.2,0l0-5.1l-1.8,0l0-1l4.8,0L692.3,540.9z"></path>
		<path class="st111" d="M700.1,544.9l0,1l-4.1,0l0-6l4.1,0l0,1l-2.9,0l0,1.5l2.7,0l0,0.9l-2.7,0l0,1.7L700.1,544.9z"></path>
		<path class="st111" d="M708.5,541.9c0,1.4-0.9,2-2.7,2l-0.7,0l0,2l-1.2,0l0-6l1.9,0C707.6,539.9,708.5,540.5,708.5,541.9z     M707.3,541.9c0-0.8-0.5-1.1-1.5-1.1l-0.7,0l0,2.2l0.7,0C706.8,543,707.3,542.7,707.3,541.9z"></path>
	</g>
</g>
<g>
	
		<rect x="523.4" y="641.2" transform="matrix(1 -1.848634e-03 1.848634e-03 1 -1.2549 1.0216)" class="st109" width="57.1" height="76.3"></rect>
	
		<rect x="523.4" y="641.2" transform="matrix(1 -1.848634e-03 1.848634e-03 1 -1.2549 1.0216)" class="st110" width="57.1" height="76.3"></rect>
	
		<rect x="523" y="661.7" transform="matrix(1 -1.848634e-03 1.848634e-03 1 -1.2743 1.0216)" class="st111" width="58" height="56.2"></rect>
	<g>
		<path class="st109" d="M565.6,698.5l-3.9,0l0,6.2l-8.4,0l0-6.2l-14.7,0l0-6.1l13.8-20l9.3,0l0,19.7l3.9,0L565.6,698.5z     M553.3,692.1l0-9.8l-6.8,9.9L553.3,692.1z"></path>
	</g>
	<g>
		<path class="st111" d="M537.2,653.1l1.1-0.3c0.2,0.7,0.5,1.1,1.3,1.1c0.7,0,1.1-0.3,1.1-0.9c0-0.6-0.4-0.7-1.3-0.9    c-1.2-0.3-2.1-0.7-2.1-1.8c0-1.1,0.8-1.8,2.2-1.8c1.3,0,2.1,0.6,2.3,1.5l-1.1,0.3c-0.2-0.7-0.6-1-1.2-1c-0.6,0-1,0.3-1,0.8    c0,0.6,0.5,0.7,1.3,0.9c1.5,0.4,2.2,0.7,2.2,1.8c0,1.2-0.8,1.9-2.3,1.9C538.2,654.8,537.4,654.2,537.2,653.1z"></path>
		<path class="st111" d="M550,649.6l-1.8,0l0,5.1l-1.2,0l0-5.1l-1.8,0l0-1l4.8,0L550,649.6z"></path>
		<path class="st111" d="M557.8,653.6l0,1l-4.1,0l0-6l4.1,0l0,1l-2.9,0l0,1.5l2.7,0l0,0.9l-2.7,0l0,1.7L557.8,653.6z"></path>
		<path class="st111" d="M566.2,650.6c0,1.4-0.9,2-2.7,2l-0.7,0l0,2l-1.2,0l0-6l1.9,0C565.3,648.6,566.2,649.2,566.2,650.6z     M565,650.6c0-0.8-0.5-1.1-1.5-1.1l-0.7,0l0,2.2l0.7,0C564.4,651.7,565,651.4,565,650.6z"></path>
	</g>
</g>
<g>
	
		<rect x="366.9" y="532.5" transform="matrix(1 -1.848634e-03 1.848634e-03 1 -1.0543 0.7319)" class="st109" width="57.1" height="76.3"></rect>
	
		<rect x="366.9" y="532.5" transform="matrix(1 -1.848634e-03 1.848634e-03 1 -1.0543 0.7319)" class="st110" width="57.1" height="76.3"></rect>
	
		<rect x="366.4" y="553" transform="matrix(1 -1.848634e-03 1.848634e-03 1 -1.0736 0.732)" class="st111" width="58" height="56.2"></rect>
	<g>
		<path class="st109" d="M407.6,585.1c0,7.9-5.3,11.5-12.5,11.5c-7.4,0-11.2-3.6-11.8-8.4l8.3-2.2c0.4,2,1.7,3.1,3.5,3.1    c1.9,0,3.3-1.2,3.3-3.8c0-2.6-1.4-3.8-3.2-3.8c-1.5,0-2.5,0.8-3.1,2.1l-7.5-2.4l1.3-17.4l19.5,0l0,7.4l-12.7,0l-0.5,6.6l0.1,0    c1.1-1.8,3.1-3.1,6.1-3.1C403.7,574.6,407.6,578.5,407.6,585.1z"></path>
	</g>
	<g>
		<path class="st111" d="M380.7,544.4l1.1-0.3c0.2,0.7,0.5,1.1,1.3,1.1c0.7,0,1.1-0.3,1.1-0.9c0-0.6-0.4-0.7-1.3-0.9    c-1.2-0.3-2.1-0.7-2.1-1.8c0-1.1,0.8-1.8,2.2-1.8c1.3,0,2.1,0.6,2.3,1.5l-1.1,0.3c-0.2-0.7-0.6-1-1.2-1c-0.6,0-1,0.3-1,0.8    c0,0.6,0.5,0.7,1.3,0.9c1.5,0.4,2.2,0.7,2.2,1.8c0,1.2-0.8,1.9-2.3,1.9C381.7,546.1,380.8,545.5,380.7,544.4z"></path>
		<path class="st111" d="M393.4,540.9l-1.8,0l0,5.1l-1.2,0l0-5.1l-1.8,0l0-1l4.8,0L393.4,540.9z"></path>
		<path class="st111" d="M401.2,544.9l0,1l-4.1,0l0-6l4.1,0l0,1l-2.9,0l0,1.5l2.7,0l0,0.9l-2.7,0l0,1.7L401.2,544.9z"></path>
		<path class="st111" d="M409.6,541.9c0,1.4-0.9,2-2.7,2l-0.7,0l0,2l-1.2,0l0-6l1.9,0C408.7,539.9,409.6,540.5,409.6,541.9z     M408.4,541.9c0-0.8-0.5-1.1-1.5-1.1l-0.7,0l0,2.2l0.7,0C407.9,543,408.4,542.7,408.4,541.9z"></path>
	</g>
</g>
<g>
	
		<rect x="420" y="354.5" transform="matrix(1 -1.848634e-03 1.848634e-03 1 -0.725 0.8299)" class="st109" width="57.1" height="76.3"></rect>
	
		<rect x="420" y="354.5" transform="matrix(1 -1.848634e-03 1.848634e-03 1 -0.725 0.8299)" class="st110" width="57.1" height="76.3"></rect>
	
		<rect x="419.6" y="374.9" transform="matrix(1 -1.848634e-03 1.848634e-03 1 -0.7444 0.83)" class="st111" width="58" height="56.2"></rect>
	<g>
		<path class="st109" d="M455.2,385.6l0.1,32.3l-8.9,0l0-22.3l-6.9,4.5l0-9.1l8.4-5.4L455.2,385.6z"></path>
	</g>
	<g>
		<path class="st111" d="M433.8,366.4l1.1-0.3c0.2,0.7,0.5,1.1,1.3,1.1c0.7,0,1.1-0.3,1.1-0.9c0-0.6-0.4-0.7-1.3-0.9    c-1.2-0.3-2.1-0.7-2.1-1.8c0-1.1,0.8-1.8,2.2-1.8c1.3,0,2.1,0.6,2.3,1.5l-1.1,0.3c-0.2-0.7-0.6-1-1.2-1c-0.6,0-1,0.3-1,0.8    c0,0.6,0.5,0.7,1.3,0.9c1.5,0.4,2.2,0.7,2.2,1.8c0,1.2-0.8,1.9-2.3,1.9C434.9,368,434,367.4,433.8,366.4z"></path>
		<path class="st111" d="M446.6,362.8l-1.8,0l0,5.1l-1.2,0l0-5.1l-1.8,0l0-1l4.8,0L446.6,362.8z"></path>
		<path class="st111" d="M454.4,366.9l0,1l-4.1,0l0-6l4.1,0l0,1l-2.9,0l0,1.5l2.7,0l0,0.9l-2.7,0l0,1.7L454.4,366.9z"></path>
		<path class="st111" d="M462.8,363.8c0,1.4-0.9,2-2.7,2l-0.7,0l0,2l-1.2,0l0-6l1.9,0C461.9,361.8,462.8,362.4,462.8,363.8z     M461.6,363.8c0-0.8-0.5-1.1-1.5-1.1l-0.7,0l0,2.2l0.7,0C461.1,364.9,461.6,364.6,461.6,363.8z"></path>
	</g>
</g>
<path class="st4" d="M493.4,450c0.6-0.5,1.2-1,1.8-1.6c38-32,94.8-27.1,126.8,10.9c32,38,27.1,94.8-10.9,126.8  c-38,32-94.8,27.1-126.8-10.9c-21.2-25.2-26.2-58.6-16.1-87.7"></path>
<path class="st112" d="M847,869.8c-47.3,39.7-101.1,69-159.9,87.1c-56.7,17.4-115.4,23.7-174.7,18.6c-59.2-5.1-116-21.4-168.9-48.3  c-54.8-27.9-102.8-66.1-142.6-113.3c-39.8-47.3-69.3-101.1-87.5-160c-17.5-56.7-23.9-115.6-18.8-174.8  c5.1-59.3,21.3-116.2,48.2-169.1c27.9-54.9,66.1-103,113.4-142.8l0.6-0.5c47.4-39.7,101.2-69.1,160-87.2  c56.7-17.4,115.4-23.7,174.7-18.6c59.2,5.1,116,21.4,168.9,48.3c54.8,27.9,102.8,66.1,142.6,113.3c39.8,47.3,69.3,101.1,87.5,160  c17.5,56.7,23.9,115.5,18.8,174.8c-5.1,59.3-21.3,116.2-48.2,169.1c-27.9,54.9-66.1,103-113.4,142.8l-0.5,0.4L847,869.8z"></path>
<path class="st112" d="M792.4,804.7c-38.6,32.4-82.4,56.2-130.3,71c-46.2,14.2-94.1,19.3-142.3,15.1c-48.3-4.2-94.6-17.4-137.6-39.3  c-44.7-22.7-83.7-53.8-116.2-92.3c-32.5-38.6-56.5-82.4-71.3-130.3c-14.3-46.2-19.4-94.1-15.3-142.5c4.1-48.3,17.4-94.7,39.3-137.8  c22.7-44.7,53.8-83.8,92.4-116.3l0.5-0.4c38.6-32.4,82.5-56.3,130.3-71c46.2-14.2,94.1-19.3,142.3-15.1  c48.3,4.2,94.6,17.4,137.6,39.3c44.6,22.7,83.7,53.8,116.2,92.3c32.5,38.6,56.5,82.4,71.3,130.3c14.3,46.2,19.4,94.1,15.3,142.5  c-4.1,48.3-17.4,94.7-39.3,137.8c-22.7,44.7-53.8,83.8-92.4,116.3L792.4,804.7L792.4,804.7z"></path>
<path class="st113" d="M743.3,746.3c-30.7,25.8-65.6,44.8-103.7,56.5c-36.8,11.3-74.9,15.4-113.3,12c-38.4-3.3-75.3-13.9-109.6-31.3  c-35.5-18.1-66.6-42.8-92.5-73.5c-25.9-30.7-45-65.6-56.7-103.7c-11.4-36.8-15.5-74.9-12.2-113.4c3.3-38.5,13.8-75.4,31.3-109.7  c18.1-35.6,42.8-66.7,73.6-92.6l0.4-0.4c30.7-25.8,65.6-44.8,103.7-56.5c36.8-11.3,74.9-15.4,113.3-12  c38.4,3.3,75.3,13.9,109.6,31.3c35.5,18.1,66.6,42.8,92.5,73.5c25.9,30.7,45,65.6,56.7,103.7c11.4,36.8,15.5,74.9,12.2,113.4  c-3.3,38.5-13.8,75.4-31.3,109.7c-18.1,35.6-42.8,66.7-73.6,92.6L743.3,746.3z"></path>
<circle class="st114" cx="552" cy="518.2" r="221.4"></circle>
<g>
	<path class="st9" d="M695.9,685.8c-0.3-0.3-0.2-0.8,0.1-1l0,0c0.3-0.3,0.8-0.2,1,0.1l0,0c0.3,0.3,0.2,0.8-0.1,1l0,0c0,0,0,0,0,0   l0,0C696.6,686.1,696.1,686.1,695.9,685.8z"></path>
	<path class="st9" d="M687.4,693.7c-0.3,0.2-0.8,0.2-1-0.1l0,0c-0.2-0.3-0.2-0.8,0.1-1l0,0c0.3-0.2,0.8-0.2,1,0.1l0,0   C687.7,693,687.7,693.4,687.4,693.7L687.4,693.7C687.4,693.7,687.4,693.7,687.4,693.7z"></path>
	<path class="st9" d="M705,677.6c-0.3-0.3-0.3-0.8,0-1l0,0c0.3-0.3,0.8-0.3,1,0l0,0c0.3,0.3,0.3,0.8,0,1l0,0c0,0,0,0,0,0l0,0   C705.7,677.9,705.2,677.9,705,677.6z"></path>
	<path class="st9" d="M677.4,700.9c-0.3,0.2-0.8,0.1-1-0.2l0,0c-0.2-0.3-0.1-0.8,0.2-1l0,0c0.3-0.2,0.8-0.1,1,0.2l0,0   C677.8,700.2,677.7,700.6,677.4,700.9L677.4,700.9C677.4,700.9,677.4,700.9,677.4,700.9z"></path>
	<path class="st9" d="M713.6,668.8c-0.3-0.3-0.3-0.7,0-1l0,0l0,0l0,0c0.3-0.3,0.7-0.3,1,0l0,0c0.3,0.3,0.3,0.7,0,1l0,0   c0,0-0.1,0-0.1,0.1l0,0C714.3,669.1,713.9,669.1,713.6,668.8z"></path>
	<path class="st9" d="M667.1,707.6L667.1,707.6c-0.3,0.2-0.8,0.1-1-0.2l0,0c-0.2-0.3-0.1-0.8,0.2-1l0,0l0,0l0,0   c0.3-0.2,0.8-0.1,1,0.2l0,0C667.5,706.9,667.4,707.3,667.1,707.6L667.1,707.6C667.1,707.6,667.1,707.6,667.1,707.6z"></path>
	<path class="st9" d="M721.7,659.6c-0.3-0.3-0.4-0.7-0.1-1l0,0c0.3-0.3,0.7-0.4,1-0.1l0,0c0.3,0.3,0.4,0.7,0.1,1l0,0   c0,0-0.1,0.1-0.1,0.1l0,0C722.4,659.9,722,659.9,721.7,659.6z"></path>
	<path class="st9" d="M656.4,713.7L656.4,713.7c-0.4,0.2-0.8,0.1-1-0.3l0,0c-0.2-0.4-0.1-0.8,0.3-1l0,0c0.4-0.2,0.8-0.1,1,0.3l0,0   c0.2,0.3,0.1,0.7-0.2,0.9l0,0C656.5,713.7,656.4,713.7,656.4,713.7z"></path>
	<path class="st9" d="M729.3,650c-0.3-0.2-0.4-0.7-0.2-1l0,0c0.2-0.3,0.7-0.4,1-0.2l0,0c0.3,0.2,0.4,0.7,0.2,1l0,0   c0,0-0.1,0.1-0.1,0.1l0,0C730,650.2,729.6,650.2,729.3,650z"></path>
	<path class="st9" d="M645.4,719.2L645.4,719.2c-0.4,0.2-0.8,0-1-0.4l0,0c-0.2-0.4,0-0.8,0.4-1l0,0c0.4-0.2,0.8,0,1,0.4l0,0   c0.1,0.3,0.1,0.7-0.2,0.9l0,0C645.5,719.2,645.4,719.2,645.4,719.2z"></path>
	<path class="st9" d="M736.4,640c-0.3-0.2-0.4-0.7-0.2-1l0,0c0.2-0.3,0.7-0.4,1-0.2l0,0c0.3,0.2,0.4,0.7,0.2,1l0,0   c0,0.1-0.1,0.1-0.1,0.2l0,0C737,640.1,736.7,640.2,736.4,640z"></path>
	<path class="st9" d="M634,724.1c-0.4,0.2-0.8,0-1-0.4l0,0c-0.1-0.4,0-0.8,0.4-1l0,0l0,0l0,0c0.4-0.2,0.8,0,1,0.4l0,0   c0.1,0.3,0,0.6-0.2,0.8l0,0C634.2,724,634.1,724.1,634,724.1z"></path>
	<path class="st9" d="M742.9,629.5c-0.4-0.2-0.5-0.7-0.3-1l0,0c0.2-0.4,0.7-0.5,1-0.3l0,0c0.4,0.2,0.5,0.7,0.3,1l0,0   c0,0.1-0.1,0.1-0.2,0.2l0,0C743.5,629.7,743.2,629.7,742.9,629.5z"></path>
	<path class="st9" d="M622.5,728.3c-0.4,0.1-0.8-0.1-0.9-0.5l0,0c-0.1-0.4,0.1-0.8,0.5-0.9l0,0c0.4-0.1,0.8,0.1,0.9,0.5l0,0   c0.1,0.3,0,0.6-0.2,0.8l0,0C622.6,728.3,622.6,728.3,622.5,728.3z"></path>
	<path class="st9" d="M748.8,618.8c-0.4-0.2-0.5-0.6-0.3-1l0,0l0,0l0,0c0.2-0.4,0.6-0.5,1-0.3l0,0c0.4,0.2,0.5,0.6,0.3,1l0,0   c0,0.1-0.1,0.2-0.2,0.2l0,0C749.4,618.8,749,618.9,748.8,618.8z"></path>
	<path class="st9" d="M610.7,731.9c-0.4,0.1-0.8-0.1-0.9-0.5l0,0c-0.1-0.4,0.1-0.8,0.5-0.9l0,0c0.4-0.1,0.8,0.1,0.9,0.5l0,0   c0.1,0.3,0,0.6-0.2,0.8l0,0C610.9,731.8,610.8,731.9,610.7,731.9z"></path>
	<path class="st9" d="M754.1,607.7c-0.4-0.2-0.5-0.6-0.4-1l0,0l0,0l0,0c0.2-0.4,0.6-0.5,1-0.4l0,0c0.4,0.2,0.5,0.6,0.4,1l0,0   c0,0.1-0.1,0.2-0.2,0.3l0,0C754.6,607.7,754.3,607.8,754.1,607.7z"></path>
	<path class="st9" d="M598.8,734.8c-0.4,0.1-0.8-0.2-0.9-0.6l0,0c-0.1-0.4,0.2-0.8,0.6-0.9l0,0c0,0,0,0,0,0l0,0   c0.4-0.1,0.8,0.2,0.9,0.6l0,0c0.1,0.3,0,0.6-0.2,0.7l0,0C599,734.7,598.9,734.8,598.8,734.8z"></path>
	<path class="st9" d="M758.7,596.3c-0.4-0.1-0.6-0.6-0.4-0.9l0,0c0.1-0.4,0.6-0.6,0.9-0.4l0,0c0.4,0.1,0.6,0.6,0.4,0.9l0,0   c0,0.1-0.1,0.2-0.2,0.3l0,0C759.2,596.3,759,596.4,758.7,596.3z"></path>
	<path class="st9" d="M586.7,737.1c-0.4,0.1-0.8-0.2-0.8-0.6l0,0c-0.1-0.4,0.2-0.8,0.6-0.8l0,0c0.4-0.1,0.8,0.2,0.8,0.6l0,0   c0,0.3-0.1,0.5-0.3,0.7l0,0C586.9,737,586.8,737,586.7,737.1z"></path>
	<path class="st9" d="M762.7,584.7c-0.4-0.1-0.6-0.5-0.5-0.9l0,0c0.1-0.4,0.5-0.6,0.9-0.5l0,0c0.4,0.1,0.6,0.5,0.5,0.9l0,0   c0,0.1-0.1,0.3-0.2,0.3l0,0C763.2,584.7,763,584.7,762.7,584.7z"></path>
	<path class="st9" d="M574.5,738.6c-0.4,0-0.8-0.3-0.8-0.7l0,0c0-0.4,0.3-0.8,0.7-0.8l0,0c0.4,0,0.8,0.3,0.8,0.7l0,0   c0,0.2-0.1,0.5-0.3,0.6l0,0C574.7,738.6,574.6,738.6,574.5,738.6z"></path>
	<path class="st9" d="M766.1,572.8c-0.4-0.1-0.6-0.5-0.5-0.9l0,0c0.1-0.4,0.5-0.6,0.9-0.5l0,0c0.4,0.1,0.6,0.5,0.5,0.9l0,0   c0,0.2-0.1,0.3-0.2,0.4l0,0C766.6,572.8,766.3,572.9,766.1,572.8z"></path>
	<path class="st9" d="M562.2,739.5c-0.4,0-0.8-0.3-0.8-0.7l0,0c0-0.4,0.3-0.7,0.7-0.8l0,0c0.4,0,0.7,0.3,0.8,0.7l0,0   c0,0.2-0.1,0.5-0.3,0.6l0,0C562.5,739.5,562.4,739.5,562.2,739.5z"></path>
	<path class="st9" d="M768.8,560.9c-0.4-0.1-0.7-0.5-0.6-0.9l0,0c0.1-0.4,0.5-0.7,0.9-0.6l0,0c0.4,0.1,0.7,0.5,0.6,0.9l0,0   c0,0.2-0.1,0.3-0.2,0.4l0,0C769.2,560.8,769,560.9,768.8,560.9z"></path>
	<path class="st9" d="M549.9,739.7L549.9,739.7c-0.4,0-0.7-0.3-0.7-0.7l0,0c0-0.4,0.3-0.7,0.7-0.7l0,0c0,0,0,0,0,0l0,0   c0.4,0,0.7,0.3,0.7,0.7l0,0c0,0.2-0.1,0.4-0.3,0.6l0,0C550.2,739.7,550.1,739.7,549.9,739.7z"></path>
	<path class="st9" d="M770.8,548.8c-0.4-0.1-0.7-0.4-0.6-0.8l0,0c0.1-0.4,0.4-0.7,0.8-0.6l0,0c0.4,0.1,0.7,0.4,0.6,0.8l0,0   c0,0.2-0.1,0.4-0.3,0.5l0,0C771.2,548.7,771,548.8,770.8,548.8z"></path>
	<path class="st9" d="M537.6,739.3c-0.4,0-0.7-0.4-0.7-0.8l0,0c0-0.4,0.4-0.7,0.8-0.7l0,0l0,0l0,0c0.4,0,0.7,0.4,0.7,0.8l0,0   c0,0.2-0.1,0.4-0.3,0.5l0,0C538,739.2,537.8,739.3,537.6,739.3z"></path>
	<path class="st9" d="M772.2,536.6c-0.4,0-0.7-0.4-0.7-0.8l0,0c0-0.4,0.4-0.7,0.8-0.7l0,0c0.4,0,0.7,0.4,0.7,0.8l0,0   c0,0.2-0.1,0.4-0.3,0.5l0,0C772.6,536.5,772.4,536.6,772.2,536.6z"></path>
	<path class="st9" d="M525.3,738.1c-0.4,0-0.7-0.4-0.6-0.8l0,0c0-0.4,0.4-0.7,0.8-0.6l0,0c0.4,0,0.7,0.4,0.6,0.8l0,0   c0,0.2-0.1,0.4-0.3,0.5l0,0C525.7,738.1,525.5,738.1,525.3,738.1z"></path>
	<path class="st9" d="M772.9,524.3c-0.4,0-0.7-0.3-0.7-0.8l0,0c0-0.4,0.3-0.7,0.8-0.7l0,0c0.4,0,0.7,0.3,0.7,0.8l0,0   c0,0.2-0.1,0.4-0.3,0.5l0,0C773.2,524.2,773.1,524.3,772.9,524.3z"></path>
	<path class="st9" d="M513.1,736.3c-0.4-0.1-0.7-0.5-0.6-0.9l0,0c0.1-0.4,0.5-0.7,0.9-0.6l0,0c0.4,0.1,0.7,0.5,0.6,0.9l0,0   c0,0.2-0.1,0.3-0.3,0.4l0,0C513.6,736.3,513.3,736.3,513.1,736.3z"></path>
	<path class="st9" d="M772.9,512c-0.4,0-0.7-0.3-0.8-0.7l0,0c0-0.4,0.3-0.7,0.7-0.8l0,0c0.4,0,0.7,0.3,0.8,0.7l0,0   c0,0.2-0.1,0.4-0.3,0.6l0,0C773.2,511.9,773,512,772.9,512z"></path>
	<path class="st9" d="M501.1,733.8c-0.4-0.1-0.6-0.5-0.5-0.9l0,0c0.1-0.4,0.5-0.6,0.9-0.6l0,0l0,0l0,0c0.4,0.1,0.6,0.5,0.5,0.9l0,0   c0,0.2-0.1,0.3-0.2,0.4l0,0C501.5,733.8,501.3,733.9,501.1,733.8z"></path>
	<path class="st9" d="M772.2,499.8c-0.4,0-0.8-0.3-0.8-0.7l0,0c0-0.4,0.3-0.8,0.7-0.8l0,0c0.4,0,0.8,0.3,0.8,0.7l0,0   c0,0.3-0.1,0.5-0.3,0.6l0,0C772.5,499.7,772.4,499.8,772.2,499.8z"></path>
	<path class="st9" d="M489.1,730.6c-0.4-0.1-0.6-0.5-0.5-0.9l0,0c0.1-0.4,0.5-0.6,0.9-0.5l0,0c0.4,0.1,0.6,0.5,0.5,0.9l0,0   c0,0.1-0.1,0.3-0.2,0.4l0,0C489.6,730.6,489.4,730.7,489.1,730.6z"></path>
	<path class="st9" d="M770.9,487.6c-0.4,0.1-0.8-0.2-0.8-0.6l0,0c-0.1-0.4,0.2-0.8,0.6-0.8l0,0c0.4-0.1,0.8,0.2,0.8,0.6l0,0   c0,0.3-0.1,0.5-0.3,0.7l0,0C771.1,487.5,771,487.6,770.9,487.6z"></path>
	<path class="st9" d="M477.4,726.8L477.4,726.8c-0.4-0.1-0.6-0.6-0.4-0.9l0,0c0.1-0.4,0.6-0.6,0.9-0.4l0,0c0.4,0.1,0.6,0.6,0.4,0.9   l0,0c0,0.1-0.1,0.2-0.2,0.3l0,0C477.9,726.9,477.7,726.9,477.4,726.8z"></path>
	<path class="st9" d="M768.8,475.5c-0.4,0.1-0.8-0.2-0.9-0.6l0,0c-0.1-0.4,0.2-0.8,0.6-0.9l0,0c0.4-0.1,0.8,0.2,0.9,0.6l0,0   c0.1,0.3,0,0.5-0.2,0.7l0,0C769.1,475.4,769,475.5,768.8,475.5z"></path>
	<path class="st9" d="M465.9,722.4L465.9,722.4c-0.4-0.2-0.6-0.6-0.4-1l0,0c0.2-0.4,0.6-0.5,1-0.4l0,0l0,0l0,0   c0.4,0.2,0.6,0.6,0.4,1l0,0c-0.1,0.1-0.1,0.2-0.2,0.3l0,0C466.5,722.4,466.2,722.5,465.9,722.4z"></path>
	<path class="st9" d="M766.1,463.5c-0.4,0.1-0.8-0.1-0.9-0.5l0,0c-0.1-0.4,0.1-0.8,0.5-0.9l0,0c0.4-0.1,0.8,0.1,0.9,0.5l0,0   c0.1,0.3,0,0.6-0.2,0.7l0,0C766.3,463.4,766.2,463.5,766.1,463.5z"></path>
	<path class="st9" d="M454.7,717.3L454.7,717.3c-0.4-0.2-0.5-0.6-0.3-1l0,0c0.2-0.4,0.6-0.5,1-0.3l0,0c0,0,0,0,0,0l0,0   c0.4,0.2,0.5,0.6,0.3,1l0,0c0,0.1-0.1,0.2-0.2,0.2l0,0C455.3,717.3,455,717.4,454.7,717.3z"></path>
	<path class="st9" d="M762.8,451.7c-0.4,0.1-0.8-0.1-0.9-0.5l0,0l0,0l0,0c-0.1-0.4,0.1-0.8,0.5-0.9l0,0c0.4-0.1,0.8,0.1,0.9,0.5l0,0   c0.1,0.3,0,0.6-0.2,0.8l0,0C763,451.7,762.9,451.7,762.8,451.7z"></path>
	<path class="st9" d="M443.8,711.5c-0.4-0.2-0.5-0.6-0.3-1l0,0c0.2-0.3,0.6-0.5,1-0.3l0,0c0,0,0,0,0,0l0,0c0.4,0.2,0.5,0.6,0.3,1   l0,0c0,0.1-0.1,0.1-0.2,0.2l0,0C444.4,711.6,444,711.7,443.8,711.5z"></path>
	<path class="st9" d="M758.8,440.1c-0.4,0.1-0.8,0-1-0.4l0,0c-0.1-0.4,0-0.8,0.4-1l0,0c0.4-0.1,0.8,0,1,0.4l0,0   c0.1,0.3,0,0.6-0.2,0.8l0,0C758.9,440.1,758.9,440.1,758.8,440.1z"></path>
	<path class="st9" d="M433.2,705.2c-0.3-0.2-0.4-0.7-0.2-1l0,0c0.2-0.3,0.7-0.4,1-0.2l0,0c0.3,0.2,0.4,0.7,0.2,1l0,0   c0,0.1-0.1,0.1-0.1,0.2l0,0C433.8,705.3,433.4,705.4,433.2,705.2z"></path>
	<path class="st9" d="M754.1,428.8c-0.4,0.2-0.8,0-1-0.4l0,0c-0.2-0.4,0-0.8,0.4-1l0,0c0.4-0.2,0.8,0,1,0.4l0,0   c0.1,0.3,0,0.7-0.2,0.9l0,0C754.2,428.7,754.2,428.8,754.1,428.8z"></path>
	<path class="st9" d="M423,698.3c-0.3-0.2-0.4-0.7-0.2-1l0,0c0.2-0.3,0.7-0.4,1-0.2l0,0c0.3,0.2,0.4,0.7,0.2,1l0,0   c0,0.1-0.1,0.1-0.1,0.1l0,0C423.6,698.5,423.2,698.5,423,698.3z"></path>
	<path class="st9" d="M748.8,417.7c-0.4,0.2-0.8,0-1-0.3l0,0l0,0l0,0c-0.2-0.4,0-0.8,0.3-1l0,0c0.4-0.2,0.8,0,1,0.3l0,0   c0.2,0.3,0.1,0.7-0.2,0.9l0,0C748.9,417.6,748.9,417.7,748.8,417.7z"></path>
	<path class="st9" d="M413.2,690.8L413.2,690.8c-0.3-0.3-0.4-0.7-0.1-1l0,0c0.3-0.3,0.7-0.4,1-0.1l0,0c0.3,0.3,0.4,0.7,0.1,1l0,0   c0,0-0.1,0.1-0.1,0.1l0,0C413.8,691.1,413.4,691.1,413.2,690.8z"></path>
	<path class="st9" d="M742.9,406.9c-0.3,0.2-0.8,0.1-1-0.3l0,0l0,0l0,0c-0.2-0.4-0.1-0.8,0.3-1l0,0c0.3-0.2,0.8-0.1,1,0.3l0,0   c0.2,0.3,0.1,0.7-0.2,0.9l0,0C743,406.9,743,406.9,742.9,406.9z"></path>
	<path class="st9" d="M403.8,682.8c-0.3-0.3-0.3-0.7-0.1-1l0,0c0.3-0.3,0.7-0.3,1-0.1l0,0l0,0l0,0c0.3,0.3,0.3,0.7,0.1,1l0,0   c0,0,0,0-0.1,0.1l0,0C404.5,683.1,404.1,683.1,403.8,682.8z"></path>
	<path class="st9" d="M736.5,396.5c-0.3,0.2-0.8,0.1-1-0.2l0,0c-0.2-0.3-0.1-0.8,0.2-1l0,0c0.3-0.2,0.8-0.1,1,0.2l0,0   C736.9,395.8,736.8,396.2,736.5,396.5L736.5,396.5C736.5,396.5,736.5,396.5,736.5,396.5z"></path>
	<path class="st9" d="M394.9,674.3c-0.3-0.3-0.3-0.8,0-1l0,0c0.3-0.3,0.8-0.3,1,0l0,0c0.3,0.3,0.3,0.8,0,1l0,0c0,0,0,0-0.1,0l0,0   C395.6,674.6,395.2,674.6,394.9,674.3z"></path>
	<path class="st9" d="M729.4,386.5c-0.3,0.2-0.8,0.2-1-0.2l0,0l0,0l0,0c-0.2-0.3-0.2-0.8,0.1-1l0,0c0.3-0.2,0.8-0.2,1,0.1l0,0   C729.8,385.8,729.7,386.2,729.4,386.5L729.4,386.5C729.4,386.4,729.4,386.5,729.4,386.5z"></path>
	<path class="st9" d="M386.5,665.4L386.5,665.4c-0.3-0.3-0.3-0.8,0.1-1l0,0c0.3-0.3,0.8-0.2,1,0.1l0,0c0.3,0.3,0.2,0.8-0.1,1l0,0   c0,0,0,0,0,0l0,0C387.2,665.7,386.7,665.7,386.5,665.4z"></path>
	<path class="st9" d="M656.1,455c-0.2,0.2-0.6,0.2-0.8-0.1l0,0c0-0.1-0.1-0.1-0.1-0.2l0,0c-0.1,0-0.1-0.1-0.2-0.1l0,0l0,0l0,0   c-0.2-0.2-0.2-0.6,0.1-0.8l0,0c0.2-0.2,0.6-0.2,0.8,0.1l0,0c0.1,0.1,0.1,0.1,0.1,0.2l0,0c0.1,0,0.1,0.1,0.2,0.1l0,0   C656.4,454.5,656.4,454.9,656.1,455L656.1,455L656.1,455z"></path>
	<path class="st9" d="M379.6,656.1c-0.3,0.2-0.8,0.2-1-0.1l0,0c-0.3-0.3-0.2-0.8,0.1-1l0,0c0.3-0.3,0.8-0.2,1,0.1l0,0l0,0l0,0   C379.9,655.3,379.9,655.8,379.6,656.1L379.6,656.1C379.6,656,379.6,656,379.6,656.1z"></path>
	<path class="st9" d="M712.3,367.2C712.3,367.2,712.3,367.2,712.3,367.2L712.3,367.2c-0.3-0.3-0.3-0.8,0-1l0,0c0.3-0.3,0.8-0.3,1,0   l0,0c0.3,0.3,0.3,0.8,0,1l0,0c0,0,0,0,0,0l0,0C713,367.5,712.6,367.5,712.3,367.2z"></path>
	<path class="st9" d="M720.5,376.1C720.5,376.1,720.5,376.1,720.5,376.1L720.5,376.1c-0.3-0.3-0.3-0.8,0-1l0,0c0.3-0.3,0.8-0.3,1,0   l0,0c0.3,0.3,0.3,0.8,0,1l0,0c0,0,0,0,0,0l0,0C721.2,376.4,720.7,376.4,720.5,376.1z"></path>
	<path class="st9" d="M372.2,646.3c-0.3,0.2-0.8,0.2-1-0.2l0,0c-0.2-0.3-0.2-0.8,0.2-1l0,0c0.3-0.2,0.8-0.2,1,0.2l0,0   C372.6,645.5,372.5,646,372.2,646.3L372.2,646.3C372.2,646.2,372.2,646.2,372.2,646.3z"></path>
	<path class="st9" d="M703.7,358.5C703.7,358.5,703.7,358.5,703.7,358.5L703.7,358.5c-0.3-0.3-0.3-0.8,0-1l0,0c0.3-0.3,0.7-0.3,1,0   l0,0c0.3,0.3,0.3,0.7,0,1l0,0c0,0,0,0-0.1,0.1l0,0C704.4,358.8,704,358.8,703.7,358.5z"></path>
	<path class="st9" d="M365.3,636.1c-0.3,0.2-0.8,0.1-1-0.2l0,0c-0.2-0.3-0.1-0.8,0.2-1l0,0c0.3-0.2,0.8-0.1,1,0.2l0,0   C365.8,635.4,365.7,635.8,365.3,636.1L365.3,636.1C365.4,636,365.3,636.1,365.3,636.1z"></path>
	<path class="st9" d="M694.6,350.3c-0.3-0.3-0.4-0.7-0.1-1l0,0c0.3-0.3,0.7-0.3,1-0.1l0,0c0.3,0.3,0.3,0.7,0.1,1l0,0   c0,0-0.1,0.1-0.1,0.1l0,0C695.3,350.6,694.9,350.6,694.6,350.3z"></path>
	<path class="st9" d="M359,625.5c-0.4,0.2-0.8,0.1-1-0.3l0,0c-0.2-0.4-0.1-0.8,0.3-1l0,0c0.4-0.2,0.8-0.1,1,0.3l0,0l0,0l0,0   c0.2,0.3,0.1,0.7-0.2,0.9l0,0C359.1,625.5,359.1,625.5,359,625.5z"></path>
	<path class="st9" d="M685.1,342.7L685.1,342.7L685.1,342.7c-0.3-0.2-0.4-0.7-0.1-1l0,0c0.2-0.3,0.7-0.4,1-0.1l0,0   c0.3,0.2,0.4,0.7,0.1,1l0,0c0,0-0.1,0.1-0.1,0.1l0,0C685.7,342.9,685.3,342.9,685.1,342.7z"></path>
	<path class="st9" d="M353.4,614.6c-0.4,0.2-0.8,0-1-0.3l0,0c-0.2-0.4,0-0.8,0.3-1l0,0c0.4-0.2,0.8,0,1,0.3l0,0   c0.2,0.3,0.1,0.7-0.2,0.9l0,0C353.5,614.6,353.4,614.6,353.4,614.6z"></path>
	<path class="st9" d="M675.1,335.6C675.1,335.6,675.1,335.6,675.1,335.6L675.1,335.6c-0.3-0.2-0.4-0.7-0.2-1l0,0   c0.2-0.3,0.7-0.4,1-0.2l0,0c0.3,0.2,0.4,0.7,0.2,1l0,0c0,0.1-0.1,0.1-0.1,0.2l0,0C675.8,335.7,675.4,335.7,675.1,335.6z"></path>
	<path class="st9" d="M348.3,603.5c-0.4,0.2-0.8,0-1-0.4l0,0c-0.2-0.4,0-0.8,0.4-1l0,0c0.4-0.2,0.8,0,1,0.4l0,0   c0.1,0.3,0,0.6-0.2,0.8l0,0C348.4,603.4,348.4,603.4,348.3,603.5z"></path>
	<path class="st9" d="M664.8,329C664.8,329,664.8,329,664.8,329L664.8,329c-0.4-0.2-0.5-0.7-0.3-1l0,0c0.2-0.4,0.7-0.5,1-0.3l0,0   c0.3,0.2,0.5,0.7,0.3,1l0,0c0,0.1-0.1,0.1-0.2,0.2l0,0C665.4,329.1,665.1,329.2,664.8,329z"></path>
	<path class="st9" d="M343.9,592c-0.4,0.1-0.8-0.1-0.9-0.5l0,0c-0.1-0.4,0.1-0.8,0.5-0.9l0,0c0.4-0.1,0.8,0.1,0.9,0.5l0,0l0,0l0,0   c0.1,0.3,0,0.6-0.2,0.8l0,0C344,591.9,344,592,343.9,592z"></path>
	<path class="st9" d="M654.1,323c-0.4-0.2-0.5-0.6-0.3-1l0,0c0.2-0.4,0.6-0.5,1-0.3l0,0c0.4,0.2,0.5,0.6,0.3,1l0,0   c0,0.1-0.1,0.2-0.2,0.2l0,0C654.7,323.1,654.4,323.2,654.1,323z"></path>
	<path class="st9" d="M340.1,580.3c-0.4,0.1-0.8-0.1-0.9-0.5l0,0c-0.1-0.4,0.1-0.8,0.5-0.9l0,0c0.4-0.1,0.8,0.1,0.9,0.5l0,0   c0.1,0.3,0,0.6-0.2,0.8l0,0C340.3,580.3,340.2,580.3,340.1,580.3z"></path>
	<path class="st9" d="M643.1,317.7C643.1,317.7,643.1,317.7,643.1,317.7L643.1,317.7c-0.4-0.2-0.5-0.6-0.4-1l0,0   c0.2-0.4,0.6-0.5,1-0.4l0,0c0.4,0.2,0.5,0.6,0.4,1l0,0c0,0.1-0.1,0.2-0.2,0.2l0,0C643.6,317.7,643.3,317.8,643.1,317.7z"></path>
	<path class="st9" d="M337,568.5c-0.4,0.1-0.8-0.2-0.9-0.6l0,0c-0.1-0.4,0.2-0.8,0.6-0.9l0,0c0.4-0.1,0.8,0.2,0.9,0.6l0,0   c0.1,0.3,0,0.6-0.3,0.7l0,0C337.2,568.4,337.1,568.5,337,568.5z"></path>
	<path class="st9" d="M631.8,312.9c-0.4-0.1-0.6-0.6-0.4-1l0,0c0.1-0.4,0.6-0.6,1-0.4l0,0c0.4,0.2,0.6,0.6,0.4,1l0,0   c0,0.1-0.1,0.2-0.2,0.3l0,0C632.3,313,632,313,631.8,312.9z"></path>
	<path class="st9" d="M334.5,556.5c-0.4,0.1-0.8-0.2-0.8-0.6l0,0c-0.1-0.4,0.2-0.8,0.6-0.9l0,0c0.4-0.1,0.8,0.2,0.8,0.6l0,0   c0,0.3-0.1,0.5-0.3,0.7l0,0C334.8,556.4,334.7,556.5,334.5,556.5z"></path>
	<path class="st9" d="M620.2,308.8c-0.4-0.1-0.6-0.5-0.5-0.9l0,0c0.1-0.4,0.5-0.6,0.9-0.5l0,0c0.4,0.1,0.6,0.5,0.5,0.9l0,0   c0,0.1-0.1,0.2-0.2,0.3l0,0C620.8,308.8,620.5,308.9,620.2,308.8z"></path>
	<path class="st9" d="M332.8,544.3c-0.4,0-0.8-0.2-0.8-0.6l0,0c-0.1-0.4,0.2-0.8,0.6-0.8l0,0c0.4,0,0.8,0.2,0.8,0.7l0,0l0,0l0,0   c0,0.3-0.1,0.5-0.3,0.6l0,0C333.1,544.3,332.9,544.3,332.8,544.3z"></path>
	<path class="st9" d="M608.5,305.4c-0.4-0.1-0.6-0.5-0.5-0.9l0,0c0.1-0.4,0.5-0.6,0.9-0.5l0,0c0.4,0.1,0.6,0.5,0.5,0.9l0,0   c0,0.2-0.1,0.3-0.2,0.4l0,0C609,305.4,608.7,305.4,608.5,305.4z"></path>
	<path class="st9" d="M331.7,532.1c-0.4,0-0.8-0.3-0.8-0.7l0,0c0-0.4,0.3-0.8,0.7-0.8l0,0c0.4,0,0.8,0.3,0.8,0.7l0,0   c0,0.2-0.1,0.5-0.3,0.6l0,0C332,532.1,331.8,532.1,331.7,532.1z"></path>
	<path class="st9" d="M596.6,302.6c-0.4-0.1-0.7-0.5-0.6-0.9l0,0c0.1-0.4,0.5-0.7,0.9-0.6l0,0c0.4,0.1,0.7,0.5,0.6,0.9l0,0   c0,0.2-0.1,0.3-0.2,0.4l0,0C597,302.5,596.8,302.6,596.6,302.6z"></path>
	<path class="st9" d="M331.2,519.9c-0.4,0-0.7-0.3-0.7-0.7l0,0c0-0.4,0.3-0.7,0.7-0.7l0,0c0.4,0,0.7,0.3,0.7,0.7l0,0l0,0l0,0   c0,0.2-0.1,0.4-0.3,0.6l0,0C331.6,519.8,331.4,519.9,331.2,519.9z"></path>
	<path class="st9" d="M584.5,300.4C584.5,300.4,584.5,300.4,584.5,300.4L584.5,300.4c-0.4-0.1-0.7-0.4-0.6-0.8l0,0   c0.1-0.4,0.4-0.7,0.8-0.6l0,0c0.4,0.1,0.7,0.4,0.6,0.8l0,0c0,0.2-0.1,0.3-0.3,0.5l0,0C584.9,300.4,584.7,300.5,584.5,300.4z"></path>
	<path class="st9" d="M331.5,507.6c-0.4,0-0.7-0.4-0.7-0.8l0,0c0-0.4,0.4-0.7,0.8-0.7l0,0c0.4,0,0.7,0.4,0.7,0.8l0,0l0,0l0,0   c0,0.2-0.1,0.4-0.3,0.5l0,0C331.9,507.5,331.7,507.6,331.5,507.6z"></path>
	<path class="st9" d="M572.4,299c-0.4,0-0.7-0.4-0.7-0.8l0,0c0-0.4,0.4-0.7,0.8-0.7l0,0c0.4,0,0.7,0.4,0.7,0.8l0,0   c0,0.2-0.1,0.4-0.3,0.5l0,0C572.8,298.9,572.6,299,572.4,299z"></path>
	<path class="st9" d="M332.4,495.4c-0.4,0-0.7-0.4-0.7-0.8l0,0c0-0.4,0.4-0.7,0.8-0.7l0,0c0.4,0,0.7,0.4,0.7,0.8l0,0   c0,0.2-0.1,0.4-0.3,0.5l0,0C332.8,495.3,332.6,495.4,332.4,495.4z"></path>
	<path class="st9" d="M560.2,298.2c-0.4,0-0.7-0.4-0.7-0.8l0,0c0-0.4,0.4-0.7,0.8-0.7l0,0c0.4,0,0.7,0.4,0.7,0.8l0,0   c0,0.2-0.1,0.4-0.3,0.5l0,0C560.5,298.1,560.4,298.2,560.2,298.2z"></path>
	<path class="st9" d="M334,483.2c-0.4-0.1-0.7-0.4-0.6-0.8l0,0c0.1-0.4,0.4-0.7,0.8-0.6l0,0c0.4,0.1,0.7,0.4,0.6,0.8l0,0   c0,0.2-0.1,0.3-0.3,0.4l0,0C334.4,483.2,334.2,483.2,334,483.2z"></path>
	<path class="st9" d="M547.9,298.1L547.9,298.1L547.9,298.1c-0.4,0-0.7-0.3-0.7-0.7l0,0c0-0.4,0.3-0.7,0.7-0.7l0,0   c0.4,0,0.7,0.3,0.7,0.7l0,0c0,0.2-0.1,0.4-0.3,0.6l0,0C548.3,298,548.1,298.1,547.9,298.1z"></path>
	<path class="st9" d="M336.3,471.1c-0.4-0.1-0.6-0.5-0.6-0.9l0,0c0.1-0.4,0.5-0.6,0.9-0.6l0,0c0.4,0.1,0.6,0.5,0.6,0.9l0,0   c0,0.2-0.1,0.3-0.2,0.4l0,0C336.8,471.1,336.5,471.2,336.3,471.1z"></path>
	<path class="st9" d="M535.7,298.6c-0.4,0-0.8-0.3-0.8-0.7l0,0c0-0.4,0.3-0.8,0.7-0.8l0,0c0.4,0,0.8,0.3,0.8,0.7l0,0   c0,0.2-0.1,0.5-0.3,0.6l0,0C536,298.6,535.9,298.6,535.7,298.6z"></path>
	<path class="st9" d="M339.2,459.2c-0.4-0.1-0.6-0.5-0.5-0.9l0,0c0.1-0.4,0.5-0.6,0.9-0.5l0,0c0.4,0.1,0.6,0.5,0.5,0.9l0,0   c0,0.1-0.1,0.3-0.2,0.4l0,0C339.7,459.2,339.5,459.3,339.2,459.2z"></path>
	<path class="st9" d="M523.5,299.9c-0.4,0.1-0.8-0.2-0.8-0.6l0,0c-0.1-0.4,0.2-0.8,0.6-0.8l0,0c0.4-0.1,0.8,0.2,0.8,0.6l0,0   c0,0.3-0.1,0.5-0.3,0.7l0,0C523.8,299.8,523.7,299.8,523.5,299.9z"></path>
	<path class="st9" d="M342.8,447.4c-0.4-0.1-0.6-0.6-0.5-0.9l0,0c0.1-0.4,0.6-0.6,0.9-0.5l0,0c0.4,0.1,0.6,0.6,0.5,0.9l0,0   c0,0.1-0.1,0.2-0.2,0.3l0,0C343.3,447.5,343.1,447.5,342.8,447.4z"></path>
	<path class="st9" d="M511.5,301.8C511.5,301.8,511.5,301.8,511.5,301.8L511.5,301.8c-0.4,0.1-0.8-0.2-0.9-0.6l0,0   c-0.1-0.4,0.2-0.8,0.6-0.9l0,0c0.4-0.1,0.8,0.2,0.9,0.6l0,0c0,0.3-0.1,0.5-0.3,0.7l0,0C511.7,301.7,511.6,301.7,511.5,301.8z"></path>
	<path class="st9" d="M347.1,435.9c-0.4-0.1-0.6-0.6-0.4-1l0,0c0.2-0.4,0.6-0.6,1-0.4l0,0c0.4,0.2,0.6,0.6,0.4,1l0,0l0,0l0,0   c0,0.1-0.1,0.2-0.2,0.3l0,0C347.6,436,347.3,436,347.1,435.9z"></path>
	<path class="st9" d="M499.5,304.3c-0.4,0.1-0.8-0.1-0.9-0.5l0,0c-0.1-0.4,0.1-0.8,0.5-0.9l0,0c0.4-0.1,0.8,0.1,0.9,0.5l0,0   c0.1,0.3,0,0.6-0.2,0.7l0,0C499.7,304.3,499.6,304.3,499.5,304.3z"></path>
	<path class="st9" d="M352,424.6c-0.4-0.2-0.5-0.6-0.3-1l0,0c0.2-0.4,0.6-0.5,1-0.4l0,0c0.4,0.2,0.5,0.6,0.4,1l0,0   c-0.1,0.1-0.1,0.2-0.2,0.2l0,0C352.5,424.7,352.2,424.8,352,424.6z"></path>
	<path class="st9" d="M487.8,307.6L487.8,307.6L487.8,307.6c-0.4,0.1-0.8-0.1-0.9-0.5l0,0c-0.1-0.4,0.1-0.8,0.5-0.9l0,0   c0.4-0.1,0.8,0.1,0.9,0.5l0,0c0.1,0.3,0,0.6-0.2,0.8l0,0C487.9,307.5,487.9,307.6,487.8,307.6z"></path>
	<path class="st9" d="M357.5,413.6c-0.4-0.2-0.5-0.6-0.3-1l0,0c0.2-0.4,0.6-0.5,1-0.3l0,0c0.4,0.2,0.5,0.6,0.3,1l0,0   c0,0.1-0.1,0.1-0.2,0.2l0,0C358.1,413.7,357.7,413.8,357.5,413.6z"></path>
	<path class="st9" d="M476.2,311.5c-0.4,0.1-0.8-0.1-0.9-0.4l0,0c-0.1-0.4,0.1-0.8,0.4-0.9l0,0c0.4-0.1,0.8,0.1,0.9,0.4l0,0   c0.1,0.3,0,0.6-0.2,0.8l0,0C476.3,311.4,476.3,311.4,476.2,311.5z"></path>
	<path class="st9" d="M363.6,403c-0.3-0.2-0.4-0.7-0.2-1l0,0c0.2-0.3,0.7-0.5,1-0.2l0,0c0.4,0.2,0.5,0.7,0.2,1l0,0   c0,0.1-0.1,0.1-0.2,0.2l0,0C364.2,403.1,363.9,403.1,363.6,403z"></path>
	<path class="st9" d="M464.8,316c-0.4,0.2-0.8,0-1-0.4l0,0c-0.2-0.4,0-0.8,0.4-1l0,0c0.4-0.2,0.8,0,1,0.4l0,0c0.1,0.3,0,0.7-0.2,0.9   l0,0C464.9,315.9,464.9,316,464.8,316z"></path>
	<path class="st9" d="M370.3,392.7c-0.3-0.2-0.4-0.7-0.2-1l0,0c0.2-0.3,0.7-0.4,1-0.2l0,0c0.3,0.2,0.4,0.7,0.2,1l0,0   c0,0-0.1,0.1-0.1,0.1l0,0C370.9,392.8,370.6,392.9,370.3,392.7z"></path>
	<path class="st9" d="M453.7,321.2c-0.4,0.2-0.8,0-1-0.3l0,0c-0.2-0.4,0-0.8,0.3-1l0,0c0.4-0.2,0.8,0,1,0.3l0,0   c0.2,0.3,0.1,0.7-0.2,0.9l0,0C453.8,321.1,453.8,321.1,453.7,321.2z"></path>
	<path class="st9" d="M377.5,382.8c-0.3-0.2-0.4-0.7-0.1-1l0,0c0.2-0.3,0.7-0.4,1-0.1l0,0c0.3,0.2,0.4,0.7,0.1,1l0,0   c0,0-0.1,0.1-0.1,0.1l0,0C378.2,383,377.8,383,377.5,382.8z"></path>
	<path class="st9" d="M442.9,327c-0.4,0.2-0.8,0.1-1-0.3l0,0c-0.2-0.4-0.1-0.8,0.3-1l0,0c0.4-0.2,0.8-0.1,1,0.3l0,0   c0.2,0.3,0.1,0.7-0.2,0.9l0,0C443,326.9,443,326.9,442.9,327z"></path>
	<path class="st9" d="M385.3,373.3c-0.3-0.3-0.3-0.7-0.1-1l0,0c0.3-0.3,0.7-0.3,1-0.1l0,0c0.3,0.3,0.3,0.7,0.1,1l0,0   c0,0-0.1,0.1-0.1,0.1l0,0C386,373.5,385.6,373.5,385.3,373.3z"></path>
	<path class="st9" d="M432.5,333.3c-0.3,0.2-0.8,0.1-1-0.2l0,0c-0.2-0.3-0.1-0.8,0.2-1l0,0c0.3-0.2,0.8-0.1,1,0.2l0,0   C432.9,332.6,432.9,333,432.5,333.3L432.5,333.3C432.6,333.3,432.5,333.3,432.5,333.3z"></path>
	<path class="st9" d="M393.6,364.3c-0.3-0.3-0.3-0.7,0-1l0,0c0.3-0.3,0.7-0.3,1,0l0,0c0.3,0.3,0.3,0.7,0,1l0,0c0,0,0,0-0.1,0.1l0,0   C394.4,364.5,393.9,364.5,393.6,364.3z"></path>
	<path class="st9" d="M422.4,340.3c-0.3,0.2-0.8,0.2-1-0.2l0,0c-0.2-0.3-0.2-0.8,0.2-1l0,0c0.3-0.2,0.8-0.2,1,0.2l0,0   C422.8,339.6,422.8,340,422.4,340.3L422.4,340.3C422.5,340.2,422.4,340.2,422.4,340.3z"></path>
	<path class="st9" d="M402.5,355.7c-0.3-0.3-0.2-0.8,0-1l0,0c0.3-0.3,0.8-0.3,1,0l0,0c0.3,0.3,0.3,0.8,0,1l0,0c0,0,0,0,0,0l0,0   C403.2,356,402.7,356,402.5,355.7z"></path>
	<path class="st9" d="M412.7,347.8C412.7,347.8,412.7,347.8,412.7,347.8L412.7,347.8c-0.3,0.3-0.8,0.2-1-0.1l0,0   c-0.3-0.3-0.2-0.8,0.1-1l0,0c0.3-0.3,0.8-0.2,1,0.1l0,0C413.1,347,413.1,347.5,412.7,347.8L412.7,347.8   C412.8,347.7,412.8,347.7,412.7,347.8z"></path>
</g>
</svg>
