<?xml version="1.0" encoding="UTF-8"?>
<!-- Generator: Adobe Illustrator 24.0.0, SVG Export Plug-In . SVG Version: 6.00 Build 0)  -->
<svg xmlns="http://www.w3.org/2000/svg" xmlns:xlink="http://www.w3.org/1999/xlink" version="1.1" id="Layer_1" x="0px" y="0px" viewBox="0 0 1122.9 841.9" style="enable-background:new 0 0 1122.9 841.9;" xml:space="preserve">
<style type="text/css">
	.st0{fill:#F6F4EE;}
	.st1{fill:none;stroke:#FCFBF9;stroke-width:28.2685;}
	.st2{fill:none;stroke:#FCFBF9;stroke-width:11.3069;}
	.st3{fill:none;stroke:#4663B3;stroke-width:0.3182;}
	.st4{fill:none;stroke:#A2B1D7;stroke-width:2.4016;stroke-linecap:round;stroke-miterlimit:10;stroke-dasharray:0,9.6066;}
	.st5{fill:none;stroke:#FCFBF8;stroke-width:2.1566;stroke-linejoin:round;stroke-miterlimit:10;}
	.st6{fill:none;}
	.st7{clip-path:url(#SVGID_2_);}
	.st8{fill:#4663AC;}
	.st9{fill:none;stroke:#A2B1D7;stroke-width:0.7112;stroke-miterlimit:10;}
	.st10{fill:#2C2439;}
	.st11{fill:#A2B1D7;}
	.st12{fill:none;stroke:#4663AC;stroke-width:2.8547;stroke-linecap:round;stroke-miterlimit:10;}
	.st13{opacity:0.5;fill:none;stroke:#FCFBF8;stroke-width:9.9872;stroke-miterlimit:10;}
	.st14{opacity:0.5;fill:none;stroke:#FCFBF8;stroke-width:21.2003;stroke-miterlimit:10;}
	.st15{opacity:0.5;fill:none;stroke:#FCFBF8;stroke-width:29.4871;stroke-miterlimit:10;}
	.st16{opacity:0.5;fill:none;stroke:#FCFBF8;stroke-width:31.1;stroke-miterlimit:10;}
	.st17{opacity:0.5;fill:none;stroke:#FCFBF8;stroke-width:2;stroke-miterlimit:10;}
	.st18{opacity:0.5;fill:none;stroke:#FCFBF8;stroke-width:5.0035;stroke-miterlimit:10;}
	.st19{fill:none;stroke:#4663AC;stroke-width:1.9105;stroke-miterlimit:10;}
	.st20{fill:#4663AC;stroke:#4663AC;stroke-width:1.1909;stroke-miterlimit:10;}
	.st21{fill:none;stroke:#4663AC;stroke-width:3.821;stroke-linecap:round;stroke-miterlimit:10;}
	.st22{fill:none;stroke:#4663AC;stroke-width:3.821;stroke-linecap:round;stroke-miterlimit:10;stroke-dasharray:0,12.8774;}
	.st23{fill:none;stroke:#4663AC;stroke-width:3.821;stroke-linecap:round;stroke-miterlimit:10;stroke-dasharray:0,12.3531;}
	.st24{fill:none;stroke:#4663AC;stroke-width:3.821;stroke-linecap:round;stroke-miterlimit:10;stroke-dasharray:0,13.7569;}
	.st25{fill:none;stroke:#4663AC;stroke-width:3.821;stroke-linecap:round;stroke-miterlimit:10;stroke-dasharray:0,13.0776;}
	.st26{fill:none;stroke:#4663AC;stroke-width:3.821;stroke-linecap:round;stroke-miterlimit:10;stroke-dasharray:0,12.3481;}
	.st27{fill:none;stroke:#4663AC;stroke-width:3.821;stroke-linecap:round;stroke-miterlimit:10;stroke-dasharray:0,12.6305;}
	.st28{fill:none;stroke:#4663AC;stroke-width:3.821;stroke-linecap:round;stroke-miterlimit:10;stroke-dasharray:0,12.1554;}
	.st29{fill:none;stroke:#4663AC;stroke-width:3.821;stroke-linecap:round;stroke-miterlimit:10;stroke-dasharray:0,12.6038;}
	.st30{fill:none;stroke:#4663AC;stroke-width:3.821;stroke-linecap:round;stroke-miterlimit:10;stroke-dasharray:0,11.5889;}
	.st31{fill:none;stroke:#4663AC;stroke-width:3.821;stroke-linecap:round;stroke-miterlimit:10;stroke-dasharray:0,11.5318;}
	.st32{fill:none;stroke:#4663AC;stroke-width:3.821;stroke-linecap:round;stroke-miterlimit:10;stroke-dasharray:0,11.7989;}
	.st33{fill:none;stroke:#4663AC;stroke-width:3.821;stroke-linecap:round;stroke-miterlimit:10;stroke-dasharray:0,7.6606;}
	.st34{fill:none;stroke:#4663AC;stroke-width:3.821;stroke-linecap:round;stroke-miterlimit:10;stroke-dasharray:0,13.52;}
	.st35{fill:none;stroke:#4663AC;stroke-width:3.821;stroke-linecap:round;stroke-miterlimit:10;stroke-dasharray:0,13.3775;}
	.st36{fill:none;stroke:#4663AC;stroke-width:3.821;stroke-linecap:round;stroke-miterlimit:10;stroke-dasharray:0,13.0768;}
	.st37{fill:none;stroke:#4663AC;stroke-width:3.821;stroke-linecap:round;stroke-miterlimit:10;stroke-dasharray:0,13.1943;}
	.st38{fill:none;stroke:#4663AC;stroke-width:3.821;stroke-linecap:round;stroke-miterlimit:10;stroke-dasharray:0,13.6497;}
	.st39{fill:none;stroke:#4663AC;stroke-width:3.821;stroke-linecap:round;stroke-miterlimit:10;stroke-dasharray:0,15.9712;}
	.st40{fill:none;stroke:#4663AC;stroke-width:3.821;stroke-linecap:round;stroke-miterlimit:10;stroke-dasharray:0,15.3359;}
	.st41{fill:none;stroke:#4663AC;stroke-width:3.821;stroke-linecap:round;stroke-miterlimit:10;stroke-dasharray:0,9.4638;}
	.st42{fill:none;stroke:#4663AC;stroke-width:3.821;stroke-linecap:round;stroke-miterlimit:10;stroke-dasharray:0,7.9748;}
	.st43{fill:none;stroke:#4663AC;stroke-width:3.821;stroke-linecap:round;stroke-miterlimit:10;stroke-dasharray:0,9.3851;}
	.st44{fill:none;stroke:#4663AC;stroke-width:3.821;stroke-linecap:round;stroke-miterlimit:10;stroke-dasharray:0,13.4656;}
	.st45{fill:none;stroke:#4663AC;stroke-width:3.821;stroke-linecap:round;stroke-miterlimit:10;stroke-dasharray:0,12.3603;}
	.st46{fill:none;stroke:#4663AC;stroke-width:3.821;stroke-linecap:round;stroke-miterlimit:10;stroke-dasharray:0,12.3777;}
	.st47{fill:none;stroke:#4663AC;stroke-width:3.821;stroke-linecap:round;stroke-miterlimit:10;stroke-dasharray:0,12.1278;}
	.st48{fill:none;stroke:#4663AC;stroke-width:3.821;stroke-linecap:round;stroke-miterlimit:10;stroke-dasharray:0,13.2216;}
	.st49{fill:none;stroke:#4663AC;stroke-width:3.821;stroke-linecap:round;stroke-miterlimit:10;stroke-dasharray:0,14.1274;}
	.st50{fill:none;stroke:#4663AC;stroke-width:3.821;stroke-linecap:round;stroke-miterlimit:10;stroke-dasharray:0,14.4826;}
	.st51{fill:none;stroke:#4663AC;stroke-width:3.821;stroke-linecap:round;stroke-miterlimit:10;stroke-dasharray:0,8.893;}
	.st52{fill:none;stroke:#4663AC;stroke-width:3.821;stroke-linecap:round;stroke-miterlimit:10;stroke-dasharray:0,7.4938;}
	.st53{fill:none;stroke:#4663AC;stroke-width:3.821;stroke-linecap:round;stroke-miterlimit:10;stroke-dasharray:0,8.8191;}
	.st54{fill:none;stroke:#4663AC;stroke-width:3.821;stroke-linecap:round;stroke-miterlimit:10;stroke-dasharray:0,12.5385;}
	.st55{fill:none;stroke:#4663AC;stroke-width:3.821;stroke-linecap:round;stroke-miterlimit:10;stroke-dasharray:0,13.4866;}
	.st56{fill:none;stroke:#4663AC;stroke-width:3.821;stroke-linecap:round;stroke-miterlimit:10;stroke-dasharray:0,13.1819;}
	.st57{fill:none;stroke:#4663AC;stroke-width:3.821;stroke-linecap:round;stroke-miterlimit:10;stroke-dasharray:0,12.9241;}
	.st58{fill:none;stroke:#4663AC;stroke-width:3.821;stroke-linecap:round;stroke-miterlimit:10;stroke-dasharray:0,14.0522;}
	.st59{fill:none;stroke:#4663AC;stroke-width:3.821;stroke-linecap:round;stroke-miterlimit:10;stroke-dasharray:0,15.034;}
	.st60{fill:none;stroke:#4663AC;stroke-width:3.821;stroke-linecap:round;stroke-miterlimit:10;stroke-dasharray:0,15.4121;}
	.st61{fill:none;stroke:#4663AC;stroke-width:3.821;stroke-linecap:round;stroke-miterlimit:10;stroke-dasharray:0,9.4639;}
	.st62{fill:none;stroke:#4663AC;stroke-width:3.821;stroke-linecap:round;stroke-miterlimit:10;stroke-dasharray:0,8.8806;}
	.st63{fill:none;stroke:#4663AC;stroke-width:3.821;stroke-linecap:round;stroke-miterlimit:10;stroke-dasharray:0,9.5306;}
	.st64{fill:none;stroke:#4663AC;stroke-width:3.821;stroke-linecap:round;stroke-miterlimit:10;stroke-dasharray:0,13.9626;}
	.st65{fill:none;stroke:#4663AC;stroke-width:3.821;stroke-linecap:round;stroke-miterlimit:10;stroke-dasharray:0,13.2063;}
	.st66{fill:none;stroke:#4663AC;stroke-width:3.821;stroke-linecap:round;stroke-miterlimit:10;stroke-dasharray:0,12.3975;}
	.st67{fill:none;stroke:#4663AC;stroke-width:3.821;stroke-linecap:round;stroke-miterlimit:10;stroke-dasharray:0,12.5683;}
	.st68{fill:none;stroke:#4663AC;stroke-width:3.821;stroke-linecap:round;stroke-miterlimit:10;stroke-dasharray:0,12.213;}
	.st69{fill:none;stroke:#4663AC;stroke-width:3.821;stroke-linecap:round;stroke-miterlimit:10;stroke-dasharray:0,12.6854;}
	.st70{fill:none;stroke:#4663AC;stroke-width:3.821;stroke-linecap:round;stroke-miterlimit:10;stroke-dasharray:0,11.6091;}
	.st71{fill:none;stroke:#4663AC;stroke-width:3.821;stroke-linecap:round;stroke-miterlimit:10;stroke-dasharray:0,11.3362;}
	.st72{fill:none;stroke:#4663AC;stroke-width:3.821;stroke-linecap:round;stroke-miterlimit:10;stroke-dasharray:0,11.5125;}
	.st73{fill:none;stroke:#4663AC;stroke-width:3.821;stroke-linecap:round;stroke-miterlimit:10;stroke-dasharray:0,13.6199;}
	.st74{fill:none;stroke:#4663AC;stroke-width:3.821;stroke-linecap:round;stroke-miterlimit:10;stroke-dasharray:0,13.2329;}
	.st75{fill:none;stroke:#4663AC;stroke-width:3.821;stroke-linecap:round;stroke-miterlimit:10;stroke-dasharray:0,12.2082;}
	.st76{fill:none;stroke:#4663AC;stroke-width:3.821;stroke-linecap:round;stroke-miterlimit:10;stroke-dasharray:0,11.4626;}
	.st77{fill:none;stroke:#4663AC;stroke-width:3.821;stroke-linecap:round;stroke-miterlimit:10;stroke-dasharray:0,13.4425;}
	.st78{fill:none;stroke:#4663AC;stroke-width:3.821;stroke-linecap:round;stroke-miterlimit:10;stroke-dasharray:0,12.3063;}
	.st79{fill:none;stroke:#4663AC;stroke-width:3.821;stroke-linecap:round;stroke-miterlimit:10;stroke-dasharray:0,13.8853;}
	.st80{fill:none;stroke:#4663AC;stroke-width:3.821;stroke-linecap:round;stroke-miterlimit:10;stroke-dasharray:0,13.2518;}
	.st81{fill:none;stroke:#4663AC;stroke-width:3.821;stroke-linecap:round;stroke-miterlimit:10;stroke-dasharray:0,13.1672;}
	.st82{fill:none;stroke:#4663AC;stroke-width:3.821;stroke-linecap:round;stroke-miterlimit:10;stroke-dasharray:0,14.1281;}
	.st83{fill:none;stroke:#4663AC;stroke-width:3.821;stroke-linecap:round;stroke-miterlimit:10;stroke-dasharray:0,12.8372;}
	.st84{fill:none;stroke:#4663AC;stroke-width:3.821;stroke-linecap:round;stroke-miterlimit:10;stroke-dasharray:0,13.578;}
	.st85{fill:none;stroke:#4663AC;stroke-width:3.821;stroke-linecap:round;stroke-miterlimit:10;stroke-dasharray:0,12.8609;}
	.st86{fill:none;stroke:#4663AC;stroke-width:3.821;stroke-linecap:round;stroke-miterlimit:10;stroke-dasharray:0,14.2629;}
	.st87{fill:none;stroke:#4663AC;stroke-width:3.821;stroke-linecap:round;stroke-miterlimit:10;stroke-dasharray:0,12.8355;}
	.st88{fill:none;stroke:#4663AC;stroke-width:3.821;stroke-linecap:round;stroke-miterlimit:10;stroke-dasharray:0,14.1602;}
	.st89{fill:none;stroke:#4663AC;stroke-width:3.821;stroke-linecap:round;stroke-miterlimit:10;stroke-dasharray:0,11.6957;}
	.st90{fill:none;stroke:#4663AC;stroke-width:3.821;stroke-linecap:round;stroke-miterlimit:10;stroke-dasharray:0,11.621;}
	.st91{fill:none;stroke:#4663AC;stroke-width:3.821;stroke-linecap:round;stroke-miterlimit:10;stroke-dasharray:0,11.3984;}
	.st92{fill:none;stroke:#4663AC;stroke-width:3.821;stroke-linecap:round;stroke-miterlimit:10;stroke-dasharray:0,11.989;}
	.st93{fill:none;stroke:#4663AC;stroke-width:3.821;stroke-linecap:round;stroke-miterlimit:10;stroke-dasharray:0,14.2575;}
	.st94{fill:none;stroke:#4663AC;stroke-width:3.821;stroke-linecap:round;stroke-miterlimit:10;stroke-dasharray:0,13.0855;}
	.st95{fill:none;stroke:#4663AC;stroke-width:3.821;stroke-linecap:round;stroke-miterlimit:10;stroke-dasharray:0,12.2561;}
	.st96{fill:none;stroke:#4663AC;stroke-width:3.821;stroke-linecap:round;stroke-miterlimit:10;stroke-dasharray:0,11.6985;}
	.st97{fill:none;stroke:#4663AC;stroke-width:3.821;stroke-linecap:round;stroke-miterlimit:10;stroke-dasharray:0,14.5295;}
	.st98{fill:none;stroke:#4663AC;stroke-width:3.821;stroke-linecap:round;stroke-miterlimit:10;stroke-dasharray:0,14.9331;}
	.st99{fill:none;stroke:#4663AC;stroke-width:3.821;stroke-linecap:round;stroke-miterlimit:10;stroke-dasharray:0,15.1041;}
	.st100{fill:none;stroke:#4663AC;stroke-width:3.821;stroke-linecap:round;stroke-miterlimit:10;stroke-dasharray:0,12.5175;}
	.st101{fill:none;stroke:#4663AC;stroke-width:3.821;stroke-linecap:round;stroke-miterlimit:10;stroke-dasharray:0,10.3594;}
	.st102{fill:none;stroke:#4663AC;stroke-width:3.821;stroke-linecap:round;stroke-miterlimit:10;stroke-dasharray:0,10.295;}
	.st103{fill:none;stroke:#4663AC;stroke-width:3.821;stroke-linecap:round;stroke-miterlimit:10;stroke-dasharray:0,10.4525;}
	.st104{fill:none;stroke:#4663AC;stroke-width:3.821;stroke-linecap:round;stroke-miterlimit:10;stroke-dasharray:0,11.6843;}
	.st105{fill:none;stroke:#4663AC;stroke-width:3.821;stroke-linecap:round;stroke-miterlimit:10;stroke-dasharray:0,13.0375;}
	.st106{fill:none;stroke:#4663AC;stroke-width:3.821;stroke-linecap:round;stroke-miterlimit:10;stroke-dasharray:0,16.2424;}
	.st107{fill:none;stroke:#4663AC;stroke-width:3.821;stroke-linecap:round;stroke-miterlimit:10;stroke-dasharray:0,13.8874;}
	.st108{fill:none;stroke:#4663AC;stroke-width:3.821;stroke-linecap:round;stroke-miterlimit:10;stroke-dasharray:0,12.3922;}
	.st109{fill:none;stroke:#4663AC;stroke-width:3.821;stroke-linecap:round;stroke-miterlimit:10;stroke-dasharray:0,14.6076;}
	.st110{fill:#FFFFFF;}
	.st111{fill:none;stroke:#4663B3;stroke-width:0.9991;}
	.st112{fill:#4663B3;}
	.st113{opacity:0.25;fill:none;stroke:#FCFBF9;stroke-width:21.1972;}
	.st114{opacity:0.5;fill:none;stroke:#FCFBF9;stroke-width:21.1972;}
	.st115{fill:none;stroke:#FCFBF9;stroke-width:21.1972;}
</style>
<rect x="0" class="st0" width="1122.9" height="841.9"></rect>
<g>
	<path class="st1" d="M550.9,412.7c33.3-0.9,66.1,16,84,47c26,45.1,10.7,102.8-34.2,128.9c-44.9,26.1-102.5,10.8-128.5-34.3   c-26-45.1-15.6-99.9,29.3-126"></path>
	<line class="st2" x1="488.8" y1="406.3" x2="514.4" y2="450.3"></line>
	<path class="st1" d="M548.8,340.8c59.4-1.6,117.9,28.2,149.8,82.8c46.4,79.4,19.1,181.2-60.9,227.2c-80.1,46.1-182.6,19-229-60.4   s-24-178.3,56-224.4"></path>
	<line class="st2" x1="452" y1="344" x2="477.4" y2="388.1"></line>
	<path class="st3" d="M639,650.4c-0.8,0.5-1.7,1-2.6,1.5c-0.9,0.5-1.7,1-2.6,1.5 M695.5,420.5c0.5,0.8,1,1.7,1.5,2.5   c0.5,0.9,1,1.7,1.5,2.6 M548.2,339.6c1,0,1.9,0,2.9-0.1"></path>
</g>
<path class="st4" d="M548.9,339.6c1.5,0,3-0.1,4.4-0.1c92.5-0.2,167.7,74.7,167.8,167.2s-74.7,167.7-167.2,167.8  s-167.7-74.7-167.8-167.2C386,446,418.9,392.3,468,363"></path>
<g>
	<defs>
		<rect id="SVGID_1_" x="-1277" y="61.4" width="1122.9" height="780.4"></rect>
	</defs>
	<clipPath id="SVGID_2_">
		<use xlink:href="#SVGID_1_" style="overflow:visible;"></use>
	</clipPath>
	<g class="st7">
		<path class="st17" d="M-504.3,1041.6c-67,0-132.4-13.2-194.4-39.2c-6.3-2.6-12.5-5.4-18.7-8.3c-6.2,2.9-12.4,5.6-18.7,8.3    c-62,26-127.4,39.2-194.4,39.2c-67,0-132.4-13.2-194.4-39.2c-64.2-26.9-121.5-66.2-170.5-116.9c-48.8-50.4-86.6-109.4-112.4-175.2    c-24.8-63.2-37.3-129.9-37.3-198.1c0-68.2,12.6-134.9,37.3-198.1c25.8-65.8,63.6-124.8,112.4-175.2c49-50.7,106.3-90,170.5-116.9    c62-26,127.4-39.2,194.4-39.2S-798-4-736,22c6.3,2.6,12.5,5.4,18.7,8.3c6.2-2.9,12.4-5.6,18.7-8.3c62-26,127.4-39.2,194.4-39.2    S-371.8-4-309.9,22c64.2,26.9,121.5,66.2,170.5,116.9C-90.6,189.3-52.8,248.3-27,314.1C-2.2,377.3,10.3,444,10.3,512.2    c0,68.2-12.6,134.9-37.3,198.1c-25.8,65.8-63.6,124.8-112.4,175.2c-49,50.7-106.3,90-170.5,116.9    C-371.8,1028.4-437.2,1041.6-504.3,1041.6z"></path>
	</g>
</g>
<g>
	
		<rect x="685.8" y="414" transform="matrix(1 -1.799062e-03 1.799062e-03 1 -0.8155 1.2883)" class="st110" width="59.8" height="79.9"></rect>
	
		<rect x="685.8" y="414" transform="matrix(1 -1.799062e-03 1.799062e-03 1 -0.8155 1.2883)" class="st111" width="59.8" height="79.9"></rect>
	
		<rect x="685.3" y="435.5" transform="matrix(1 -1.799062e-03 1.799062e-03 1 -0.8353 1.2884)" class="st112" width="60.8" height="58.9"></rect>
	<g>
		<path class="st110" d="M714.2,472.6l13.9,0l0,7.8l-24.9,0l0-2.3c0-12.5,15.4-14.6,15.4-21.3c0-1.8-1-3-2.9-3c-1.8,0-3,1.5-3.4,4.1    l-8.6-2.3c0.9-5.6,5.1-9.7,12.3-9.7c7.6,0,12.2,3.9,12.2,10C728.1,464.8,718.2,467.5,714.2,472.6z"></path>
	</g>
	<g>
		<path class="st112" d="M700.3,426.4l1.2-0.3c0.2,0.7,0.6,1.1,1.4,1.1c0.7,0,1.2-0.3,1.2-0.9c0-0.6-0.4-0.7-1.4-1    c-1.2-0.3-2.2-0.7-2.2-1.9c0-1.1,0.9-1.9,2.3-1.9c1.4,0,2.2,0.6,2.4,1.6l-1.2,0.3c-0.2-0.7-0.6-1-1.3-1c-0.6,0-1.1,0.3-1.1,0.8    c0,0.6,0.5,0.8,1.4,1c1.5,0.4,2.3,0.7,2.3,1.9c0,1.3-0.9,2-2.4,2C701.3,428.2,700.4,427.6,700.3,426.4z"></path>
		<path class="st112" d="M713.6,422.7l-1.9,0l0,5.3l-1.2,0l0-5.3l-1.9,0l0-1l5,0L713.6,422.7z"></path>
		<path class="st112" d="M721.8,427l0,1l-4.3,0l0-6.3l4.3,0l0,1l-3,0l0,1.6l2.9,0l0,1l-2.9,0l0,1.7L721.8,427z"></path>
		<path class="st112" d="M730.6,423.8c0,1.5-1,2.1-2.8,2.1l-0.8,0l0,2.1l-1.2,0l0-6.3l2,0C729.6,421.7,730.6,422.3,730.6,423.8z     M729.3,423.8c0-0.9-0.6-1.1-1.6-1.1l-0.7,0l0,2.3l0.7,0C728.8,424.9,729.3,424.6,729.3,423.8z"></path>
	</g>
</g>
<g>
	
		<rect x="624.2" y="604.8" transform="matrix(1 -1.799062e-03 1.799062e-03 1 -1.1588 1.1778)" class="st110" width="59.8" height="79.9"></rect>
	
		<rect x="624.2" y="604.8" transform="matrix(1 -1.799062e-03 1.799062e-03 1 -1.1588 1.1778)" class="st111" width="59.8" height="79.9"></rect>
	
		<rect x="623.7" y="626.2" transform="matrix(1 -1.799062e-03 1.799062e-03 1 -1.1786 1.1779)" class="st112" width="60.8" height="58.9"></rect>
	<g>
		<path class="st110" d="M641.1,662.5l8.7-2.3c0.3,2.4,1.7,3.8,3.9,3.7c2.2,0,3.6-1.4,3.6-3.4c0-2.7-2-3.2-4.3-3.2l-1.9,0l0-6.7    l1.5,0c2.5,0,4.6-0.7,4.6-3.2c0-2-1.3-3-3.2-3c-1.9,0-3,1.2-3.5,3.4l-8.6-2.4c0.8-4.7,4.5-8.9,12.1-8.9c7.1,0,12.5,3.5,12.6,9.7    c0,5.1-3.5,6.8-6.1,7.2l0,0.2c2.7,0.3,6.8,2.2,6.8,7.8c0,6.6-5.5,10.2-13.2,10.2C645.8,671.9,641.8,668,641.1,662.5z"></path>
	</g>
	<g>
		<path class="st112" d="M638.7,617.2l1.2-0.3c0.2,0.7,0.6,1.1,1.4,1.1c0.7,0,1.2-0.3,1.2-0.9c0-0.6-0.4-0.7-1.4-1    c-1.2-0.3-2.2-0.7-2.2-1.9c0-1.1,0.9-1.9,2.3-1.9c1.4,0,2.2,0.6,2.4,1.6l-1.2,0.3c-0.2-0.7-0.6-1-1.3-1c-0.6,0-1.1,0.3-1.1,0.8    c0,0.6,0.5,0.8,1.4,1c1.5,0.4,2.3,0.7,2.3,1.9c0,1.3-0.9,2-2.4,2C639.7,619,638.8,618.3,638.7,617.2z"></path>
		<path class="st112" d="M652,613.5l-1.9,0l0,5.3l-1.2,0l0-5.3l-1.9,0l0-1l5,0L652,613.5z"></path>
		<path class="st112" d="M660.2,617.8l0,1l-4.3,0l0-6.3l4.3,0l0,1l-3,0l0,1.6l2.9,0l0,1l-2.9,0l0,1.7L660.2,617.8z"></path>
		<path class="st112" d="M669,614.6c0,1.5-1,2.1-2.8,2.1l-0.8,0l0,2.1l-1.2,0l0-6.3l2,0C668,612.5,669,613.1,669,614.6z     M667.7,614.6c0-0.9-0.6-1.1-1.6-1.1l-0.7,0l0,2.3l0.7,0C667.2,615.7,667.7,615.4,667.7,614.6z"></path>
	</g>
</g>
<g>
	
		<rect x="423.7" y="605.1" transform="matrix(1 -1.799062e-03 1.799062e-03 1 -1.1598 0.8171)" class="st110" width="59.8" height="79.9"></rect>
	
		<rect x="423.7" y="605.1" transform="matrix(1 -1.799062e-03 1.799062e-03 1 -1.1598 0.8171)" class="st111" width="59.8" height="79.9"></rect>
	
		<rect x="423.2" y="626.6" transform="matrix(1 -1.799062e-03 1.799062e-03 1 -1.1796 0.8172)" class="st112" width="60.8" height="58.9"></rect>
	<g>
		<path class="st110" d="M467.9,665.1l-4.1,0l0,6.5l-8.8,0l0-6.5l-15.5,0l0-6.4l14.4-21l9.8,0l0,20.6l4.1,0L467.9,665.1z M455,658.4    l0-10.3l-7.1,10.3L455,658.4z"></path>
	</g>
	<g>
		<path class="st112" d="M438.2,617.6l1.2-0.3c0.2,0.7,0.6,1.1,1.4,1.1c0.7,0,1.2-0.3,1.2-0.9c0-0.6-0.4-0.7-1.4-1    c-1.2-0.3-2.2-0.7-2.2-1.9c0-1.1,0.9-1.9,2.3-1.9c1.4,0,2.2,0.6,2.4,1.6l-1.2,0.3c-0.2-0.7-0.6-1-1.3-1c-0.6,0-1.1,0.3-1.1,0.8    c0,0.6,0.5,0.8,1.4,1c1.5,0.4,2.3,0.7,2.3,1.9c0,1.3-0.9,2-2.4,2C439.2,619.3,438.3,618.7,438.2,617.6z"></path>
		<path class="st112" d="M451.5,613.9l-1.9,0l0,5.3l-1.2,0l0-5.3l-1.9,0l0-1l5,0L451.5,613.9z"></path>
		<path class="st112" d="M459.7,618.1l0,1l-4.3,0l0-6.3l4.3,0l0,1l-3,0l0,1.6l2.9,0l0,1l-2.9,0l0,1.7L459.7,618.1z"></path>
		<path class="st112" d="M468.5,614.9c0,1.5-1,2.1-2.8,2.1l-0.8,0l0,2.1l-1.2,0l0-6.3l2,0C467.5,612.8,468.5,613.5,468.5,614.9z     M467.2,614.9c0-0.9-0.6-1.1-1.6-1.1l-0.7,0l0,2.3l0.7,0C466.7,616.1,467.2,615.8,467.2,614.9z"></path>
	</g>
</g>
<g>
	
		<rect x="361.4" y="414.6" transform="matrix(1 -1.799062e-03 1.799062e-03 1 -0.8171 0.7047)" class="st110" width="59.8" height="79.9"></rect>
	
		<rect x="361.4" y="414.6" transform="matrix(1 -1.799062e-03 1.799062e-03 1 -0.8171 0.7047)" class="st111" width="59.8" height="79.9"></rect>
	
		<rect x="360.9" y="436" transform="matrix(1 -1.799062e-03 1.799062e-03 1 -0.8368 0.7048)" class="st112" width="60.8" height="58.9"></rect>
	<g>
		<path class="st110" d="M404.1,469.7c0,8.3-5.5,12-13.2,12c-7.7,0-11.8-3.8-12.4-8.8l8.7-2.3c0.4,2.1,1.8,3.2,3.7,3.2    c1.9,0,3.5-1.2,3.4-4c0-2.7-1.4-4-3.3-4c-1.6,0-2.7,0.9-3.2,2.2l-7.9-2.5l1.3-18.3l20.4,0l0,7.8l-13.3,0l-0.5,6.9l0.1,0    c1.1-1.9,3.3-3.2,6.4-3.2C400.1,458.6,404.1,462.7,404.1,469.7z"></path>
	</g>
	<g>
		<path class="st112" d="M375.9,427l1.2-0.3c0.2,0.7,0.6,1.1,1.4,1.1c0.7,0,1.2-0.3,1.2-0.9c0-0.6-0.4-0.7-1.4-1    c-1.2-0.3-2.2-0.7-2.2-1.9c0-1.1,0.9-1.9,2.3-1.9c1.4,0,2.2,0.6,2.4,1.6l-1.2,0.3c-0.2-0.7-0.6-1-1.3-1c-0.6,0-1.1,0.3-1.1,0.8    c0,0.6,0.5,0.8,1.4,1c1.5,0.4,2.3,0.7,2.3,1.9c0,1.3-0.9,2-2.4,2C376.9,428.8,376,428.1,375.9,427z"></path>
		<path class="st112" d="M389.2,423.3l-1.9,0l0,5.3l-1.2,0l0-5.3l-1.9,0l0-1l5,0L389.2,423.3z"></path>
		<path class="st112" d="M397.4,427.6l0,1l-4.3,0l0-6.3l4.3,0l0,1l-3,0l0,1.6l2.9,0l0,1l-2.9,0l0,1.7L397.4,427.6z"></path>
		<path class="st112" d="M406.2,424.4c0,1.5-1,2.1-2.8,2.1l-0.8,0l0,2.1l-1.2,0l0-6.3l2,0C405.2,422.3,406.2,422.9,406.2,424.4z     M404.9,424.4c0-0.9-0.6-1.1-1.6-1.1l-0.7,0l0,2.3l0.7,0C404.4,425.5,404.9,425.2,404.9,424.4z"></path>
	</g>
</g>
<g>
	
		<rect x="523.4" y="296.4" transform="matrix(1 -1.799062e-03 1.799062e-03 1 -0.6043 0.996)" class="st110" width="59.8" height="79.9"></rect>
	
		<rect x="523.4" y="296.4" transform="matrix(1 -1.799062e-03 1.799062e-03 1 -0.6043 0.996)" class="st111" width="59.8" height="79.9"></rect>
	
		<rect x="522.9" y="317.9" transform="matrix(1 -1.799062e-03 1.799062e-03 1 -0.6241 0.996)" class="st112" width="60.8" height="58.9"></rect>
	<g>
		<path class="st110" d="M560.2,329.1l0.1,33.8l-9.3,0l0-23.3l-7.2,4.7l0-9.5l8.8-5.6L560.2,329.1z"></path>
	</g>
	<g>
		<path class="st112" d="M537.9,308.9l1.2-0.3c0.2,0.7,0.6,1.1,1.4,1.1c0.7,0,1.2-0.3,1.2-0.9c0-0.6-0.4-0.7-1.4-1    c-1.2-0.3-2.2-0.7-2.2-1.9c0-1.1,0.9-1.9,2.3-1.9c1.4,0,2.2,0.6,2.4,1.6l-1.2,0.3c-0.2-0.7-0.6-1-1.3-1c-0.6,0-1.1,0.3-1.1,0.8    c0,0.6,0.5,0.8,1.4,1c1.5,0.4,2.3,0.7,2.3,1.9c0,1.3-0.9,2-2.4,2C538.9,310.6,538,310,537.9,308.9z"></path>
		<path class="st112" d="M551.2,305.2l-1.9,0l0,5.3l-1.2,0l0-5.3l-1.9,0l0-1l5,0L551.2,305.2z"></path>
		<path class="st112" d="M559.4,309.4l0,1l-4.3,0l0-6.3l4.3,0l0,1l-3,0l0,1.6l2.9,0l0,1l-2.9,0l0,1.7L559.4,309.4z"></path>
		<path class="st112" d="M568.2,306.2c0,1.5-1,2.1-2.8,2.1l-0.8,0l0,2.1l-1.2,0l0-6.3l2,0C567.2,304.1,568.2,304.8,568.2,306.2z     M566.9,306.2c0-0.9-0.6-1.1-1.6-1.1l-0.7,0l0,2.3l0.7,0C566.4,307.4,566.9,307.1,566.9,306.2z"></path>
	</g>
</g>
<path class="st4" d="M550.9,412.8c0.8,0,1.7,0,2.5,0c52.1-0.1,94.4,42,94.5,94.1c0.1,52.1-42,94.4-94.1,94.5s-94.4-42-94.5-94.1  c-0.1-34.5,18.4-64.8,46.1-81.2"></path>
<path class="st113" d="M552,898.9c-52.8,0-104-10.4-152.4-30.8c-46.6-19.7-88.5-47.9-124.4-83.7c-35.9-35.9-64.2-77.7-84-124.3  c-20.5-48.3-31-99.6-31.1-152.4c-0.1-52.8,10.2-104.2,30.6-152.7c19.7-46.7,47.8-88.7,83.7-124.7c35.9-36,77.7-64.3,124.4-84.1  c48.4-20.6,99.7-31,152.5-31.1l0.6,0c52.8,0,104.1,10.4,152.5,30.8c46.6,19.7,88.5,47.9,124.4,83.7c35.9,35.9,64.2,77.7,84,124.3  c20.5,48.3,31,99.6,31.1,152.4c0.1,52.8-10.2,104.2-30.6,152.7c-19.7,46.7-47.8,88.7-83.7,124.7c-35.9,36-77.7,64.3-124.4,84.2  c-48.4,20.6-99.7,31-152.5,31.1l-0.6,0H552z"></path>
<path class="st114" d="M552,819c-42,0-82.8-8.2-121.3-24.5c-37.1-15.7-70.5-38.1-99.1-66.7c-28.6-28.6-51.1-61.9-66.9-99  c-16.3-38.4-24.6-79.3-24.7-121.3c-0.1-42.1,8.1-83,24.3-121.5c15.6-37.2,38.1-70.6,66.6-99.3c28.6-28.7,61.9-51.2,99-67  c38.5-16.4,79.3-24.7,121.4-24.8l0.6,0c42,0,82.8,8.2,121.3,24.5c37.1,15.7,70.5,38.1,99.1,66.7c28.6,28.6,51.1,61.9,66.9,99  c16.3,38.4,24.6,79.3,24.7,121.3c0.1,42.1-8.1,83-24.3,121.5c-15.6,37.2-38.1,70.6-66.6,99.3c-28.6,28.7-61.9,51.2-99,67  c-38.5,16.4-79.3,24.7-121.4,24.8L552,819z"></path>
<circle class="st115" cx="552" cy="507" r="232"></circle>
<g>
	<path class="st10" d="M554.6,738.5c0-0.4,0.3-0.8,0.8-0.8l0,0c0.4,0,0.8,0.3,0.8,0.8l0,0c0,0.4-0.3,0.8-0.8,0.8l0,0c0,0,0,0,0,0   l0,0C555,739.2,554.6,738.9,554.6,738.5z"></path>
	<path class="st10" d="M542.5,739.1c-0.4,0-0.8-0.4-0.7-0.8l0,0c0-0.4,0.4-0.8,0.8-0.7l0,0c0.4,0,0.8,0.4,0.7,0.8l0,0   C543.3,738.7,542.9,739.1,542.5,739.1L542.5,739.1C542.5,739.1,542.5,739.1,542.5,739.1z"></path>
	<path class="st10" d="M567.5,738c0-0.4,0.3-0.8,0.7-0.8l0,0c0.4,0,0.8,0.3,0.8,0.7l0,0c0,0.4-0.3,0.8-0.7,0.8l0,0c0,0,0,0,0,0l0,0   C567.8,738.7,567.5,738.4,567.5,738z"></path>
	<path class="st10" d="M529.6,738.2c-0.4,0-0.7-0.4-0.7-0.8l0,0c0-0.4,0.4-0.7,0.8-0.7l0,0c0.4,0,0.7,0.4,0.7,0.8l0,0   C530.4,737.9,530.1,738.2,529.6,738.2L529.6,738.2C529.6,738.2,529.6,738.2,529.6,738.2z"></path>
	<path class="st10" d="M580.3,736.8c-0.1-0.4,0.2-0.8,0.7-0.9l0,0l0,0l0,0c0.4,0,0.8,0.3,0.9,0.7l0,0c0,0.4-0.3,0.8-0.7,0.9l0,0   c0,0-0.1,0-0.1,0l0,0C580.7,737.5,580.3,737.2,580.3,736.8z"></path>
	<path class="st10" d="M516.8,736.6L516.8,736.6c-0.4-0.1-0.7-0.5-0.6-0.9l0,0c0.1-0.4,0.5-0.7,0.9-0.6l0,0l0,0l0,0   c0.4,0.1,0.7,0.5,0.6,0.9l0,0c-0.1,0.4-0.4,0.6-0.8,0.6l0,0C516.9,736.6,516.8,736.6,516.8,736.6z"></path>
	<path class="st10" d="M593,734.9c-0.1-0.4,0.2-0.8,0.6-0.9l0,0c0.4-0.1,0.8,0.2,0.9,0.6l0,0c0.1,0.4-0.2,0.8-0.6,0.9l0,0   c0,0-0.1,0-0.1,0l0,0C593.4,735.5,593.1,735.3,593,734.9z"></path>
	<path class="st10" d="M504.1,734.3L504.1,734.3c-0.4-0.1-0.7-0.5-0.6-0.9l0,0c0.1-0.4,0.5-0.7,0.9-0.6l0,0c0.4,0.1,0.7,0.5,0.6,0.9   l0,0c-0.1,0.4-0.4,0.6-0.7,0.6l0,0C504.2,734.3,504.1,734.3,504.1,734.3z"></path>
	<path class="st10" d="M605.6,732.3c-0.1-0.4,0.2-0.8,0.6-0.9l0,0c0.4-0.1,0.8,0.2,0.9,0.6l0,0c0.1,0.4-0.2,0.8-0.6,0.9l0,0   c-0.1,0-0.1,0-0.2,0l0,0C606,732.9,605.7,732.6,605.6,732.3z"></path>
	<path class="st10" d="M491.5,731.3L491.5,731.3c-0.4-0.1-0.7-0.5-0.5-0.9l0,0c0.1-0.4,0.5-0.7,0.9-0.5l0,0c0.4,0.1,0.7,0.5,0.5,0.9   l0,0c-0.1,0.3-0.4,0.6-0.7,0.6l0,0C491.7,731.3,491.6,731.3,491.5,731.3z"></path>
	<path class="st10" d="M618,729c-0.1-0.4,0.1-0.8,0.5-1l0,0c0.4-0.1,0.8,0.1,1,0.5l0,0c0.1,0.4-0.1,0.8-0.5,1l0,0   c-0.1,0-0.1,0-0.2,0l0,0C618.4,729.5,618.1,729.3,618,729z"></path>
	<path class="st10" d="M479.2,727.6c-0.4-0.1-0.6-0.6-0.5-1l0,0c0.1-0.4,0.6-0.6,1-0.5l0,0l0,0l0,0c0.4,0.1,0.6,0.6,0.5,1l0,0   c-0.1,0.3-0.4,0.5-0.7,0.5l0,0C479.3,727.6,479.3,727.6,479.2,727.6z"></path>
	<path class="st10" d="M630.2,725c-0.1-0.4,0.1-0.8,0.5-1l0,0c0.4-0.1,0.8,0.1,1,0.5l0,0c0.1,0.4-0.1,0.8-0.5,1l0,0   c-0.1,0-0.2,0-0.3,0l0,0C630.7,725.5,630.4,725.3,630.2,725z"></path>
	<path class="st10" d="M467,723.2c-0.4-0.2-0.6-0.6-0.4-1l0,0c0.2-0.4,0.6-0.6,1-0.4l0,0c0.4,0.2,0.6,0.6,0.4,1l0,0   c-0.1,0.3-0.4,0.5-0.7,0.5l0,0C467.2,723.2,467.1,723.2,467,723.2z"></path>
	<path class="st10" d="M642.2,720.3c-0.2-0.4,0-0.8,0.4-1l0,0l0,0l0,0c0.4-0.2,0.8,0,1,0.4l0,0c0.2,0.4,0,0.8-0.4,1l0,0   c-0.1,0-0.2,0.1-0.3,0.1l0,0C642.7,720.7,642.4,720.6,642.2,720.3z"></path>
	<path class="st10" d="M455.2,718.1c-0.4-0.2-0.6-0.6-0.4-1l0,0c0.2-0.4,0.6-0.6,1-0.4l0,0c0.4,0.2,0.6,0.6,0.4,1l0,0   c-0.1,0.3-0.4,0.4-0.7,0.4l0,0C455.4,718.2,455.3,718.2,455.2,718.1z"></path>
	<path class="st10" d="M654,714.9c-0.2-0.4,0-0.8,0.4-1l0,0l0,0l0,0c0.4-0.2,0.8,0,1,0.4l0,0c0.2,0.4,0,0.8-0.4,1l0,0   c-0.1,0.1-0.2,0.1-0.3,0.1l0,0C654.4,715.4,654.1,715.2,654,714.9z"></path>
	<path class="st10" d="M443.6,712.4c-0.4-0.2-0.5-0.7-0.3-1l0,0c0.2-0.4,0.7-0.5,1-0.3l0,0c0,0,0,0,0,0l0,0c0.4,0.2,0.5,0.7,0.3,1   l0,0c-0.1,0.3-0.4,0.4-0.7,0.4l0,0C443.9,712.5,443.7,712.5,443.6,712.4z"></path>
	<path class="st10" d="M665.4,708.9c-0.2-0.4-0.1-0.8,0.3-1.1l0,0c0.4-0.2,0.8-0.1,1.1,0.3l0,0c0.2,0.4,0.1,0.8-0.3,1.1l0,0   c-0.1,0.1-0.2,0.1-0.4,0.1l0,0C665.8,709.3,665.5,709.2,665.4,708.9z"></path>
	<path class="st10" d="M432.4,706c-0.4-0.2-0.5-0.7-0.3-1.1l0,0c0.2-0.4,0.7-0.5,1.1-0.3l0,0c0.4,0.2,0.5,0.7,0.3,1.1l0,0   c-0.1,0.2-0.4,0.4-0.7,0.4l0,0C432.7,706.2,432.5,706.1,432.4,706z"></path>
	<path class="st10" d="M676.4,702.3c-0.2-0.4-0.1-0.8,0.2-1.1l0,0c0.4-0.2,0.8-0.1,1.1,0.2l0,0c0.2,0.4,0.1,0.8-0.2,1.1l0,0   c-0.1,0.1-0.3,0.1-0.4,0.1l0,0C676.8,702.7,676.6,702.5,676.4,702.3z"></path>
	<path class="st10" d="M421.6,699.1c-0.3-0.2-0.4-0.7-0.2-1.1l0,0c0.2-0.3,0.7-0.4,1.1-0.2l0,0c0.4,0.2,0.4,0.7,0.2,1.1l0,0   c-0.1,0.2-0.4,0.3-0.6,0.3l0,0C421.8,699.2,421.7,699.2,421.6,699.1z"></path>
	<path class="st10" d="M687.1,695.1c-0.2-0.3-0.2-0.8,0.2-1.1l0,0c0.3-0.3,0.8-0.2,1.1,0.2l0,0c0.2,0.3,0.2,0.8-0.2,1.1l0,0   c-0.1,0.1-0.3,0.1-0.4,0.1l0,0C687.5,695.4,687.2,695.3,687.1,695.1z"></path>
	<path class="st10" d="M411.1,691.5c-0.3-0.3-0.4-0.7-0.1-1.1l0,0c0.3-0.3,0.7-0.4,1.1-0.1l0,0c0.3,0.3,0.4,0.7,0.1,1.1l0,0   c-0.1,0.2-0.4,0.3-0.6,0.3l0,0C411.4,691.7,411.2,691.6,411.1,691.5z"></path>
	<path class="st10" d="M697.3,687.3c-0.3-0.3-0.2-0.8,0.1-1.1l0,0c0.3-0.3,0.8-0.2,1.1,0.1l0,0c0.3,0.3,0.2,0.8-0.1,1.1l0,0   c-0.1,0.1-0.3,0.2-0.5,0.2l0,0C697.7,687.6,697.5,687.5,697.3,687.3z"></path>
	<path class="st10" d="M401.1,683.4L401.1,683.4c-0.3-0.3-0.4-0.8-0.1-1.1l0,0c0.3-0.3,0.8-0.4,1.1-0.1l0,0c0,0,0,0,0,0l0,0   c0.3,0.3,0.4,0.8,0.1,1.1l0,0c-0.2,0.2-0.4,0.3-0.6,0.3l0,0C401.4,683.6,401.2,683.5,401.1,683.4z"></path>
	<path class="st10" d="M707.1,678.9c-0.3-0.3-0.3-0.8,0.1-1.1l0,0c0.3-0.3,0.8-0.3,1.1,0.1l0,0c0.3,0.3,0.3,0.8-0.1,1.1l0,0   c-0.1,0.1-0.3,0.2-0.5,0.2l0,0C707.5,679.2,707.3,679.1,707.1,678.9z"></path>
	<path class="st10" d="M391.5,674.7c-0.3-0.3-0.3-0.8,0-1.1l0,0c0.3-0.3,0.8-0.3,1.1,0l0,0l0,0l0,0c0.3,0.3,0.3,0.8,0,1.1l0,0   c-0.2,0.2-0.4,0.2-0.6,0.2l0,0C391.8,675,391.7,674.9,391.5,674.7z"></path>
	<path class="st10" d="M716.4,670.1c-0.3-0.3-0.3-0.8,0-1.1l0,0c0.3-0.3,0.8-0.3,1.1,0l0,0c0.3,0.3,0.3,0.8,0,1.1l0,0   c-0.2,0.2-0.4,0.2-0.5,0.2l0,0C716.8,670.3,716.6,670.2,716.4,670.1z"></path>
	<path class="st10" d="M382.4,665.6c-0.3-0.3-0.3-0.8,0-1.1l0,0c0.3-0.3,0.8-0.3,1.1,0l0,0c0.3,0.3,0.3,0.8,0,1.1l0,0   c-0.1,0.1-0.3,0.2-0.5,0.2l0,0C382.8,665.8,382.6,665.7,382.4,665.6z"></path>
	<path class="st10" d="M725.2,660.7c-0.3-0.3-0.3-0.8-0.1-1.1l0,0c0.3-0.3,0.8-0.4,1.1-0.1l0,0c0.3,0.3,0.4,0.8,0.1,1.1l0,0   c-0.2,0.2-0.4,0.3-0.6,0.3l0,0C725.6,660.9,725.4,660.8,725.2,660.7z"></path>
	<path class="st10" d="M373.9,655.9c-0.3-0.3-0.2-0.8,0.1-1.1l0,0c0.3-0.3,0.8-0.2,1.1,0.1l0,0c0.3,0.3,0.2,0.8-0.1,1.1l0,0   c-0.1,0.1-0.3,0.2-0.5,0.2l0,0C374.3,656.2,374,656.1,373.9,655.9z"></path>
	<path class="st10" d="M733.5,650.8c-0.3-0.3-0.4-0.7-0.1-1.1l0,0c0.3-0.3,0.7-0.4,1.1-0.1l0,0c0.3,0.3,0.4,0.7,0.1,1.1l0,0   c-0.2,0.2-0.4,0.3-0.6,0.3l0,0C733.8,651,733.6,650.9,733.5,650.8z"></path>
	<path class="st10" d="M365.9,645.8c-0.2-0.3-0.2-0.8,0.2-1.1l0,0c0.3-0.3,0.8-0.2,1.1,0.2l0,0l0,0l0,0c0.3,0.3,0.2,0.8-0.2,1.1l0,0   c-0.1,0.1-0.3,0.2-0.5,0.2l0,0C366.3,646.1,366,646,365.9,645.8z"></path>
	<path class="st10" d="M741.2,640.5c-0.3-0.2-0.4-0.7-0.2-1.1l0,0c0.2-0.3,0.7-0.4,1.1-0.2l0,0c0.3,0.2,0.4,0.7,0.2,1.1l0,0   c-0.2,0.2-0.4,0.3-0.6,0.3l0,0C741.5,640.7,741.4,640.6,741.2,640.5z"></path>
	<path class="st10" d="M358.4,635.2c-0.2-0.4-0.1-0.8,0.2-1.1l0,0c0.4-0.2,0.8-0.1,1.1,0.2l0,0c0.2,0.4,0.1,0.8-0.2,1.1l0,0   c-0.1,0.1-0.3,0.1-0.4,0.1l0,0C358.8,635.5,358.6,635.4,358.4,635.2z"></path>
	<path class="st10" d="M748.3,629.8c-0.4-0.2-0.5-0.7-0.2-1.1l0,0c0.2-0.4,0.7-0.5,1.1-0.2l0,0c0.4,0.2,0.5,0.7,0.2,1.1l0,0   c-0.1,0.2-0.4,0.4-0.7,0.4l0,0C748.6,630,748.5,629.9,748.3,629.8z"></path>
	<path class="st10" d="M351.6,624.2L351.6,624.2c-0.2-0.4-0.1-0.8,0.3-1.1l0,0c0.4-0.2,0.8-0.1,1.1,0.3l0,0c0.2,0.4,0.1,0.8-0.3,1   l0,0c-0.1,0.1-0.3,0.1-0.4,0.1l0,0C352,624.6,351.7,624.5,351.6,624.2z"></path>
	<path class="st10" d="M754.9,618.8c-0.4-0.2-0.5-0.7-0.3-1l0,0c0.2-0.4,0.7-0.5,1-0.3l0,0c0.4,0.2,0.5,0.7,0.3,1l0,0   c-0.1,0.3-0.4,0.4-0.7,0.4l0,0C755.1,618.9,755,618.8,754.9,618.8z"></path>
	<path class="st10" d="M345.4,612.9L345.4,612.9c-0.2-0.4,0-0.8,0.3-1l0,0c0.4-0.2,0.8,0,1,0.3l0,0l0,0l0,0c0.2,0.4,0,0.8-0.3,1l0,0   c-0.1,0.1-0.2,0.1-0.4,0.1l0,0C345.8,613.3,345.5,613.2,345.4,612.9z"></path>
	<path class="st10" d="M760.8,607.4c-0.4-0.2-0.5-0.6-0.4-1l0,0c0.2-0.4,0.6-0.5,1-0.4l0,0c0.4,0.2,0.5,0.6,0.4,1l0,0   c-0.1,0.3-0.4,0.4-0.7,0.4l0,0C761,607.4,760.9,607.4,760.8,607.4z"></path>
	<path class="st10" d="M339.8,601.2L339.8,601.2c-0.2-0.4,0-0.8,0.4-1l0,0c0.4-0.2,0.8,0,1,0.4l0,0c0,0,0,0,0,0l0,0   c0.2,0.4,0,0.8-0.4,1l0,0c-0.1,0-0.2,0.1-0.3,0.1l0,0C340.2,601.7,339.9,601.5,339.8,601.2z"></path>
	<path class="st10" d="M766,595.6c-0.4-0.2-0.6-0.6-0.4-1l0,0l0,0l0,0c0.2-0.4,0.6-0.6,1-0.4l0,0c0.4,0.2,0.6,0.6,0.4,1l0,0   c-0.1,0.3-0.4,0.5-0.7,0.5l0,0C766.2,595.7,766.1,595.7,766,595.6z"></path>
	<path class="st10" d="M334.9,589.3c-0.1-0.4,0.1-0.8,0.5-1l0,0c0.4-0.1,0.8,0.1,1,0.5l0,0c0,0,0,0,0,0l0,0c0.2,0.4,0,0.8-0.4,1l0,0   c-0.1,0-0.2,0.1-0.3,0.1l0,0C335.3,589.8,335,589.6,334.9,589.3z"></path>
	<path class="st10" d="M770.6,583.6c-0.4-0.1-0.6-0.6-0.5-1l0,0c0.1-0.4,0.6-0.6,1-0.5l0,0c0.4,0.1,0.6,0.6,0.5,1l0,0   c-0.1,0.3-0.4,0.5-0.7,0.5l0,0C770.8,583.7,770.7,583.7,770.6,583.6z"></path>
	<path class="st10" d="M330.6,577.1c-0.1-0.4,0.1-0.8,0.5-1l0,0c0.4-0.1,0.8,0.1,1,0.5l0,0c0.1,0.4-0.1,0.8-0.5,1l0,0   c-0.1,0-0.2,0-0.2,0l0,0C331.1,577.6,330.8,577.4,330.6,577.1z"></path>
	<path class="st10" d="M774.5,571.4c-0.4-0.1-0.6-0.5-0.5-1l0,0c0.1-0.4,0.5-0.6,1-0.5l0,0c0.4,0.1,0.6,0.5,0.5,0.9l0,0   c-0.1,0.3-0.4,0.6-0.7,0.6l0,0C774.7,571.4,774.6,571.4,774.5,571.4z"></path>
	<path class="st10" d="M327.1,564.6c-0.1-0.4,0.1-0.8,0.6-0.9l0,0c0.4-0.1,0.8,0.1,0.9,0.6l0,0c0.1,0.4-0.1,0.8-0.6,0.9l0,0   c-0.1,0-0.1,0-0.2,0l0,0C327.5,565.2,327.2,565,327.1,564.6z"></path>
	<path class="st10" d="M777.8,558.9c-0.4-0.1-0.7-0.5-0.6-0.9l0,0l0,0l0,0c0.1-0.4,0.5-0.7,0.9-0.6l0,0c0.4,0.1,0.7,0.5,0.6,0.9l0,0   c-0.1,0.4-0.4,0.6-0.7,0.6l0,0C777.9,558.9,777.8,558.9,777.8,558.9z"></path>
	<path class="st10" d="M324.3,552.1L324.3,552.1c-0.1-0.4,0.2-0.8,0.6-0.9l0,0c0.4-0.1,0.8,0.2,0.9,0.6l0,0c0.1,0.4-0.2,0.8-0.6,0.9   l0,0c0,0-0.1,0-0.1,0l0,0C324.7,552.7,324.3,552.4,324.3,552.1z"></path>
	<path class="st10" d="M780.3,546.3c-0.4-0.1-0.7-0.5-0.6-0.9l0,0l0,0l0,0c0.1-0.4,0.5-0.7,0.9-0.6l0,0c0.4,0.1,0.7,0.5,0.6,0.9l0,0   c-0.1,0.4-0.4,0.6-0.8,0.6l0,0C780.4,546.3,780.3,546.3,780.3,546.3z"></path>
	<path class="st10" d="M322.1,539.3c-0.1-0.4,0.2-0.8,0.7-0.9l0,0c0.4-0.1,0.8,0.2,0.9,0.7l0,0l0,0l0,0c0.1,0.4-0.2,0.8-0.7,0.9l0,0   c0,0-0.1,0-0.1,0l0,0C322.5,540,322.2,539.7,322.1,539.3z"></path>
	<path class="st10" d="M782.1,533.6c-0.4-0.1-0.7-0.4-0.7-0.9l0,0c0.1-0.4,0.4-0.7,0.9-0.7l0,0c0.4,0,0.7,0.4,0.7,0.9v0   C782.9,533.3,782.6,533.6,782.1,533.6L782.1,533.6C782.1,533.6,782.1,533.6,782.1,533.6z"></path>
	<path class="st10" d="M320.7,526.5c0-0.4,0.3-0.8,0.7-0.8l0,0c0.4,0,0.8,0.3,0.8,0.7l0,0c0,0.4-0.3,0.8-0.7,0.8l0,0c0,0,0,0-0.1,0   l0,0C321.1,527.2,320.7,526.9,320.7,526.5z"></path>
	<path class="st10" d="M783.2,520.8c-0.4,0-0.7-0.4-0.7-0.8l0,0l0,0l0,0c0-0.4,0.4-0.7,0.8-0.7l0,0c0.4,0,0.8,0.4,0.7,0.8l0,0   C784,520.4,783.6,520.8,783.2,520.8L783.2,520.8C783.2,520.8,783.2,520.8,783.2,520.8z"></path>
	<path class="st10" d="M320,513.6L320,513.6c0-0.4,0.3-0.8,0.7-0.8l0,0c0.4,0,0.8,0.3,0.8,0.7l0,0c0,0.4-0.3,0.8-0.7,0.8l0,0   c0,0,0,0,0,0l0,0C320.3,514.4,320,514,320,513.6z"></path>
	<path class="st10" d="M678.2,526.5c-0.3,0-0.6-0.3-0.6-0.6l0,0c0-0.1,0-0.2,0-0.2l0,0c0-0.1,0-0.1,0-0.2l0,0l0,0l0,0   c0-0.3,0.3-0.6,0.6-0.6l0,0c0.3,0,0.6,0.3,0.6,0.6l0,0c0,0.1,0,0.2-0.1,0.2l0,0c0,0.1,0.1,0.1,0.1,0.2l0,0   C678.7,526.2,678.5,526.5,678.2,526.5L678.2,526.5L678.2,526.5z"></path>
	<path class="st10" d="M320.7,501.5c-0.4,0-0.8-0.4-0.7-0.8l0,0c0-0.4,0.4-0.8,0.8-0.7l0,0c0.4,0,0.8,0.4,0.8,0.8l0,0l0,0l0,0   C321.5,501.2,321.2,501.5,320.7,501.5L320.7,501.5C320.7,501.5,320.7,501.5,320.7,501.5z"></path>
	<path class="st10" d="M782.5,493.8C782.5,493.8,782.5,493.8,782.5,493.8L782.5,493.8c0-0.4,0.3-0.8,0.7-0.8l0,0   c0.4,0,0.8,0.3,0.8,0.7l0,0c0,0.4-0.3,0.8-0.7,0.8l0,0c0,0,0,0,0,0l0,0C782.8,494.5,782.5,494.2,782.5,493.8z"></path>
	<path class="st10" d="M783,506.4C783,506.4,783,506.4,783,506.4L783,506.4c0-0.4,0.3-0.8,0.7-0.8l0,0c0.4,0,0.8,0.3,0.8,0.7l0,0   c0,0.4-0.3,0.8-0.7,0.8l0,0c0,0,0,0,0,0l0,0C783.4,507.2,783,506.8,783,506.4z"></path>
	<path class="st10" d="M321.4,488.6c-0.4,0-0.7-0.4-0.7-0.8l0,0c0-0.4,0.4-0.7,0.8-0.7l0,0c0.4,0,0.7,0.4,0.7,0.8l0,0   C322.2,488.3,321.8,488.6,321.4,488.6L321.4,488.6C321.4,488.6,321.4,488.6,321.4,488.6z"></path>
	<path class="st10" d="M781.4,481C781.4,481,781.4,481,781.4,481L781.4,481c0-0.4,0.3-0.8,0.7-0.9l0,0c0.4,0,0.8,0.3,0.8,0.7l0,0   c0,0.4-0.3,0.8-0.7,0.8l0,0c0,0-0.1,0-0.1,0l0,0C781.8,481.7,781.4,481.4,781.4,481z"></path>
	<path class="st10" d="M322.7,475.9c-0.4-0.1-0.7-0.4-0.7-0.9l0,0c0.1-0.4,0.4-0.7,0.9-0.7l0,0c0.4,0.1,0.7,0.4,0.7,0.9l0,0   c-0.1,0.4-0.4,0.7-0.8,0.7l0,0C322.8,475.9,322.8,475.9,322.7,475.9z"></path>
	<path class="st10" d="M779.6,468.3c-0.1-0.4,0.2-0.8,0.6-0.9l0,0c0.4-0.1,0.8,0.2,0.9,0.6l0,0c0.1,0.4-0.2,0.8-0.6,0.9l0,0   c0,0-0.1,0-0.1,0l0,0C780,469,779.7,468.7,779.6,468.3z"></path>
	<path class="st10" d="M324.8,463.2c-0.4-0.1-0.7-0.5-0.6-0.9h0c0.1-0.4,0.5-0.7,0.9-0.6l0,0c0.4,0.1,0.7,0.5,0.6,0.9l0,0l0,0l0,0   c-0.1,0.4-0.4,0.6-0.8,0.6l0,0C324.9,463.2,324.9,463.2,324.8,463.2z"></path>
	<path class="st10" d="M777.1,455.7L777.1,455.7L777.1,455.7c-0.1-0.4,0.2-0.8,0.6-0.9l0,0c0.4-0.1,0.8,0.2,0.9,0.6l0,0   c0.1,0.4-0.2,0.8-0.6,0.9l0,0c-0.1,0-0.1,0-0.2,0l0,0C777.5,456.3,777.2,456.1,777.1,455.7z"></path>
	<path class="st10" d="M327.6,450.6c-0.4-0.1-0.7-0.5-0.6-0.9l0,0c0.1-0.4,0.5-0.7,0.9-0.6l0,0c0.4,0.1,0.7,0.5,0.6,0.9l0,0   c-0.1,0.3-0.4,0.6-0.7,0.6l0,0C327.7,450.6,327.7,450.6,327.6,450.6z"></path>
	<path class="st10" d="M773.9,443.3C773.9,443.3,773.9,443.3,773.9,443.3L773.9,443.3c-0.1-0.4,0.1-0.8,0.5-0.9l0,0   c0.4-0.1,0.8,0.1,1,0.5l0,0c0.1,0.4-0.1,0.8-0.5,0.9l0,0c-0.1,0-0.1,0-0.2,0l0,0C774.3,443.9,774,443.7,773.9,443.3z"></path>
	<path class="st10" d="M331.1,438.2c-0.4-0.1-0.6-0.6-0.5-1l0,0c0.1-0.4,0.6-0.6,1-0.5l0,0c0.4,0.1,0.6,0.6,0.5,1l0,0   c-0.1,0.3-0.4,0.5-0.7,0.5l0,0C331.2,438.2,331.1,438.2,331.1,438.2z"></path>
	<path class="st10" d="M770,431.1C770,431.1,770,431.1,770,431.1L770,431.1c-0.1-0.4,0.1-0.8,0.5-1l0,0c0.4-0.1,0.8,0.1,1,0.5l0,0   c0.1,0.4-0.1,0.8-0.5,1l0,0c-0.1,0-0.2,0-0.3,0l0,0C770.5,431.6,770.1,431.4,770,431.1z"></path>
	<path class="st10" d="M335.2,426c-0.4-0.2-0.6-0.6-0.4-1l0,0c0.2-0.4,0.6-0.6,1-0.4l0,0c0.4,0.2,0.6,0.6,0.4,1l0,0l0,0l0,0   c-0.1,0.3-0.4,0.5-0.7,0.5l0,0C335.4,426.1,335.3,426.1,335.2,426z"></path>
	<path class="st10" d="M765.5,419.1c-0.2-0.4,0-0.8,0.4-1l0,0c0.4-0.2,0.8,0,1,0.4l0,0c0.2,0.4,0,0.8-0.4,1l0,0   c-0.1,0-0.2,0.1-0.3,0.1l0,0C765.9,419.6,765.6,419.4,765.5,419.1z"></path>
	<path class="st10" d="M340.1,414.1c-0.4-0.2-0.6-0.6-0.4-1l0,0c0.2-0.4,0.6-0.6,1-0.4l0,0c0.4,0.2,0.6,0.6,0.4,1l0,0   c-0.1,0.3-0.4,0.5-0.7,0.5l0,0C340.3,414.2,340.2,414.2,340.1,414.1z"></path>
	<path class="st10" d="M760.2,407.4C760.2,407.4,760.2,407.4,760.2,407.4L760.2,407.4c-0.2-0.4,0-0.8,0.4-1l0,0c0.4-0.2,0.8,0,1,0.4   l0,0c0.2,0.4,0,0.8-0.4,1l0,0c-0.1,0-0.2,0.1-0.3,0.1l0,0C760.7,407.8,760.4,407.6,760.2,407.4z"></path>
	<path class="st10" d="M345.5,402.5c-0.4-0.2-0.5-0.7-0.3-1l0,0c0.2-0.4,0.7-0.5,1-0.3l0,0c0.4,0.2,0.5,0.7,0.3,1l0,0   c-0.1,0.3-0.4,0.4-0.7,0.4l0,0C345.8,402.6,345.6,402.6,345.5,402.5z"></path>
	<path class="st10" d="M754.4,395.9c-0.2-0.4-0.1-0.8,0.3-1l0,0c0.4-0.2,0.8-0.1,1,0.3l0,0c0.2,0.4,0.1,0.8-0.3,1l0,0   c-0.1,0.1-0.2,0.1-0.4,0.1l0,0C754.8,396.3,754.5,396.2,754.4,395.9z"></path>
	<path class="st10" d="M351.7,391.2c-0.4-0.2-0.5-0.7-0.3-1l0,0c0.2-0.4,0.7-0.5,1.1-0.3l0,0c0.4,0.2,0.5,0.7,0.3,1.1l0,0   c-0.1,0.2-0.4,0.4-0.7,0.4l0,0C351.9,391.3,351.8,391.3,351.7,391.2z"></path>
	<path class="st10" d="M747.9,384.9c-0.2-0.4-0.1-0.8,0.2-1.1l0,0c0.4-0.2,0.8-0.1,1.1,0.2l0,0c0.2,0.4,0.1,0.8-0.2,1.1l0,0   c-0.1,0.1-0.3,0.1-0.4,0.1l0,0C748.3,385.2,748,385.1,747.9,384.9z"></path>
	<path class="st10" d="M358.4,380.3c-0.4-0.2-0.5-0.7-0.2-1.1l0,0c0.2-0.4,0.7-0.5,1.1-0.2l0,0c0.4,0.2,0.5,0.7,0.2,1.1l0,0l0,0l0,0   c-0.1,0.2-0.4,0.3-0.6,0.3l0,0C358.7,380.4,358.5,380.4,358.4,380.3z"></path>
	<path class="st10" d="M740.8,374.2c-0.2-0.3-0.2-0.8,0.2-1.1l0,0c0.3-0.2,0.8-0.2,1.1,0.2l0,0c0.2,0.3,0.2,0.8-0.2,1.1l0,0   c-0.1,0.1-0.3,0.1-0.4,0.1l0,0C741.2,374.5,740.9,374.4,740.8,374.2z"></path>
	<path class="st10" d="M365.8,369.7c-0.3-0.3-0.4-0.7-0.2-1.1l0,0c0.3-0.3,0.7-0.4,1.1-0.2l0,0c0.3,0.3,0.4,0.7,0.2,1.1l0,0   c-0.2,0.2-0.4,0.3-0.6,0.3l0,0C366.1,369.9,365.9,369.8,365.8,369.7z"></path>
	<path class="st10" d="M733.1,363.9c-0.3-0.3-0.2-0.8,0.1-1.1l0,0c0.3-0.3,0.8-0.2,1.1,0.1l0,0c0.3,0.3,0.2,0.8-0.1,1.1l0,0   c-0.1,0.1-0.3,0.2-0.5,0.2l0,0C733.5,364.2,733.2,364.1,733.1,363.9z"></path>
	<path class="st10" d="M373.7,359.6c-0.3-0.3-0.4-0.8-0.1-1.1v0c0.3-0.3,0.8-0.4,1.1-0.1l0,0c0.3,0.3,0.4,0.8,0.1,1.1l0,0l0,0l0,0   c-0.2,0.2-0.4,0.3-0.6,0.3l0,0C374,359.8,373.8,359.7,373.7,359.6z"></path>
	<path class="st10" d="M724.8,354.1C724.8,354.1,724.8,354.1,724.8,354.1L724.8,354.1c-0.3-0.3-0.3-0.8,0.1-1.1l0,0   c0.3-0.3,0.8-0.2,1.1,0.1l0,0c0.3,0.3,0.3,0.8-0.1,1.1l0,0c-0.1,0.1-0.3,0.2-0.5,0.2l0,0C725.2,354.3,725,354.2,724.8,354.1z"></path>
	<path class="st10" d="M382.1,349.9c-0.3-0.3-0.3-0.8,0-1.1l0,0c0.3-0.3,0.8-0.3,1.1,0l0,0c0.3,0.3,0.3,0.8,0,1.1l0,0l0,0l0,0   c-0.2,0.2-0.4,0.2-0.6,0.2l0,0C382.5,350.1,382.3,350.1,382.1,349.9z"></path>
	<path class="st10" d="M716.1,344.7c-0.3-0.3-0.3-0.8,0-1.1l0,0c0.3-0.3,0.8-0.3,1.1,0l0,0c0.3,0.3,0.3,0.8,0,1.1l0,0   c-0.2,0.2-0.3,0.2-0.5,0.2l0,0C716.4,344.9,716.2,344.9,716.1,344.7z"></path>
	<path class="st10" d="M391.1,340.7c-0.3-0.3-0.3-0.8,0-1.1l0,0c0.3-0.3,0.8-0.3,1.1,0l0,0c0.3,0.3,0.3,0.8,0,1.1l0,0   c-0.1,0.1-0.3,0.2-0.5,0.2l0,0C391.5,340.9,391.3,340.9,391.1,340.7z"></path>
	<path class="st10" d="M706.8,335.9c-0.3-0.3-0.3-0.8-0.1-1.1l0,0c0.3-0.3,0.8-0.3,1.1-0.1l0,0c0.3,0.3,0.3,0.8,0.1,1.1l0,0   c-0.2,0.2-0.4,0.3-0.6,0.3l0,0C707.1,336.1,707,336,706.8,335.9z"></path>
	<path class="st10" d="M400.6,332c-0.3-0.3-0.2-0.8,0.1-1.1l0,0c0.3-0.3,0.8-0.2,1.1,0.1l0,0c0.3,0.3,0.2,0.8-0.1,1.1l0,0   c-0.1,0.1-0.3,0.2-0.5,0.2l0,0C401,332.3,400.8,332.2,400.6,332z"></path>
	<path class="st10" d="M697.1,327.5L697.1,327.5L697.1,327.5c-0.3-0.3-0.4-0.8-0.1-1.1l0,0c0.3-0.3,0.7-0.4,1.1-0.1l0,0   c0.3,0.3,0.4,0.7,0.1,1.1l0,0c-0.2,0.2-0.4,0.3-0.6,0.3l0,0C697.4,327.7,697.2,327.6,697.1,327.5z"></path>
	<path class="st10" d="M410.6,323.9c-0.3-0.3-0.2-0.8,0.1-1.1l0,0c0.3-0.3,0.8-0.2,1.1,0.1l0,0c0.3,0.3,0.2,0.8-0.1,1.1l0,0   c-0.1,0.1-0.3,0.2-0.5,0.2l0,0C411,324.2,410.7,324.1,410.6,323.9z"></path>
	<path class="st10" d="M686.9,319.7c-0.3-0.2-0.4-0.7-0.2-1.1l0,0c0.2-0.3,0.7-0.4,1.1-0.2l0,0c0.3,0.3,0.4,0.7,0.2,1.1l0,0   c-0.2,0.2-0.4,0.3-0.6,0.3l0,0C687.2,319.9,687,319.8,686.9,319.7z"></path>
	<path class="st10" d="M421,316.3c-0.2-0.4-0.2-0.8,0.2-1.1l0,0c0.3-0.2,0.8-0.2,1.1,0.2l0,0c0.2,0.3,0.1,0.8-0.2,1.1l0,0   c-0.1,0.1-0.3,0.1-0.4,0.1l0,0C421.4,316.6,421.1,316.5,421,316.3z"></path>
	<path class="st10" d="M676.3,312.5c-0.4-0.2-0.5-0.7-0.2-1.1l0,0c0.2-0.4,0.7-0.5,1.1-0.2l0,0c0.4,0.2,0.5,0.7,0.2,1.1l0,0   c-0.1,0.2-0.4,0.4-0.6,0.4l0,0C676.5,312.7,676.4,312.6,676.3,312.5z"></path>
	<path class="st10" d="M431.8,309.3c-0.2-0.4-0.1-0.8,0.3-1.1l0,0c0.4-0.2,0.8-0.1,1.1,0.3l0,0c0.2,0.4,0.1,0.8-0.3,1.1l0,0   c-0.1,0.1-0.3,0.1-0.4,0.1l0,0C432.2,309.6,431.9,309.5,431.8,309.3z"></path>
	<path class="st10" d="M665.3,305.9C665.3,305.9,665.3,305.9,665.3,305.9L665.3,305.9c-0.4-0.2-0.5-0.7-0.3-1l0,0   c0.2-0.4,0.7-0.5,1-0.3l0,0c0.4,0.2,0.5,0.7,0.3,1l0,0c-0.1,0.2-0.4,0.4-0.7,0.4l0,0C665.6,306,665.4,306,665.3,305.9z"></path>
	<path class="st10" d="M443,302.9c-0.2-0.4-0.1-0.8,0.3-1l0,0c0.4-0.2,0.8-0.1,1,0.3l0,0c0.2,0.4,0.1,0.8-0.3,1l0,0l0,0l0,0   c-0.1,0.1-0.2,0.1-0.4,0.1l0,0C443.4,303.3,443.1,303.1,443,302.9z"></path>
	<path class="st10" d="M654,300c-0.4-0.2-0.5-0.7-0.3-1l0,0c0.2-0.4,0.6-0.5,1-0.3l0,0c0.4,0.2,0.5,0.6,0.3,1l0,0   c-0.1,0.3-0.4,0.4-0.7,0.4l0,0C654.2,300,654.1,300,654,300z"></path>
	<path class="st10" d="M454.5,297.1c-0.2-0.4,0-0.8,0.4-1l0,0c0.4-0.2,0.8,0,1,0.4l0,0c0.2,0.4,0,0.8-0.4,1l0,0   c-0.1,0-0.2,0.1-0.3,0.1l0,0C454.9,297.5,454.6,297.4,454.5,297.1z"></path>
	<path class="st10" d="M642.3,294.6L642.3,294.6L642.3,294.6c-0.4-0.2-0.6-0.6-0.4-1l0,0c0.2-0.4,0.6-0.6,1-0.4l0,0   c0.4,0.2,0.6,0.6,0.4,1l0,0c-0.1,0.3-0.4,0.5-0.7,0.5l0,0C642.5,294.7,642.4,294.7,642.3,294.6z"></path>
	<path class="st10" d="M466.3,292c-0.2-0.4,0-0.8,0.4-1l0,0c0.4-0.2,0.8,0,1,0.4l0,0c0.2,0.4,0,0.8-0.4,1l0,0c-0.1,0-0.2,0-0.3,0   l0,0C466.7,292.5,466.4,292.3,466.3,292z"></path>
	<path class="st10" d="M630.4,290c-0.4-0.1-0.6-0.6-0.5-1l0,0c0.1-0.4,0.6-0.6,1-0.5l0,0c0.4,0.1,0.6,0.6,0.5,1l0,0   c-0.1,0.3-0.4,0.5-0.7,0.5l0,0C630.6,290,630.5,290,630.4,290z"></path>
	<path class="st10" d="M478.4,287.5c-0.1-0.4,0.1-0.8,0.5-1l0,0c0.4-0.1,0.8,0.1,1,0.5l0,0c0.1,0.4-0.1,0.8-0.5,1l0,0   c-0.1,0-0.2,0-0.2,0l0,0C478.8,288.1,478.5,287.9,478.4,287.5z"></path>
	<path class="st10" d="M618.3,285.9c-0.4-0.1-0.6-0.5-0.5-1l0,0c0.1-0.4,0.5-0.6,1-0.5l0,0c0.4,0.1,0.6,0.6,0.5,1l0,0   c-0.1,0.3-0.4,0.6-0.7,0.6l0,0C618.4,286,618.3,286,618.3,285.9z"></path>
	<path class="st10" d="M490.7,283.8c-0.1-0.4,0.1-0.8,0.5-0.9l0,0c0.4-0.1,0.8,0.1,0.9,0.5l0,0c0.1,0.4-0.1,0.8-0.5,0.9l0,0   c-0.1,0-0.1,0-0.2,0l0,0C491.1,284.4,490.8,284.1,490.7,283.8z"></path>
	<path class="st10" d="M605.9,282.6c-0.4-0.1-0.7-0.5-0.6-0.9l0,0c0.1-0.4,0.5-0.7,0.9-0.6l0,0c0.4,0.1,0.7,0.5,0.6,0.9l0,0   c-0.1,0.4-0.4,0.6-0.7,0.6l0,0C606,282.6,605.9,282.6,605.9,282.6z"></path>
	<path class="st10" d="M503.2,280.7c-0.1-0.4,0.2-0.8,0.6-0.9l0,0c0.4-0.1,0.8,0.2,0.9,0.6l0,0c0.1,0.4-0.2,0.8-0.6,0.9l0,0   c-0.1,0-0.1,0-0.2,0l0,0C503.6,281.3,503.3,281.1,503.2,280.7z"></path>
	<path class="st10" d="M593.3,280c-0.4-0.1-0.7-0.5-0.6-0.9l0,0c0.1-0.4,0.5-0.7,0.9-0.6l0,0c0.4,0.1,0.7,0.5,0.6,0.9l0,0   c-0.1,0.4-0.4,0.6-0.8,0.6l0,0C593.4,280,593.4,280,593.3,280z"></path>
	<path class="st10" d="M515.9,278.4c-0.1-0.4,0.2-0.8,0.6-0.9l0,0c0.4-0.1,0.8,0.2,0.9,0.6l0,0c0.1,0.4-0.2,0.8-0.6,0.9l0,0   c0,0-0.1,0-0.1,0l0,0C516.2,279,515.9,278.8,515.9,278.4z"></path>
	<path class="st10" d="M580.6,278.1c-0.4-0.1-0.7-0.4-0.7-0.9l0,0c0.1-0.4,0.4-0.7,0.9-0.7l0,0c0.4,0.1,0.7,0.4,0.7,0.9l0,0   C581.5,277.8,581.1,278.1,580.6,278.1L580.6,278.1C580.7,278.1,580.7,278.1,580.6,278.1z"></path>
	<path class="st10" d="M528.6,276.7c0-0.4,0.3-0.8,0.7-0.8l0,0c0.4,0,0.8,0.3,0.8,0.7l0,0c0,0.4-0.3,0.8-0.7,0.8l0,0c0,0,0,0-0.1,0   l0,0C529,277.4,528.6,277.1,528.6,276.7z"></path>
	<path class="st10" d="M567.9,276.9c-0.4,0-0.7-0.4-0.7-0.8l0,0c0-0.4,0.4-0.7,0.8-0.7l0,0c0.4,0,0.7,0.4,0.7,0.8l0,0   C568.7,276.5,568.3,276.9,567.9,276.9L567.9,276.9C567.9,276.9,567.9,276.9,567.9,276.9z"></path>
	<path class="st10" d="M541.4,275.8c0-0.4,0.3-0.8,0.7-0.8l0,0c0.4,0,0.8,0.3,0.8,0.7l0,0c0,0.4-0.3,0.8-0.7,0.8l0,0c0,0,0,0,0,0   l0,0C541.8,276.5,541.5,276.2,541.4,275.8z"></path>
	<path class="st10" d="M555.1,276.3C555.1,276.3,555.1,276.3,555.1,276.3L555.1,276.3c-0.4,0-0.8-0.4-0.8-0.8l0,0   c0-0.4,0.4-0.8,0.8-0.8l0,0c0.4,0,0.8,0.4,0.8,0.8l0,0C555.8,276,555.5,276.3,555.1,276.3L555.1,276.3   C555.1,276.3,555.1,276.3,555.1,276.3z"></path>
</g>
</svg>
