<?xml version="1.0" encoding="UTF-8"?>
<!-- Generator: Adobe Illustrator 17.0.0, SVG Export Plug-In . SVG Version: 6.00 Build 0)  -->
<svg xmlns="http://www.w3.org/2000/svg" xmlns:xlink="http://www.w3.org/1999/xlink" version="1.1" id="Layer_1" x="0px" y="0px" width="190px" height="102.98px" viewBox="0 0 190 102.98" style="enable-background:new 0 0 190 102.98;" xml:space="preserve">
<style type="text/css">
	.st0{fill:#7CBAE8;}
	.st1{fill:#FFFFFF;}
	.st2{fill:#003B63;}
</style>
<g>
	<g>
		<path class="st0" d="M87.73,100.98c-27.35,0-49.59-22.2-49.59-49.49c0-27.29,22.25-49.5,49.59-49.5c27.35,0,49.59,22.2,49.59,49.5    C137.32,78.78,115.07,100.98,87.73,100.98z"></path>
		<path class="st1" d="M87.73,3.99c26.29,0,47.6,21.27,47.6,47.5c0,26.23-21.31,47.5-47.6,47.5c-26.29,0-47.6-21.26-47.6-47.5    C40.13,25.26,61.44,3.99,87.73,3.99 M87.73,0C59.28,0,36.14,23.1,36.14,51.49c0,28.39,23.14,51.49,51.59,51.49    c28.45,0,51.59-23.1,51.59-51.49C139.32,23.1,116.17,0,87.73,0L87.73,0z"></path>
	</g>
	<path class="st1" d="M129.73,41.61c-2.19-9.23-7.54-17.6-15.03-23.56c-7.72-6.14-17.05-9.39-26.96-9.39   c-9.92,0-19.24,3.25-26.96,9.39c-7.5,5.97-12.84,14.33-15.03,23.56l1.79,0c2.16-8.69,7.24-16.57,14.33-22.2   c7.41-5.9,16.36-9.01,25.88-9.01c9.52,0,18.47,3.12,25.88,9.01c7.08,5.64,12.16,13.51,14.33,22.2L129.73,41.61z"></path>
	<path class="st1" d="M47.54,61.44c2.17,8.67,7.24,16.52,14.31,22.14c7.41,5.89,16.36,9.01,25.88,9.01c9.51,0,18.45-3.11,25.86-8.99   c7.08-5.62,12.16-13.48,14.33-22.16h1.79c-2.21,9.21-7.55,17.57-15.04,23.52c-7.72,6.13-17.03,9.37-26.94,9.37   c-9.92,0-19.24-3.25-26.97-9.39c-7.48-5.95-12.81-14.29-15.01-23.5L47.54,61.44z"></path>
	<g>
		<polygon class="st2" points="0,47.57 3.88,47.57 3.88,57.27 5.95,57.27 5.95,47.57 9.76,47.57 9.76,45.69 0,45.69   "></polygon>
		<polygon class="st2" points="20.02,50.9 14.36,50.9 14.36,45.69 12.31,45.69 12.31,57.27 14.36,57.27 14.36,52.71 20.02,52.71     20.02,57.27 22.07,57.27 22.07,45.71 20.02,45.71   "></polygon>
		<polygon class="st2" points="26.1,57.27 33.65,57.27 33.65,55.39 28.15,55.39 28.15,52.63 33.14,52.63 33.14,50.81 28.15,50.81     28.15,47.57 33.65,47.57 33.65,45.69 26.1,45.69   "></polygon>
	</g>
	<path class="st1" d="M45.05,57.27c0.94,0,2.03,0,2.03,0s-0.31-3.08-0.31-4.52c0.99,0,5.2,0,5.2,0v-1.81c0,0-4.38,0-5.2,0   c0-1.46,0.22-3.38,0.22-3.38h5.61v-1.88c0,0-5.96,0-7.55,0C44.49,49.31,44.58,53.67,45.05,57.27z"></path>
	<path class="st1" d="M63.85,49.81c0-2.42-1.55-4.12-4.64-4.12h-3.72v11.58h2.05v-3.36h1.27c0.36,0,0.71-0.02,1.04-0.05l2.46,3.41   h2.4l-2.97-3.92C63.18,52.67,63.85,51.41,63.85,49.81z M59.06,52.1h-1.52v-4.53h1.52c1.93,0,2.58,0.97,2.58,2.24   C61.63,51.08,60.97,52.1,59.06,52.1z"></path>
	<polygon class="st1" points="67.54,57.27 75.09,57.27 75.09,55.39 69.59,55.39 69.59,52.63 74.58,52.63 74.58,50.81 69.59,50.81    69.59,47.57 75.09,47.57 75.09,45.69 67.54,45.69  "></polygon>
	<polygon class="st1" points="78.68,57.27 86.22,57.27 86.22,55.39 80.72,55.39 80.72,52.63 85.71,52.63 85.71,50.81 80.72,50.81    80.72,47.57 86.22,47.57 86.22,45.69 78.68,45.69  "></polygon>
	<path class="st1" d="M94.18,45.69H89.8v11.58h4.38c3.55,0,6.21-2.49,6.21-5.8C100.39,48.11,97.78,45.69,94.18,45.69z M94.2,55.39   h-2.33v-7.83h2.33c2.33,0,4,1.66,4,3.94C98.19,53.76,96.44,55.39,94.2,55.39z"></path>
	<path class="st1" d="M109.14,45.49c-3.48,0-6.19,2.64-6.19,5.98c0,3.43,2.64,5.98,6.19,5.98s6.21-2.57,6.21-5.98   C115.34,48.01,112.74,45.49,109.14,45.49z M109.15,55.66c-2.25,0-4-1.83-4-4.15c0-2.37,1.7-4.17,4-4.17c2.33,0,3.99,1.8,3.99,4.17   C113.15,53.86,111.4,55.66,109.15,55.66z"></path>
	<path class="st1" d="M129.23,45.64l-4.71,8.44l-4.82-8.44h-0.91l-0.33,11.64h2l0.03-6.54l3.62,6.64h0.71l4.07-7.54   c0,0,0.3,2.37-0.33,7.44c0.53,0,1.05,0,1.9,0c0.45-4.56,0.56-6.53-0.03-11.63C129.98,45.64,129.23,45.64,129.23,45.64z"></path>
	<g>
		<polygon class="st2" points="141.57,57.27 143.6,57.27 143.6,52.76 148.49,52.76 148.49,50.94 143.6,50.94 143.6,47.57     149.12,47.57 149.12,45.69 141.57,45.69   "></polygon>
		<path class="st2" d="M159.53,52.46c0,2.23-1.07,3.15-2.83,3.15c-1.75,0-2.76-0.92-2.76-3.13v-6.79h-2.05v6.79    c0,3.46,1.9,5.01,4.8,5.01c2.91,0,4.87-1.55,4.87-5.01v-6.79h-2.05L159.53,52.46L159.53,52.46z"></path>
		<polygon class="st2" points="173.33,53.08 166.15,45.62 165.5,45.62 165.5,57.27 167.55,57.27 167.55,50.09 174.83,57.35     175.38,57.35 175.38,45.69 173.33,45.69   "></polygon>
		<path class="st2" d="M183.79,45.69h-4.38v11.58h4.38c3.55,0,6.21-2.49,6.21-5.8C190,48.11,187.39,45.69,183.79,45.69z     M183.81,55.39h-2.33v-7.83h2.33c2.33,0,4,1.66,4,3.94C187.8,53.76,186.05,55.39,183.81,55.39z"></path>
	</g>
</g>
</svg>
