<?xml version="1.0" encoding="UTF-8"?>
<svg xmlns="http://www.w3.org/2000/svg" xmlns:xlink="http://www.w3.org/1999/xlink" width="19px" height="16px" viewBox="0 0 19 16" version="1.1">
  <title>icon-health</title>
  <g id="Desktop" stroke="none" stroke-width="1" fill="none" fill-rule="evenodd">
    <g id="Desktop:-Focus-Area:-1440px-" transform="translate(-464.000000, -727.000000)" fill="#64A357">
      <g id="icon-health" transform="translate(464.000000, 727.000000)">
        <path d="M13.4580074,3.19984191 L13.4580074,1.59992095 C13.4580074,1.15567413 13.3039111,0.777827182 12.9965006,0.46638012 C12.6883079,0.155723531 12.3144092,0 11.8748044,0 L7.12441334,0 C6.68480856,0 6.31090984,0.155723531 6.00349938,0.46638012 C5.69530671,0.777827182 5.54121037,1.15567413 5.54121037,1.59992095 L5.54121037,3.19984191 L1.58320296,3.19984191 C1.14281597,3.19984191 0.76891725,3.35556544 0.461506793,3.66622202 C0.153314121,3.97766909 0,4.35551603 0,4.79976286 L0,14.400079 C0,14.8443259 0.153314121,15.2229633 0.461506793,15.5336199 C0.76891725,15.8450669 1.14281597,16 1.58320296,16 L17.4160148,16 C17.8556196,16 18.2295183,15.8450669 18.537711,15.5336199 C18.8459037,15.2229633 19,14.8443259 19,14.400079 L19,4.79976286 C19,4.35551603 18.8459037,3.97766909 18.537711,3.66622202 C18.2295183,3.35556544 17.8556196,3.19984191 17.4160148,3.19984191 L13.4580074,3.19984191 Z M7.12441334,1.99990119 C7.12441334,1.88923472 7.16274187,1.79437775 7.24018114,1.71612075 C7.31683821,1.63865422 7.41070399,1.59992095 7.52021408,1.59992095 L11.4790037,1.59992095 C11.5885138,1.59992095 11.6823796,1.63865422 11.7590366,1.71612075 C11.8356937,1.79437775 11.8748044,1.88923472 11.8748044,1.99990119 L11.8748044,3.19984191 L7.12441334,3.19984191 L7.12441334,1.99990119 Z M12.6664059,10.4002767 L10.2916015,10.4002767 L10.2916015,12.8001581 L8.70839852,12.8001581 L8.70839852,10.4002767 L6.33281186,10.4002767 L6.33281186,8.80035571 L8.70839852,8.80035571 L8.70839852,6.39968381 L10.2916015,6.39968381 L10.2916015,8.80035571 L12.6664059,8.80035571 L12.6664059,10.4002767 Z" id="Fill-1"></path>
      </g>
    </g>
  </g>
</svg>
