<?xml version="1.0" encoding="UTF-8"?>
<svg xmlns="http://www.w3.org/2000/svg" xmlns:xlink="http://www.w3.org/1999/xlink" width="21px" height="16px" viewBox="0 0 21 16" version="1.1">
  <title>icon-education</title>
  <defs>
    <polygon id="path-1" points="0 0.00032 20.7256 0.00032 20.7256 15.94272 0 15.94272"></polygon>
  </defs>
  <g id="Desktop" stroke="none" stroke-width="1" fill="none" fill-rule="evenodd">
    <g id="Desktop:-Focus-Area:-1440px-" transform="translate(-144.000000, -725.000000)">
      <g id="icon-education" transform="translate(144.000000, 725.000000)">
        <g id="Group-3">
          <mask id="mask-2" fill="white">
            <use xlink:href="#path-1"></use>
          </mask>
          <g id="Clip-2"></g>
          <path d="M9.5656,11.57512 L2.3912,7.68872 L2.3912,12.70472 C2.3912,13.05912 2.5128,13.38552 2.7568,13.68392 C3,13.98312 3.3184,14.25192 3.712,14.48952 C4.1048,14.72792 4.556,14.93832 5.0648,15.12072 C5.5744,15.30312 6.0944,15.45592 6.6264,15.57752 C7.1576,15.69912 7.6776,15.79032 8.1872,15.85112 C8.696,15.91272 9.156,15.94312 9.5656,15.94312 C9.9864,15.94312 10.4568,15.91272 10.9768,15.85112 C11.4976,15.79032 12.0232,15.70232 12.5552,15.58552 C13.0864,15.46952 13.604,15.32312 14.108,15.14552 C14.6112,14.96872 15.0568,14.76072 15.4448,14.52312 C15.832,14.28472 16.1448,14.01352 16.3824,13.70872 C16.6208,13.40472 16.74,13.06952 16.74,12.70472 L16.74,8.66872 L9.5656,11.57512 Z M10.296,-8e-05 L-3.04112291e-13,4.58392 L9.5656,9.76472 L18.3344,6.24392 L18.3344,11.95672 L19.928,11.95672 L19.928,5.38072 L10.296,-8e-05 Z M20.144,14.45672 C20,13.93112 19.928,13.36312 19.928,12.75432 L18.3344,12.75432 C18.3344,13.35192 18.2592,13.93352 18.1096,14.49832 C17.9608,15.06232 17.7696,15.54392 17.5368,15.94312 L20.7256,15.94312 C20.4816,15.47752 20.288,14.98232 20.144,14.45672 L20.144,14.45672 Z" id="Fill-1" fill="#64A357" mask="url(#mask-2)"></path>
        </g>
      </g>
    </g>
  </g>
</svg>
