<?xml version="1.0" encoding="UTF-8"?>
<svg xmlns="http://www.w3.org/2000/svg" width="416" height="392" viewBox="0 0 416 392" fill="none">
  <mask id="mask0" maskUnits="userSpaceOnUse" x="0" y="0" width="416" height="392">
    <rect width="416" height="392" fill="white"></rect>
  </mask>
  <g mask="url(#mask0)">
    <mask id="mask1" maskUnits="userSpaceOnUse" x="32" y="-11" width="353" height="381">
      <path fill-rule="evenodd" clip-rule="evenodd" d="M384.146 -10.4312V370H32.1328V73.952H165.181L165.76 -10.4312H384.146Z" fill="white"></path>
    </mask>
    <g mask="url(#mask1)">
      <path fill-rule="evenodd" clip-rule="evenodd" d="M49.916 509.888V-677.334H94.7203V525.878L49.916 509.888Z" fill="#F6F3EE"></path>
    </g>
    <mask id="mask2" maskUnits="userSpaceOnUse" x="32" y="-11" width="353" height="381">
      <path fill-rule="evenodd" clip-rule="evenodd" d="M384.146 -10.4312V370H32.1328V73.952H165.181L165.76 -10.4312" fill="white"></path>
    </mask>
    <g mask="url(#mask2)">
      <path fill-rule="evenodd" clip-rule="evenodd" d="M310.246 -174.844H307.776H304.26H261.701V-158.765H306.65C317.043 -158.579 325.443 -150.043 325.443 -139.57V-138.175V525.879H341.468V-143.517C341.468 -160.819 327.49 -174.844 310.246 -174.844Z" fill="#F6F3EE"></path>
    </g>
    <mask id="mask3" maskUnits="userSpaceOnUse" x="32" y="-10" width="353" height="380">
      <path fill-rule="evenodd" clip-rule="evenodd" d="M384.463 -9.3291V370H32.1328V74.8096H165.301L165.88 -9.3291H384.463Z" fill="white"></path>
    </mask>
    <g mask="url(#mask3)">
      <path fill-rule="evenodd" clip-rule="evenodd" d="M205.793 116H222.491V-101.237H205.793V116Z" fill="#F6F3EE"></path>
      <path fill-rule="evenodd" clip-rule="evenodd" d="M294.294 195.375C294.294 240.135 258.036 276.421 213.308 276.421C168.581 276.421 132.322 240.135 132.322 195.375C132.322 150.615 168.581 114.329 213.308 114.329C258.036 114.329 294.294 150.615 294.294 195.375Z" fill="#8FA1CC"></path>
      <path fill-rule="evenodd" clip-rule="evenodd" d="M294.294 195.375C294.294 240.135 258.036 276.421 213.308 276.421C168.581 276.421 132.322 240.135 132.322 195.375C132.322 150.615 168.581 114.329 213.308 114.329C258.036 114.329 294.294 150.615 294.294 195.375Z" stroke="#4663AB" stroke-width="0.555"></path>
      <path fill-rule="evenodd" clip-rule="evenodd" d="M285.944 195.375C285.944 234.598 254.171 266.395 214.977 266.395C175.783 266.395 144.01 234.598 144.01 195.375C144.01 156.151 175.783 124.355 214.977 124.355C254.171 124.355 285.944 156.151 285.944 195.375Z" fill="#F6F3EE"></path>
      <path fill-rule="evenodd" clip-rule="evenodd" d="M285.944 195.375C285.944 234.598 254.171 266.395 214.977 266.395C175.783 266.395 144.01 234.598 144.01 195.375C144.01 156.151 175.783 124.355 214.977 124.355C254.171 124.355 285.944 156.151 285.944 195.375Z" stroke="#4663AB" stroke-width="0.488"></path>
      <path fill-rule="evenodd" clip-rule="evenodd" d="M254.217 195.375C254.217 217.063 236.648 234.645 214.977 234.645C193.305 234.645 175.736 217.063 175.736 195.375C175.736 173.687 193.305 156.105 214.977 156.105C236.648 156.105 254.217 173.687 254.217 195.375Z" fill="#FEFEFE"></path>
      <path fill-rule="evenodd" clip-rule="evenodd" d="M205.793 475.276H222.491V261.381H205.793V475.276Z" fill="#F6F3EE"></path>
      <path fill-rule="evenodd" clip-rule="evenodd" d="M133.992 211.422H145.681V211.077H133.992V211.422Z" fill="#4663AB"></path>
      <path fill-rule="evenodd" clip-rule="evenodd" d="M133.992 179.672H145.681V179.327H133.992V179.672Z" fill="#4663AB"></path>
      <path fill-rule="evenodd" clip-rule="evenodd" d="M205.618 276.421H205.97V266.395H205.618V276.421Z" fill="#4663AB"></path>
      <path fill-rule="evenodd" clip-rule="evenodd" d="M222.315 276.421H222.668V266.395H222.315V276.421Z" fill="#4663AB"></path>
      <path fill-rule="evenodd" clip-rule="evenodd" d="M88.7429 202.519C88.7429 202.519 94.483 211.022 112.978 211.18C131.472 211.337 152.359 211.18 152.359 211.18V179.371H114.891C114.891 179.371 97.1238 176.054 95.1654 162.674C93.2071 149.294 87.2363 151.184 87.2363 151.184L88.7429 202.519Z" fill="#F6F3EE"></path>
      <path fill-rule="evenodd" clip-rule="evenodd" d="M152.19 207.366H113.315C87.9577 207.366 67.3281 186.56 67.3281 160.986V-592.498H77.4558V160.986C77.4558 180.928 93.5418 197.152 113.315 197.152H151.057" fill="#FEFEFE"></path>
      <path d="M152.19 207.366H113.315C87.9577 207.366 67.3281 186.56 67.3281 160.986V-592.498H77.4558V160.986C77.4558 180.928 93.5418 197.152 113.315 197.152H151.057" stroke="#EEE9DE" stroke-width="0.292"></path>
      <path d="M80.558 186.184C75.3141 179.321 72.209 170.831 72.209 161.65V-86.1975" stroke="#4663AB" stroke-width="1.665" stroke-linecap="round" stroke-dasharray="0.05 3.88"></path>
      <path fill-rule="evenodd" clip-rule="evenodd" d="M205.594 114.329H205.994V107.645H205.594V114.329Z" fill="#4663AB"></path>
      <path fill-rule="evenodd" clip-rule="evenodd" d="M220.621 114.329H221.022V107.645H220.621V114.329Z" fill="#4663AB"></path>
      <path fill-rule="evenodd" clip-rule="evenodd" d="M209.133 475.276H219.152V256.368H209.133V475.276Z" fill="#FEFEFE"></path>
      <path fill-rule="evenodd" clip-rule="evenodd" d="M219.152 475.276H209.133V256.368H219.152V475.276Z" stroke="#EEE9DE" stroke-width="0.292"></path>
      <path fill-rule="evenodd" clip-rule="evenodd" d="M154.029 570.526H99.9632C74.5312 570.526 53.8398 549.71 53.8398 524.124V-592.526H63.9975V524.124C63.9975 544.076 80.1318 560.307 99.9632 560.307H154.029V570.526Z" fill="#FEFEFE"></path>
      <path fill-rule="evenodd" clip-rule="evenodd" d="M154.029 570.526H99.9632C74.5312 570.526 53.8398 549.71 53.8398 524.124V-592.526H63.9975V524.124C63.9975 544.076 80.1318 560.307 99.9632 560.307H154.029V570.526Z" stroke="#EEE9DE" stroke-width="0.292"></path>
      <path fill-rule="evenodd" clip-rule="evenodd" d="M214.102 -111.994C184.645 -111.994 160.68 -135.986 160.68 -165.477C160.68 -194.967 184.645 -218.959 214.102 -218.959C243.559 -218.959 267.525 -194.967 267.525 -165.477C267.525 -135.986 243.559 -111.994 214.102 -111.994ZM214.102 142.335C243.607 142.335 267.525 166.28 267.525 195.817C267.525 225.354 243.607 249.299 214.102 249.299C184.597 249.299 160.68 225.354 160.68 195.817C160.68 166.28 184.597 142.335 214.102 142.335ZM339.378 -138.205C339.378 -155.987 324.978 -170.402 307.216 -170.402H276.496C273.978 -202.657 246.957 -228.133 214.102 -228.133C181.276 -228.133 154.272 -202.701 151.715 -170.485H114.388C102.171 -170.485 92.2314 -180.435 92.2314 -192.666V-627.619H82.2266V129.885V161.707V514.408H92.2314V185.033C98.0004 190.527 105.798 193.905 114.388 193.905H152.297C152.274 194.611 152.258 195.319 152.258 196.031C152.258 230.41 180.097 258.28 214.438 258.28C248.779 258.28 276.617 230.41 276.617 196.031C276.617 161.652 248.779 133.782 214.438 133.782C184.247 133.782 159.086 155.322 153.444 183.888H114.388C102.171 183.888 92.2314 173.938 92.2314 161.707V129.885V-169.361C98.0047 -163.857 105.806 -160.469 114.388 -160.469H151.715C154.144 -129.867 178.63 -105.39 209.211 -103.013V114.379H219.217V-100.995C249.665 -105.509 274.021 -129.899 276.481 -160.386H307.216C319.433 -160.386 329.373 -150.435 329.373 -138.205V528.75H339.378V-138.205V-138.205Z" fill="#FEFEFE"></path>
      <path d="M276.496 -170.402L276.351 -170.391L276.361 -170.256H276.496V-170.402ZM151.715 -170.485V-170.339H151.85L151.861 -170.473L151.715 -170.485ZM92.2314 -627.619H92.3774V-627.765H92.2314V-627.619ZM82.2266 -627.619V-627.765H82.0806V-627.619H82.2266ZM82.2266 514.408H82.0806V514.554H82.2266V514.408ZM92.2314 514.408V514.554H92.3774V514.408H92.2314ZM92.2314 185.033L92.3321 184.927L92.0854 184.693V185.033H92.2314ZM152.297 193.905L152.443 193.91L152.448 193.759H152.297V193.905ZM153.444 183.888V184.034H153.564L153.587 183.917L153.444 183.888ZM92.2314 -169.361L92.3322 -169.467L92.0854 -169.702V-169.361H92.2314ZM151.715 -160.469L151.861 -160.48L151.85 -160.615H151.715V-160.469ZM209.211 -103.013H209.357V-103.148L209.223 -103.159L209.211 -103.013ZM209.211 114.379H209.065V114.525H209.211V114.379ZM219.217 114.379V114.525H219.363V114.379H219.217ZM219.217 -100.995L219.195 -101.139L219.071 -101.12V-100.995H219.217ZM276.481 -160.386V-160.532H276.346L276.336 -160.398L276.481 -160.386ZM329.373 528.75H329.227V528.896H329.373V528.75ZM339.378 528.75V528.896H339.523V528.75H339.378ZM214.102 -112.14C184.726 -112.14 160.826 -136.067 160.826 -165.477H160.534C160.534 -135.906 184.564 -111.848 214.102 -111.848V-112.14ZM160.826 -165.477C160.826 -194.886 184.726 -218.813 214.102 -218.813V-219.105C184.564 -219.105 160.534 -195.047 160.534 -165.477H160.826ZM214.102 -218.813C243.478 -218.813 267.379 -194.886 267.379 -165.477H267.671C267.671 -195.047 243.64 -219.105 214.102 -219.105V-218.813ZM267.379 -165.477C267.379 -136.067 243.478 -112.14 214.102 -112.14V-111.848C243.64 -111.848 267.671 -135.906 267.671 -165.477H267.379ZM214.102 142.481C243.526 142.481 267.379 166.36 267.379 195.817H267.671C267.671 166.199 243.687 142.189 214.102 142.189V142.481ZM267.379 195.817C267.379 225.274 243.526 249.153 214.102 249.153V249.445C243.687 249.445 267.671 225.435 267.671 195.817H267.379ZM214.102 249.153C184.678 249.153 160.826 225.274 160.826 195.817H160.534C160.534 225.435 184.516 249.445 214.102 249.445V249.153ZM160.826 195.817C160.826 166.36 184.678 142.481 214.102 142.481V142.189C184.516 142.189 160.534 166.199 160.534 195.817H160.826ZM339.523 -138.205C339.523 -156.068 325.059 -170.548 307.216 -170.548V-170.256C324.897 -170.256 339.232 -155.907 339.232 -138.205H339.523ZM307.216 -170.548H276.496V-170.256H307.216V-170.548ZM276.642 -170.414C274.118 -202.744 247.034 -228.279 214.102 -228.279V-227.987C246.88 -227.987 273.838 -202.571 276.351 -170.391L276.642 -170.414ZM214.102 -228.279C181.199 -228.279 154.133 -202.787 151.57 -170.496L151.861 -170.473C154.412 -202.614 181.353 -227.987 214.102 -227.987V-228.279ZM151.715 -170.631H114.388V-170.339H151.715V-170.631ZM114.388 -170.631C102.251 -170.631 92.3774 -180.515 92.3774 -192.666H92.0854C92.0854 -180.355 102.09 -170.339 114.388 -170.339V-170.631ZM92.3774 -192.666V-627.619H92.0854V-192.666H92.3774ZM92.2314 -627.765H82.2266V-627.473H92.2314V-627.765ZM82.0806 -627.619V129.885H82.3726V-627.619H82.0806ZM82.0806 129.885V161.707H82.3726V129.885H82.0806ZM82.0806 161.707V514.408H82.3726V161.707H82.0806ZM82.2266 514.554H92.2314V514.262H82.2266V514.554ZM92.3774 514.408V185.033H92.0854V514.408H92.3774ZM92.1307 185.139C97.9257 190.657 105.759 194.051 114.388 194.051V193.759C105.837 193.759 98.0751 190.397 92.3321 184.927L92.1307 185.139ZM114.388 194.051H152.297V193.759H114.388V194.051ZM152.151 193.9C152.128 194.607 152.112 195.317 152.112 196.031H152.404C152.404 195.321 152.42 194.615 152.443 193.91L152.151 193.9ZM152.112 196.031C152.112 230.49 180.016 258.426 214.438 258.426V258.134C180.177 258.134 152.404 230.329 152.404 196.031H152.112ZM214.438 258.426C248.859 258.426 276.763 230.49 276.763 196.031H276.471C276.471 230.329 248.698 258.134 214.438 258.134V258.426ZM276.763 196.031C276.763 161.571 248.859 133.636 214.438 133.636V133.928C248.698 133.928 276.471 161.732 276.471 196.031H276.763ZM214.438 133.636C184.176 133.636 158.956 155.227 153.301 183.86L153.587 183.917C159.216 155.418 184.319 133.928 214.438 133.928V133.636ZM153.444 183.742H114.388V184.034H153.444V183.742ZM114.388 183.742C102.251 183.742 92.3774 173.857 92.3774 161.707H92.0854C92.0854 174.018 102.09 184.034 114.388 184.034V183.742ZM92.3774 161.707V129.885H92.0854V161.707H92.3774ZM92.3774 129.885V-169.361H92.0854V129.885H92.3774ZM92.1307 -169.256C97.9299 -163.727 105.767 -160.323 114.388 -160.323V-160.615C105.845 -160.615 98.0796 -163.988 92.3322 -169.467L92.1307 -169.256ZM114.388 -160.323H151.715V-160.615H114.388V-160.323ZM151.57 -160.457C154.004 -129.784 178.547 -105.25 209.2 -102.867L209.223 -103.159C178.713 -105.53 154.284 -129.95 151.861 -160.48L151.57 -160.457ZM209.065 -103.013V114.379H209.357V-103.013H209.065ZM209.211 114.525H219.217V114.233H209.211V114.525ZM219.363 114.379V-100.995H219.071V114.379H219.363ZM219.238 -100.85C249.749 -105.374 274.161 -129.814 276.627 -160.375L276.336 -160.398C273.882 -129.983 249.582 -105.645 219.195 -101.139L219.238 -100.85ZM276.481 -160.24H307.216V-160.532H276.481V-160.24ZM307.216 -160.24C319.353 -160.24 329.227 -150.355 329.227 -138.205H329.519C329.519 -150.516 319.514 -160.532 307.216 -160.532V-160.24ZM329.227 -138.205V528.75H329.519V-138.205H329.227ZM329.373 528.896H339.378V528.604H329.373V528.896ZM339.523 528.75V-138.205H339.232V528.75H339.523ZM339.523 -138.205V-138.205H339.232V-138.205H339.523Z" fill="#EEE9DE"></path>
      <path fill-rule="evenodd" clip-rule="evenodd" d="M150.689 207.908H152.359V197.881H150.689V207.908Z" fill="#FEFEFE"></path>
      <path d="M157.368 542.529C155.34 551.121 149.348 550.462 149.348 550.462H118.809L113.625 550.469C98.74 550.469 87.2363 538.283 87.2363 520.673V171.145" stroke="#63A356" stroke-width="1.665" stroke-linecap="round" stroke-dasharray="0.05 3.88"></path>
      <path fill-rule="evenodd" clip-rule="evenodd" d="M118.963 202.895L125.642 206.237V199.552L118.963 202.895Z" fill="#4663AB"></path>
      <path fill-rule="evenodd" clip-rule="evenodd" d="M127.312 187.855L120.633 184.513V191.197L127.312 187.855Z" fill="#63A356"></path>
      <path fill-rule="evenodd" clip-rule="evenodd" d="M214.142 47.4868L210.803 54.171H217.482L214.142 47.4868Z" fill="#4663AB"></path>
      <path fill-rule="evenodd" clip-rule="evenodd" d="M214.142 294.802L210.803 301.487H217.482L214.142 294.802Z" fill="#2D2439"></path>
      <path fill-rule="evenodd" clip-rule="evenodd" d="M72.2088 94.2761L68.8691 100.96H75.5484L72.2088 94.2761Z" fill="#4663AB"></path>
      <path fill-rule="evenodd" clip-rule="evenodd" d="M72.2088 0.697266L68.8691 7.38148H75.5484L72.2088 0.697266Z" fill="#4663AB"></path>
      <path fill-rule="evenodd" clip-rule="evenodd" d="M87.2361 146.079L90.5757 139.395H83.8965L87.2361 146.079Z" fill="#63A356"></path>
      <path fill-rule="evenodd" clip-rule="evenodd" d="M87.2361 54.171L90.5757 47.4868H83.8965L87.2361 54.171Z" fill="#63A356"></path>
      <path fill-rule="evenodd" clip-rule="evenodd" d="M87.2361 232.974L90.5757 226.289H83.8965L87.2361 232.974Z" fill="#63A356"></path>
      <path fill-rule="evenodd" clip-rule="evenodd" d="M87.2361 303.158L90.5757 296.474H83.8965L87.2361 303.158Z" fill="#63A356"></path>
      <path fill-rule="evenodd" clip-rule="evenodd" d="M334.369 137.724L331.029 144.408H337.709L334.369 137.724Z" fill="#2D2439"></path>
      <path fill-rule="evenodd" clip-rule="evenodd" d="M334.369 47.4868L331.029 54.171H337.709L334.369 47.4868Z" fill="#2D2439"></path>
      <path fill-rule="evenodd" clip-rule="evenodd" d="M334.369 231.302L331.029 237.987H337.709L334.369 231.302Z" fill="#2D2439"></path>
      <path fill-rule="evenodd" clip-rule="evenodd" d="M334.369 319.868L331.029 326.552H337.709L334.369 319.868Z" fill="#2D2439"></path>
      <path d="M157.368 179.928C155.34 188.501 149.348 187.843 149.348 187.843H118.809L113.625 187.851C98.74 187.851 87.2363 175.691 87.2363 158.12V-183.119" stroke="#63A356" stroke-width="1.665" stroke-linecap="round" stroke-dasharray="0.05 3.88"></path>
      <path d="M213.307 253.026C213.795 253.026 214.282 253.02 214.768 253.008C242.304 252.324 265.052 232.36 270 206.114C270 206.114 270.689 204.085 270.916 195.2V192.254C269.294 161.865 244.122 137.724 213.307 137.724C187.457 137.724 165.579 154.712 158.242 178.125C157.922 179.142 157.632 180.17 157.369 181.21" stroke="#4663AB" stroke-width="1.665" stroke-linecap="round" stroke-dasharray="0.05 3.88"></path>
      <path d="M204.124 251.355C181.286 247.357 163.08 230.026 157.947 207.748C157.947 207.748 157.41 201.863 150.094 201.823H114.685C107.112 201.823 100.012 199.776 93.916 196.21" stroke="#4663AB" stroke-width="1.665" stroke-linecap="round" stroke-dasharray="0.05 3.88"></path>
      <path fill-rule="evenodd" clip-rule="evenodd" d="M220.821 114.203V112.658H205.793V114.329" fill="#8FA1CC"></path>
      <path fill-rule="evenodd" clip-rule="evenodd" d="M214.134 105.974L210.803 112.658L217.482 112.648L214.134 105.974Z" fill="#8FA1CC"></path>
      <path d="M214.142 104.303V50.5623L214.056 -94.3696C214.319 -104.665 211.45 -107.876 209.133 -107.921" stroke="#4663AB" stroke-width="1.665" stroke-linecap="round" stroke-dasharray="0.05 3.88"></path>
      <path d="M270.916 547.561C272.967 556.132 279.023 555.475 279.023 555.475H302.455L307.695 555.482C322.741 555.482 334.369 543.326 334.369 525.76V501.513V-139.257C334.369 -154.252 322.173 -166.408 307.126 -166.408L301.887 -166.401H278.432C278.432 -166.401 272.076 -165.784 270.985 -157.92" stroke="#2D2439" stroke-width="1.665" stroke-linecap="round" stroke-dasharray="0.05 3.88"></path>
      <path fill-rule="evenodd" clip-rule="evenodd" d="M209.133 258.039H219.152V256.368H209.133V258.039Z" fill="#FEFEFE"></path>
      <path d="M214.142 466.921V259.577C214.142 259.577 214.06 253.74 205.793 253.026" stroke="#2D2439" stroke-width="1.665" stroke-linecap="round" stroke-dasharray="0.05 3.88"></path>
      <path fill-rule="evenodd" clip-rule="evenodd" d="M259.228 159.447L257.761 152.763L252.549 157.342L259.228 159.447Z" fill="#4663AB"></path>
      <path fill-rule="evenodd" clip-rule="evenodd" d="M174.066 152.763L167.387 154.696L172.419 159.447L174.066 152.763Z" fill="#4663AB"></path>
      <path fill-rule="evenodd" clip-rule="evenodd" d="M254.217 237.987L260.896 235.96L255.766 231.302L254.217 237.987Z" fill="#4663AB"></path>
      <path fill-rule="evenodd" clip-rule="evenodd" d="M169.057 231.302L170.846 237.987L175.736 233.093L169.057 231.302Z" fill="#4663AB"></path>
    </g>
  </g>
</svg>
