<?xml version="1.0" encoding="UTF-8"?>
<!-- Generator: Adobe Illustrator 24.0.0, SVG Export Plug-In . SVG Version: 6.00 Build 0)  -->
<svg xmlns="http://www.w3.org/2000/svg" xmlns:xlink="http://www.w3.org/1999/xlink" version="1.1" id="Layer_1" x="0px" y="0px" viewBox="0 0 31.6 30.2" style="enable-background:new 0 0 31.6 30.2;" xml:space="preserve">
<style type="text/css">
	.st0{fill:#2C4F31;}
</style>
<g id="graph">
	<path class="st0" d="M25,9.5H6.8V9.1c0-5,4.1-9.1,9.1-9.1S25,4.1,25,9.1V9.5z M7.6,8.8h16.7c-0.2-4.4-3.9-8-8.3-8S7.8,4.3,7.6,8.8z   "></path>
	<path class="st0" d="M0.1,8.8h31.6v0.8H0.1V8.8z M0.1,13.9H10v0.8H0.1V13.9z M0.1,19.1h8.2v0.8H0.1V19.1z M0.1,24.3h6.5v0.8H0.1   V24.3z M21.6,13.9h10v0.8h-10V13.9z M23.5,19.1h8.2v0.8h-8.2V19.1z M25.2,24.3h6.5v0.8h-6.5L25.2,24.3z"></path>
	<path class="st0" d="M27,29.9L19.4,9.5h-7.1L4.8,29.9l-0.7-0.2l7.7-20.9h8.1l7.8,20.9L27,29.9z"></path>
	<circle class="st0" cx="15.9" cy="19.8" r="4.9"></circle>
	<path class="st0" d="M15.9,25c-2.9,0-5.2-2.4-5.2-5.2s2.4-5.2,5.2-5.2s5.2,2.4,5.2,5.2S18.8,25,15.9,25z M15.9,15.3   c-2.5,0-4.5,2-4.5,4.5s2,4.5,4.5,4.5s4.5-2,4.5-4.5S18.3,15.3,15.9,15.3z"></path>
	<path class="st0" d="M31.7,30.2h-4.5l-0.1-0.1c-6.2-6.2-16.2-6.2-22.4,0l-0.1,0.1H0.1v-0.8h4.2c6.4-6.3,16.8-6.3,23.2,0h4.2V30.2z"></path>
</g>
</svg>
