<?xml version="1.0" encoding="UTF-8"?>
<!-- Generator: Adobe Illustrator 24.0.0, SVG Export Plug-In . SVG Version: 6.00 Build 0)  -->
<svg xmlns="http://www.w3.org/2000/svg" xmlns:xlink="http://www.w3.org/1999/xlink" version="1.1" id="Layer_1" x="0px" y="0px" viewBox="0 0 26.7 39" style="enable-background:new 0 0 26.7 39;" xml:space="preserve">
<style type="text/css">
	.st0{fill:#2C4F31;}
</style>
<g id="graph">
	<path class="st0" d="M25.2,3.5C24.7,3,24,2.6,23.4,2.3c-1.9-0.7-4-0.3-5.5,1.2C17.4,4,17,4.6,16.8,5.2c-0.3-0.6-0.6-1.2-1.1-1.7   C14.2,2,12,1.6,10.1,2.3C9.4,2.5,8.8,2.9,8.3,3.5c-2,2-2,5.3,0,7.4l8.5,8.9l8.5-8.9C27.2,8.9,27.2,5.5,25.2,3.5z M16.7,14.8   c-1.9,0-3.5-1.6-3.5-3.5s1.5-3.5,3.5-3.5s3.5,1.6,3.5,3.5S18.6,14.8,16.7,14.8z"></path>
	<path class="st0" d="M10.6,28.5H7.3c-3,0-5.6-2.3-6-5.3l-1.2-9.1c-0.2-1.2,0.2-2.4,1-3.4c0.8-0.8,2.2-1.4,3.4-1.4l0,0l0.1,0.6l0,0   c-1,0-2.2,0.7-2.9,1.5s-1,1.8-0.8,2.8l1.2,9.1c0.3,2.5,2.5,4.5,5.2,4.5h3.3c2.6,0,4.9-2,5.2-4.6l0.9-7.2l0.7,0.1l-0.9,7.2   C16.2,26.3,13.6,28.5,10.6,28.5z"></path>
	<path class="st0" d="M16.7,36.7c-4.5,0-8.1-3.6-8.1-8.1h0.8c0,4.1,3.3,7.4,7.4,7.4s7.4-3.3,7.4-7.4v-9.5c0-1.9-0.7-3.8-1.9-4.9   l0.5-0.5c1.3,1.3,2.1,3.4,2.1,5.5v9.5C24.8,33,21.1,36.7,16.7,36.7z M4.5,13.3c-1.1,0-2-0.9-2-2s0.9-2,2-2s2,0.9,2,2   S5.6,13.3,4.5,13.3z M4.5,10.1c-0.6,0-1.2,0.6-1.2,1.2s0.5,1.2,1.2,1.2s1.2-0.5,1.2-1.2S5.2,10.1,4.5,10.1z M16.7,13.3   c-1.1,0-2-0.9-2-2s0.9-2,2-2s2,0.9,2,2S17.7,13.3,16.7,13.3z M16.7,10.1c-0.7,0-1.2,0.5-1.2,1.2s0.5,1.2,1.2,1.2s1.2-0.5,1.2-1.2   S17.3,10.1,16.7,10.1z"></path>
	<path class="st0" d="M8.6,28l-7.8-8.5L1.4,19l7.5,8.2l7.5-8.2l0.5,0.5L9.2,28H8.6z"></path>
</g>
<polygon class="st0" points="22.6,13.5 22.8,13.7 22.4,14.2 22.3,14.2 22.1,14.1 "></polygon>
<polyline class="st0" points="8.6,28.6 8.6,28.4 9.3,28.4 9.3,28.5 9.4,28.6 9,28.8 8.8,28.8 "></polyline>
</svg>
