<?xml version="1.0" encoding="UTF-8"?>
<!-- Generator: Adobe Illustrator 24.0.0, SVG Export Plug-In . SVG Version: 6.00 Build 0)  -->
<svg xmlns="http://www.w3.org/2000/svg" xmlns:xlink="http://www.w3.org/1999/xlink" version="1.1" id="Layer_1" x="0px" y="0px" viewBox="0 0 35 29.7" style="enable-background:new 0 0 35 29.7;" xml:space="preserve">
<style type="text/css">
	.st0{fill:#2C4F31;}
</style>
<g id="graph">
	<path class="st0" d="M11.9,25h-0.8V2.2h0.4c6.2,0,11.3,4.8,11.6,11h-0.8C22.1,7.5,17.5,3.1,11.9,2.9V25z"></path>
	<path class="st0" d="M1.7,19.9l-0.2-0.3c-1.5-2.7-2-5.8-1.2-8.8s2.7-5.5,5.4-7c1.9-1.1,3.7-1.6,5.8-1.6h0.4v12h-0.3   C11.6,14.2,1.7,19.9,1.7,19.9z M11.2,2.9C9.4,3,7.8,3.4,6.2,4.3c-2.6,1.5-4.4,3.9-5.1,6.6S0.7,16.4,2,18.8l9.2-5.3   C11.2,13.5,11.2,2.9,11.2,2.9z"></path>
	<path class="st0" d="M11.5,13.7v11.2c-4.1,0-7.7-2-9.7-5.6L11.5,13.7z"></path>
	<path class="st0" d="M11.9,25.3h-0.4c-4.3,0-7.9-2.1-10-5.8l-0.2-0.3l10.6-6.1C11.9,13.1,11.9,25.3,11.9,25.3z M2.3,19.5   c1.9,3.1,5.1,5,8.8,5.1V14.4C11.1,14.4,2.3,19.5,2.3,19.5z"></path>
	<path class="st0" d="M3.1,5.8l0.5-0.5l8.5,8.5l-0.5,0.5L3.1,5.8z"></path>
	<path class="st0" d="M11.5,14.2L11,13.6l6.1-4.8l5.5,3.8l5.7-8.9l6-3.7l0.4,0.7l-6,3.6l-5.8,9.3l-5.8-3.9L11.5,14.2z M11.5,24.5   h23.2v0.8H11.5V24.5z M11.5,26.7h23.2v0.8H11.5V26.7z M11.5,28.9h23.2v0.8H11.5V28.9z"></path>
	<circle class="st0" cx="17.1" cy="21.9" r="0.8"></circle>
	<circle class="st0" cx="22.8" cy="21.9" r="0.8"></circle>
	<circle class="st0" cx="28.5" cy="21.9" r="0.8"></circle>
	<circle class="st0" cx="34.2" cy="21.9" r="0.8"></circle>
	<circle class="st0" cx="17.1" cy="17.5" r="0.8"></circle>
	<circle class="st0" cx="17.1" cy="13.2" r="0.8"></circle>
	<circle class="st0" cx="22.8" cy="17.5" r="0.8"></circle>
	<circle class="st0" cx="28.5" cy="17.5" r="0.8"></circle>
	<circle class="st0" cx="28.5" cy="13.2" r="0.8"></circle>
	<circle class="st0" cx="28.5" cy="8.8" r="0.8"></circle>
	<circle class="st0" cx="34.2" cy="17.5" r="0.8"></circle>
	<circle class="st0" cx="17.1" cy="13.2" r="0.8"></circle>
	<circle class="st0" cx="34.2" cy="13.2" r="0.8"></circle>
	<circle class="st0" cx="34.2" cy="8.8" r="0.8"></circle>
	<circle class="st0" cx="34.2" cy="4.5" r="0.8"></circle>
	<circle class="st0" cx="34.2" cy="4.5" r="0.8"></circle>
</g>
</svg>
