<?xml version="1.0" encoding="UTF-8"?>
<!-- Generator: Adobe Illustrator 24.0.0, SVG Export Plug-In . SVG Version: 6.00 Build 0)  -->
<svg xmlns="http://www.w3.org/2000/svg" xmlns:xlink="http://www.w3.org/1999/xlink" version="1.1" id="Layer_1" x="0px" y="0px" viewBox="0 0 33 30.2" style="enable-background:new 0 0 33 30.2;" xml:space="preserve">
<style type="text/css">
	.st0{fill:#2C4F31;}
</style>
<g id="graph">
	<path class="st0" d="M3.9,23.9C0.1,19.5-1,13.2,1,7.7L1.7,8c-1.9,5.2-0.9,11.2,2.7,15.5L3.9,23.9z M7.5,20.9   c-2.7-3.2-3.5-7.7-2-11.6l0.7,0.3C4.8,13.3,5.5,17.4,8,20.4L7.5,20.9z M32,19l-0.7-0.3c1.9-5.3,0.9-11.2-2.7-15.5l0.6-0.5   C32.9,7.2,34,13.5,32,19z M27.6,17.4l-0.7-0.3c1.3-3.7,0.6-7.9-1.9-10.9l0.6-0.5C28.2,9,29,13.4,27.6,17.4z M19,27.3   c0,1.4-1.1,2.5-2.5,2.5S14,28.7,14,27.3c0-0.4,0.1-0.7,0.2-1l1.2-0.2l2.6-0.5l0.3-0.1C18.7,26.1,19,26.7,19,27.3z"></path>
	<path class="st0" d="M16.5,30.2c-1.6,0-2.9-1.3-2.9-2.9c0-0.4,0.1-0.8,0.2-1.2l0.1-0.1l4.6-0.8l0,0c0.5,0.5,0.8,1.2,0.8,2   C19.3,28.9,18,30.2,16.5,30.2z M14.5,26.7c-0.1,0.2-0.1,0.5-0.1,0.7c0,1.2,0.9,2.1,2.1,2.1s2.1-0.9,2.1-2.1c0-0.5-0.2-1-0.5-1.3   L14.5,26.7z"></path>
	<path class="st0" d="M9,27.6L8.6,27l0.9-1.3c0.9-1.3,1.2-2.8,1-4.3l-1.2-6.9c-0.3-2,0.1-4,1.3-5.6s2.9-2.7,4.9-3   c3.9-0.5,7.6,2.2,8.3,6.2l1.2,6.7c0.3,1.5,1.1,2.9,2.4,3.7l1.3,0.9l-0.2,0.8L18,26l-0.1-0.7l9.6-1.7l-0.6-0.4   c-1.4-1-2.4-2.5-2.7-4.2L23,12.3c-0.6-3.6-4-6-7.4-5.6c-1.8,0.3-3.4,1.2-4.4,2.7c-1.1,1.5-1.5,3.2-1.2,5l1.2,6.9   c0.3,1.7-0.1,3.4-1.1,4.9l-0.4,0.5l4.7-0.8l0.1,0.7C14.5,26.6,9,27.6,9,27.6z"></path>
	<path class="st0" d="M16.5,4.8C12.6,4.8,9,3.3,6.2,0.5L6.7,0c2.6,2.6,6.1,4,9.7,4c3.7,0,7.1-1.4,9.7-4l0.5,0.5   C24,3.3,20.3,4.8,16.5,4.8z M18.6,20.4c0,0.5-0.4,0.8-0.8,0.8S17,20.8,17,20.4c0-0.5,0.4-0.8,0.8-0.8S18.6,20,18.6,20.4z    M22.5,19.8c0,0.5-0.4,0.8-0.8,0.8c-0.5,0-0.8-0.4-0.8-0.8c0-0.5,0.4-0.8,0.8-0.8C22.2,19,22.5,19.3,22.5,19.8z M14.8,21.1   c0,0.5-0.4,0.8-0.8,0.8s-0.8-0.4-0.8-0.8c0-0.5,0.4-0.8,0.8-0.8S14.8,20.7,14.8,21.1z"></path>
	<path class="st0" d="M16.4,2.4h0.8v3.9h-0.8V2.4z"></path>
</g>
</svg>
