<?xml version="1.0" encoding="UTF-8"?>
<!-- Generator: Adobe Illustrator 24.0.0, SVG Export Plug-In . SVG Version: 6.00 Build 0)  -->
<svg xmlns="http://www.w3.org/2000/svg" xmlns:xlink="http://www.w3.org/1999/xlink" version="1.1" id="Layer_1" x="0px" y="0px" viewBox="0 0 33 48.3" style="enable-background:new 0 0 33 48.3;" xml:space="preserve">
<style type="text/css">
	.st0{fill:#2C4F31;}
</style>
<g id="graph">
	<path class="st0" d="M3.9,33.8C0.1,29.4-1,23.1,1,17.6l0.7,0.3c-1.9,5.2-0.9,11.2,2.7,15.5L3.9,33.8z M7.5,30.8   c-2.7-3.2-3.5-7.7-2-11.6l0.7,0.3C4.8,23.2,5.5,27.3,8,30.3L7.5,30.8z M32,28.9l-0.7-0.3c1.9-5.3,0.9-11.2-2.7-15.5l0.6-0.5   C32.9,17.1,34,23.4,32,28.9z M27.6,27.3L26.9,27c1.3-3.7,0.6-7.9-1.9-10.9l0.6-0.5C28.2,18.9,29,23.3,27.6,27.3z M19,37.2   c0,1.4-1.1,2.5-2.5,2.5S14,38.6,14,37.2c0-0.4,0.1-0.7,0.2-1l1.2-0.2l2.6-0.5l0.3-0.1C18.7,36,19,36.6,19,37.2z"></path>
	<path class="st0" d="M16.5,40.1c-1.6,0-2.9-1.3-2.9-2.9c0-0.4,0.1-0.8,0.2-1.2l0.1-0.1l4.6-0.8l0,0c0.5,0.5,0.8,1.2,0.8,2   C19.3,38.8,18,40.1,16.5,40.1z M14.5,36.6c-0.1,0.2-0.1,0.5-0.1,0.7c0,1.2,0.9,2.1,2.1,2.1s2.1-0.9,2.1-2.1c0-0.5-0.2-1-0.5-1.3   L14.5,36.6z"></path>
	<path class="st0" d="M9,37.5l-0.4-0.6l0.9-1.3c0.9-1.3,1.2-2.8,1-4.3l-1.2-6.9c-0.3-2,0.1-4,1.3-5.6s2.9-2.7,4.9-3   c3.9-0.5,7.6,2.2,8.3,6.2l1.2,6.7c0.3,1.5,1.1,2.9,2.4,3.7l1.3,0.9l-0.2,0.8L18,35.9l-0.1-0.7l9.6-1.7l-0.6-0.4   c-1.4-1-2.4-2.5-2.7-4.2L23,22.2c-0.6-3.6-4-6-7.4-5.6c-1.8,0.3-3.4,1.2-4.4,2.7c-1.1,1.5-1.5,3.2-1.2,5l1.2,6.9   c0.3,1.7-0.1,3.4-1.1,4.9l-0.4,0.5l4.7-0.8l0.1,0.7C14.5,36.5,9,37.5,9,37.5z"></path>
	<path class="st0" d="M16.5,14.7c-3.9,0-7.5-1.5-10.3-4.3l0.5-0.5c2.6,2.6,6.1,4,9.7,4c3.7,0,7.1-1.4,9.7-4l0.5,0.5   C24,13.2,20.3,14.7,16.5,14.7z M18.6,30.3c0,0.5-0.4,0.8-0.8,0.8S17,30.7,17,30.3c0-0.5,0.4-0.8,0.8-0.8S18.6,29.9,18.6,30.3z    M22.5,29.7c0,0.5-0.4,0.8-0.8,0.8c-0.5,0-0.8-0.4-0.8-0.8c0-0.5,0.4-0.8,0.8-0.8C22.2,28.9,22.5,29.2,22.5,29.7z M14.8,31   c0,0.5-0.4,0.8-0.8,0.8s-0.8-0.4-0.8-0.8c0-0.5,0.4-0.8,0.8-0.8S14.8,30.6,14.8,31z"></path>
	<path class="st0" d="M16.4,12.3h0.8v3.9h-0.8V12.3z"></path>
</g>
</svg>
