<?xml version="1.0" encoding="UTF-8"?>
<!-- Generator: Adobe Illustrator 24.0.0, SVG Export Plug-In . SVG Version: 6.00 Build 0)  -->
<svg xmlns="http://www.w3.org/2000/svg" xmlns:xlink="http://www.w3.org/1999/xlink" version="1.1" id="Layer_1" x="0px" y="0px" viewBox="0 0 23.8 35" style="enable-background:new 0 0 23.8 35;" xml:space="preserve">
<style type="text/css">
	.st0{fill:#2C4F31;}
</style>
<g id="graph">
	<path class="st0" d="M7.4,27H6.6c0-2.6-1-5.1-2.9-7l-0.4-0.4C1,17.3-0.2,14.1,0,10.9c0.2-3.3,1.7-6.2,4.3-8.3   c4.2-3.3,10.2-3.3,14.3,0.1c2.1,1.7,3.4,4.1,3.9,6.7l-0.7,0.1c-0.5-2.4-1.7-4.6-3.6-6.2C14.3,0.1,8.7,0.1,4.8,3.2   C2.4,5.1,1,7.9,0.8,11c-0.2,3,1,6,3.1,8.1l0.4,0.4C6.3,21.5,7.4,24.2,7.4,27z"></path>
	<path class="st0" d="M6.6,26.6h9.7v0.8H6.6V26.6z M6.6,28.8h9.7v0.8H6.6V28.8z M6.6,31h9.7v0.8H6.6V31z"></path>
	<path class="st0" d="M8.1,31.6c0,1.9,1.5,3.4,3.4,3.4s3.4-1.5,3.4-3.4 M16.3,27h-0.8v-4H16c2.6,0,4.6-2.1,4.6-4.6V15h2.3l-1.1-5.5   l0.7-0.1l1.2,6.4h-2.5v2.6c0,2.8-2.2,5.2-4.9,5.4V27L16.3,27z M9.5,20h0.8v7H9.5V20z M12.8,20h0.8v7h-0.8V20z M11.1,3.3h0.8v5.2   h-0.8V3.3z M11.9,11.7h-0.8l0.8-0.1V11.7z M11.1,14.8h0.8V20h-0.8V14.8z"></path>
	<path class="st0" d="M12.8,8.7l2.6-4.5L16,4.6l-2.6,4.5L12.8,8.7z"></path>
	<path class="st0" d="M11.5,12v-0.7V12z"></path>
	<path class="st0" d="M7,18.7l2.6-4.5l0.7,0.4l-2.6,4.5L7,18.7z"></path>
	<path class="st0" d="M14.1,9.7l4.5-2.6l0.3,0.6l-4.5,2.6L14.1,9.7z"></path>
	<path class="st0" d="M11.5,12v-0.7V12z"></path>
	<path class="st0" d="M4.1,15.5l4.5-2.6L9,13.6l-4.5,2.6L4.1,15.5z"></path>
	<path class="st0" d="M14.7,11.3h5.2v0.8h-5.2V11.3z M11.5,12v-0.7V12z M3.1,11.3h5.2v0.8H3.1V11.3z"></path>
	<path class="st0" d="M14,13.6l0.3-0.6l4.5,2.6l-0.3,0.6L14,13.6z"></path>
	<path class="st0" d="M11.5,12v-0.7V12z"></path>
	<path class="st0" d="M4,7.8l0.3-0.6l4.5,2.6l-0.3,0.6L4,7.8z"></path>
	<path class="st0" d="M12.8,14.6l0.7-0.4l2.6,4.5l-0.7,0.4L12.8,14.6z"></path>
	<path class="st0" d="M11.5,12h-0.4v-0.3l0.4-0.1v-0.3v0.3h0.4l-0.4,0.1V12z"></path>
	<path class="st0" d="M6.9,4.5l0.6-0.3l2.6,4.5L9.5,9.1L6.9,4.5z"></path>
	<circle class="st0" cx="11.5" cy="11.6" r="1.7"></circle>
</g>
</svg>
