<?xml version="1.0" encoding="UTF-8"?>
<!-- Generator: Adobe Illustrator 24.0.0, SVG Export Plug-In . SVG Version: 6.00 Build 0)  -->
<svg xmlns="http://www.w3.org/2000/svg" xmlns:xlink="http://www.w3.org/1999/xlink" version="1.1" id="Layer_1" x="0px" y="0px" viewBox="0 0 35 51.3" style="enable-background:new 0 0 35 51.3;" xml:space="preserve">
<style type="text/css">
	.st0{fill:#2C4F31;}
</style>
<g id="graph">
	<path class="st0" d="M11.9,35.8h-0.8V13h0.4c6.2,0,11.3,4.8,11.6,11h-0.8c-0.2-5.7-4.8-10.1-10.4-10.3V35.8z"></path>
	<path class="st0" d="M1.7,30.7l-0.2-0.3c-1.5-2.7-2-5.8-1.2-8.8s2.7-5.5,5.4-7c1.9-1.1,3.7-1.6,5.8-1.6h0.4v12h-0.3   C11.6,25,1.7,30.7,1.7,30.7z M11.2,13.7c-1.8,0.1-3.4,0.5-5,1.4c-2.6,1.5-4.4,3.9-5.1,6.6S0.7,27.2,2,29.6l9.2-5.3   C11.2,24.3,11.2,13.7,11.2,13.7z"></path>
	<path class="st0" d="M11.5,24.5v11.2c-4.1,0-7.7-2-9.7-5.6L11.5,24.5z"></path>
	<path class="st0" d="M11.9,36.1h-0.4c-4.3,0-7.9-2.1-10-5.8L1.3,30l10.6-6.1C11.9,23.9,11.9,36.1,11.9,36.1z M2.3,30.3   c1.9,3.1,5.1,5,8.8,5.1V25.2L2.3,30.3z"></path>
	<path class="st0" d="M3.1,16.6l0.5-0.5l8.5,8.5l-0.5,0.5L3.1,16.6z"></path>
	<path class="st0" d="M11.5,25L11,24.4l6.1-4.8l5.5,3.8l5.7-8.9l6-3.7l0.4,0.7l-6,3.6l-5.8,9.3l-5.8-3.9L11.5,25z M11.5,35.3h23.2   v0.8H11.5V35.3z M11.5,37.5h23.2v0.8H11.5V37.5z M11.5,39.7h23.2v0.8H11.5V39.7z"></path>
	<circle class="st0" cx="17.1" cy="32.7" r="0.8"></circle>
	<circle class="st0" cx="22.8" cy="32.7" r="0.8"></circle>
	<circle class="st0" cx="28.5" cy="32.7" r="0.8"></circle>
	<circle class="st0" cx="34.2" cy="32.7" r="0.8"></circle>
	<circle class="st0" cx="17.1" cy="28.3" r="0.8"></circle>
	<circle class="st0" cx="17.1" cy="24" r="0.8"></circle>
	<circle class="st0" cx="22.8" cy="28.3" r="0.8"></circle>
	<circle class="st0" cx="28.5" cy="28.3" r="0.8"></circle>
	<circle class="st0" cx="28.5" cy="24" r="0.8"></circle>
	<circle class="st0" cx="28.5" cy="19.6" r="0.8"></circle>
	<circle class="st0" cx="34.2" cy="28.3" r="0.8"></circle>
	<circle class="st0" cx="17.1" cy="24" r="0.8"></circle>
	<circle class="st0" cx="34.2" cy="24" r="0.8"></circle>
	<circle class="st0" cx="34.2" cy="19.6" r="0.8"></circle>
	<circle class="st0" cx="34.2" cy="15.3" r="0.8"></circle>
	<circle class="st0" cx="34.2" cy="15.3" r="0.8"></circle>
</g>
</svg>
