<?xml version="1.0" encoding="UTF-8"?>
<!-- Generator: Adobe Illustrator 24.0.0, SVG Export Plug-In . SVG Version: 6.00 Build 0)  -->
<svg xmlns="http://www.w3.org/2000/svg" xmlns:xlink="http://www.w3.org/1999/xlink" version="1.1" id="Layer_1" x="0px" y="0px" viewBox="0 0 31.2 45.7" style="enable-background:new 0 0 31.2 45.7;" xml:space="preserve">
<style type="text/css">
	.st0{fill:#2C4F31;}
</style>
<g id="graph">
	<circle class="st0" cx="11.4" cy="9.1" r="1.9"></circle>
	<path class="st0" d="M11.4,11.3c-1.3,0-2.3-1-2.3-2.3s1-2.3,2.3-2.3s2.3,1,2.3,2.3S12.6,11.3,11.4,11.3z M11.4,7.5   c-0.8,0-1.5,0.7-1.5,1.5s0.7,1.5,1.5,1.5s1.5-0.7,1.5-1.5S12.2,7.5,11.4,7.5z"></path>
	<path class="st0" d="M16,15.9h-0.8v-0.4c0-2.1-1.7-3.9-3.9-3.9s-3.9,1.7-3.9,3.9v0.4H6.8v-0.4c0-2.5,2.1-4.6,4.6-4.6S16,13,16,15.5   V15.9z"></path>
	<circle class="st0" cx="7.2" cy="17.7" r="1.9"></circle>
	<path class="st0" d="M7.1,20c-1.3,0-2.3-1-2.3-2.3c0-1.3,1-2.3,2.3-2.3s2.3,1,2.3,2.3C9.4,18.9,8.4,20,7.1,20z M7.1,16.2   c-0.8,0-1.5,0.7-1.5,1.5c0,0.8,0.7,1.5,1.5,1.5s1.5-0.7,1.5-1.5C8.7,16.8,8,16.2,7.1,16.2z"></path>
	<path class="st0" d="M11.8,24.5H11v-0.4c0-2.1-1.7-3.9-3.9-3.9s-3.9,1.7-3.9,3.9v0.4H2.5v-0.4c0-2.5,2.1-4.6,4.6-4.6   s4.6,2.1,4.6,4.6L11.8,24.5L11.8,24.5z"></path>
	<circle class="st0" cx="15.6" cy="17.7" r="1.9"></circle>
	<path class="st0" d="M15.6,20c-1.3,0-2.3-1-2.3-2.3c0-1.3,1-2.3,2.3-2.3s2.3,1,2.3,2.3C17.9,18.9,16.9,20,15.6,20z M15.6,16.2   c-0.8,0-1.5,0.7-1.5,1.5c0,0.8,0.7,1.5,1.5,1.5c0.8,0,1.5-0.7,1.5-1.5C17.1,16.8,16.5,16.2,15.6,16.2z"></path>
	<path class="st0" d="M20.2,24.5h-0.8v-0.4c0-2.1-1.7-3.9-3.9-3.9c-2.1,0-3.9,1.7-3.9,3.9v0.4h-0.8v-0.4c0-2.5,2.1-4.6,4.6-4.6   s4.6,2.1,4.6,4.6v0.4H20.2z"></path>
	<circle class="st0" cx="11.4" cy="26.1" r="1.9"></circle>
	<path class="st0" d="M11.4,28.4c-1.3,0-2.3-1-2.3-2.3s1-2.3,2.3-2.3s2.3,1,2.3,2.3S12.6,28.4,11.4,28.4z M11.4,24.6   c-0.8,0-1.5,0.7-1.5,1.5s0.7,1.5,1.5,1.5s1.5-0.7,1.5-1.5S12.2,24.6,11.4,24.6z"></path>
	<path class="st0" d="M16,33h-0.8v-0.4c0-2.1-1.7-3.9-3.9-3.9s-3.8,1.8-3.8,3.9V33H6.8v-0.4c0-2.5,2.1-4.6,4.6-4.6s4.6,2.1,4.6,4.6   V33z"></path>
	<circle class="st0" cx="19.8" cy="26.1" r="1.9"></circle>
	<path class="st0" d="M19.8,28.4c-1.3,0-2.3-1-2.3-2.3s1-2.3,2.3-2.3s2.3,1,2.3,2.3S21.1,28.4,19.8,28.4z M19.8,24.6   c-0.8,0-1.5,0.7-1.5,1.5s0.7,1.5,1.5,1.5s1.5-0.7,1.5-1.5S20.7,24.6,19.8,24.6z"></path>
	<path class="st0" d="M24.4,33h-0.8v-0.4c0-2.1-1.7-3.9-3.9-3.9c-2.1,0-3.9,1.7-3.9,3.9V33H15v-0.4c0-2.5,2.1-4.6,4.6-4.6   s4.6,2.1,4.6,4.6V33H24.4z"></path>
	<g>
		<circle class="st0" cx="24.1" cy="17.7" r="1.9"></circle>
		<path class="st0" d="M24.1,20c-1.3,0-2.3-1-2.3-2.3c0-1.3,1-2.3,2.3-2.3s2.3,1,2.3,2.3C26.3,18.9,25.3,20,24.1,20z M24.1,16.2    c-0.8,0-1.5,0.7-1.5,1.5c0,0.8,0.7,1.5,1.5,1.5s1.5-0.7,1.5-1.5C25.6,16.8,24.9,16.2,24.1,16.2z"></path>
	</g>
	<path class="st0" d="M28.7,24.5h-0.8v-0.4c0-2.1-1.7-3.9-3.9-3.9c-2.1,0-3.9,1.7-3.9,3.9v0.4h-0.8v-0.4c0-2.5,2.1-4.6,4.6-4.6   s4.6,2.1,4.6,4.6v0.4H28.7z"></path>
	<g>
		<circle class="st0" cx="19.8" cy="9.1" r="1.9"></circle>
		<path class="st0" d="M19.8,11.3c-1.3,0-2.3-1-2.3-2.3s1-2.3,2.3-2.3s2.3,1,2.3,2.3S21.1,11.3,19.8,11.3z M19.8,7.5    c-0.8,0-1.5,0.7-1.5,1.5s0.7,1.5,1.5,1.5s1.5-0.7,1.5-1.5S20.7,7.5,19.8,7.5z"></path>
	</g>
	<path class="st0" d="M24.4,15.9h-0.8v-0.4c0-2.1-1.7-3.9-3.9-3.9c-2.1,0-3.9,1.7-3.9,3.9v0.4H15v-0.4c0-2.5,2.1-4.6,4.6-4.6   s4.6,2.1,4.6,4.6v0.4H24.4z"></path>
	<path class="st0" d="M15.6,38.1c-4.2,0-8.1-1.6-11-4.6S0,26.6,0,22.5s1.6-8.1,4.6-11l0.3-0.3l0.5,0.5L5.1,12   c-2.8,2.8-4.4,6.5-4.4,10.5S2.2,30.2,5.1,33c2.8,2.8,6.5,4.4,10.5,4.4s7.7-1.5,10.5-4.4c2.8-2.8,4.4-6.5,4.4-10.5S29,14.8,26.1,12   l-0.3-0.3l0.5-0.5l0.3,0.3c2.9,2.9,4.6,6.9,4.6,11s-1.6,8.1-4.6,11S19.8,38.1,15.6,38.1z"></path>
</g>
</svg>
