<?xml version="1.0" encoding="UTF-8"?>
<!-- Generator: Adobe Illustrator 24.0.0, SVG Export Plug-In . SVG Version: 6.00 Build 0)  -->
<svg xmlns="http://www.w3.org/2000/svg" xmlns:xlink="http://www.w3.org/1999/xlink" version="1.1" id="Layer_1" x="0px" y="0px" viewBox="0 0 29.2 42.8" style="enable-background:new 0 0 29.2 42.8;" xml:space="preserve">
<style type="text/css">
	.st0{fill:#2C4F31;}
</style>
<g id="graph">
	<path class="st0" d="M14.6,36.1C6.6,36.1,0,29.6,0,21.6c0-5.4,2.9-10.3,7.7-12.8l0.4,0.6c-4.5,2.4-7.3,7.1-7.3,12.2   c0,7.6,6.2,13.8,13.8,13.8s13.8-6.2,13.8-13.8c0-5.1-2.8-9.8-7.3-12.2l0.4-0.7c4.7,2.6,7.6,7.5,7.6,12.9   C29.1,29.6,22.6,36.1,14.6,36.1z"></path>
	<path class="st0" d="M14.6,29.8L7.5,17.2V5.7h0.8V17l6.3,11.3L20.9,17V5.7h0.7v11.5L14.6,29.8z"></path>
	<path class="st0" d="M16.8,17.7l-0.3-0.3c-1.1-1.1-2.8-1.1-3.9,0l-0.3,0.3l-0.2-0.3c-1.1-1.1-2.8-1.1-3.9,0l-0.5-0.5   c1.3-1.3,3.3-1.4,4.7-0.2c1.3-1.1,3.2-1.1,4.5,0c1.3-1.1,3.5-1,4.7,0.2l-0.5,0.5c-1-1-2.9-1-3.9,0L16.8,17.7z"></path>
	<path class="st0" d="M12,4.5h0.8v12.7H12V4.5z M16.4,4.5h0.8v12.7h-0.8V4.5z M11.9,24.3c1.5-1.5,3.8-1.5,5.3,0L14.6,29L11.9,24.3z"></path>
	<path class="st0" d="M14.6,29.8l-3.1-5.6l0.2-0.2c0.8-0.8,1.8-1.2,2.9-1.2s2.1,0.4,2.9,1.2l0.2,0.2L14.6,29.8z M12.4,24.4l2.2,3.9   l2.2-3.9C15.5,23.4,13.6,23.4,12.4,24.4z"></path>
	<path class="st0" d="M17.9,33.6h-0.3c-1.4-0.2-1.5-1.4-1.6-2.2v-0.3c0-0.4-0.3-0.5-0.7-0.7c-0.5-0.2-1.2-0.5-1.1-1.4l0.7,0.1   c0,0.4,0.1,0.5,0.6,0.7s1.1,0.4,1.2,1.3v0.3c0.1,0.9,0.2,1.5,1,1.6c1,0.2,1.9-1.2,2.5-2.3c0.6-1.1,0.8-1.8,1-3l0.1-0.6   c0.2-1,0.9-2.1,1.7-2.7c0.5-0.4,1.1-0.5,1.6-0.5c0.7,0.1,1.2,0.6,1.2,1.2c0,0.4-0.2,0.9-0.5,1.3c-0.1,0.1-0.2,0.2-0.4,0.3   c-0.2,0.1-0.3,0.3-0.4,0.4c-0.1,0.2-0.2,0.3-0.2,0.4c0,0.2,0.2,0.3,0.5,0.4c0.2,0.1,0.4,0.2,0.5,0.3c0.6,0.5,1.1,1.4,0.8,2.2h-0.7   c0.2-0.4-0.2-1.3-0.6-1.6c-0.1-0.1-0.2-0.1-0.4-0.2c-0.3-0.2-0.8-0.4-0.9-0.9c-0.1-0.3,0-0.7,0.3-1.1c0.2-0.2,0.3-0.4,0.5-0.5   l0.3-0.3c0.2-0.3,0.4-0.5,0.3-0.7c0-0.3-0.3-0.5-0.6-0.6c-0.3-0.1-0.7,0.1-1,0.3c-0.7,0.5-1.3,1.4-1.4,2.3l-0.1,0.6   c-0.2,1.2-0.4,1.9-1.1,3.2C20.5,31.7,19.4,33.6,17.9,33.6z M7.2,34.1c-0.1-0.1-0.1-0.2-0.3-0.3c-0.8-1.1-1.4-2.7-0.5-3.8   c0.2-0.3,0.5-0.4,0.8-0.5c0.6,0,1,0.4,1.5,0.8c0.4,0.3,0.8,0.7,1,0.6c0.3-0.1,0.4-0.2,0.4-0.3c0.1-0.3,0-0.7-0.2-1.2   c-1-1.8-2.2-2.9-3.6-4.1c-0.6-0.5-1.2-1-1.8-1.6s-1-1.2-1.2-1.8c-0.5-1.5,0.3-2.3,1.1-3l0.7-0.8c0.7-0.8,0.9-2,0.5-3   c-0.4-1.1-1.3-1.8-2.4-2l0.1-0.7c1.3,0.2,2.4,1.1,2.9,2.4s0.3,2.7-0.6,3.8c-0.2,0.3-0.5,0.5-0.7,0.7c-0.6,0.9-1.1,1.3-0.8,2.4   c0.2,0.5,0.5,1,1,1.5c0.6,0.6,1.2,1.1,1.7,1.6c1.4,1.2,2.7,2.4,3.8,4.3c0.2,0.3,0.6,1.2,0.3,1.9c-0.1,0.3-0.4,0.6-1,0.7   s-1.2-0.4-1.7-0.8c-0.3-0.3-0.7-0.6-1-0.6c0,0-0.1,0-0.3,0.2c-0.8,0.9,0,2.5,0.9,3.3L7.2,34.1z M24.3,21.4c-0.3,0-0.6-0.1-0.9-0.3   c-0.7-0.6-1-1.8-0.8-3.2c0.3-1.8,0.1-3.1-0.4-3.6c-0.2-0.2-0.5-0.2-0.9-0.1l-0.2-0.8c0.8-0.2,1.3,0,1.6,0.3   c0.9,0.8,0.8,2.8,0.6,4.2c-0.2,1.1,0.1,2.2,0.5,2.6c0.2,0.2,0.4,0.2,0.7,0.1c0.1,0,0.2-0.2,0.3-0.5c0-0.1,0.1-0.2,0.1-0.3   c0.1-0.3,0.2-0.5,0.3-0.8c0.3-0.4,0.8-0.7,1.3-0.7c0.9,0,1.6,0.6,2.2,1L28.4,20c-0.5-0.4-1.3-1-1.9-1c-0.3,0-0.6,0.2-0.7,0.4   c-0.1,0.2-0.2,0.4-0.2,0.6c0,0.1-0.1,0.2-0.1,0.3c-0.2,0.5-0.5,0.9-0.8,1C24.6,21.4,24.5,21.4,24.3,21.4z"></path>
</g>
</svg>
