<?xml version="1.0" encoding="UTF-8"?>
<!-- Generator: Adobe Illustrator 24.0.0, SVG Export Plug-In . SVG Version: 6.00 Build 0)  -->
<svg xmlns="http://www.w3.org/2000/svg" xmlns:xlink="http://www.w3.org/1999/xlink" version="1.1" id="Layer_1" x="0px" y="0px" viewBox="0 0 26.7 39" style="enable-background:new 0 0 26.7 39;" xml:space="preserve">
<style type="text/css">
	.st0{fill:#2C4F31;}
</style>
<g id="graph">
	<path class="st0" d="M22.9,6.6c-0.4-0.4-1-0.7-1.4-1c-1.5-0.6-3.2-0.2-4.4,1C16.6,7,16.3,7.5,16.1,8c-0.2-0.5-0.5-1-0.9-1.4   c-1.2-1.2-3-1.5-4.5-1c-0.6,0.2-1,0.5-1.4,1c-1.6,1.6-1.6,4.3,0,5.9l6.8,7.1l6.8-7.1C24.5,11,24.5,8.2,22.9,6.6z M16,15.7   c-1.5,0-2.8-1.3-2.8-2.8s1.2-2.8,2.8-2.8s2.8,1.3,2.8,2.8S17.6,15.7,16,15.7z"></path>
	<path class="st0" d="M11.2,26.7H8.5c-2.4,0-4.5-1.8-4.8-4.3l-1-7.3c-0.2-1,0.2-1.9,0.8-2.7c0.6-0.6,1.8-1.1,2.7-1.1l0,0l0.1,0.5   l0,0c-0.8,0-1.8,0.6-2.3,1.2s-0.8,1.4-0.6,2.2l1,7.3c0.2,2,2,3.6,4.2,3.6h2.6c2.1,0,3.9-1.6,4.2-3.7l0.7-5.8l0.6,0.1l-0.7,5.8   C15.6,24.9,13.6,26.7,11.2,26.7z"></path>
	<path class="st0" d="M16,33.3c-3.6,0-6.5-2.9-6.5-6.5h0.6c0,3.3,2.6,5.9,5.9,5.9s5.9-2.6,5.9-5.9v-7.6c0-1.5-0.6-3-1.5-3.9l0.4-0.4   c1,1,1.7,2.7,1.7,4.4v7.6C22.5,30.3,19.6,33.3,16,33.3z M6.3,14.5c-0.9,0-1.6-0.7-1.6-1.6s0.7-1.6,1.6-1.6s1.6,0.7,1.6,1.6   S7.1,14.5,6.3,14.5z M6.3,11.9c-0.5,0-1,0.5-1,1c0,0.5,0.4,1,1,1s1-0.4,1-1C7.2,12.3,6.8,11.9,6.3,11.9z M16,14.5   c-0.9,0-1.6-0.7-1.6-1.6s0.7-1.6,1.6-1.6c0.9,0,1.6,0.7,1.6,1.6S16.8,14.5,16,14.5z M16,11.9c-0.6,0-1,0.4-1,1c0,0.6,0.4,1,1,1   c0.6,0,1-0.4,1-1C17,12.3,16.5,11.9,16,11.9z"></path>
	<path class="st0" d="M9.5,26.3l-6.3-6.8l0.5-0.4l6,6.6l6-6.6l0.4,0.4L10,26.3H9.5z"></path>
</g>
<polygon class="st0" points="20.8,14.7 20.9,14.8 20.6,15.2 20.5,15.2 20.4,15.1 "></polygon>
<polyline class="st0" points="9.5,26.8 9.5,26.6 10.1,26.6 10.1,26.7 10.2,26.8 9.9,26.9 9.7,26.9 "></polyline>
</svg>
