<?xml version="1.0" encoding="UTF-8"?>
<!-- Generator: Adobe Illustrator 24.0.0, SVG Export Plug-In . SVG Version: 6.00 Build 0)  -->
<svg xmlns="http://www.w3.org/2000/svg" xmlns:xlink="http://www.w3.org/1999/xlink" version="1.1" id="Layer_1" x="0px" y="0px" viewBox="0 0 23.8 35" style="enable-background:new 0 0 23.8 35;" xml:space="preserve">
<style type="text/css">
	.st0{fill:#2C4F31;}
</style>
<g id="graph">
	<path class="st0" d="M8.4,24.8H7.8c0-2-0.8-3.9-2.2-5.4l-0.3-0.3c-1.8-1.8-2.7-4.2-2.5-6.7c0.2-2.5,1.3-4.8,3.3-6.4   c3.2-2.5,7.8-2.5,11,0.1c1.6,1.3,2.6,3.1,3,5.1l-0.5,0.1c-0.4-1.8-1.3-3.5-2.8-4.8c-3-2.5-7.3-2.5-10.3-0.1c-1.8,1.5-2.9,3.6-3.1,6   c-0.2,2.3,0.8,4.6,2.4,6.2L6.1,19C7.6,20.6,8.4,22.7,8.4,24.8z"></path>
	<path class="st0" d="M7.8,24.5h7.4v0.6H7.8V24.5z M7.8,26.2h7.4v0.6H7.8V26.2z M7.8,27.9h7.4v0.6H7.8V27.9z"></path>
	<path class="st0" d="M9,28.3c0,1.5,1.1,2.6,2.6,2.6s2.6-1.1,2.6-2.6 M15.3,24.8h-0.6v-3.1H15c2,0,3.5-1.6,3.5-3.5v-2.6h1.8   l-0.8-4.2l0.5-0.1l0.9,4.9H19v2c0,2.1-1.7,4-3.8,4.1L15.3,24.8L15.3,24.8z M10,19.4h0.6v5.4H10V19.4z M12.6,19.4h0.6v5.4h-0.6V19.4   z M11.3,6.6h0.6v4h-0.6V6.6z M11.9,13.1h-0.6H11.9L11.9,13.1z M11.3,15.4h0.6v4h-0.6V15.4z"></path>
	<path class="st0" d="M12.6,10.8l2-3.4L15,7.6l-2,3.4L12.6,10.8z"></path>
	<path class="st0" d="M11.6,13.3v-0.5V13.3z"></path>
	<path class="st0" d="M8.1,18.4l2-3.4l0.5,0.3l-2,3.4L8.1,18.4z"></path>
	<path class="st0" d="M13.6,11.5l3.4-2l0.2,0.5l-3.4,2L13.6,11.5z"></path>
	<path class="st0" d="M11.6,13.3v-0.5V13.3z"></path>
	<path class="st0" d="M5.9,16l3.4-2l0.3,0.5l-3.4,2L5.9,16z"></path>
	<path class="st0" d="M14,12.8h4v0.6h-4V12.8z M11.6,13.3v-0.5V13.3z M5.1,12.8h4v0.6h-4V12.8z"></path>
	<path class="st0" d="M13.5,14.5l0.2-0.5l3.4,2l-0.2,0.5L13.5,14.5z"></path>
	<path class="st0" d="M11.6,13.3v-0.5V13.3z"></path>
	<path class="st0" d="M5.8,10.1l0.2-0.5l3.4,2l-0.2,0.5L5.8,10.1z"></path>
	<path class="st0" d="M12.6,15.3l0.5-0.3l2,3.4l-0.5,0.3L12.6,15.3z"></path>
	<path class="st0" d="M11.6,13.3h-0.3v-0.2l0.3-0.1v-0.2V13h0.3l-0.3,0.1V13.3z"></path>
	<path class="st0" d="M8.1,7.5l0.5-0.2l2,3.4L10,11.1L8.1,7.5z"></path>
	<circle class="st0" cx="11.6" cy="13" r="1.3"></circle>
</g>
</svg>
