<?xml version="1.0" encoding="UTF-8"?>
<svg xmlns="http://www.w3.org/2000/svg" version="1.1" id="Layer_1" x="0" y="0" viewBox="0 0 70 70" xml:space="preserve">
  <style>.st0{fill:#2c4f31}</style>
  <g id="graph">
    <path class="st0" d="M35 66.8C19.1 66.8 6.2 53.9 6.2 38c0-10.7 5.8-20.4 15.2-25.4l.5.9C12.8 18.3 7.2 27.7 7.2 38c0 15.3 12.5 27.8 27.8 27.8S62.8 53.3 62.8 38c0-10.3-5.6-19.7-14.7-24.5l.5-.9c9.4 5 15.2 14.8 15.2 25.4 0 15.9-12.9 28.8-28.8 28.8z"></path>
    <path class="st0" d="M35 54L21.1 29.2V6.3h1v22.6l12.9 23 12.8-23V6.3h1v22.9z"></path>
    <path class="st0" d="M39.5 29.7l-.4-.4c-2.3-2.3-5.9-2.3-8.2 0l-.4.4-.4-.4c-2.3-2.3-5.9-2.3-8.2 0l-.7-.7c1.3-1.3 3-2 4.8-2 1.7 0 3.2.6 4.5 1.7 1.2-1.1 2.8-1.7 4.5-1.7 1.7 0 3.2.6 4.5 1.7 2.7-2.3 6.7-2.2 9.3.3l-.8.8c-2.3-2.3-5.9-2.3-8.2 0l-.3.3z"></path>
    <path class="st0" d="M30 3.7h1v25.4h-1zM39 3.7h1v25.4h-1zM29.7 43.5c2.9-2.9 7.6-2.9 10.6 0L35 52.9l-5.3-9.4z"></path>
    <path class="st0" d="M35 54l-5.9-10.6.3-.3c1.5-1.5 3.5-2.3 5.6-2.3 2.1 0 4.1.8 5.6 2.3l.3.3L35 54zm-4.7-10.4l4.7 8.3 4.7-8.3c-2.7-2.4-6.7-2.4-9.4 0z"></path>
    <path class="st0" d="M41.6 62.9h-.5c-2.6-.4-2.8-2.5-3-4.3l-.1-.5c-.1-1-.8-1.5-1.6-2.1-1-.7-2-1.5-1.9-3.2l1 .1c-.1 1.1.5 1.6 1.5 2.3.9.6 1.9 1.4 2 2.8l.1.5c.2 1.9.5 3.1 2.1 3.4 2.2.3 4.1-2.5 5.3-4.7 1.2-2.2 1.6-4.3 2-6.6l.3-1.8c.4-2 1.7-4 3.4-5.3.9-.7 2-1 3-.9 1.2.2 2.2 1.2 2.3 2.3.1 1-.5 1.9-1.1 2.4l-.7.7c-.3.3-.6.5-.9.8-.2.2-.5.7-.4 1 .1.4.5.6 1.1.9.3.2.7.4 1 .6 1.1 1 2 2.7 1.4 4.1l-.9-.3c.4-.9-.3-2.2-1.2-3-.2-.2-.5-.3-.8-.5-.6-.3-1.4-.7-1.6-1.6-.1-.6.1-1.3.6-1.9.3-.4.7-.7 1-1 .2-.2.5-.4.7-.6.3-.3.8-1 .8-1.6 0-.6-.7-1.2-1.4-1.3-1-.1-1.8.4-2.2.7-1.5 1.1-2.6 2.9-3 4.7l-.3 1.8c-.4 2.4-.8 4.6-2.1 6.9-.9 1.5-3 5.2-5.9 5.2zM20.7 63c-2-1.8-3.9-5.7-1.8-8.2.4-.5.9-.8 1.4-.8 1-.1 1.9.8 2.8 1.6.8.7 1.6 1.4 2.3 1.3.5-.1.9-.3 1-.7.3-.7 0-1.9-.5-2.7-2-3.6-4.5-5.9-7.3-8.3-1.1-1-2.3-2-3.5-3.2-1.2-1.2-1.9-2.3-2.3-3.4-1-2.9.5-4.4 2.1-5.8.4-.4.9-.9 1.3-1.4 1.5-1.7 1.9-4.1 1-6.3-.8-2.2-2.7-3.8-4.9-4.1l.1-1c2.6.4 4.7 2.2 5.7 4.7 1 2.6.5 5.3-1.2 7.3-.4.5-.9 1-1.4 1.4-1.5 1.5-2.6 2.5-1.8 4.8.4 1 1.1 2 2.1 3 1.1 1.1 2.3 2.2 3.4 3.1 2.8 2.5 5.5 4.8 7.5 8.6.4.6 1.1 2.3.5 3.6-.2.5-.7 1-1.8 1.2-1.1.2-2.2-.7-3.1-1.6-.7-.7-1.5-1.3-2.1-1.3-.3 0-.5.2-.8.5-1.6 1.9 0 5.2 1.7 6.8l-.4.9zM54.6 37.3c-.6 0-1.1-.2-1.7-.6-1.5-1.3-2.4-4.3-2.2-6.1l.3-1.5c.2-.8.4-1.7.3-2.4-.1-1.1-.5-1.2-1.3-1.6-.3-.1-.7-.3-1.1-.6-.7-.5-1.2-1.3-1.2-2.1h1c0 .6.4 1 .8 1.3.3.2.6.3.9.5.8.3 1.7.7 1.9 2.4.1 1-.1 1.9-.4 2.8-.1.5-.2 1-.3 1.4-.2 1.5.6 4.2 1.8 5.2.5.4 1 .5 1.5.3.3-.1.6-.5.9-1.2.1-.2.1-.3.2-.5.2-.5.3-1 .6-1.5.5-.8 1.4-1.3 2.4-1.4 1.7-.1 3.1 1.1 4.2 2l-.6.8c-1.1-.9-2.3-1.8-3.6-1.8-.7 0-1.3.4-1.6.9-.2.3-.4.8-.5 1.2.1.2.1.4 0 .6-.3 1-.8 1.6-1.5 1.8-.3.1-.5.1-.8.1z"></path>
  </g>
</svg>
