<?xml version="1.0" encoding="UTF-8"?>
<svg xmlns="http://www.w3.org/2000/svg" version="1.1" id="Layer_1" x="0" y="0" viewBox="0 0 70 70" xml:space="preserve">
  <style>.st0{fill:#2c4f31}</style>
  <g id="graph">
    <path class="st0" d="M9.9 54.4C2.4 45.5.2 33.2 4.2 22.2l.9.3c-3.8 10.6-1.7 22.6 5.5 31.2l-.7.7zM17.1 48.3c-5.3-6.4-6.9-15.1-4-23l.9.3c-2.7 7.5-1.2 15.9 3.9 22l-.8.7zM65.8 44.5l-.9-.3c3.9-10.6 1.8-22.6-5.5-31.3l.8-.6c7.4 8.9 9.6 21.3 5.6 32.2zM56.9 41.3l-.9-.4c2.7-7.5 1.2-15.9-3.9-22l.8-.6c5.3 6.4 6.8 15.2 4 23zM39.9 61.3c0 2.8-2.2 5-5 5-2.7 0-5-2.2-5-5 0-.7.2-1.4.4-2l2.3-.4 5.1-.9.7-.1c1 .8 1.5 2.1 1.5 3.4z"></path>
    <path class="st0" d="M35 66.8c-3 0-5.5-2.5-5.5-5.5 0-.8.2-1.5.5-2.2l.1-.2 8.6-1.5.2.2c1 1 1.6 2.4 1.6 3.8-.1 2.9-2.5 5.4-5.5 5.4zm-4.2-7.1c-.2.5-.3 1-.3 1.6 0 2.5 2 4.5 4.5 4.5s4.5-2 4.5-4.5c0-1.1-.4-2.1-1.1-2.9l-7.6 1.3z"></path>
    <path class="st0" d="M20 61.6l-.5-.8 1.8-2.5c1.8-2.6 2.5-5.7 2-8.8l-2.4-13.7c-.7-3.9.2-7.8 2.6-11 2.3-3.2 5.8-5.3 9.7-5.8 7.6-1.1 14.9 4.4 16.3 12.1l2.4 13.4c.5 3.1 2.3 5.8 4.8 7.6l2.5 1.8-.2.9-20.8 3.7-.2-1L57.5 54 56 52.9c-2.8-1.9-4.7-4.9-5.3-8.3l-2.4-13.4C47 24 40.2 18.9 33.1 19.9c-3.7.5-6.9 2.4-9 5.4-2.2 3-3 6.6-2.4 10.2l2.4 13.7c.6 3.4-.2 6.8-2.1 9.6l-1 1.6 9.8-1.7.2 1-11 1.9z"></path>
    <path class="st0" d="M27 50.5c-.3 0-.5-.1-.7-.3-.1-.1-.2-.2-.2-.3-.1-.2-.1-.3-.1-.4s0-.3.1-.4c0-.1.1-.2.2-.3.4-.4 1-.4 1.4 0 .1.1.2.2.2.3.1.1.1.2.1.4s0 .3-.1.4c-.1.1-.1.2-.2.3-.2.2-.5.3-.7.3zM30.2 48.9c-.1-.5.3-1.1.8-1.2.5-.1 1.1.3 1.2.8.1.5-.3 1.1-.8 1.1h-.2c-.5.1-.9-.2-1-.7zm4.2-.8c-.1-.5.3-1.1.8-1.2.5-.1 1.1.3 1.1.8.1.5-.3 1.1-.8 1.1h-.2c-.4.2-.8-.2-.9-.7zm4.2-.7c-.1-.5.3-1.1.8-1.2.5-.1 1.1.3 1.2.8.1.5-.3 1.1-.8 1.2h-.2c-.5 0-.9-.3-1-.8zm4.2-.7c-.1-.5.3-1.1.8-1.2.5-.1 1.1.3 1.2.8.1.5-.3 1.1-.8 1.2h-.2c-.5 0-.9-.3-1-.8zM48 46.8c-.3 0-.5-.1-.7-.3-.2-.2-.3-.5-.3-.7 0-.1 0-.3.1-.4.1-.1.1-.2.2-.3.1 0 .1-.1.2-.1s.1-.1.2-.1.1-.1.2-.1c.3-.1.7 0 .9.3.1.1.2.2.2.3 0 .1.1.2.1.4 0 .3-.1.5-.3.7-.3.2-.5.3-.8.3zM35 16c-7.4 0-14.7-2.8-20.4-8.4l.7-.7c10.8 10.8 28.5 10.8 39.3 0l.7.7C49.7 13.2 42.3 16 35 16z"></path>
    <path class="st0" d="M35 11.4h1v7.9h-1z"></path>
  </g>
</svg>
