<?xml version="1.0" encoding="UTF-8"?>
<!-- Generator: Adobe Illustrator 24.0.0, SVG Export Plug-In . SVG Version: 6.00 Build 0)  -->
<svg xmlns="http://www.w3.org/2000/svg" xmlns:xlink="http://www.w3.org/1999/xlink" version="1.1" id="Layer_1" x="0px" y="0px" viewBox="0 0 31.2 31.4" style="enable-background:new 0 0 31.2 31.4;" xml:space="preserve">
<style type="text/css">
	.st0{fill:#2C4F31;}
</style>
<g id="graph">
	<circle class="st0" cx="11.4" cy="2.4" r="1.9"></circle>
	<path class="st0" d="M11.4,4.6c-1.3,0-2.3-1-2.3-2.3s1-2.3,2.3-2.3c1.3,0,2.3,1,2.3,2.3S12.6,4.6,11.4,4.6z M11.4,0.8   c-0.8,0-1.5,0.7-1.5,1.5s0.7,1.5,1.5,1.5c0.8,0,1.5-0.7,1.5-1.5S12.2,0.8,11.4,0.8z"></path>
	<path class="st0" d="M16,9.2h-0.8V8.8c0-2.1-1.7-3.9-3.9-3.9S7.4,6.6,7.4,8.8v0.4H6.8V8.8c0-2.5,2.1-4.6,4.6-4.6S16,6.3,16,8.8V9.2   z"></path>
	<circle class="st0" cx="7.2" cy="11" r="1.9"></circle>
	<path class="st0" d="M7.1,13.3c-1.3,0-2.3-1-2.3-2.3s1-2.3,2.3-2.3s2.3,1,2.3,2.3C9.4,12.2,8.4,13.3,7.1,13.3z M7.1,9.5   c-0.8,0-1.5,0.7-1.5,1.5s0.7,1.5,1.5,1.5s1.5-0.7,1.5-1.5C8.7,10.1,8,9.5,7.1,9.5z"></path>
	<path class="st0" d="M11.8,17.8H11v-0.4c0-2.1-1.7-3.9-3.9-3.9s-3.9,1.7-3.9,3.9v0.4H2.5v-0.4c0-2.5,2.1-4.6,4.6-4.6   s4.6,2.1,4.6,4.6L11.8,17.8L11.8,17.8z"></path>
	<circle class="st0" cx="15.6" cy="11" r="1.9"></circle>
	<path class="st0" d="M15.6,13.3c-1.3,0-2.3-1-2.3-2.3s1-2.3,2.3-2.3s2.3,1,2.3,2.3C17.9,12.2,16.9,13.3,15.6,13.3z M15.6,9.5   c-0.8,0-1.5,0.7-1.5,1.5s0.7,1.5,1.5,1.5s1.5-0.7,1.5-1.5C17.1,10.1,16.5,9.5,15.6,9.5z"></path>
	<path class="st0" d="M20.2,17.8h-0.8v-0.4c0-2.1-1.7-3.9-3.9-3.9c-2.1,0-3.9,1.7-3.9,3.9v0.4h-0.8v-0.4c0-2.5,2.1-4.6,4.6-4.6   s4.6,2.1,4.6,4.6v0.4H20.2z"></path>
	<circle class="st0" cx="11.4" cy="19.4" r="1.9"></circle>
	<path class="st0" d="M11.4,21.7c-1.3,0-2.3-1-2.3-2.3s1-2.3,2.3-2.3c1.3,0,2.3,1,2.3,2.3S12.6,21.7,11.4,21.7z M11.4,17.9   c-0.8,0-1.5,0.7-1.5,1.5s0.7,1.5,1.5,1.5c0.8,0,1.5-0.7,1.5-1.5S12.2,17.9,11.4,17.9z"></path>
	<path class="st0" d="M16,26.3h-0.8v-0.4c0-2.1-1.7-3.9-3.9-3.9s-3.8,1.8-3.8,3.9v0.4H6.8v-0.4c0-2.5,2.1-4.6,4.6-4.6   s4.6,2.1,4.6,4.6V26.3z"></path>
	<circle class="st0" cx="19.8" cy="19.4" r="1.9"></circle>
	<path class="st0" d="M19.8,21.7c-1.3,0-2.3-1-2.3-2.3s1-2.3,2.3-2.3s2.3,1,2.3,2.3S21.1,21.7,19.8,21.7z M19.8,17.9   c-0.8,0-1.5,0.7-1.5,1.5s0.7,1.5,1.5,1.5s1.5-0.7,1.5-1.5S20.7,17.9,19.8,17.9z"></path>
	<path class="st0" d="M24.4,26.3h-0.8v-0.4c0-2.1-1.7-3.9-3.9-3.9c-2.1,0-3.9,1.7-3.9,3.9v0.4H15v-0.4c0-2.5,2.1-4.6,4.6-4.6   s4.6,2.1,4.6,4.6v0.4H24.4z"></path>
	<g>
		<circle class="st0" cx="24.1" cy="11" r="1.9"></circle>
		<path class="st0" d="M24.1,13.3c-1.3,0-2.3-1-2.3-2.3s1-2.3,2.3-2.3s2.3,1,2.3,2.3C26.3,12.2,25.3,13.3,24.1,13.3z M24.1,9.5    c-0.8,0-1.5,0.7-1.5,1.5s0.7,1.5,1.5,1.5s1.5-0.7,1.5-1.5C25.6,10.1,24.9,9.5,24.1,9.5z"></path>
	</g>
	<path class="st0" d="M28.7,17.8h-0.8v-0.4c0-2.1-1.7-3.9-3.9-3.9c-2.1,0-3.9,1.7-3.9,3.9v0.4h-0.8v-0.4c0-2.5,2.1-4.6,4.6-4.6   s4.6,2.1,4.6,4.6v0.4H28.7z"></path>
	<g>
		<circle class="st0" cx="19.8" cy="2.4" r="1.9"></circle>
		<path class="st0" d="M19.8,4.6c-1.3,0-2.3-1-2.3-2.3s1-2.3,2.3-2.3s2.3,1,2.3,2.3S21.1,4.6,19.8,4.6z M19.8,0.8    c-0.8,0-1.5,0.7-1.5,1.5s0.7,1.5,1.5,1.5s1.5-0.7,1.5-1.5S20.7,0.8,19.8,0.8z"></path>
	</g>
	<path class="st0" d="M24.4,9.2h-0.8V8.8c0-2.1-1.7-3.9-3.9-3.9c-2.1,0-3.9,1.7-3.9,3.9v0.4H15V8.8c0-2.5,2.1-4.6,4.6-4.6   s4.6,2.1,4.6,4.6v0.4H24.4z"></path>
	<path class="st0" d="M15.6,31.4c-4.2,0-8.1-1.6-11-4.6S0,19.9,0,15.8s1.6-8.1,4.6-11l0.3-0.3L5.4,5L5.1,5.3   c-2.8,2.8-4.4,6.5-4.4,10.5s1.5,7.7,4.4,10.5c2.8,2.8,6.5,4.4,10.5,4.4s7.7-1.5,10.5-4.4c2.8-2.8,4.4-6.5,4.4-10.5S29,8.1,26.1,5.3   L25.8,5l0.5-0.5l0.3,0.3c2.9,2.9,4.6,6.9,4.6,11s-1.6,8.1-4.6,11S19.8,31.4,15.6,31.4z"></path>
</g>
</svg>
