<?xml version="1.0" encoding="UTF-8"?>
<!-- Generator: Adobe Illustrator 24.0.0, SVG Export Plug-In . SVG Version: 6.00 Build 0)  -->
<svg xmlns="http://www.w3.org/2000/svg" xmlns:xlink="http://www.w3.org/1999/xlink" version="1.1" id="Layer_1" x="0px" y="0px" viewBox="0 0 26.7 35" style="enable-background:new 0 0 26.7 35;" xml:space="preserve">
<style type="text/css">
	.st0{fill:#2C4F31;}
</style>
<g id="graph">
	<path class="st0" d="M25.2,1.7c-0.5-0.5-1.2-0.9-1.8-1.2c-1.9-0.7-4-0.3-5.5,1.2c-0.5,0.5-0.9,1.1-1.1,1.7   c-0.3-0.6-0.6-1.2-1.1-1.7c-1.5-1.5-3.7-1.9-5.6-1.2C9.4,0.7,8.8,1.1,8.3,1.7c-2,2-2,5.3,0,7.4l8.5,8.9l8.5-8.9   C27.2,7.1,27.2,3.7,25.2,1.7z M16.7,13c-1.9,0-3.5-1.6-3.5-3.5S14.7,6,16.7,6s3.5,1.6,3.5,3.5S18.6,13,16.7,13z"></path>
	<path class="st0" d="M10.6,26.7H7.3c-3,0-5.6-2.3-6-5.3l-1.2-9.1c-0.2-1.2,0.2-2.4,1-3.4c0.8-0.8,2.2-1.4,3.4-1.4l0,0l0.1,0.6l0,0   c-1,0-2.2,0.7-2.9,1.5s-1,1.8-0.8,2.8l1.2,9.1C2.4,24,4.6,26,7.3,26h3.3c2.6,0,4.9-2,5.2-4.6l0.9-7.2l0.7,0.1l-0.9,7.2   C16.2,24.5,13.6,26.7,10.6,26.7z"></path>
	<path class="st0" d="M16.7,34.9c-4.5,0-8.1-3.6-8.1-8.1h0.8c0,4.1,3.3,7.4,7.4,7.4s7.4-3.3,7.4-7.4v-9.5c0-1.9-0.7-3.8-1.9-4.9   l0.5-0.5c1.3,1.3,2.1,3.4,2.1,5.5v9.5C24.8,31.2,21.1,34.9,16.7,34.9z M4.5,11.5c-1.1,0-2-0.9-2-2s0.9-2,2-2s2,0.9,2,2   S5.6,11.5,4.5,11.5z M4.5,8.3c-0.6,0-1.2,0.6-1.2,1.2s0.5,1.2,1.2,1.2s1.2-0.5,1.2-1.2S5.2,8.3,4.5,8.3z M16.7,11.5   c-1.1,0-2-0.9-2-2s0.9-2,2-2s2,0.9,2,2S17.7,11.5,16.7,11.5z M16.7,8.3c-0.7,0-1.2,0.5-1.2,1.2s0.5,1.2,1.2,1.2s1.2-0.5,1.2-1.2   S17.3,8.3,16.7,8.3z"></path>
	<path class="st0" d="M8.6,26.2l-7.8-8.5l0.6-0.5l7.5,8.2l7.5-8.2l0.5,0.5l-7.7,8.5H8.6z"></path>
</g>
<polygon class="st0" points="22.6,11.7 22.8,11.9 22.4,12.4 22.3,12.4 22.1,12.3 "></polygon>
<polyline class="st0" points="8.6,26.8 8.6,26.6 9.3,26.6 9.3,26.7 9.4,26.8 9,27 8.8,27 "></polyline>
</svg>
