<?xml version="1.0" encoding="UTF-8"?>
<svg xmlns="http://www.w3.org/2000/svg" width="187" height="187" viewBox="0 0 187 187" fill="none">
  <rect width="187" height="187" fill="#344562" style="fill:#344562;fill:color(display-p3 0.2039 0.2706 0.3843);fill-opacity:1;"></rect>
  <path d="M131.19 143.388C117.471 149.195 85.128 153.802 56.9902 143.388C68.1051 154.603 106.657 165.017 131.19 143.388Z" fill="#E9D8BB" style="fill:#E9D8BB;fill:color(display-p3 0.9134 0.8452 0.7323);fill-opacity:1;"></path>
  <path fill-rule="evenodd" clip-rule="evenodd" d="M94.6674 137.664C94.686 137.807 94.6958 137.879 94.6958 137.879V137.47C101.765 88.9291 95.3908 36.6003 94.6958 31.1937V30.7354C94.6853 30.807 94.6748 30.8786 94.6643 30.9502C94.6457 30.8081 94.6359 30.7357 94.6359 30.7357V31.1449C87.5671 79.6859 93.941 132.015 94.6359 137.421V137.879C94.6464 137.808 94.6569 137.736 94.6674 137.664Z" fill="#E9D8BB" style="fill:#E9D8BB;fill:color(display-p3 0.9134 0.8452 0.7323);fill-opacity:1;"></path>
  <path fill-rule="evenodd" clip-rule="evenodd" d="M110.084 58.3359C110.066 58.2279 110.057 58.1729 110.057 58.1729V58.4838C103.537 94.5728 109.41 133.474 110.057 137.533V137.88C110.067 137.825 110.077 137.771 110.087 137.717C110.104 137.825 110.113 137.88 110.113 137.88V137.569C116.634 101.48 110.76 62.5789 110.113 58.5203V58.1732C110.103 58.2274 110.094 58.2817 110.084 58.3359Z" fill="#E9D8BB" style="fill:#E9D8BB;fill:color(display-p3 0.9134 0.8452 0.7323);fill-opacity:1;"></path>
  <path fill-rule="evenodd" clip-rule="evenodd" d="M79.195 58.3359C79.1775 58.2279 79.1682 58.1729 79.1682 58.1729V58.4838C72.6479 94.5728 78.5212 133.474 79.1682 137.533V137.88C79.1781 137.825 79.188 137.771 79.1979 137.717C79.2154 137.825 79.2246 137.88 79.2246 137.88V137.569C85.7449 101.48 79.8717 62.5789 79.2247 58.5203V58.1732C79.2147 58.2274 79.2049 58.2817 79.195 58.3359Z" fill="#E9D8BB" style="fill:#E9D8BB;fill:color(display-p3 0.9134 0.8452 0.7323);fill-opacity:1;"></path>
  <path fill-rule="evenodd" clip-rule="evenodd" d="M125.506 83.3246C125.491 83.2461 125.483 83.2061 125.483 83.2061V83.4322C120.247 108.421 124.952 135.35 125.483 138.228V138.48C125.491 138.441 125.5 138.401 125.508 138.362C125.523 138.44 125.531 138.48 125.531 138.48V138.254C130.767 113.266 126.062 86.3364 125.531 83.4589V83.2062C125.522 83.2457 125.514 83.2852 125.506 83.3246Z" fill="#E9D8BB" style="fill:#E9D8BB;fill:color(display-p3 0.9134 0.8452 0.7323);fill-opacity:1;"></path>
  <path fill-rule="evenodd" clip-rule="evenodd" d="M63.7712 83.3246C63.7565 83.2461 63.7486 83.2061 63.7486 83.2061V83.4322C58.5126 108.421 63.2171 135.35 63.7486 138.228V138.48C63.757 138.441 63.7653 138.401 63.7737 138.362C63.7884 138.44 63.7962 138.48 63.7962 138.48V138.254C69.0323 113.266 64.3278 86.3364 63.7963 83.4589V83.2062C63.7879 83.2457 63.7795 83.2852 63.7712 83.3246Z" fill="#E9D8BB" style="fill:#E9D8BB;fill:color(display-p3 0.9134 0.8452 0.7323);fill-opacity:1;"></path>
</svg>
