<?xml version="1.0" encoding="UTF-8"?>
<svg xmlns="http://www.w3.org/2000/svg" width="187" height="187" viewBox="0 0 187 187" fill="none">
  <rect width="187" height="187" fill="white" style="fill:white;fill-opacity:1;"></rect>
  <path d="M107.662 75.7642L94.1466 122.763C93.3873 125.42 93.0077 127.243 93.0077 128.078C93.0077 128.533 93.2354 128.989 93.6151 129.445C93.9947 129.9 94.4503 130.052 94.8299 130.052C95.5892 130.052 96.3485 129.748 97.1077 129.065C99.0818 127.471 101.436 124.509 104.245 120.181L106.523 121.472C99.8411 133.089 92.7799 138.86 85.339 138.86C82.4538 138.86 80.176 138.024 78.5056 136.43C76.8352 134.835 76 132.785 76 130.28C76 128.685 76.3796 126.559 77.1389 124.054L86.3261 92.4681C87.2372 89.431 87.6168 87.1532 87.6168 85.5588C87.6168 84.5717 87.1613 83.7365 86.3261 82.9772C85.4909 82.218 84.352 81.8383 82.9094 81.8383C82.226 81.8383 81.4667 81.8383 80.5556 81.9143L81.3908 79.2568L103.789 75.6123H107.662V75.7642Z" fill="#E63D14" style="fill:#E63D14;fill:color(display-p3 0.9020 0.2392 0.0784);fill-opacity:1;"></path>
  <path d="M101.281 46C104.015 46 106.293 46.9111 108.191 48.8093C110.089 50.7075 111 52.9853 111 55.7187C111 58.452 110.089 60.7299 108.191 62.628C106.293 64.5262 104.015 65.4373 101.281 65.4373C98.548 65.4373 96.3461 64.5262 94.448 62.628C92.5498 60.7299 91.6387 58.452 91.6387 55.7187C91.6387 52.9853 92.5498 50.7075 94.448 48.8093C96.3461 46.9111 98.624 46 101.281 46Z" fill="#575756" style="fill:#575756;fill:color(display-p3 0.3412 0.3412 0.3373);fill-opacity:1;"></path>
</svg>
