<?xml version="1.0" encoding="UTF-8"?>
<svg xmlns="http://www.w3.org/2000/svg" viewBox="0 0 1920 687.99">
  <defs>
    <style>
      .cls-1 {
        fill: #221c35;
      }

      .cls-2 {
        fill: #f5b335;
      }
    </style>
  </defs>
  <g id="Layer_2" data-name="Layer 2">
    <g id="Luminos_Fund" data-name="Luminos Fund">
      <g>
        <path class="cls-1" d="M0,234.33H23.9V424H143.06V446H0Z"></path>
        <path class="cls-1" d="M264.17,357.43V234.33h23.89V355.9c0,45.67,24.2,71.38,64.72,71.38,39,0,63.81-23.6,63.81-69.85V234.33h23.89V355.6c0,61.7-35.38,93.75-88.3,93.75C299.85,449.35,264.17,417.3,264.17,357.43Z"></path>
        <path class="cls-1" d="M583.34,234.33h24.2l77.13,115.53,77.12-115.53H786V446H762.09V274.54L685,388h-1.21L606.64,274.85V446h-23.3Z"></path>
        <path class="cls-1" d="M934.28,234.33h23.89V446H934.28Z"></path>
        <path class="cls-1" d="M1106.52,234.33h22.39L1262.28,404V234.33h23.28V446h-19l-136.7-173.59V446h-23.29Z"></path>
        <path class="cls-1" d="M1761.22,415.19,1776,397.64c22.07,20,43.24,29.95,72.58,29.95,28.43,0,47.19-15.12,47.19-36.61,0-19.66-10.6-30.83-55-40.21-48.69-10.59-71.07-26.31-71.07-61.7,0-33.27,29.34-57.76,69.56-57.76,30.85,0,52.92,8.76,74.4,26l-13.92,18.44c-19.66-16-39.31-23-61.09-23-27.52,0-45.06,15.12-45.06,34.78,0,20,10.88,31.17,57.46,41.15,47.18,10.26,69,27.51,69,60.48,0,36.3-30.25,59.87-72.29,59.87C1814.14,449.05,1786.62,437.87,1761.22,415.19Z"></path>
        <g id="Shape_10" data-name="Shape 10">
          <path class="cls-2" d="M1534.69,171.56c4.88.6,9.52,1.47,13.27,4.44,2.38,1.88,3.83,4.3,2.88,7.85s-.93,7.25-1.5,10.86c-.4,2.55-1.13,5-1.58,7.59-.6,3.36-1.08,6.74-1.6,10.12-.61,3.87-1.26,7.74-1.81,11.63-.38,2.68-.59,5.4-.95,8.09-.74,5.49-1.55,11-2.27,16.47-.25,1.91-.34,3.85-.47,5.77-.32,4.38-.5,8.78-1,13.15s-1.29,9-1.77,13.46a52.81,52.81,0,0,0-.42,9c.16,2.72,2.87,3.33,4.81,4.46a10,10,0,0,0,1.83.55c3,1,3,1,3.83-2.07,2-7.35,4.19-14.66,5.88-22.08,1.54-6.75,2.5-13.64,3.76-20.47.88-4.82,1.81-9.63,2.74-14.45,1.22-6.29,2.26-12.63,3.73-18.87,1.08-4.61,2.73-9.09,4.1-13.65.94-3.13,1.74-6.3,2.73-9.41,1.35-4.25,2.7-8.51,4.3-12.66a26.31,26.31,0,0,1,3.25-5.52c.32-.45,1.38-.55,2.09-.53,1.65.05,3.29.26,4.93.44.34,0,.86.07,1,.28a24,24,0,0,0,7.25,8.06c1.38,1,2,3.12,2.86,4.75,2.27,4.08-.39,7.62-1.43,11.26-2,7-4.53,13.89-6.42,20.94-1.79,6.71-3.1,13.56-4.51,20.37-1.16,5.65-1.76,11.45-3.37,17-1,3.5-1.12,7.12-2.19,10.54a52.12,52.12,0,0,1-2.47,5.39c-.68,1.55-1.31,3.12-1.94,4.7a1.36,1.36,0,0,0-.12.85c1.37,3.88-1,6.89-2.3,10.14-.19.46-.54,1-.43,1.41.85,3.2-.76,6-1.51,8.88-.39,1.49-1.12,2.9-1.56,4.39a2.16,2.16,0,0,0,.36,1.53,10.51,10.51,0,0,0,1.43,1.48c2.46,2.46,3.74,2.41,5.34-.73,5.14-10.13,11.51-19.48,18-28.78,4.52-6.51,9.19-12.94,14.16-19.11,5.54-6.89,11.57-13.39,17.27-20.16,3.73-4.44,7.13-9.16,10.92-13.55,2.62-3,5.65-5.73,8.49-8.58,1.78-1.77,3.45-3.66,5.36-5.27a18,18,0,0,1,4.08-2.28,2.63,2.63,0,0,1,1.71-.09c3.81,1,5.86,4.15,8.11,7a45.19,45.19,0,0,1,4.8,6.5c.62,1.16.66,3.45-.09,4.36-3,3.66-6.6,6.89-9.75,10.46-4.27,4.83-8.35,9.83-12.52,14.75-1.87,2.21-3.82,4.36-5.66,6.6-6.23,7.57-12.65,15-18.59,22.81-5.79,7.59-11.28,15.43-16.52,23.41-3.1,4.73-5.41,10-8.16,14.94-1,1.82-2.29,3.48-3.41,5.24a11.9,11.9,0,0,0-.7,1.54,5.5,5.5,0,0,0,1.53-.12c11.3-4.08,22.55-8.3,33.89-12.25,5.29-1.85,10.77-3.15,16.13-4.78,4.82-1.47,9.56-3.18,14.39-4.54,6.93-2,14-3.53,20.86-5.59,6.16-1.84,12.19-4.11,18.27-6.22a5.12,5.12,0,0,1,5.77,1.77c1,1.37,2.11,2.63,3,4,.67,1,1.08,2.15,1.68,3.2a12.21,12.21,0,0,0,1.57,2.31c1,1.06.6,2.81-1.06,3.66s-3.5,1.51-5.22,2.34c-.47.24-.8.79-1.19,1.2a9.54,9.54,0,0,1,1.58-.29c1.1-.06,2-1.87,3.28-.36l-2.45,1.76a7.42,7.42,0,0,1-1.77,1.25c-1.12.37-2.37,2.29-3.52-.08-.14-.27-1.06-.16-1.62-.22.23.28.65.55.66.84,0,.46-.14,1.24-.41,1.33-1.68.56-3.49.79-5.13,1.46-3.92,1.6-7.7,3.55-11.67,5-1.63.61-3.59.32-5.4.47a2.34,2.34,0,0,0-1.22.33c-4.9,3.7-11,4-16.54,6-5.25,1.93-10.72,3.26-16,5.13-10.26,3.63-20.45,7.45-30.66,11.21-6.76,2.49-13.5,5-20.25,7.56a3.41,3.41,0,0,0-1,.39,12.93,12.93,0,0,0-1.19,1.26,4.42,4.42,0,0,0,1.57.6c1.85-.06,3.7-.26,5.54-.42,3.31-.3,6.63-.56,9.93-.94,1.27-.15,2.49-.71,3.76-.87,4-.52,8-.76,12-1.45,4.37-.76,8.66-2,13-2.86,3.39-.68,6.84-1.06,10.24-1.69,3.75-.69,7.47-1.55,11.21-2.26q5.29-1,10.63-1.84c3.29-.51,6.59-1,9.9-1.37s6.89-.59,10.32-.94c2.36-.25,4.69-.61,7-.91,3.63-.46,7.28-.84,10.9-1.41,2.11-.33,4.15-1.18,6.27-1.38,1.53-.15,3.84-1.4,4.28,1.66,0,.25.37.51.63.65,3.09,1.59,2.58,4.83,3.46,7.43a4.28,4.28,0,0,0,.67,1.29c.5.64,1.64,1.45,1.5,1.77a4.81,4.81,0,0,1-2,2.31,20.36,20.36,0,0,1-3.88,1.2,6.41,6.41,0,0,0-1.86.57c-.39.27-.52.91-.76,1.39a11.35,11.35,0,0,0,1.64.09c.46,0,.91-.28,1.36-.27s.63.29.94.46c-.23.25-.43.64-.71.72-2.88.81-5.79,1.52-8.67,2.33-2.41.68-4.77,1.61-7.21,2.14s-4.91.69-7.36,1.07c-3.66.55-7.31,1.19-11,1.72-2.76.4-5.55.58-8.29,1-6,1-12,2.05-17.93,3.21-5.78,1.13-11.5,2.54-17.29,3.61-5.08.94-10.26,1.33-15.31,2.38a125.29,125.29,0,0,1-28,2.74c-4.24-.08-8.49.26-12.73.43a2.07,2.07,0,0,0-1.24.3c-2,2-4,4-6,5.93a21.58,21.58,0,0,1-2.56,2.11c-1.44,1-1.16,2.2-.44,3.47,4.16,7.37,8.57,14.61,12.41,22.14,4.29,8.44,8.2,17.08,12,25.74,2.47,5.62,4.6,11.4,6.64,17.19,1.16,3.28,1.84,6.73,2.73,10.1,1.38,5.24,2.69,10.49,4.15,15.71a32.08,32.08,0,0,0,2.31,6.37c3,5.59,4,11.8,5.93,17.73a37.42,37.42,0,0,1,1.55,4.38c.17.84-.6,1.81-.6,2.73,0,1.85-1.18.79-1.89.89-1.16.16-2.31.34-3.47.49a15.33,15.33,0,0,1-2,.19c-1.79,0-3.64-.41-5.35-.06-3.39.68-4,.17-4.81-3.09-1.12-4.54-2.63-9-4.14-13.41-3-8.7-6-17.36-9.08-26-2.48-7.08-4.85-14.19-7.47-21.21-1.8-4.83-4-9.51-6-14.27-2.41-5.8-4.75-11.63-7.22-17.41-1.78-4.15-3.76-8.22-5.57-12.37-1.27-2.91-2.43-5.87-3.57-8.83-.55-1.42-2.36-2.49-3.59-1.61-2.49,1.78-5.38,1.56-8.11,2-1.65.27-1.79,1-1.64,2.36.52,4.69.84,9.41,1.44,14.09.43,3.36,1.26,6.67,1.76,10a38.43,38.43,0,0,1,0,4.43c.14,4.37.33,8.73.45,13.1q.27,10.45.45,20.9c.06,2.78-.13,5.57,0,8.33.36,5.7.89,11.39,1.34,17.09,0,.53,0,1.07,0,1.6,0,5-.06,10.09,0,15.13,0,3.15.8,6.38.31,9.42-.7,4.44,1.89,8.56,1,12.77-1.23,5.54-.56,11.07-.84,16.6-.07,1.49-.71,2.33-2.48,2.36-2.33,0-4.79-.75-7,.81-.3.21-1.14-.14-1.6-.43-2.45-1.52-4.64-.94-6.8.65-.22.16-1.12-.07-1.19-.29A25.72,25.72,0,0,1,1532,541c-.81-5.4-1.56-10.82-2.3-16.24-.22-1.61-.37-3.23-.46-4.85-.33-5.76-.69-11.51-.91-17.27-.23-6.2-.3-12.41-.48-18.61-.12-4.45-.3-8.89-.45-13.34s-.34-8.73-.45-13.1c-.18-7.05-.24-14.09-.49-21.13-.18-4.85-.34-9.72-1-14.52-.82-6.39-2.08-12.72-3.13-19.08-.09-.52,0-1.07,0-1.6-.25-2.57-.92-3-3.45-3.24a11.89,11.89,0,0,1-4.47-1.31c-1.47-.77-1.94-.54-2.18,1-.56,3.65-1.09,7.31-1.85,10.92s-1.69,7.38-2.75,11c-1.41,4.83-2.88,9.65-4.58,14.38-2.62,7.31-5.46,14.55-8.23,21.81q-3.88,10.2-7.79,20.38c-2.14,5.53-4.21,11.1-6.5,16.56-2.93,7-6,13.87-9.11,20.76a25.71,25.71,0,0,1-2.79,4.79c-.48.65-1.8,1.37-2.37,1.14-3.1-1.25-6.35-1-9.54-1.36a13,13,0,0,1-4.88-2c-1.32-.8-4.32-1-5.62,0-.26.2-.54.37-.81.55-.19-.38-.55-.77-.53-1.14.1-2.61.26-5.22.45-7.83a1.49,1.49,0,0,1,.59-.89c4.41-3.57,5.6-9,7.6-13.82,3.22-7.84,6.15-15.79,9.21-23.7q3.66-9.48,7.34-19c3.45-8.88,7.09-17.7,10.31-26.67,2.63-7.33,4.83-14.82,7.07-22.29a44.26,44.26,0,0,0,1.37-7.45c.21-1.68.48-3.57-.09-5.06-.49-1.29-2.1-2.18-3.27-3.17s-3-1.17-1.69-3.27c.14-.22-.34-1.19-.62-1.23a2.51,2.51,0,0,0-1.82.4c-1.64,1.48-3.17,3.1-4.73,4.67-5.72,5.71-11.38,11.49-17.18,17.13-3.77,3.67-7.75,7.12-11.59,10.73-5.73,5.37-11.43,10.79-17.13,16.2-3.72,3.54-7.38,7.15-11.14,10.66q-9.15,8.56-18.4,17a3.05,3.05,0,0,1-3.31.72c-3.39-1-7-1.05-10.4-2.07a25,25,0,0,1-7.12-3.77c-3.15-2.27-3.19-4.76-.63-7.81.54-.65.75-1.59,1.34-2.18,1.58-1.57,3.28-3,4.94-4.53,3.28-3,6.64-5.86,9.82-8.94,8.67-8.42,17.23-17,25.91-25.39,5.36-5.2,10.9-10.24,16.29-15.42,6.47-6.22,12.91-12.47,19.25-18.82,3-3,5.66-6.19,8.44-9.34a6,6,0,0,0,.71-1.53,5.7,5.7,0,0,0-1.45-.27c-6.3.43-12.62.76-18.91,1.39-5.81.59-11.64,1.26-17.39,2.3-13.74,2.49-27.6,2.53-41.46,2.16a20.85,20.85,0,0,1-13-5.11,30.91,30.91,0,0,0-7.06-3.92c-1.13-.51-1.4-.94-1.17-2.13.51-2.71,1.15-5.32,3.92-6.57a12.77,12.77,0,0,1,3.81-.95c2.39-.26,4.82-.23,7.21-.52,4.25-.52,8.47-1.16,12.7-1.81,2.52-.39,5-1,7.54-1.34,3.15-.41,6.33-.56,9.48-1s6.25-1,9.39-1.46c.86-.12,1.77.14,2.65.1,8.24-.36,16.53-.14,24.63-2.15.69-.17,1.54.37,2.28.3a120.25,120.25,0,0,1,12.73-.44c2,0,3.14-1.18,3.65-3,.56-2.06,1.09-4.13,1.68-6.18s-.16-2.9-2.13-3.16c-2.62-.33-5.22-1.06-7.84-1.1-3.9-.05-7.49-1.75-11.25-2a51.35,51.35,0,0,1-11.2-2.23c-2.66-.75-5.24-2-8-2.34-7.62-.94-14.79-3.63-22.24-5.25a35,35,0,0,1-8.19-2.88c-7.54-3.78-15.07-7.61-22.39-11.8-5.11-2.92-9.88-6.42-14.77-9.73-1.22-.83-2-1.78-.89-3.51.89-1.37,2.58-2.72,1-5-.39-.54,1.2-2.76,2.23-3.88.33-.37,1.88.06,2.69.48,5.69,2.9,11.23,6.09,17,8.78a174.61,174.61,0,0,0,16.86,6.87c6.57,2.27,13.26,4.24,20,5.95,3.59.91,7.41.91,11.1,1.48,4.58.69,9.14,1.51,13.69,2.35s9,1.75,13.56,2.68q5.39,1.1,10.72,2.34c3.62.85,7.19,1.88,10.82,2.66,2.3.49,3.63-1.34,4.66-2.87.39-.57-.35-2.33-1-3.17-3.69-4.47-7.41-8.93-11.33-13.19-6-6.51-12.06-13-18.33-19.23-8.16-8.12-16.71-15.85-24.78-24.06-4.4-4.47-8.17-9.57-12.22-14.38-3.35-4-6.89-7.79-10-11.92-3.69-4.9-7.09-10-10.46-15.15a47.18,47.18,0,0,1-3-6.08,2.38,2.38,0,0,1-.19-1.5c.7-2.38,1.5-4.73,2.27-7.08,1.44-4.44,4.67-5.41,8.31-2.57,3,2.37,6,4.78,9.26,6.91a14.92,14.92,0,0,1,5.31,6.5c3.76,8.41,9.16,15.7,15.07,22.64,5.42,6.35,10.86,12.7,16.56,18.8,6.41,6.89,13.07,13.57,19.72,20.23,5.59,5.59,11.39,11,16.95,16.58,3.74,3.77,7.2,7.82,10.87,11.66.59.62,1.94,1.32,2.45,1.05a2.58,2.58,0,0,0,1.18-3.36c-2.14-6.46-4.06-13-6.22-19.44-2-6-4.51-11.91-6.33-18-2.68-8.95-5.57-17.85-7-27.15-.54-3.46-2.21-6.73-3.09-10.16-1.36-5.26-2.54-10.58-3.65-15.9a9.24,9.24,0,0,1,.42-3.24c0-.19.42-.52.51-.48a6.22,6.22,0,0,1,.85.63c.35.25.72.48,1.07.71.1-.4.36-.84.28-1.2-.27-1.25-.73-2.46-1-3.72a10,10,0,0,1,.06-2.18,6.56,6.56,0,0,1,1.28,1.3c1.45,2.72,2,2.83,4.32,1a2.61,2.61,0,0,1,2-.17,3.49,3.49,0,0,1,1.57,1.14,68.15,68.15,0,0,1,5.29,6.26c2,2.87,3.61,6,5.4,9a44.12,44.12,0,0,1,3.5,5.89,58.87,58.87,0,0,1,2.72,9c1.07,4.63,1.89,9.31,2.77,14,.09.48,0,1.36-.23,1.46-2.27.94-1,1.91,0,2.74,2.6,2.24,3.21,5.55,3.78,8.49.82,4.22,3,7.82,4.14,11.85.55,2,1,4,1.55,6,.14.46.65.82,1,1.23a11.31,11.31,0,0,0,.35-1.39c.62-4.71,1.28-9.42,1.82-14.14.27-2.37.23-4.77.5-7.14.54-4.65,1.24-9.27,1.8-13.92.37-3,.48-6,1-9,.86-5.27,1.85-10.52,2.89-15.76,1-4.79,2-9.57,3.07-14.32a17.28,17.28,0,0,1,1.87-5.17c1.92-3.08,1.51-6.58,2.25-9.86a14.11,14.11,0,0,1,1.08-2.76c.33-.71,1.15-1.37,1.13-2C1532.23,169.62,1533.38,170.79,1534.69,171.56Z"></path>
          <path class="cls-2" d="M1479.1,190.24a3.63,3.63,0,0,1-.74-1.08l.57-.18A4.09,4.09,0,0,1,1479.1,190.24Z"></path>
        </g>
        <g>
          <path class="cls-1" d="M816.27,18.09H781V0h90.15V18.09H836v93H816.27Z"></path>
          <path class="cls-1" d="M907.65,0h19.52V46.19h53V0h19.52V111.11H980.19V64.29h-53v46.82H907.65Z"></path>
          <path class="cls-1" d="M1044.09,0h82.38V17.46h-62.86V46.35h55.71V63.81h-55.71V93.65h63.66v17.46h-83.18Z"></path>
        </g>
        <g>
          <path class="cls-1" d="M709.09,575.14h82.7v17.78H728.61v30.31h56V641h-56v45.24H709.09Z"></path>
          <path class="cls-1" d="M827.29,639.11v-64h19.52v63.17c0,20.64,10.64,31.74,28.1,31.74,17.3,0,27.93-10.47,27.93-30.94v-64h19.53v63c0,33.18-18.73,49.84-47.78,49.84C845.7,688,827.29,671.33,827.29,639.11Z"></path>
          <path class="cls-1" d="M965,575.14h18.1L1042.62,652V575.14h19.2V686.25h-16.34l-61.27-79v79H965Z"></path>
          <path class="cls-1" d="M1106.21,575.14h41.43c34.92,0,59,24,59,55.55,0,31.27-24.12,55.56-59,55.56h-41.43Zm41.43,93.33c23.34,0,38.57-15.72,38.57-37.78,0-21.74-15.23-37.77-38.57-37.77h-21.9v75.55Z"></path>
        </g>
      </g>
    </g>
  </g>
</svg>
