<?xml version="1.0" encoding="UTF-8"?>
<!-- Generator: Adobe Illustrator 24.0.0, SVG Export Plug-In . SVG Version: 6.00 Build 0)  -->
<svg xmlns="http://www.w3.org/2000/svg" xmlns:xlink="http://www.w3.org/1999/xlink" version="1.1" id="graph" x="0px" y="0px" viewBox="0 0 35 35" style="enable-background:new 0 0 35 35;" xml:space="preserve">
<style type="text/css">
	.st0{fill:#3C3C3B;}
</style>
<g>
	<circle class="st0" cx="4" cy="31" r="1.9"></circle>
	<path class="st0" d="M4,33.4c-1.3,0-2.4-1.1-2.4-2.4s1.1-2.4,2.4-2.4s2.4,1.1,2.4,2.4S5.4,33.4,4,33.4z M4,29.5   c-0.8,0-1.4,0.6-1.4,1.4s0.6,1.4,1.4,1.4s1.4-0.6,1.4-1.4S4.8,29.5,4,29.5z"></path>
</g>
<path class="st0" d="M30,5c-4.3-4.3-11.3-4.3-15.6,0s-4.3,11.3,0,15.6s11.3,4.3,15.6,0S34.3,9.3,30,5z M27.5,7.5  c-2.9-2.9-7.6-2.9-10.6,0S14,15.1,17,18l-0.7,0.7c-3.3-3.3-3.3-8.7,0-12s8.7-3.3,12,0L27.5,7.5z"></path>
<polygon class="st0" points="7.4,30.1 6.9,29.6 15.2,21.3 13.7,19.8 5.4,28.1 4.9,27.6 13.7,18.8 16.2,21.3 "></polygon>
</svg>
