<?xml version="1.0" encoding="UTF-8"?>
<!-- Generator: Adobe Illustrator 24.0.0, SVG Export Plug-In . SVG Version: 6.00 Build 0)  -->
<svg xmlns="http://www.w3.org/2000/svg" xmlns:xlink="http://www.w3.org/1999/xlink" version="1.1" id="graph" x="0px" y="0px" viewBox="0 0 35 35" style="enable-background:new 0 0 35 35;" xml:space="preserve">
<style type="text/css">
	.st0{fill:#3C3C3B;}
</style>
<g>
	<path class="st0" d="M32.1,21.3h-3.4V15h-3.3V8h6.7V21.3z M29.3,20.7h2.1V8.6H26v5.7h3.3V20.7z"></path>
	<path class="st0" d="M26,30.3H9.4v-6.4h4V27H26V30.3z M10.1,29.6h15.3v-2H12.7v-3.1h-2.7V29.6z"></path>
	<path class="st0" d="M10.1,24.6H2.9V11.2h3.9v9.5h3.3V24.6z M3.6,23.9h5.9v-2.6H6.2v-9.5H3.6V23.9z"></path>
	<path class="st0" d="M10.1,21.3H6.2V8h3.9V21.3z M6.8,20.7h2.6V8.6H6.8V20.7z"></path>
	<path class="st0" d="M26,11.8H9.4V4.7H26V11.8z M10.1,11.2h15.3V5.4H10.1V11.2z"></path>
	<path class="st0" d="M29.3,27.7H12.7v-3.8h12.6v-9.6h4V27.7z M13.4,27h15.3V15H26v9.6H13.4V27z"></path>
	<g>
		<rect x="9.7" y="11.5" class="st0" width="15.9" height="12.7"></rect>
		<path class="st0" d="M26,24.6H9.4V11.2H26V24.6z M10.1,23.9h15.3V11.8H10.1V23.9z"></path>
	</g>
</g>
</svg>
