<?xml version="1.0" encoding="UTF-8"?>
<!-- Generator: Adobe Illustrator 24.0.0, SVG Export Plug-In . SVG Version: 6.00 Build 0)  -->
<svg xmlns="http://www.w3.org/2000/svg" xmlns:xlink="http://www.w3.org/1999/xlink" version="1.1" id="graph" x="0px" y="0px" viewBox="0 0 35 35" style="enable-background:new 0 0 35 35;" xml:space="preserve">
<style type="text/css">
	.st0{fill:#3C3C3B;}
</style>
<g>
	<path class="st0" d="M31.6,16.3v4.8c-3.4,0-6.1,2.7-6.1,6.1H9.4c0-3.4-2.7-6.1-6.1-6.1v-4.8c3.4,0,6.1-2.7,6.1-6.1h16.2   C25.6,13.5,28.3,16.3,31.6,16.3z"></path>
	<path class="st0" d="M25.9,27.5H9v-0.3c0-3.2-2.6-5.7-5.7-5.7H2.9V16h0.3C6.4,16,9,13.4,9,10.2V9.9h16.8l0,0.3   c0.1,3.1,2.7,5.8,5.7,5.8h0.3v5.4h-0.3c-3.2,0-5.7,2.6-5.7,5.7V27.5z M9.7,26.8h15.5c0.2-3.3,2.8-5.9,6.1-6.1v-4.1   c-3.1-0.2-5.8-2.9-6.1-6.1H9.7c-0.2,3.3-2.8,5.9-6.1,6.1v4.1C6.9,20.9,9.5,23.6,9.7,26.8z"></path>
</g>
<polygon class="st0" points="22.9,10.6 22.3,10.6 22.3,5.6 12.7,5.6 12.7,10.6 12.1,10.6 12.1,4.9 22.9,4.9 "></polygon>
<g>
	<rect x="12.4" y="5.2" class="st0" width="10.2" height="2.4"></rect>
	<path class="st0" d="M22.9,8H12.1V4.9h10.9V8z M12.7,7.3h9.5V5.6h-9.5V7.3z"></path>
</g>
<path class="st0" d="M32.2,27.5H3.1V9.9h29.1V27.5z M3.7,26.8h27.8V10.6H3.7V26.8z"></path>
</svg>
