<?xml version="1.0" encoding="UTF-8"?>
<!-- Generator: Adobe Illustrator 24.0.0, SVG Export Plug-In . SVG Version: 6.00 Build 0)  -->
<svg xmlns="http://www.w3.org/2000/svg" xmlns:xlink="http://www.w3.org/1999/xlink" version="1.1" id="graph" x="0px" y="0px" viewBox="0 0 35 35" style="enable-background:new 0 0 35 35;" xml:space="preserve">
<style type="text/css">
	.st0{fill:#3C3C3B;}
</style>
<g>
	<path class="st0" d="M2.5,26.4v2.9c10,4.5,20-5.3,30-0.8v-2.9C22.5,21.1,12.5,30.8,2.5,26.4z"></path>
	<path class="st0" d="M2.5,22.5v2.9c10,4.5,20-5.3,30-0.8v-2.9C22.5,17.2,12.5,27,2.5,22.5z"></path>
	<path class="st0" d="M32.5,16V6.3l-0.2-0.1c-5-2.3-10-1-14.9,0.1C12.5,7.6,7.8,8.7,3,6.6L2.5,6.4v12.3l0,0v2.9   c10,4.4,20-5.3,30-0.8L32.5,16C32.5,16,32.5,16,32.5,16z M3.2,7.5c4.8,1.9,9.7,0.8,14.3-0.4c4.9-1.2,9.5-2.3,14.2-0.3v10.7   c-4.8-1.9-9.7-0.8-14.3,0.4c-4.9,1.2-9.5,2.3-14.2,0.3V7.5z"></path>
	<path class="st0" d="M13.8,15.6c0.2,0.3,0.4,0.5,0.7,0.7c0.6,0.5,1.3,0.7,2.1,0.7c0.3,0,0.7,0,1-0.1c1.6-0.4,2.9-1.6,3.7-3   c2.2-0.4,4.5-0.7,6.7-0.5l0.4,0V9l-0.3,0c-2.3-0.3-4.6,0-6.9,0.4c-0.2-0.3-0.4-0.5-0.7-0.7c-0.9-0.7-2-0.9-3.1-0.6   c-1.6,0.4-2.9,1.6-3.7,3c-2.2,0.4-4.5,0.7-6.7,0.5l-0.4,0V16l0.3,0c0.6,0.1,1.3,0.1,1.9,0.1C10.5,16.1,12.1,15.9,13.8,15.6z    M27.7,9.7v3c-2-0.2-4,0-6,0.4c0.2-0.5,0.3-1,0.3-1.5c0-0.5-0.1-1-0.3-1.5C23.6,9.7,25.7,9.5,27.7,9.7z M7.3,15.3v-3   c2,0.2,4,0,6-0.4c-0.2,0.5-0.3,1-0.3,1.5c0,0.5,0.1,1,0.3,1.5C11.4,15.3,9.4,15.5,7.3,15.3z"></path>
</g>
</svg>
