<?xml version="1.0" encoding="UTF-8"?>
<!-- Generator: Adobe Illustrator 24.0.0, SVG Export Plug-In . SVG Version: 6.00 Build 0)  -->
<svg xmlns="http://www.w3.org/2000/svg" xmlns:xlink="http://www.w3.org/1999/xlink" version="1.1" id="graph" x="0px" y="0px" viewBox="0 0 35 35" style="enable-background:new 0 0 35 35;" xml:space="preserve">
<style type="text/css">
	.st0{fill:#3C3C3B;}
</style>
<polygon class="st0" points="31.4,20.3 31.4,29.7 23.8,29.7 23.8,22.6 20.5,17.6 18.2,14.2 20.4,12.6 22.1,12.9 26.8,13.5 "></polygon>
<path class="st0" d="M23.7,14.4l-3.2,3.2l-4.8,4.9C15,23.3,14,23.7,13,23.7h0c-1,0-2-0.4-2.7-1.1L4.7,17l5.3-5.3l3,3l2.5-2.6l5,0.6  l1.7,0.2L23.7,14.4z"></path>
<polygon class="st0" points="26.7,13.8 15.3,12.4 16.8,1.1 17.5,1.2 16.2,11.7 26.1,13 26.7,8.2 27.4,8.3 "></polygon>
<path class="st0" d="M34.5,33.2H23.9v-3.8h7.4c1.8,0,3.2,1.5,3.2,3.2V33.2z M24.6,32.4h9.2c-0.1-1.3-1.2-2.3-2.5-2.3h-6.7V32.4z"></path>
<path class="st0" d="M3,17.9c-0.9,0-1.7-0.3-2.3-0.9l-0.4-0.4l7.3-7.3l2.7,2.7l-5,5C4.7,17.5,3.9,17.9,3,17.9z M1.4,16.5  c1,0.8,2.5,0.8,3.4-0.1l4.5-4.5l-1.6-1.6L1.4,16.5z"></path>
<path class="st0" d="M30.3,9.1l-8.1-1c-1.8-0.2-3-1.8-2.8-3.6l0.4-3.1l0.7,0.1l-0.4,3.1C20,5.9,21,7.1,22.3,7.3l8.1,1L30.3,9.1z"></path>
<rect x="11.3" y="32.4" class="st0" width="12.8" height="0.8"></rect>
</svg>
