<?xml version="1.0" encoding="UTF-8"?>
<!-- Generator: Adobe Illustrator 24.0.0, SVG Export Plug-In . SVG Version: 6.00 Build 0)  -->
<svg xmlns="http://www.w3.org/2000/svg" xmlns:xlink="http://www.w3.org/1999/xlink" version="1.1" id="graph" x="0px" y="0px" viewBox="0 0 35 35" style="enable-background:new 0 0 35 35;" xml:space="preserve">
<style type="text/css">
	.st0{fill:#3C3C3B;}
</style>
<polygon class="st0" points="17.5,34.8 8.9,17.8 8.9,0.4 9.7,0.4 9.7,17.7 17.5,33.1 25.3,17.7 25.3,0.4 26.1,0.4 26,18 "></polygon>
<path class="st0" d="M26.1,0.4v17.3l-0.4,0.1l-0.4,0.1c-1-3-2.4-4.7-3.7-4.7s-2.7,1.7-3.7,4.7h-0.7c-1-3-2.4-4.7-3.7-4.7  c-1.4,0-2.7,1.7-3.7,4.7l-0.4-0.1l-0.4-0.1V0.4h0.4H17v12h1v-12h7.7C25.7,0.4,26.1,0.4,26.1,0.4z"></path>
<g>
	<polygon class="st0" points="14.2,27.5 20.7,27.5 17.5,34  "></polygon>
	<path class="st0" d="M17.1,34.1l-3.3-6.5l0.3-0.5h6.5l0.3,0.5l-3.2,6.5L17.1,34.1z M14.8,27.9l2.7,5.3l2.6-5.3H14.8z"></path>
</g>
</svg>
