<?xml version="1.0" encoding="UTF-8"?>
<!-- Generator: Adobe Illustrator 24.0.0, SVG Export Plug-In . SVG Version: 6.00 Build 0)  -->
<svg xmlns="http://www.w3.org/2000/svg" xmlns:xlink="http://www.w3.org/1999/xlink" version="1.1" id="Layer_1" x="0px" y="0px" viewBox="0 0 35 35" style="enable-background:new 0 0 35 35;" xml:space="preserve">
<style type="text/css">
	.st0{fill:#3C3C3B;}
</style>
<g>
	<g>
		<circle class="st0" cx="7.8" cy="15" r="3"></circle>
		<path class="st0" d="M7.8,18.3c-1.9,0-3.4-1.5-3.4-3.4s1.5-3.4,3.4-3.4s3.4,1.5,3.4,3.4S9.7,18.3,7.8,18.3z M7.8,12.4    c-1.4,0-2.6,1.2-2.6,2.6s1.2,2.6,2.6,2.6s2.6-1.2,2.6-2.6S9.2,12.4,7.8,12.4z"></path>
	</g>
	<path class="st0" d="M13,23.2h-0.8c0-2.5-2-4.5-4.5-4.5c-2.5,0-4.5,2-4.5,4.5H2.6c0-2.9,2.3-5.2,5.2-5.2C10.7,18,13,20.3,13,23.2z"></path>
	<g>
		<circle class="st0" cx="17.5" cy="15" r="3"></circle>
		<path class="st0" d="M17.5,18.3c-1.9,0-3.4-1.5-3.4-3.4s1.5-3.4,3.4-3.4c1.9,0,3.4,1.5,3.4,3.4S19.4,18.3,17.5,18.3z M17.5,12.4    c-1.4,0-2.6,1.2-2.6,2.6s1.2,2.6,2.6,2.6s2.6-1.2,2.6-2.6S18.9,12.4,17.5,12.4z"></path>
	</g>
	<path class="st0" d="M22.7,23.2H22c0-2.5-2-4.5-4.5-4.5s-4.5,2-4.5,4.5h-0.8c0-2.9,2.3-5.2,5.2-5.2C20.4,18,22.7,20.3,22.7,23.2z"></path>
	<g>
		<circle class="st0" cx="12.6" cy="4.2" r="3"></circle>
		<path class="st0" d="M12.6,7.5c-1.9,0-3.4-1.5-3.4-3.4s1.5-3.4,3.4-3.4S16,2.3,16,4.2S14.5,7.5,12.6,7.5z M12.6,1.6    c-1.4,0-2.6,1.2-2.6,2.6s1.2,2.6,2.6,2.6s2.6-1.2,2.6-2.6S14.1,1.6,12.6,1.6z"></path>
	</g>
	<path class="st0" d="M17.9,12.4h-0.8c0-2.5-2-4.5-4.5-4.5c-2.5,0-4.5,2-4.5,4.5H7.4c0-2.9,2.3-5.2,5.2-5.2   C15.5,7.2,17.9,9.5,17.9,12.4z"></path>
	<g>
		<circle class="st0" cx="27.2" cy="15" r="3"></circle>
		<path class="st0" d="M27.2,18.3c-1.9,0-3.4-1.5-3.4-3.4s1.5-3.4,3.4-3.4c1.8,0,3.4,1.5,3.4,3.4S29,18.3,27.2,18.3z M27.2,12.4    c-1.4,0-2.6,1.2-2.6,2.6s1.2,2.6,2.6,2.6s2.6-1.2,2.6-2.6S28.6,12.4,27.2,12.4z"></path>
	</g>
	<path class="st0" d="M32.4,23.2h-0.8c0-2.5-2-4.5-4.5-4.5s-4.5,2-4.5,4.5H22c0-2.9,2.3-5.2,5.2-5.2C30.1,18,32.4,20.3,32.4,23.2z"></path>
	<g>
		<circle class="st0" cx="22.4" cy="4.2" r="3"></circle>
		<path class="st0" d="M22.3,7.5C20.5,7.5,19,6,19,4.2s1.5-3.4,3.4-3.4c1.9,0,3.4,1.5,3.4,3.4S24.2,7.5,22.3,7.5z M22.3,1.6    c-1.4,0-2.6,1.2-2.6,2.6s1.2,2.6,2.6,2.6S25,5.6,25,4.2S23.8,1.6,22.3,1.6z"></path>
	</g>
	<path class="st0" d="M27.6,12.4h-0.8c0-2.5-2-4.5-4.5-4.5c-2.5,0-4.5,2-4.5,4.5h-0.8c0-2.9,2.3-5.2,5.2-5.2   C25.2,7.2,27.6,9.5,27.6,12.4z"></path>
	<g>
		<circle class="st0" cx="12.6" cy="25.8" r="3"></circle>
		<path class="st0" d="M12.6,29.1c-1.9,0-3.4-1.5-3.4-3.4c0-1.9,1.5-3.4,3.4-3.4s3.4,1.5,3.4,3.4C16,27.6,14.5,29.1,12.6,29.1z     M12.6,23.2c-1.4,0-2.6,1.2-2.6,2.6s1.2,2.6,2.6,2.6s2.6-1.2,2.6-2.6S14.1,23.2,12.6,23.2z"></path>
	</g>
	<path class="st0" d="M17.9,34h-0.8c0-2.5-2-4.5-4.5-4.5c-2.5,0-4.5,2-4.5,4.5H7.4c0-2.9,2.3-5.2,5.2-5.2   C15.5,28.8,17.9,31.1,17.9,34z"></path>
	<g>
		<circle class="st0" cx="22.4" cy="25.8" r="3"></circle>
		<path class="st0" d="M22.3,29.1c-1.8,0-3.4-1.5-3.4-3.4c0-1.9,1.5-3.4,3.4-3.4c1.9,0,3.4,1.5,3.4,3.4    C25.7,27.6,24.2,29.1,22.3,29.1z M22.3,23.2c-1.4,0-2.6,1.2-2.6,2.6s1.2,2.6,2.6,2.6s2.6-1.2,2.6-2.6S23.8,23.2,22.3,23.2z"></path>
	</g>
	<path class="st0" d="M27.6,34h-0.8c0-2.5-2-4.5-4.5-4.5c-2.5,0-4.5,2-4.5,4.5h-0.8c0-2.9,2.3-5.2,5.2-5.2   C25.2,28.8,27.6,31.1,27.6,34z"></path>
</g>
</svg>
