<?xml version="1.0" encoding="UTF-8"?>
<!-- Generator: Adobe Illustrator 24.0.0, SVG Export Plug-In . SVG Version: 6.00 Build 0)  -->
<svg xmlns="http://www.w3.org/2000/svg" xmlns:xlink="http://www.w3.org/1999/xlink" version="1.1" id="Layer_1" x="0px" y="0px" viewBox="0 0 35 35" style="enable-background:new 0 0 35 35;" xml:space="preserve">
<style type="text/css">
	.st0{fill:#3C3C3B;}
</style>
<g>
	<rect x="13.3" y="27.2" class="st0" width="8.3" height="0.7"></rect>
	<rect x="13.3" y="29.8" class="st0" width="8.3" height="0.7"></rect>
	<g>
		<path class="st0" d="M15.3,30.1c0,1.2,1,2.2,2.2,2.2c1.2,0,2.2-1,2.2-2.2"></path>
		<path class="st0" d="M17.5,32.6c-1.4,0-2.5-1.1-2.5-2.5h0.7c0,1,0.8,1.9,1.9,1.9c1,0,1.9-0.8,1.9-1.9H20    C20,31.5,18.9,32.6,17.5,32.6z"></path>
	</g>
</g>
<path class="st0" d="M24.3,5.2c-3.7-3.7-9.8-3.7-13.5,0C7,8.9,7,14.9,10.7,18.7c1.7,1.7,2.6,3.9,2.6,6.3v0.3h2.1V13.8h0.9v11.5h2.4  V13.8h0.9v11.5h2.1V25c0-2.4,0.9-4.6,2.6-6.3C28,14.9,28,8.9,24.3,5.2z M19.6,12.6h-4.2v-0.9h4.2V12.6z"></path>
</svg>
