<?xml version="1.0" encoding="UTF-8"?>
<!-- Generator: Adobe Illustrator 24.0.0, SVG Export Plug-In . SVG Version: 6.00 Build 0)  -->
<svg xmlns="http://www.w3.org/2000/svg" xmlns:xlink="http://www.w3.org/1999/xlink" version="1.1" id="graph" x="0px" y="0px" viewBox="0 0 35 35" style="enable-background:new 0 0 35 35;" xml:space="preserve">
<style type="text/css">
	.st0{fill:#3C3C3B;}
</style>
<g>
	<path class="st0" d="M4.2,18.2c0.6-0.4,1-1.5,1.4-2.6c0.6-1.7,1.3-3.4,2.8-3.4s2.1,1.8,2.8,3.4c0.5,1.4,1,2.8,1.8,2.8   c0.8,0,1.3-1.4,1.8-2.8c0.6-1.7,1.3-3.4,2.8-3.4s2.1,1.8,2.8,3.4c0.5,1.4,1,2.8,1.8,2.8c0.8,0,1.3-1.4,1.8-2.8   c0.6-1.7,1.3-3.4,2.8-3.4s2.1,1.8,2.8,3.4c0.4,1.1,0.8,2.3,1.4,2.6L31,18c3.2-3.2,3.2-8.3,0-11.5s-8.4-3.2-11.5,0   c-0.9,0.9-1.6,2.1-2,3.3c-0.4-1.2-1.1-2.3-2-3.3c-3.2-3.2-8.4-3.2-11.5,0s-3.2,8.4,0,11.5L4.2,18.2z"></path>
	<path class="st0" d="M28.4,15.9c-0.5-1.4-1-2.8-1.8-2.8c-0.8,0-1.3,1.4-1.8,2.8c-0.6,1.7-1.3,3.4-2.8,3.4s-2.1-1.8-2.8-3.4   c-0.5-1.4-1-2.8-1.8-2.8s-1.3,1.4-1.8,2.8c-0.6,1.7-1.3,3.4-2.8,3.4s-2.1-1.8-2.8-3.4c-0.5-1.4-1-2.8-1.8-2.8s-1.3,1.4-1.8,2.8   c-0.4,1.2-0.9,2.4-1.7,3l12.6,12.9L30.1,19C29.3,18.3,28.9,17.1,28.4,15.9z"></path>
</g>
</svg>
