<?xml version="1.0" encoding="UTF-8"?>
<!-- Generator: Adobe Illustrator 24.0.0, SVG Export Plug-In . SVG Version: 6.00 Build 0)  -->
<svg xmlns="http://www.w3.org/2000/svg" xmlns:xlink="http://www.w3.org/1999/xlink" version="1.1" id="graph" x="0px" y="0px" viewBox="0 0 35 35" style="enable-background:new 0 0 35 35;" xml:space="preserve">
<style type="text/css">
	.st0{fill:#3C3C3B;}
</style>
<rect x="17.1" y="21" class="st0" width="0.8" height="5.9"></rect>
<rect x="17.1" y="8.1" class="st0" width="0.8" height="5.9"></rect>
<rect x="8.1" y="17.1" class="st0" width="5.9" height="0.8"></rect>
<rect x="21" y="17.1" class="st0" width="5.9" height="0.8"></rect>
<rect x="21.7" y="19.1" transform="matrix(0.7063 -0.7079 0.7079 0.7063 -9.1348 22.0829)" class="st0" width="0.7" height="5.9"></rect>
<rect x="12.6" y="10" transform="matrix(0.7062 -0.708 0.708 0.7062 -5.3656 12.9689)" class="st0" width="0.7" height="5.9"></rect>
<polygon class="st0" points="20.1,15.4 20,15.4 20,15 19.7,14.8 23.9,10.6 24.4,11.1 "></polygon>
<rect x="10" y="21.7" transform="matrix(0.7084 -0.7058 0.7058 0.7084 -11.7883 15.5661)" class="st0" width="5.9" height="0.7"></rect>
<circle class="st0" cx="17.5" cy="4.3" r="3"></circle>
<circle class="st0" cx="8.2" cy="8.2" r="3"></circle>
<circle class="st0" cx="4.3" cy="17.5" r="3"></circle>
<circle class="st0" cx="8.2" cy="26.8" r="3"></circle>
<circle class="st0" cx="17.5" cy="30.7" r="3"></circle>
<circle class="st0" cx="26.8" cy="26.8" r="3"></circle>
<circle class="st0" cx="30.7" cy="17.5" r="3"></circle>
<circle class="st0" cx="26.8" cy="8.2" r="3"></circle>
<g>
	<path class="st0" d="M17.5,14.5c1.6,0,3,1.3,3,3s-1.3,3-3,3s-3-1.3-3-3S15.9,14.5,17.5,14.5 M17.5,13.8c-2.1,0-3.7,1.7-3.7,3.7   s1.7,3.7,3.7,3.7s3.7-1.7,3.7-3.7S19.5,13.8,17.5,13.8L17.5,13.8z"></path>
</g>
</svg>
