<?xml version="1.0" encoding="UTF-8"?>
<svg xmlns="http://www.w3.org/2000/svg" viewBox="0 0 1920 1065.35">
  <defs>
    <style>
      .cls-1 {
        fill: #404040;
      }

      .cls-2 {
        fill: #d6de24;
      }
    </style>
  </defs>
  <g id="Layer_2" data-name="Layer 2">
    <g id="That_Spark" data-name="That Spark">
      <g>
        <path class="cls-1" d="M726.52,343.71a32,32,0,0,0-1.45,9.2q0,11.14,10.16,11.13,9.67,0,19.37-10.41t15.49-26.38l7.74-20.81H787l-9.2,26.62q-9.69,28.08-29.52,43.33t-47.45,15.25q-27.12,0-40.42-14t-13.31-38.25q0-12.57,4.84-31L699.41,143.3h-44l2.42-9.69h44.54l20.33-71.16q50.82-.48,88.1-6.78L788,133.61h48.41L835,143.3H785.1Z"></path>
        <path class="cls-1" d="M1067.31,306.44h9.2l-12.11,35.34q-17.42,49.86-69.22,49.86-26.14,0-38.49-12.34t-12.34-33.65q0-16.93,6.78-37.28L992.76,183q3.87-11.12,3.87-18.88,0-7.26-4.84-7.26-16,0-43.33,53.74T897.87,336.45l-13.06,45-.49,1.94v-.49l-.48,1.94H798.15L894,62q2.43-8.72,2.42-13.56,0-9.67-7.5-14T863.51,30l3.38-10.17a489,489,0,0,0,69.23-5.32A382.06,382.06,0,0,0,996.63,0L934.18,213.49q23.24-49.86,45.75-68.26t52.52-18.39q47.44,0,47.44,40.18,0,13.06-6.29,32.92l-47.92,143.77q-2.43,8.24-2.42,11.63,0,8.7,8.23,8.7,14,0,25.66-30.49Z"></path>
        <path class="cls-1" d="M1210.29,343.23q10.17-15.5,23.24-55.67l34.85-116.19a39.26,39.26,0,0,0,.49-7.26q0-13.55-9.2-13.55-13.56,0-33.16,28.07t-33.64,70.69q-14,42.6-14,83.74,0,14.06,2.42,19.85a8.73,8.73,0,0,0,8.71,5.81q10.17,0,20.33-15.49m133.13-36.79h9.2l-12.11,35.34q-17.41,49.86-69.22,49.86-29.54,0-42.12-16.94-8.24-12.1-8.23-29.53a52.41,52.41,0,0,1,.49-8.24q-11.62,29.55-30,42.12t-43.57,12.59q-30,0-45-15.49t-15-45q0-45.49,24.45-93.43t61-79.4q36.56-31.45,70-31.46,27.6,0,30,27.59l6.3-20.33a569.08,569.08,0,0,0,87.63-7.26l-65.36,216.87a39.83,39.83,0,0,0-1.93,11.63c0,5.8,2.57,8.7,7.74,8.7q14,0,25.66-30.49Z"></path>
        <path class="cls-1" d="M1456.06,343.71a32,32,0,0,0-1.45,9.2q0,11.14,10.16,11.13,9.69,0,19.37-10.41t15.49-26.38l7.75-20.81h9.19l-9.19,26.62q-9.7,28.08-29.53,43.33t-47.45,15.25q-27.12,0-40.41-14t-13.32-38.25q0-12.57,4.84-31L1429,143.3h-44l2.42-9.69h44.54l20.33-71.16Q1503,62,1540.3,55.67l-22.76,77.94H1566l-1.46,9.69h-49.86Z"></path>
        <path class="cls-1" d="M690.69,752.29q15,0,24.93-9.93t9.93-26.86q0-15.5-7.26-32.68t-20.82-39.45q-16-25.67-22.51-40.19a78.06,78.06,0,0,1-6.54-32.43q0-32.43,24.69-52.77t71.65-20.33q35.82,0,59.54,12.83T848,553.33a51.21,51.21,0,0,1-9.19,29.76q-9.21,13.33-25.18,13.32-14.52,0-22.75-11.38t-8.23-29.28a74.81,74.81,0,0,1,4.6-26.38q4.59-12.36,10.89-19.13c-2.58-1.28-6.62-1.94-12.1-1.94q-16.95,0-25.66,9.93T751.69,547A54.78,54.78,0,0,0,757,570.51q5.32,11.38,17.43,31.71l5.81,9.68q16,27.6,22.51,44.78a93.06,93.06,0,0,1,6.54,33.16,64.17,64.17,0,0,1-11.14,36.79Q787,743.1,765.24,752.77t-52.76,9.69q-39.21,0-64.39-14.29t-25.17-47.68q0-18.39,9-30.74t24-12.35q14,0,22.75,11.63t8.71,31a74.81,74.81,0,0,1-3.63,24.21q-3.63,10.65-9.92,24.69a39.64,39.64,0,0,0,16.94,3.39"></path>
        <path class="cls-1" d="M993,719.12q20.57-27.33,33.64-69t13.07-80.85q0-23.7-2.9-31.46t-8.72-7.75q-10.65,0-22.51,16.22t-23,43.81L939,744.54a54.3,54.3,0,0,0,12.59,1.93q20.8,0,41.39-27.35M1113.3,518q16.46,20.32,16.46,58.58,0,39.71-17.91,83.26t-51.31,73.1q-33.4,29.54-77.46,29.53a117,117,0,0,1-25.17-2.66,90.07,90.07,0,0,1-20.82-7l-10.17,35.34q-3.87,14-3.87,21.3,0,13.55,9.44,18.39t30.74,5.33l-2.9,10.16-13.07-.48q-55.18-1.45-71.17-1.45-16.46,0-67.28,1.45a99.68,99.68,0,0,1-10.65.48l2.91-10.16q17.43,0,25.16-6.29t12.6-23.73L925,492.32a288.54,288.54,0,0,1-29.28,53.25,479.49,479.49,0,0,1-39.94,48.9l-5.32-6.3q20.8-23.24,34.13-41.15a367.26,367.26,0,0,0,27.35-43.81q14-25.87,27.59-63.17A392.3,392.3,0,0,0,1030,421.65l-36.79,130.7q14.5-28.07,31.7-41.39a61.29,61.29,0,0,1,38.49-13.31q33.39,0,49.86,20.33"></path>
        <path class="cls-1" d="M1261,714q10.18-15.49,23.24-55.67l34.86-116.19a40.32,40.32,0,0,0,.48-7.25q0-13.56-9.2-13.56-13.55,0-33.16,28.07t-33.64,70.69q-14,42.6-14,83.74,0,14.05,2.42,19.85a8.73,8.73,0,0,0,8.71,5.81q10.17,0,20.33-15.49m133.13-36.79h9.2l-12.1,35.34q-17.43,49.86-69.23,49.86-29.54,0-42.12-16.94-8.24-12.1-8.23-29.53a53.67,53.67,0,0,1,.49-8.24q-11.62,29.55-30,42.12t-43.57,12.59q-30,0-45-15.49t-15-45q0-45.5,24.45-93.44t61-79.39q36.54-31.46,69.94-31.46,27.6,0,30,27.59l6.29-20.33a569.08,569.08,0,0,0,87.63-7.26l-65.36,216.87a39.82,39.82,0,0,0-1.93,11.62c0,5.81,2.57,8.72,7.74,8.72q14,0,25.66-30.5Z"></path>
        <path class="cls-1" d="M1656.31,511q12.59,13.32,12.59,33.65,0,24.69-15.49,42.6t-39.21,17.91q-17.91,0-27.12-9.2t-9.19-27.11q0-21.28,15.5-38.73t37.26-21.3a51,51,0,0,0-6.77-1.45,62,62,0,0,0-28.07,6.29q-12.61,6.32-27.85,31t-32.19,75.52l-35.34,135.54h-85.67l59-210.09a50,50,0,0,0,1.94-12.59q0-7.74-6.28-7.75-7.77,0-14,6.78t-12.59,23.72l-11.14,29.53h-9.2l13.56-37.76q17.9-49.85,72.13-49.86,23.25,0,33.89,12.59t10.65,32.43a80.84,80.84,0,0,1-.48,10.17q14-30.5,30.24-42.85T1622,497.65q21.78,0,34.36,13.31"></path>
        <path class="cls-1" d="M1844.24,535.41A88.39,88.39,0,0,1,1875,513.14a13.68,13.68,0,0,0-5.32-4.6,15.2,15.2,0,0,0-6.78-1.69q-13.07,0-22.27,7.74a41.6,41.6,0,0,0-10.41,13.8q-4.11,8.48-9.92,24.45Q1811.07,579,1801.64,594t-28.8,20.33q88.59,1,88.59,54.7a75.94,75.94,0,0,1-1.94,17.43l-5.81,28.07a48.68,48.68,0,0,0-1.45,10.66q0,9.69,7.26,9.68,14,0,25.66-30.5l10.16-27.11h9.2l-12.1,35.34Q1874,762.45,1815,762.45q-23.73,0-35.35-10.89T1768,720.33a106.42,106.42,0,0,1,2.42-20.33l8.23-34.37a75.5,75.5,0,0,0,3.38-20.82q0-10.63-5.56-16.69t-17.67-9l-40.18,136.51h-85.68l95.85-322.89q2.42-8.71,2.41-13.55,0-9.68-7.5-14t-25.41-4.36l3.38-10.16a490.42,490.42,0,0,0,69.23-5.33,383.13,383.13,0,0,0,60.51-14.52L1761.22,610q15-3.37,24.69-12.34A64.68,64.68,0,0,0,1800.67,578a252.92,252.92,0,0,0,10.9-28.08,246.92,246.92,0,0,1,9.92-25.17,48,48,0,0,1,11.86-16,42.92,42.92,0,0,1,15.25-8.48,52.8,52.8,0,0,1,15.73-2.66q26.63,0,41.15,15.73T1920,552.84q0,22.75-13.79,35.82t-35.1,13.07q-18.4,0-28.81-9.44t-10.4-24a48.26,48.26,0,0,1,12.34-32.92"></path>
        <path class="cls-1" d="M1190.68,887a17.63,17.63,0,0,1-3.82,6l-5.29,5.08a17,17,0,0,1-5.84,3.61,18.6,18.6,0,0,1-6.89,1.49H1164a7.71,7.71,0,0,1-5.31-2.12,6.69,6.69,0,0,1-2.32-5.09v-4.67a7.59,7.59,0,0,1,2.32-5.51,7.35,7.35,0,0,1,5.31-2.33H1165a7.75,7.75,0,0,0,5.19-1.91,5.72,5.72,0,0,0,2.23-4.45,5.73,5.73,0,0,1,2.22-4.45,7.77,7.77,0,0,1,5.2-1.91h4.87a7.25,7.25,0,0,1,7.43,7.42v1.91a18.68,18.68,0,0,1-1.49,6.89m-62.43,83a7.54,7.54,0,0,0,5.4,2.12H1165a7.31,7.31,0,0,0,5.19-2.12,7,7,0,0,0,2.23-5.3v-28a7,7,0,0,0-2.23-5.3,7.31,7.31,0,0,0-5.19-2.12h-31.38a7.54,7.54,0,0,0-5.4,2.12,7,7,0,0,0-2.23,5.3v28a7,7,0,0,0,2.23,5.3m53.21,19.18a17.23,17.23,0,0,0-1.59,6.68V1038a7.9,7.9,0,0,0,1.8,5.3,5.53,5.53,0,0,0,4.35,2.12,5.51,5.51,0,0,1,4.23,2.23,8,8,0,0,1,1.92,5.4v4.88a7.35,7.35,0,0,1-2.12,5.19,7.07,7.07,0,0,1-5.31,2.23h-1.48a17.46,17.46,0,0,1-6.58-1.49,17.9,17.9,0,0,1-5.93-3.82l-5.3-5.51a17,17,0,0,1-3.82-5.72,17.55,17.55,0,0,1-1.69-7v-42.4a7.26,7.26,0,0,0-7.41-7.43H1146a7.26,7.26,0,0,0-7.42,7.43v42.4a18.38,18.38,0,0,1-1.6,7,14.2,14.2,0,0,1-3.92,5.72l-5.09,5.51a19.76,19.76,0,0,1-12.71,5.31h-1.7a6.81,6.81,0,0,1-5.09-2.23,7.31,7.31,0,0,1-2.12-5.19v-4.88a8.31,8.31,0,0,1,1.81-5.4,5.41,5.41,0,0,1,4.34-2.23,5.54,5.54,0,0,0,4.35-2.12,7.9,7.9,0,0,0,1.8-5.3V999.42a7.9,7.9,0,0,0-1.8-5.3,5.52,5.52,0,0,0-4.35-2.13,5.42,5.42,0,0,1-4.34-2.22,8.33,8.33,0,0,1-1.81-5.41V916.94a7.66,7.66,0,0,1,2.12-5.29,6.67,6.67,0,0,1,5.09-2.33h71.23a7.06,7.06,0,0,1,5.31,2.22,7.6,7.6,0,0,1,2.12,5.4v51.95a18.68,18.68,0,0,1-1.49,6.89,13.54,13.54,0,0,1-3.82,5.61l-1.48,1.7a19,19,0,0,0-3.92,6M1123.9,872.64a5.84,5.84,0,0,1,2.12,4.45,5.69,5.69,0,0,0,2.23,4.45,8,8,0,0,0,5.4,1.91h1.91a7.33,7.33,0,0,1,5.3,2.33,7.56,7.56,0,0,1,2.33,5.51V896a6.67,6.67,0,0,1-2.33,5.09,7.69,7.69,0,0,1-5.3,2.12h-5.94a18.91,18.91,0,0,1-6.77-1.49,16.85,16.85,0,0,1-5.95-3.61l-5.51-5.08a30.57,30.57,0,0,1-3.5-6.25,17.23,17.23,0,0,1-1.59-6.68v-1.91a7.2,7.2,0,0,1,2.12-5.3,7,7,0,0,1,5.09-2.12h5.09a7.63,7.63,0,0,1,5.3,1.91m-45.58,190.48a7.27,7.27,0,0,1-2.12-5.19V928.18a11.65,11.65,0,0,0-1.16-5.41c-.78-1.48-1.67-2.22-2.66-2.22s-2,.71-2.54,2.12a15.16,15.16,0,0,0-.84,5.51v125.3a7.26,7.26,0,0,1-2.24,5.51,7.54,7.54,0,0,1-5.4,2.12h-4a6.91,6.91,0,0,1-5.08-2.12,7.45,7.45,0,0,1-2.13-5.51V886.42a7.3,7.3,0,0,1,2.13-5.2,6.75,6.75,0,0,1,5.08-2.22h4a7.35,7.35,0,0,1,5.4,2.22,7.13,7.13,0,0,1,2.24,5.2v6.78a15.13,15.13,0,0,0,.84,5.51c.56,1.42,1.41,2.13,2.54,2.13s1.88-.75,2.66-2.23a11.65,11.65,0,0,0,1.16-5.41V878.36a7.54,7.54,0,0,1,2.12-5.41,6.78,6.78,0,0,1,5.09-2.22h4.87a7.15,7.15,0,0,1,5.2,2.22,7.39,7.39,0,0,1,2.22,5.41V893.2a12.64,12.64,0,0,0,1.06,5.41c.72,1.48,1.48,2.23,2.34,2.23,1.12,0,2,.7,2.64,2.11a13.53,13.53,0,0,1,1,5.52v4.45a13.45,13.45,0,0,1-1,5.51c-.63,1.42-1.52,2.12-2.64,2.12-.86,0-1.62.74-2.34,2.22a12.64,12.64,0,0,0-1.06,5.41v129.75a7.6,7.6,0,0,1-7.42,7.42h-4.87a6.79,6.79,0,0,1-5.09-2.23"></path>
        <path class="cls-1" d="M1295.09,960.41a7.31,7.31,0,0,0,5.2,2.12h85.43a7.58,7.58,0,0,0,5.41-2.12,7,7,0,0,0,2.22-5.3v-.21a7,7,0,0,0-2.22-5.3,7.55,7.55,0,0,0-5.41-2.13h-85.43a7.28,7.28,0,0,0-5.2,2.13,7,7,0,0,0-2.22,5.3v.21a7,7,0,0,0,2.22,5.3m77.7,76.85a7.92,7.92,0,0,0-5.3-1.81H1281a7.2,7.2,0,0,1-7.2-7.2v-2.76a7.58,7.58,0,0,1,2.11-5.41,6.8,6.8,0,0,1,5.09-2.22h86.5a19,19,0,0,0,6.78-1.38A16,16,0,0,0,1380,1013l2.34-2.13a4.64,4.64,0,0,0,1.69-3q0-2.13-3.81-2.13H1281a6.8,6.8,0,0,1-5.09-2.22,7.55,7.55,0,0,1-2.11-5.4v-2.34a7.19,7.19,0,0,1,2.11-5.3,7,7,0,0,1,5.09-2.12h124a7.56,7.56,0,0,1,5.4,2.12,7,7,0,0,1,2.23,5.3v2.34a16.9,16.9,0,0,1-1.59,6.78,19.16,19.16,0,0,1-3.93,5.93L1405,1013c-1.28,1.26-1.92,2.32-1.92,3.17,0,1.14,1,1.7,3,1.7a6.07,6.07,0,0,1,4.56,2.22,7.85,7.85,0,0,1,2,5.41v2.76a6.81,6.81,0,0,1-2.23,5.09,7.55,7.55,0,0,1-5.4,2.11h-5.31a7.43,7.43,0,0,0-7.41,7.22v1.69a17.12,17.12,0,0,1-1.38,6.36,22.33,22.33,0,0,1-3.5,5.93l-3.6,3.39a13.66,13.66,0,0,1-5.52,3.82,17.84,17.84,0,0,1-6.79,1.49h-73.35a7,7,0,0,1-5.29-2.23,7.27,7.27,0,0,1-2.12-5.19v-3.4a6.67,6.67,0,0,1,2.12-4.87,7.14,7.14,0,0,1,5.29-2.12h69.33a8.23,8.23,0,0,0,5.3-1.7,5.43,5.43,0,0,0,2.12-4.45,5.33,5.33,0,0,0-2.12-4.13m-96.89-105a7,7,0,0,1,5.09-2.12h124a7.56,7.56,0,0,1,5.4,2.12,6.79,6.79,0,0,1,2.23,5.09v21.62a15,15,0,0,1-1.7,6.47,18.27,18.27,0,0,1-4,5.61l-4.24,3.82a16.4,16.4,0,0,1-6,3.72,19.82,19.82,0,0,1-6.89,1.37H1281a6.8,6.8,0,0,1-5.09-2.22,7.32,7.32,0,0,1-2.11-5.2V937.3a6.94,6.94,0,0,1,2.11-5.09m0-25.86a6.93,6.93,0,0,1,5.09-2.12h124a7.52,7.52,0,0,1,5.4,2.12,7,7,0,0,1,2.23,5.3v2.54a6.79,6.79,0,0,1-2.23,5.09,7.56,7.56,0,0,1-5.4,2.12H1281a7.22,7.22,0,0,1-7.2-7.21v-2.54a7.19,7.19,0,0,1,2.11-5.3m134.52-33.71a5.94,5.94,0,0,1,2.23,4.66,13.73,13.73,0,0,1-1.59,6.15,16.19,16.19,0,0,1-4.14,5.3l-4,3.6a18.26,18.26,0,0,1-6.15,3.5,20.32,20.32,0,0,1-6.78,1.38H1281a7.22,7.22,0,0,1-7.2-7.21v-2.76a7.65,7.65,0,0,1,2.11-5.29,6.64,6.64,0,0,1,5.09-2.34h104.73a11.53,11.53,0,0,0,5.41-1.16,3.47,3.47,0,0,0,2.22-3.07,3.92,3.92,0,0,1,2.13-3.29,9.46,9.46,0,0,1,5.29-1.38H1405a8,8,0,0,1,5.4,1.91"></path>
        <path class="cls-1" d="M1586.38,882.81a7.31,7.31,0,0,1,5.19-2.12h19.09a9,9,0,0,0,5.29-1.48,4.34,4.34,0,0,0,2.13-3.6,4.16,4.16,0,0,1,2.12-3.4,9,9,0,0,1,5.29-1.48h4.45a6.72,6.72,0,0,1,5.41,2.12,7.9,7.9,0,0,1,1.81,5.3,15.65,15.65,0,0,1-1.28,6,17.27,17.27,0,0,1-3.82,5.62l-5.09,5.3a17.53,17.53,0,0,1-5.62,3.49,17,17,0,0,1-6.67,1.6h-5.52a7.28,7.28,0,0,0-5.18,2.12,6.75,6.75,0,0,0-2.23,5.08V928a7.62,7.62,0,0,0,7.41,7.42h20.78a7.23,7.23,0,0,1,7.42,7.42v4.66a10.3,10.3,0,0,1-1.27,5.2c-.84,1.48-1.84,2.23-3,2.23a3.12,3.12,0,0,0-2.76,2,11.05,11.05,0,0,0-1.07,5.19v95.83a7.3,7.3,0,0,1-2.11,5.19,6.82,6.82,0,0,1-5.09,2.23H1621a6.79,6.79,0,0,1-5.09-2.23,7.27,7.27,0,0,1-2.12-5.19V962.1a7.93,7.93,0,0,0-1.69-5.09,5.45,5.45,0,0,0-4.46-2.11,5.32,5.32,0,0,0-4.13,2.11,7.63,7.63,0,0,0-1.8,5.09v80.35a18.22,18.22,0,0,1-1.49,6.68,26.91,26.91,0,0,1-3.39,6.25l-3.82,4.24a28.89,28.89,0,0,1-5.08,4.14,8.72,8.72,0,0,1-4.24,1.59,3.91,3.91,0,0,1-3.28-2.23,9.66,9.66,0,0,1-1.39-5.19v-4.67a16.05,16.05,0,0,1,.75-5.3c.48-1.41,1.17-2.12,2-2.12s1.27-.71,1.69-2.12a18.5,18.5,0,0,0,.64-5.3V887.9a6.81,6.81,0,0,1,2.23-5.09m-18.23,129.11a6.79,6.79,0,0,1,2.23,5.09v21.41a18.93,18.93,0,0,0,.62,5.3c.43,1.41,1,2.12,1.7,2.12s1.3.71,1.8,2.12a16.05,16.05,0,0,1,.75,5.3v4.67a10.08,10.08,0,0,1-1.28,5.3,3.85,3.85,0,0,1-3.39,2.12,9.22,9.22,0,0,1-4.34-1.59,20.87,20.87,0,0,1-4.78-3.93l-4-4.66a21.52,21.52,0,0,1-3.29-6,19.36,19.36,0,0,1-1.37-6.68V1017a6.78,6.78,0,0,1,2.22-5.09,7.3,7.3,0,0,1,5.2-2.12h2.54a7.57,7.57,0,0,1,5.41,2.12m-39.86-65.4a7.12,7.12,0,0,0,5.19,2.23h5.73a7.41,7.41,0,0,0,5.41-2.23,7.13,7.13,0,0,0,2.22-5.2v-6.78a7,7,0,0,0-2.22-5.3,7.6,7.6,0,0,0-5.41-2.12h-5.73a7.29,7.29,0,0,0-5.19,2.12,7,7,0,0,0-2.22,5.3v6.78a7.09,7.09,0,0,0,2.22,5.2M1498.18,1048c.5-1.41,1.1-2.12,1.81-2.12s1.27-.71,1.69-2.12a18.86,18.86,0,0,0,.64-5.3V1017a6.78,6.78,0,0,1,2.22-5.09,7.58,7.58,0,0,1,5.41-2.12h2.75a7.26,7.26,0,0,1,7.22,7.21v25.44a19.63,19.63,0,0,1-1.38,6.68,24.44,24.44,0,0,1-3.29,6.25l-4,4.24a18.13,18.13,0,0,1-4.67,4,9.25,9.25,0,0,1-4.45,1.7,3.85,3.85,0,0,1-3.38-2.12,10.17,10.17,0,0,1-1.27-5.3v-4.67a16.37,16.37,0,0,1,.73-5.3M1525,978.75a5.38,5.38,0,0,0,2.33-4.35A5.63,5.63,0,0,0,1525,970a8.09,8.09,0,0,0-5.3-1.91h-15a7.22,7.22,0,0,1-7.2-7.21v-4.67a8.2,8.2,0,0,1,1.69-5.29,5,5,0,0,1,4-2.12,4.69,4.69,0,0,0,3.92-2.23,8.65,8.65,0,0,0,1.6-5.2v-6.78a8.54,8.54,0,0,0-1.6-5.3,4.74,4.74,0,0,0-3.92-2.12,5,5,0,0,1-4-2.22,8.36,8.36,0,0,1-1.69-5.2V915a7.17,7.17,0,0,1,2.11-5.3,6.93,6.93,0,0,1,5.09-2.12H1568a6.93,6.93,0,0,1,5.09,2.12,7.22,7.22,0,0,1,2.12,5.3v4.66a8.73,8.73,0,0,1-1.59,5.2,4.56,4.56,0,0,1-3.72,2.22,4.78,4.78,0,0,0-3.92,2.12,8.6,8.6,0,0,0-1.59,5.3v6.78a8.71,8.71,0,0,0,1.59,5.2,4.72,4.72,0,0,0,3.92,2.23,4.59,4.59,0,0,1,3.72,2.12,8.57,8.57,0,0,1,1.59,5.29v4.67A7.24,7.24,0,0,1,1568,968h-14a7.68,7.68,0,0,0-5.2,1.91,5.71,5.71,0,0,0-2.22,4.45,5.46,5.46,0,0,0,2.22,4.35,8,8,0,0,0,5.2,1.8h14a7.22,7.22,0,0,1,7.21,7.2v4.67a7.73,7.73,0,0,1-2.12,5.3,6.63,6.63,0,0,1-5.09,2.33h-14a7.3,7.3,0,0,0-5.2,2.12,6.78,6.78,0,0,0-2.22,5.09v50.67a7.62,7.62,0,0,1-7.42,7.42h-4.66a6.76,6.76,0,0,1-5.09-2.23,7.28,7.28,0,0,1-2.13-5.19v-50.67a6.65,6.65,0,0,0-2.33-5.09,7.67,7.67,0,0,0-5.3-2.12h-15a6.63,6.63,0,0,1-5.09-2.33,7.68,7.68,0,0,1-2.11-5.3v-4.67a7.2,7.2,0,0,1,7.2-7.2h15a8.43,8.43,0,0,0,5.3-1.8m-25.44-96.15a7,7,0,0,1,5.09-2.12h43.88a9.12,9.12,0,0,0,5.2-1.48,4.13,4.13,0,0,0,2.22-3.39,4.06,4.06,0,0,1,2.13-3.5,9.06,9.06,0,0,1,5.08-1.38H1568a5.92,5.92,0,0,1,5.19,1.91,8.16,8.16,0,0,1,1.8,5.51,15.64,15.64,0,0,1-1.27,6,14.2,14.2,0,0,1-3.6,5.19l-5.29,5.52a21.43,21.43,0,0,1-5.84,3.49,17.22,17.22,0,0,1-6.68,1.6h-47.7a6.81,6.81,0,0,1-5.09-2.23,7.3,7.3,0,0,1-2.11-5.2v-4.87a6.94,6.94,0,0,1,2.11-5.09"></path>
        <path class="cls-1" d="M1825,1043.51a6.91,6.91,0,0,0,5.08,2.13h5.31a7.25,7.25,0,0,0,7.41-7.43V903.38a6.92,6.92,0,0,0-2.11-5.08,7.18,7.18,0,0,0-5.3-2.13h-5.31a7.26,7.26,0,0,0-7.2,7.21v134.83a7.13,7.13,0,0,0,2.12,5.3m-19.93,19.61a7.3,7.3,0,0,1-2.13-5.19V883.88a7.28,7.28,0,0,1,7.43-7.43h45a6.91,6.91,0,0,1,5.08,2.13,7.16,7.16,0,0,1,2.12,5.3v158.57a18.4,18.4,0,0,1-1.48,6.68,14.8,14.8,0,0,1-3.61,5.62l-5.29,5.3a18.27,18.27,0,0,1-5.94,3.82,17.82,17.82,0,0,1-6.79,1.48h-29a7,7,0,0,1-5.3-2.23m-57.35-79.07a45.5,45.5,0,0,0,.53-6.47,5.15,5.15,0,0,0-2.22-4.24,8.34,8.34,0,0,0-5.2-1.69h-12.5a7.27,7.27,0,0,1-7.22-7.21v-5.09a7.32,7.32,0,0,1,2.13-5.2,6.75,6.75,0,0,1,5.09-2.22h12.5a7.31,7.31,0,0,0,5.2-2.12,7,7,0,0,0,2.22-5.3V906.77a7.93,7.93,0,0,0-1.69-5.09,5.05,5.05,0,0,0-4-2.11A12.75,12.75,0,0,1,1737,898a20.61,20.61,0,0,1-5.3-3.71l-5.51-5.3a20.83,20.83,0,0,1-3.6-5.73,15.19,15.19,0,0,1-1.49-5.94,6,6,0,0,1,2.13-4.66,7.32,7.32,0,0,1,5.09-1.91h5.09a9.53,9.53,0,0,1,5.29,1.38,4,4,0,0,1,2.12,3.29c0,1.13.71,2.12,2.12,3a10.22,10.22,0,0,0,5.3,1.27h39.44a7,7,0,0,1,5.18,2.33,7.46,7.46,0,0,1,2.23,5.3v4.87a7.62,7.62,0,0,1-7.41,7.43h-12.51a7.32,7.32,0,0,0-5.2,2.11,6.82,6.82,0,0,0-2.23,5.09v37.74a7,7,0,0,0,2.23,5.3,7.33,7.33,0,0,0,5.2,2.12h12.51a7.6,7.6,0,0,1,7.41,7.42v5.09a6.72,6.72,0,0,1-2.23,5.08,7.25,7.25,0,0,1-5.18,2.13h-12.51a8.36,8.36,0,0,0-5.2,1.69,5.16,5.16,0,0,0-2.23,4.24,54.33,54.33,0,0,0,2.12,12.93l12.31,47.91a16,16,0,0,0,3.17,5.2,5.76,5.76,0,0,0,4.24,2,4.75,4.75,0,0,1,3.92,2.11,8.62,8.62,0,0,1,1.59,5.3v4.88a7.62,7.62,0,0,1-7.41,7.42h-11.24a9.32,9.32,0,0,1-5.73-2.12,11,11,0,0,1-3.81-5.09l-6.78-27.34c-.43-2-1.14-3-2.12-3s-1.49,1-1.91,3l-6.79,27.34a11,11,0,0,1-3.81,5.09,9.32,9.32,0,0,1-5.73,2.12h-11.44a6.73,6.73,0,0,1-5.09-2.23,7.26,7.26,0,0,1-2.13-5.19v-4.88a8.56,8.56,0,0,1,1.6-5.3,4.74,4.74,0,0,1,3.92-2.11,6.13,6.13,0,0,0,4.24-2.13,11.66,11.66,0,0,0,3-5.09l12.29-47.91a29.92,29.92,0,0,0,1.59-6.46"></path>
        <path class="cls-2" d="M514.9,330l-.09-.3a258.7,258.7,0,0,0-83-123.92c-.39-.32-.75-.68-1.14-1-.78-.65-1.5-1.39-2.3-2-.28-.23-.53-.5-.82-.72l-12.13-8.66c-2.14-1.52-4.22-3.11-6.41-4.57l-4.59-3.28c-.35-.21-.7-.39-1.05-.61-3.72-2.32-7.52-4.5-11.34-6.63-.55-.3-1.14-.52-1.69-.83A262,262,0,0,0,338,155.66l-2-.56v0c-.77-.22-1.56-.34-2.33-.55-7.07-2-14.22-3.72-21.52-5.09-1.68-.32-3.39-.49-5.09-.78-6.47-1.08-13-2.1-19.58-2.7-4.12-.39-8.26-.43-12.4-.63-3.92-.17-7.77-.59-11.73-.59-.39,0-.77.06-1.15.06q-12.33,0-24.69,1.25c-.37,0-.77,0-1.14.06a260.4,260.4,0,0,0-68.1,16.61c-2.53,1-5.16,1.77-7.65,2.82-3.3,1.4-6.51,3.17-9.78,4.72-4.67,2.21-9.39,4.33-13.9,6.8-.39.21-.79.37-1.18.58-3.27,1.81-6.25,3.93-9.42,5.86-3.83,2.34-7.73,4.58-11.43,7.12-4.35,3-8.42,6.18-12.54,9.37-2.56,2-5.22,3.87-7.71,6-4.44,3.7-8.59,7.63-12.74,11.58-2,1.89-4,3.69-6,5.64-4,4-7.72,8.29-11.42,12.56-1.91,2.2-3.89,4.34-5.73,6.61-3.23,4-6.21,8.13-9.19,12.29-2.08,2.9-4.21,5.76-6.18,8.74-2.37,3.61-4.52,7.32-6.7,11s-4.52,7.6-6.58,11.53c-1.61,3.07-3,6.22-4.51,9.35-2.23,4.7-4.45,9.41-6.41,14.26-1.07,2.65-2,5.36-2.94,8-2,5.35-3.88,10.7-5.5,16.2-.77,2.64-1.35,5.32-2.05,8-1.43,5.52-2.85,11-3.93,16.68-.64,3.32-1,6.68-1.53,10-.75,5-1.58,10-2.06,15.06-.46,4.86-.55,9.75-.74,14.65-.12,3.32-.5,6.58-.5,9.94,0,.39.06.78.06,1.17,0,6,.47,11.91.9,17.87.2,2.8.2,5.66.49,8.44.39,3.8,1.17,7.58,1.73,11.38A261.73,261.73,0,0,0,46.69,557.64c1.48,2.15,3.12,4.13,4.66,6.23,3.46,4.7,6.94,9.39,10.7,13.85,2.54,3,5.26,5.83,7.91,8.71,3.06,3.31,6.06,6.66,9.28,9.81s6.41,5.89,9.66,8.78,6.2,5.56,9.44,8.17,6.66,5,10,7.5c3.58,2.62,7.14,5.25,10.85,7.68,3.1,2,6.28,3.85,9.45,5.74,4.25,2.54,8.5,5.06,12.91,7.37,2.79,1.45,5.65,2.74,8.49,4.09,4.91,2.35,9.83,4.65,14.9,6.7,2.64,1.06,5.34,2,8,2.93,5.28,1.93,10.57,3.83,16,5.43.64.18,1.24.45,1.88.63l0-.14,0,.14L160.79,766.15,391.17,638.44c1.82-1,3.39-2.27,5.17-3.31,6.39-3.75,12.64-7.7,18.67-12,3.57-2.51,7-5.12,10.4-7.78,4.24-3.32,8.33-6.78,12.36-10.35,3.57-3.16,7.17-6.26,10.53-9.58,4-3.93,7.69-8.14,11.42-12.32q7.54-8.46,14.26-17.45c3.22-4.29,6.44-8.58,9.39-13.07,2.42-3.69,4.62-7.46,6.84-11.25q4.31-7.32,8.15-14.91c1.77-3.51,3.5-7,5.11-10.6,2.73-6.07,5.14-12.29,7.41-18.59,1-2.83,2.18-5.61,3.1-8.48a261.18,261.18,0,0,0,7.42-28c.5-2.42.69-4.89,1.12-7.33,1.21-7,2.3-14,3-21.17.12-1.32.45-2.61.55-3.93.31-4,.16-8,.25-11.95.09-2.78.42-5.5.42-8.3,0-1.15-.15-2.25-.17-3.39s.1-2.18.07-3.27c-.15-6.26-.59-12.53-1.18-18.8-.12-1.21-.27-2.4-.4-3.6A262.33,262.33,0,0,0,514.9,330"></path>
      </g>
    </g>
  </g>
</svg>
