<?xml version="1.0" encoding="UTF-8"?>
<svg xmlns="http://www.w3.org/2000/svg" viewBox="0 0 1920 962">
  <defs>
    <style>
      .cls-1 {
        fill: #5eb3e4;
      }

      .cls-2 {
        fill: #fff;
      }

      .cls-3 {
        fill: #00263e;
      }
    </style>
  </defs>
  <g id="Layer_2" data-name="Layer 2">
    <g id="The_Freedom_Fund" data-name="The Freedom Fund">
      <g>
        <path class="cls-1" d="M1367.53,481c0-265.65-215.35-481-481-481s-481,215.36-481,481,215.34,481,481,481S1367.53,746.65,1367.53,481Z"></path>
        <path class="cls-2" d="M1310.92,380.93c-22.19-93.46-76.14-178.19-151.91-238.59-78-62.2-172.27-95.08-272.48-95.08S692.09,80.14,614.05,142.35c-75.77,60.39-129.72,145.12-151.92,238.58h18.1c21.88-88,73.17-167.75,144.78-224.83,74.9-59.7,165.33-91.25,261.52-91.25S1073.15,96.4,1148,156.1c71.61,57.08,122.91,136.79,144.78,224.83Z"></path>
        <path class="cls-2" d="M480.4,581.73C502.36,669.51,553.57,749,625,805.9c74.89,59.7,165.32,91.25,261.52,91.25s186.42-31.48,261.27-91c71.55-57,122.87-136.49,144.86-224.37h18.11c-22.31,93.3-76.3,177.87-152,238.13-78,62.07-172.13,94.88-272.22,94.88S692.09,881.86,614,819.65C538.45,759.4,484.58,674.93,462.29,581.73Z"></path>
        <g>
          <polygon class="cls-3" points="0 441.28 39.22 441.28 39.22 539.57 60.07 539.57 60.07 441.28 98.62 441.28 98.62 422.26 0 422.26 0 441.28"></polygon>
          <polygon class="cls-3" points="202.3 474.99 145.06 474.99 145.06 422.26 124.37 422.26 124.37 539.57 145.06 539.57 145.06 493.35 202.3 493.35 202.3 539.57 222.99 539.57 222.99 422.43 202.3 422.43 202.3 474.99"></polygon>
          <polygon class="cls-3" points="263.77 539.57 340.04 539.57 340.04 520.55 284.47 520.55 284.47 492.51 334.86 492.51 334.86 474.15 284.47 474.15 284.47 441.28 340.04 441.28 340.04 422.26 263.77 422.26 263.77 539.57"></polygon>
        </g>
        <path class="cls-2" d="M455.27,539.57H475.8s-3.13-31.16-3.13-45.73h52.52V475.5H472.67c0-14.82,2.2-34.22,2.2-34.22h56.67v-19H455.27C449.59,458.91,450.47,503.1,455.27,539.57Z"></path>
        <path class="cls-2" d="M645.18,464c0-24.54-15.69-41.72-46.89-41.72H560.74V539.57h20.7V505.52h12.84c3.67,0,7.18-.16,10.51-.49l24.87,34.54h24.2l-30-39.71C638.51,493,645.18,480.16,645.18,464Zm-48.39,23.2H581.44v-45.9h15.35c19.52,0,26,9.84,26,22.7S616.14,487.18,596.79,487.18Z"></path>
        <polygon class="cls-2" points="682.53 539.57 758.79 539.57 758.79 520.55 703.22 520.55 703.22 492.51 753.61 492.51 753.61 474.15 703.22 474.15 703.22 441.28 758.79 441.28 758.79 422.26 682.53 422.26 682.53 539.57"></polygon>
        <polygon class="cls-2" points="795.02 539.57 871.28 539.57 871.28 520.55 815.71 520.55 815.71 492.51 866.1 492.51 866.1 474.15 815.71 474.15 815.71 441.28 871.28 441.28 871.28 422.26 795.02 422.26 795.02 539.57"></polygon>
        <path class="cls-2" d="M951.73,422.26H907.51V539.57h44.22c35.87,0,62.75-25.2,62.75-58.74C1014.48,446.78,988.11,422.26,951.73,422.26Zm.17,98.29H928.37V441.28H951.9c23.53,0,40.39,16.85,40.39,39.88C992.29,504,974.6,520.55,951.9,520.55Z"></path>
        <path class="cls-2" d="M1102.83,420.26c-35.2,0-62.57,26.69-62.57,60.57,0,34.71,26.69,60.56,62.57,60.56s62.74-26,62.74-60.56C1165.57,445.78,1139.21,420.26,1102.83,420.26Zm.18,103c-22.7,0-40.39-18.53-40.39-42.05,0-24,17.18-42.21,40.39-42.21,23.52,0,40.37,18.18,40.37,42.21C1143.38,505,1125.69,523.21,1103,523.21Z"></path>
        <path class="cls-2" d="M1305.84,421.75l-47.55,85.45-48.73-85.45h-9.17L1197,539.57h20.21l.32-66.26,36.55,67.26h7.18l41.13-76.38s3.08,24-3.29,75.38h19.22c4.52-46.14,5.62-66.15-.32-117.82Z"></path>
        <g>
          <polygon class="cls-3" points="1430.59 539.57 1451.11 539.57 1451.11 493.84 1500.5 493.84 1500.5 475.5 1451.11 475.5 1451.11 441.28 1506.84 441.28 1506.84 422.26 1430.59 422.26 1430.59 539.57"></polygon>
          <path class="cls-3" d="M1612.11,490.84c0,22.53-10.84,31.88-28.53,31.88s-27.86-9.35-27.86-31.72V422.26H1535V491c0,35,19.18,50.74,48.55,50.74s49.22-15.69,49.22-50.74V422.26h-20.69Z"></path>
          <polygon class="cls-3" points="1751.56 497.18 1678.96 421.59 1672.45 421.59 1672.45 539.57 1693.15 539.57 1693.15 466.81 1766.74 540.41 1772.24 540.41 1772.24 422.26 1751.56 422.26 1751.56 497.18"></polygon>
          <path class="cls-3" d="M1857.26,422.26H1813V539.57h44.22c35.87,0,62.74-25.2,62.74-58.74C1920,446.78,1893.64,422.26,1857.26,422.26Zm.16,98.29H1833.9V441.28h23.52c23.54,0,40.39,16.85,40.39,39.88C1897.81,504,1880.12,520.55,1857.42,520.55Z"></path>
        </g>
      </g>
    </g>
  </g>
</svg>
