<?xml version="1.0" encoding="UTF-8"?>
<svg xmlns="http://www.w3.org/2000/svg" width="198" height="198" viewBox="0 0 198 198" fill="none">
  <rect width="198" height="198" fill="white" style="fill:white;fill-opacity:1;"></rect>
  <path d="M100.22 37.3196C101.913 37.5277 103.523 37.8295 104.823 38.8597C105.649 39.5118 106.152 40.3513 105.822 41.5827C105.493 42.8141 105.5 44.0975 105.302 45.3497C105.163 46.2343 104.91 47.0841 104.754 47.9825C104.546 49.148 104.379 50.3204 104.199 51.4929C103.987 52.8353 103.762 54.1777 103.571 55.527C103.439 56.4567 103.367 57.4002 103.242 58.3333C102.985 60.2376 102.704 62.1489 102.454 64.0463C102.368 64.7088 102.336 65.3818 102.291 66.0478C102.18 67.5671 102.118 69.0933 101.944 70.6092C101.771 72.125 101.497 73.731 101.33 75.2781C101.193 76.3127 101.144 77.3571 101.185 78.4C101.24 79.3435 102.18 79.5551 102.853 79.9471C103.058 80.0308 103.271 80.0946 103.488 80.1378C104.529 80.4847 104.529 80.4847 104.816 79.4198C105.51 76.8703 106.27 74.3346 106.856 71.7608C107.39 69.4194 107.723 67.0294 108.16 64.6603C108.465 62.9883 108.788 61.3199 109.111 59.6479C109.534 57.4661 109.895 55.2669 110.405 53.1024C110.779 51.5033 111.351 49.9493 111.827 48.3675C112.153 47.2818 112.43 46.1822 112.774 45.1034C113.242 43.6292 113.71 42.1515 114.265 40.712C114.562 40.0302 114.94 39.3872 115.393 38.7973C115.504 38.6412 115.871 38.6065 116.117 38.6134C116.69 38.6308 117.259 38.7036 117.828 38.766C117.945 38.766 118.126 38.7903 118.174 38.8632C118.788 39.9747 119.649 40.931 120.689 41.659C121.168 42.0059 121.383 42.7412 121.681 43.3066C122.469 44.7219 121.546 45.9498 121.185 47.2124C120.491 49.6406 119.614 52.0305 118.958 54.476C118.337 56.8035 117.883 59.1796 117.394 61.5419C116.992 63.5017 116.783 65.5136 116.225 67.4387C115.878 68.6528 115.837 69.9085 115.465 71.0948C115.215 71.7338 114.929 72.358 114.609 72.9645C114.373 73.5021 114.154 74.0467 113.936 74.5948C113.89 74.686 113.876 74.7894 113.894 74.8896C114.369 76.2355 113.547 77.2796 113.096 78.4069C113.03 78.5665 112.909 78.7538 112.947 78.896C113.242 80.006 112.683 80.9773 112.423 81.9763C112.288 82.4931 112.035 82.9822 111.882 83.4991C111.856 83.6854 111.9 83.8748 112.007 84.0298C112.155 84.2167 112.321 84.3887 112.503 84.5432C113.356 85.3965 113.8 85.3791 114.355 84.2899C116.138 80.7761 118.348 77.5328 120.599 74.3069C122.167 72.0487 123.787 69.8183 125.511 67.6781C127.432 65.2881 129.524 63.0334 131.501 60.6851C132.795 59.145 133.974 57.5077 135.289 55.9849C136.198 54.9443 137.249 53.9973 138.234 53.0087C138.851 52.3948 139.431 51.7392 140.093 51.1807C140.528 50.8567 141.004 50.5908 141.508 50.3898C141.697 50.3135 141.906 50.3025 142.102 50.3586C143.423 50.7055 144.134 51.7981 144.915 52.7867C145.536 53.4871 146.093 54.2416 146.58 55.0414C146.795 55.4438 146.809 56.2381 146.548 56.5538C145.508 57.8234 144.259 58.9438 143.166 60.1821C141.685 61.8575 140.27 63.5919 138.824 65.2985C138.175 66.0651 137.499 66.8109 136.86 67.5879C134.699 70.2137 132.472 72.791 130.412 75.5001C128.404 78.1329 126.499 80.8524 124.682 83.6205C123.606 85.2612 122.805 87.0892 121.851 88.8028C121.504 89.4341 121.057 90.0099 120.668 90.6204C120.575 90.7925 120.494 90.971 120.426 91.1546C120.604 91.1656 120.782 91.1516 120.956 91.113C124.876 89.6977 128.778 88.2339 132.712 86.8637C134.547 86.222 136.448 85.7711 138.307 85.2057C139.979 84.6958 141.623 84.1026 143.298 83.6309C145.702 82.9371 148.154 82.4064 150.534 81.6918C152.671 81.0536 154.762 80.2662 156.871 79.5343C157.227 79.4114 157.612 79.4047 157.972 79.515C158.332 79.6253 158.647 79.8471 158.873 80.1482C159.22 80.6235 159.605 81.0605 159.913 81.5357C160.146 81.8826 160.288 82.2815 160.496 82.6457C160.646 82.9328 160.829 83.2016 161.041 83.447C161.387 83.8147 161.249 84.4217 160.673 84.7166C160.097 85.0114 159.459 85.2404 158.862 85.5283C158.699 85.6115 158.585 85.8023 158.45 85.9445C158.629 85.8956 158.812 85.862 158.998 85.8439C159.379 85.8231 159.691 85.1953 160.135 85.7191L159.285 86.3296C159.103 86.5034 158.896 86.6494 158.671 86.7631C158.283 86.8915 157.849 87.5575 157.451 86.7354C157.402 86.6417 157.083 86.6799 156.889 86.6591C156.968 86.7562 157.114 86.8499 157.117 86.9505C157.117 87.11 157.069 87.3806 156.975 87.4118C156.393 87.6061 155.765 87.6858 155.196 87.9182C153.836 88.4732 152.525 89.1496 151.148 89.6526C150.582 89.8642 149.903 89.7636 149.275 89.8156C149.126 89.8143 148.979 89.8539 148.852 89.9301C147.152 91.2136 145.036 91.3176 143.114 92.0114C141.293 92.6808 139.396 93.1422 137.564 93.7908C134.006 95.05 130.471 96.3751 126.929 97.6793C124.585 98.543 122.247 99.4137 119.905 100.302C119.783 100.328 119.666 100.374 119.558 100.437C119.411 100.573 119.273 100.719 119.146 100.874C119.312 100.978 119.497 101.048 119.69 101.082C120.332 101.061 120.974 100.992 121.612 100.936C122.76 100.832 123.912 100.742 125.056 100.61C125.497 100.558 125.92 100.364 126.361 100.309C127.748 100.128 129.136 100.045 130.523 99.8057C132.039 99.542 133.527 99.1119 135.032 98.8136C136.208 98.5777 137.405 98.4459 138.584 98.2274C139.885 97.988 141.175 97.6897 142.473 97.4434C143.696 97.2122 144.925 96.9994 146.16 96.8052C147.301 96.6283 148.446 96.4583 149.594 96.33C150.742 96.2016 151.984 96.1253 153.174 96.0039C153.992 95.9172 154.8 95.7923 155.602 95.6882C156.861 95.5287 158.127 95.3969 159.383 95.1992C160.114 95.0847 160.822 94.7898 161.557 94.7205C162.088 94.6684 162.889 94.2348 163.042 95.2963C163.042 95.383 163.17 95.4732 163.261 95.5217C164.332 96.0733 164.156 97.1971 164.461 98.099C164.512 98.2603 164.591 98.4117 164.693 98.5465C164.867 98.7685 165.262 99.0495 165.213 99.1605C165.075 99.4959 164.832 99.7771 164.52 99.9617C164.086 100.145 163.635 100.284 163.174 100.378C162.95 100.411 162.732 100.477 162.529 100.576C162.393 100.669 162.348 100.891 162.265 101.058C162.454 101.082 162.644 101.092 162.834 101.089C162.993 101.089 163.15 100.992 163.306 100.995C163.462 100.999 163.524 101.096 163.632 101.155C163.552 101.242 163.483 101.377 163.385 101.405C162.386 101.686 161.377 101.932 160.378 102.213C159.542 102.449 158.724 102.771 157.877 102.955C157.031 103.139 156.174 103.195 155.324 103.326C154.055 103.517 152.789 103.739 151.509 103.923C150.551 104.062 149.583 104.124 148.633 104.27C146.552 104.617 144.471 104.981 142.414 105.383C140.409 105.775 138.425 106.264 136.416 106.636C134.654 106.962 132.857 107.097 131.106 107.461C127.914 108.142 124.656 108.46 121.393 108.412C119.923 108.384 118.448 108.502 116.978 108.561C116.827 108.549 116.676 108.586 116.548 108.665C115.854 109.359 115.16 110.052 114.466 110.722C114.19 110.988 113.893 111.233 113.578 111.454C113.079 111.801 113.176 112.217 113.426 112.657C114.869 115.214 116.398 117.725 117.73 120.337C119.219 123.265 120.575 126.262 121.893 129.266C122.75 131.215 123.488 133.22 124.196 135.229C124.598 136.366 124.834 137.563 125.143 138.732C125.622 140.55 126.076 142.371 126.583 144.181C126.771 144.944 127.039 145.685 127.384 146.391C128.424 148.33 128.771 150.484 129.441 152.541C129.651 153.036 129.831 153.543 129.978 154.06C130.037 154.352 129.77 154.688 129.77 155.007C129.77 155.649 129.361 155.281 129.115 155.316C128.712 155.372 128.313 155.434 127.911 155.486C127.681 155.523 127.45 155.545 127.217 155.552C126.596 155.552 125.955 155.41 125.362 155.531C124.186 155.767 123.974 155.59 123.693 154.459C123.305 152.884 122.781 151.337 122.257 149.808C121.216 146.79 120.176 143.786 119.107 140.789C118.247 138.333 117.425 135.867 116.516 133.432C115.892 131.756 115.129 130.133 114.435 128.482C113.599 126.47 112.787 124.448 111.931 122.443C111.313 121.003 110.627 119.591 109.999 118.152C109.558 117.142 109.156 116.116 108.76 115.089C108.57 114.596 107.942 114.225 107.515 114.53C106.651 115.148 105.649 115.072 104.702 115.224C104.13 115.318 104.081 115.571 104.133 116.043C104.313 117.67 104.424 119.307 104.633 120.93C104.782 122.096 105.07 123.244 105.243 124.399C105.273 124.911 105.273 125.424 105.243 125.936C105.292 127.452 105.358 128.964 105.399 130.48C105.462 132.896 105.514 135.313 105.555 137.73C105.576 138.694 105.51 139.662 105.555 140.619C105.68 142.596 105.864 144.57 106.02 146.547C106.02 146.731 106.02 146.918 106.02 147.102C106.02 148.836 105.999 150.602 106.02 152.35C106.02 153.443 106.298 154.563 106.128 155.618C105.885 157.158 106.783 158.587 106.474 160.047C106.048 161.969 106.28 163.887 106.183 165.806C106.159 166.322 105.937 166.614 105.323 166.624C104.515 166.624 103.661 166.364 102.895 166.905C102.791 166.978 102.499 166.857 102.34 166.756C101.49 166.229 100.73 166.43 99.9811 166.981C99.9048 167.037 99.5926 166.957 99.5683 166.881C99.4368 166.419 99.3428 165.947 99.2873 165.469C99.0064 163.596 98.7462 161.716 98.4895 159.836C98.4132 159.277 98.3612 158.715 98.33 158.154C98.2155 156.156 98.0906 154.161 98.0143 152.163C97.9345 150.012 97.9102 147.858 97.8478 145.708C97.8062 144.164 97.7438 142.624 97.6917 141.08C97.6397 139.537 97.5738 138.052 97.5356 136.536C97.4732 134.091 97.4524 131.649 97.3657 129.207C97.3032 127.524 97.2477 125.835 97.0188 124.17C96.7344 121.954 96.2973 119.758 95.9331 117.552C95.9019 117.371 95.9331 117.181 95.9331 116.997C95.8464 116.105 95.614 115.956 94.7364 115.873C94.1947 115.825 93.6677 115.671 93.1859 115.418C92.676 115.151 92.513 115.231 92.4297 115.765C92.2355 117.031 92.0516 118.301 91.788 119.553C91.5244 120.805 91.2018 122.113 90.8341 123.369C90.345 125.044 89.8351 126.716 89.2455 128.357C88.3367 130.893 87.3515 133.404 86.3907 135.922C85.4934 138.281 84.5928 140.637 83.6886 142.992C82.9463 144.91 82.2283 146.842 81.4339 148.736C80.4176 151.164 79.3527 153.547 78.274 155.937C78.0122 156.524 77.6877 157.081 77.3062 157.599C77.1397 157.824 76.6818 158.074 76.4841 157.994C75.4088 157.56 74.2815 157.647 73.1749 157.522C72.5692 157.409 71.9931 157.173 71.4822 156.828C71.0243 156.551 69.9837 156.482 69.5328 156.828C69.4426 156.898 69.3455 156.957 69.2519 157.019C69.186 156.887 69.0611 156.752 69.068 156.624C69.1027 155.718 69.1582 154.813 69.2241 153.908C69.2518 153.783 69.3248 153.673 69.4288 153.599C70.9585 152.361 71.3712 150.477 72.065 148.805C73.1819 146.086 74.1982 143.328 75.2596 140.584C76.106 138.392 76.9547 136.195 77.8056 133.994C79.0024 130.913 80.265 127.854 81.3819 124.743C82.2942 122.2 83.0573 119.602 83.8343 117.011C84.0662 116.164 84.2252 115.3 84.3095 114.426C84.3823 113.844 84.476 113.188 84.2783 112.671C84.1083 112.224 83.5498 111.915 83.144 111.572C82.7381 111.228 82.1034 111.166 82.5578 110.437C82.6064 110.361 82.4399 110.025 82.3427 110.011C82.1223 109.974 81.8962 110.024 81.7114 110.149C81.1425 110.663 80.6118 111.225 80.0707 111.769C78.0866 113.75 76.1234 115.755 74.1115 117.711C72.8038 118.984 71.4232 120.181 70.0913 121.433C68.1037 123.296 66.1265 125.176 64.1494 127.053C62.859 128.281 61.5895 129.533 60.2853 130.75C58.1694 132.73 56.0419 134.696 53.9029 136.647C53.7576 136.798 53.571 136.902 53.3666 136.946C53.1623 136.991 52.9493 136.974 52.7547 136.897C51.5788 136.55 50.3266 136.533 49.1472 136.179C48.2587 135.879 47.4247 135.438 46.6775 134.871C45.5849 134.084 45.571 133.22 46.459 132.162C46.6463 131.937 46.7192 131.611 46.9238 131.406C47.4719 130.861 48.0616 130.365 48.6374 129.835C49.7751 128.794 50.9406 127.802 52.0436 126.734C55.051 123.813 58.0202 120.837 61.031 117.926C62.8902 116.123 64.8119 114.374 66.6815 112.578C68.9258 110.42 71.1596 108.252 73.3588 106.049C74.3994 105.009 75.3221 103.902 76.2864 102.81C76.393 102.645 76.476 102.466 76.5327 102.279C76.3698 102.226 76.2007 102.195 76.0297 102.185C73.8444 102.334 71.6522 102.449 69.4704 102.667C67.4551 102.872 65.4328 103.104 63.4383 103.465C58.6723 104.329 53.8647 104.343 49.0571 104.214C47.3949 104.16 45.8023 103.534 44.5477 102.442C43.7944 101.884 42.9711 101.426 42.0989 101.082C41.7069 100.905 41.6132 100.756 41.693 100.343C41.8699 99.4033 42.0919 98.4979 43.0528 98.0643C43.4737 97.887 43.9194 97.7759 44.3743 97.7348C45.2033 97.6446 46.0463 97.655 46.8753 97.5544C48.3495 97.3741 49.8132 97.1521 51.2805 96.9266C52.1546 96.7913 53.0149 96.5797 53.8959 96.4618C54.9886 96.3196 56.0916 96.2675 57.1842 96.1149C58.2769 95.9623 59.3522 95.768 60.4414 95.6085C60.7397 95.5668 61.0553 95.657 61.3606 95.6432C64.2188 95.5183 67.0943 95.5946 69.904 94.8974C70.1433 94.8384 70.4381 95.0257 70.6948 95.0014C72.163 94.8726 73.637 94.8216 75.1105 94.8488C75.8042 94.8488 76.1996 94.4395 76.3765 93.8082C76.5708 93.0936 76.7547 92.3756 76.9593 91.6645C77.164 90.9534 76.9038 90.6586 76.2205 90.5684C75.3117 90.4539 74.4098 90.2007 73.501 90.1868C72.1482 90.1695 70.903 89.5798 69.5987 89.4931C68.279 89.3805 66.976 89.121 65.7138 88.7195C64.7911 88.4594 63.8962 88.0258 62.9388 87.9078C60.2957 87.5818 57.8086 86.6487 55.2244 86.0867C54.2397 85.8729 53.2854 85.5373 52.3836 85.0877C49.7682 83.7765 47.1562 82.448 44.6171 80.9946C42.8446 79.9817 41.1901 78.7677 39.4939 77.6195C39.0707 77.3316 38.8001 77.0021 39.1851 76.402C39.4939 75.9268 40.0801 75.4585 39.532 74.6676C39.3967 74.4803 39.9483 73.7102 40.3055 73.3217C40.42 73.1934 40.9577 73.3425 41.2386 73.4882C43.2123 74.4942 45.134 75.6007 47.1354 76.5338C49.0421 77.4293 50.9941 78.2247 52.9836 78.9168C55.2626 79.7042 57.5831 80.3876 59.921 80.9807C61.1663 81.2964 62.4913 81.2964 63.7713 81.4941C65.36 81.7335 66.9417 82.0179 68.52 82.3093C70.0982 82.6006 71.6418 82.9163 73.2235 83.2389C74.4699 83.4933 75.7094 83.7638 76.9419 84.0506C78.1976 84.3454 79.436 84.7027 80.6951 84.9733C81.4929 85.1432 81.9543 84.5085 82.3115 83.9777C82.4468 83.78 82.1901 83.1695 81.9647 82.8781C80.6847 81.3276 79.3943 79.7805 78.0346 78.3029C75.9534 76.0447 73.8514 73.7935 71.6765 71.6325C68.846 68.8158 65.8803 66.1345 63.081 63.2866C61.5548 61.7361 60.2471 59.967 58.8423 58.2986C57.6803 56.9111 56.4524 55.5964 55.3736 54.1638C54.0936 52.4641 52.9143 50.6951 51.7453 48.9087C51.3483 48.2315 51.0005 47.5267 50.7047 46.7997C50.6267 46.638 50.6036 46.4553 50.6388 46.2794C50.8816 45.4538 51.1591 44.6386 51.4262 43.8235C51.9257 42.2834 53.0461 41.9469 54.3087 42.932C55.3493 43.7541 56.3899 44.5901 57.5207 45.3289C58.3378 45.8887 58.977 46.6713 59.3626 47.5836C60.6668 50.5008 62.5399 53.0295 64.5899 55.4369C66.4699 57.6395 68.3569 59.8422 70.3341 61.9581C72.5575 64.3481 74.8677 66.6652 77.1744 68.9754C79.1134 70.9144 81.1252 72.791 83.0538 74.7266C84.3511 76.0343 85.5513 77.4391 86.8243 78.7711C87.0289 78.9862 87.4972 79.229 87.6741 79.1354C87.8791 79.0309 88.0359 78.8516 88.1121 78.6346C88.1883 78.4175 88.178 78.1795 88.0834 77.9699C87.3411 75.729 86.6751 73.4605 85.9259 71.2266C85.2321 69.1454 84.3615 67.0953 83.7302 64.9829C82.8006 61.8783 81.7982 58.7911 81.3021 55.5652C81.1148 54.365 80.5356 53.2307 80.2303 52.0409C79.7586 50.2164 79.3493 48.371 78.9642 46.5256C78.9456 46.1453 78.995 45.7648 79.1099 45.4018C79.1099 45.3359 79.2556 45.2214 79.2868 45.2353C79.3911 45.2996 79.4897 45.3727 79.5816 45.4538C79.703 45.5405 79.8314 45.6203 79.9528 45.7001C79.9875 45.5613 80.0777 45.4087 80.0499 45.2838C79.9563 44.8502 79.7967 44.4305 79.7031 43.9934C79.6824 43.7414 79.6894 43.4878 79.7239 43.2373C79.8921 43.3662 80.0416 43.5179 80.1679 43.6882C80.6708 44.6317 80.8616 44.6699 81.6663 44.0351C81.7723 43.9799 81.8882 43.9464 82.0073 43.9362C82.1264 43.9261 82.2463 43.9397 82.3601 43.9761C82.5753 44.0538 82.7642 44.1909 82.9047 44.3715C83.5593 45.0579 84.1721 45.783 84.7396 46.543C85.4334 47.5385 85.9918 48.6242 86.6127 49.6649C87.0697 50.3134 87.4756 50.9965 87.8267 51.7079C88.224 52.7218 88.5395 53.7657 88.7702 54.8298C89.1414 56.4359 89.4258 58.0592 89.731 59.6861C89.7623 59.8526 89.7311 60.1578 89.6513 60.1925C88.8639 60.5186 89.3044 60.855 89.6513 61.143C90.5531 61.92 90.7647 63.0681 90.9624 64.0879C91.2469 65.5517 92.0031 66.8005 92.3985 68.1984C92.5893 68.8921 92.7453 69.5859 92.9361 70.2796C92.9847 70.4392 93.1616 70.5641 93.283 70.7063C93.3336 70.5483 93.3742 70.3873 93.4044 70.2241C93.6195 68.5904 93.8484 66.9566 94.0357 65.3193C94.1294 64.4972 94.1155 63.6647 94.2091 62.8426C94.3965 61.2297 94.6393 59.6271 94.8335 58.0141C94.9619 56.9735 95 55.9329 95.1804 54.8923C95.4787 53.0642 95.8221 51.2431 96.1829 49.4255C96.5297 47.764 96.8766 46.1059 97.2477 44.4583C97.3669 43.8297 97.5858 43.2243 97.8964 42.6649C98.5624 41.5965 98.4202 40.3825 98.6768 39.2447C98.7678 38.9133 98.8933 38.5924 99.0514 38.2874C99.1659 38.0411 99.4503 37.8121 99.4434 37.5936C99.3671 36.6466 99.766 37.0525 100.22 37.3196Z" fill="#F5B335" style="fill:#F5B335;fill:color(display-p3 0.9608 0.7020 0.2078);fill-opacity:1;"></path>
  <path d="M80.9383 43.7994C80.8308 43.6911 80.7438 43.5641 80.6816 43.4247L80.8794 43.3623C80.9217 43.504 80.9416 43.6515 80.9383 43.7994Z" fill="#F5B335" style="fill:#F5B335;fill:color(display-p3 0.9608 0.7020 0.2078);fill-opacity:1;"></path>
</svg>
