<?xml version="1.0" encoding="UTF-8"?>
<svg xmlns="http://www.w3.org/2000/svg" viewBox="0 0 1920 787.3">
  <defs>
    <style>
      .cls-1 {
        fill: #020101;
      }

      .cls-2 {
        fill: #cb333b;
      }
    </style>
  </defs>
  <g id="Layer_2" data-name="Layer 2">
    <g id="The_END_Fund" data-name="The END Fund">
      <g>
        <path class="cls-1" d="M1797.65,300.43h17.53c77.38,0,83,60.15,83,96.22,0,57.89-28.13,96.22-79.39,96.22h-21.15Zm-20.48,211.63h35.7c74.42,0,107.13-51.6,107.13-118.69,0-74.78-36-112.13-112.77-112.13h-30.06Zm-176.27,0h19.18V308.34h.66l96.89,203.72h26.45V281.24h-19.16v205h-.66l-96.93-205H1600.9Zm-170-85c0,49.6,14.91,87.33,68.47,87.33s68.43-41.68,68.43-87.33V281.24h-20.49V426.73c0,31.13-4.64,68.48-47.94,68.48-41.33,0-48-33.74-48-68.48V281.24h-20.49Zm-121.38,85h20.55V401.62h70.08V382.44H1330.1v-82h73.7V281.24h-94.25Zm-991.41,0h101.5V492.87h-81V401.62h73.72V382.44H338.63v-82H416V281.24H318.14Zm-170.66,0H168V401.62h89.93V512.06h20.5V281.24h-20.5v101.2H168V281.24H147.48ZM0,300.43H53.58V512.06H74.06V300.43h53.58V281.24H0Z"></path>
        <path class="cls-2" d="M866.43,0C649,0,472.76,176.24,472.76,393.67S649,787.3,866.43,787.3,1260.1,611.07,1260.1,393.67,1083.83,0,866.43,0Zm0,753.85c-198.62,0-360.2-161.59-360.2-360.22S667.81,33.45,866.43,33.45,1226.64,195,1226.64,393.63,1065.06,753.85,866.43,753.85Zm171.85-445.1H1024v166h14.25c47.62,0,69.12-32.37,69.12-83S1085.9,308.75,1038.28,308.75ZM866.43,54.44c-187,0-339.2,152.16-339.2,339.19S679.4,732.86,866.43,732.86s339.21-152.17,339.21-339.23S1053.47,54.44,866.43,54.44ZM728.75,507.16H604.09V276.34H725.47v33.73h-79v61.51h74.72v33.74H646.44v68.1h82.31Zm206.37,0h-50.6l-76.37-179.9h-.66v179.9H769.08V276.34h50.3L896.1,457.56h.66V276.34h38.36Zm106.8,0H981.75V276.34h60.17c72.08,0,110.45,39,110.45,115.41C1152.37,469.47,1106.05,507.16,1041.92,507.16Z"></path>
      </g>
    </g>
  </g>
</svg>
