<?xml version="1.0" encoding="UTF-8"?>
<svg xmlns="http://www.w3.org/2000/svg" width="60" height="60" viewBox="0 0 60 60" fill="none">
  <rect width="60" height="60" fill="#1A1A1A" style="fill:#1A1A1A;fill:color(display-p3 0.1037 0.1037 0.1037);fill-opacity:1;"></rect>
  <path d="M35.6362 22.0801C34.9142 22.0801 34.2825 22.0801 33.6046 21.943L33.3788 21.8973V35.3745C33.3788 35.6937 33.3337 35.7851 33.1531 35.9222L25.5665 40.8103C26.6954 41.3585 28.0502 41.7234 29.4501 41.7234C34.2374 41.7234 39.6553 39.0743 42.1847 32.4502C42.2298 32.2675 42.3658 32.1766 42.4561 32.1766C42.5459 32.1766 42.6363 32.3132 42.6363 32.6329V33.0898C42.6363 40.354 37.1721 46.8867 29.0888 46.8867C20.283 46.8867 15 40.1713 15 33.1812C15 27.8819 17.7541 22.9481 24.2569 20.938C24.6182 20.8466 24.6633 20.9837 24.4375 21.1664C21.5926 23.4049 20.0577 27.0596 20.0577 30.7142C20.0577 34.5979 21.5926 38.4342 25.0246 40.4905L26.9212 39.0286C27.5535 38.5266 27.6889 38.0693 27.6889 37.3384V20.7101C25.6116 19.9335 23.7602 19.4761 22.0442 19.4761C19.6959 19.4761 17.5735 20.5268 15.4962 23.0856C15.2258 23.4049 15.135 23.3135 15.135 23.0856C15.4064 17.9229 19.9669 14.9997 24.4827 14.9997C27.1922 14.9997 29.7662 15.6844 32.3854 16.3696C34.7787 16.9635 37.1721 17.5579 39.7005 17.5579C41.553 17.5579 43.4039 17.1006 45.0296 16.2783C45.1651 16.1869 45.3001 16.3245 45.2103 16.5529C43.4943 20.6187 39.6107 22.0801 35.6362 22.0801Z" fill="white" style="fill:white;fill-opacity:1;"></path>
</svg>
