<?xml version="1.0" encoding="UTF-8"?>
<svg xmlns="http://www.w3.org/2000/svg" width="187" height="187" viewBox="0 0 187 187" fill="none">
  <rect width="187" height="187" fill="white" style="fill:white;fill-opacity:1;"></rect>
  <path d="M113.44 75.6553C113.306 72.2237 113.157 68.7878 112.992 65.3489C114.39 65.4601 115.811 65.5497 117.266 65.6277C118.72 65.7057 120.141 65.7504 121.539 65.7504C122.938 65.7504 124.359 65.684 125.802 65.5497C127.244 65.4154 128.677 65.3489 130.075 65.3489C132.26 65.3403 134.443 65.5165 136.598 65.8747C138.491 66.1693 140.317 66.7976 141.989 67.7306C143.513 68.5812 144.79 69.8147 145.692 71.308C146.656 73.0253 147.128 74.9736 147.057 76.9407C147.243 80.4503 145.871 83.869 143.309 86.2751C140.513 88.6784 137.139 90.3148 133.521 91.0254V91.1814C137.559 91.1583 141.51 92.3671 144.841 94.6476C147.604 96.7375 148.988 100.091 148.991 104.709C149.083 107.354 148.441 109.974 147.134 112.277C145.936 114.286 144.28 115.983 142.301 117.229C140.289 118.5 138.065 119.401 135.735 119.889C133.394 120.395 131.005 120.649 128.609 120.649C127.322 120.649 126.009 120.627 124.71 120.571C123.41 120.515 122.093 120.493 120.81 120.493H116.911C115.59 120.493 114.293 120.549 113.011 120.649C113.167 117.217 113.324 113.797 113.459 110.395C113.593 106.992 113.659 103.508 113.659 99.977V86.1177C113.636 82.5749 113.563 79.0869 113.44 75.6553ZM130.186 89.5046C131.937 89.1709 133.614 88.5326 135.142 87.6154C136.58 86.7388 137.783 85.5212 138.643 84.0726C139.586 82.3655 140.046 80.433 139.974 78.4832C140.062 76.6476 139.645 74.822 138.767 73.2073C138.02 71.9479 136.969 70.895 135.712 70.144C134.42 69.4001 132.998 68.9076 131.524 68.691C129.977 68.4498 128.413 68.3299 126.847 68.3328C125.449 68.3328 124.275 68.3776 123.301 68.4556C122.328 68.5336 121.479 68.6347 120.729 68.7343C120.618 71.3052 120.517 73.8543 120.404 76.3804C120.292 78.9064 120.248 81.4556 120.248 84.0264V90.062H124.6C126.476 90.0606 128.348 89.8743 130.186 89.5046ZM120.398 109.379C120.51 112.063 120.611 114.766 120.723 117.506C121.734 117.618 122.949 117.707 124.347 117.785C125.745 117.863 127.166 117.908 128.621 117.908C130.312 117.915 131.992 117.616 133.576 117.025C135.126 116.451 136.54 115.561 137.726 114.41C138.953 113.198 139.914 111.744 140.545 110.139C141.268 108.308 141.627 106.351 141.596 104.382C141.676 102.414 141.245 100.457 140.344 98.7032C139.512 97.2257 138.269 96.0212 136.765 95.2369C135.012 94.3458 133.121 93.7594 131.171 93.5038C128.755 93.1644 126.317 93.0041 123.878 93.0228H120.254V101.228C120.241 103.992 120.299 106.697 120.398 109.379Z" fill="#939598" style="fill:#939598;fill:color(display-p3 0.5765 0.5843 0.5961);fill-opacity:1;"></path>
  <path d="M69.9646 90.5889C68.7341 93.9989 67.4848 97.4709 66.2167 101.007C64.9486 104.542 63.7253 108.03 62.5482 111.469C61.3625 114.901 60.3414 117.959 59.4835 120.646C58.2529 120.535 56.8838 120.49 55.3774 120.49H53.2861C52.5856 120.491 51.8865 120.543 51.1947 120.646C50.6026 118.443 49.8299 115.604 48.8564 112.117C47.883 108.631 46.8431 104.929 45.7137 101.007C44.5843 97.0838 43.4317 93.1366 42.2474 89.136C41.0631 85.1353 39.9654 81.4813 38.9472 78.1479C37.929 74.8145 37.0653 71.988 36.3648 69.6526C35.6644 67.3172 35.2094 65.8859 35 65.3486C36.1858 65.4598 37.3383 65.5494 38.4663 65.6274C39.5943 65.7054 40.6919 65.7501 41.7665 65.7501C42.841 65.7501 43.9257 65.7054 45.0334 65.6274C46.1412 65.5494 47.2258 65.4483 48.3004 65.3486C49.1049 68.7802 49.9628 72.3086 50.8727 75.9338C51.7826 79.5589 52.7069 83.1292 53.6471 86.6431C54.5874 90.1527 55.5016 93.5583 56.3913 96.86C57.2752 100.157 58.0912 103.215 58.8465 105.992H59.0025C60.1883 102.617 61.4636 98.9542 62.8284 95.0041C64.1933 91.054 65.5206 87.1905 66.8103 83.4123C68.0972 79.634 69.2786 76.1461 70.356 72.9499C71.4335 69.7537 72.2683 67.219 72.8619 65.3486C73.5551 65.4598 74.2267 65.5494 74.8752 65.6274C75.5439 65.7083 76.2155 65.7501 76.8885 65.7501C77.5615 65.7501 78.2331 65.7083 78.9018 65.6274C79.5503 65.5494 80.2219 65.4483 80.9152 65.3486C81.2329 66.9518 81.6359 68.5376 82.1226 70.0989C82.7147 72.0891 83.3979 74.2801 84.1807 76.6935C84.9635 79.1069 85.794 81.6575 86.6764 84.3409C87.5589 87.0244 88.4442 89.6848 89.3382 92.3105C90.2322 94.9362 91.0381 97.4305 91.7935 99.8005C92.5489 102.171 93.1583 104.227 93.6508 105.994H93.8068C94.8799 102.618 96.0209 98.8878 97.2298 94.8048C98.4386 90.7218 99.6056 86.7789 100.731 82.979C101.86 79.1675 102.881 75.6796 103.795 72.5166C104.713 69.3536 105.351 66.9605 105.731 65.3515C106.841 65.5927 107.972 65.7285 109.109 65.7545C109.716 65.7516 110.321 65.7111 110.922 65.6317C111.537 65.5537 112.174 65.4526 112.812 65.353C112.432 66.364 111.85 68.0364 111.044 70.3386C110.238 72.6408 109.301 75.3647 108.234 78.506C107.166 81.6474 106.008 85.0674 104.767 88.7604C103.527 92.4535 102.295 96.1942 101.064 99.9493C99.8338 103.704 98.6365 107.383 97.4854 110.971C96.3343 114.558 95.3262 117.789 94.4654 120.629C93.2349 120.517 91.8657 120.473 90.3593 120.473H88.2651C87.5646 120.474 86.8656 120.526 86.1738 120.629C84.4508 114.082 82.5053 107.575 80.3346 101.112C78.1638 94.6488 75.8674 88.0629 73.4439 81.3556H73.2879C72.3029 84.1055 71.1951 87.1833 69.9646 90.5889Z" fill="#AA282C" style="fill:#AA282C;fill:color(display-p3 0.6667 0.1569 0.1725);fill-opacity:1;"></path>
</svg>
